<svg width="241" height="241" viewBox="0 0 241 241" fill="none" xmlns="http://www.w3.org/2000/svg">
<mask id="mask0_794_66505" style="mask-type:luminance" maskUnits="userSpaceOnUse" x="0" y="0" width="241" height="241">
<path d="M240.5 0.5H0.5V240.5H240.5V0.5Z" fill="white"/>
</mask>
<g mask="url(#mask0_794_66505)">
<g opacity="0.25">
<path d="M0.504805 120.5C0.504805 114.406 3.47601 108.891 8.27841 104.902C13.0808 100.906 19.7168 98.4391 27.0464 98.4391H62.648C66.0056 98.4391 69.2216 97.9183 72.1784 96.9727C67.1408 109.313 60.1928 123.764 55.7096 138.697C53.3504 138.913 51.068 139.393 48.8912 140.11C46.1312 141.013 43.5464 142.294 41.1848 143.895C40.82 144.14 40.4648 144.394 40.112 144.653C36.6872 143.312 32.8616 142.563 28.8224 142.563H27.0416C12.3848 142.563 0.5 132.687 0.5 120.502L0.504805 120.5Z" fill="#DDDDE3"/>
<path d="M240.5 208.744C240.5 214.838 237.526 220.351 232.724 224.342C227.922 228.335 221.286 230.805 213.961 230.805H27.0416C12.3848 230.805 0.5 220.927 0.5 208.744C0.5 202.655 3.4712 197.138 8.2736 193.147C13.076 189.158 19.712 186.683 27.0416 186.683H28.8224C30.0608 186.683 31.28 186.611 32.4752 186.475C35.2592 190.778 39.0752 194.349 43.5752 196.84C46.2872 198.34 49.256 199.444 52.388 200.078H52.3904C54.3944 200.486 56.4608 200.697 58.5824 200.697C60.1304 200.697 61.6496 200.587 63.14 200.363C72.6608 212.959 84.1424 216.376 94.1408 215.807C94.1528 215.807 94.1744 215.807 94.1984 215.805C94.2344 215.805 94.2752 215.803 94.3304 215.8C97.6304 215.651 140.324 213.703 162.709 211.216C186.01 208.627 210.601 202.317 217.398 186.945C217.41 186.921 217.419 186.897 217.426 186.873C230.444 188.287 240.5 197.543 240.5 208.749V208.744Z" fill="#DDDDE3"/>
<path d="M240.507 120.5C240.507 126.594 237.533 132.109 232.731 136.098C227.929 140.094 221.293 142.561 213.968 142.561H164.693C164.18 124.916 178.17 103.028 178.659 82.5704C178.669 82.5656 178.822 82.484 181.198 81.2744C183.877 91.1 194.453 98.4368 207.085 98.4368H213.968C228.625 98.4368 240.509 108.313 240.509 120.498L240.507 120.5Z" fill="#DDDDE3"/>
<path d="M0.5 32.2586C0.5 26.165 3.4712 20.6522 8.2736 16.661C13.076 12.6674 19.712 10.2002 27.0416 10.2002H213.958C228.615 10.2002 240.5 20.0762 240.5 32.2586C240.5 38.3522 237.526 43.865 232.724 47.8562C227.922 51.8498 221.286 54.3194 213.961 54.3194H207.078C206.965 54.3194 206.85 54.3194 206.737 54.3218C202.52 46.8074 194.074 41.1578 187.465 40.0322C179.862 38.7386 167.079 38.7386 157.534 40.0322C147.99 41.3282 144.702 50.6738 144.702 50.6738C132.03 49.1786 117.824 49.8746 105.925 49.985C79.4792 50.2274 62.252 50.549 54.2408 53.8634C54.2408 53.8634 53.8592 54.0146 53.216 54.3194H27.044C12.3824 54.3194 0.5 44.4434 0.5 32.2586Z" fill="#DDDDE3"/>
<path d="M51.1966 85.8174C48.6166 88.239 45.1463 89.7246 41.3255 89.7246C33.3623 89.7246 26.9062 83.2686 26.9062 75.303C26.9062 67.3374 33.3623 60.8838 41.3255 60.8838C42.1223 60.8838 42.9046 60.9486 43.6678 61.0758C42.2518 62.5686 40.9798 64.2918 40.075 66.2454C36.4822 74.007 36.0431 80.6886 36.0863 83.859C36.1007 84.9462 36.9886 85.8174 38.0782 85.8174H51.199H51.1966Z" fill="#DDDDE3"/>
</g>
<g opacity="0.75">
<path d="M76.2932 85.8216H38.0804C36.9908 85.8216 36.1028 84.948 36.0884 83.8608C36.0476 80.6904 36.4868 74.0088 40.0772 66.2472C43.8884 58.0128 54.2444 53.8656 54.2444 53.8656C54.254 53.8632 54.2732 53.8584 54.302 53.8536C54.3212 53.8464 54.35 53.8416 54.3788 53.8344C56.1932 53.436 74.8004 49.884 78.2636 71.3424C78.9044 75.3096 78.0452 80.2104 76.2956 85.8216H76.2932Z" fill="#DDDDE3"/>
</g>
<path d="M76.821 86.5408H38.0778C36.6018 86.5408 35.385 85.3432 35.3658 83.8696C35.3226 80.5408 35.793 73.7848 39.4218 65.944C43.3098 57.5464 53.541 53.3704 53.973 53.1952L54.0114 53.1808C54.0354 53.1736 54.0714 53.1616 54.1242 53.152C54.153 53.1448 54.1842 53.1376 54.2178 53.128C55.749 52.792 63.7122 51.3448 70.3938 55.888C74.9394 58.9792 77.8242 64.1392 78.969 71.224C79.5786 75.0088 78.9474 79.7152 76.977 86.032L76.8186 86.5384L76.821 86.5408ZM54.4602 54.5536C53.6778 54.8824 44.2386 58.9672 40.7298 66.5488C37.221 74.1328 36.765 80.644 36.8082 83.8504C36.8178 84.5392 37.3866 85.1008 38.0802 85.1008H75.7602C77.5146 79.3336 78.0978 74.8648 77.5482 71.4568C76.4706 64.7776 73.7922 59.9416 69.585 57.0808C63.261 52.78 55.4058 54.3424 54.5298 54.5368L54.4602 54.5536Z" fill="#DDDDE3"/>
<g opacity="0.5">
<path d="M178.654 82.5721C178.138 104.127 162.637 127.27 164.9 145.361C165.742 152.117 168.601 158.383 172.117 163.798L120.38 167.254C120.38 167.254 110.941 166.959 107.463 174.725C103.983 182.491 104.389 189.689 104.389 189.689L128.089 187.927C127.313 190.339 126.555 191.955 126.555 191.955C126.555 191.955 124.129 199.479 116.602 207.003C113.249 210.358 104.581 215.16 94.3303 215.796C94.2775 215.799 94.2343 215.803 94.2007 215.803C94.1743 215.806 94.1551 215.806 94.1431 215.806C84.1447 216.377 72.6655 212.955 63.1423 200.362C64.5655 200.16 65.9551 199.851 67.3087 199.455C79.5391 195.881 88.6447 184.999 89.5711 171.855C89.6287 171.12 89.6527 170.379 89.6527 169.63C89.6527 158.671 83.9815 149.04 75.4111 143.513C74.8639 143.158 74.3047 142.822 73.7311 142.503C69.2503 139.992 64.0855 138.564 58.5871 138.564C57.6175 138.564 56.6575 138.607 55.7095 138.696C61.6279 118.983 71.8399 100.104 76.2895 85.8169C78.0391 80.2057 78.8983 75.3049 78.2575 71.3377C74.7943 49.8769 56.1895 53.4289 54.3727 53.8297C54.3463 53.8321 54.3223 53.8393 54.2959 53.8489C54.2671 53.8561 54.2479 53.8585 54.2383 53.8609C62.2519 50.5465 79.4791 50.2225 105.922 49.9825C117.824 49.8721 132.029 49.1737 144.701 50.6689C160.201 52.4977 173.401 57.6073 177.272 71.0929C178.349 74.8417 178.743 78.6793 178.649 82.5697L178.654 82.5721Z" fill="#DDDDE3"/>
</g>
<path d="M92.1052 216.586C83.6284 216.586 72.2572 213.61 62.5708 200.799L61.834 199.824L63.0436 199.651C64.3948 199.459 65.7628 199.162 67.1092 198.766C79.2292 195.223 87.97 184.39 88.8556 171.807C88.9084 171.115 88.9372 170.386 88.9372 169.632C88.9372 159.276 83.7364 149.739 75.0244 144.12C74.4892 143.775 73.9372 143.441 73.3852 143.134C68.8924 140.616 63.7756 139.287 58.5916 139.287C57.6508 139.287 56.7052 139.33 55.7812 139.416L54.718 139.515L55.0252 138.492C58.2988 127.584 62.9596 116.758 67.0708 107.203C70.4404 99.3746 73.6204 91.9826 75.6052 85.6082C77.4796 79.5938 78.1156 74.9666 77.5492 71.4578C76.4716 64.7786 73.7932 59.9426 69.586 57.0818C63.262 52.781 55.4068 54.3434 54.5308 54.5378L54.418 54.5642C54.4396 54.5594 54.4588 54.5522 54.4732 54.5474H54.4636C54.466 54.5474 54.4684 54.5474 54.4708 54.5474L53.9668 53.201C62.1076 49.8338 79.0108 49.5122 105.92 49.2674C108.305 49.2458 110.746 49.2002 113.328 49.1522C123.305 48.9674 134.614 48.7586 144.79 49.9586C153.569 50.993 160.409 52.9322 165.704 55.8866C171.989 59.393 176.117 64.445 177.97 70.8986C179.016 74.537 179.475 78.3626 179.376 82.5914C179.129 92.9162 175.503 103.536 171.996 113.808C168.113 125.179 164.448 135.919 165.617 145.272C166.354 151.179 168.744 157.279 172.724 163.407L173.391 164.436L120.394 167.976H120.358C120.274 167.976 111.356 167.799 108.12 175.02C105.389 181.114 105.106 186.915 105.096 188.916L129.101 187.131L128.772 188.148C128.05 190.395 127.349 191.945 127.224 192.219C126.994 192.91 124.457 200.165 117.111 207.509C113.859 210.763 105.123 215.847 94.3756 216.511H94.3492C94.3108 216.516 94.2772 216.519 94.246 216.519C94.2148 216.521 94.1884 216.521 94.1668 216.523C93.502 216.562 92.8132 216.581 92.1052 216.581V216.586ZM64.4548 200.88C74.4148 213.423 86.0284 215.549 94.1044 215.091L94.2028 215.086C94.2196 215.086 94.2388 215.086 94.2604 215.083H94.2892C104.636 214.443 112.997 209.599 116.096 206.499C123.396 199.2 125.847 191.813 125.871 191.739L125.904 191.655C125.912 191.64 126.444 190.498 127.061 188.731L103.712 190.467L103.671 189.735C103.654 189.435 103.296 182.271 106.805 174.435C110.364 166.491 119.602 166.522 120.365 166.536L170.859 163.162C167.151 157.195 164.907 151.243 164.184 145.452C162.972 135.768 166.692 124.875 170.628 113.343C174.099 103.174 177.689 92.657 177.932 82.5554C178.028 78.4754 177.586 74.7914 176.58 71.2946C173.309 59.8994 163.152 53.573 144.617 51.3866C134.54 50.1962 123.284 50.405 113.352 50.5898C110.765 50.6378 108.322 50.6834 105.932 50.705C85.2364 50.8946 70.4788 51.161 61.2628 52.745C64.0948 53.0066 67.3756 53.837 70.3948 55.889C74.9404 58.9802 77.8252 64.1402 78.97 71.225C79.5796 75.0098 78.9484 79.7162 76.978 86.033C74.9716 92.4794 71.7748 99.9074 68.3908 107.77C64.4212 116.993 59.938 127.409 56.7076 137.899C57.3316 137.863 57.9604 137.844 58.5892 137.844C64.0204 137.844 69.3796 139.239 74.086 141.874C74.6644 142.198 75.2428 142.546 75.8044 142.908C84.9268 148.793 90.3748 158.784 90.3748 169.63C90.3748 170.419 90.346 171.187 90.2908 171.91C89.3644 185.086 80.2108 196.435 67.5124 200.146C66.4996 200.443 65.4748 200.686 64.4524 200.875L64.4548 200.88Z" fill="#DDDDE3"/>
<g opacity="0.25">
<path d="M217.395 186.939C210.599 202.309 186.008 208.621 162.709 211.21C140.322 213.697 97.6281 215.646 94.3281 215.794C104.579 215.161 113.247 210.358 116.6 207.001C124.124 199.479 126.553 191.953 126.553 191.953C126.553 191.953 127.311 190.338 128.087 187.926C129.183 184.532 130.321 179.571 129.435 175.345C127.928 168.118 120.378 167.252 120.378 167.252L172.115 163.796L214.491 160.966C215.214 160.918 215.91 161.264 216.299 161.876C218.185 164.847 222.983 174.31 217.398 186.939H217.395Z" fill="#DDDDE3"/>
</g>
<path d="M94.3658 216.515L94.2891 215.077C104.635 214.436 112.999 209.593 116.095 206.495C123.413 199.179 125.847 191.809 125.871 191.735L125.904 191.651C125.911 191.634 126.653 190.043 127.404 187.707C128.479 184.376 129.583 179.555 128.734 175.494C127.354 168.877 120.583 168.003 120.298 167.97L120.334 166.537L172.071 163.081L214.447 160.251C215.439 160.184 216.382 160.662 216.91 161.492C217.875 163.009 219.603 166.22 220.363 170.667C221.292 176.103 220.517 181.676 218.059 187.232C212.333 200.18 193.74 208.489 162.792 211.926C140.655 214.386 99.0362 216.303 94.3634 216.515H94.3658ZM127.227 192.222C126.996 192.915 124.459 200.171 117.113 207.512C114.953 209.675 110.369 212.643 104.383 214.59C119.208 213.836 146.268 212.315 162.634 210.495C176.086 209 187.306 206.545 195.987 203.197C206.736 199.05 213.72 193.482 216.742 186.649C222.24 174.212 217.33 164.84 215.695 162.263C215.451 161.876 215.009 161.655 214.543 161.687L124.186 167.723C126.533 168.865 129.279 171.056 130.143 175.201C131.057 179.571 129.903 184.657 128.772 188.151C128.05 190.395 127.349 191.948 127.224 192.222H127.227Z" fill="#DDDDE3"/>
<g opacity="0.75">
<path d="M128.093 187.926L104.393 189.688C104.393 189.688 103.988 182.49 107.468 174.724C110.948 166.957 120.385 167.252 120.385 167.252C120.385 167.252 127.935 168.116 129.442 175.345C130.325 179.572 129.188 184.535 128.093 187.926Z" fill="#DDDDE3"/>
</g>
<path d="M103.713 190.464L103.672 189.732C103.655 189.432 103.298 182.268 106.806 174.432C110.44 166.32 120.002 166.527 120.405 166.536L120.465 166.541C120.546 166.551 128.55 167.554 130.146 175.2C131.061 179.571 129.906 184.656 128.776 188.151L128.627 188.611L103.713 190.464ZM120.275 167.974C119.361 167.974 111.186 168.173 108.119 175.02C105.388 181.114 105.105 186.915 105.095 188.916L127.55 187.248C128.574 183.946 129.544 179.374 128.733 175.495C127.386 169.039 120.909 168.051 120.328 167.976C120.314 167.976 120.297 167.976 120.273 167.976L120.275 167.974Z" fill="#DDDDE3"/>
<path d="M117.067 131.519H84.8137C84.4153 131.519 84.0938 131.198 84.0938 130.799C84.0938 130.401 84.4153 130.079 84.8137 130.079H117.067C117.466 130.079 117.787 130.401 117.787 130.799C117.787 131.198 117.466 131.519 117.067 131.519Z" fill="#DDDDE3"/>
<path d="M150.09 131.519H127.763C127.365 131.519 127.043 131.198 127.043 130.799C127.043 130.401 127.365 130.079 127.763 130.079H150.09C150.489 130.079 150.81 130.401 150.81 130.799C150.81 131.198 150.489 131.519 150.09 131.519Z" fill="#DDDDE3"/>
<path d="M140.391 142.442H94.3352C93.9368 142.442 93.6152 142.12 93.6152 141.722C93.6152 141.324 93.9368 141.002 94.3352 141.002H140.391C140.79 141.002 141.111 141.324 141.111 141.722C141.111 142.12 140.79 142.442 140.391 142.442Z" fill="#DDDDE3"/>
<path d="M117.065 164.283H99.1302C98.7318 164.283 98.4102 163.961 98.4102 163.563C98.4102 163.164 98.7318 162.843 99.1302 162.843H117.065C117.464 162.843 117.785 163.164 117.785 163.563C117.785 163.961 117.464 164.283 117.065 164.283Z" fill="#DDDDE3"/>
<path d="M117.355 200.689H91.845C91.4466 200.689 91.125 200.367 91.125 199.969C91.125 199.571 91.4466 199.249 91.845 199.249H117.355C117.753 199.249 118.075 199.571 118.075 199.969C118.075 200.367 117.753 200.689 117.355 200.689Z" fill="#DDDDE3"/>
<path d="M112.797 82.7383C104.577 82.7383 104.399 75.4615 104.397 75.3871C104.392 74.9887 104.711 74.6623 105.109 74.6599C105.508 74.6647 105.832 74.9719 105.837 75.3703C105.841 75.6151 106.021 81.3007 112.797 81.3007C114.858 81.3007 116.457 80.7151 117.546 79.5607C119.373 77.6263 119.229 74.6767 119.226 74.6455C119.205 74.2495 119.507 73.9087 119.903 73.8847C120.301 73.8559 120.64 74.1631 120.664 74.5591C120.673 74.7031 120.856 78.1423 118.605 80.5375C117.232 81.9967 115.278 82.7383 112.799 82.7383H112.797Z" fill="#DDDDE3"/>
<path d="M141.927 82.7383C133.707 82.7383 133.53 75.4615 133.527 75.3871C133.523 74.9887 133.842 74.6623 134.24 74.6599C134.631 74.6647 134.963 74.9719 134.967 75.3703C134.972 75.6175 135.152 81.3007 141.927 81.3007C143.989 81.3007 145.587 80.7151 146.677 79.5607C148.503 77.6263 148.359 74.6767 148.357 74.6455C148.335 74.2495 148.638 73.9087 149.034 73.8847C149.43 73.8559 149.771 74.1631 149.795 74.5591C149.804 74.7031 149.987 78.1423 147.735 80.5375C146.363 81.9967 144.409 82.7383 141.93 82.7383H141.927Z" fill="#DDDDE3"/>
<g opacity="0.75">
<path d="M126.255 96.712C127.894 96.712 129.222 94.9015 129.222 92.668C129.222 90.4346 127.894 88.624 126.255 88.624C124.617 88.624 123.289 90.4346 123.289 92.668C123.289 94.9015 124.617 96.712 126.255 96.712Z" fill="#DDDDE3"/>
</g>
<g opacity="0.75">
<path d="M210.952 74.7578C210.448 74.657 209.925 74.6018 209.389 74.6018C207.076 74.6018 204.995 75.593 203.548 77.1746C201.253 74.0858 198.076 70.625 195.237 70.4474C190.06 70.1234 184.965 79.3562 181.809 80.9642C178.849 82.469 178.665 82.565 178.655 82.5698C178.746 78.6794 178.355 74.8418 177.277 71.093C173.406 57.6074 160.206 52.4978 144.707 50.669C144.707 50.669 147.995 41.3258 157.54 40.0298C167.087 38.7362 179.867 38.7362 187.473 40.0298C195.076 41.3258 205.108 48.6074 208.343 57.8258C210.285 63.3674 210.829 70.1882 210.954 74.7554L210.952 74.7578Z" fill="#DDDDE3"/>
</g>
<path d="M177.896 83.9289L177.93 82.5537C178.026 78.4737 177.584 74.7897 176.579 71.2929C173.307 59.8977 163.151 53.5713 144.615 51.3849L143.723 51.2793L144.02 50.4297C144.159 50.0313 147.57 40.6545 157.434 39.3153C166.993 38.0217 179.955 38.0217 187.583 39.3201C195.265 40.6305 205.643 47.9865 209.012 57.5889C210.971 63.1785 211.535 69.9993 211.664 74.7369L211.688 75.6417L210.803 75.4641C210.337 75.3705 209.859 75.3225 209.382 75.3225C207.368 75.3225 205.431 76.1745 204.071 77.6625L203.48 78.3057L202.959 77.6049C199.971 73.5801 197.209 71.2953 195.181 71.1681C195.109 71.1633 195.035 71.1609 194.963 71.1609C192.063 71.1609 188.939 74.6889 186.419 77.5401C184.791 79.3785 183.385 80.9673 182.125 81.6081C180.147 82.6137 179.175 83.1081 179.015 83.1921L177.894 83.9289H177.896ZM145.736 50.0745C154.059 51.1353 160.595 53.0385 165.695 55.8849C171.98 59.3913 176.108 64.4433 177.961 70.8969C178.907 74.1897 179.375 77.6313 179.379 81.3873C179.847 81.1497 180.515 80.8089 181.472 80.3217C182.487 79.8057 183.872 78.2409 185.339 76.5825C188.276 73.2633 191.605 69.4977 195.27 69.7281C197.672 69.8793 200.478 72.0153 203.615 76.0833C205.191 74.6745 207.248 73.8801 209.377 73.8801C209.648 73.8801 209.922 73.8921 210.193 73.9185C210.025 69.3441 209.432 63.1521 207.649 58.0641C204.452 48.9561 194.617 41.9793 187.338 40.7385C179.833 39.4641 167.06 39.4641 157.623 40.7433C150.296 41.7393 146.792 47.8185 145.734 50.0721L145.736 50.0745Z" fill="#DDDDE3"/>
<g opacity="0.5">
<path d="M217.315 82.5278C217.315 86.9078 213.766 90.455 209.388 90.455C205.011 90.455 201.461 86.9054 201.461 82.5278C201.461 80.4614 202.251 78.5822 203.547 77.1734C204.994 75.5918 207.077 74.6006 209.388 74.6006C209.923 74.6006 210.447 74.6534 210.951 74.7566C214.582 75.4814 217.315 78.6854 217.315 82.5278Z" fill="#DDDDE3"/>
</g>
<path d="M209.382 91.1772C204.613 91.1772 200.734 87.2988 200.734 82.53C200.734 80.358 201.543 78.2844 203.01 76.6884C204.642 74.9052 206.965 73.8828 209.382 73.8828C209.953 73.8828 210.526 73.9404 211.086 74.0532C215.108 74.8572 218.029 78.4236 218.029 82.5324C218.029 87.3012 214.15 91.1796 209.382 91.1796V91.1772ZM209.382 75.3228C207.368 75.3228 205.431 76.1748 204.07 77.6628C202.846 78.9924 202.174 80.7228 202.174 82.53C202.174 86.5044 205.407 89.7372 209.382 89.7372C213.356 89.7372 216.589 86.5044 216.589 82.53C216.589 79.1052 214.155 76.134 210.802 75.4644C210.337 75.3708 209.859 75.3228 209.382 75.3228Z" fill="#DDDDE3"/>
<g opacity="0.5">
<path d="M75.4115 143.514C74.8643 143.159 74.3051 142.823 73.7315 142.504C69.2507 139.993 64.0859 138.565 58.5875 138.565C57.6179 138.565 56.6579 138.609 55.7099 138.697C53.3483 138.913 51.0683 139.393 48.8915 140.111C46.1315 141.013 43.5467 142.295 41.1851 143.893C35.8211 147.525 31.6547 152.788 29.3987 158.975C28.9259 160.264 28.5395 161.598 28.2419 162.961C27.7667 165.109 27.5195 167.344 27.5195 169.631C27.5195 181.345 34.0019 191.541 43.5779 196.837C46.2899 198.335 49.2587 199.441 52.3931 200.075H52.3955C54.3971 200.483 56.4635 200.692 58.5875 200.692C60.1331 200.692 61.6547 200.581 63.1427 200.358C64.5659 200.157 65.9555 199.847 67.3091 199.451C79.5395 195.877 88.6451 184.996 89.5715 171.851C89.6291 171.117 89.6531 170.375 89.6531 169.626C89.6531 158.668 83.9819 149.037 75.4115 143.509V143.514ZM70.6619 172.797C70.6619 177.474 69.6131 181.086 67.5083 183.621C65.8163 185.668 63.5675 186.885 60.7571 187.283C60.0755 187.384 59.3627 187.432 58.6211 187.432C57.5051 187.432 56.4659 187.324 55.5011 187.113C53.1179 186.587 51.1787 185.413 49.6787 183.599C47.8763 181.42 46.8467 178.485 46.5827 174.784C46.5347 174.148 46.5131 173.485 46.5131 172.797V166.47C46.5131 163.672 46.8899 161.255 47.6435 159.22C47.9579 158.368 48.3395 157.581 48.7883 156.865C49.0547 156.431 49.3451 156.023 49.6667 155.639C50.4203 154.729 51.2891 153.983 52.2683 153.4C54.0131 152.358 56.1155 151.835 58.5755 151.835C62.4155 151.835 65.3915 153.112 67.4987 155.663C68.9051 157.367 69.8411 159.532 70.3067 162.167C70.4483 162.952 70.5467 163.782 70.6019 164.651C70.6451 165.244 70.6643 165.858 70.6643 166.492V172.797H70.6619Z" fill="#DDDDE3"/>
</g>
<path d="M58.5844 201.414C56.4604 201.414 54.3508 201.205 52.3156 200.795L52.2484 200.783C49.0828 200.142 46.0492 199.028 43.2292 197.471C33.094 191.862 26.7988 181.196 26.7988 169.633C26.7988 167.348 27.0412 165.078 27.5212 162.882L27.538 162.808C27.8452 161.408 28.2436 160.038 28.7212 158.73C30.9916 152.509 35.2732 147.028 40.7812 143.3C43.2244 141.642 45.8788 140.339 48.6676 139.429C50.9236 138.688 53.2708 138.2 55.6444 137.984C56.6068 137.893 57.5956 137.848 58.5868 137.848C64.018 137.848 69.3772 139.242 74.086 141.88C74.6476 142.192 75.2092 142.532 75.8044 142.916C84.9292 148.801 90.3772 158.79 90.3772 169.638C90.3772 170.416 90.3484 171.181 90.2908 171.916C89.362 185.092 80.2084 196.441 67.5124 200.152C66.0988 200.567 64.6612 200.879 63.2452 201.078C61.7404 201.304 60.1708 201.419 58.5868 201.419L58.5844 201.414ZM52.462 199.355L52.5364 199.369C54.4996 199.77 56.5324 199.972 58.5844 199.972C60.0964 199.972 61.594 199.861 63.034 199.645C64.3876 199.456 65.7556 199.158 67.1044 198.762C79.2268 195.22 87.9652 184.384 88.8508 171.8C88.906 171.097 88.9324 170.368 88.9324 169.628C88.9324 159.272 83.7316 149.735 75.0196 144.116C74.4508 143.749 73.9156 143.425 73.3804 143.128C68.8852 140.61 63.7684 139.278 58.582 139.278C57.6388 139.278 56.6932 139.321 55.774 139.41C53.506 139.616 51.2668 140.08 49.114 140.79C46.4524 141.659 43.9204 142.904 41.5876 144.486C36.3292 148.048 32.2396 153.28 30.0724 159.22C29.6236 160.444 29.2516 161.725 28.9612 163.036L28.9444 163.115C28.4764 165.232 28.2388 167.423 28.2388 169.628C28.2388 180.668 34.2508 190.852 43.9252 196.206C46.594 197.682 49.4668 198.74 52.462 199.352V199.355Z" fill="#DDDDE3"/>
<path d="M67.4988 155.667C65.3868 153.114 62.4132 151.837 58.5756 151.837C54.738 151.837 51.7668 153.107 49.6668 155.643C47.5644 158.18 46.5156 161.79 46.5156 166.47V172.801C46.5156 177.45 47.5692 181.05 49.6788 183.603C51.7884 186.157 54.7692 187.434 58.626 187.434C62.4828 187.434 65.4108 186.164 67.5132 183.627C69.6156 181.091 70.6644 177.481 70.6644 172.801V166.494C70.6644 161.831 69.6084 158.221 67.5012 155.667H67.4988ZM62.6436 174.013C62.6292 176.504 62.2956 178.333 61.6452 179.497C60.9924 180.663 59.9868 181.247 58.6236 181.247C57.2604 181.247 56.1804 180.649 55.53 179.451C54.8796 178.254 54.5556 176.363 54.5556 173.775V164.924C54.6012 162.608 54.9396 160.88 55.566 159.738C56.1924 158.595 57.1932 158.027 58.5756 158.027C59.958 158.027 61.0188 158.641 61.6692 159.87C62.3196 161.099 62.6436 162.959 62.6436 165.447V174.013Z" fill="#FF3F1A"/>
<g opacity="0.5">
<path d="M62.6388 165.445V174.011C62.6244 176.502 62.2908 178.331 61.6404 179.495C60.9876 180.661 59.982 181.244 58.6188 181.244C57.2556 181.244 56.1756 180.647 55.5252 179.449C54.8748 178.252 54.5508 176.36 54.5508 173.773V164.922C54.5964 162.606 54.9348 160.878 55.5612 159.736C56.1876 158.593 57.1884 158.024 58.5708 158.024C59.9532 158.024 61.014 158.639 61.6644 159.868C62.3148 161.096 62.6388 162.956 62.6388 165.445Z" fill="#DDDDE3"/>
</g>
<g opacity="0.75">
<path d="M133.143 36.7149H143.989V40.9221H126.32V38.0397L137.135 22.4589H126.258V18.2373H143.881V21.0429L133.146 36.7173L133.143 36.7149Z" fill="#DDDDE3"/>
<path d="M153.808 29.9594H161.253V32.8466H149.123V30.869L156.547 20.1746H149.08V17.2754H161.176V19.2002L153.806 29.9594H153.808Z" fill="#DDDDE3"/>
<path d="M171.076 24.2225H176.097V26.1689H167.917V24.8345L172.924 17.6225H167.889V15.6689H176.046V16.9673L171.076 24.2225Z" fill="#DDDDE3"/>
</g>
</g>
</svg>
