<svg width="301" height="328" viewBox="0 0 301 328" fill="none" xmlns="http://www.w3.org/2000/svg">
<path d="M300.397 179.054C300.377 180.205 300.34 181.35 300.292 182.495C300.151 186.206 299.895 189.893 299.528 193.543C299.427 194.55 299.319 195.553 299.198 196.553C298.269 204.477 296.817 212.218 294.858 219.677C294.645 220.488 294.427 221.3 294.201 222.104C293.484 224.674 292.706 227.206 291.864 229.698C291.652 230.337 291.433 230.977 291.207 231.61C284.611 250.383 274.563 266.792 261.366 278.951C228.525 309.217 184.201 315.443 141.629 309.816C134.197 308.836 126.819 307.493 119.566 305.853C94.7894 300.256 70.2283 291.407 50.277 275.682C30.8612 260.381 15.2234 236.607 6.92639 210.649C6.66034 209.821 6.40445 208.989 6.1553 208.154C4.19219 201.611 2.70045 194.94 1.73405 188.243C1.60273 187.351 1.4815 186.455 1.37035 185.559C1.05722 183.007 0.821494 180.451 0.663189 177.902C0.582366 176.589 0.525122 175.279 0.488118 173.969C0.33322 168.709 0.53187 163.48 1.11105 158.321C1.2592 156.994 1.43094 155.671 1.63299 154.354C1.92596 152.408 2.27617 150.472 2.68696 148.549C2.8856 147.603 3.10115 146.66 3.33013 145.724C4.62315 140.424 6.36404 135.255 8.5932 130.275C11.2803 124.261 14.6712 118.52 18.8264 113.152C19.8602 111.819 20.9377 110.553 22.0591 109.354C31.5111 99.2148 43.9533 93.7059 57.574 90.6383C66.9991 88.5169 79.3436 85.5638 85.1354 77.0917C87.5498 73.5627 89.0752 69.5153 90.7521 65.5822C116.222 5.7688 195.509 5.86987 240.536 42.0751C243.82 44.715 246.981 47.5099 250.019 50.4327C271.098 70.6938 285.241 96.1809 293.053 123.096C295.215 130.541 296.892 138.094 298.097 145.677C298.441 147.832 298.744 149.99 299.013 152.145C299.134 153.146 299.249 154.142 299.353 155.142C299.454 156.051 299.545 156.964 299.629 157.873C299.764 159.308 299.882 160.739 299.979 162.17C300.377 167.824 300.515 173.464 300.397 179.054Z" fill="white"/>
<path d="M300.397 179.053C298.488 181.568 296.558 184.074 294.615 186.569C291.629 182.269 288.682 177.942 285.78 173.588C286.625 172.473 287.477 171.362 288.319 170.241C291.359 166.187 294.356 162.102 297.316 157.987C298.198 159.385 299.084 160.779 299.98 162.169C299.882 160.738 299.764 159.307 299.629 157.873C299.575 157.792 299.525 157.711 299.474 157.63C299.178 157.159 298.885 156.687 298.589 156.219C298.845 155.859 299.101 155.502 299.353 155.142C299.249 154.142 299.134 153.145 299.013 152.145C298.488 152.889 297.959 153.633 297.43 154.374C295.117 150.68 292.834 146.969 290.585 143.238C289.548 141.521 288.514 139.797 287.49 138.07C286.561 137.82 285.621 137.571 284.682 137.325C283.921 138.45 283.156 139.575 282.389 140.696C279.345 145.151 276.25 149.576 273.108 153.967C269.596 148.35 266.158 142.69 262.788 136.992C263.148 136.46 263.508 135.928 263.862 135.393C264.485 134.473 265.104 133.547 265.717 132.625C265.02 132.46 264.323 132.298 263.623 132.136C263.121 132.891 262.616 133.645 262.111 134.396C262.01 134.547 261.909 134.696 261.808 134.844C261.754 134.918 261.703 134.995 261.653 135.069C261.592 134.965 261.528 134.857 261.468 134.753C260.764 133.557 260.07 132.365 259.377 131.167C258.488 130.968 257.595 130.769 256.7 130.574C257.363 131.726 258.03 132.874 258.7 134.022C259.266 134.992 259.831 135.958 260.4 136.921C256.602 142.514 252.73 148.057 248.783 153.549C245.285 147.943 241.857 142.292 238.496 136.601C239.957 134.453 241.405 132.298 242.843 130.133C243.325 129.409 243.806 128.681 244.288 127.954C243.577 127.809 242.863 127.668 242.15 127.526C241.682 128.237 241.21 128.944 240.739 129.651C240.038 130.705 239.334 131.759 238.627 132.81C238.21 133.433 237.785 134.056 237.361 134.679C236.071 132.48 234.792 130.278 233.526 128.065C233.334 127.739 233.145 127.409 232.957 127.079C232.681 126.594 232.404 126.109 232.128 125.624C231.266 125.466 230.404 125.311 229.539 125.159C229.983 125.944 230.431 126.728 230.876 127.51C232.6 130.53 234.344 133.537 236.108 136.531C232.3 142.117 228.417 147.649 224.461 153.131C220.972 147.532 217.551 141.891 214.201 136.211C214.278 136.096 214.356 135.982 214.436 135.867C216.753 132.47 219.04 129.049 221.299 125.614C221.669 125.052 222.036 124.493 222.403 123.93C221.679 123.809 220.952 123.691 220.225 123.573C219.868 124.119 219.508 124.664 219.147 125.21C217.824 127.22 216.494 129.224 215.147 131.22C214.457 132.244 213.763 133.268 213.069 134.288C211.665 131.894 210.271 129.49 208.894 127.079C208.13 125.745 207.372 124.408 206.621 123.071C206.304 122.516 205.991 121.957 205.678 121.398C204.843 121.28 204.008 121.169 203.173 121.061C203.476 121.6 203.776 122.139 204.082 122.677C204.368 123.199 204.661 123.718 204.954 124.237C207.207 128.223 209.49 132.187 211.81 136.133C207.991 141.709 204.102 147.239 200.136 152.71C196.657 147.121 193.246 141.487 189.902 135.813C190.253 135.302 190.606 134.793 190.953 134.281C193.734 130.203 196.469 126.095 199.166 121.96C199.452 121.526 199.738 121.088 200.021 120.65C199.28 120.556 198.536 120.462 197.792 120.374C197.516 120.802 197.236 121.23 196.957 121.654C195.213 124.324 193.448 126.984 191.667 129.631C190.707 131.055 189.744 132.476 188.774 133.894C187.451 131.628 186.134 129.355 184.831 127.079C183.437 124.644 182.06 122.203 180.693 119.751C180.457 119.33 180.225 118.91 179.989 118.489C179.184 118.415 178.376 118.347 177.568 118.28C177.797 118.694 178.026 119.108 178.255 119.522C179.127 121.098 180.006 122.667 180.892 124.237C183.067 128.089 185.272 131.921 187.512 135.736C183.686 141.306 179.784 146.821 175.81 152.286C172.339 146.703 168.938 141.08 165.604 135.416C166.23 134.51 166.853 133.601 167.473 132.692C170.48 128.277 173.443 123.829 176.349 119.351C176.595 118.98 176.837 118.61 177.076 118.24C176.312 118.176 175.551 118.112 174.787 118.054C174.547 118.425 174.305 118.792 174.066 119.162C172.13 122.136 170.17 125.099 168.187 128.045C166.958 129.867 165.722 131.682 164.479 133.493C163.233 131.362 161.994 129.224 160.768 127.079C159.068 124.109 157.391 121.125 155.731 118.135C155.505 117.731 155.28 117.327 155.058 116.923C153.738 116.876 152.414 116.832 151.094 116.798C150.832 117.202 150.569 117.607 150.303 118.011C148.461 120.839 146.592 123.654 144.703 126.456C143.211 128.678 141.703 130.891 140.184 133.096C139.016 131.093 137.854 129.089 136.702 127.079C134.982 124.075 133.285 121.055 131.608 118.027C131.348 117.563 131.092 117.101 130.837 116.637C129.439 116.643 128.048 116.65 126.664 116.664C126.345 117.152 126.028 117.64 125.705 118.125C124.226 120.381 122.731 122.627 121.223 124.866C119.462 127.486 117.68 130.092 115.886 132.692C114.795 130.823 113.714 128.954 112.64 127.079C111.047 124.291 109.471 121.496 107.912 118.687C107.602 118.132 107.292 117.576 106.986 117.017C106.225 117.041 105.467 117.061 104.713 117.085C105.026 117.654 105.339 118.223 105.656 118.788C106.663 120.61 107.68 122.425 108.7 124.237C110.646 127.681 112.619 131.109 114.613 134.524C110.757 140.066 106.824 145.558 102.821 151C99.3792 145.444 96.0085 139.844 92.7018 134.204C94.1565 132.12 95.5976 130.028 97.0288 127.927C99.066 124.937 101.083 121.93 103.073 118.91C103.474 118.307 103.871 117.704 104.268 117.098C103.444 117.122 102.622 117.149 101.804 117.179C101.396 117.798 100.985 118.418 100.571 119.038C99.635 120.455 98.6922 121.87 97.7427 123.28C95.7121 126.297 93.6581 129.298 91.5839 132.285C90.577 130.55 89.5702 128.816 88.5769 127.079C87.2434 124.742 85.9167 122.398 84.6068 120.051C84.2162 119.351 83.829 118.654 83.4417 117.953C82.6908 117.994 81.9432 118.034 81.1991 118.075C81.5931 118.792 81.9904 119.506 82.3878 120.22C83.132 121.563 83.8829 122.9 84.6371 124.237C86.506 127.543 88.3985 130.837 90.3111 134.113C86.4454 139.652 82.5023 145.134 78.4885 150.566C75.0572 145.016 71.6966 139.427 68.4 133.793C70.1309 131.318 71.8482 128.833 73.5486 126.338C74.8451 124.439 76.128 122.533 77.4042 120.62C77.9463 119.812 78.4817 119.004 79.0171 118.196C78.1753 118.24 77.3368 118.29 76.5017 118.341C75.9495 119.176 75.3905 120.011 74.8316 120.846C74.643 121.129 74.4511 121.408 74.2625 121.691C71.9627 125.105 69.6358 128.5 67.2821 131.877C66.3561 130.281 65.4301 128.682 64.5142 127.079C63.5714 125.432 62.6352 123.779 61.7092 122.125C61.2041 121.233 60.7058 120.341 60.2074 119.445C59.4632 119.502 58.7258 119.56 57.9883 119.617C58.4968 120.533 59.0086 121.449 59.5205 122.365C59.8707 122.991 60.2209 123.614 60.5744 124.237C62.3625 127.405 64.1741 130.557 66.0059 133.699C62.2278 139.09 58.3789 144.431 54.4595 149.721C54.3585 149.859 54.2574 149.993 54.1564 150.131C50.7319 144.589 47.3814 139.002 44.0949 133.379C46.1052 130.517 48.0986 127.641 50.0685 124.752C50.385 124.287 50.6982 123.826 51.0113 123.361C51.7689 122.243 52.5232 121.125 53.2741 120.001C52.4121 120.075 51.5534 120.149 50.7015 120.223C49.9202 121.385 49.1357 122.543 48.3443 123.698C46.5731 126.298 44.7851 128.887 42.9802 131.466C42.1316 130.005 41.2865 128.544 40.4514 127.079C40.044 126.368 39.6365 125.654 39.2325 124.941C38.5792 123.796 37.9327 122.647 37.2895 121.496C36.5554 121.57 35.8248 121.647 35.1008 121.721C35.5688 122.56 36.0402 123.398 36.5117 124.237C36.7036 124.574 36.8956 124.914 37.0875 125.25C38.6095 127.937 40.1484 130.618 41.7007 133.285C38.1853 138.278 34.6126 143.228 30.9793 148.135C30.5954 148.653 30.2048 149.172 29.8209 149.69C26.4098 144.154 23.0661 138.581 19.7897 132.965C21.0928 131.116 22.3893 129.261 23.6756 127.402C24.6522 125.991 25.6219 124.58 26.5884 123.163C26.7129 122.981 26.8342 122.799 26.9554 122.617C26.0631 122.721 25.1775 122.826 24.302 122.93C23.1706 124.587 22.0291 126.244 20.8808 127.894C20.1467 128.948 19.4126 130.001 18.6752 131.052C18.1937 130.224 17.7155 129.392 17.2374 128.56C16.9545 128.069 16.6683 127.574 16.3854 127.079C15.8231 126.095 15.2607 125.109 14.7085 124.122C13.9846 124.217 13.2606 124.311 12.5467 124.408C13.4054 125.93 14.2674 127.446 15.1395 128.961C15.8871 130.264 16.6379 131.567 17.3956 132.87C14.1461 137.463 10.8496 142.023 7.49912 146.545C6.82903 147.447 6.15894 148.347 5.48544 149.246C4.76485 148.074 4.04427 146.899 3.33036 145.723C3.10138 146.66 2.8859 147.602 2.68719 148.549C3.18221 149.36 3.68057 150.172 4.18227 150.983C3.3337 152.108 2.48513 153.232 1.63322 154.354C1.43116 155.67 1.25943 156.994 1.11128 158.321C2.5222 156.489 3.92296 154.654 5.31364 152.808C5.79183 153.579 6.26995 154.354 6.75148 155.125C9.56657 159.62 12.4254 164.089 15.3246 168.527C13.5332 170.783 11.7283 173.026 9.90997 175.258C8.34081 177.188 6.75816 179.107 5.16883 181.023C3.59627 178.679 2.03386 176.329 0.488281 173.968C0.525353 175.278 0.582597 176.588 0.663351 177.901C1.71057 179.484 2.76453 181.063 3.8219 182.639C3.007 183.616 2.19216 184.589 1.37051 185.559C1.48166 186.454 1.60283 187.35 1.73415 188.242C2.82518 186.956 3.91281 185.663 4.99369 184.37C6.35411 186.384 7.72455 188.39 9.10181 190.394C11.0212 193.175 12.9574 195.94 14.9071 198.694C13.6376 200.142 12.3715 201.59 11.0885 203.028C9.57325 204.725 8.05118 206.419 6.52244 208.103C6.39787 208.119 6.27663 208.136 6.1554 208.153C6.40454 208.988 6.6605 209.82 6.92648 210.648C7.12513 210.436 7.32044 210.221 7.51575 210.005C11.5127 209.476 16.3112 208.884 21.8065 208.278C22.5608 208.194 23.3285 208.109 24.1098 208.025C26.6858 207.752 29.4032 207.473 32.2519 207.2C33.2217 207.109 34.2083 207.015 35.2118 206.924C37.2894 206.732 39.4344 206.544 41.6366 206.358C42.4145 206.294 43.199 206.23 43.9904 206.166C46.6337 205.954 49.3578 205.749 52.1561 205.554C54.3684 205.399 56.6582 205.251 59.022 205.106C59.9581 205.048 60.9043 204.995 61.864 204.941C62.7462 204.89 63.6352 204.84 64.5376 204.793C65.3323 204.749 66.1337 204.708 66.9418 204.668C72.6023 204.382 78.6095 204.143 84.9064 203.974C85.8122 203.951 86.7213 203.927 87.6372 203.907C87.7416 203.907 87.8427 203.9 87.9471 203.897C88.762 203.88 89.5802 203.863 90.4018 203.843C96.6952 203.722 103.248 203.671 110.006 203.718C111.464 203.729 112.932 203.745 114.407 203.762C120.896 203.85 127.557 204.025 134.348 204.314C135.904 204.382 137.467 204.452 139.036 204.53C145.255 204.84 151.572 205.247 157.95 205.766C158.778 205.83 159.607 205.9 160.438 205.971C160.876 206.008 161.31 206.045 161.748 206.086C162.637 206.163 163.529 206.24 164.422 206.325C169.846 206.826 175.308 207.409 180.787 208.089C181.393 208.163 181.999 208.237 182.605 208.315C182.807 208.342 183.006 208.365 183.208 208.392C184.818 208.598 186.41 208.806 187.986 209.019C188.922 209.143 189.852 209.271 190.778 209.399C194.95 209.972 199.011 210.568 202.96 211.177C203.748 211.302 204.533 211.423 205.311 211.547C208.678 212.079 211.965 212.622 215.17 213.177C216.143 213.342 217.11 213.514 218.07 213.682C220.285 214.073 222.457 214.47 224.592 214.871C225.363 215.012 226.128 215.157 226.885 215.302C232.714 216.417 238.233 217.551 243.442 218.693C244.951 219.023 246.432 219.353 247.887 219.69C253.601 220.986 258.922 222.286 263.841 223.565C264.579 223.757 265.306 223.946 266.023 224.138C268.552 224.808 270.973 225.468 273.283 226.121C274.411 226.438 275.516 226.754 276.593 227.067C280.779 228.28 284.57 229.448 287.971 230.546C289.079 230.903 290.157 231.26 291.207 231.61C291.433 230.977 291.652 230.337 291.864 229.697C290.83 229.354 289.77 229.007 288.678 228.653C284.52 227.31 279.779 225.862 274.448 224.353C273.085 222.626 271.731 220.892 270.387 219.151C274.24 214.716 278.041 210.238 281.789 205.715C283.877 208.544 285.981 211.362 288.106 214.164C290.12 216.824 292.154 219.471 294.201 222.104C294.427 221.299 294.645 220.488 294.858 219.676C293.969 218.531 293.083 217.383 292.204 216.235C289.137 212.228 286.106 208.187 283.112 204.123C283.284 203.914 283.459 203.708 283.631 203.5C287.315 199.025 290.941 194.506 294.521 189.95C296.07 192.159 297.629 194.361 299.198 196.553C299.319 195.553 299.427 194.549 299.528 193.542C298.279 191.795 297.043 190.04 295.814 188.283C297.316 186.36 298.807 184.431 300.292 182.494C300.339 181.35 300.376 180.205 300.397 179.053H300.397ZM284.413 141.312C284.567 141.087 284.722 140.858 284.877 140.632C285.197 140.167 285.51 139.699 285.83 139.231C286.443 140.265 287.059 141.296 287.679 142.326C290.248 146.616 292.861 150.886 295.515 155.125C295.727 155.469 295.946 155.809 296.158 156.152C293.888 159.321 291.592 162.473 289.272 165.604C287.729 167.685 286.174 169.759 284.608 171.827C281.493 167.126 278.425 162.395 275.412 157.63C275.028 157.021 274.647 156.411 274.264 155.805C277.702 151.013 281.086 146.185 284.413 141.312ZM283.315 173.527C279.527 178.504 275.678 183.43 271.768 188.31C271.539 187.983 271.31 187.66 271.081 187.333C267.812 182.639 264.593 177.912 261.424 173.15C262.565 171.655 263.707 170.16 264.838 168.655C267.589 164.984 270.307 161.291 272.991 157.573C276.368 162.93 279.809 168.251 283.315 173.527ZM270.455 189.946C269.708 190.876 268.957 191.805 268.202 192.731C265.141 196.492 262.037 200.22 258.902 203.924C255.41 199.173 251.969 194.384 248.581 189.559C252.494 184.703 256.343 179.801 260.134 174.851C262.414 178.265 264.714 181.666 267.044 185.043C268.175 186.683 269.314 188.316 270.455 189.946ZM261.397 139.046C261.444 138.979 261.488 138.908 261.535 138.841C264.778 144.309 268.081 149.737 271.452 155.125C271.576 155.33 271.708 155.532 271.836 155.735C269.839 158.509 267.825 161.27 265.788 164.015C263.96 166.486 262.114 168.941 260.256 171.389C257.242 166.833 254.268 162.247 251.349 157.63C250.878 156.883 250.41 156.135 249.938 155.388C253.827 149.99 257.649 144.545 261.397 139.046ZM258.959 173.086C255.161 178.056 251.305 182.979 247.382 187.852C247.261 187.677 247.14 187.505 247.019 187.333C243.648 182.498 240.331 177.622 237.068 172.716C238.506 170.837 239.937 168.955 241.355 167.065C243.82 163.782 246.254 160.476 248.665 157.156C252.033 162.506 255.464 167.816 258.959 173.086ZM246.066 189.482C245.618 190.034 245.17 190.589 244.722 191.142C241.355 195.28 237.94 199.378 234.489 203.442C231.004 198.698 227.569 193.913 224.192 189.091C228.111 184.245 231.973 179.353 235.775 174.409C238.149 177.972 240.55 181.518 242.981 185.043C244.005 186.528 245.032 188.003 246.066 189.482ZM237.237 138.447C240.553 144.047 243.934 149.609 247.386 155.125C247.429 155.192 247.47 155.256 247.51 155.32C245.79 157.701 244.055 160.068 242.308 162.429C240.193 165.284 238.055 168.119 235.9 170.945C232.987 166.533 230.111 162.099 227.286 157.63C226.727 156.745 226.172 155.859 225.613 154.973C229.563 149.515 233.435 144.006 237.237 138.447ZM234.603 172.645C230.795 177.605 226.923 182.521 222.993 187.387C222.983 187.367 222.969 187.35 222.956 187.333C219.484 182.353 216.073 177.332 212.716 172.275C214.447 170.019 216.167 167.752 217.875 165.476C220.05 162.577 222.202 159.661 224.333 156.731C227.694 162.075 231.118 167.379 234.603 172.645ZM221.676 189.017C221.532 189.195 221.387 189.374 221.239 189.556C217.568 194.068 213.844 198.536 210.069 202.961C206.594 198.22 203.17 193.441 199.799 188.623C203.729 183.784 207.601 178.895 211.409 173.958C213.881 177.676 216.386 181.37 218.919 185.043C219.834 186.37 220.754 187.693 221.676 189.017ZM212.942 138.049C216.285 143.706 219.7 149.323 223.181 154.896C221.74 156.886 220.289 158.866 218.828 160.839C216.427 164.082 213.999 167.301 211.544 170.503C208.729 166.237 205.954 161.947 203.22 157.63C202.574 156.603 201.93 155.576 201.284 154.549C205.244 149.101 209.13 143.602 212.942 138.049ZM210.244 172.194C206.426 177.151 202.547 182.06 198.607 186.919C195.132 181.925 191.714 176.895 188.353 171.823C190.384 169.19 192.401 166.547 194.394 163.89C196.28 161.375 198.149 158.846 200.004 156.307C203.355 161.644 206.769 166.941 210.244 172.194ZM197.284 188.545C193.462 193.233 189.579 197.873 185.646 202.469C182.181 197.735 178.767 192.963 175.406 188.155C179.346 183.319 183.229 178.437 187.047 173.507C189.616 177.373 192.219 181.222 194.856 185.043C195.661 186.212 196.472 187.38 197.284 188.545ZM188.643 137.652C191.977 143.299 195.381 148.909 198.856 154.472C197.691 156.068 196.523 157.664 195.347 159.25C192.66 162.876 189.939 166.479 187.188 170.059C184.474 165.941 181.794 161.799 179.157 157.63C178.42 156.465 177.686 155.297 176.955 154.128C180.922 148.687 184.821 143.195 188.643 137.652ZM185.885 171.746C182.074 176.669 178.208 181.548 174.278 186.377C174.258 186.4 174.238 186.427 174.218 186.451C170.753 181.464 167.342 176.437 163.991 171.372C166.318 168.362 168.631 165.341 170.914 162.301C172.51 160.169 174.096 158.031 175.672 155.883C179.013 161.21 182.417 166.496 185.885 171.746ZM174.527 154.047C173.642 155.256 172.756 156.462 171.864 157.664C168.894 161.674 165.877 165.655 162.826 169.608C160.216 165.638 157.637 161.644 155.095 157.63C154.27 156.324 153.445 155.014 152.627 153.704C156.603 148.269 160.509 142.784 164.341 137.248C167.668 142.888 171.062 148.491 174.527 154.047ZM161.523 171.295C158.001 175.834 154.425 180.333 150.798 184.791C150.475 185.185 150.145 185.575 149.825 185.973C146.367 180.993 142.969 175.975 139.629 170.918C142.255 167.534 144.861 164.139 147.431 160.711C148.744 158.964 150.044 157.209 151.34 155.452C154.67 160.772 158.068 166.055 161.523 171.295ZM143.993 131.103C146.936 126.786 149.832 122.432 152.687 118.051C152.815 117.862 152.936 117.671 153.061 117.482C153.169 117.677 153.276 117.872 153.387 118.068C154.526 120.129 155.67 122.186 156.829 124.237C158.927 127.954 161.058 131.655 163.217 135.335C159.378 140.895 155.465 146.404 151.482 151.859C148.023 146.286 144.629 140.673 141.306 135.015C142.205 133.716 143.1 132.413 143.993 131.103ZM150.195 153.616C149.593 154.435 148.99 155.256 148.384 156.075C145.127 160.472 141.821 164.833 138.467 169.16C135.955 165.338 133.477 161.493 131.032 157.63C130.113 156.179 129.204 154.728 128.294 153.27C132.281 147.848 136.197 142.37 140.04 136.844C143.356 142.477 146.74 148.067 150.195 153.616ZM137.157 170.84C133.921 174.995 130.641 179.117 127.314 183.202C126.692 183.969 126.055 184.727 125.429 185.495C121.984 180.521 118.597 175.514 115.266 170.463C118.192 166.709 121.095 162.934 123.951 159.125C124.974 157.758 125.991 156.391 127.005 155.021C127.028 155.054 127.048 155.091 127.069 155.125C130.372 160.402 133.736 165.641 137.157 170.84ZM120.513 129.517C123.092 125.728 125.638 121.913 128.146 118.081C128.362 117.755 128.574 117.431 128.786 117.105C128.961 117.425 129.14 117.745 129.315 118.061C130.456 120.125 131.604 122.183 132.766 124.237C134.786 127.816 136.837 131.382 138.915 134.928C135.066 140.481 131.146 145.983 127.153 151.431C123.701 145.865 120.317 140.258 117.004 134.611C118.179 132.918 119.351 131.22 120.513 129.517ZM115.734 136.44C119.041 142.063 122.418 147.643 125.863 153.182C125.543 153.616 125.223 154.054 124.903 154.485C121.361 159.27 117.758 164.008 114.105 168.705C111.697 165.032 109.316 161.341 106.969 157.63C105.959 156.037 104.959 154.438 103.962 152.839C107.959 147.424 111.886 141.959 115.734 136.44ZM103.006 155.125C106.212 160.25 109.475 165.335 112.795 170.382C109.842 174.154 106.858 177.898 103.834 181.612C102.908 182.754 101.969 183.882 101.033 185.017C97.6014 180.053 94.224 175.053 90.9038 170.012C94.133 165.884 97.3252 161.728 100.47 157.536C101.208 156.553 101.938 155.57 102.669 154.586C102.784 154.765 102.895 154.947 103.006 155.125ZM91.4292 136.029C94.7291 141.642 98.0964 147.219 101.531 152.751C101.494 152.802 101.46 152.849 101.423 152.899C97.5947 158.065 93.6987 163.18 89.7422 168.244C87.4356 164.725 85.1559 161.186 82.9032 157.63C81.8055 155.893 80.7144 154.148 79.6301 152.404C83.6372 147 87.5668 141.538 91.4292 136.029ZM78.9432 155.125C82.0512 160.095 85.213 165.028 88.4288 169.924C85.7653 173.315 83.0749 176.682 80.3541 180.023C79.125 181.535 77.8791 183.037 76.6399 184.538C73.2154 179.582 69.8515 174.588 66.5414 169.557C70.0737 165.062 73.5555 160.523 76.9901 155.947C77.438 155.347 77.8859 154.744 78.3337 154.145C78.5357 154.472 78.7378 154.798 78.9432 155.125ZM67.1239 135.615C70.4104 141.221 73.771 146.788 77.1955 152.313C73.3231 157.519 69.3834 162.678 65.3797 167.786C63.1741 164.415 60.9955 161.031 58.8404 157.63C57.6484 155.748 56.4699 153.859 55.2947 151.963C59.3085 146.569 63.2515 141.117 67.1239 135.615ZM53.9948 153.704C54.2911 154.179 54.5841 154.654 54.8804 155.125C57.8874 159.937 60.9516 164.715 64.063 169.46C61.6857 172.47 59.2916 175.464 56.8738 178.437C55.3417 180.319 53.7961 182.191 52.2438 184.06C48.8293 179.107 45.4721 174.12 42.1688 169.093C46.0076 164.227 49.7891 159.317 53.5066 154.357C53.6716 154.142 53.8332 153.923 53.9948 153.704ZM50.907 185.67C47.0245 190.323 43.0848 194.926 39.0945 199.486C36.1751 195.462 33.2927 191.411 30.4473 187.333C29.9758 186.653 29.5045 185.969 29.033 185.286C30.1139 183.986 31.2016 182.69 32.2791 181.383C35.1682 177.868 38.0203 174.322 40.8488 170.753C44.0074 175.551 47.213 180.316 50.476 185.043C50.6175 185.252 50.7656 185.461 50.907 185.67ZM42.8188 135.201C46.0986 140.797 49.4423 146.357 52.8567 151.872C48.9742 157.071 45.0278 162.223 41.0139 167.325C38.9127 164.106 36.8317 160.876 34.7776 157.63C33.4947 155.6 32.2218 153.566 30.9557 151.525C34.9831 146.134 38.9363 140.693 42.8188 135.201ZM30.8177 155.125C33.7271 159.779 36.6869 164.402 39.694 168.992C37.6096 171.625 35.5118 174.244 33.3903 176.847C31.5585 179.104 29.7098 181.346 27.8478 183.579C24.4434 178.632 21.093 173.645 17.7998 168.624C21.8136 163.55 25.7702 158.432 29.656 153.259C30.0432 153.882 30.4271 154.505 30.8177 155.125ZM10.7149 157.63C9.33767 155.455 7.97397 153.273 6.6203 151.084C10.6543 145.703 14.6176 140.265 18.5102 134.776C21.7798 140.369 25.1169 145.922 28.5212 151.431C24.6287 156.623 20.6687 161.765 16.6447 166.857C14.6479 163.792 12.6713 160.718 10.7149 157.63ZM13.1394 192.68C10.8462 189.391 8.58007 186.081 6.33408 182.754C7.15573 181.767 7.98072 180.787 8.79555 179.797C11.385 176.649 13.9375 173.473 16.4763 170.288C19.7326 175.241 23.0459 180.161 26.4099 185.043C26.4436 185.087 26.4739 185.134 26.5042 185.178C23.1335 189.199 19.7292 193.192 16.2777 197.146C15.2271 195.661 14.1799 194.172 13.1394 192.68ZM9.6138 207.695C9.66096 207.645 9.70471 207.594 9.75186 207.544C11.8901 205.173 14.0048 202.786 16.1127 200.388C17.5438 202.398 18.9851 204.402 20.4397 206.399C16.4293 206.847 12.806 207.288 9.6138 207.695ZM34.5722 204.618C34.4611 204.742 34.35 204.863 34.2388 204.988C30.1442 205.368 26.3021 205.759 22.7361 206.146C20.9683 203.715 19.214 201.277 17.4731 198.829C20.9178 194.886 24.3289 190.909 27.6928 186.892C30.9894 191.643 34.3332 196.358 37.7308 201.031C36.6768 202.227 35.6296 203.429 34.5722 204.618ZM37.1752 204.719C37.7712 204.052 38.3639 203.382 38.9531 202.712C39.3774 203.291 39.8017 203.873 40.2327 204.453C39.1989 204.54 38.182 204.631 37.1752 204.719ZM60.9079 202.971C57.8201 203.149 54.8535 203.341 52.0148 203.54C48.7654 203.766 45.6203 204.008 42.5796 204.257C41.8186 203.227 41.061 202.193 40.3067 201.159C44.2903 196.614 48.2199 192.017 52.0923 187.377C55.399 192.135 58.7562 196.856 62.1639 201.54C61.7464 202.018 61.3254 202.496 60.9079 202.971ZM63.5243 199.994C60.4803 195.802 57.4733 191.583 54.5134 187.333C54.1498 186.811 53.7929 186.293 53.4291 185.771C54.207 184.838 54.9882 183.909 55.7593 182.973C58.9549 179.09 62.1033 175.167 65.2214 171.221C68.2789 175.861 71.3835 180.471 74.5387 185.043L75.3065 186.155C71.4341 190.815 67.5078 195.428 63.5243 199.994ZM65.511 202.718C65.2517 202.368 64.9958 202.015 64.7365 201.661C68.7099 197.108 72.6295 192.509 76.4918 187.862C79.7782 192.58 83.1119 197.267 86.4994 201.914C79.088 202.095 72.0604 202.378 65.511 202.718ZM78.5761 187.333C78.327 186.973 78.0778 186.613 77.8286 186.256C78.3001 185.69 78.7748 185.128 79.2395 184.562C82.7381 180.309 86.1863 176.016 89.594 171.689C92.5505 176.171 95.5542 180.622 98.6015 185.044C98.9686 185.576 99.3356 186.104 99.7026 186.633C95.8403 191.3 91.9242 195.92 87.9507 200.493C84.7821 196.139 81.6539 191.751 78.5761 187.333ZM89.4357 201.846C93.3048 197.391 97.1267 192.889 100.891 188.347C104.016 192.832 107.188 197.28 110.411 201.701C103.164 201.648 96.1501 201.705 89.4357 201.846ZM102.639 187.333C102.501 187.135 102.366 186.936 102.228 186.741C102.393 186.542 102.558 186.347 102.72 186.148C106.521 181.528 110.266 176.858 113.96 172.147C116.819 176.474 119.721 180.774 122.664 185.043C123.139 185.734 123.621 186.421 124.099 187.111C120.243 191.781 116.337 196.408 112.374 200.988C109.08 196.469 105.834 191.919 102.639 187.333ZM114.381 201.742C118.068 197.479 121.705 193.175 125.291 188.832C128.453 193.361 131.662 197.856 134.918 202.318C127.921 202.015 121.058 201.829 114.381 201.742ZM126.702 187.333C126.675 187.293 126.651 187.256 126.624 187.219C130.584 182.397 134.48 177.521 138.322 172.601C141.087 176.773 143.885 180.922 146.727 185.044C147.313 185.895 147.905 186.741 148.491 187.589C144.649 192.266 140.75 196.896 136.797 201.483C133.382 196.802 130.015 192.084 126.702 187.333ZM159.583 203.873C152.495 203.281 145.484 202.826 138.595 202.489C142.339 198.146 146.037 193.758 149.683 189.327C149.687 189.32 149.69 189.317 149.694 189.313C153.034 194.091 156.428 198.836 159.873 203.54C159.775 203.651 159.681 203.762 159.583 203.873ZM161.22 201.978C157.765 197.253 154.364 192.489 151.014 187.687C154.967 182.858 158.853 177.979 162.685 173.052C165.352 177.073 168.052 181.073 170.793 185.043C171.487 186.054 172.187 187.06 172.887 188.067C169.055 192.751 165.163 197.388 161.22 201.978ZM182.383 206.251C175.827 205.426 169.295 204.729 162.819 204.153C162.695 203.984 162.573 203.819 162.449 203.651C166.065 199.442 169.641 195.199 173.164 190.913C173.473 190.539 173.777 190.158 174.086 189.781C177.437 194.57 180.841 199.321 184.299 204.032C183.663 204.773 183.023 205.513 182.383 206.251ZM184.794 206.561C185.04 206.278 185.286 205.995 185.532 205.709C185.791 206.059 186.047 206.409 186.306 206.756C185.804 206.692 185.299 206.624 184.794 206.561ZM204.53 209.379C199.557 208.601 194.408 207.847 189.081 207.13C188.343 206.133 187.606 205.136 186.869 204.136C190.165 200.287 193.428 196.415 196.644 192.502C197.26 191.755 197.866 190.997 198.479 190.249C201.84 195.044 205.257 199.802 208.726 204.523C207.335 206.146 205.938 207.766 204.53 209.379ZM206.877 209.753C207.907 208.571 208.931 207.382 209.951 206.193C211.096 207.739 212.245 209.285 213.4 210.824C211.261 210.46 209.089 210.103 206.877 209.753ZM226.148 213.107C222.949 212.5 219.663 211.904 216.282 211.318C214.605 209.093 212.942 206.86 211.288 204.621C214.265 201.136 217.215 197.63 220.127 194.091C221.047 192.97 221.956 191.842 222.868 190.717C226.242 195.519 229.67 200.287 233.149 205.015C230.835 207.729 228.502 210.426 226.148 213.107ZM228.431 213.544C230.425 211.268 232.404 208.978 234.371 206.678C236.226 209.184 238.095 211.679 239.978 214.164C240.496 214.847 241.018 215.534 241.54 216.214C237.361 215.315 232.994 214.423 228.431 213.544ZM247.19 217.457C246.328 217.262 245.453 217.07 244.571 216.875C244.406 216.662 244.244 216.447 244.079 216.235C241.257 212.551 238.466 208.84 235.711 205.106C238.365 201.981 241.005 198.846 243.608 195.677C244.833 194.189 246.046 192.684 247.261 191.185C250.645 195.994 254.083 200.769 257.572 205.503C254.151 209.524 250.692 213.507 247.19 217.457ZM265.34 221.872C260.434 220.585 255.127 219.275 249.42 217.962C252.581 214.393 255.706 210.79 258.794 207.16C260.532 209.504 262.279 211.84 264.04 214.164C265.286 215.807 266.539 217.44 267.795 219.073C266.98 220.006 266.162 220.942 265.34 221.872ZM271.179 223.441C269.984 223.111 268.761 222.777 267.512 222.444C268.024 221.862 268.536 221.279 269.044 220.693C269.755 221.609 270.465 222.525 271.179 223.441ZM269.135 217.528C268.805 217.097 268.472 216.666 268.142 216.235C265.441 212.709 262.771 209.16 260.131 205.591C262.468 202.83 264.791 200.058 267.088 197.267C268.62 195.405 270.138 193.529 271.654 191.653C274.583 195.812 277.553 199.944 280.564 204.045C276.806 208.584 272.997 213.076 269.135 217.528ZM284.746 198.964C283.796 200.129 282.837 201.284 281.88 202.446C278.87 198.331 275.9 194.192 272.967 190.02C276.87 185.158 280.708 180.245 284.49 175.288C286.672 178.555 288.878 181.808 291.11 185.044C291.841 186.108 292.578 187.168 293.319 188.229C290.494 191.832 287.635 195.411 284.746 198.964Z" fill="#EBEBF0"/>
<path d="M298.097 145.677C295.68 144.876 293.174 144.061 290.585 143.239C289.629 142.936 288.659 142.63 287.679 142.327C286.605 141.987 285.514 141.65 284.413 141.313C283.743 141.108 283.069 140.902 282.389 140.697C276.54 138.926 270.344 137.141 263.862 135.394C263.182 135.208 262.495 135.027 261.808 134.845C261.693 134.814 261.582 134.784 261.468 134.754C260.552 134.508 259.629 134.266 258.7 134.023C253.571 132.69 248.275 131.386 242.843 130.134C242.143 129.972 241.443 129.811 240.739 129.652C238.358 129.11 235.954 128.582 233.526 128.066C232.647 127.878 231.765 127.693 230.876 127.511C227.721 126.854 224.525 126.221 221.299 125.615C220.585 125.477 219.868 125.346 219.148 125.211C215.023 124.453 210.844 123.736 206.621 123.073C205.776 122.941 204.931 122.81 204.082 122.679C202.449 122.433 200.809 122.19 199.166 121.961C198.432 121.857 197.695 121.756 196.957 121.655C191.586 120.924 186.158 120.284 180.693 119.752C179.882 119.672 179.07 119.594 178.255 119.523C177.622 119.463 176.986 119.406 176.349 119.352C175.588 119.288 174.827 119.224 174.066 119.163C167.982 118.672 161.86 118.321 155.731 118.136C154.95 118.109 154.169 118.086 153.388 118.069C153.155 118.062 152.92 118.059 152.687 118.052C151.893 118.035 151.098 118.022 150.303 118.012C149.458 117.995 148.609 117.988 147.764 117.981C142.252 117.944 136.864 117.961 131.608 118.028C130.84 118.039 130.076 118.049 129.315 118.062C128.924 118.069 128.534 118.072 128.146 118.082C127.328 118.096 126.517 118.109 125.705 118.126C119.587 118.251 113.653 118.443 107.912 118.688C107.155 118.722 106.404 118.756 105.656 118.789C104.791 118.83 103.929 118.87 103.073 118.911C102.235 118.954 101.4 118.995 100.572 119.039C95.0559 119.328 89.7322 119.672 84.6072 120.052C83.863 120.106 83.1222 120.163 82.3881 120.221C80.7045 120.348 79.0444 120.483 77.4045 120.621C76.5391 120.695 75.6838 120.769 74.8319 120.847C70.2793 121.244 65.9018 121.675 61.7095 122.126C60.9721 122.204 60.2447 122.285 59.5208 122.365C56.5912 122.689 53.756 123.022 51.0116 123.362C50.1125 123.473 49.2236 123.588 48.3447 123.699C45.1761 124.106 42.1354 124.521 39.2328 124.941C38.5088 125.042 37.795 125.147 37.0878 125.251C32.212 125.975 27.7368 126.699 23.6759 127.403C22.7196 127.568 21.7902 127.733 20.881 127.894C19.6217 128.12 18.4061 128.342 17.2376 128.561C16.5204 128.696 15.8233 128.831 15.1398 128.962C12.749 129.42 10.5636 129.861 8.59375 130.275C11.2809 124.261 14.6717 118.52 18.827 113.152C19.8608 111.819 20.9383 110.553 22.0596 109.354C43.6945 103.953 82.2265 99.0839 150.118 100.811C215.397 102.475 262.37 112.984 293.053 123.096C295.215 130.541 296.892 138.094 298.097 145.677Z" fill="#EBEBF0"/>
<path d="M202.321 311.68C202.321 311.68 195.27 289.227 195.098 276.33C194.926 263.434 204.954 272.03 204.954 272.03C204.954 272.03 197.506 252.652 201.634 247.897C205.762 243.142 208.729 252.086 208.729 252.086C208.729 252.086 211.608 236.239 216.938 236.856C222.269 237.472 222.222 245.725 222.222 245.725C222.222 245.725 226.05 222.683 234.99 222.168C243.931 221.652 240.664 238.954 240.664 238.954C240.664 238.954 247.618 221.087 260.131 225.41C272.644 229.734 257.572 254.645 257.572 254.645C257.572 254.645 267.077 246.789 269.344 254.941C271.61 263.094 250.291 277.021 250.291 277.021C250.291 277.021 262.154 273.926 259.75 283.9C257.346 293.874 239.287 297.999 239.287 297.999C239.287 297.999 246.2 299.376 241.54 306.768C236.88 314.159 202.318 311.684 202.318 311.684L202.321 311.68Z" fill="#C4C4CF"/>
<path d="M245.342 265.179C241.372 266.56 237.445 268.062 233.563 269.668C234.566 267.795 235.553 265.917 236.526 264.028C236.657 263.96 236.748 263.825 236.731 263.63C236.758 263.58 236.785 263.529 236.809 263.479C239.088 259.044 241.301 254.575 243.496 250.1C243.769 249.541 244.045 248.986 244.318 248.427C244.604 247.844 243.732 247.332 243.446 247.918C241.25 252.39 239.051 256.862 236.789 261.3C236.701 261.472 236.61 261.643 236.523 261.815C235.984 256.872 235.748 251.898 235.816 246.925C235.826 246.275 234.816 246.275 234.805 246.925C234.728 252.437 235.028 257.949 235.698 263.418C233.785 267.125 231.825 270.809 229.781 274.446C227.343 278.776 224.788 283.043 222.06 287.198C220.639 289.363 219.171 291.494 217.646 293.589C217.74 286.346 217.831 279.103 217.925 271.86C217.952 269.681 217.982 267.499 218.009 265.32C218.016 264.671 217.006 264.671 216.999 265.32C216.898 273.089 216.8 280.857 216.699 288.626C216.672 290.747 216.645 292.868 216.619 294.986C215.571 296.394 214.497 297.781 213.396 299.145C210.295 302.987 206.978 306.657 203.422 310.082C202.974 310.513 202.526 310.937 202.072 311.362C201.594 311.806 202.311 312.52 202.786 312.075C206.402 308.708 209.783 305.092 212.941 301.29C214.48 299.438 215.969 297.539 217.406 295.609C221.7 294.475 225.996 293.337 230.29 292.202C230.916 292.037 230.65 291.06 230.02 291.229C226.135 292.256 222.249 293.286 218.359 294.313C219.545 292.69 220.7 291.043 221.821 289.373C224.596 285.255 227.188 281.015 229.657 276.705C230.731 274.83 231.778 272.937 232.808 271.035C232.839 271.031 232.869 271.025 232.899 271.011C237.082 269.257 241.318 267.634 245.601 266.142C246.21 265.93 245.948 264.953 245.331 265.169L245.342 265.179Z" fill="#A6A6B0"/>
<path d="M99.1064 298.81C99.1064 298.81 83.0646 301.784 74.1749 300.821C65.2853 299.861 72.0401 293.679 72.0401 293.679C72.0401 293.679 58.0793 297.184 55.1531 293.945C52.2269 290.705 58.6281 289.412 58.6281 289.412C58.6281 289.412 47.9639 286.105 48.8326 282.489C49.7014 278.873 55.3787 279.593 55.3787 279.593C55.3787 279.593 39.8419 275.03 40.2359 268.835C40.6298 262.639 52.2605 266.333 52.2605 266.333C52.2605 266.333 40.5457 260.053 44.5696 251.803C48.5936 243.553 64.4738 256.012 64.4738 256.012C64.4738 256.012 59.864 248.813 65.6625 247.934C71.461 247.055 79.263 262.895 79.263 262.895C79.263 262.895 78.1249 254.47 84.7887 256.962C91.4492 259.453 92.7793 272.222 92.7793 272.222C92.7793 272.222 94.3047 267.582 99.0021 271.407C103.699 275.232 99.1031 298.81 99.1031 298.81L99.1064 298.81Z" fill="#C4C4CF"/>
<path d="M70.7069 265.313C71.3264 268.158 72.0302 270.987 72.8114 273.795C71.6093 272.947 70.3971 272.112 69.1781 271.283C69.1411 271.186 69.0603 271.115 68.9222 271.108C68.8886 271.085 68.8582 271.064 68.8246 271.041C65.9624 269.101 63.0732 267.205 60.1773 265.32C59.817 265.084 59.4567 264.848 59.0964 264.616C58.7193 264.37 58.295 264.926 58.6721 265.175C61.568 267.061 64.4606 268.946 67.3261 270.876C67.4372 270.95 67.5483 271.027 67.6594 271.101C64.2113 271.058 60.77 270.805 57.3555 270.34C56.9077 270.28 56.8235 270.974 57.2714 271.034C61.0596 271.549 64.8748 271.802 68.6967 271.802C71.0875 273.428 73.4614 275.085 75.7916 276.796C78.5696 278.836 81.2904 280.951 83.9202 283.177C85.2908 284.335 86.6343 285.527 87.9475 286.749C82.9707 286.079 77.9938 285.409 73.0169 284.739C71.5184 284.537 70.0234 284.335 68.5249 284.133C68.0771 284.072 67.9929 284.769 68.4408 284.827C73.7779 285.544 79.1151 286.264 84.4523 286.982C85.9103 287.177 87.365 287.376 88.823 287.571C89.7019 288.409 90.5672 289.265 91.4158 290.137C93.7999 292.592 96.0492 295.181 98.1066 297.915C98.3659 298.259 98.6218 298.606 98.8744 298.952C99.1404 299.316 99.6893 298.885 99.4267 298.521C97.413 295.75 95.2074 293.12 92.8537 290.632C91.7054 289.416 90.5268 288.234 89.318 287.083C88.897 284.032 88.4728 280.981 88.0519 277.93C87.9913 277.486 87.2976 277.587 87.3582 278.035C87.7421 280.796 88.1226 283.557 88.5064 286.318C87.4861 285.369 86.4524 284.436 85.3984 283.523C82.7955 281.271 80.0949 279.129 77.3371 277.072C76.135 276.176 74.9194 275.297 73.7004 274.428C73.7004 274.408 73.7004 274.385 73.6903 274.364C72.835 271.341 72.0707 268.29 71.4039 265.215C71.3096 264.778 70.6159 264.875 70.7103 265.32L70.7069 265.313Z" fill="#A6A6B0"/>
<path d="M119.691 158.384C119.691 158.384 95.2075 160.509 81.3107 173.096C67.4138 185.683 46.4355 206.557 46.4355 207.786C46.4355 209.015 58.2345 229.209 61.1204 231.569C64.0061 233.93 69.5117 235.61 73.1821 233.196C76.8524 230.781 104.198 210.086 104.198 210.086C104.198 210.086 135.262 157.573 119.691 158.384Z" fill="#DDDDE3"/>
<path d="M125.477 165.764C125.477 165.764 127.066 184.87 143.431 189.844C159.786 194.827 169.645 171.997 169.645 171.997C169.645 171.997 165.716 153.53 166.036 144.348C166.117 142.072 166.588 139.671 167.245 137.357C169.245 130.35 173.006 124.117 173.006 124.117L148.095 121.578C148.095 121.578 147.98 122.497 145.111 137.846C144.421 141.539 142.929 145.068 141.047 148.308C135.144 158.517 125.47 165.764 125.47 165.764L125.477 165.764Z" fill="#EBEBF0"/>
<path d="M141.05 148.308C141.943 152.823 142.902 156.999 143.549 157.888C145.084 159.992 153.883 155.093 161.19 146.557C163.308 144.075 165.382 140.785 167.245 137.357C169.245 130.35 173.006 124.117 173.006 124.117L148.095 121.578C148.095 121.578 147.98 122.497 145.111 137.846C144.421 141.539 142.929 145.068 141.047 148.308H141.05Z" fill="#A6A6B0"/>
<path d="M181.317 111.876C179.629 114.304 178.943 114.418 178.811 115.179C178.687 115.907 179.818 116.974 178.114 118.358C178.027 118.429 177.932 118.5 177.831 118.574C176.926 119.213 175.787 119.331 174.784 119.257C168.659 126.467 160.914 127.854 160.914 127.854L126.635 109.93L123.938 108.519H123.928C123.928 108.519 123.766 108.145 123.52 107.472C123.335 106.963 123.106 106.286 122.86 105.461C122.584 104.539 122.291 103.431 122.025 102.185C121.537 101.734 119.843 100.03 120.234 98.4574C120.688 96.6222 120.712 95.7198 120.567 95.1979C120.426 94.6726 119.762 91.5612 120.422 90.0358C121.082 88.5138 121.54 88.0222 121.725 87.6382C121.911 87.251 121.217 83.0991 122.682 81.2437C123.157 80.6409 123.514 80.2605 123.793 79.9944C124.056 79.7419 124.251 79.587 124.409 79.4422C124.594 79.2704 124.729 79.1122 124.877 78.8091C125.281 77.9706 127.537 72.5055 128.925 72.2327C130.312 71.9566 131.339 72.0543 131.827 71.428C132.319 70.8016 136.215 65.8888 137.865 65.7474C139.515 65.606 141.374 66.7576 141.953 66.5016C142.532 66.2491 146.724 63.6731 148.307 64.5789C149.889 65.4847 150.738 66.4915 151.287 66.3367C151.836 66.1784 158.224 64.4779 159.968 66.3434C161.712 68.2089 162.133 69.1349 162.668 69.1922C163.204 69.2461 169.551 69.9936 170.531 71.8927C171.511 73.7953 171.656 74.4788 172.161 74.6304C172.666 74.7819 178.36 77.203 178.899 79.3951C179.438 81.5906 179.727 83.1227 179.835 83.2607C179.943 83.3988 182.903 88.6719 182.465 90.9449C182.027 93.2178 182.677 94.4368 182.785 94.8981C182.892 95.3594 182.01 98.72 180.976 101.296C179.946 103.869 182.28 104.687 182.303 105.441C182.323 106.195 182.997 109.445 181.31 111.873L181.317 111.876Z" fill="#27272A"/>
<path d="M182.559 128.674C179.835 134.028 169.397 130.226 169.397 130.226C169.397 130.226 169.387 130.246 169.36 130.297C168.888 131.243 164.08 140.624 159.924 144.221C157.177 146.611 151.341 148.857 145.785 150.285C142.081 151.237 142.078 151.237 145.775 150.285C144.115 150.389 140.61 151.073 136.003 150.517C131.39 149.962 127.174 148.608 123.453 139.082C119.843 129.856 120.807 119.811 120.874 119.195C120.874 119.171 120.874 119.161 120.874 119.161C121.103 117.807 121.379 116.71 121.632 115.891C122.443 113.255 121.948 111.032 121.904 107.847C121.891 106.682 122.16 104.584 122.51 102.399C122.568 102.251 124.595 97.1188 124.891 96.6541C125.194 96.186 126.837 97.6441 128.171 98.0482C129.504 98.4522 130.922 97.9202 132.016 97.368C133.114 96.8191 133.272 97.8293 135.902 98.1458C138.535 98.459 141.701 97.3377 141.701 97.3377C141.701 97.3377 142.778 99.2671 144.122 100.395C145.465 101.523 147.846 101.604 148.829 101.661C149.812 101.719 150.637 102.449 152.102 103.614C153.57 104.779 155.635 105.005 156.951 105.163C158.264 105.322 159.635 106.618 162.743 107.48C164.481 107.962 166.811 107.224 168.528 106.48C168.296 107.722 167.925 109.78 167.528 112.012C167.319 113.528 167.056 115.255 166.723 116.7C166.218 119.771 165.837 122.296 165.962 122.549C166.275 123.185 167.289 123.249 168.127 123.077C168.979 122.919 170.164 117.653 170.922 116.7C171.313 116.205 172.882 116.033 174.72 116.218C176.502 116.397 178.542 116.912 180.007 117.794C180.768 118.255 181.485 118.848 182.085 119.559C183.816 121.613 184.563 124.687 182.553 128.67L182.559 128.674Z" fill="#EBEBF0"/>
<path d="M173.919 128.574C174.171 128.652 174.485 128.702 174.879 128.719C176.239 128.769 178.65 127.18 179.721 125.052C180.327 123.85 180.731 122.021 179.229 120.153C178.371 119.085 177.37 118.543 176.256 118.543C173.885 118.536 171.878 120.974 171.794 121.079C171.7 121.193 171.717 121.365 171.835 121.459C171.949 121.553 172.121 121.536 172.215 121.419C172.235 121.395 174.145 119.078 176.256 119.085C177.199 119.085 178.057 119.563 178.808 120.493C180.132 122.136 179.771 123.745 179.239 124.806C178.229 126.82 175.946 128.217 174.902 128.177C174.091 128.146 173.555 127.924 173.471 127.588C173.411 127.348 173.586 127.059 173.909 126.86C173.976 126.82 174.047 126.776 174.121 126.736C175.013 126.207 176.36 125.409 175.542 123.91C175.141 123.176 174.656 123.001 174.32 122.981C173.693 122.944 173.141 123.399 172.858 123.799C172.441 124.389 172.249 124.85 172.239 124.87C172.181 125.008 172.245 125.166 172.384 125.224C172.522 125.281 172.68 125.217 172.737 125.079C172.737 125.076 172.919 124.651 173.299 124.112C173.512 123.813 173.909 123.5 174.286 123.523C174.576 123.54 174.838 123.759 175.064 124.173C175.589 125.139 174.889 125.651 173.842 126.271C173.767 126.315 173.697 126.358 173.626 126.399C173.087 126.725 172.818 127.247 172.942 127.726C173.01 127.982 173.225 128.365 173.919 128.574Z" fill="#A6A6B0"/>
<path d="M146.546 116.872C147.684 116.84 148.568 115.413 148.52 113.685C148.472 111.956 147.511 110.58 146.373 110.611C145.236 110.643 144.352 112.069 144.4 113.798C144.448 115.527 145.409 116.903 146.546 116.872Z" fill="#27272A"/>
<path d="M128.666 115.789C129.707 115.76 130.516 114.492 130.473 112.956C130.431 111.421 129.552 110.2 128.511 110.229C127.47 110.258 126.661 111.526 126.704 113.062C126.746 114.597 127.625 115.818 128.666 115.789Z" fill="#27272A"/>
<path d="M145.598 113.848C146.08 113.834 146.453 113.209 146.433 112.451C146.412 111.692 146.005 111.088 145.523 111.101C145.042 111.114 144.668 111.74 144.689 112.498C144.71 113.257 145.117 113.861 145.598 113.848Z" fill="white"/>
<path d="M127.591 113.504C128.072 113.491 128.446 112.865 128.425 112.107C128.404 111.348 127.997 110.744 127.515 110.757C127.034 110.771 126.66 111.396 126.681 112.155C126.702 112.913 127.109 113.517 127.591 113.504Z" fill="white"/>
<path d="M132.895 127.168C134.188 127.559 135.511 127.539 135.602 127.535C135.801 127.532 135.959 127.367 135.956 127.165C135.952 126.966 135.787 126.808 135.585 126.811C135.552 126.811 132.242 126.865 131.329 125.306C130.575 124.017 131.299 123.387 133.158 121.959C133.316 121.838 133.477 121.713 133.642 121.585C135.791 119.915 134.912 116.157 134.871 115.999C134.824 115.804 134.629 115.686 134.437 115.733C134.242 115.78 134.124 115.975 134.171 116.167C134.178 116.201 134.979 119.629 133.198 121.013C133.033 121.141 132.871 121.265 132.716 121.383C130.972 122.72 129.595 123.777 130.703 125.67C131.157 126.448 132.019 126.902 132.891 127.165L132.895 127.168Z" fill="#A6A6B0"/>
<path d="M144.627 106.67C144.691 106.691 144.758 106.694 144.826 106.684C144.859 106.681 147.913 106.243 149.671 107.974C149.85 108.149 150.136 108.145 150.311 107.97C150.486 107.792 150.483 107.506 150.307 107.33C148.223 105.276 144.836 105.768 144.691 105.788C144.445 105.825 144.277 106.058 144.314 106.303C144.341 106.482 144.469 106.62 144.63 106.667L144.627 106.67Z" fill="#27272A"/>
<path d="M125.399 107.24C125.598 107.301 125.817 107.217 125.921 107.032C125.978 106.934 127.251 104.799 130.302 105.883C130.541 105.964 130.794 105.843 130.878 105.607C130.962 105.371 130.837 105.115 130.602 105.031C126.817 103.694 125.15 106.557 125.133 106.587C125.012 106.806 125.086 107.079 125.305 107.203C125.335 107.22 125.366 107.233 125.396 107.244L125.399 107.24Z" fill="#27272A"/>
<path d="M130.416 132.746C130.595 134.497 131.427 136.066 132.669 137.194C133.858 138.281 135.42 138.962 137.154 139.019C139.623 139.1 141.842 137.891 143.152 135.998C143.717 135.177 144.118 134.231 144.29 133.204C144.323 133.015 144.29 132.84 144.209 132.682C144.078 132.419 143.815 132.227 143.495 132.217L131.275 131.813C130.945 131.803 130.659 131.985 130.511 132.254C130.433 132.399 130.4 132.567 130.416 132.742V132.746H130.416Z" fill="#38383D"/>
<path d="M130.511 132.255C132.242 133.16 134.632 133.767 137.282 133.857C139.966 133.945 142.418 133.49 144.209 132.686C144.078 132.423 143.815 132.231 143.495 132.221L131.275 131.817C130.945 131.807 130.659 131.989 130.511 132.258L130.511 132.255Z" fill="white"/>
<path d="M132.669 137.196C133.858 138.284 135.421 138.964 137.155 139.021C139.623 139.102 141.842 137.893 143.152 136.001C141.97 135.337 140.535 134.923 138.98 134.872C136.404 134.788 134.09 135.711 132.666 137.193L132.669 137.196Z" fill="#A6A6B0"/>
<path d="M121.443 86.3575C121.443 86.3575 121.174 74.4104 131.276 67.0662C141.378 59.7188 158.409 61.4361 173.128 70.3763C187.843 79.3131 182.432 98.7323 182.432 98.7323C182.432 98.7323 156.012 83.3101 121.446 86.3575L121.443 86.3575Z" fill="#808089"/>
<path d="M120.351 86.589L120.105 93.9937C120.105 93.9937 137.447 90.3199 154.418 94.5864C171.389 98.8561 182.512 105.22 182.512 105.22L182.727 98.7416C182.727 98.7416 165.396 79.1473 120.351 86.589Z" fill="#64646D"/>
<path d="M114.119 93.546C114.119 93.546 102.64 95.2061 108.33 100.425C114.021 105.645 173.43 100.668 173.43 100.668C173.43 100.668 144.297 86.3298 114.119 93.546Z" fill="#808089"/>
<path d="M271.429 72.893C265.415 72.1993 235.143 51.7969 235.143 51.7969L232.388 56.5751L229.634 61.3533C229.634 61.3533 260.956 79.9374 264.57 84.793C264.57 84.793 264.987 84.8166 268.752 78.284C272.516 71.7515 271.425 72.8997 271.425 72.8997L271.429 72.893Z" fill="#38348D"/>
<path d="M202.484 3.90071C208.44 7.33199 213.666 12.952 217.219 19.4004L217.286 19.2859C217.286 19.2859 217.599 19.983 218.145 21.1716C218.441 21.7744 218.724 22.3906 218.99 23.0069C220.795 26.8893 223.812 33.2098 226.917 39.0554C230.021 44.8909 233.21 50.2483 235.372 52.1913C235.372 52.1913 237.897 51.6693 234.375 57.7911C230.853 63.9061 230.035 61.4547 230.035 61.4547C224.502 59.6633 205.09 61.1483 196.567 61.9093C195.897 61.9868 195.23 62.0541 194.557 62.0946C193.254 62.2191 192.499 62.2966 192.499 62.2966L192.56 62.1855C187.927 62.2899 183.249 61.6467 178.922 60.3032C176.383 59.5118 173.969 58.4747 171.764 57.2086C164.406 52.9624 160.759 46.8879 160.018 40.0421C159.281 33.1897 161.443 25.556 165.679 18.1951C174.161 3.47663 187.762 -4.5813 202.48 3.90091L202.484 3.90071Z" fill="#3879BD"/>
<path d="M234.466 53.6425C234.315 54.188 233.917 55.2049 232.914 56.9492C231.914 58.69 231.234 59.5386 230.836 59.9461L230.553 59.8518C228.621 59.2255 225.27 58.9224 220.307 58.9224C217.397 58.9224 214.175 59.0302 210.993 59.1918C208.69 59.3096 206.403 59.4511 204.268 59.6026C201.241 59.8181 198.514 60.0471 196.466 60.2323C196.45 60.2323 196.436 60.2356 196.419 60.2356H196.372C195.662 60.3232 195.032 60.3804 194.453 60.4174C194.453 60.4174 193.988 60.4579 193.806 60.478L192.523 60.5049C192.213 60.5117 191.904 60.515 191.597 60.515C187.462 60.515 183.25 59.8887 179.421 58.7001C176.973 57.9357 174.68 56.9457 172.602 55.7503C166.097 51.9992 162.426 46.6518 161.692 39.8634C161.019 33.5968 162.901 26.3942 167.14 19.0366C167.598 18.2419 168.073 17.4674 168.555 16.7233C170.033 14.4503 171.616 12.4165 173.286 10.6419C174.501 9.34891 175.764 8.19389 177.057 7.18374C181.27 3.89728 185.853 2.13281 190.476 2.13281C194.17 2.13281 197.928 3.2171 201.642 5.36203C207.235 8.58117 212.242 13.8544 215.741 20.2152L216.411 21.4274C216.475 21.5688 216.633 21.9123 216.633 21.9123C216.933 22.5251 217.205 23.1178 217.441 23.67L217.461 23.7137C219.03 27.0844 222.145 33.6641 225.428 39.8431C229.321 47.1602 232.203 51.6084 234.247 53.4436L234.466 53.6425Z" fill="#4FC3DD"/>
<path d="M168.555 16.7227L196.466 60.2315C196.466 60.2315 196.436 60.2349 196.419 60.2349H196.372C195.662 60.3225 195.032 60.3797 194.453 60.4167C194.453 60.4167 193.988 60.4571 193.806 60.4773L192.523 60.5042C192.213 60.5109 191.904 60.5143 191.597 60.5143C187.462 60.5143 183.25 59.8879 179.421 58.6993C176.973 57.9349 174.68 56.9449 172.602 55.7496C166.097 51.9984 162.426 46.6511 161.692 39.8626C161.019 33.5961 162.901 26.3934 167.14 19.0358C167.598 18.2413 168.073 17.4668 168.555 16.7227Z" fill="#9FDBE8"/>
<path d="M210.993 59.1915C208.69 59.3094 206.404 59.4508 204.269 59.6023L173.286 10.6418C174.502 9.34877 175.764 8.19374 177.058 7.18359L210.993 59.1915Z" fill="#9FDBE8"/>
<path d="M192.357 12.2637C193.877 11.995 194.891 10.545 194.623 9.02502C194.354 7.50508 192.904 6.49078 191.384 6.75951C189.864 7.02824 188.85 8.47825 189.118 9.99818C189.387 11.5181 190.837 12.5324 192.357 12.2637Z" fill="#3879BD"/>
<path d="M207.24 30.5312C208.741 30.1701 209.664 28.6608 209.303 27.16C208.942 25.6592 207.433 24.7352 205.932 25.0963C204.431 25.4573 203.508 26.9666 203.869 28.4674C204.23 29.9682 205.739 30.8922 207.24 30.5312Z" fill="#3879BD"/>
<path d="M203.755 20.9193C205.788 18.8863 205.788 15.5902 203.755 13.5572C201.722 11.5243 198.426 11.5243 196.393 13.5572C194.36 15.5902 194.36 18.8863 196.393 20.9193C198.426 22.9523 201.722 22.9523 203.755 20.9193Z" fill="#3879BD"/>
<path d="M173.167 54.7665C175.161 55.9148 177.38 56.8744 179.761 57.6153L178.922 60.3057C176.383 59.5144 173.965 58.4807 171.76 57.2078C164.399 52.965 160.759 46.8937 160.021 40.0413L162.823 39.7383C163.517 46.153 166.995 51.2072 173.167 54.7665Z" fill="white"/>
<path d="M201.075 6.34211C203.069 7.49033 205.008 8.93157 206.843 10.6186L208.753 8.54429C206.793 6.74275 204.688 5.17026 202.479 3.8974C195.119 -0.34537 188.04 -0.449772 181.74 2.34508L182.882 4.92104C188.778 2.30467 194.896 2.78279 201.072 6.33871L201.075 6.34211Z" fill="#9FDBE8"/>
<path d="M227.194 51.0739L224.969 54.9336L229.861 57.7537L232.086 53.8939L227.194 51.0739Z" fill="#3879BD"/>
<path d="M282.265 170.044C280.975 172.273 278.978 173.819 276.594 174.772C276.594 174.772 276.588 174.772 276.588 174.779C276.557 174.789 276.433 174.836 276.227 174.917C276.16 174.944 276.082 174.974 275.995 175.004C270.772 177.038 233.055 191.679 232.075 191.191C231.028 190.662 228.014 186.995 226.967 178.425C225.913 169.859 232.863 153.039 232.863 153.039L248.942 144.028C248.538 141.601 247.996 138.863 247.289 135.792C243.346 118.753 239.611 92.2023 239.167 91.5019C238.719 90.8049 238.177 88.1009 237.338 84.801C236.5 81.4943 224.974 69.2171 224.718 68.2002C224.462 67.1833 225.001 62.9 225.775 59.5463C226.556 56.1991 227.593 47.4576 228.331 46.8212C229.068 46.1848 230.728 48.8281 232.055 52.6433C233.378 56.4551 232.671 62.2199 232.671 62.2199L257.475 78.3594C257.475 78.3594 257.795 78.8611 257.253 83.1511C256.707 87.4342 259.933 88.0606 266.408 100.846C272.884 113.639 283.309 144.18 284.423 150.75C285.541 157.316 286.787 162.232 282.268 170.048L282.265 170.044Z" fill="#EBEBF0"/>
<path d="M232.856 63.8229C236.079 67.8974 238.732 72.4668 240.665 77.2887C241.231 78.6962 241.736 80.1273 242.184 81.5753C242.568 82.8145 244.517 82.2858 244.134 81.0365C242.507 75.7936 240.133 70.7764 237.079 66.2136C236.2 64.9004 235.264 63.6309 234.288 62.3952C233.947 61.9675 233.213 62.0416 232.86 62.3952C232.435 62.8194 232.52 63.3952 232.86 63.8229H232.856Z" fill="#A6A6B0"/>
<path d="M265.166 64.9627L261.829 70.4817C261.2 71.5256 259.846 71.8152 258.806 71.1283L255.893 69.2055C254.859 68.5254 254.522 67.138 255.135 66.1009L253.812 68.2897C253.182 69.3335 251.829 69.6197 250.788 68.9328L247.875 67.0169C246.875 66.3603 246.532 65.0503 247.057 64.02L245.717 66.2323C245.084 67.2728 243.734 67.5624 242.69 66.8755L239.777 64.9528C238.736 64.2692 238.403 62.8717 239.033 61.8279L240.447 59.4877C239.817 60.5316 238.467 60.8144 237.423 60.1309L234.51 58.2148C233.473 57.5279 233.14 56.1272 233.766 55.0866L238.444 47.3553C239.073 46.3114 240.423 46.0286 241.467 46.7121L244.377 48.6314C245.417 49.315 245.751 50.7158 245.124 51.7597C245.754 50.7158 247.108 50.4262 248.145 51.1132L251.061 53.0325C252.098 53.7195 252.431 55.1169 251.802 56.1573C252.431 55.1135 253.785 54.8273 254.829 55.5142L257.738 57.4335C258.779 58.1171 259.112 59.5179 258.482 60.5618C259.115 59.5179 260.466 59.2283 261.506 59.9153L264.419 61.838C265.459 62.5215 265.793 63.919 265.163 64.9628L265.166 64.9627Z" fill="#EBEBF0"/>
<path d="M239.635 60.7719C239.541 60.7719 239.443 60.745 239.356 60.6877C239.124 60.5328 239.06 60.2197 239.214 59.9873L245.222 50.9057C245.377 50.6734 245.69 50.6094 245.922 50.7643C246.155 50.9192 246.219 51.2323 246.064 51.4647L240.056 60.5463C239.959 60.6944 239.797 60.7719 239.635 60.7719Z" fill="#A6A6B0"/>
<path d="M246.225 65.4047C246.131 65.4047 246.033 65.3778 245.946 65.3206C245.713 65.1657 245.649 64.8525 245.804 64.6201L251.812 55.5385C251.967 55.3062 252.28 55.2422 252.512 55.3971C252.744 55.552 252.808 55.8651 252.653 56.0975L246.646 65.1791C246.549 65.3273 246.387 65.4047 246.225 65.4047Z" fill="#A6A6B0"/>
<path d="M254.613 67.5496C254.519 67.5496 254.421 67.5227 254.333 67.4654C254.101 67.3105 254.037 66.9974 254.192 66.765L258.681 59.9799C258.836 59.7475 259.149 59.6836 259.381 59.8385C259.613 59.9934 259.677 60.3066 259.522 60.5389L255.034 67.3241C254.936 67.4721 254.775 67.5496 254.613 67.5496Z" fill="#A6A6B0"/>
<path d="M262.237 158.78C262.048 158.78 261.863 158.672 261.779 158.487C257.196 148.678 248.808 144.516 248.724 144.475C248.471 144.354 248.367 144.051 248.488 143.802C248.609 143.549 248.912 143.445 249.161 143.566C249.518 143.738 257.95 147.913 262.691 158.059C262.809 158.311 262.701 158.611 262.449 158.729C262.378 158.763 262.307 158.776 262.237 158.776V158.78Z" fill="#A6A6B0"/>
<path d="M199.277 240.769C197.832 248.645 197.536 265.431 199.435 273.789C201.402 282.443 204.55 302.108 205.725 311.152C206.598 317.86 200.563 324.564 178.319 326.783C170.554 327.565 160.809 327.79 148.693 327.282C122.166 326.167 106.76 321.894 98.3859 318.402C91.9813 315.725 89.6982 313.513 89.6982 313.513C89.6982 313.513 90.4693 276.365 91.0653 248.251C91.3212 236.179 91.5469 225.771 91.6647 220.687C92.0553 203.776 92.0553 196.617 92.0553 196.617C93.0756 180.417 97.2646 177.252 101.844 170.036C104.002 166.635 106.915 163.042 113.118 160.247C113.195 160.21 114.357 159.924 114.428 159.897C120.29 157.775 136.47 154.906 136.47 154.906C136.47 154.906 131.385 173.618 144.757 174.315C158.128 175.019 166.675 154.381 166.675 154.381C166.675 154.381 186.798 157.971 195.364 157.62C203.93 157.27 226.481 152.903 230.155 152.027C233.825 151.155 235.573 149.579 235.923 150.805C236.273 152.027 235.051 174.053 235.051 176.676C235.051 179.299 238.546 193.459 238.546 193.459C238.546 193.459 211.884 203.864 211.362 204.035C210.837 204.21 205.072 207.706 205.072 207.706C205.072 207.706 201.004 232.482 199.435 239.954C199.378 240.21 199.327 240.483 199.277 240.766V240.769H199.277Z" fill="#DDDDE3"/>
<path d="M178.323 326.777C173.265 317.591 170.241 305.893 170.241 293.164C170.241 267.32 182.71 245.756 199.281 240.766C197.836 248.642 197.54 265.428 199.439 273.785C201.406 282.439 204.554 302.104 205.729 311.149C206.601 317.857 200.567 324.561 178.323 326.78V326.777Z" fill="#64646D"/>
<path d="M104.198 289.392C104.198 300.083 102.067 310.043 98.3898 318.401C91.9852 315.724 89.7021 313.512 89.7021 313.512C89.7021 313.512 90.4732 276.364 91.0693 248.25C99.0969 258.062 104.198 272.852 104.198 289.392Z" fill="#808089"/>
<path d="M119.203 163.176C119.725 165.004 120.503 166.759 121.51 168.372C121.853 168.92 122.729 168.415 122.382 167.863C121.419 166.318 120.678 164.658 120.176 162.906C119.998 162.283 119.021 162.546 119.203 163.176Z" fill="#A6A6B0"/>
<path d="M131.642 176.618C134.339 179.622 138.37 180.898 142.283 181.265C146.65 181.676 151.145 181.077 155.294 179.676C157.705 178.861 160.018 177.766 162.173 176.413C162.722 176.069 162.217 175.194 161.665 175.541C157.998 177.844 153.883 179.369 149.603 180.026C145.67 180.629 141.427 180.588 137.633 179.282C135.626 178.592 133.78 177.49 132.356 175.904C131.921 175.419 131.208 176.137 131.642 176.618Z" fill="#A6A6B0"/>
<path d="M197.955 176.168C199.77 184.886 201.174 193.691 202.144 202.544C202.42 205.056 202.659 207.568 202.868 210.087C202.921 210.73 203.932 210.737 203.878 210.087C203.14 201.123 201.972 192.19 200.376 183.337C199.928 180.852 199.446 178.37 198.931 175.899C198.8 175.262 197.823 175.532 197.958 176.168H197.955Z" fill="#A6A6B0"/>
<path d="M207.847 200.181C206.295 202.451 205.15 204.986 204.466 207.65C204.305 208.28 205.278 208.549 205.439 207.919C206.103 205.333 207.211 202.895 208.719 200.69C209.086 200.151 208.211 199.646 207.847 200.181Z" fill="#A6A6B0"/>
<path d="M108.441 195.773C113.25 198.962 118.244 201.868 123.389 204.481C128.534 207.094 133.774 209.387 139.148 211.401C144.552 213.421 150.071 215.139 155.668 216.539C161.237 217.934 166.884 219.011 172.575 219.772C178.293 220.537 184.054 220.981 189.826 221.082C190.536 221.095 191.25 221.102 191.961 221.106C192.61 221.106 192.61 220.099 191.961 220.095C186.24 220.072 180.522 219.722 174.841 219.048C169.157 218.371 163.51 217.364 157.941 216.051C152.371 214.738 146.879 213.112 141.491 211.185C136.104 209.259 130.817 207.023 125.678 204.498C120.543 201.976 115.553 199.161 110.741 196.066C110.142 195.682 109.546 195.292 108.953 194.898C108.411 194.538 107.902 195.413 108.445 195.77L108.441 195.773Z" fill="#A6A6B0"/>
<path d="M113.963 208.449C115.812 210.984 118.051 213.193 120.617 215.005C121.149 215.382 121.654 214.506 121.126 214.133C118.711 212.429 116.576 210.328 114.836 207.937C114.677 207.718 114.394 207.607 114.145 207.755C113.93 207.883 113.802 208.223 113.963 208.445L113.963 208.449Z" fill="#A6A6B0"/>
<path d="M130.605 220.738C135.45 223.839 140.498 226.621 145.714 229.045C147.175 229.725 148.65 230.375 150.138 231.002C150.391 231.109 150.691 230.887 150.761 230.648C150.845 230.359 150.66 230.133 150.408 230.025C145.195 227.826 140.134 225.277 135.258 222.408C133.861 221.587 132.48 220.735 131.117 219.863C130.568 219.512 130.059 220.385 130.608 220.735L130.605 220.738Z" fill="#A6A6B0"/>
<path d="M159.065 232.022C160.453 232.577 161.837 233.13 163.224 233.685C163.477 233.786 163.78 233.574 163.847 233.332C163.924 233.045 163.749 232.813 163.493 232.709C162.106 232.153 160.722 231.601 159.335 231.045C159.082 230.944 158.779 231.156 158.712 231.399C158.634 231.685 158.809 231.917 159.065 232.022Z" fill="#A6A6B0"/>
<path d="M111.573 301.89C117.153 303.008 122.759 303.988 128.39 304.817C129.999 305.056 131.612 305.278 133.225 305.493C133.498 305.53 133.727 305.234 133.73 304.988C133.73 304.685 133.494 304.52 133.225 304.483C127.656 303.742 122.106 302.857 116.584 301.83C115.001 301.537 113.419 301.23 111.843 300.914C111.206 300.786 110.937 301.759 111.573 301.887L111.573 301.89Z" fill="#A6A6B0"/>
<path d="M74.7685 228.127C73.829 232.265 72.6337 235.316 71.8659 236.461C70.1217 239.084 58.4069 242.93 54.2112 242.758C50.0155 242.583 39.3513 232.265 37.4286 226.676C36.7316 224.652 36.9302 215.409 37.4791 204.216C37.8091 197.582 38.2603 190.268 38.7216 183.362C39.6409 169.735 40.6006 157.703 40.7487 155.706C41.0989 150.989 37.9505 144.928 37.9505 144.928C37.9505 144.928 37.3613 143.46 36.5901 141.389C35.9436 139.644 35.1624 137.469 34.499 135.385C34.4923 135.368 34.4822 135.348 34.4788 135.327C34.206 134.469 33.9535 133.627 33.7379 132.842C33.4046 131.63 33.1588 130.543 33.0544 129.701C32.9466 128.822 32.8086 128.041 32.6705 127.333C32.5627 126.815 32.492 126.492 32.492 126.492C31.9936 124.205 31.5929 122.744 32.5324 121.218C33.8423 119.084 37.3814 118.333 37.3814 118.333C37.3814 118.333 39.6105 116.171 41.971 115.918C44.3315 115.673 45.904 115.918 45.904 115.918C45.904 115.918 46.032 114.228 49.3152 114.1C52.5915 113.965 54.0327 115.918 54.0327 115.918C54.0327 115.918 55.2146 114.087 57.831 114.09C60.4541 114.1 61.1108 117.844 61.1108 118.333C61.1108 118.821 65.0438 120.262 65.3065 122.36C65.3974 123.084 65.0843 124.151 64.6331 125.246C63.7744 127.337 62.4207 129.512 62.4207 129.512C62.4207 129.512 63.34 133.637 62.8147 139.011C62.7844 139.334 62.744 139.658 62.6901 139.978C61.8988 144.897 59.0097 148.739 59.0097 150.059C59.0097 151.379 72.4284 192.319 75.2839 206.849C75.4017 207.428 75.4993 207.963 75.5768 208.455C76.7318 215.664 75.9674 222.803 74.7619 228.134L74.7685 228.127Z" fill="#EBEBF0"/>
<path d="M74.7681 228.128C72.8319 227.249 70.8182 226.299 68.7204 225.279C55.0727 218.635 44.9506 211.466 37.4853 204.217C13.1094 180.548 16.975 155.993 18.3792 145.959C20.2178 132.85 32.5017 126.492 32.5017 126.492C32.5017 126.492 32.5724 126.816 32.6802 127.334C32.7307 127.6 32.798 127.92 32.8687 128.27C33.1516 129.658 33.5321 131.564 33.7476 132.847C33.815 133.251 33.9598 133.776 34.1483 134.365C34.2527 134.672 34.3638 134.998 34.4884 135.332C34.4952 135.352 34.5053 135.372 34.5086 135.389C35.4448 137.931 36.8658 140.982 36.8658 140.982C36.8658 140.982 36.7681 141.12 36.5998 141.393C35.2091 143.662 28.8247 155.158 32.1078 171.092C32.9092 174.995 35.2966 179.221 38.7313 183.366C47.2303 193.63 62.1306 203.445 75.2968 206.85C81.1087 208.355 86.584 208.607 91.0154 207.102C109.542 200.812 91.7124 163.927 82.6241 151.865C73.6468 139.952 62.9725 139.979 62.7065 139.982C62.757 139.662 62.7974 139.339 62.8311 139.016C62.9792 137.51 63.0095 136.103 62.9792 134.86C62.9085 131.651 62.4337 129.516 62.4337 129.516C62.4337 129.516 62.5718 129.291 62.794 128.917C63.2553 128.126 64.0668 126.668 64.6494 125.25C79.6844 129.678 117.263 144.366 119.115 180.888C121.348 224.946 126.547 251.635 74.7749 228.135L74.7681 228.128Z" fill="white"/>
<path d="M114.785 209.017C111.289 230.692 80.6941 227.113 59.369 214.57C38.0439 202.026 23.5274 185.432 22.3085 161.642C21.4363 144.459 28.5717 133.273 32.8649 128.266C33.1478 129.653 33.5283 131.559 33.7438 132.842C33.8111 133.246 33.956 133.771 34.1445 134.36C29.8007 139.25 23.8136 149.705 27.2011 168.286C32.2757 196.083 74.4039 216.536 91.0081 212.515C107.616 208.495 106.043 190.662 100.097 172.657C94.1566 154.652 82.6168 139.792 69.8548 136.472C67.1374 135.765 64.8644 135.239 62.9687 134.855C62.8979 131.646 62.4231 129.512 62.4231 129.512C62.4231 129.512 62.5612 129.286 62.7834 128.912C70.3127 129.774 82.408 132.993 93.6279 143.994C111.633 161.649 118.277 187.348 114.778 209.024L114.785 209.017Z" fill="#64646D"/>
<path d="M113.863 238.57L121.163 261.061L128.45 283.507L115.927 275.654L104.603 289.14L100.437 259.7L97.9961 242.449L113.863 238.57Z" fill="#64646D"/>
<path d="M113.863 238.57L121.164 261.061C117.072 262.077 111.604 262.394 104.573 260.821C103.071 260.485 101.694 260.108 100.438 259.7L98 242.453L113.867 238.574L113.863 238.57Z" fill="#808089"/>
<path d="M111.937 241.411L131.332 254.941L150.687 268.44L146.818 254.173L163.012 247.263L136.057 234.714L120.267 227.359L111.937 241.411Z" fill="#64646D"/>
<path d="M111.937 241.412L131.329 254.941C133.491 251.325 135.386 246.183 135.925 238.997C136.04 237.465 136.08 236.037 136.057 234.714L120.264 227.363L111.937 241.415V241.412Z" fill="#808089"/>
<path d="M132.686 213.223C134.393 216.345 130.864 221.086 131.225 224.419C131.598 227.874 136.009 231.764 135.05 235.043C134.09 238.326 128.275 239.222 126.099 241.929C123.998 244.542 124.416 250.439 121.291 252.146C118.169 253.853 113.428 250.324 110.095 250.684C106.64 251.058 102.751 255.469 99.4708 254.51C96.1877 253.55 95.292 247.735 92.5847 245.559C89.9716 243.458 84.0755 243.876 82.3683 240.751C80.661 237.629 84.19 232.888 83.8297 229.555C83.4559 226.1 79.0447 222.211 80.0044 218.931C80.9641 215.651 86.7794 214.752 88.9547 212.045C91.0559 209.432 90.6384 203.535 93.7633 201.828C96.8848 200.121 101.626 203.65 104.96 203.29C108.414 202.916 112.304 198.505 115.583 199.464C118.867 200.424 119.762 206.239 122.47 208.415C125.083 210.516 130.979 210.098 132.686 213.223Z" fill="#FFA270"/>
<path d="M107.526 246.996C118.578 246.996 127.537 238.037 127.537 226.985C127.537 215.932 118.578 206.973 107.526 206.973C96.4733 206.973 87.5137 215.932 87.5137 226.985C87.5137 238.037 96.4733 246.996 107.526 246.996Z" fill="white"/>
<path d="M107.526 244.262C117.068 244.262 124.803 236.527 124.803 226.985C124.803 217.442 117.068 209.707 107.526 209.707C97.9835 209.707 90.248 217.442 90.248 226.985C90.248 236.527 97.9835 244.262 107.526 244.262Z" fill="#FF3F1A"/>
<path d="M113.903 233.746L110.088 235.833L103.444 223.691L100.296 226.836L98.7168 223.947L104.562 217.508L104.913 217.316L113.9 233.745H113.903V233.746Z" fill="white"/>
<path d="M178.807 109.73C178.885 109.872 178.965 110.017 179.046 110.158C178.881 110.141 178.72 110.128 178.555 110.118C178.639 109.99 178.723 109.858 178.807 109.73Z" fill="white"/>
<path d="M64.9355 70.3321C64.9355 80.9458 73.071 89.6537 83.4456 90.5629C84.0383 90.6134 84.6343 90.6437 85.2472 90.6437C86.5941 90.6437 87.9107 90.5124 89.1869 90.2599C98.5143 88.4314 105.559 80.2085 105.559 70.3355C105.559 62.1631 100.733 55.1221 93.7765 51.8996C92.369 51.243 90.8672 50.7479 89.3081 50.4348C87.9982 50.1654 86.6412 50.0273 85.2472 50.0273C74.0273 50.0273 64.939 59.1191 64.939 70.3355L64.9355 70.3321Z" fill="#0B74E5"/>
<path d="M75.9905 63.5301C77.5601 63.5301 78.8325 62.5396 78.8325 61.3178C78.8325 60.096 77.5601 59.1055 75.9905 59.1055C74.4209 59.1055 73.1484 60.096 73.1484 61.3178C73.1484 62.5396 74.4209 63.5301 75.9905 63.5301Z" fill="#052E5C"/>
<path d="M82.1594 59.4833C83.729 59.4833 85.0014 58.4928 85.0014 57.2709C85.0014 56.0491 83.729 55.0586 82.1594 55.0586C80.5898 55.0586 79.3174 56.0491 79.3174 57.2709C79.3174 58.4928 80.5898 59.4833 82.1594 59.4833Z" fill="#052E5C"/>
<path d="M90.4729 60.6903C92.0425 60.6903 93.3149 59.6998 93.3149 58.478C93.3149 57.2561 92.0425 56.2656 90.4729 56.2656C88.9033 56.2656 87.6309 57.2561 87.6309 58.478C87.6309 59.6998 88.9033 60.6903 90.4729 60.6903Z" fill="#052E5C"/>
<path d="M94.3889 71.8739C95.9585 71.8739 97.2309 70.8834 97.2309 69.6615C97.2309 68.4397 95.9585 67.4492 94.3889 67.4492C92.8193 67.4492 91.5469 68.4397 91.5469 69.6615C91.5469 70.8834 92.8193 71.8739 94.3889 71.8739Z" fill="#052E5C"/>
<path d="M88.2199 75.9208C89.7895 75.9208 91.0619 74.9303 91.0619 73.7084C91.0619 72.4866 89.7895 71.4961 88.2199 71.4961C86.6503 71.4961 85.3779 72.4866 85.3779 73.7084C85.3779 74.9303 86.6503 75.9208 88.2199 75.9208Z" fill="#052E5C"/>
<path d="M79.9065 74.7137C81.4761 74.7137 82.7485 73.7232 82.7485 72.5014C82.7485 71.2796 81.4761 70.2891 79.9065 70.2891C78.3369 70.2891 77.0645 71.2796 77.0645 72.5014C77.0645 73.7232 78.3369 74.7137 79.9065 74.7137Z" fill="#052E5C"/>
<path d="M96.8039 65.7411C98.3735 65.7411 99.6459 64.7506 99.6459 63.5287C99.6459 62.3069 98.3735 61.3164 96.8039 61.3164C95.2343 61.3164 93.9619 62.3069 93.9619 63.5287C93.9619 64.7506 95.2343 65.7411 96.8039 65.7411Z" fill="#052E5C"/>
<path d="M85.4319 67.452C87.0015 67.452 88.2739 66.4615 88.2739 65.2397C88.2739 64.0178 87.0015 63.0273 85.4319 63.0273C83.8623 63.0273 82.5898 64.0178 82.5898 65.2397C82.5898 66.4615 83.8623 67.452 85.4319 67.452Z" fill="#052E5C"/>
<path d="M74.0608 69.9559C75.6304 69.9559 76.9028 68.9654 76.9028 67.7436C76.9028 66.5217 75.6304 65.5312 74.0608 65.5312C72.4912 65.5312 71.2188 66.5217 71.2188 67.7436C71.2188 68.9654 72.4912 69.9559 74.0608 69.9559Z" fill="#052E5C"/>
</svg>
