<svg width="241" height="218" viewBox="0 0 241 218" fill="none" xmlns="http://www.w3.org/2000/svg">
    <path opacity="0.5" d="M104.369 33.2266H209.929L182.465 81.9562H69.5215L104.369 33.2266Z" fill="#DDDDE3" />
    <path opacity="0.5"
        d="M100.194 25.1133L53.7344 90.0789H187.205L223.822 25.1133H100.194ZM183.759 82.9701C183.545 83.3493 183.145 83.5845 182.71 83.5845H68.7056C67.7264 83.5845 67.1576 82.4757 67.7264 81.6789L103.174 32.1093C103.402 31.7925 103.765 31.6053 104.154 31.6053H210.649C211.568 31.6053 212.149 32.5989 211.695 33.4005L183.759 82.9701Z"
        fill="#DDDDE3" />
    <path
        d="M187.626 90.7963H52.333L99.8218 24.3906H222.81C223.28 24.3906 223.705 24.633 223.942 25.041C224.18 25.449 224.185 25.9362 223.952 26.3466L187.626 90.7963ZM55.1338 89.3563H186.786L222.591 25.8306H100.563L55.1338 89.3563ZM182.708 84.3019H68.7034C67.981 84.3019 67.3258 83.9011 66.9946 83.2579C66.6634 82.6123 66.7186 81.8467 67.1386 81.2587L102.587 31.689C102.949 31.185 103.535 30.885 104.151 30.885H210.646C211.338 30.885 211.957 31.2426 212.307 31.8378C212.655 32.4354 212.662 33.1506 212.322 33.753L184.386 83.3227C184.045 83.9275 183.402 84.3043 182.708 84.3043V84.3019ZM104.151 32.325C103.993 32.325 103.849 32.3994 103.758 32.529L68.3098 82.0963C68.1562 82.3123 68.233 82.5211 68.2738 82.6003C68.3146 82.6795 68.437 82.8619 68.7034 82.8619H182.708C182.883 82.8619 183.044 82.7659 183.13 82.6147L211.066 33.045C211.189 32.8266 211.105 32.6346 211.062 32.565C211.018 32.493 210.896 32.325 210.646 32.325H104.151Z"
        fill="#DDDDE3" />
    <path
        d="M210.649 31.6055H104.153C103.765 31.6055 103.402 31.7927 103.174 32.1095L67.7263 81.6791C67.1575 82.4735 67.7263 83.5847 68.7055 83.5847H182.71C183.147 83.5847 183.545 83.3495 183.759 82.9703L211.695 33.4007C212.146 32.5991 211.568 31.6055 210.649 31.6055ZM182.465 81.9599H69.5215L104.369 33.2303H209.929L182.465 81.9599Z"
        fill="#DDDDE3" />
    <path opacity="0.75" d="M187.14 90.0781V144.018H53.7314L92.3066 90.0781H187.14Z" fill="#DDDDE3" />
    <path
        d="M187.861 144.736H52.333L91.9378 89.3555H187.861V144.736ZM55.1314 143.296H186.421V90.7955H92.677L55.1314 143.296Z"
        fill="#DDDDE3" />
    <path d="M92.3066 90.0781L53.7314 144.018V90.0781H92.3066Z" fill="#DDDDE3" />
    <path d="M53.0117 146.26V89.3555H93.7061L53.0117 146.26ZM54.4517 90.7955V141.772L90.9077 90.7955H54.4517Z"
        fill="#DDDDE3" />
    <path opacity="0.75" d="M223.822 25.1133V79.0533L210.229 103.13L187.141 90.0789L223.822 25.1133Z" fill="#DDDDE3" />
    <path
        d="M210.502 104.108L186.161 90.349L222.682 25.6713C222.908 25.2705 223.359 25.0809 223.803 25.1985C224.247 25.3161 224.547 25.7025 224.547 26.1609V79.2418L224.453 79.4074L210.504 104.111L210.502 104.108ZM188.122 89.8042L209.957 102.147L223.104 78.865V27.8529L188.122 89.8066V89.8042Z"
        fill="#DDDDE3" />
    <path
        d="M198.495 97.2145C198.372 97.2145 198.25 97.1833 198.137 97.1185C197.792 96.9217 197.672 96.4801 197.871 96.1369L222.449 53.2249C222.646 52.8793 223.087 52.7617 223.431 52.9585C223.776 53.1553 223.896 53.5969 223.697 53.9401L199.119 96.8521C198.987 97.0849 198.742 97.2145 198.492 97.2145H198.495Z"
        fill="#DDDDE3" />
    <path opacity="0.5"
        d="M223.822 111.729V161.449C223.822 162.642 222.545 163.398 221.501 162.827L187.141 144.018V90.0781L210.229 103.129L223.025 110.363C223.517 110.641 223.825 111.165 223.825 111.729H223.822Z"
        fill="#DDDDE3" />
    <path opacity="0.5"
        d="M53.7343 90.0766L17.8495 110.361C17.3575 110.64 17.0527 111.161 17.0527 111.727V161.448C17.0527 162.641 18.3295 163.397 19.3759 162.823L53.7343 144.014V90.0742V90.0766Z"
        fill="#DDDDE3" />
    <path
        d="M222.254 163.739C221.877 163.739 221.501 163.646 221.155 163.456L186.42 144.441V88.8398L223.38 109.732C224.097 110.137 224.544 110.903 224.544 111.724V161.445C224.544 162.261 224.124 162.997 223.423 163.415C223.061 163.631 222.657 163.739 222.257 163.739H222.254ZM187.86 143.586L221.846 162.191C222.228 162.4 222.561 162.251 222.686 162.177C222.811 162.102 223.101 161.884 223.101 161.447V111.726C223.101 111.421 222.936 111.138 222.669 110.987L187.86 91.3094V143.589V143.586Z"
        fill="#DDDDE3" />
    <path
        d="M18.6197 163.739C18.2165 163.739 17.8157 163.631 17.4533 163.415C16.7501 163 16.3301 162.263 16.3301 161.445V111.724C16.3301 110.901 16.7765 110.137 17.4917 109.732L54.4517 88.8398V144.441L19.7189 163.453C19.3733 163.643 18.9965 163.737 18.6197 163.737V163.739ZM53.0141 91.3094L18.2021 110.987C17.9357 111.138 17.7701 111.421 17.7701 111.726V161.447C17.7701 161.884 18.0605 162.102 18.1853 162.177C18.3101 162.251 18.6437 162.4 19.0253 162.191L53.0117 143.586V91.3071L53.0141 91.3094Z"
        fill="#DDDDE3" />
    <path
        d="M148.289 193.583C148.289 193.583 148.272 193.583 148.265 193.583C146.326 193.521 144.37 193.355 142.452 193.091C142.058 193.036 141.782 192.673 141.838 192.28C141.893 191.886 142.255 191.61 142.649 191.665C144.516 191.922 146.422 192.083 148.31 192.145C148.709 192.157 149.021 192.491 149.006 192.887C148.994 193.276 148.675 193.583 148.286 193.583H148.289ZM154.044 193.468C153.67 193.468 153.353 193.177 153.326 192.801C153.298 192.405 153.595 192.059 153.994 192.03C155.882 191.893 157.778 191.656 159.631 191.325C160.022 191.253 160.397 191.514 160.466 191.905C160.536 192.297 160.277 192.671 159.886 192.741C157.982 193.081 156.036 193.326 154.097 193.465C154.08 193.465 154.061 193.465 154.044 193.465V193.468ZM136.898 192.013C136.841 192.013 136.783 192.006 136.726 191.992C134.834 191.524 132.958 190.948 131.146 190.285C130.771 190.149 130.582 189.736 130.718 189.361C130.855 188.987 131.268 188.795 131.642 188.934C133.404 189.58 135.233 190.139 137.074 190.595C137.46 190.691 137.695 191.082 137.599 191.466C137.518 191.795 137.225 192.013 136.901 192.013H136.898ZM165.362 191.435C165.05 191.435 164.762 191.231 164.671 190.917C164.558 190.535 164.779 190.134 165.161 190.024C166.15 189.733 167.138 189.414 168.101 189.066C168.475 188.932 168.888 189.126 169.022 189.501C169.157 189.875 168.962 190.288 168.588 190.422C167.597 190.777 166.582 191.109 165.566 191.404C165.499 191.423 165.432 191.433 165.365 191.433L165.362 191.435ZM126.137 187.981C126.019 187.981 125.902 187.953 125.791 187.893C123.938 186.877 122.309 185.733 120.948 184.492C120.655 184.223 120.634 183.769 120.902 183.474C121.171 183.181 121.627 183.16 121.92 183.429C123.194 184.593 124.73 185.67 126.482 186.63C126.83 186.822 126.96 187.259 126.768 187.607C126.636 187.847 126.391 187.981 126.137 187.981ZM117.893 180.174C117.631 180.174 117.379 180.03 117.252 179.783C116.467 178.252 116.071 176.733 116.071 175.269C116.071 175.029 116.081 174.789 116.102 174.556C116.126 174.289 116.165 174.018 116.218 173.749C116.294 173.358 116.671 173.104 117.062 173.181C117.454 173.257 117.708 173.634 117.631 174.025C117.588 174.246 117.557 174.469 117.538 174.685C117.521 174.877 117.511 175.072 117.511 175.269C117.511 176.502 117.854 177.801 118.534 179.128C118.714 179.481 118.574 179.915 118.222 180.097C118.116 180.15 118.006 180.177 117.895 180.177L117.893 180.174ZM111.098 179.593C110.414 179.593 109.706 179.579 108.994 179.553C108.595 179.538 108.286 179.205 108.3 178.806C108.314 178.408 108.648 178.096 109.046 178.113C111.038 178.187 112.944 178.153 114.72 178.014C115.116 177.985 115.464 178.278 115.495 178.677C115.526 179.073 115.231 179.421 114.833 179.452C113.638 179.545 112.382 179.593 111.098 179.593ZM103.291 179.025C103.253 179.025 103.212 179.022 103.174 179.015C101.023 178.66 99.1584 178.132 97.476 177.405C97.1112 177.246 96.9432 176.824 97.1016 176.459C97.26 176.094 97.6824 175.926 98.0472 176.085C99.6216 176.766 101.376 177.261 103.409 177.597C103.8 177.661 104.066 178.031 104.002 178.425C103.944 178.777 103.639 179.027 103.291 179.027V179.025ZM120.463 178.573C120.139 178.573 119.844 178.353 119.765 178.021C119.671 177.635 119.909 177.246 120.295 177.153C121.918 176.761 123.466 176.243 124.898 175.617C125.119 175.521 125.34 175.415 125.558 175.302C125.911 175.12 126.346 175.259 126.528 175.612C126.71 175.965 126.571 176.399 126.218 176.581C125.974 176.706 125.726 176.826 125.477 176.934C123.967 177.597 122.338 178.139 120.636 178.552C120.578 178.566 120.523 178.571 120.466 178.571L120.463 178.573ZM92.9472 174.349C92.7744 174.349 92.6016 174.287 92.4624 174.162C91.0368 172.864 89.772 171.313 88.704 169.557C88.4976 169.216 88.6056 168.774 88.944 168.568C89.2848 168.361 89.7264 168.469 89.9328 168.808C90.9288 170.447 92.1072 171.892 93.432 173.097C93.7248 173.365 93.7464 173.819 93.48 174.114C93.3384 174.27 93.144 174.349 92.9472 174.349ZM130.123 172.873C130.003 172.873 129.883 172.845 129.77 172.78C129.425 172.585 129.302 172.146 129.497 171.798C129.878 171.121 130.073 170.445 130.07 169.789C130.07 169.427 130.01 169.062 129.893 168.705C129.727 168.208 129.442 167.759 129.043 167.37C128.758 167.092 128.753 166.636 129.031 166.353C129.31 166.069 129.766 166.062 130.049 166.341C130.613 166.89 131.021 167.533 131.258 168.251C131.426 168.753 131.51 169.271 131.51 169.789C131.51 170.697 131.254 171.611 130.75 172.506C130.618 172.741 130.373 172.873 130.121 172.873H130.123ZM119.534 169.535C119.374 169.535 119.21 169.48 119.076 169.369C118.769 169.115 118.726 168.661 118.98 168.357C120.487 166.533 122.174 165.361 123.996 164.872C124.38 164.769 124.776 164.997 124.877 165.381C124.978 165.765 124.752 166.161 124.368 166.261C122.842 166.672 121.404 167.685 120.089 169.271C119.947 169.444 119.741 169.533 119.534 169.533V169.535ZM86.9496 164.663C86.6448 164.663 86.3616 164.469 86.2632 164.161C85.7256 162.472 85.3536 160.717 85.1592 158.949C85.1376 158.757 85.1184 158.565 85.1016 158.373C85.0656 157.977 85.3584 157.626 85.7544 157.59C86.1504 157.554 86.5008 157.845 86.5368 158.241C86.5536 158.423 86.5728 158.608 86.592 158.79C86.7768 160.465 87.1296 162.126 87.6384 163.725C87.7584 164.104 87.5496 164.509 87.1704 164.629C87.0984 164.653 87.024 164.663 86.952 164.663H86.9496ZM85.836 153.275C85.8144 153.275 85.7904 153.275 85.7664 153.273C85.3704 153.234 85.08 152.884 85.116 152.488C85.296 150.575 85.6488 148.629 86.16 146.709C86.2632 146.325 86.6568 146.097 87.0408 146.2C87.4248 146.303 87.6528 146.697 87.5496 147.081C87.0576 148.926 86.7192 150.791 86.5464 152.625C86.5104 152.997 86.1984 153.277 85.8312 153.277L85.836 153.275ZM88.764 142.185C88.668 142.185 88.5696 142.165 88.476 142.125C88.1112 141.966 87.9456 141.541 88.104 141.177C88.6632 139.9 89.2992 138.63 89.9928 137.406C90.2616 136.933 90.5424 136.458 90.8304 135.993C91.0392 135.654 91.4832 135.551 91.8216 135.76C92.16 135.969 92.2656 136.413 92.0544 136.751C91.776 137.202 91.5024 137.661 91.2432 138.117C90.5736 139.297 89.9592 140.521 89.4216 141.753C89.304 142.024 89.04 142.185 88.7616 142.185H88.764ZM94.776 132.397C94.6176 132.397 94.4568 132.345 94.3248 132.239C94.0152 131.989 93.9672 131.536 94.2168 131.226C95.4048 129.753 96.72 128.293 98.124 126.892C98.4048 126.611 98.8608 126.611 99.1416 126.892C99.4224 127.173 99.4224 127.629 99.1416 127.909C97.7736 129.275 96.4944 130.693 95.3376 132.126C95.196 132.304 94.9872 132.395 94.776 132.395V132.397ZM102.9 124.257C102.694 124.257 102.487 124.168 102.346 123.995C102.091 123.688 102.134 123.234 102.442 122.982C103.234 122.327 104.062 121.677 104.902 121.043C105.614 120.505 106.349 119.975 107.078 119.466C107.405 119.238 107.854 119.32 108.082 119.646C108.31 119.973 108.228 120.421 107.902 120.649C107.186 121.149 106.466 121.667 105.768 122.195C104.945 122.814 104.136 123.453 103.361 124.093C103.226 124.204 103.063 124.259 102.902 124.259L102.9 124.257ZM112.342 117.676C112.094 117.676 111.854 117.549 111.72 117.318C111.518 116.975 111.634 116.533 111.977 116.334C113.642 115.36 115.368 114.438 117.108 113.596C117.466 113.423 117.898 113.572 118.07 113.929C118.243 114.287 118.094 114.719 117.737 114.892C116.033 115.717 114.338 116.622 112.706 117.577C112.591 117.645 112.466 117.676 112.344 117.676H112.342ZM122.698 112.66C122.41 112.66 122.138 112.487 122.028 112.201C121.884 111.832 122.066 111.414 122.436 111.268C124.236 110.565 126.086 109.924 127.932 109.367C128.314 109.252 128.714 109.468 128.83 109.847C128.945 110.229 128.729 110.629 128.35 110.745C126.54 111.292 124.728 111.918 122.962 112.607C122.875 112.641 122.786 112.657 122.7 112.657L122.698 112.66Z"
        fill="#DDDDE3" />
    <path opacity="0.5"
        d="M191.278 184.474C194.083 183.589 194.851 178.096 192.993 172.204C191.135 166.312 187.355 162.252 184.55 163.137C181.745 164.021 180.977 169.514 182.835 175.407C184.693 181.299 188.473 185.358 191.278 184.474Z"
        fill="#C2E1FF" />
    <g opacity="0.5">
        <path
            d="M187.138 190.544C193.179 189.25 197.407 185.074 196.58 181.217C195.754 177.36 190.187 175.282 184.146 176.576C178.105 177.87 173.878 182.046 174.704 185.903C175.53 189.76 181.097 191.838 187.138 190.544Z"
            fill="#DDDDE3" />
        <path
            d="M187.719 176.412C192.267 176.412 195.74 178.356 196.359 181.245C197.156 184.968 193.004 189.024 187.1 190.289C185.924 190.541 184.743 190.668 183.589 190.668C179.041 190.668 175.568 188.724 174.949 185.834C174.152 182.112 178.304 178.056 184.208 176.791C185.384 176.539 186.565 176.412 187.719 176.412ZM187.719 176.172C186.574 176.172 185.377 176.297 184.157 176.556C178.117 177.849 173.888 182.025 174.716 185.882C175.376 188.961 179.057 190.905 183.591 190.905C184.736 190.905 185.933 190.781 187.153 190.521C193.193 189.228 197.422 185.052 196.594 181.195C195.934 178.116 192.253 176.172 187.719 176.172Z"
            fill="#DDDDE3" />
    </g>
    <path
        d="M187.138 190.54C193.179 189.246 197.407 185.07 196.58 181.213C195.754 177.356 190.187 175.278 184.146 176.572C178.105 177.866 173.878 182.042 174.704 185.899C175.53 189.756 181.097 191.834 187.138 190.54Z"
        fill="#0B74E5" />
    <path opacity="0.5"
        d="M192.546 184.483C194.376 182.18 191.938 177.198 187.101 173.354C182.264 169.511 176.859 168.262 175.029 170.565C173.199 172.868 175.637 177.85 180.474 181.694C185.311 185.537 190.716 186.786 192.546 184.483Z"
        fill="#C2E1FF" />
    <g opacity="0.75">
        <path
            d="M65.5558 163.709L61.135 162.554C60.3238 162.343 59.4742 162.722 59.0902 163.466L57.3862 166.776C56.9566 167.611 57.2446 168.636 58.0462 169.125L62.3302 171.737C63.283 172.317 64.531 171.895 64.9342 170.853L66.775 166.085C67.1614 165.086 66.5902 163.975 65.5558 163.706V163.709Z"
            fill="#DDDDE3" />
        <path
            d="M87.8009 185.457L85.8905 183.196C84.8009 181.908 85.9361 179.964 87.5945 180.28L90.6473 180.864C91.9145 181.106 92.5169 182.565 91.7921 183.631L90.6497 185.308C89.9825 186.288 88.5665 186.362 87.8009 185.457Z"
            fill="#DDDDE3" />
        <path
            d="M111.023 152.545L105.494 154.41C104.766 154.655 104.274 155.339 104.274 156.107V159.647C104.274 160.636 105.076 161.437 106.065 161.437H113.754C114.609 161.437 115.343 160.835 115.511 159.997L116.591 154.592C116.812 153.484 115.965 152.449 114.834 152.449H111.594C111.4 152.449 111.206 152.48 111.023 152.543V152.545Z"
            fill="#DDDDE3" />
        <path
            d="M140.755 164.92V167.954C140.755 169.11 141.832 169.962 142.958 169.696C145.562 169.079 149.577 168.136 149.824 168.136C150.057 168.136 146.337 165.434 143.592 163.461C142.406 162.609 140.757 163.458 140.757 164.915L140.755 164.92Z"
            fill="#DDDDE3" />
        <path
            d="M156.122 150.942L153.355 151.34C152.757 151.427 152.244 151.806 151.987 152.353L150.655 155.195C150.211 156.14 150.667 157.264 151.646 157.631L155.256 158.992C156.352 159.404 157.543 158.67 157.668 157.506L158.157 152.908C158.282 151.746 157.279 150.779 156.122 150.944V150.942Z"
            fill="#DDDDE3" />
        <path
            d="M112.104 196.532L113.116 193.71C113.431 192.834 114.362 192.344 115.262 192.584L122.172 194.42C122.884 194.61 123.408 195.217 123.492 195.949L123.712 197.883C123.842 199.031 122.872 199.998 121.725 199.866L113.584 198.918C112.44 198.783 111.717 197.619 112.106 196.535L112.104 196.532Z"
            fill="#DDDDE3" />
    </g>
    <g opacity="0.25">
        <path
            d="M17.0527 130.207V111.725C17.0527 111.158 17.3575 110.637 17.8495 110.359L53.7343 90.0741L100.193 25.1085H222.632C222.769 24.1221 222.841 23.1165 222.841 22.0917C222.841 10.0845 213.106 0.347656 201.097 0.347656H40.9999C34.9951 0.347656 29.5591 2.78366 25.6231 6.71726C21.6871 10.6533 19.2559 16.0893 19.2559 22.0917C19.2559 34.1013 28.9903 43.8357 40.9999 43.8357H41.4487C53.4583 43.8357 63.1926 53.5725 63.1926 65.5797C63.1926 71.5869 60.7567 77.0205 56.8255 80.9565C52.8895 84.8901 47.4535 87.3237 41.4487 87.3237H22.1839C16.1791 87.3237 10.7431 89.7597 6.80709 93.6933C2.87109 97.6341 0.4375 103.07 0.4375 109.073C0.4375 119.316 7.51749 127.903 17.0527 130.207Z"
            fill="#DDDDE3" />
        <path
            d="M221.168 174.306C220.354 174.212 219.529 174.164 218.693 174.164H201.277C198.161 173.812 195.248 172.799 192.673 171.27C192.783 171.577 192.891 171.889 192.992 172.208C193.604 174.152 193.93 176.053 193.993 177.76C195.353 178.616 196.292 179.788 196.594 181.196C197.42 185.053 193.193 189.229 187.153 190.523C181.112 191.816 175.544 189.74 174.716 185.884C174.224 183.584 175.527 181.175 177.937 179.327C174.848 175.991 173.552 172.398 175.025 170.543C176.197 169.069 178.834 169.052 181.851 170.238C181.637 166.59 182.602 163.753 184.549 163.139C184.606 163.12 184.666 163.108 184.724 163.093C182.991 159.971 182.005 156.38 182.005 152.557C182.005 149.524 182.626 146.636 183.747 144.016H73.323C74.4438 146.639 75.0654 149.526 75.0654 152.557C75.0654 158.564 72.6318 163.998 68.6982 167.934C67.5462 169.084 66.2646 170.104 64.8774 170.975C64.5438 171.68 63.8094 172.067 63.0774 171.992C60.843 173.116 58.3902 173.869 55.7958 174.162H22.1815C21.3463 174.162 20.5183 174.21 19.7071 174.304C14.6911 174.872 10.1911 177.148 6.8047 180.532C2.8711 184.468 0.4375 189.904 0.4375 195.908C0.4375 207.918 10.1719 217.655 22.1815 217.655H218.691C224.696 217.655 230.132 215.219 234.068 211.285C238.004 207.349 240.435 201.913 240.435 195.911C240.435 184.739 232.011 175.535 221.165 174.306H221.168ZM91.7934 183.632L90.651 185.31C89.9838 186.289 88.5678 186.364 87.8022 185.459L85.8918 183.198C84.8022 181.909 85.9374 179.965 87.5958 180.282L90.6486 180.865C91.9158 181.108 92.5182 182.567 91.7934 183.632ZM104.276 159.649V156.109C104.276 155.341 104.765 154.657 105.495 154.412L111.025 152.548C111.209 152.485 111.401 152.454 111.596 152.454H114.836C115.966 152.454 116.813 153.488 116.593 154.597L115.513 160.002C115.345 160.84 114.61 161.442 113.756 161.442H106.066C105.077 161.442 104.276 160.64 104.276 159.652V159.649ZM121.724 199.866L113.583 198.918C112.438 198.784 111.716 197.62 112.105 196.535L113.117 193.712C113.432 192.836 114.363 192.347 115.263 192.587L122.173 194.423C122.885 194.612 123.409 195.22 123.493 195.952L123.713 197.886C123.843 199.033 122.873 200 121.726 199.868L121.724 199.866ZM149.825 168.14C149.578 168.14 145.563 169.081 142.959 169.7C141.833 169.967 140.756 169.112 140.756 167.958V164.924C140.756 163.465 142.405 162.618 143.59 163.47C146.336 165.443 150.058 168.145 149.823 168.145L149.825 168.14ZM158.161 152.905L157.671 157.504C157.546 158.67 156.356 159.402 155.259 158.989L151.649 157.628C150.673 157.261 150.217 156.138 150.658 155.192L151.99 152.351C152.247 151.804 152.761 151.424 153.358 151.338L156.125 150.94C157.282 150.774 158.285 151.741 158.161 152.903V152.905Z"
            fill="#DDDDE3" />
        <path
            d="M210.229 103.126L223.025 110.36C223.517 110.638 223.825 111.162 223.825 111.726V130.201C227.768 129.248 231.296 127.222 234.07 124.448C238.006 120.512 240.437 115.076 240.437 109.071C240.437 97.2152 230.948 87.5744 219.147 87.332L210.229 103.124V103.126Z"
            fill="#DDDDE3" />
    </g>
</svg>