<svg width="241" height="237" viewBox="0 0 241 237" fill="none" xmlns="http://www.w3.org/2000/svg">
    <path opacity="0.25"
        d="M240.352 118.653C240.352 107.936 233.203 98.891 223.412 96.0234V141.284C227.253 140.159 230.69 138.083 233.446 135.329C237.712 131.061 240.352 125.167 240.352 118.653Z"
        fill="#DDDDE3" />
    <path opacity="0.25"
        d="M183.858 192.195L186.658 189.395H181.679C181.466 189.395 181.256 189.388 181.044 189.383L183.856 192.195H183.858Z"
        fill="#DDDDE3" />
    <path opacity="0.25"
        d="M24.02 47.9072H26.9583C32.5847 42.4528 40.2517 39.0922 48.7076 39.0922C57.1635 39.0922 65.3033 42.6602 70.9701 48.4155C77.2817 49.7481 82.6627 53.6018 86.0057 58.8767H179.57C180.503 57.405 181.595 56.042 182.821 54.8131C187.09 50.5446 192.984 47.9047 199.498 47.9047H216.766C223.278 47.9047 229.175 45.2647 233.443 40.9989C237.709 36.7304 240.349 30.8361 240.349 24.3247C240.349 11.2994 229.792 0.742188 216.766 0.742188H24.02C17.5087 0.742188 11.6143 3.38213 7.34587 7.64803C3.07745 11.9164 0.4375 17.8108 0.4375 24.3247C0.4375 37.3474 10.9973 47.9047 24.02 47.9047V47.9072ZM186.642 41.3402C188.91 41.3402 190.749 43.1811 190.749 45.4493C190.749 47.7176 188.91 49.5559 186.642 49.5559C184.374 49.5559 182.536 47.7176 182.536 45.4493C182.536 43.1811 184.374 41.3402 186.642 41.3402ZM127.13 38.3614C126.538 37.7697 126.538 36.8088 127.13 36.2171C127.721 35.6229 128.682 35.6229 129.277 36.2171L133.578 40.5184L137.879 36.2171C138.471 35.6229 139.432 35.6229 140.026 36.2171C140.618 36.8088 140.618 37.7697 140.026 38.3614L135.722 42.6653L140.026 46.9665C140.618 47.5583 140.618 48.5192 140.026 49.1109C139.73 49.4067 139.341 49.5559 138.951 49.5559C138.562 49.5559 138.175 49.4067 137.879 49.1109L133.578 44.8096L129.277 49.1109C128.981 49.4067 128.591 49.5559 128.202 49.5559C127.812 49.5559 127.426 49.4067 127.13 49.1109C126.538 48.5192 126.538 47.5583 127.13 46.9665L131.433 42.6653L127.13 38.3614ZM86.471 36.1514C90.0693 36.1514 92.9848 39.0669 92.9848 42.6653C92.9848 46.2636 90.0693 49.1766 86.471 49.1766C82.8726 49.1766 79.9571 46.261 79.9571 42.6653C79.9571 39.0695 82.8726 36.1514 86.471 36.1514Z"
        fill="#DDDDE3" />
    <path opacity="0.25"
        d="M220.592 189.395H190.681C190.612 189.63 190.491 189.852 190.306 190.037L186.003 194.338L190.306 198.642C190.898 199.234 190.898 200.195 190.306 200.786C190.008 201.082 189.621 201.231 189.232 201.231C188.842 201.231 188.455 201.082 188.159 200.786L183.858 196.485L179.557 200.786C179.258 201.082 178.872 201.231 178.482 201.231C178.093 201.231 177.706 201.082 177.41 200.786C176.818 200.195 176.818 199.234 177.41 198.642L181.711 194.338L177.41 190.037C177.104 189.731 176.96 189.324 176.97 188.922C170.909 187.695 165.697 184.14 162.294 179.234H56.0306C55.224 180.4 54.3162 181.487 53.3173 182.489C49.8834 185.92 45.395 188.3 40.3806 189.099C39.1617 189.293 37.9126 189.395 36.6407 189.395H20.366C15.3517 190.194 10.8658 192.573 7.43181 196.005C3.16339 200.273 0.523438 206.167 0.523438 212.679C0.523438 225.704 11.0832 236.261 24.106 236.261H216.855C223.366 236.261 229.263 233.621 233.532 229.355C237.798 225.087 240.438 219.19 240.438 212.679C240.438 200.928 231.842 191.185 220.595 189.395H220.592ZM133.578 197.072C130.92 197.072 128.766 194.917 128.766 192.26C128.766 189.602 130.92 187.448 133.578 187.448C136.235 187.448 138.39 189.602 138.39 192.26C138.39 194.917 136.235 197.072 133.578 197.072Z"
        fill="#DDDDE3" />
    <path opacity="0.25"
        d="M24.02 142.233H29.3404V95.0703H24.02C17.5087 95.0703 11.6143 97.7103 7.34587 101.976C3.07745 106.245 0.4375 112.139 0.4375 118.65C0.4375 131.676 10.9973 142.233 24.02 142.233Z"
        fill="#DDDDE3" />
    <path opacity="0.5" d="M105.33 58.875H163.371V114.407H115.594V69.1389C115.594 63.4696 110.999 58.875 105.33 58.875Z"
        fill="#DDDDE3" />
    <path opacity="0.5"
        d="M115.594 119.059V168.972C115.594 174.642 110.999 179.239 105.33 179.239H163.371V119.059H115.594ZM141.677 166.568H123.729V163.338H141.677V166.568ZM141.677 160.112H123.729V156.883H141.677V160.112ZM141.677 153.656H123.729V150.427H141.677V153.656Z"
        fill="#DDDDE3" />
    <path opacity="0.5"
        d="M223.412 69.1389V114.407H168.019V58.875H179.704V95.6294C179.704 97.1922 181.567 97.9988 182.708 96.9292L193.187 87.0749C193.872 86.4301 194.941 86.4301 195.627 87.0749L206.106 96.9292C207.244 97.9988 209.107 97.1922 209.107 95.6294V58.875H213.148C218.817 58.875 223.412 63.4696 223.412 69.1389Z"
        fill="#DDDDE3" />
    <path opacity="0.5"
        d="M168.019 119.059H223.412V168.972C223.412 174.642 218.817 179.239 213.148 179.239H168.019V119.059Z"
        fill="#DDDDE3" />
    <path
        d="M164.13 115.167H114.835V69.1397C114.835 63.8978 110.572 59.6344 105.33 59.6344V58.1172H164.13V115.167ZM116.353 113.65H162.612V59.6344H110.906C114.163 61.5511 116.353 65.0964 116.353 69.1397V113.65Z"
        fill="#DDDDE3" />
    <path
        d="M164.13 179.994H105.33V178.477C110.572 178.477 114.835 174.211 114.835 168.969V118.297H164.13V179.994ZM110.906 178.477H162.612V119.814H116.353V168.969C116.353 173.015 114.163 176.558 110.906 178.477Z"
        fill="#DDDDE3" />
    <path d="M142.437 167.324H122.971V162.578H142.437V167.324ZM124.488 165.807H140.919V164.095H124.488V165.807Z"
        fill="#DDDDE3" />
    <path d="M142.437 160.867H122.971V156.121H142.437V160.867ZM124.488 159.35H140.919V157.638H124.488V159.35Z"
        fill="#DDDDE3" />
    <path d="M142.437 154.414H122.971V149.668H142.437V154.414ZM124.488 152.897H140.919V151.185H124.488V152.897Z"
        fill="#DDDDE3" />
    <path
        d="M224.17 115.167H167.26V58.1172H180.462V95.6302C180.462 96.0525 180.692 96.404 181.079 96.5709C181.466 96.7378 181.881 96.6645 182.189 96.3762L192.668 86.5219C193.644 85.604 195.171 85.604 196.147 86.5219L206.626 96.3762C206.932 96.6645 207.347 96.7378 207.731 96.5709C208.118 96.404 208.348 96.0525 208.348 95.6302V58.1172H213.148C219.227 58.1172 224.17 63.0608 224.17 69.1397V115.167ZM168.777 113.65H222.653V69.1397C222.653 63.8978 218.39 59.6344 213.148 59.6344H209.866V95.6302C209.866 96.6619 209.279 97.5546 208.333 97.9642C207.39 98.3738 206.336 98.1893 205.584 97.4838L195.106 87.6295C194.714 87.2603 194.099 87.2603 193.705 87.6295L183.226 97.4838C182.472 98.1893 181.418 98.3738 180.475 97.9642C179.531 97.5546 178.945 96.6619 178.945 95.6302V59.6344H168.777V113.65Z"
        fill="#DDDDE3" />
    <path
        d="M213.148 179.994H167.26V118.297H224.17V168.969C224.17 175.048 219.227 179.994 213.148 179.994ZM168.777 178.477H213.148C218.39 178.477 222.653 174.211 222.653 168.969V119.814H168.777V178.477Z"
        fill="#DDDDE3" />
    <path opacity="0.75"
        d="M115.594 69.1389V114.407H29.3408V94.8607C34.6637 99.071 41.3925 101.584 48.708 101.584C65.9663 101.584 79.9575 87.5958 79.9575 70.3375C79.9575 66.2891 79.1888 62.4227 77.7879 58.875H105.33C111 58.875 115.594 63.4696 115.594 69.1389Z"
        fill="#DDDDE3" />
    <path opacity="0.75"
        d="M29.3408 119.059V168.972C29.3408 174.642 33.9354 179.239 39.6048 179.239H105.33C111 179.239 115.594 174.642 115.594 168.972V119.059H29.3408ZM41.8654 136.352H61.3616C61.8622 136.352 62.3123 136.555 62.6411 136.881C62.9673 137.209 63.1696 137.662 63.1696 138.16C63.1696 139.159 62.3604 139.968 61.3616 139.968H41.8654C41.3647 139.968 40.9146 139.766 40.5859 139.44C40.2597 139.111 40.0574 138.658 40.0574 138.16C40.0574 137.161 40.8666 136.352 41.8654 136.352ZM67.3014 163.467C67.3014 165.609 65.5668 167.341 63.4275 167.341H42.3813C40.242 167.341 38.5073 165.609 38.5073 163.467V147.974C38.5073 145.835 40.242 144.1 42.3813 144.1H63.4275C65.5668 144.1 67.3014 145.835 67.3014 147.974V163.467Z"
        fill="#DDDDE3" />
    <path
        d="M116.353 115.165H28.582V93.2923L29.811 94.2634C35.2375 98.5545 41.7717 100.823 48.7078 100.823C65.5211 100.823 79.1987 87.1451 79.1987 70.3344C79.1987 66.4706 78.4856 62.7079 77.0822 59.15L76.6726 58.1133H105.33C111.409 58.1133 116.353 63.0569 116.353 69.1358V115.163V115.165ZM30.0992 113.648H114.835V69.1383C114.835 63.8964 110.572 59.633 105.33 59.633H78.8826C80.0989 63.0594 80.7159 66.6552 80.7159 70.3369C80.7159 87.9846 66.3581 102.343 48.7078 102.343C41.9436 102.343 35.541 100.287 30.0992 96.3824V113.648Z"
        fill="#DDDDE3" />
    <path
        d="M105.33 179.994H39.6046C33.5256 179.994 28.582 175.048 28.582 168.969V118.297H116.353V168.969C116.353 175.048 111.409 179.994 105.33 179.994ZM30.0992 119.814V168.969C30.0992 174.211 34.3626 178.477 39.6046 178.477H105.33C110.572 178.477 114.835 174.211 114.835 168.969V119.814H30.0992Z"
        fill="#DDDDE3" />
    <path
        d="M61.3616 140.727H41.8654C41.1827 140.727 40.5379 140.461 40.0524 139.978C39.5669 139.488 39.2988 138.843 39.2988 138.16C39.2988 136.744 40.4494 135.594 41.8654 135.594H61.3616C62.0443 135.594 62.6892 135.859 63.1747 136.342C63.6627 136.833 63.9282 137.478 63.9282 138.16C63.9282 139.576 62.7777 140.727 61.3616 140.727ZM41.8654 137.111C41.2864 137.111 40.816 137.581 40.816 138.16C40.816 138.441 40.9248 138.707 41.1245 138.906C41.3218 139.101 41.5848 139.21 41.8654 139.21H61.3616C61.9407 139.21 62.411 138.739 62.411 138.16C62.411 137.88 62.3023 137.617 62.1025 137.414C61.9053 137.22 61.6423 137.111 61.3616 137.111H41.8654Z"
        fill="#DDDDE3" />
    <path
        d="M63.4278 168.098H42.3816C39.8276 168.098 37.749 166.02 37.749 163.466V147.972C37.749 145.418 39.8276 143.34 42.3816 143.34H63.4278C65.9818 143.34 68.0604 145.418 68.0604 147.972V163.466C68.0604 166.02 65.9818 168.098 63.4278 168.098ZM42.3816 144.857C40.6646 144.857 39.2662 146.255 39.2662 147.972V163.466C39.2662 165.183 40.6646 166.581 42.3816 166.581H63.4278C65.1448 166.581 66.5432 165.183 66.5432 163.466V147.972C66.5432 146.255 65.1448 144.857 63.4278 144.857H42.3816Z"
        fill="#DDDDE3" />
    <path opacity="0.25"
        d="M223.412 114.407V119.055H168.018V179.235H163.371V119.055H115.594V114.407H163.371V58.875H168.018V114.407H223.412Z"
        fill="#DDDDE3" />
    <path opacity="0.5" d="M115.594 114.41H29.3408V119.058H115.594V114.41Z" fill="#DDDDE3" />
    <path d="M116.353 119.813H28.582V113.648H116.353V119.813ZM30.0992 118.296H114.835V115.166H30.0992V118.296Z"
        fill="#DDDDE3" />
    <path d="M141.677 150.426H123.729V153.655H141.677V150.426Z" fill="#DDDDE3" />
    <path d="M141.677 156.879H123.729V160.108H141.677V156.879Z" fill="#DDDDE3" />
    <path d="M141.677 163.336H123.729V166.565H141.677V163.336Z" fill="#DDDDE3" />
    <g opacity="0.25">
        <path
            d="M67.301 147.972V163.465C67.301 165.607 65.5663 167.339 63.427 167.339H42.3808C40.2415 167.339 38.5068 165.607 38.5068 163.465V147.972C38.5068 145.832 40.2415 144.098 42.3808 144.098H63.427C65.5663 144.098 67.301 145.832 67.301 147.972Z"
            fill="#DDDDE3" />
        <path
            d="M63.1688 138.16C63.1688 139.158 62.3596 139.968 61.3608 139.968H41.8647C41.364 139.968 40.9139 139.765 40.5851 139.439C40.2589 139.11 40.0566 138.658 40.0566 138.16C40.0566 137.161 40.8658 136.352 41.8647 136.352H61.3608C61.8615 136.352 62.3116 136.554 62.6403 136.88C62.9665 137.209 63.1688 137.661 63.1688 138.16Z"
            fill="#DDDDE3" />
    </g>
    <path
        d="M209.108 58.875V95.6294C209.108 97.1922 207.244 97.9988 206.106 96.9292L195.627 87.0749C194.942 86.4301 193.872 86.4301 193.187 87.0749L182.708 96.9292C181.568 97.9988 179.704 97.1922 179.704 95.6294V58.875H209.108Z"
        fill="#0B74E5" />
    <path
        d="M207.315 98.1752C206.685 98.1752 206.073 97.9375 205.588 97.4798L195.109 87.6256C194.717 87.2564 194.103 87.2564 193.708 87.6256L183.229 97.4798C182.476 98.1854 181.421 98.3699 180.478 97.9603C179.535 97.5506 178.948 96.658 178.948 95.6263V58.1133H209.869V95.6263C209.869 96.658 209.282 97.5506 208.337 97.9603C208.005 98.1044 207.659 98.1752 207.318 98.1752H207.315ZM180.463 59.6305V95.6263C180.463 96.0486 180.693 96.4001 181.08 96.567C181.467 96.7339 181.882 96.6606 182.19 96.3723L192.669 86.518C193.645 85.6001 195.172 85.6001 196.148 86.518L206.627 96.3723C206.933 96.6606 207.348 96.7339 207.732 96.567C208.119 96.4001 208.349 96.0486 208.349 95.6263V59.6305H180.463Z"
        fill="white" />
    <path opacity="0.25"
        d="M79.9574 70.3407C79.9574 87.599 65.9662 101.588 48.7079 101.588C41.3924 101.588 34.6636 99.0742 29.3407 94.8639C22.1036 89.1415 17.4609 80.2835 17.4609 70.3407C17.4609 53.0824 31.4496 39.0938 48.7079 39.0938C61.9203 39.0938 73.2159 47.2918 77.7878 58.8782C79.1887 62.4259 79.9574 66.2923 79.9574 70.3407Z"
        fill="white" />
    <path
        d="M48.7077 102.343C41.4276 102.343 34.5673 99.9611 28.8702 95.455C21.1375 89.3407 16.7021 80.1843 16.7021 70.3376C16.7021 52.6899 31.06 38.332 48.7077 38.332C55.2595 38.332 61.556 40.2968 66.9193 44.014C72.1587 47.6452 76.1616 52.6874 78.4931 58.5969C79.9673 62.3318 80.7158 66.2816 80.7158 70.3376C80.7158 87.9853 66.3579 102.343 48.7077 102.343ZM48.7077 39.8492C31.897 39.8492 18.2194 53.5269 18.2194 70.3376C18.2194 79.719 22.4448 88.4405 29.8108 94.2665C35.2374 98.5577 41.7715 100.826 48.7077 100.826C65.5209 100.826 79.1986 87.1483 79.1986 70.3376C79.1986 66.4738 78.4855 62.7111 77.0821 59.1532C72.4546 47.4252 61.3183 39.8492 48.7077 39.8492Z"
        fill="#DDDDE3" />
    <path
        d="M48.7359 86.9808C48.6525 86.9808 48.569 86.9681 48.483 86.9428L48.3718 86.8998C47.9621 86.7051 45.7874 85.6481 43.0843 83.8528C42.7353 83.6201 42.6392 83.1498 42.8719 82.8008C43.1045 82.4519 43.5748 82.3583 43.9238 82.5884C46.3185 84.179 48.2731 85.1652 48.8851 85.4635C49.0065 85.4812 49.1228 85.5293 49.2214 85.6026C49.2214 85.3295 49.3681 85.0665 49.6235 84.93C50.8221 84.2928 52.6781 83.2307 54.7112 81.7868C55.0526 81.5441 55.5254 81.625 55.7682 81.9664C56.0109 82.3077 55.93 82.7806 55.5886 83.0234C53.4898 84.5128 51.5731 85.6102 50.334 86.2702C50.0685 86.4118 49.755 86.3789 49.5274 86.212C49.5274 86.5408 49.315 86.8442 48.9837 86.9428C48.8977 86.9681 48.8143 86.9808 48.7308 86.9808H48.7359ZM38.6995 80.2823C38.5175 80.2823 38.3379 80.219 38.1913 80.0876C36.5274 78.5855 35.124 77.0329 34.019 75.4676C33.7762 75.1263 33.8596 74.6509 34.201 74.4107C34.5424 74.1679 35.0178 74.2513 35.258 74.5927C36.2973 76.0669 37.6274 77.5361 39.2078 78.9623C39.5188 79.243 39.5441 79.7234 39.2634 80.0345C39.1142 80.2013 38.9069 80.2848 38.6995 80.2848V80.2823ZM59.8267 79.2936C59.6295 79.2936 59.4348 79.2177 59.2856 79.066C58.9922 78.7676 58.9948 78.2871 59.2957 77.9938C60.8154 76.4993 62.0545 74.9619 62.9825 73.4295C63.2 73.0705 63.6652 72.9541 64.0243 73.1716C64.3834 73.3891 64.4997 73.8543 64.2822 74.2134C63.291 75.8571 61.971 77.4931 60.3603 79.0761C60.2136 79.2202 60.0214 79.2936 59.8292 79.2936H59.8267ZM32.0365 70.3445C31.6976 70.3445 31.3891 70.1169 31.3006 69.773C31.0225 68.6781 30.8809 67.5655 30.8809 66.4655C30.8809 66.2329 30.8884 65.9952 30.8985 65.76C30.9415 64.9357 31.0452 64.1467 31.2045 63.4134C31.293 63.0038 31.6951 62.7433 32.1073 62.8318C32.5169 62.9203 32.7774 63.3249 32.6889 63.7346C32.5473 64.3895 32.4562 65.0975 32.4158 65.8409C32.4056 66.0483 32.3981 66.2582 32.3981 66.4655C32.3981 67.4391 32.5245 68.4253 32.7698 69.4013C32.8735 69.8084 32.6282 70.2206 32.2211 70.3243C32.1578 70.3395 32.0946 70.3471 32.0339 70.3471L32.0365 70.3445ZM65.7185 68.9335C65.6831 68.9335 65.6477 68.9335 65.6123 68.9259C65.1976 68.8678 64.9068 68.4859 64.965 68.0712C65.0383 67.5377 65.0763 66.9966 65.0763 66.4655C65.0763 66.2607 65.0712 66.0508 65.0586 65.8435C64.9928 64.5892 64.7779 63.4488 64.4213 62.45C64.2797 62.0555 64.4871 61.6206 64.8815 61.4815C65.276 61.3399 65.711 61.5472 65.85 61.9417C66.2572 63.0771 66.4999 64.3642 66.5758 65.7651C66.5884 66.0003 66.5935 66.2354 66.5935 66.4681C66.5935 67.0699 66.5505 67.6793 66.467 68.2811C66.4139 68.6604 66.0903 68.9361 65.716 68.9361L65.7185 68.9335ZM48.7334 62.3261C48.4046 62.3261 48.1113 62.1415 47.9672 61.8406C47.5297 60.9252 46.7989 60.0755 45.8557 59.3802C45.5194 59.1323 45.4461 58.657 45.6939 58.3206C45.9417 57.9843 46.4171 57.911 46.7534 58.1588C47.5424 58.7404 48.2125 59.4206 48.7308 60.159C48.9685 59.8201 49.2391 59.4939 49.5375 59.1829C49.8283 58.882 50.3087 58.8744 50.6096 59.1652C50.9106 59.456 50.9182 59.9365 50.6274 60.2374C50.1494 60.733 49.7676 61.2716 49.497 61.838C49.3478 62.1415 49.0545 62.3261 48.7283 62.3261H48.7334ZM34.9571 59.2133C34.732 59.2133 34.507 59.1121 34.3578 58.9225C34.0999 58.5912 34.158 58.1158 34.4893 57.8579C36.0293 56.6542 37.9839 56.0195 40.1358 56.0195C40.323 56.0195 40.5076 56.0246 40.6947 56.0347C41.1119 56.0549 41.4356 56.4115 41.4128 56.8312C41.3901 57.251 41.0285 57.5696 40.6163 57.5494C40.4545 57.5418 40.2951 57.5367 40.1333 57.5367C38.3228 57.5367 36.6918 58.0627 35.4198 59.054C35.2808 59.1627 35.1164 59.2158 34.9546 59.2158L34.9571 59.2133ZM61.3085 58.4445C61.1922 58.4445 61.0759 58.4167 60.9646 58.3611C59.4246 57.5747 57.4599 57.342 55.5355 57.7062C55.1234 57.7845 54.7264 57.514 54.648 57.1018C54.5696 56.6896 54.8401 56.2926 55.2523 56.2142C57.5054 55.7869 59.8141 56.0701 61.6524 57.0057C62.0267 57.1954 62.1733 57.6531 61.9837 58.0273C61.8497 58.2903 61.5841 58.442 61.3085 58.442V58.4445Z"
        fill="#FF3F1A" />
    <path
        d="M108.789 163.418C108.369 163.418 108.03 163.079 108.03 162.659V125.083C108.03 124.663 108.369 124.324 108.789 124.324C109.209 124.324 109.547 124.663 109.547 125.083V162.659C109.547 163.079 109.209 163.418 108.789 163.418Z"
        fill="#DDDDE3" />
    <path
        d="M101.815 163.418C101.395 163.418 101.057 163.079 101.057 162.659V125.083C101.057 124.663 101.395 124.324 101.815 124.324C102.235 124.324 102.574 124.663 102.574 125.083V162.659C102.574 163.079 102.235 163.418 101.815 163.418Z"
        fill="#DDDDE3" />
    <path
        d="M206.02 127.392H176.968C176.548 127.392 176.209 127.053 176.209 126.634C176.209 126.214 176.548 125.875 176.968 125.875H206.02C206.439 125.875 206.778 126.214 206.778 126.634C206.778 127.053 206.439 127.392 206.02 127.392Z"
        fill="#DDDDE3" />
    <path
        d="M206.02 134.17H176.968C176.548 134.17 176.209 133.831 176.209 133.411C176.209 132.991 176.548 132.652 176.968 132.652H206.02C206.439 132.652 206.778 132.991 206.778 133.411C206.778 133.831 206.439 134.17 206.02 134.17Z"
        fill="#DDDDE3" />
    <path
        d="M139.971 65.7985H123.726C123.307 65.7985 122.968 65.4596 122.968 65.0399C122.968 64.6201 123.307 64.2812 123.726 64.2812H139.971C140.39 64.2812 140.729 64.6201 140.729 65.0399C140.729 65.4596 140.39 65.7985 139.971 65.7985Z"
        fill="#DDDDE3" />
    <g opacity="0.5">
        <path
            d="M133.578 197.077C136.235 197.077 138.39 194.923 138.39 192.265C138.39 189.608 136.235 187.453 133.578 187.453C130.92 187.453 128.766 189.608 128.766 192.265C128.766 194.923 130.92 197.077 133.578 197.077Z"
            fill="#DDDDE3" />
        <path
            d="M186.642 49.5569C188.91 49.5569 190.748 47.7186 190.748 45.4503C190.748 43.1821 188.91 41.3438 186.642 41.3438C184.374 41.3438 182.535 43.1821 182.535 45.4503C182.535 47.7186 184.374 49.5569 186.642 49.5569Z"
            fill="#DDDDE3" />
        <path
            d="M86.4709 49.1801C90.0682 49.1801 92.9848 46.2635 92.9848 42.6662C92.9848 39.0689 90.0682 36.1523 86.4709 36.1523C82.8736 36.1523 79.957 39.0689 79.957 42.6662C79.957 46.2635 82.8736 49.1801 86.4709 49.1801Z"
            fill="#DDDDE3" />
        <path
            d="M186.003 194.343L190.304 190.041C190.896 189.45 190.896 188.489 190.304 187.897C189.712 187.305 188.751 187.305 188.157 187.897L183.856 192.198L179.555 187.897C178.963 187.305 178.002 187.305 177.408 187.897C176.816 188.489 176.816 189.45 177.408 190.041L181.709 194.343L177.408 198.644C176.816 199.236 176.816 200.196 177.408 200.788C177.704 201.084 178.093 201.233 178.48 201.233C178.867 201.233 179.256 201.084 179.552 200.788L183.853 196.487L188.155 200.788C188.45 201.084 188.84 201.233 189.227 201.233C189.614 201.233 190.003 201.084 190.299 200.788C190.891 200.196 190.891 199.236 190.299 198.644L185.998 194.343H186.003Z"
            fill="#DDDDE3" />
        <path
            d="M135.722 42.6667L140.024 38.3654C140.615 37.7737 140.615 36.8128 140.024 36.2211C139.432 35.6294 138.471 35.6294 137.877 36.2211L133.576 40.5224L129.274 36.2211C128.683 35.6294 127.722 35.6294 127.127 36.2211C126.536 36.8128 126.536 37.7737 127.127 38.3654L131.429 42.6667L127.127 46.968C126.536 47.5598 126.536 48.5206 127.127 49.1124C127.423 49.4082 127.813 49.5574 128.2 49.5574C128.586 49.5574 128.976 49.4082 129.272 49.1124L133.573 44.8111L137.874 49.1124C138.17 49.4082 138.56 49.5574 138.946 49.5574C139.333 49.5574 139.723 49.4082 140.019 49.1124C140.61 48.5206 140.61 47.5598 140.019 46.968L135.717 42.6667H135.722Z"
            fill="#DDDDE3" />
    </g>
</svg>