<svg width="240" height="236" viewBox="0 0 240 236" fill="none" xmlns="http://www.w3.org/2000/svg">
<path opacity="0.25" d="M239.916 117.909C239.916 107.193 232.768 98.1478 222.977 95.2803V140.541C226.818 139.416 230.254 137.34 233.01 134.586C237.276 130.318 239.916 124.423 239.916 117.909Z" fill="#DDDDE3"/>
<path opacity="0.25" d="M183.42 191.454L186.219 188.655H181.24C181.028 188.655 180.818 188.648 180.605 188.643L183.417 191.454H183.42Z" fill="#DDDDE3"/>
<path opacity="0.25" d="M23.5825 47.165H26.5208C32.1472 41.7107 39.8142 38.35 48.2701 38.35C56.726 38.35 64.8658 41.918 70.5326 47.6733C76.8442 49.0059 82.2252 52.8596 85.5682 58.1345H179.132C180.065 56.6628 181.158 55.2998 182.384 54.0709C186.652 49.8025 192.547 47.1625 199.061 47.1625H216.329C222.84 47.1625 228.737 44.5226 233.006 40.2567C237.272 35.9882 239.912 30.0939 239.912 23.5825C239.912 10.5573 229.354 0 216.329 0H23.5825C17.0712 0 11.1768 2.63995 6.90837 6.90584C2.63995 11.1743 0 17.0686 0 23.5825C0 36.6052 10.5598 47.1625 23.5825 47.1625V47.165ZM186.205 40.598C188.473 40.598 190.311 42.4389 190.311 44.7072C190.311 46.9754 188.473 48.8137 186.205 48.8137C183.937 48.8137 182.098 46.9754 182.098 44.7072C182.098 42.4389 183.937 40.598 186.205 40.598ZM126.692 37.6192C126.1 37.0275 126.1 36.0666 126.692 35.4749C127.284 34.8807 128.245 34.8807 128.839 35.4749L133.14 39.7762L137.442 35.4749C138.033 34.8807 138.994 34.8807 139.588 35.4749C140.18 36.0666 140.18 37.0275 139.588 37.6192L135.285 41.9231L139.588 46.2244C140.18 46.8161 140.18 47.777 139.588 48.3687C139.293 48.6645 138.903 48.8137 138.514 48.8137C138.124 48.8137 137.737 48.6645 137.442 48.3687L133.14 44.0674L128.839 48.3687C128.543 48.6645 128.154 48.8137 127.764 48.8137C127.375 48.8137 126.988 48.6645 126.692 48.3687C126.1 47.777 126.1 46.8161 126.692 46.2244L130.996 41.9231L126.692 37.6192ZM86.0335 35.4092C89.6318 35.4092 92.5473 38.3247 92.5473 41.9231C92.5473 45.5214 89.6318 48.4344 86.0335 48.4344C82.4351 48.4344 79.5196 45.5189 79.5196 41.9231C79.5196 38.3273 82.4351 35.4092 86.0335 35.4092Z" fill="#DDDDE3"/>
<path opacity="0.25" d="M220.155 188.652H190.243C190.175 188.888 190.053 189.11 189.869 189.295L185.565 193.596L189.869 197.9C190.461 198.492 190.461 199.452 189.869 200.044C189.57 200.34 189.184 200.489 188.794 200.489C188.405 200.489 188.018 200.34 187.722 200.044L183.421 195.743L179.119 200.044C178.821 200.34 178.434 200.489 178.045 200.489C177.655 200.489 177.268 200.34 176.973 200.044C176.381 199.452 176.381 198.492 176.973 197.9L181.274 193.596L176.973 189.295C176.667 188.989 176.522 188.582 176.533 188.18C170.471 186.953 165.26 183.398 161.856 178.492H55.5931C54.7865 179.658 53.8787 180.745 52.8798 181.747C49.4459 185.178 44.9575 187.558 39.9431 188.357C38.7242 188.551 37.4751 188.652 36.2032 188.652H19.9285C14.9142 189.452 10.4283 191.831 6.99431 195.262C2.72589 199.531 0.0859375 205.425 0.0859375 211.937C0.0859375 224.962 10.6457 235.519 23.6685 235.519H216.417C222.929 235.519 228.826 232.879 233.094 228.613C237.36 224.345 240 218.448 240 211.937C240 200.186 231.405 190.443 220.157 188.652H220.155ZM133.14 196.33C130.483 196.33 128.328 194.175 128.328 191.517C128.328 188.86 130.483 186.705 133.14 186.705C135.798 186.705 137.952 188.86 137.952 191.517C137.952 194.175 135.798 196.33 133.14 196.33Z" fill="#DDDDE3"/>
<path opacity="0.25" d="M23.5825 141.49H28.9029V94.3271H23.5825C17.0712 94.3271 11.1768 96.9671 6.90837 101.233C2.63995 105.501 0 111.396 0 117.907C0 130.932 10.5598 141.49 23.5825 141.49Z" fill="#DDDDE3"/>
<path opacity="0.5" d="M104.895 58.1338H162.935V113.666H115.158V68.3977C115.158 62.7284 110.564 58.1338 104.895 58.1338Z" fill="#DDDDE3"/>
<path opacity="0.5" d="M115.158 118.314V168.228C115.158 173.897 110.564 178.495 104.895 178.495H162.935V118.314H115.158ZM141.242 165.823H123.293V162.594H141.242V165.823ZM141.242 159.368H123.293V156.139H141.242V159.368ZM141.242 152.912H123.293V149.683H141.242V152.912Z" fill="#DDDDE3"/>
<path opacity="0.5" d="M222.975 68.3977V113.666H167.582V58.1338H179.267V94.8882C179.267 96.4509 181.131 97.2576 182.271 96.188L192.75 86.3337C193.435 85.6889 194.505 85.6889 195.19 86.3337L205.669 96.188C206.807 97.2576 208.671 96.4509 208.671 94.8882V58.1338H212.711C218.381 58.1338 222.975 62.7284 222.975 68.3977Z" fill="#DDDDE3"/>
<path opacity="0.5" d="M167.582 118.314H222.975V168.228C222.975 173.897 218.381 178.495 212.711 178.495H167.582V118.314Z" fill="#DDDDE3"/>
<path d="M163.694 114.426H114.4V68.3985C114.4 63.1565 110.136 58.8932 104.895 58.8932V57.376H163.694V114.426ZM115.917 112.908H162.177V58.8932H110.47C113.727 60.8099 115.917 64.3551 115.917 68.3985V112.908Z" fill="#DDDDE3"/>
<path d="M163.694 179.253H104.895V177.736C110.136 177.736 114.4 173.47 114.4 168.228V117.556H163.694V179.253ZM110.47 177.736H162.177V119.073H115.917V168.228C115.917 172.274 113.727 175.817 110.47 177.736Z" fill="#DDDDE3"/>
<path d="M142.001 166.582H122.535V161.836H142.001V166.582ZM124.052 165.065H140.484V163.353H124.052V165.065Z" fill="#DDDDE3"/>
<path d="M142.001 160.126H122.535V155.38H142.001V160.126ZM124.052 158.609H140.484V156.897H124.052V158.609Z" fill="#DDDDE3"/>
<path d="M142.001 153.671H122.535V148.925H142.001V153.671ZM124.052 152.154H140.484V150.442H124.052V152.154Z" fill="#DDDDE3"/>
<path d="M223.735 114.426H166.824V57.376H180.026V94.889C180.026 95.3113 180.257 95.6628 180.643 95.8297C181.03 95.9966 181.445 95.9232 181.754 95.635L192.232 85.7807C193.209 84.8628 194.736 84.8628 195.712 85.7807L206.191 95.635C206.497 95.9232 206.911 95.9966 207.296 95.8297C207.683 95.6628 207.913 95.3113 207.913 94.889V57.376H212.712C218.791 57.376 223.735 62.3196 223.735 68.3985V114.426ZM168.341 112.908H222.218V68.3985C222.218 63.1565 217.954 58.8932 212.712 58.8932H209.43V94.889C209.43 95.9207 208.843 96.8133 207.898 97.223C206.954 97.6326 205.9 97.448 205.149 96.7425L194.67 86.8883C194.278 86.5191 193.664 86.5191 193.269 86.8883L182.79 96.7425C182.037 97.448 180.982 97.6326 180.039 97.223C179.096 96.8133 178.509 95.9207 178.509 94.889V58.8932H168.341V112.908Z" fill="#DDDDE3"/>
<path d="M212.712 179.253H166.824V117.556H223.735V168.228C223.735 174.307 218.791 179.253 212.712 179.253ZM168.341 177.736H212.712C217.954 177.736 222.218 173.47 222.218 168.228V119.073H168.341V177.736Z" fill="#DDDDE3"/>
<path opacity="0.75" d="M115.156 68.3977V113.666H28.9023V94.1195C34.2252 98.3298 40.9541 100.843 48.2695 100.843C65.5278 100.843 79.519 86.8546 79.519 69.5963C79.519 65.5479 78.7503 61.6815 77.3494 58.1338H104.892C110.561 58.1338 115.156 62.7284 115.156 68.3977Z" fill="#DDDDE3"/>
<path opacity="0.75" d="M28.9023 118.314V168.228C28.9023 173.897 33.497 178.495 39.1663 178.495H104.892C110.561 178.495 115.156 173.897 115.156 168.228V118.314H28.9023ZM41.4269 135.608H60.9231C61.4238 135.608 61.8739 135.81 62.2026 136.137C62.5288 136.465 62.7311 136.918 62.7311 137.416C62.7311 138.415 61.9219 139.224 60.9231 139.224H41.4269C40.9262 139.224 40.4761 139.022 40.1474 138.696C39.8212 138.367 39.6189 137.914 39.6189 137.416C39.6189 136.417 40.4281 135.608 41.4269 135.608ZM66.863 162.723C66.863 164.865 65.1283 166.597 62.989 166.597H41.9428C39.8035 166.597 38.0688 164.865 38.0688 162.723V147.23C38.0688 145.091 39.8035 143.356 41.9428 143.356H62.989C65.1283 143.356 66.863 145.091 66.863 147.23V162.723Z" fill="#DDDDE3"/>
<path d="M115.915 114.425H28.1445V92.5521L29.3735 93.5231C34.8 97.8143 41.3342 100.083 48.2703 100.083C65.0836 100.083 78.7612 86.4049 78.7612 69.5942C78.7612 65.7303 78.0481 61.9677 76.6447 58.4098L76.2351 57.373H104.893C110.972 57.373 115.915 62.3166 115.915 68.3956V114.423V114.425ZM29.6617 112.908H114.398V68.3981C114.398 63.1562 110.135 58.8928 104.893 58.8928H78.4451C79.6614 62.3192 80.2784 65.9149 80.2784 69.5967C80.2784 87.2444 65.9206 101.602 48.2703 101.602C41.5061 101.602 35.1035 99.5465 29.6617 95.6422V112.908Z" fill="#DDDDE3"/>
<path d="M104.893 179.253H39.1671C33.0881 179.253 28.1445 174.307 28.1445 168.228V117.556H115.915V168.228C115.915 174.307 110.972 179.253 104.893 179.253ZM29.6617 119.073V168.228C29.6617 173.47 33.9251 177.736 39.1671 177.736H104.893C110.135 177.736 114.398 173.47 114.398 168.228V119.073H29.6617Z" fill="#DDDDE3"/>
<path d="M60.9261 139.983H41.4299C40.7472 139.983 40.1023 139.717 39.6168 139.234C39.1313 138.744 38.8633 138.099 38.8633 137.416C38.8633 136 40.0138 134.85 41.4299 134.85H60.9261C61.6088 134.85 62.2536 135.115 62.7391 135.598C63.2272 136.089 63.4927 136.733 63.4927 137.416C63.4927 138.832 62.3421 139.983 60.9261 139.983ZM41.4299 136.367C40.8508 136.367 40.3805 136.837 40.3805 137.416C40.3805 137.697 40.4892 137.962 40.689 138.162C40.8862 138.357 41.1492 138.466 41.4299 138.466H60.9261C61.5051 138.466 61.9755 137.995 61.9755 137.416C61.9755 137.136 61.8667 136.873 61.667 136.67C61.4697 136.476 61.2067 136.367 60.9261 136.367H41.4299Z" fill="#DDDDE3"/>
<path d="M62.9913 167.356H41.9451C39.3911 167.356 37.3125 165.277 37.3125 162.723V147.23C37.3125 144.676 39.3911 142.598 41.9451 142.598H62.9913C65.5453 142.598 67.6238 144.676 67.6238 147.23V162.723C67.6238 165.277 65.5453 167.356 62.9913 167.356ZM41.9451 144.115C40.2281 144.115 38.8297 145.513 38.8297 147.23V162.723C38.8297 164.44 40.2281 165.839 41.9451 165.839H62.9913C64.7083 165.839 66.1066 164.44 66.1066 162.723V147.23C66.1066 145.513 64.7083 144.115 62.9913 144.115H41.9451Z" fill="#DDDDE3"/>
<path opacity="0.25" d="M222.974 113.666V118.314H167.581V178.494H162.933V118.314H115.156V113.666H162.933V58.1338H167.581V113.666H222.974Z" fill="#DDDDE3"/>
<path opacity="0.5" d="M115.156 113.667H28.9023V118.315H115.156V113.667Z" fill="#DDDDE3"/>
<path d="M115.915 119.073H28.1445V112.908H115.915V119.073ZM29.6617 117.556H114.398V114.425H29.6617V117.556Z" fill="#DDDDE3"/>
<path d="M141.242 149.683H123.293V152.912H141.242V149.683Z" fill="#DDDDE3"/>
<path d="M141.242 156.139H123.293V159.368H141.242V156.139Z" fill="#DDDDE3"/>
<path d="M141.242 162.595H123.293V165.824H141.242V162.595Z" fill="#DDDDE3"/>
<g opacity="0.25">
<path d="M66.8644 147.23V162.724C66.8644 164.865 65.1298 166.598 62.9905 166.598H41.9443C39.805 166.598 38.0703 164.865 38.0703 162.724V147.23C38.0703 145.091 39.805 143.356 41.9443 143.356H62.9905C65.1298 143.356 66.8644 145.091 66.8644 147.23Z" fill="#DDDDE3"/>
<path d="M62.7333 137.416C62.7333 138.415 61.9241 139.224 60.9253 139.224H41.4291C40.9284 139.224 40.4783 139.022 40.1496 138.696C39.8234 138.367 39.6211 137.915 39.6211 137.416C39.6211 136.418 40.4303 135.608 41.4291 135.608H60.9253C61.4259 135.608 61.8761 135.811 62.2048 136.137C62.531 136.466 62.7333 136.918 62.7333 137.416Z" fill="#DDDDE3"/>
</g>
<path d="M208.669 58.1338V94.8882C208.669 96.4509 206.806 97.2576 205.668 96.188L195.189 86.3337C194.503 85.6889 193.434 85.6889 192.749 86.3337L182.27 96.188C181.129 97.2576 179.266 96.4509 179.266 94.8882V58.1338H208.669Z" fill="#0B74E5"/>
<path d="M206.878 97.435C206.249 97.435 205.637 97.1973 205.151 96.7396L194.673 86.8853C194.281 86.5161 193.666 86.5161 193.272 86.8853L182.793 96.7396C182.039 97.4451 180.985 97.6297 180.042 97.2201C179.098 96.8104 178.512 95.9178 178.512 94.8861V57.373H209.432V94.8861C209.432 95.9178 208.846 96.8104 207.9 97.2201C207.569 97.3642 207.222 97.435 206.881 97.435H206.878ZM180.026 58.8903V94.8861C180.026 95.3084 180.256 95.6599 180.643 95.8268C181.03 95.9937 181.445 95.9203 181.753 95.632L192.232 85.7778C193.208 84.8598 194.736 84.8598 195.712 85.7778L206.191 95.632C206.497 95.9203 206.911 95.9937 207.296 95.8268C207.683 95.6599 207.913 95.3084 207.913 94.8861V58.8903H180.026Z" fill="white"/>
<path opacity="0.25" d="M79.5199 69.5975C79.5199 86.8558 65.5287 100.845 48.2704 100.845C40.9549 100.845 34.2261 98.331 28.9032 94.1207C21.6661 88.3983 17.0234 79.5403 17.0234 69.5975C17.0234 52.3393 31.0121 38.3506 48.2704 38.3506C61.4828 38.3506 72.7784 46.5486 77.3503 58.135C78.7512 61.6828 79.5199 65.5491 79.5199 69.5975Z" fill="white"/>
<path d="M48.2712 101.603C40.9911 101.603 34.1308 99.2209 28.4337 94.7148C20.7009 88.6004 16.2656 79.4441 16.2656 69.5974C16.2656 51.9497 30.6235 37.5918 48.2712 37.5918C54.823 37.5918 61.1194 39.5566 66.4828 43.2738C71.7222 46.9049 75.7251 51.9471 78.0566 57.8567C79.5308 61.5915 80.2793 65.5414 80.2793 69.5974C80.2793 87.2451 65.9214 101.603 48.2712 101.603ZM48.2712 39.109C31.4605 39.109 17.7828 52.7867 17.7828 69.5974C17.7828 78.9788 22.0083 87.7002 29.3743 93.5263C34.8009 97.8175 41.335 100.086 48.2712 100.086C65.0844 100.086 78.7621 86.4081 78.7621 69.5974C78.7621 65.7335 78.049 61.9708 76.6456 58.413C72.0181 46.6849 60.8817 39.109 48.2712 39.109Z" fill="#DDDDE3"/>
<path d="M48.3004 86.2405C48.2169 86.2405 48.1335 86.2279 48.0475 86.2026L47.9362 86.1596C47.5266 85.9649 45.3519 84.9079 42.6487 83.1125C42.2998 82.8799 42.2037 82.4096 42.4363 82.0606C42.669 81.7116 43.1393 81.6181 43.4883 81.8482C45.8829 83.4387 47.8376 84.4249 48.4495 84.7233C48.5709 84.741 48.6872 84.789 48.7859 84.8624C48.7859 84.5893 48.9325 84.3263 49.1879 84.1897C50.3865 83.5525 52.2426 82.4905 54.2756 81.0466C54.617 80.8038 55.0899 80.8848 55.3326 81.2261C55.5754 81.5675 55.4945 82.0404 55.1531 82.2831C53.0543 83.7725 51.1375 84.87 49.8985 85.53C49.633 85.6716 49.3194 85.6387 49.0918 85.4718C49.0918 85.8005 48.8794 86.104 48.5482 86.2026C48.4622 86.2279 48.3787 86.2405 48.2953 86.2405H48.3004ZM38.264 79.542C38.0819 79.542 37.9024 79.4788 37.7557 79.3473C36.0919 77.8453 34.6884 76.2927 33.5834 74.7274C33.3407 74.386 33.4241 73.9107 33.7655 73.6704C34.1068 73.4277 34.5822 73.5111 34.8225 73.8525C35.8618 75.3267 37.1918 76.7959 38.7723 78.2221C39.0833 78.5027 39.1086 78.9832 38.8279 79.2942C38.6787 79.4611 38.4714 79.5446 38.264 79.5446V79.542ZM59.3912 78.5533C59.1939 78.5533 58.9992 78.4774 58.85 78.3257C58.5567 78.0273 58.5592 77.5469 58.8601 77.2536C60.3799 75.7591 61.6189 74.2217 62.547 72.6893C62.7644 72.3302 63.2297 72.2139 63.5888 72.4314C63.9478 72.6488 64.0642 73.1141 63.8467 73.4732C62.8555 75.1168 61.5355 76.7529 59.9247 78.3358C59.778 78.48 59.5859 78.5533 59.3937 78.5533H59.3912ZM31.6009 69.6043C31.2621 69.6043 30.9536 69.3767 30.8651 69.0328C30.5869 67.9379 30.4453 66.8253 30.4453 65.7253C30.4453 65.4927 30.4529 65.255 30.463 65.0198C30.506 64.1954 30.6097 63.4065 30.769 62.6732C30.8575 62.2635 31.2595 62.0031 31.6717 62.0916C32.0814 62.1801 32.3418 62.5847 32.2533 62.9943C32.1117 63.6492 32.0207 64.3573 31.9802 65.1007C31.9701 65.3081 31.9625 65.5179 31.9625 65.7253C31.9625 66.6988 32.089 67.685 32.3342 68.6611C32.4379 69.0682 32.1926 69.4804 31.7855 69.5841C31.7223 69.5992 31.6591 69.6068 31.5984 69.6068L31.6009 69.6043ZM65.283 68.1933C65.2476 68.1933 65.2122 68.1933 65.1768 68.1857C64.7621 68.1275 64.4713 67.7457 64.5295 67.331C64.6028 66.7975 64.6407 66.2563 64.6407 65.7253C64.6407 65.5205 64.6357 65.3106 64.623 65.1032C64.5573 63.849 64.3423 62.7086 63.9858 61.7097C63.8442 61.3153 64.0515 60.8803 64.446 60.7413C64.8405 60.5997 65.2754 60.807 65.4145 61.2015C65.8216 62.3369 66.0644 63.624 66.1402 65.0249C66.1529 65.26 66.1579 65.4952 66.1579 65.7278C66.1579 66.3297 66.1149 66.9391 66.0315 67.5409C65.9784 67.9202 65.6547 68.1958 65.2805 68.1958L65.283 68.1933ZM48.2978 61.5858C47.9691 61.5858 47.6758 61.4012 47.5316 61.1003C47.0942 60.1849 46.3634 59.3353 45.4202 58.6399C45.0839 58.3921 45.0105 57.9167 45.2583 57.5804C45.5061 57.2441 45.9815 57.1708 46.3179 57.4186C47.1068 58.0002 47.7769 58.6804 48.2953 59.4188C48.533 59.0799 48.8036 58.7537 49.1019 58.4427C49.3927 58.1418 49.8732 58.1342 50.1741 58.425C50.475 58.7158 50.4826 59.1962 50.1918 59.4971C49.7139 59.9928 49.3321 60.5314 49.0615 61.0978C48.9123 61.4012 48.619 61.5858 48.2928 61.5858H48.2978ZM34.5216 58.473C34.2965 58.473 34.0714 58.3719 33.9223 58.1822C33.6643 57.851 33.7225 57.3756 34.0537 57.1176C35.5937 55.914 37.5484 55.2793 39.7003 55.2793C39.8874 55.2793 40.072 55.2844 40.2591 55.2945C40.6764 55.3147 41 55.6712 40.9773 56.091C40.9545 56.5108 40.5929 56.8294 40.1807 56.8091C40.0189 56.8016 39.8596 56.7965 39.6978 56.7965C37.8872 56.7965 36.2562 57.3225 34.9843 58.3137C34.8452 58.4225 34.6809 58.4756 34.519 58.4756L34.5216 58.473ZM60.873 57.7043C60.7566 57.7043 60.6403 57.6765 60.5291 57.6209C58.9891 56.8344 57.0243 56.6018 55.1 56.9659C54.6878 57.0443 54.2908 56.7737 54.2124 56.3616C54.134 55.9494 54.4046 55.5524 54.8168 55.474C57.0698 55.0467 59.3785 55.3299 61.2169 56.2655C61.5911 56.4551 61.7378 56.9128 61.5481 57.2871C61.4141 57.5501 61.1486 57.7018 60.873 57.7018V57.7043Z" fill="#FF3F1A"/>
<path d="M108.352 162.675C107.933 162.675 107.594 162.337 107.594 161.917V124.341C107.594 123.921 107.933 123.582 108.352 123.582C108.772 123.582 109.111 123.921 109.111 124.341V161.917C109.111 162.337 108.772 162.675 108.352 162.675Z" fill="#DDDDE3"/>
<path d="M101.376 162.675C100.956 162.675 100.617 162.337 100.617 161.917V124.341C100.617 123.921 100.956 123.582 101.376 123.582C101.796 123.582 102.134 123.921 102.134 124.341V161.917C102.134 162.337 101.796 162.675 101.376 162.675Z" fill="#DDDDE3"/>
<path d="M205.584 126.649H176.532C176.112 126.649 175.773 126.31 175.773 125.89C175.773 125.471 176.112 125.132 176.532 125.132H205.584C206.004 125.132 206.343 125.471 206.343 125.89C206.343 126.31 206.004 126.649 205.584 126.649Z" fill="#DDDDE3"/>
<path d="M205.584 133.429H176.532C176.112 133.429 175.773 133.09 175.773 132.671C175.773 132.251 176.112 131.912 176.532 131.912H205.584C206.004 131.912 206.343 132.251 206.343 132.671C206.343 133.09 206.004 133.429 205.584 133.429Z" fill="#DDDDE3"/>
<path d="M139.534 65.0582H123.29C122.87 65.0582 122.531 64.7194 122.531 64.2996C122.531 63.8799 122.87 63.541 123.29 63.541H139.534C139.954 63.541 140.293 63.8799 140.293 64.2996C140.293 64.7194 139.954 65.0582 139.534 65.0582Z" fill="#DDDDE3"/>
<g opacity="0.5">
<path d="M133.14 196.333C135.798 196.333 137.952 194.179 137.952 191.521C137.952 188.863 135.798 186.709 133.14 186.709C130.483 186.709 128.328 188.863 128.328 191.521C128.328 194.179 130.483 196.333 133.14 196.333Z" fill="#DDDDE3"/>
<path d="M186.204 48.8147C188.472 48.8147 190.311 46.9764 190.311 44.7082C190.311 42.4399 188.472 40.6016 186.204 40.6016C183.936 40.6016 182.098 42.4399 182.098 44.7082C182.098 46.9764 183.936 48.8147 186.204 48.8147Z" fill="#DDDDE3"/>
<path d="M86.0334 48.4379C89.6307 48.4379 92.5473 45.5214 92.5473 41.9241C92.5473 38.3267 89.6307 35.4102 86.0334 35.4102C82.4361 35.4102 79.5195 38.3267 79.5195 41.9241C79.5195 45.5214 82.4361 48.4379 86.0334 48.4379Z" fill="#DDDDE3"/>
<path d="M185.566 193.599L189.867 189.298C190.459 188.706 190.459 187.745 189.867 187.154C189.276 186.562 188.315 186.562 187.721 187.154L183.419 191.455L179.118 187.154C178.526 186.562 177.565 186.562 176.971 187.154C176.379 187.745 176.379 188.706 176.971 189.298L181.272 193.599L176.971 197.901C176.379 198.492 176.379 199.453 176.971 200.045C177.267 200.341 177.656 200.49 178.043 200.49C178.43 200.49 178.82 200.341 179.115 200.045L183.417 195.744L187.718 200.045C188.014 200.341 188.403 200.49 188.79 200.49C189.177 200.49 189.567 200.341 189.862 200.045C190.454 199.453 190.454 198.492 189.862 197.901L185.561 193.599H185.566Z" fill="#DDDDE3"/>
<path d="M135.285 41.9236L139.586 37.6223C140.178 37.0306 140.178 36.0697 139.586 35.478C138.994 34.8863 138.034 34.8863 137.439 35.478L133.138 39.7793L128.837 35.478C128.245 34.8863 127.284 34.8863 126.69 35.478C126.098 36.0697 126.098 37.0306 126.69 37.6223L130.991 41.9236L126.69 46.2249C126.098 46.8166 126.098 47.7775 126.69 48.3692C126.986 48.6651 127.375 48.8142 127.762 48.8142C128.149 48.8142 128.538 48.6651 128.834 48.3692L133.135 44.0679L137.437 48.3692C137.733 48.6651 138.122 48.8142 138.509 48.8142C138.896 48.8142 139.285 48.6651 139.581 48.3692C140.173 47.7775 140.173 46.8166 139.581 46.2249L135.28 41.9236H135.285Z" fill="#DDDDE3"/>
</g>
</svg>
