<svg width="488" height="44" viewBox="0 0 488 44" fill="none" xmlns="http://www.w3.org/2000/svg">
<g clip-path="url(#clip0_540_17512)">
<rect width="488" height="44" fill="url(#paint0_linear_540_17512)"/>
<path d="M35.906 18.576C35.8254 18.4038 35.6974 18.2581 35.5369 18.1561C35.3764 18.0541 35.1902 17.9999 35 18H30.618L32.894 13.447C32.9702 13.2946 33.0062 13.1252 32.9985 12.955C32.9908 12.7848 32.9398 12.6194 32.8502 12.4744C32.7607 12.3294 32.6356 12.2098 32.4868 12.1267C32.338 12.0437 32.1704 12.0001 32 12H26C25.8218 12 25.6467 12.0476 25.4931 12.138C25.3394 12.2284 25.2127 12.3582 25.126 12.514L20.126 21.514C20.0414 21.6662 19.998 21.8379 20.0001 22.0121C20.0022 22.1862 20.0497 22.3568 20.138 22.507C20.2263 22.6571 20.3523 22.7816 20.5035 22.868C20.6547 22.9545 20.8259 23 21 23H25.753L24.024 30.783C23.9756 31.0018 24.0021 31.2304 24.0991 31.4324C24.1962 31.6343 24.3583 31.7978 24.5594 31.8966C24.7605 31.9954 24.9889 32.0238 25.2081 31.9773C25.4273 31.9308 25.6244 31.812 25.768 31.64L35.768 19.64C35.8898 19.4941 35.9674 19.3165 35.9918 19.1281C36.0163 18.9396 35.9865 18.7481 35.906 18.576Z" fill="url(#paint1_linear_540_17512)"/>
<path d="M49.232 29V17.08H56.992V18.76H51.12V22.344H56.352V24.024H51.12V29H49.232ZM58.3997 29V16.888H60.2078V29H58.3997ZM64.9136 29.192C64.327 29.192 63.8096 29.0907 63.3616 28.888C62.9243 28.6747 62.583 28.3867 62.3376 28.024C62.0923 27.6507 61.9696 27.2133 61.9696 26.712C61.9696 26.2427 62.071 25.8213 62.2736 25.448C62.487 25.0747 62.8123 24.76 63.2496 24.504C63.687 24.248 64.2363 24.0667 64.8976 23.96L67.9056 23.464V24.888L65.2496 25.352C64.7696 25.4373 64.4176 25.592 64.1936 25.816C63.9696 26.0293 63.8576 26.3067 63.8576 26.648C63.8576 26.9787 63.9803 27.2507 64.2256 27.464C64.4816 27.6667 64.807 27.768 65.2016 27.768C65.6923 27.768 66.119 27.6613 66.4816 27.448C66.855 27.2347 67.143 26.952 67.3456 26.6C67.5483 26.2373 67.6496 25.8373 67.6496 25.4V23.176C67.6496 22.7493 67.4896 22.4027 67.1696 22.136C66.8603 21.8587 66.4443 21.72 65.9216 21.72C65.4416 21.72 65.0203 21.848 64.6576 22.104C64.3056 22.3493 64.0443 22.6693 63.8736 23.064L62.3696 22.312C62.5296 21.8853 62.791 21.512 63.1536 21.192C63.5163 20.8613 63.9376 20.6053 64.4176 20.424C64.9083 20.2427 65.4256 20.152 65.9696 20.152C66.6523 20.152 67.255 20.28 67.7776 20.536C68.311 20.792 68.7216 21.1493 69.0096 21.608C69.3083 22.056 69.4576 22.5787 69.4576 23.176V29H67.7296V27.432L68.0976 27.48C67.895 27.832 67.6336 28.136 67.3136 28.392C67.0043 28.648 66.647 28.8453 66.2416 28.984C65.847 29.1227 65.4043 29.192 64.9136 29.192ZM74.7716 29.192C73.8863 29.192 73.1076 28.9733 72.4356 28.536C71.7743 28.0987 71.3103 27.512 71.0436 26.776L72.4356 26.12C72.6703 26.6107 72.9903 27 73.3956 27.288C73.8116 27.576 74.2703 27.72 74.7716 27.72C75.1983 27.72 75.545 27.624 75.8116 27.432C76.0783 27.24 76.2116 26.9787 76.2116 26.648C76.2116 26.4347 76.153 26.264 76.0356 26.136C75.9183 25.9973 75.769 25.8853 75.5876 25.8C75.417 25.7147 75.241 25.6507 75.0596 25.608L73.6996 25.224C72.953 25.0107 72.393 24.6907 72.0196 24.264C71.657 23.8267 71.4756 23.32 71.4756 22.744C71.4756 22.2213 71.609 21.768 71.8756 21.384C72.1423 20.9893 72.5103 20.6853 72.9796 20.472C73.449 20.2587 73.977 20.152 74.5636 20.152C75.353 20.152 76.057 20.3493 76.6756 20.744C77.2943 21.128 77.7316 21.6667 77.9876 22.36L76.5956 23.016C76.425 22.6 76.153 22.2693 75.7796 22.024C75.417 21.7787 75.0063 21.656 74.5476 21.656C74.153 21.656 73.8383 21.752 73.6036 21.944C73.369 22.1253 73.2516 22.3653 73.2516 22.664C73.2516 22.8667 73.305 23.0373 73.4116 23.176C73.5183 23.304 73.657 23.4107 73.8276 23.496C73.9983 23.5707 74.1743 23.6347 74.3556 23.688L75.7636 24.104C76.4783 24.3067 77.0276 24.6267 77.4116 25.064C77.7956 25.4907 77.9876 26.0027 77.9876 26.6C77.9876 27.112 77.849 27.5653 77.5716 27.96C77.305 28.344 76.9316 28.648 76.4516 28.872C75.9716 29.0853 75.4116 29.192 74.7716 29.192ZM79.7591 29V16.888H81.5671V22.04L81.2791 21.816C81.4925 21.272 81.8338 20.8613 82.3031 20.584C82.7725 20.296 83.3165 20.152 83.9351 20.152C84.5751 20.152 85.1405 20.2907 85.6311 20.568C86.1218 20.8453 86.5058 21.2293 86.7831 21.72C87.0605 22.2107 87.1991 22.7707 87.1991 23.4V29H85.4071V23.896C85.4071 23.4587 85.3218 23.0907 85.1511 22.792C84.9911 22.4827 84.7671 22.248 84.4791 22.088C84.1911 21.9173 83.8605 21.832 83.4871 21.832C83.1245 21.832 82.7938 21.9173 82.4951 22.088C82.2071 22.248 81.9778 22.4827 81.8071 22.792C81.6471 23.1013 81.5671 23.4693 81.5671 23.896V29H79.7591ZM96.283 29.192C95.5363 29.192 94.843 29.0533 94.203 28.776C93.563 28.488 93.019 28.0987 92.571 27.608C92.123 27.1173 91.7923 26.552 91.579 25.912L93.179 25.24C93.467 25.976 93.8883 26.5413 94.443 26.936C94.9977 27.3307 95.6377 27.528 96.363 27.528C96.7897 27.528 97.163 27.464 97.483 27.336C97.803 27.1973 98.0483 27.0053 98.219 26.76C98.4003 26.5147 98.491 26.232 98.491 25.912C98.491 25.4747 98.3683 25.128 98.123 24.872C97.8777 24.616 97.515 24.4133 97.035 24.264L94.795 23.56C93.899 23.2827 93.2163 22.8613 92.747 22.296C92.2777 21.72 92.043 21.048 92.043 20.28C92.043 19.608 92.2083 19.0213 92.539 18.52C92.8697 18.008 93.323 17.608 93.899 17.32C94.4857 17.032 95.1523 16.888 95.899 16.888C96.6137 16.888 97.2643 17.016 97.851 17.272C98.4377 17.5173 98.939 17.8587 99.355 18.296C99.7817 18.7333 100.091 19.24 100.283 19.816L98.715 20.504C98.4803 19.8747 98.1123 19.3893 97.611 19.048C97.1203 18.7067 96.5497 18.536 95.899 18.536C95.5043 18.536 95.1577 18.6053 94.859 18.744C94.5603 18.872 94.3257 19.064 94.155 19.32C93.995 19.5653 93.915 19.8533 93.915 20.184C93.915 20.568 94.0377 20.9093 94.283 21.208C94.5283 21.5067 94.9017 21.7307 95.403 21.88L97.483 22.536C98.4323 22.824 99.147 23.24 99.627 23.784C100.107 24.3173 100.347 24.984 100.347 25.784C100.347 26.4453 100.171 27.032 99.819 27.544C99.4777 28.056 99.003 28.4613 98.395 28.76C97.787 29.048 97.083 29.192 96.283 29.192ZM104.726 29.192C104.139 29.192 103.622 29.0907 103.174 28.888C102.737 28.6747 102.395 28.3867 102.15 28.024C101.905 27.6507 101.782 27.2133 101.782 26.712C101.782 26.2427 101.883 25.8213 102.086 25.448C102.299 25.0747 102.625 24.76 103.062 24.504C103.499 24.248 104.049 24.0667 104.71 23.96L107.718 23.464V24.888L105.062 25.352C104.582 25.4373 104.23 25.592 104.006 25.816C103.782 26.0293 103.67 26.3067 103.67 26.648C103.67 26.9787 103.793 27.2507 104.038 27.464C104.294 27.6667 104.619 27.768 105.014 27.768C105.505 27.768 105.931 27.6613 106.294 27.448C106.667 27.2347 106.955 26.952 107.158 26.6C107.361 26.2373 107.462 25.8373 107.462 25.4V23.176C107.462 22.7493 107.302 22.4027 106.982 22.136C106.673 21.8587 106.257 21.72 105.734 21.72C105.254 21.72 104.833 21.848 104.47 22.104C104.118 22.3493 103.857 22.6693 103.686 23.064L102.182 22.312C102.342 21.8853 102.603 21.512 102.966 21.192C103.329 20.8613 103.75 20.6053 104.23 20.424C104.721 20.2427 105.238 20.152 105.782 20.152C106.465 20.152 107.067 20.28 107.59 20.536C108.123 20.792 108.534 21.1493 108.822 21.608C109.121 22.056 109.27 22.5787 109.27 23.176V29H107.542V27.432L107.91 27.48C107.707 27.832 107.446 28.136 107.126 28.392C106.817 28.648 106.459 28.8453 106.054 28.984C105.659 29.1227 105.217 29.192 104.726 29.192ZM111.384 29V16.888H113.192V29H111.384ZM119.37 29.192C118.506 29.192 117.738 28.9947 117.066 28.6C116.405 28.1947 115.887 27.6507 115.514 26.968C115.141 26.2747 114.954 25.5013 114.954 24.648C114.954 23.7733 115.141 23 115.514 22.328C115.898 21.656 116.41 21.128 117.05 20.744C117.69 20.3493 118.415 20.152 119.226 20.152C119.877 20.152 120.458 20.264 120.97 20.488C121.482 20.712 121.914 21.0213 122.266 21.416C122.618 21.8 122.885 22.2427 123.066 22.744C123.258 23.2453 123.354 23.7787 123.354 24.344C123.354 24.4827 123.349 24.6267 123.338 24.776C123.327 24.9253 123.306 25.064 123.274 25.192H116.378V23.752H122.25L121.386 24.408C121.493 23.8853 121.455 23.4213 121.274 23.016C121.103 22.6 120.837 22.2747 120.474 22.04C120.122 21.7947 119.706 21.672 119.226 21.672C118.746 21.672 118.319 21.7947 117.946 22.04C117.573 22.2747 117.285 22.616 117.082 23.064C116.879 23.5013 116.799 24.0347 116.842 24.664C116.789 25.2507 116.869 25.7627 117.082 26.2C117.306 26.6373 117.615 26.9787 118.01 27.224C118.415 27.4693 118.874 27.592 119.386 27.592C119.909 27.592 120.351 27.4747 120.714 27.24C121.087 27.0053 121.381 26.7013 121.594 26.328L123.066 27.048C122.895 27.4533 122.629 27.8213 122.266 28.152C121.914 28.472 121.487 28.728 120.986 28.92C120.495 29.1013 119.957 29.192 119.37 29.192Z" fill="white"/>
<g opacity="0.08">
<path d="M122.697 12.6398C122.174 12.6033 121.713 11.8376 121.99 11.3876L127.959 1.80482L110.092 0.555429L103.407 11.2909L119.392 12.4087C119.578 12.4216 119.757 12.482 119.913 12.5841C120.069 12.6862 120.196 12.8266 120.283 12.992C120.369 13.1574 120.412 13.3422 120.407 13.5289C120.402 13.7156 120.35 13.898 120.255 14.0586L108.583 32.835L85.9992 -8.25903L68.025 -9.51591L45.2548 27.113L61.1388 28.2237C61.3455 28.2383 61.5449 28.3058 61.7181 28.4196C61.8912 28.5335 62.0324 28.69 62.128 28.8741C62.2236 29.0583 62.2706 29.2639 62.2643 29.4715C62.2581 29.679 62.1988 29.8815 62.0923 30.0596L52.9222 44.7896L70.8943 46.0464L81.7032 28.6893L65.6785 27.5688C65.4734 27.5542 65.2755 27.4866 65.1041 27.3727C64.9327 27.2588 64.7936 27.1024 64.7003 26.9187C64.6071 26.735 64.5628 26.5302 64.5718 26.3242C64.5808 26.1183 64.6428 25.9181 64.7518 25.7432L76.9305 6.2583L99.9274 48.326L117.421 49.5493L139.236 13.7963L122.697 12.6398Z" fill="white"/>
<path d="M192.539 4.0547C190.431 0.660578 186.209 -1.29608 179.995 -1.7644L156.701 -3.39328L148.801 9.24421L171.72 10.8468C173.818 10.9936 175.52 12.7423 175.474 14.8549C175.462 15.3865 175.343 15.9103 175.124 16.3944C174.904 16.8786 174.589 17.3132 174.197 17.6717C173.806 18.0303 173.345 18.3055 172.844 18.4805C172.343 18.6555 171.812 18.7268 171.283 18.6901L144.105 16.7896L136.188 29.521L168.925 31.8102C169.438 31.8458 169.938 31.9822 170.398 32.2117C170.858 32.4412 171.268 32.7593 171.605 33.1478C171.942 33.5363 172.2 33.9875 172.363 34.4758C172.526 34.9641 172.591 35.4798 172.555 35.9935C172.521 36.5093 172.384 37.0131 172.155 37.476C171.925 37.9388 171.606 38.3516 171.217 38.6906C170.827 39.0296 170.375 39.288 169.886 39.4511C169.396 39.6141 168.879 39.6785 168.365 39.6406L131.487 37.0618L123.626 49.6872L132.595 50.3144C142.182 50.9848 148.126 51.3856 163.183 52.3539C174.309 53.0686 182.588 47.1942 185.889 36.2389C186.624 33.7834 187.795 29.8788 185.274 26.4895C188.565 24.6587 190.53 22.2174 192.191 18.0426C194.55 12.1727 194.668 7.46938 192.539 4.0547Z" fill="white"/>
</g>
</g>
<defs>
<linearGradient id="paint0_linear_540_17512" x1="0" y1="22" x2="488" y2="22" gradientUnits="userSpaceOnUse">
<stop stop-color="#FF3F1A"/>
<stop offset="1" stop-color="#F09840"/>
</linearGradient>
<linearGradient id="paint1_linear_540_17512" x1="22.043" y1="15.543" x2="31.957" y2="25.457" gradientUnits="userSpaceOnUse">
<stop stop-color="white"/>
<stop offset="1" stop-color="#E8E8E8"/>
</linearGradient>
<linearGradient id="paint2_linear_540_17512" x1="382" y1="8" x2="382" y2="36" gradientUnits="userSpaceOnUse">
<stop stop-color="#0E1C26"/>
<stop offset="1" stop-color="#294861"/>
</linearGradient>
<linearGradient id="paint3_linear_540_17512" x1="420" y1="8" x2="420" y2="36" gradientUnits="userSpaceOnUse">
<stop stop-color="#0E1C26"/>
<stop offset="1" stop-color="#294861"/>
</linearGradient>
<linearGradient id="paint4_linear_540_17512" x1="458" y1="8" x2="458" y2="36" gradientUnits="userSpaceOnUse">
<stop stop-color="#0E1C26"/>
<stop offset="1" stop-color="#294861"/>
</linearGradient>
<clipPath id="clip0_540_17512">
<rect width="488" height="44" fill="white"/>
</clipPath>
</defs>
</svg>
