<svg width="977" height="68" viewBox="0 0 977 68" fill="none" xmlns="http://www.w3.org/2000/svg">
    <path opacity="0.12"
        d="M318.625 29.7681H318.625C319.521 29.7678 320.398 30.0218 321.154 30.5C321.909 30.9781 322.512 31.6604 322.891 32.4665C323.269 33.2725 323.409 34.1688 323.294 35.0508C323.179 35.9327 322.814 36.7641 322.242 37.4476L322.241 37.4479L268.492 101.65C268.492 101.65 268.492 101.651 268.492 101.651C267.816 102.456 266.888 103.013 265.855 103.231C264.823 103.449 263.747 103.316 262.799 102.853C261.852 102.389 261.09 101.623 260.633 100.678C260.176 99.7325 260.052 98.6621 260.28 97.6382L269.573 55.9978L269.754 55.186H268.922H243.375C242.554 55.186 241.748 54.9727 241.036 54.5673C240.324 54.1619 239.731 53.5787 239.316 52.8757C238.9 52.1726 238.677 51.374 238.667 50.5589C238.657 49.7438 238.861 48.9401 239.259 48.2273L239.26 48.2271L266.134 0.0751646C266.134 0.0750849 266.134 0.0750053 266.134 0.0749257C266.542 -0.654532 267.138 -1.26268 267.862 -1.68625C268.585 -2.10988 269.41 -2.33337 270.25 -2.33333H302.5C303.302 -2.33287 304.091 -2.12825 304.792 -1.73908C305.493 -1.34989 306.082 -0.789134 306.503 -0.110306C306.924 0.568504 307.164 1.34298 307.2 2.13964C307.236 2.9363 307.067 3.72904 306.709 4.44269L294.476 28.8022L293.991 29.7681H295.072H318.625Z"
        fill="url(#paint0_linear_0_1)" stroke="url(#paint1_linear_0_1)" stroke-width="1.33333" />
    <path opacity="0.12"
        d="M956.084 58.826C956.152 58.0109 957.223 57.7589 957.647 58.4582L961.688 65.1195C962.177 65.9261 963.13 66.326 964.049 66.1099L971.633 64.3254C972.429 64.138 972.999 65.0789 972.465 65.6984L967.379 71.5999C966.763 72.3145 966.677 73.3444 967.166 74.151L971.207 80.8123C971.631 81.5116 970.913 82.3452 970.159 82.0288L962.974 79.0147C962.104 78.6497 961.098 78.8864 960.482 79.601L955.396 85.5025C954.862 86.122 953.847 85.6963 953.915 84.8812L954.561 77.117C954.639 76.1768 954.103 75.2932 953.234 74.9282L946.049 71.9142C945.295 71.5978 945.386 70.5012 946.182 70.3138L953.766 68.5293C954.685 68.3132 955.359 67.5304 955.438 66.5903L956.084 58.826Z"
        fill="url(#paint2_linear_0_1)" stroke="url(#paint3_linear_0_1)" stroke-width="1.33333" />
    <path opacity="0.12"
        d="M943.582 40.3979C943.616 40.3457 943.652 40.3248 943.682 40.3147C943.716 40.3029 943.761 40.3005 943.808 40.3135C943.854 40.3265 943.891 40.3515 943.915 40.3794C943.935 40.4033 943.955 40.4395 943.958 40.5021L944.624 40.4729L943.958 40.5021L944.155 44.9927C944.184 45.6585 944.638 46.2298 945.281 46.4078L949.612 47.6082C949.673 47.625 949.703 47.6522 949.722 47.6774C949.744 47.7066 949.76 47.7482 949.762 47.7968C949.764 47.8455 949.752 47.8883 949.733 47.9193C949.716 47.946 949.688 47.9759 949.629 47.9979L945.419 49.5728C944.795 49.8063 944.392 50.4152 944.421 51.081L944.618 55.5716C944.621 55.6342 944.605 55.672 944.587 55.6976C944.566 55.7275 944.531 55.7556 944.485 55.7726C944.44 55.7897 944.395 55.7912 944.36 55.7825C944.329 55.775 944.292 55.7573 944.253 55.7083L941.454 52.191C941.039 51.6695 940.336 51.4745 939.711 51.708L935.502 53.283C935.443 53.3049 935.402 53.301 935.372 53.2917C935.337 53.2809 935.3 53.2567 935.269 53.2186C935.239 53.1805 935.224 53.1386 935.221 53.1022C935.219 53.0708 935.224 53.0301 935.259 52.9778L937.739 49.2291C938.107 48.6733 938.075 47.9439 937.66 47.4224L934.861 43.9051C934.822 43.8561 934.813 43.8159 934.813 43.7845C934.812 43.748 934.823 43.7049 934.85 43.6643C934.877 43.6237 934.912 43.5963 934.946 43.5825C934.975 43.5706 935.016 43.5631 935.076 43.5799L939.408 44.7803C940.05 44.9583 940.734 44.7024 941.102 44.1466L943.582 40.3979Z"
        fill="url(#paint4_linear_0_1)" stroke="url(#paint5_linear_0_1)" stroke-width="1.33333" />
    <path opacity="0.12"
        d="M958.82 35.4453L958.781 32.3194L960.65 34.8249C960.986 35.2748 961.573 35.4573 962.105 35.2771L965.065 34.2733L963.26 36.8256C962.936 37.2838 962.944 37.8986 963.279 38.3484L965.149 40.854L962.164 39.9258C961.628 39.7592 961.045 39.9566 960.721 40.4148L958.916 42.9671L958.876 39.8412C958.869 39.28 958.502 38.7872 957.966 38.6206L954.98 37.6924L957.941 36.6887C958.473 36.5085 958.828 36.0065 958.82 35.4453Z"
        fill="url(#paint6_linear_0_1)" stroke="url(#paint7_linear_0_1)" stroke-width="1.33333" />
    <path opacity="0.12"
        d="M32.1348 18.8234C32.0669 19.6385 30.9957 19.8905 30.5715 19.1912L26.5308 12.5299C26.0415 11.7233 25.0885 11.3235 24.1702 11.5395L16.5862 13.3241C15.79 13.5114 15.2193 12.5705 15.7533 11.951L20.84 6.04955C21.4559 5.33496 21.5416 4.30504 21.0523 3.49844L17.0116 -3.16293C16.5874 -3.8622 17.3059 -4.69574 18.0601 -4.37934L25.2446 -1.36528C26.1145 -1.00032 27.1205 -1.23703 27.7364 -1.95162L32.8231 -7.85309C33.3571 -8.47259 34.3718 -8.04688 34.304 -7.23183L33.6576 0.532434C33.5793 1.47258 34.1153 2.3562 34.9852 2.72116L42.1697 5.73522C42.9239 6.05162 42.8326 7.14826 42.0365 7.33559L34.4525 9.12011C33.5342 9.33619 32.8594 10.119 32.7812 11.0592L32.1348 18.8234Z"
        fill="url(#paint8_linear_0_1)" stroke="url(#paint9_linear_0_1)" stroke-width="1.33333" />
    <path opacity="0.12"
        d="M12.5818 22.9604C12.6164 22.9082 12.6518 22.8873 12.6815 22.8772C12.7161 22.8654 12.7606 22.863 12.8075 22.876C12.8545 22.889 12.8914 22.914 12.915 22.9419C12.9352 22.9658 12.9549 23.002 12.9576 23.0646L13.6236 23.0354L12.9576 23.0646L13.1545 27.5552C13.1837 28.221 13.6383 28.7923 14.2806 28.9703L18.6122 30.1707C18.6726 30.1875 18.7034 30.2147 18.7222 30.2399C18.7441 30.2691 18.7602 30.3107 18.7623 30.3593C18.7644 30.408 18.7521 30.4508 18.7328 30.4818C18.7163 30.5085 18.688 30.5384 18.6293 30.5604L14.4193 32.1353C13.7951 32.3688 13.3923 32.9777 13.4214 33.6435L13.6183 38.1341C13.6211 38.1967 13.6047 38.2345 13.5866 38.2601C13.5655 38.29 13.5309 38.3181 13.4853 38.3351C13.4397 38.3522 13.3952 38.3537 13.3597 38.345C13.3292 38.3375 13.2921 38.3198 13.2531 38.2708L10.4543 34.7535C10.0393 34.232 9.33569 34.037 8.71148 34.2705L4.5015 35.8455C4.4428 35.8674 4.40185 35.8635 4.37186 35.8542C4.33697 35.8434 4.29954 35.8192 4.26922 35.7811C4.23891 35.743 4.22374 35.7011 4.22104 35.6647C4.21872 35.6333 4.22408 35.5926 4.25866 35.5403L6.73889 31.7916C7.10663 31.2358 7.07465 30.5064 6.65967 29.9849L3.86088 26.4676C3.82185 26.4186 3.81295 26.3784 3.81252 26.347C3.81201 26.3105 3.82346 26.2674 3.85032 26.2268C3.87718 26.1862 3.91235 26.1588 3.94617 26.145C3.97523 26.1331 4.01568 26.1256 4.07608 26.1424L8.40774 27.3428C9.04999 27.5208 9.73381 27.2649 10.1016 26.7091L12.5818 22.9604Z"
        fill="url(#paint10_linear_0_1)" stroke="url(#paint11_linear_0_1)" stroke-width="1.33333" />
    <path opacity="0.12"
        d="M27.8205 38.6035L27.7807 35.4776L29.6502 37.9831C29.9859 38.433 30.573 38.6155 31.1045 38.4353L34.0651 37.4315L32.2599 39.9838C31.9358 40.442 31.9437 41.0568 32.2793 41.5066L34.1488 44.0122L31.1636 43.084C30.6277 42.9174 30.0454 43.1148 29.7213 43.573L27.9161 46.1253L27.8764 42.9994C27.8692 42.4382 27.5015 41.9454 26.9656 41.7788L23.9804 40.8506L26.941 39.8469C27.4726 39.6667 27.8276 39.1647 27.8205 38.6035Z"
        fill="url(#paint12_linear_0_1)" stroke="url(#paint13_linear_0_1)" stroke-width="1.33333" />
    <defs>
        <linearGradient id="paint0_linear_0_1" x1="248.981" y1="15.9559" x2="302.023" y2="69.2427"
            gradientUnits="userSpaceOnUse">
            <stop stop-color="white" />
            <stop offset="1" stop-color="#E8E8E8" />
        </linearGradient>
        <linearGradient id="paint1_linear_0_1" x1="321.616" y1="12.5028" x2="242.077" y2="21.359"
            gradientUnits="userSpaceOnUse">
            <stop stop-color="white" />
            <stop offset="1" stop-color="white" stop-opacity="0.64" />
        </linearGradient>
        <linearGradient id="paint2_linear_0_1" x1="947.464" y1="63.9744" x2="963.719" y2="79.0974"
            gradientUnits="userSpaceOnUse">
            <stop stop-color="white" />
            <stop offset="1" stop-color="#E8E8E8" />
        </linearGradient>
        <linearGradient id="paint3_linear_0_1" x1="971.592" y1="59.193" x2="945.811" y2="67.148"
            gradientUnits="userSpaceOnUse">
            <stop stop-color="white" />
            <stop offset="1" stop-color="white" stop-opacity="0.64" />
        </linearGradient>
        <linearGradient id="paint4_linear_0_1" x1="937.558" y1="40.4563" x2="941.587" y2="52.6149"
            gradientUnits="userSpaceOnUse">
            <stop stop-color="white" />
            <stop offset="1" stop-color="#E8E8E8" />
        </linearGradient>
        <linearGradient id="paint5_linear_0_1" x1="951.09" y1="44.7288" x2="935.841" y2="41.6035"
            gradientUnits="userSpaceOnUse">
            <stop stop-color="white" />
            <stop offset="1" stop-color="white" stop-opacity="0.64" />
        </linearGradient>
        <linearGradient id="paint6_linear_0_1" x1="955.024" y1="34.6839" x2="962.36" y2="40.3021"
            gradientUnits="userSpaceOnUse">
            <stop stop-color="white" />
            <stop offset="1" stop-color="#E8E8E8" />
        </linearGradient>
        <linearGradient id="paint7_linear_0_1" x1="964.829" y1="31.7427" x2="954.465" y2="36.0645"
            gradientUnits="userSpaceOnUse">
            <stop stop-color="white" />
            <stop offset="1" stop-color="white" stop-opacity="0.64" />
        </linearGradient>
        <linearGradient id="paint8_linear_0_1" x1="40.7552" y1="13.675" x2="24.5001" y2="-1.44794"
            gradientUnits="userSpaceOnUse">
            <stop stop-color="white" />
            <stop offset="1" stop-color="#E8E8E8" />
        </linearGradient>
        <linearGradient id="paint9_linear_0_1" x1="16.6265" y1="18.4564" x2="42.4078" y2="10.5014"
            gradientUnits="userSpaceOnUse">
            <stop stop-color="white" />
            <stop offset="1" stop-color="white" stop-opacity="0.64" />
        </linearGradient>
        <linearGradient id="paint10_linear_0_1" x1="6.55766" y1="23.0188" x2="10.5872" y2="35.1774"
            gradientUnits="userSpaceOnUse">
            <stop stop-color="white" />
            <stop offset="1" stop-color="#E8E8E8" />
        </linearGradient>
        <linearGradient id="paint11_linear_0_1" x1="20.0905" y1="27.2913" x2="4.84149" y2="24.166"
            gradientUnits="userSpaceOnUse">
            <stop stop-color="white" />
            <stop offset="1" stop-color="white" stop-opacity="0.64" />
        </linearGradient>
        <linearGradient id="paint12_linear_0_1" x1="24.0237" y1="37.8421" x2="31.3598" y2="43.4603"
            gradientUnits="userSpaceOnUse">
            <stop stop-color="white" />
            <stop offset="1" stop-color="#E8E8E8" />
        </linearGradient>
        <linearGradient id="paint13_linear_0_1" x1="33.8295" y1="34.9009" x2="23.4654" y2="39.2227"
            gradientUnits="userSpaceOnUse">
            <stop stop-color="white" />
            <stop offset="1" stop-color="white" stop-opacity="0.64" />
        </linearGradient>
    </defs>
</svg>