<svg width="488" height="44" viewBox="0 0 488 44" fill="none" xmlns="http://www.w3.org/2000/svg">
<g clip-path="url(#clip0_753_61131)">
<rect width="488" height="44" fill="url(#paint0_linear_753_61131)"/>
<g opacity="0.4">
<path d="M86.4637 10.8278C85.8696 10.8278 85.2875 9.99806 85.5643 9.4672L91.5595 -1.84583H71.2479L64.5346 10.8278H82.7063C82.9176 10.8277 83.1254 10.8818 83.3099 10.985C83.4945 11.0882 83.6496 11.237 83.7606 11.4172C83.8715 11.5975 83.9346 11.8032 83.9438 12.0148C83.953 12.2264 83.9081 12.4368 83.8132 12.6261L72.0948 34.7906L43.2951 -9.91152H22.8618L0 33.3272H18.0571C18.292 33.3273 18.5229 33.3879 18.7279 33.503C18.9328 33.6181 19.1048 33.784 19.2276 33.9847C19.3503 34.1855 19.4197 34.4144 19.429 34.6497C19.4384 34.885 19.3874 35.1187 19.281 35.3286L10.0723 52.7178H30.5031L41.3579 32.2272H23.141C22.9077 32.2269 22.6785 32.1661 22.4756 32.0508C22.2727 31.9355 22.103 31.7696 21.9829 31.5691C21.8629 31.3686 21.7966 31.1405 21.7905 30.9068C21.7844 30.673 21.8387 30.4417 21.9481 30.2353L34.1842 7.22899L63.5279 53H83.4148L105.265 10.8278H86.4637Z" fill="url(#paint1_linear_753_61131)" fill-opacity="0.3"/>
<path d="M164.795 -4.40924C162.142 -8.08221 157.211 -9.96174 150.144 -10H123.663L115.726 4.92142H141.78C144.166 4.92142 146.229 6.76509 146.344 9.15874C146.373 9.76101 146.28 10.3629 146.07 10.928C145.86 11.4931 145.538 12.0097 145.123 12.4463C144.708 12.8829 144.209 13.2306 143.656 13.4683C143.103 13.7059 142.508 13.8286 141.907 13.8288H111.01L103.061 28.8579H140.277C140.86 28.8576 141.437 28.9723 141.975 29.1956C142.513 29.4188 143.003 29.7462 143.415 30.1591C143.827 30.5719 144.154 31.062 144.377 31.6015C144.6 32.141 144.714 32.7193 144.714 33.3032C144.716 33.8894 144.602 34.4701 144.379 35.0119C144.156 35.5538 143.828 36.046 143.414 36.4602C143 36.8745 142.509 37.2027 141.968 37.4258C141.427 37.649 140.848 37.7627 140.263 37.7605H98.3396L90.4454 52.6652H100.642C111.539 52.6652 118.296 52.6485 135.406 52.5528C148.05 52.4811 156.951 45.1806 159.818 32.5261C160.455 29.69 161.471 25.1801 158.351 21.5454C161.929 19.214 163.96 16.2966 165.508 11.4424C167.712 4.61535 167.474 -0.714755 164.795 -4.40924Z" fill="url(#paint2_linear_753_61131)" fill-opacity="0.3"/>
<path d="M146.843 9.13484C146.715 6.45728 144.415 4.42142 141.78 4.42142H116.559L123.964 -9.5H150.143C157.141 -9.46187 161.873 -7.60011 164.389 -4.11649L164.39 -4.11572L146.344 9.15874M146.843 9.13484L146.344 9.15874M146.843 9.13484C146.843 9.13478 146.843 9.13471 146.843 9.13464L146.344 9.15874M146.843 9.13484C146.876 9.80448 146.772 10.4737 146.539 11.1021C146.305 11.7305 145.947 12.305 145.486 12.7907C145.024 13.2764 144.469 13.6632 143.854 13.9276C143.239 14.192 142.576 14.3286 141.907 14.3288H111.311M146.344 9.15874C146.373 9.76101 146.28 10.3629 146.07 10.928C145.86 11.4931 145.538 12.0097 145.123 12.4463C144.708 12.8829 144.209 13.2306 143.656 13.4683C143.103 13.7059 142.508 13.8286 141.907 13.8288H111.01M111.311 14.3288L111.452 14.0626L111.01 13.8288M111.311 14.3288H111.01V13.8288M111.311 14.3288L111.01 13.8288M158.351 21.5454C158.493 21.453 158.632 21.3597 158.769 21.2654C158.756 21.2501 158.743 21.2349 158.73 21.2197L158.351 21.5454ZM158.351 21.5454L158.624 21.9644C158.639 21.9548 158.653 21.9453 158.668 21.9357C158.567 21.8046 158.462 21.6745 158.351 21.5454ZM145.214 33.3019L144.714 33.3032H145.214C145.214 33.3027 145.214 33.3024 145.214 33.3019ZM145.214 33.3019C145.214 32.6529 145.087 32.0101 144.839 31.4105C144.591 30.8104 144.227 30.2651 143.769 29.8058C143.31 29.3465 142.766 28.9822 142.167 28.7337C141.567 28.4853 140.925 28.3575 140.277 28.3579M145.214 33.3019L140.277 28.3579M140.277 28.3579L140.277 28.8579V28.3579H140.277ZM85.1225 9.23307L85.1209 9.23607C84.8633 9.73017 85.0348 10.2742 85.2733 10.6267C85.5133 10.9816 85.9425 11.3278 86.4637 11.3278H104.443L83.1107 52.5H63.8013L34.6051 6.95914L34.144 6.23982L33.7428 6.9942L21.5067 30.0005L21.5063 30.0011C21.3566 30.2837 21.2823 30.6001 21.2907 30.9198C21.299 31.2395 21.3897 31.5517 21.554 31.826C21.7182 32.1003 21.9506 32.3276 22.2286 32.4855C22.5065 32.6435 22.8206 32.7267 23.1403 32.7272H23.141H40.5272L30.2022 52.2178H10.9028L19.7228 35.5626L19.7229 35.5627L19.7269 35.5548C19.8719 35.2688 19.9414 34.9503 19.9286 34.6299C19.9159 34.3094 19.8214 33.9975 19.6541 33.7239C19.4868 33.4503 19.2523 33.2242 18.9728 33.0671C18.6932 32.9101 18.3781 32.8274 18.0575 32.8272H18.0571H0.829957L23.163 -9.41152H43.0224L71.6745 35.0614L72.1374 35.7799L72.5368 35.0243L84.2552 12.8598L84.2553 12.8598L84.2602 12.8501C84.3932 12.5847 84.4563 12.2896 84.4433 11.993C84.4304 11.6964 84.342 11.4079 84.1863 11.1551C84.0307 10.9023 83.813 10.6934 83.5539 10.5486C83.2948 10.4037 83.003 10.3277 82.7063 10.3278C82.7062 10.3278 82.7061 10.3278 82.706 10.3278H65.3653L71.5489 -1.34583H90.7286L85.1225 9.23307ZM103.325 28.3579L103.061 28.8579H103.626L103.891 28.3579H103.325ZM90.7102 52.1652L90.4454 52.6652H91.0112L91.276 52.1652H90.7102ZM98.3396 38.2605H98.6405L98.7814 37.9946L98.3396 37.7605V38.2605ZM140.263 37.7605L140.261 38.2605C140.261 38.2605 140.262 38.2605 140.262 38.2605H140.263V37.7605ZM159.33 32.4165L159.818 32.5261L159.331 32.4156C159.33 32.4159 159.33 32.4162 159.33 32.4165ZM115.726 4.92142H116.293H115.726Z" stroke="url(#paint3_linear_753_61131)" stroke-opacity="0.6"/>
</g>

<g clip-path="url(#clip1_753_61131)">
<path d="M432.551 20.6239L406.853 11.7811C405.241 11.2264 403.475 11.3348 401.943 12.0823C400.411 12.8299 399.239 14.1553 398.684 15.7671L396.055 23.407C395.78 24.2052 395.665 25.0496 395.717 25.8922C395.769 26.7348 395.986 27.559 396.356 28.3177C396.726 29.0764 397.242 29.7548 397.874 30.3141C398.506 30.8734 399.243 31.3026 400.041 31.5773L425.739 40.4202L432.551 20.6239Z" fill="url(#paint4_linear_753_61131)" fill-opacity="0.5"/>
<path d="M477.696 36.1586L451.998 27.3158L445.186 47.1121L470.884 55.9549C472.496 56.5095 474.262 56.4011 475.794 55.6535C477.326 54.906 478.498 53.5805 479.053 51.9687L481.682 44.3279C481.957 43.5298 482.072 42.6854 482.02 41.8429C481.968 41.0004 481.751 40.1763 481.381 39.4177C481.011 38.6591 480.495 37.9808 479.863 37.4216C479.231 36.8624 478.494 36.4333 477.696 36.1586Z" fill="url(#paint5_linear_753_61131)" fill-opacity="0.5"/>
<path d="M444.589 48.8475L429.831 91.7355L450.031 98.6866C451.766 99.2834 453.666 99.1668 455.315 98.3624C456.963 97.558 458.224 96.1318 458.821 94.3974L471.329 58.0489L444.589 48.8475Z" fill="url(#paint6_linear_753_61131)" fill-opacity="0.5"/>
<path d="M425.142 42.1557L398.402 32.9543L385.894 69.3028C385.297 71.0372 385.414 72.9376 386.218 74.586C387.023 76.2344 388.449 77.4958 390.183 78.0926L410.384 85.0436L425.142 42.1557Z" fill="url(#paint7_linear_753_61131)" fill-opacity="0.5"/>
<path d="M426.877 42.7571L442.851 48.254L428.095 91.138L412.12 85.6411L426.877 42.7571Z" fill="url(#paint8_linear_753_61131)" fill-opacity="0.5"/>
<path d="M434.287 21.2223L450.261 26.7192L443.449 46.5178L427.474 41.0209L434.287 21.2223Z" fill="url(#paint9_linear_753_61131)" fill-opacity="0.5"/>
<path d="M469.289 16.1857L467.088 9.60293C467.088 9.60293 466.091 4.59965 460.042 3.66017C453.994 2.72069 451.374 7.30273 451.374 7.30273C451.374 7.30273 446.037 14.6982 444.941 16.2239C445.016 14.3437 445.36 5.22625 445.36 5.22625C445.36 5.22625 446.115 0.00232772 440.768 -2.97898C435.422 -5.96028 431.558 -2.63 431.558 -2.63L425.772 1.20464C425.772 1.20464 420.571 4.18169 421.827 9.70618C421.827 9.70618 422.04 14.8719 427.71 17.0172L458.031 27.4577C463.82 29.2556 467.167 25.3151 467.167 25.3151C471.557 21.733 469.289 16.1857 469.289 16.1857Z" fill="url(#paint10_linear_753_61131)" fill-opacity="0.5"/>
</g>
</g>
<defs>
<linearGradient id="paint0_linear_753_61131" x1="0" y1="22" x2="488" y2="22" gradientUnits="userSpaceOnUse">
<stop stop-color="#1E6C8E"/>
<stop offset="1" stop-color="#2E7775"/>
</linearGradient>
<linearGradient id="paint1_linear_753_61131" x1="163.418" y1="-7.7283" x2="3.48498" y2="52.6423" gradientUnits="userSpaceOnUse">
<stop stop-color="white"/>
<stop offset="1" stop-color="white" stop-opacity="0.05"/>
</linearGradient>
<linearGradient id="paint2_linear_753_61131" x1="163.418" y1="-7.7283" x2="3.48498" y2="52.6423" gradientUnits="userSpaceOnUse">
<stop stop-color="white"/>
<stop offset="1" stop-color="white" stop-opacity="0.05"/>
</linearGradient>
<linearGradient id="paint3_linear_753_61131" x1="163.418" y1="-7.7283" x2="3.48498" y2="52.6423" gradientUnits="userSpaceOnUse">
<stop stop-color="white"/>
<stop offset="1" stop-color="white" stop-opacity="0.1"/>
</linearGradient>
<linearGradient id="paint4_linear_753_61131" x1="489.086" y1="17.0247" x2="395.763" y2="-1.72033" gradientUnits="userSpaceOnUse">
<stop stop-color="white"/>
<stop offset="1" stop-color="white" stop-opacity="0.05"/>
</linearGradient>
<linearGradient id="paint5_linear_753_61131" x1="489.086" y1="17.0247" x2="395.763" y2="-1.72033" gradientUnits="userSpaceOnUse">
<stop stop-color="white"/>
<stop offset="1" stop-color="white" stop-opacity="0.05"/>
</linearGradient>
<linearGradient id="paint6_linear_753_61131" x1="489.086" y1="17.0247" x2="395.763" y2="-1.72033" gradientUnits="userSpaceOnUse">
<stop stop-color="white"/>
<stop offset="1" stop-color="white" stop-opacity="0.05"/>
</linearGradient>
<linearGradient id="paint7_linear_753_61131" x1="489.086" y1="17.0247" x2="395.763" y2="-1.72033" gradientUnits="userSpaceOnUse">
<stop stop-color="white"/>
<stop offset="1" stop-color="white" stop-opacity="0.05"/>
</linearGradient>
<linearGradient id="paint8_linear_753_61131" x1="489.086" y1="17.0247" x2="395.763" y2="-1.72033" gradientUnits="userSpaceOnUse">
<stop stop-color="white"/>
<stop offset="1" stop-color="white" stop-opacity="0.05"/>
</linearGradient>
<linearGradient id="paint9_linear_753_61131" x1="489.086" y1="17.0247" x2="395.763" y2="-1.72033" gradientUnits="userSpaceOnUse">
<stop stop-color="white"/>
<stop offset="1" stop-color="white" stop-opacity="0.05"/>
</linearGradient>
<linearGradient id="paint10_linear_753_61131" x1="489.086" y1="17.0247" x2="395.763" y2="-1.72033" gradientUnits="userSpaceOnUse">
<stop stop-color="white"/>
<stop offset="1" stop-color="white" stop-opacity="0.05"/>
</linearGradient>
<clipPath id="clip0_753_61131">
<rect width="488" height="44" fill="white"/>
</clipPath>
<clipPath id="clip1_753_61131">
<rect width="93.2897" height="93.2897" fill="white" transform="translate(406.355 -15) rotate(18.9886)"/>
</clipPath>
</defs>
</svg>
