<svg width="132" height="80" viewBox="0 0 132 80" fill="none" xmlns="http://www.w3.org/2000/svg">
    <rect width="132" height="80" rx="8" fill="#FFAA9A" />
    <path
        d="M91.5879 58.0957H40.0436C37.8709 58.0957 36.1094 56.3344 36.1094 54.1615V24.9342C36.1094 22.7616 37.8706 21 40.0436 21H91.5879C93.7605 21 95.5221 22.7613 95.5221 24.9339V54.1615C95.5221 56.3344 93.7609 58.0957 91.5879 58.0957Z"
        fill="#FFFFFC" />
    <path
        d="M91.4308 21H40.2007C37.9411 21 36.1094 22.8317 36.1094 25.0913V28.5852H95.5218V25.0913C95.5221 22.8317 93.6904 21 91.4308 21Z"
        fill="#C5CFD5" />
    <path d="M89.4258 22.873H41.1094V25.3105H89.4258V22.873Z" fill="white" />
    <path d="M89.4258 26.0957H41.1094V26.8445H89.4258V26.0957Z" fill="white" />
    <path d="M68.136 31.0107H58.9062V32.8527H68.136V31.0107Z" fill="#D5DAD7" />
    <path d="M82.4946 33.7617H58.9062V35.2982H82.4946V33.7617Z" fill="#D5DAD7" />
    <path d="M72.231 36.8916H58.9062V38.7336H72.231V36.8916Z" fill="#D5DAD7" />
    <path d="M80.3881 39.6426H58.9062V41.1791H80.3881V39.6426Z" fill="#D5DAD7" />
    <path d="M77.5278 42.7725H58.9062V44.6144H77.5278V42.7725Z" fill="#D5DAD7" />
    <path d="M68.0292 45.5234H58.9062V47.0599H68.0292V45.5234Z" fill="#D5DAD7" />
    <path d="M68.136 48.6523H58.9062V50.4943H68.136V48.6523Z" fill="#D5DAD7" />
    <path d="M82.4946 51.4033H58.9062V52.9398H82.4946V51.4033Z" fill="#D5DAD7" />
    <path d="M56.2329 30.3848H38.9062V54.2234H56.2329V30.3848Z" fill="#DEE6DA" />
    <mask id="mask0_2658_143469" style="mask-type:luminance" maskUnits="userSpaceOnUse" x="39" y="30" width="18"
        height="25">
        <path d="M56.4048 30.3828H39.0781V54.2214H56.4048V30.3828Z" fill="white" />
    </mask>
    <g mask="url(#mask0_2658_143469)">
        <path
            d="M45.375 47.0647L45.5501 55.4584L47.7836 57.2311L50.1589 55.3165L50.0881 47.2687C50.0881 47.2687 49.1704 44.7338 45.375 47.0647Z"
            fill="white" />
        <path d="M47.9398 51.3943H47.3919L46.8203 49.2686H48.5117L47.9398 51.3943Z" fill="#E08663" />
        <path d="M49.3939 57.3878H45.9375L47.4023 51.2549H47.9291L49.3939 57.3878Z" fill="#E08663" />
        <path
            d="M44.5015 40.5379C44.5015 41.4482 43.8384 42.1858 43.0203 42.1858C42.2022 42.1858 41.5391 41.4479 41.5391 40.5379C41.5391 39.6279 42.2022 38.8896 43.0203 38.8896C43.8384 38.8896 44.5015 39.6276 44.5015 40.5379Z"
            fill="#FEBDA3" />
        <path
            d="M53.9312 40.5379C53.9312 41.4482 53.268 42.1858 52.45 42.1858C51.6319 42.1858 50.9688 41.4479 50.9688 40.5379C50.9688 39.6279 51.6319 38.8896 52.45 38.8896C53.268 38.8896 53.9312 39.6276 53.9312 40.5379Z"
            fill="#FEBDA3" />
        <path d="M50.0783 43.5986H45.3828V49.2385H50.0783V43.5986Z" fill="#FED5C4" />
        <path
            d="M45.3828 46.1308C46.1034 46.4409 46.8963 46.6145 47.7305 46.6145C48.5644 46.6145 49.3577 46.4412 50.0783 46.1308V43.5986H45.3828V46.1308Z"
            fill="#FEBDA3" />
        <path
            d="M49.2018 45.5384H46.429C44.4275 45.5384 42.8047 43.9156 42.8047 41.9141V36.5042C42.8047 34.5027 44.4275 32.8799 46.429 32.8799H49.2018C51.2033 32.8799 52.8261 34.5027 52.8261 36.5042V41.9141C52.8258 43.9156 51.2033 45.5384 49.2018 45.5384Z"
            fill="#FED5C4" />
        <path
            d="M44.1415 34.4179C44.1415 34.4179 48.7584 38.5921 50.8453 37.9597C52.9322 37.3273 52.8692 39.7939 52.8692 39.7939C52.8692 39.7939 54.2607 36.8215 53.881 35.7461C53.5646 34.8495 53.5646 33.5958 51.3513 33.0264C49.1377 32.4574 43.3193 29.6747 44.1415 34.4179Z"
            fill="#59524F" />
        <path
            d="M43.1387 33.2472C43.1387 33.2472 41.2337 33.4499 41.5513 35.2754C41.8689 37.1007 42.7578 39.9401 42.7578 39.9401C42.7578 39.9401 45.4883 36.019 44.9801 34.7346C44.4722 33.4499 44.1546 32.9768 43.1387 33.2472Z"
            fill="#59524F" />
        <path
            d="M46.7734 38.1875C46.7734 38.1875 47.4928 38.3145 47.408 39.5414C47.3233 40.7684 46.9426 41.9953 47.4502 42.0376C47.9579 42.0798 48.1696 41.7836 48.1696 41.7836C48.1696 41.7836 48.1274 42.7144 47.281 42.4182C46.435 42.122 46.9004 40.5989 47.0696 39.8798C47.2388 39.1605 46.7734 38.1875 46.7734 38.1875Z"
            fill="#FEBDA3" />
        <path d="M45.3862 47.0645L47.764 49.3265L45.3281 50.7767L45.3862 47.0645Z" fill="#E0E0E0" />
        <path d="M50.0969 47.0645L47.7188 49.3265L50.1546 50.7767L50.0969 47.0645Z" fill="#E0E0E0" />
        <path d="M45.3564 46.9277C45.3585 47.064 47.8295 57.5779 47.8295 57.5779H37.75V49.5204L45.3564 46.9277Z"
            fill="#45454F" />
        <path d="M50.1138 46.9277C50.1116 47.064 47.6406 57.5779 47.6406 57.5779H57.7201V49.5204L50.1138 46.9277Z"
            fill="#45454F" />
    </g>
    <g opacity="0.43">
        <path
            d="M77.1406 33.1113V48.6072H90.3716V33.1113H77.1406ZM84.0553 45.5609C81.3785 45.5609 79.2086 43.3911 79.2086 40.7143C79.2086 38.0374 81.3785 35.8676 84.0553 35.8676C86.7321 35.8676 88.9019 38.0374 88.9019 40.7143C88.9019 43.3911 86.7318 45.5609 84.0553 45.5609Z"
            fill="#A4B7C4" />
        <path
            d="M84.0893 44.3974C86.145 44.3974 87.8115 42.731 87.8115 40.6753C87.8115 38.6196 86.145 36.9531 84.0893 36.9531C82.0336 36.9531 80.3672 38.6196 80.3672 40.6753C80.3672 42.731 82.0336 44.3974 84.0893 44.3974Z"
            fill="#A4B7C4" />
    </g>
    <path d="M59.7683 54.0918H59.0859V56.5423H59.7683V54.0918Z" fill="#A6A6A6" />
    <path d="M62.1956 54.0918H60.1016V56.5423H62.1956V54.0918Z" fill="#A6A6A6" />
    <path d="M62.5606 54.0918H62.3594V56.5423H62.5606V54.0918Z" fill="#A6A6A6" />
    <path d="M63.9199 54.0918H63.7188V56.5423H63.9199V54.0918Z" fill="#A6A6A6" />
    <path d="M65.2715 54.0918H65.0703V56.5423H65.2715V54.0918Z" fill="#A6A6A6" />
    <path d="M66.2012 54.0918H66V56.5423H66.2012V54.0918Z" fill="#A6A6A6" />
    <path d="M67.1234 54.0918H66.9219V56.5423H67.1234V54.0918Z" fill="#A6A6A6" />
    <path d="M68.4824 54.0918H68.2812V56.5423H68.4824V54.0918Z" fill="#A6A6A6" />
    <path d="M69.4121 54.0918H69.2109V56.5423H69.4121V54.0918Z" fill="#A6A6A6" />
    <path d="M70.3343 54.0918H70.1328V56.5423H70.3343V54.0918Z" fill="#A6A6A6" />
    <path d="M71.2559 54.0918H71.0547V56.5423H71.2559V54.0918Z" fill="#A6A6A6" />
    <path d="M72.6152 54.0918H72.4141V56.5423H72.6152V54.0918Z" fill="#A6A6A6" />
    <path d="M74.9159 54.0918H73.7734V56.5423H74.9159V54.0918Z" fill="#A6A6A6" />
    <path d="M77.0013 54.0918H76.5312V56.5423H77.0013V54.0918Z" fill="#A6A6A6" />
    <path
        d="M105.5 24C105.5 25.1093 104.137 26.0237 103.864 27.0463C103.583 28.1037 104.295 29.577 103.76 30.5022C103.216 31.4425 101.58 31.5552 100.818 32.3178C100.055 33.0805 99.9425 34.7163 99.0022 35.2602C98.077 35.7953 96.6037 35.0825 95.5463 35.3642C94.5237 35.6372 93.6093 37 92.5 37C91.3907 37 90.4763 35.6372 89.4537 35.3642C88.3963 35.0825 86.923 35.7953 85.9978 35.2602C85.0575 34.7163 84.9448 33.0805 84.1822 32.3178C83.4195 31.5552 81.7837 31.4425 81.2398 30.5022C80.7047 29.577 81.4175 28.1037 81.1358 27.0463C80.8628 26.0237 79.5 25.1093 79.5 24C79.5 22.8907 80.8628 21.9763 81.1358 20.9537C81.4175 19.8963 80.7047 18.423 81.2398 17.4978C81.7837 16.5575 83.4195 16.4448 84.1822 15.6822C84.9448 14.9195 85.0575 13.2837 85.9978 12.7398C86.923 12.2047 88.3963 12.9175 89.4537 12.6358C90.4763 12.3628 91.3907 11 92.5 11C93.6093 11 94.5237 12.3628 95.5463 12.6358C96.6037 12.9175 98.077 12.2047 99.0022 12.7398C99.9425 13.2837 100.055 14.9195 100.818 15.6822C101.58 16.4448 103.216 16.5575 103.76 17.4978C104.295 18.423 103.583 19.8963 103.864 20.9537C104.137 21.9763 105.5 22.8907 105.5 24Z"
        fill="#D7FAE0" />
    <path
        d="M102.761 23.9995C102.761 24.8753 101.685 25.5971 101.469 26.4045C101.247 27.2392 101.81 28.4024 101.387 29.1328C100.958 29.8751 99.6663 29.9641 99.0642 30.5662C98.4621 31.1683 98.3732 32.4597 97.6308 32.8891C96.9004 33.3116 95.7373 32.7488 94.9025 32.9712C94.0952 33.1867 93.3733 34.2626 92.4975 34.2626C91.6217 34.2626 90.8999 33.1867 90.0925 32.9712C89.2578 32.7488 88.0946 33.3116 87.3642 32.8891C86.6219 32.4597 86.5329 31.1683 85.9308 30.5662C85.3287 29.9641 84.0373 29.8751 83.6079 29.1328C83.1854 28.4024 83.7482 27.2392 83.5258 26.4045C83.3103 25.5971 82.2344 24.8753 82.2344 23.9995C82.2344 23.1237 83.3103 22.4019 83.5258 21.5945C83.7482 20.7597 83.1854 19.5966 83.6079 18.8662C84.0373 18.1238 85.3287 18.0349 85.9308 17.4328C86.5329 16.8307 86.6219 15.5392 87.3642 15.1099C88.0946 14.6874 89.2578 15.2501 90.0925 15.0278C90.8999 14.8122 91.6217 13.7363 92.4975 13.7363C93.3733 13.7363 94.0952 14.8122 94.9025 15.0278C95.7373 15.2501 96.9004 14.6874 97.6308 15.1099C98.3732 15.5392 98.4621 16.8307 99.0642 17.4328C99.6663 18.0349 100.958 18.1238 101.387 18.8662C101.81 19.5966 101.247 20.7597 101.469 21.5945C101.685 22.4019 102.761 23.1237 102.761 23.9995Z"
        fill="#079449" />
    <path
        d="M95.4637 20.942L91.5568 24.8489L89.5316 22.8253C89.092 22.3857 88.3787 22.3857 87.9391 22.8253C87.4995 23.2649 87.4995 23.9782 87.9391 24.4178L90.7803 27.259C91.2079 27.6866 91.9024 27.6866 92.33 27.259L97.0545 22.5345C97.4941 22.0949 97.4941 21.3816 97.0545 20.942C96.6149 20.5024 95.9033 20.5024 95.4637 20.942Z"
        fill="#EFFFF4" />
</svg>