<svg width="132" height="80" viewBox="0 0 132 80" fill="none" xmlns="http://www.w3.org/2000/svg">
    <g clip-path="url(#clip0_2658_143542)">
        <rect width="132" height="80" rx="8" fill="#FFAA9A" />
        <path
            d="M88.6759 56H42.9582C41.0312 56 39.4688 54.4378 39.4688 52.5105V26.5871C39.4688 24.6601 41.0309 23.0977 42.9582 23.0977H88.6759C90.6029 23.0977 92.1654 24.6598 92.1654 26.5868V52.5105C92.1654 54.4378 90.6032 56 88.6759 56Z"
            fill="#FFFFFC" />
        <path
            d="M88.5366 23.0977H43.0975C41.0934 23.0977 39.4688 24.7223 39.4688 26.7265V29.8254H92.1651V26.7265C92.1654 24.7223 90.5407 23.0977 88.5366 23.0977Z"
            fill="#C5CFD5" />
        <path d="M86.7609 24.7568H43.9062V26.9187H86.7609V24.7568Z" fill="white" />
        <path d="M86.7609 27.6143H43.9062V28.2784H86.7609V27.6143Z" fill="white" />
        <path d="M67.8739 31.9756H59.6875V33.6093H67.8739V31.9756Z" fill="#D5DAD7" />
        <path d="M80.6094 34.415H59.6875V35.7778H80.6094V34.415Z" fill="#D5DAD7" />
        <path d="M71.506 37.1943H59.6875V38.8281H71.506V37.1943Z" fill="#D5DAD7" />
        <path d="M78.741 39.6338H59.6875V40.9966H78.741V39.6338Z" fill="#D5DAD7" />
        <path d="M76.2041 42.4102H59.6875V44.0439H76.2041V42.4102Z" fill="#D5DAD7" />
        <path d="M67.7792 44.8496H59.6875V46.2124H67.7792V44.8496Z" fill="#D5DAD7" />
        <path d="M67.8739 47.623H59.6875V49.2568H67.8739V47.623Z" fill="#D5DAD7" />
        <path d="M80.6094 50.0625H59.6875V51.4253H80.6094V50.0625Z" fill="#D5DAD7" />
        <path d="M57.329 31.4209H41.9609V52.5648H57.329V31.4209Z" fill="#DEE6DA" />
        <mask id="mask0_2658_143542" style="mask-type:luminance" maskUnits="userSpaceOnUse" x="42" y="31" width="16"
            height="22">
            <path d="M57.493 31.4229H42.125V52.5667H57.493V31.4229Z" fill="white" />
        </mask>
        <g mask="url(#mask0_2658_143542)">
            <path
                d="M47.7109 46.218L47.8662 53.6628L49.8472 55.2352L51.9541 53.537L51.8913 46.3989C51.8913 46.3989 51.0773 44.1505 47.7109 46.218Z"
                fill="white" />
            <path d="M49.9852 50.0593H49.4991L48.9922 48.1738H50.4924L49.9852 50.0593Z" fill="#E08663" />
            <path d="M51.2766 55.3742H48.2109L49.5101 49.9346H49.9774L51.2766 55.3742Z" fill="#E08663" />
            <path
                d="M46.9401 40.4297C46.9401 41.2371 46.3519 41.8914 45.6263 41.8914C44.9007 41.8914 44.3125 41.2368 44.3125 40.4297C44.3125 39.6226 44.9007 38.9678 45.6263 38.9678C46.3519 38.9678 46.9401 39.6223 46.9401 40.4297Z"
                fill="#FEBDA3" />
            <path
                d="M55.2994 40.4297C55.2994 41.2371 54.7112 41.8914 53.9857 41.8914C53.2601 41.8914 52.6719 41.2368 52.6719 40.4297C52.6719 39.6226 53.2601 38.9678 53.9857 38.9678C54.7112 38.9678 55.2994 39.6223 55.2994 40.4297Z"
                fill="#FEBDA3" />
            <path d="M51.8834 43.1436H47.7188V48.1459H51.8834V43.1436Z" fill="#FED5C4" />
            <path
                d="M47.7188 45.3895C48.3579 45.6646 49.0612 45.8185 49.8011 45.8185C50.5407 45.8185 51.2443 45.6648 51.8834 45.3895V43.1436H47.7188V45.3895Z"
                fill="#FEBDA3" />
            <path
                d="M51.1036 44.8672H48.6443C46.869 44.8672 45.4297 43.4279 45.4297 41.6526V36.8543C45.4297 35.079 46.869 33.6396 48.6443 33.6396H51.1036C52.8789 33.6396 54.3183 35.079 54.3183 36.8543V41.6526C54.318 43.4279 52.8789 44.8672 51.1036 44.8672Z"
                fill="#FED5C4" />
            <path
                d="M46.6169 35.0031C46.6169 35.0031 50.7119 38.7054 52.5629 38.1445C54.4139 37.5836 54.3581 39.7713 54.3581 39.7713C54.3581 39.7713 55.5923 37.135 55.2555 36.1811C54.9749 35.3858 54.9749 34.2739 53.0118 33.7689C51.0484 33.2641 45.8877 30.796 46.6169 35.0031Z"
                fill="#59524F" />
            <path
                d="M45.7287 33.9655C45.7287 33.9655 44.039 34.1453 44.3207 35.7644C44.6024 37.3833 45.3908 39.9018 45.3908 39.9018C45.3908 39.9018 47.8127 36.4239 47.3619 35.2847C46.9114 34.1453 46.6297 33.7256 45.7287 33.9655Z"
                fill="#59524F" />
            <path
                d="M48.9531 38.3457C48.9531 38.3457 49.5912 38.4583 49.516 39.5466C49.4408 40.6348 49.1032 41.7231 49.5534 41.7605C50.0037 41.798 50.1915 41.5353 50.1915 41.5353C50.1915 41.5353 50.154 42.3608 49.4034 42.0981C48.653 41.8354 49.0658 40.4845 49.2158 39.8467C49.3659 39.2087 48.9531 38.3457 48.9531 38.3457Z"
                fill="#FEBDA3" />
            <path d="M47.7234 46.2217L49.8324 48.228L47.6719 49.5143L47.7234 46.2217Z" fill="#E0E0E0" />
            <path d="M51.8984 46.2217L49.7891 48.228L51.9496 49.5143L51.8984 46.2217Z" fill="#E0E0E0" />
            <path d="M47.6996 46.0996C47.7016 46.2205 49.8932 55.5458 49.8932 55.5458H40.9531V48.3992L47.6996 46.0996Z"
                fill="#45454F" />
            <path d="M51.9201 46.0996C51.9182 46.2205 49.7266 55.5458 49.7266 55.5458H58.6667V48.3992L51.9201 46.0996Z"
                fill="#45454F" />
        </g>
        <g opacity="0.43">
            <path
                d="M75.8594 33.8398V47.584H87.5947V33.8398H75.8594ZM81.9924 44.8821C79.6181 44.8821 77.6936 42.9576 77.6936 40.5833C77.6936 38.2091 79.6181 36.2846 81.9924 36.2846C84.3666 36.2846 86.2911 38.2091 86.2911 40.5833C86.2911 42.9576 84.3663 44.8821 81.9924 44.8821Z"
                fill="#A4B7C4" />
            <path
                d="M82.0201 43.8508C83.8434 43.8508 85.3215 42.3727 85.3215 40.5494C85.3215 38.7261 83.8434 37.248 82.0201 37.248C80.1968 37.248 78.7188 38.7261 78.7188 40.5494C78.7188 42.3727 80.1968 43.8508 82.0201 43.8508Z"
                fill="#A4B7C4" />
        </g>
        <path d="M60.4568 52.4473H59.8516V54.6207H60.4568V52.4473Z" fill="#A6A6A6" />
        <path d="M62.6074 52.4473H60.75V54.6207H62.6074V52.4473Z" fill="#A6A6A6" />
        <path d="M62.9363 52.4473H62.7578V54.6207H62.9363V52.4473Z" fill="#A6A6A6" />
        <path d="M64.1394 52.4473H63.9609V54.6207H64.1394V52.4473Z" fill="#A6A6A6" />
        <path d="M65.3347 52.4473H65.1562V54.6207H65.3347V52.4473Z" fill="#A6A6A6" />
        <path d="M66.1628 52.4473H65.9844V54.6207H66.1628V52.4473Z" fill="#A6A6A6" />
        <path d="M66.9756 52.4473H66.7969V54.6207H66.9756V52.4473Z" fill="#A6A6A6" />
        <path d="M68.1863 52.4473H68.0078V54.6207H68.1863V52.4473Z" fill="#A6A6A6" />
        <path d="M69.0066 52.4473H68.8281V54.6207H69.0066V52.4473Z" fill="#A6A6A6" />
        <path d="M69.8271 52.4473H69.6484V54.6207H69.8271V52.4473Z" fill="#A6A6A6" />
        <path d="M70.6394 52.4473H70.4609V54.6207H70.6394V52.4473Z" fill="#A6A6A6" />
        <path d="M71.8503 52.4473H71.6719V54.6207H71.8503V52.4473Z" fill="#A6A6A6" />
        <path d="M73.8884 52.4473H72.875V54.6207H73.8884V52.4473Z" fill="#A6A6A6" />
        <path d="M75.745 52.4473H75.3281V54.6207H75.745V52.4473Z" fill="#A6A6A6" />
        <g clip-path="url(#clip1_2658_143542)">
            <rect x="67.7578" y="29.5234" width="31.0336" height="56.7188" rx="1" fill="white" />
            <path
                d="M88.5 55.2353V58.9412C88.5 59.222 88.3829 59.4913 88.1746 59.6899C87.9662 59.8884 87.6836 60 87.3889 60H79.6111C79.3164 60 79.0338 59.8884 78.8254 59.6899C78.6171 59.4913 78.5 59.222 78.5 58.9412V54.1765C78.5 53.8957 78.6171 53.6263 78.8254 53.4278C79.0338 53.2292 79.3164 53.1176 79.6111 53.1176H80.7222C81.0169 53.1176 81.2995 53.0061 81.5079 52.8075C81.7163 52.609 81.8333 52.3396 81.8333 52.0588C81.8333 51.9184 81.8919 51.7838 81.9961 51.6845C82.1002 51.5852 82.2415 51.5294 82.3889 51.5294H83.5M85.1667 52.5882H88.5M86.8333 51V54.1765M83.5 57.8824C83.942 57.8824 84.366 57.715 84.6785 57.4172C84.9911 57.1193 85.1667 56.7153 85.1667 56.2941C85.1667 55.8729 84.9911 55.4689 84.6785 55.1711C84.366 54.8732 83.942 54.7059 83.5 54.7059C83.058 54.7059 82.634 54.8732 82.3215 55.1711C82.0089 55.4689 81.8333 55.8729 81.8333 56.2941C81.8333 56.7153 82.0089 57.1193 82.3215 57.4172C82.634 57.715 83.058 57.8824 83.5 57.8824Z"
                stroke="#27272A" stroke-linecap="round" stroke-linejoin="round" />
            <path
                d="M90.1617 82.0328C90.1617 82.2815 90.0655 82.5199 89.8943 82.6957C89.7232 82.8715 89.491 82.9703 89.2489 82.9703H77.6604C77.4183 82.9703 77.1862 82.8715 77.015 82.6957C76.8438 82.5199 76.7476 82.2815 76.7476 82.0328C76.7476 81.7842 76.8438 81.5457 77.015 81.3699C77.1862 81.1941 77.4183 81.0953 77.6604 81.0953H89.2489C89.491 81.0953 89.7232 81.1941 89.8943 81.3699C90.0655 81.5457 90.1617 81.7842 90.1617 82.0328ZM100.547 33.1762V82.825C100.547 85.6785 98.0832 88 95.0563 88H71.9511C68.9231 88 66.4609 85.6785 66.4609 82.825V33.1762C66.4609 30.3227 68.9231 28 71.9511 28H95.0563C98.0832 28 100.547 30.3227 100.547 33.1762ZM98.721 33.1762C98.721 31.3562 97.0769 29.875 95.0563 29.875H89.6289V31.9246C89.6289 32.1733 89.5327 32.4117 89.3615 32.5875C89.1903 32.7633 88.9582 32.8621 88.7161 32.8621H77.6866C77.4446 32.8621 77.2124 32.7633 77.0412 32.5875C76.8701 32.4117 76.7739 32.1733 76.7739 31.9246V29.875H71.9511C69.9294 29.875 68.2864 31.3562 68.2864 33.1762V82.825C68.2864 84.6449 69.9294 86.125 71.9511 86.125H95.0563C97.0769 86.125 98.721 84.6449 98.721 82.825V33.1762Z"
                fill="black" />
        </g>
    </g>
    <defs>
        <clipPath id="clip0_2658_143542">
            <rect width="132" height="80" rx="8" fill="white" />
        </clipPath>
        <clipPath id="clip1_2658_143542">
            <rect width="34" height="60" fill="white" transform="translate(66.5 28)" />
        </clipPath>
    </defs>
</svg>