<svg width="24" height="25" viewBox="0 0 24 25" fill="none" xmlns="http://www.w3.org/2000/svg">
    <path
        d="M12.0853 24.5185C11.2033 24.5185 10.3783 24.1708 9.76218 23.5395C9.27968 23.045 8.60685 22.7615 7.91635 22.7615C7.77118 22.7615 7.62485 22.7738 7.48168 22.7985C7.29951 22.8295 7.11435 22.8453 6.93102 22.8453C5.33285 22.8453 3.95351 21.651 3.72251 20.0673C3.60035 19.2283 3.07318 18.503 2.31285 18.1272C1.52218 17.7363 0.936512 17.0592 0.663845 16.2202C0.391178 15.3813 0.467015 14.4892 0.877015 13.7083C1.27118 12.9575 1.27118 12.061 0.877015 11.3102C0.466849 10.529 0.391178 9.63699 0.663845 8.79816C0.936512 7.95916 1.52218 7.28183 2.31301 6.89116C3.07318 6.5155 3.60035 5.79033 3.72251 4.951C3.95351 3.36733 5.33285 2.173 6.93102 2.173C7.11435 2.173 7.29951 2.18883 7.48168 2.21983C7.62485 2.24449 7.77118 2.25683 7.91635 2.25683C8.60685 2.25683 9.27985 1.97333 9.76218 1.479C10.3783 0.847665 11.2033 0.5 12.0853 0.5C12.9675 0.5 13.7925 0.847665 14.4085 1.479C14.891 1.97333 15.5638 2.25683 16.2545 2.25683C16.3997 2.25683 16.546 2.24449 16.6892 2.21983C16.8713 2.18883 17.0565 2.173 17.2398 2.173C18.8378 2.173 20.2172 3.36733 20.4483 4.951C20.5707 5.79017 21.0977 6.5155 21.8577 6.89116C22.6485 7.282 23.2342 7.95916 23.5068 8.79816C23.7795 9.63699 23.7038 10.5292 23.2937 11.3102C22.8995 12.061 22.8995 12.9575 23.2937 13.7083C23.7037 14.4893 23.7795 15.3813 23.5068 16.2202C23.2342 17.0592 22.6487 17.7365 21.8577 18.1272C21.0977 18.503 20.5705 19.2282 20.4483 20.0673C20.2172 21.651 18.8378 22.8452 17.2398 22.8453C17.0567 22.8453 16.8713 22.8295 16.6892 22.7985C16.546 22.774 16.3997 22.7615 16.2545 22.7615C15.5637 22.7615 14.8908 23.045 14.4085 23.5393C13.7925 24.1708 12.9675 24.5185 12.0853 24.5185Z"
        fill="url(#paint0_linear_3007_142904)" />
    <path
        d="M14.1703 1.71053C14.8389 2.39586 15.8018 2.7087 16.7458 2.54736C18.3589 2.2717 19.8826 3.3787 20.1188 4.99803C20.2569 5.94553 20.8521 6.76453 21.7104 7.18886C23.1776 7.91403 23.7596 9.7052 22.9988 11.154C22.5536 12.0019 22.5536 13.0142 22.9988 13.862C23.7594 15.311 23.1776 17.1022 21.7104 17.8274C20.8521 18.2517 20.2569 19.0707 20.1188 20.0182C19.8826 21.6375 18.3589 22.7445 16.7458 22.4689C15.8019 22.3075 14.8391 22.6204 14.1703 23.3057C13.0273 24.477 11.1439 24.477 10.0009 23.3057C9.33211 22.6204 8.36928 22.3075 7.42544 22.4689C5.81228 22.7445 4.28861 21.6375 4.05244 20.0182C3.91427 19.0707 3.31911 18.2517 2.46077 17.8274C0.993605 17.1022 0.411608 15.311 1.17244 13.862C1.61761 13.0142 1.61761 12.0019 1.17244 11.154C0.411608 9.70503 0.993605 7.91386 2.46077 7.18886C3.31927 6.76453 3.91427 5.94553 4.05244 4.99803C4.28877 3.3787 5.81228 2.2717 7.42544 2.54736C8.36928 2.7087 9.33211 2.39586 10.0009 1.71053C11.1439 0.539198 13.0273 0.539198 14.1703 1.71053Z"
        fill="url(#paint1_linear_3007_142904)" />
    <path
        d="M12.0855 20.7861C16.6572 20.7861 20.3633 17.08 20.3633 12.5083C20.3633 7.93658 16.6572 4.23047 12.0855 4.23047C7.51373 4.23047 3.80762 7.93658 3.80762 12.5083C3.80762 17.08 7.51373 20.7861 12.0855 20.7861Z"
        fill="url(#paint2_linear_3007_142904)" />
    <path
        d="M12.082 20.5098C16.5003 20.5098 20.082 16.928 20.082 12.5098C20.082 8.09149 16.5003 4.50977 12.082 4.50977C7.66375 4.50977 4.08203 8.09149 4.08203 12.5098C4.08203 16.928 7.66375 20.5098 12.082 20.5098Z"
        fill="url(#paint3_linear_3007_142904)" />
    <path
        d="M12.0853 18.3424C15.3069 18.3424 17.9186 15.7308 17.9186 12.5091C17.9186 9.28745 15.3069 6.67578 12.0853 6.67578C8.86363 6.67578 6.25195 9.28745 6.25195 12.5091C6.25195 15.7308 8.86363 18.3424 12.0853 18.3424Z"
        fill="url(#paint4_linear_3007_142904)" />
    <path
        d="M14.1871 17.0251C14.0476 17.0251 13.9083 17.0042 13.7729 16.9632L12.361 16.5359C12.2895 16.5142 12.2158 16.5034 12.1416 16.5034C12.0675 16.5034 11.9936 16.5142 11.9225 16.5359L10.5101 16.9632C10.375 17.0042 10.2356 17.0251 10.096 17.0251C9.32795 17.0251 8.69012 16.3991 8.67462 15.6297L8.64479 14.1544C8.64195 14.0047 8.59495 13.8604 8.50928 13.7371L7.66645 12.5264C7.40962 12.1576 7.34195 11.7007 7.48095 11.2732C7.61979 10.8457 7.94312 10.5159 8.36762 10.3682L9.76129 9.88422C9.90279 9.83505 10.0255 9.74589 10.1161 9.62639L11.0073 8.45056C11.2788 8.09222 11.6921 7.88672 12.1418 7.88672C12.5913 7.88672 13.0048 8.09222 13.2763 8.45056L14.1674 9.62639C14.2581 9.74589 14.3808 9.83505 14.5223 9.88422L15.9159 10.3682C16.3406 10.5159 16.6638 10.8456 16.8026 11.2732C16.9416 11.7007 16.874 12.1576 16.6171 12.5264L15.7741 13.7372C15.6885 13.8604 15.6416 14.0046 15.6386 14.1542L15.6088 15.6296C15.5931 16.3989 14.9554 17.0249 14.1874 17.0251H14.1871Z"
        fill="url(#paint5_linear_3007_142904)" />
    <path
        d="M13.0113 8.6505L13.9024 9.82633C14.0324 9.99783 14.2103 10.1272 14.4136 10.1977L15.8073 10.6818C16.4896 10.9188 16.7569 11.7417 16.3443 12.3345L15.5013 13.5453C15.3783 13.722 15.3104 13.931 15.3061 14.1462L15.2764 15.6212C15.2619 16.3433 14.5618 16.8518 13.8706 16.6425L12.4586 16.215C12.2526 16.1527 12.0328 16.1527 11.8268 16.215L10.4148 16.6425C9.72342 16.8518 9.02342 16.3432 9.00892 15.6212L8.97926 14.1462C8.97493 13.931 8.90692 13.7218 8.78409 13.5453L7.94109 12.3345C7.52843 11.7417 7.79576 10.9188 8.47809 10.6818L9.87176 10.1977C10.0751 10.127 10.2529 9.99783 10.3829 9.82633L11.2739 8.6505C11.7099 8.07483 12.5751 8.07483 13.0113 8.6505Z"
        fill="url(#paint6_linear_3007_142904)" />
    <path
        d="M8.7851 13.5465C8.9081 13.7232 8.97593 13.9322 8.98026 14.1473L9.00993 15.6223C9.02443 16.3445 9.72459 16.853 10.4158 16.6437L11.8278 16.2162C12.0338 16.1538 12.2536 16.1538 12.4596 16.2162L13.8716 16.6437C14.5628 16.853 15.2629 16.3443 15.2774 15.6223L15.3071 14.1473C15.3114 13.9322 15.3794 13.723 15.5023 13.5465L16.3453 12.3357C16.4848 12.1353 16.5449 11.9088 16.5393 11.6875C13.8978 12.8228 10.9268 13.296 8.74609 13.4908L8.7851 13.5465Z"
        fill="url(#paint7_linear_3007_142904)" />
    <path
        d="M12.2509 9.70145C11.9649 10.0854 11.5772 10.2809 11.3852 10.1378C11.1932 9.99478 11.2694 9.56745 11.5556 9.18345C11.8416 8.79945 12.2292 8.60395 12.4212 8.74712C12.6132 8.88995 12.5369 9.31728 12.2509 9.70145Z"
        fill="#FFF9C4" />
    <path
        d="M11.2547 10.6814C11.2059 10.8392 11.0385 10.9276 10.8807 10.8787C10.7229 10.8299 10.6345 10.6626 10.6834 10.5047C10.7322 10.3469 10.8995 10.2586 11.0574 10.3074C11.215 10.3562 11.3034 10.5236 11.2547 10.6814Z"
        fill="#FFF9C4" />
    <path
        d="M14.6442 15.5926C14.6442 15.7613 14.5074 15.8981 14.3387 15.8981C14.1699 15.8981 14.0332 15.7613 14.0332 15.5926C14.0332 15.4238 14.17 15.2871 14.3387 15.2871C14.5075 15.2871 14.6442 15.4238 14.6442 15.5926Z"
        fill="#FDD835" />
    <defs>
        <linearGradient id="paint0_linear_3007_142904" x1="12.0853" y1="1.53798" x2="12.0853" y2="32.4835"
            gradientUnits="userSpaceOnUse">
            <stop stop-color="#FFEE58" />
            <stop offset="0.6311" stop-color="#F4991E" />
            <stop offset="0.995" stop-color="#EF6C00" />
        </linearGradient>
        <linearGradient id="paint1_linear_3007_142904" x1="12.0856" y1="1.84138" x2="12.0856" y2="31.928"
            gradientUnits="userSpaceOnUse">
            <stop stop-color="#FFD54F" />
            <stop offset="0.4801" stop-color="#FFAF16" />
            <stop offset="0.6546" stop-color="#FFA000" />
        </linearGradient>
        <linearGradient id="paint2_linear_3007_142904" x1="12.0855" y1="23.3416" x2="12.0855" y2="4.53104"
            gradientUnits="userSpaceOnUse">
            <stop stop-color="#FFEE58" />
            <stop offset="0.6311" stop-color="#F4991E" />
            <stop offset="0.995" stop-color="#EF6C00" />
        </linearGradient>
        <linearGradient id="paint3_linear_3007_142904" x1="12.082" y1="5.2013" x2="12.082" y2="25.8157"
            gradientUnits="userSpaceOnUse">
            <stop stop-color="#FF8F00" />
            <stop offset="0.995" stop-color="#B13827" />
        </linearGradient>
        <linearGradient id="paint4_linear_3007_142904" x1="12.0853" y1="7.18003" x2="12.0853" y2="22.2114"
            gradientUnits="userSpaceOnUse">
            <stop stop-color="#FFD54F" />
            <stop offset="0.4801" stop-color="#FFAF16" />
            <stop offset="0.6546" stop-color="#FFA000" />
        </linearGradient>
        <linearGradient id="paint5_linear_3007_142904" x1="11.5305" y1="8.90499" x2="13.6229" y2="18.5303"
            gradientUnits="userSpaceOnUse">
            <stop stop-color="#FF8F00" />
            <stop offset="0.995" stop-color="#B13827" />
        </linearGradient>
        <linearGradient id="paint6_linear_3007_142904" x1="11.589" y1="9.1673" x2="13.5335" y2="18.1117"
            gradientUnits="userSpaceOnUse">
            <stop stop-color="#FFD54F" />
            <stop offset="0.4801" stop-color="#FFCE16" />
            <stop offset="0.6546" stop-color="#FFCB00" />
        </linearGradient>
        <linearGradient id="paint7_linear_3007_142904" x1="13.9627" y1="19.7178" x2="11.4627" y2="7.0511"
            gradientUnits="userSpaceOnUse">
            <stop stop-color="#FFD54F" />
            <stop offset="0.4801" stop-color="#FFAF16" />
            <stop offset="0.6546" stop-color="#FFA000" />
        </linearGradient>
    </defs>
</svg>