<svg width="240" height="221" viewBox="0 0 240 221" fill="none" xmlns="http://www.w3.org/2000/svg">
<g opacity="0.25">
<path d="M58.2695 167.623L61.5383 186.218H78.0815L75.7031 167.623H58.2695Z" fill="#DDDDE3"/>
<path d="M100.845 186.218V167.623H82.3867L84.7675 186.218H100.845Z" fill="#DDDDE3"/>
<path d="M100.845 118.584H76.1152L78.1768 134.686H100.845V118.584Z" fill="#DDDDE3"/>
<path d="M26.5416 44.1216H26.1768C29.9232 44.1216 33.4896 44.7696 36.7224 45.9336V18.5448C36.7224 15.7008 39.0264 13.3992 41.868 13.3992H94.176C97.02 13.3992 99.3216 15.7032 99.3216 18.5448V35.1624C105.511 33.2832 112.56 32.34 120.437 32.34C139.524 32.34 153.571 37.8888 162.192 48.828C169.478 58.0752 171.382 69.3216 171.497 78.1152C172.62 78.6264 173.669 79.2744 174.622 80.0376C176.681 81.6816 178.296 83.8536 179.263 86.3472H195.794C186.506 82.9128 180.031 75.1776 180.031 66.1848C180.031 60.0936 183.005 54.576 187.807 50.5848C192.61 46.5936 199.246 44.1216 206.575 44.1216H213.456C220.783 44.1216 227.419 41.652 232.222 37.6584C237.024 33.6672 239.998 28.152 239.998 22.0584C239.998 9.876 228.113 0 213.456 0H26.5416C19.2144 0 12.5784 2.4672 7.77601 6.4632C2.97361 10.4544 0 15.9672 0 22.0608C0 34.2456 11.8848 44.1216 26.5416 44.1216Z" fill="white"/>
<path d="M53.5293 140.674L57.2133 161.635H74.9397L72.2565 140.674H53.5293Z" fill="#DDDDE3"/>
<path d="M49.6445 118.584L52.4741 134.686H71.4917L69.4325 118.584H49.6445Z" fill="#DDDDE3"/>
<path d="M120.438 40.2051C112.329 40.2051 105.273 41.2947 99.3231 43.4619V48.4875C99.3231 51.3267 97.0192 53.6307 94.1776 53.6307H85.8447V58.4835C85.8447 60.7131 83.2096 61.8987 81.5392 60.4179L80.5384 59.5275C77.536 65.3475 76.3359 71.6691 75.9688 77.1051C76.0215 77.1147 76.0744 77.1267 76.1296 77.1387C78.3664 77.6475 80.4088 78.6531 82.1368 80.0355C84.1936 81.6795 85.8087 83.8515 86.7759 86.3451H151.29C152.063 84.3531 153.246 82.5699 154.737 81.0963C155.116 80.7195 155.512 80.3691 155.93 80.0355C158.073 78.3219 160.694 77.1867 163.566 76.8603C163.3 69.5787 161.586 60.7395 155.99 53.6595C148.934 44.7315 136.974 40.2051 120.441 40.2051H120.438Z" fill="#DDDDE3"/>
<path d="M100.846 140.674H78.9434L81.6218 161.635H100.846V140.674Z" fill="#DDDDE3"/>
<path d="M213.458 176.487H182.928L180.163 192.209H181.111C183.487 192.209 185.414 194.136 185.414 196.512V203.33C185.414 205.706 183.487 207.634 181.111 207.634H56.952C54.576 207.634 52.6488 205.706 52.6488 203.33V196.512C52.6488 194.136 54.576 192.209 56.952 192.209H55.8696L51.5448 167.626L51.192 165.629C50.0496 167.237 48.6696 168.715 47.0904 170.028C42.288 174.019 35.652 176.491 28.3224 176.491H26.5416C19.2144 176.491 12.5784 178.961 7.77601 182.955C2.97361 186.941 0 192.456 0 198.547C0 210.73 11.8848 220.606 26.5416 220.606H213.458C220.786 220.606 227.422 218.138 232.224 214.142C237.026 210.151 240 204.638 240 198.545C240 186.36 228.115 176.484 213.458 176.484V176.487Z" fill="white"/>
<path d="M135.184 134.686H144.99C148.556 133.202 152.579 132.365 156.839 132.365H158.152L159.916 118.584H135.186V134.686H135.184Z" fill="#DDDDE3"/>
<path d="M164.838 132.365H183.964L186.388 118.584H166.6L164.838 132.365Z" fill="#DDDDE3"/>
<path d="M135.184 141.665C135.472 141.327 135.774 140.995 136.086 140.674H135.184V141.665Z" fill="#DDDDE3"/>
<path d="M128.542 140.674H107.486V161.635H128.542V140.674Z" fill="#DDDDE3"/>
<path d="M176.202 176.486H159.193L157.947 186.218H174.49L176.202 176.486Z" fill="#DDDDE3"/>
<path d="M213.458 88.2432H206.578C204.511 88.2432 202.5 88.0464 200.57 87.6768C201.312 88.4496 201.768 89.496 201.768 90.6504V108.293C201.768 110.671 199.841 112.596 197.465 112.596H40.5984C38.2224 112.596 36.2952 110.671 36.2952 108.293V90.6504C36.2952 88.2744 38.2224 86.3472 40.5984 86.3472H58.8C59.5704 84.3552 60.756 82.572 62.2464 81.0984C62.6256 80.7216 63.0216 80.3712 63.4368 80.0376C64.7904 78.9528 66.3384 78.1008 68.0208 77.544C68.3928 70.5048 69.9768 61.9704 74.496 54.1704L73.8912 53.6328H48C50.9712 57.1968 52.7136 61.5216 52.7136 66.1848C52.7136 72.276 49.7448 77.7888 44.9376 81.7824C40.1352 85.776 33.5016 88.2456 26.172 88.2456H26.5368C19.2096 88.2456 12.5736 90.7128 7.7712 94.7088C2.9736 98.6952 0 104.213 0 110.304C0 122.489 11.8848 132.365 26.5416 132.365H28.3224C35.2992 132.365 41.6448 134.602 46.38 138.259L45.7512 134.686L41.8656 112.596H194.165L190.687 132.365H213.458C220.786 132.365 227.422 129.898 232.224 125.902C237.026 121.91 240 116.395 240 110.302C240 98.1168 228.115 88.2408 213.458 88.2408V88.2432Z" fill="white"/>
<path d="M152.543 176.198C145.619 175.262 139.592 172.101 135.565 167.625H135.184V186.22H151.261L152.543 176.198Z" fill="#DDDDE3"/>
<path d="M128.542 118.584H107.486V134.686H128.542V118.584Z" fill="#DDDDE3"/>
<path d="M128.542 167.623H107.486V186.218H128.542V167.623Z" fill="#DDDDE3"/>
</g>
<g opacity="0.75">
<path d="M167.364 112.596H41.8652L45.7508 134.685L46.8044 140.673L50.4908 161.635L51.5444 167.623L55.8692 192.206H180.16L184.485 167.623L185.539 161.635L189.225 140.673L190.279 134.685L194.164 112.596H167.364ZM159.912 118.584L157.85 134.685H135.18V118.584H159.909H159.912ZM154.406 161.635H135.182V140.673H157.084L154.406 161.635ZM78.9404 140.673H100.843V161.635H81.6188L78.9404 140.673ZM107.484 140.673H128.539V161.635H107.484V140.673ZM128.539 118.584V134.685H107.484V118.584H128.539ZM100.843 118.584V134.685H78.1724L76.1108 118.584H100.84H100.843ZM49.6412 118.584H69.4292L71.4884 134.685H52.4708L49.6412 118.584ZM53.5268 140.673H72.2564L74.9372 161.635H57.2132L53.5268 140.673ZM61.538 186.218L58.2668 167.623H75.7004L78.0788 186.218H61.5356H61.538ZM84.7652 186.218L82.3868 167.623H100.845V186.218H84.7676H84.7652ZM107.484 186.218V167.623H128.539V186.218H107.484ZM135.18 186.218V167.623H153.638L151.26 186.218H135.182H135.18ZM174.487 186.218H157.944L160.322 167.623H177.756L174.484 186.218H174.487ZM178.812 161.635H161.09L163.771 140.673H182.5L178.812 161.635ZM164.536 134.685L166.596 118.584H186.384L183.549 134.685H164.534H164.536Z" fill="#DDDDE3"/>
</g>
<g opacity="0.5">
<path d="M201.768 90.6509V108.293C201.768 110.672 199.841 112.596 197.465 112.596H40.5981C38.2221 112.596 36.2949 110.672 36.2949 108.293V90.6509C36.2949 88.2749 38.2221 86.3477 40.5981 86.3477H58.7997C58.1469 88.0253 57.7917 89.8541 57.7917 91.7621C57.7917 96.5093 59.9973 100.74 63.4389 103.486C66.0021 105.533 69.2517 106.76 72.7893 106.76C76.3269 106.76 79.5741 105.536 82.1349 103.486C85.5765 100.74 87.7821 96.5117 87.7821 91.7621C87.7821 89.8541 87.4245 88.0277 86.7741 86.3477H151.289C150.641 88.0253 150.283 89.8541 150.283 91.7621C150.283 96.5093 152.489 100.74 155.93 103.486C158.493 105.533 161.741 106.76 165.276 106.76C168.811 106.76 172.061 105.536 174.621 103.486C178.065 100.74 180.269 96.5117 180.269 91.7621C180.269 89.8541 179.911 88.0277 179.263 86.3477H197.465C199.841 86.3477 201.768 88.2749 201.768 90.6509Z" fill="#DDDDE3"/>
</g>
<g opacity="0.5">
<path d="M181.737 192.209H56.3252C54.2948 192.209 52.6484 193.855 52.6484 195.886V203.959C52.6484 205.99 54.2948 207.636 56.3252 207.636H181.737C183.768 207.636 185.414 205.99 185.414 203.959V195.886C185.414 193.855 183.768 192.209 181.737 192.209Z" fill="#DDDDE3"/>
</g>
<path d="M180.765 192.926H55.2638L41.0078 111.876H195.023L180.767 192.926H180.765ZM56.4734 191.486H179.557L193.307 113.316H42.7238L56.4734 191.486ZM175.093 186.938H157.127L159.69 166.903H178.617L175.093 186.938ZM158.764 185.498H173.884L176.901 168.343H160.957L158.761 185.498H158.764ZM151.895 186.938H134.464V166.903H154.461L151.897 186.938H151.895ZM135.904 185.498H150.628L152.824 168.343H135.904V185.498ZM129.263 186.938H106.768V166.903H129.263V186.938ZM108.208 185.498H127.823V168.343H108.208V185.498ZM101.567 186.938H84.1358L81.5726 166.903H101.569V186.938H101.567ZM85.403 185.498H100.127V168.343H83.207L85.403 185.498ZM78.9014 186.938H60.935L57.4118 166.903H76.3382L78.9014 186.938ZM62.1446 185.498H77.2646L75.0686 168.343H59.1254L62.1422 185.498H62.1446ZM179.421 162.355H160.276L163.141 139.954H183.361L179.421 162.355ZM161.913 160.915H178.213L181.648 141.394H164.411L161.915 160.915H161.913ZM155.044 162.355H134.466V139.954H157.907L155.044 162.355ZM135.906 160.915H153.777L156.27 141.394H135.906V160.915ZM129.265 162.355H106.77V139.954H129.265V162.355ZM108.21 160.915H127.825V141.394H108.21V160.915ZM101.569 162.355H80.9918L78.1286 139.954H101.569V162.355ZM82.259 160.915H100.129V141.394H79.7654L82.259 160.915ZM75.7598 162.355H56.6126L52.6742 139.954H72.8942L75.7598 162.355ZM57.8222 160.915H74.1254L71.6294 141.394H54.3926L57.8246 160.915H57.8222ZM184.163 135.406H163.727L165.969 117.864H187.249L184.163 135.406ZM165.361 133.966H182.953L185.533 119.304H167.236L165.361 133.966ZM158.49 135.406H134.466V117.864H160.734L158.488 135.406H158.49ZM135.906 133.966H157.221L159.097 119.304H135.904V133.966H135.906ZM129.265 135.406H106.77V117.864H129.265V135.406ZM108.21 133.966H127.825V119.304H108.21V133.966ZM101.569 135.406H77.5454L75.299 117.864H101.567V135.406H101.569ZM78.815 133.966H100.129V119.304H76.9358L78.8126 133.966H78.815ZM72.3134 135.406H51.875L48.791 117.864H70.0718L72.3134 135.406ZM53.0822 133.966H70.6766L68.8022 119.304H50.5046L53.0822 133.966Z" fill="#DDDDE3"/>
<path d="M197.464 113.316H40.5974C37.8278 113.316 35.5742 111.063 35.5742 108.293V90.6506C35.5742 87.881 37.8278 85.6274 40.5974 85.6274H59.8502L59.4686 86.609C58.8326 88.2482 58.5086 89.981 58.5086 91.7618C58.5086 96.1298 60.467 100.198 63.8846 102.922C66.4358 104.959 69.5126 106.037 72.7838 106.037C76.055 106.037 79.1318 104.959 81.6806 102.922C85.0982 100.198 87.0566 96.1298 87.0566 91.7618C87.0566 89.9834 86.7326 88.2506 86.0966 86.609L85.7174 85.6274H152.334L151.955 86.6066C151.319 88.2482 150.997 89.9834 150.997 91.7594C150.997 96.1274 152.956 100.195 156.373 102.919C158.925 104.957 161.999 106.035 165.27 106.035C168.541 106.035 171.618 104.957 174.167 102.919C177.585 100.195 179.543 96.1298 179.543 91.7594C179.543 89.9834 179.221 88.2506 178.585 86.6042L178.206 85.625H197.457C200.226 85.625 202.48 87.8786 202.48 90.6482V108.291C202.48 111.06 200.226 113.314 197.457 113.314L197.464 113.316ZM40.5998 87.065C38.6246 87.065 37.0166 88.673 37.0166 90.6482V108.291C37.0166 110.266 38.6246 111.874 40.5998 111.874H197.464C199.439 111.874 201.047 110.266 201.047 108.291V90.6482C201.047 88.673 199.439 87.065 197.464 87.065H180.275C180.748 88.5794 180.988 90.1538 180.988 91.7594C180.988 96.5714 178.83 101.047 175.069 104.045C172.261 106.289 168.875 107.475 165.275 107.475C161.675 107.475 158.286 106.289 155.478 104.045C151.717 101.045 149.56 96.569 149.56 91.7594C149.56 90.1538 149.8 88.5794 150.273 87.065H87.7862C88.2614 88.577 88.499 90.1514 88.499 91.7594C88.499 96.569 86.3414 101.045 82.5806 104.045C79.775 106.289 76.3862 107.475 72.7862 107.475C69.1862 107.475 65.7542 106.255 62.987 104.045C59.2262 101.045 57.071 96.569 57.071 91.7594C57.071 90.1514 57.311 88.577 57.7838 87.065H40.5974H40.5998Z" fill="#DDDDE3"/>
<path d="M181.737 208.354H56.3245C53.9005 208.354 51.9277 206.381 51.9277 203.957V195.883C51.9277 193.459 53.9005 191.486 56.3245 191.486H181.737C184.161 191.486 186.133 193.459 186.133 195.883V203.957C186.133 206.381 184.161 208.354 181.737 208.354ZM56.3245 192.926C54.6949 192.926 53.3677 194.254 53.3677 195.883V203.957C53.3677 205.586 54.6949 206.914 56.3245 206.914H181.737C183.366 206.914 184.693 205.586 184.693 203.957V195.883C184.693 194.254 183.366 192.926 181.737 192.926H56.3245Z" fill="#DDDDE3"/>
<g opacity="0.25">
<path d="M87.7814 91.7594C87.7814 96.5066 85.5758 100.738 82.1342 103.483C79.571 105.531 76.3238 106.757 72.7886 106.757C69.2534 106.757 66.0014 105.533 63.4382 103.483C59.9966 100.738 57.791 96.509 57.791 91.7594C57.791 89.8514 58.1486 88.0226 58.799 86.345C59.5694 84.353 60.755 82.5698 62.2454 81.0962C62.6246 80.7194 63.0206 80.369 63.4358 80.0354C64.7894 78.9506 66.3374 78.0986 68.0198 77.5418C69.5174 77.0378 71.1182 76.7666 72.7838 76.7666C73.8758 76.7666 74.9414 76.8842 75.9638 77.1074C76.0166 77.117 76.0694 77.129 76.1246 77.141C78.3614 77.6498 80.4038 78.6554 82.1318 80.0378C84.1886 81.6818 85.8038 83.8538 86.771 86.3474C87.4238 88.0274 87.779 89.8538 87.779 91.7618L87.7814 91.7594Z" fill="#DDDDE3"/>
</g>
<g opacity="0.5">
<path d="M72.7887 98.9954C76.7852 98.9954 80.0247 95.7559 80.0247 91.7594C80.0247 87.763 76.7852 84.5234 72.7887 84.5234C68.7927 84.5234 65.5527 87.763 65.5527 91.7594C65.5527 95.7559 68.7927 98.9954 72.7887 98.9954Z" fill="#DDDDE3"/>
</g>
<g opacity="0.75">
<path d="M80.539 59.5276C77.5366 65.3476 76.3366 71.6692 75.9694 77.1052C74.947 76.8844 73.8814 76.7644 72.7894 76.7644C71.1238 76.7644 69.523 77.038 68.0254 77.5396C68.3974 70.5004 69.9814 61.966 74.5006 54.166L80.5414 59.5252L80.539 59.5276Z" fill="#DDDDE3"/>
</g>
<path d="M67.248 78.5612L67.3032 77.5028C67.7784 68.4812 69.9888 60.5108 73.8744 53.8052L74.316 53.042L81.4344 59.3588L81.1776 59.8556C78.6408 64.7732 77.1288 70.5908 76.6848 77.1524L76.6296 77.9852L75.8136 77.8076C74.8248 77.594 73.8072 77.4836 72.7872 77.4836C71.2368 77.4836 69.7104 77.7308 68.2512 78.2204L67.248 78.5564V78.5612ZM74.6856 55.298C71.328 61.3844 69.3504 68.5268 68.8032 76.5572C70.908 76.0052 73.1472 75.8996 75.3096 76.25C75.816 70.0388 77.2728 64.478 79.6464 59.6996L74.688 55.298H74.6856Z" fill="#DDDDE3"/>
<g opacity="0.25">
<path d="M180.269 91.7589C180.269 96.5061 178.066 100.737 174.622 103.483C172.058 105.53 168.811 106.756 165.276 106.756C161.741 106.756 158.491 105.532 155.93 103.483C152.489 100.737 150.283 96.5085 150.283 91.7589C150.283 89.8509 150.641 88.0221 151.289 86.3445C152.062 84.3525 153.245 82.5693 154.735 81.0957C155.114 80.7189 155.51 80.3685 155.928 80.0349C158.071 78.3213 160.692 77.1861 163.565 76.8597C164.126 76.7973 164.698 76.7637 165.276 76.7637C166.426 76.7637 167.544 76.8933 168.619 77.1381C169.62 77.3661 170.585 77.6949 171.499 78.1125C172.622 78.6237 173.671 79.2717 174.624 80.0349C176.683 81.6789 178.298 83.8509 179.266 86.3445C179.914 88.0245 180.271 89.8509 180.271 91.7589H180.269Z" fill="#DDDDE3"/>
</g>
<path d="M72.7875 107.474C69.2355 107.474 65.7555 106.255 62.9883 104.045C59.2275 101.045 57.0723 96.5688 57.0723 91.7592C57.0723 89.7984 57.4275 87.8904 58.1307 86.0856C58.9323 84.0096 60.1491 82.1592 61.7427 80.5872C62.1315 80.2032 62.5395 79.8384 62.9883 79.476C64.4331 78.3192 66.0507 77.4408 67.7979 76.86C69.4011 76.3224 71.0811 76.0488 72.7899 76.0488C73.9059 76.0488 75.0219 76.1664 76.1043 76.4016C76.1475 76.4088 76.1931 76.4184 76.2363 76.428L76.2771 76.4376C78.5739 76.9608 80.7507 78.0096 82.5843 79.476C84.7611 81.216 86.4435 83.5032 87.4443 86.088C88.1451 87.8952 88.5003 89.8056 88.5003 91.7616C88.5003 96.5712 86.3427 101.047 82.5819 104.047C79.7763 106.291 76.3875 107.477 72.7875 107.477V107.474ZM72.7875 77.484C71.2371 77.484 69.7107 77.7312 68.2515 78.2208C66.6651 78.7488 65.1963 79.5456 63.8883 80.5944C63.4779 80.9232 63.1083 81.2544 62.7555 81.6048C61.3059 83.0352 60.2019 84.7176 59.4723 86.6016C58.8339 88.2408 58.5123 89.976 58.5123 91.7544C58.5123 96.1224 60.4707 100.19 63.8883 102.914C66.4395 104.952 69.5163 106.03 72.7875 106.03C76.0587 106.03 79.1355 104.952 81.6843 102.914C85.1019 100.19 87.0603 96.1224 87.0603 91.7544C87.0603 89.976 86.7363 88.2432 86.1003 86.6016C85.1907 84.252 83.6643 82.176 81.6843 80.5944C80.0187 79.2624 78.0435 78.3096 75.9675 77.8368L75.9147 77.8248C75.8955 77.82 75.8763 77.8152 75.8571 77.8128L75.8163 77.8056C74.8275 77.592 73.8099 77.4816 72.7899 77.4816L72.7875 77.484Z" fill="#DDDDE3"/>
<path d="M165.276 107.474C161.676 107.474 158.287 106.288 155.479 104.044C151.718 101.044 149.561 96.5683 149.561 91.7587C149.561 89.8027 149.916 87.8947 150.614 86.0851C151.421 84.0043 152.637 82.1539 154.226 80.5843C154.62 80.1931 155.028 79.8307 155.477 79.4731C157.783 77.6299 160.55 76.4779 163.481 76.1467C164.085 76.0795 164.688 76.0459 165.273 76.0459C166.454 76.0459 167.633 76.1779 168.775 76.4371C169.817 76.6747 170.832 77.0179 171.794 77.4595C172.956 77.9875 174.057 78.6667 175.068 79.4731C177.247 81.2131 178.929 83.4979 179.93 86.0851C180.631 87.8971 180.984 89.8051 180.984 91.7587C180.984 96.5707 178.826 101.047 175.065 104.044C172.257 106.288 168.871 107.474 165.271 107.474H165.276ZM165.276 77.4835C164.743 77.4835 164.193 77.5147 163.644 77.5747C160.987 77.8771 158.474 78.9211 156.379 80.5963C155.971 80.9227 155.599 81.2515 155.241 81.6067C153.797 83.0347 152.693 84.7147 151.958 86.6035C151.322 88.2451 151.001 89.9779 151.001 91.7563C151.001 96.1243 152.959 100.192 156.377 102.916C158.928 104.954 162.002 106.031 165.273 106.031C168.545 106.031 171.621 104.954 174.17 102.916C177.588 100.192 179.546 96.1267 179.546 91.7563C179.546 89.9803 179.225 88.2475 178.589 86.6011C177.679 84.2515 176.15 82.1755 174.17 80.5939C173.251 79.8595 172.253 79.2451 171.197 78.7651C170.321 78.3643 169.399 78.0523 168.456 77.8363C167.417 77.6011 166.346 77.4811 165.273 77.4811L165.276 77.4835Z" fill="#DDDDE3"/>
<g opacity="0.5">
<path d="M165.277 98.9954C169.273 98.9954 172.513 95.7559 172.513 91.7594C172.513 87.763 169.273 84.5234 165.277 84.5234C161.281 84.5234 158.041 87.763 158.041 91.7594C158.041 95.7559 161.281 98.9954 165.277 98.9954Z" fill="#DDDDE3"/>
</g>
<g opacity="0.75">
<path d="M171.501 78.1156C170.589 77.698 169.622 77.3692 168.621 77.1412C167.546 76.8964 166.428 76.7668 165.278 76.7668C164.7 76.7668 164.129 76.8004 163.567 76.8628C163.301 69.5812 161.587 60.742 155.99 53.662C148.934 44.734 136.975 40.2076 120.441 40.2076C112.332 40.2076 105.276 41.2972 99.3262 43.4644V35.1652C105.516 33.286 112.565 32.3428 120.441 32.3428C139.529 32.3428 153.576 37.8916 162.197 48.8308C169.483 58.078 171.386 69.3244 171.501 78.118V78.1156Z" fill="#DDDDE3"/>
</g>
<path d="M172.233 79.2429L171.198 78.7677C170.325 78.3669 169.403 78.0549 168.46 77.8413C166.905 77.4885 165.304 77.3949 163.645 77.5773L162.875 77.6613L162.846 76.8885C162.505 67.5717 160.007 59.9085 155.425 54.1077C148.513 45.3621 136.741 40.9269 120.441 40.9269C112.449 40.9269 105.429 42.0069 99.5727 44.1405L98.6055 44.4933V34.6317L99.1167 34.4757C105.354 32.5821 112.528 31.6221 120.441 31.6221C139.758 31.6221 153.997 37.2621 162.76 48.3837C170.382 58.0581 172.11 69.8877 172.218 78.1077L172.233 79.2453V79.2429ZM165.275 76.0461C166.456 76.0461 167.634 76.1781 168.777 76.4373C169.449 76.5909 170.109 76.7877 170.752 77.0277C170.509 69.1005 168.669 58.2093 161.625 49.2741C153.148 38.5149 139.29 33.0597 120.436 33.0597C112.881 33.0597 106.024 33.9477 100.041 35.6997V42.4461C105.853 40.4805 112.708 39.4869 120.436 39.4869C137.2 39.4869 149.349 44.1045 156.549 53.2149C161.2 59.1021 163.789 66.7917 164.248 76.0821C164.593 76.0605 164.934 76.0485 165.273 76.0485L165.275 76.0461Z" fill="#DDDDE3"/>
<g opacity="0.5">
<path d="M99.3223 18.545V48.4874C99.3223 51.3266 97.0183 53.6306 94.1767 53.6306H85.8439V58.4834C85.8439 60.713 83.2087 61.8986 81.5383 60.4178L80.5375 59.5274L74.4967 54.1682L73.8919 53.6306H41.8663C39.0223 53.6306 36.7207 51.3266 36.7207 48.4874V18.545C36.7207 15.701 39.0247 13.3994 41.8663 13.3994H94.1743C97.0183 13.3994 99.3199 15.7034 99.3199 18.545H99.3223Z" fill="#DDDDE3"/>
</g>
<path d="M83.2474 61.7952C82.4602 61.7952 81.6875 61.5096 81.0635 60.9552L80.0627 60.0624L73.6235 54.348H41.8715C38.6363 54.348 36.0059 51.7176 36.0059 48.4848V18.5424C36.0059 15.3072 38.6363 12.6768 41.8715 12.6768H94.1819C97.4171 12.6768 100.047 15.3096 100.047 18.5424V48.4848C100.047 51.7176 97.4171 54.348 94.1819 54.348H86.569V58.4808C86.569 59.7984 85.8227 60.9552 84.6203 61.4952C84.1763 61.6944 83.7106 61.7928 83.2499 61.7928L83.2474 61.7952ZM41.8691 14.1192C39.4283 14.1192 37.4435 16.104 37.4435 18.5448V48.4872C37.4435 50.9256 39.4283 52.9104 41.8691 52.9104H74.1683L82.0187 59.88C82.585 60.3816 83.3338 60.4944 84.025 60.1848C84.7138 59.8752 85.1266 59.2392 85.1266 58.4832V52.9104H94.1795C96.6203 52.9104 98.605 50.9256 98.605 48.4872V18.5448C98.605 16.104 96.6203 14.1192 94.1795 14.1192H41.8691Z" fill="#DDDDE3"/>
<path d="M59.2231 30.5804C59.2231 27.182 59.9911 24.5516 61.5295 22.6916C63.0679 20.8316 65.2351 19.9004 68.0311 19.9004C70.8295 19.9004 72.9943 20.8244 74.5255 22.6748C76.0567 24.5252 76.8223 27.1556 76.8223 30.566V35.1788C76.8223 38.5652 76.0543 41.1908 74.5159 43.0508C72.9775 44.9132 70.8055 45.842 67.9951 45.842C65.2087 45.842 63.0511 44.918 61.5175 43.0676C59.9863 41.2172 59.2207 38.5868 59.2207 35.1788V30.5828L59.2231 30.5804ZM65.0671 36.0596C65.0791 37.874 65.3215 39.206 65.7943 40.0556C66.2695 40.9052 67.0015 41.33 67.9975 41.33C69.0271 41.33 69.7783 40.8932 70.2511 40.0196C70.7263 39.146 70.9615 37.7684 70.9615 35.8844V29.4332C70.9279 27.746 70.6807 26.486 70.2247 25.6532C69.7687 24.8204 69.0367 24.4052 68.0311 24.4052C67.0255 24.4052 66.2503 24.854 65.7775 25.7492C65.3047 26.6444 65.0671 28.0004 65.0671 29.8148V36.0572V36.0596Z" fill="#FF3F1A"/>
<path d="M138.019 78.6501C137.995 78.6501 137.971 78.6501 137.945 78.6453C137.734 78.6237 137.518 78.5925 137.302 78.5541C135.173 78.1653 133.692 76.7349 133.239 74.6325C133.155 74.2437 133.402 73.8597 133.791 73.7757C134.179 73.6917 134.563 73.9389 134.647 74.3277C134.839 75.2133 135.473 76.7541 137.563 77.1381C137.741 77.1717 137.921 77.1957 138.094 77.2149C138.49 77.2557 138.778 77.6085 138.737 78.0045C138.699 78.3741 138.387 78.6525 138.022 78.6525L138.019 78.6501ZM114.691 77.7405C114.651 77.7405 114.612 77.7381 114.571 77.7309C114.18 77.6661 113.914 77.2941 113.981 76.9029C114.317 74.8941 114.871 72.9837 115.632 71.2197C115.791 70.8549 116.213 70.6869 116.578 70.8429C116.943 71.0013 117.111 71.4237 116.955 71.7885C116.242 73.4469 115.719 75.2469 115.402 77.1405C115.342 77.4933 115.037 77.7429 114.691 77.7429V77.7405ZM143.199 76.6797C143.023 76.6797 142.848 76.6149 142.709 76.4877C142.419 76.2165 142.402 75.7605 142.673 75.4701C143.782 74.2797 144.562 72.5349 144.814 70.6869C144.867 70.2933 145.231 70.0173 145.625 70.0701C146.019 70.1229 146.295 70.4877 146.242 70.8813C145.949 73.0173 145.032 75.0453 143.727 76.4493C143.585 76.6005 143.393 76.6797 143.199 76.6797ZM172.839 73.8189C171.629 73.8189 170.383 73.7469 169.133 73.6053C168.979 73.5885 168.826 73.5693 168.672 73.5501C168.279 73.4997 167.998 73.1397 168.048 72.7437C168.099 72.3501 168.459 72.0717 168.855 72.1197C169.001 72.1389 169.147 72.1557 169.294 72.1725C171.058 72.3717 172.8 72.4245 174.468 72.3309C174.857 72.3069 175.205 72.6117 175.229 73.0101C175.251 73.4061 174.948 73.7469 174.55 73.7685C173.986 73.7997 173.41 73.8165 172.839 73.8165V73.8189ZM180.18 72.8469C179.866 72.8469 179.575 72.6381 179.487 72.3189C179.379 71.9349 179.604 71.5389 179.986 71.4309C181.8 70.9245 183.533 70.2117 185.139 69.3141C185.487 69.1197 185.923 69.2445 186.118 69.5901C186.312 69.9357 186.187 70.3749 185.842 70.5693C184.135 71.5245 182.295 72.2805 180.372 72.8181C180.307 72.8373 180.243 72.8445 180.178 72.8445L180.18 72.8469ZM163.131 72.3909C163.068 72.3909 163.003 72.3813 162.941 72.3645C161.115 71.8629 159.353 71.2893 157.407 70.6437C157.03 70.5189 156.823 70.1109 156.951 69.7341C157.075 69.3573 157.483 69.1509 157.86 69.2781C159.787 69.9165 161.53 70.4853 163.323 70.9773C163.707 71.0829 163.932 71.4789 163.827 71.8629C163.738 72.1821 163.45 72.3933 163.133 72.3933L163.131 72.3909ZM135.624 69.9573C135.435 69.9573 135.245 69.8829 135.103 69.7341C134.83 69.4461 134.839 68.9901 135.127 68.7165C136.819 67.1037 139.075 66.4413 140.667 66.1677C141.058 66.1005 141.43 66.3645 141.497 66.7557C141.564 67.1469 141.3 67.5189 140.909 67.5861C138.936 67.9245 137.235 68.6949 136.119 69.7581C135.979 69.8901 135.799 69.9573 135.622 69.9573H135.624ZM152.143 68.9397C152.079 68.9397 152.011 68.9301 151.944 68.9109C149.88 68.3205 148.126 67.9293 146.422 67.6821C146.028 67.6245 145.757 67.2597 145.812 66.8661C145.87 66.4725 146.237 66.2013 146.628 66.2589C148.399 66.5181 150.214 66.9213 152.34 67.5285C152.722 67.6389 152.945 68.0373 152.835 68.4189C152.743 68.7357 152.455 68.9421 152.143 68.9421V68.9397ZM119.275 67.3149C119.115 67.3149 118.951 67.2597 118.817 67.1493C118.512 66.8949 118.469 66.4413 118.723 66.1365C119.069 65.7213 119.434 65.3157 119.813 64.9293C120.816 63.9069 121.954 62.9901 123.199 62.2005C123.535 61.9869 123.979 62.0877 124.193 62.4237C124.407 62.7597 124.306 63.2037 123.97 63.4173C122.818 64.1469 121.764 64.9965 120.84 65.9373C120.49 66.2949 120.151 66.6693 119.832 67.0557C119.691 67.2261 119.484 67.3149 119.278 67.3149H119.275ZM190.123 67.2621C189.931 67.2621 189.742 67.1853 189.6 67.0365C189.327 66.7461 189.341 66.2925 189.629 66.0189C190.975 64.7469 192.173 63.3045 193.188 61.7301C193.404 61.3965 193.848 61.3005 194.184 61.5141C194.518 61.7301 194.614 62.1741 194.4 62.5101C193.323 64.1805 192.051 65.7141 190.62 67.0653C190.481 67.1973 190.303 67.2621 190.126 67.2621H190.123ZM144.387 65.9973C144.154 65.9973 143.926 65.8845 143.787 65.6781C142.863 64.2981 141.456 63.1005 139.726 62.2149C139.371 62.0349 139.231 61.6005 139.411 61.2453C139.591 60.8901 140.026 60.7509 140.381 60.9309C142.33 61.9269 143.923 63.2901 144.984 64.8741C145.205 65.2053 145.116 65.6517 144.787 65.8725C144.665 65.9541 144.526 65.9949 144.387 65.9949V65.9973ZM128.839 61.2261C128.52 61.2261 128.227 61.0125 128.143 60.6885C128.043 60.3045 128.273 59.9109 128.657 59.8101C130.147 59.4189 131.659 59.2173 133.155 59.2149H133.183C133.656 59.2149 134.139 59.2365 134.614 59.2797C135.01 59.3157 135.303 59.6661 135.264 60.0621C135.228 60.4581 134.875 60.7509 134.482 60.7125C134.05 60.6741 133.613 60.6525 133.183 60.6525H133.155C131.784 60.6549 130.395 60.8397 129.022 61.1997C128.959 61.2165 128.899 61.2237 128.839 61.2237V61.2261ZM196.315 57.6741C196.236 57.6741 196.157 57.6621 196.078 57.6333C195.703 57.5013 195.504 57.0909 195.636 56.7165C196.255 54.9477 196.663 53.1165 196.848 51.2733C196.889 50.8773 197.242 50.5917 197.635 50.6277C198.031 50.6685 198.319 51.0213 198.281 51.4149C198.084 53.3709 197.652 55.3149 196.995 57.1917C196.891 57.4893 196.613 57.6741 196.315 57.6741ZM197.424 46.3197C197.074 46.3197 196.769 46.0653 196.714 45.7077C196.428 43.8453 195.903 42.0573 195.147 40.3893C194.983 40.0269 195.144 39.5997 195.507 39.4365C195.869 39.2733 196.296 39.4341 196.459 39.7965C197.268 41.5845 197.832 43.4997 198.137 45.4893C198.197 45.8829 197.928 46.2501 197.535 46.3101C197.499 46.3149 197.46 46.3197 197.424 46.3197ZM192.711 35.9805C192.509 35.9805 192.307 35.8965 192.166 35.7309C190.973 34.3533 189.567 33.1293 187.987 32.0925C187.656 31.8741 187.563 31.4277 187.781 31.0965C187.999 30.7629 188.446 30.6717 188.777 30.8901C190.467 31.9989 191.974 33.3093 193.255 34.7901C193.515 35.0901 193.483 35.5461 193.183 35.8053C193.047 35.9229 192.879 35.9805 192.713 35.9805H192.711ZM183.231 29.6733C183.151 29.6733 183.067 29.6589 182.988 29.6301C181.709 29.1741 180.341 28.7973 178.923 28.5165C178.534 28.4397 178.279 28.0605 178.356 27.6693C178.433 27.2805 178.812 27.0261 179.203 27.1053C180.691 27.4029 182.127 27.7965 183.471 28.2765C183.845 28.4109 184.039 28.8213 183.907 29.1957C183.802 29.4909 183.526 29.6733 183.228 29.6733H183.231Z" fill="#38383D"/>
<g opacity="0.5">
<path d="M167.791 15.8315C169.702 10.6768 169.263 5.75963 166.808 4.84907C164.354 3.93899 160.814 7.37963 158.902 12.5344C156.991 17.6896 157.43 22.6062 159.884 23.5168C162.339 24.4273 165.879 20.9867 167.791 15.8315Z" fill="#C2E1FF"/>
</g>
<g opacity="0.5">
<path d="M167.111 29.4619C165.863 29.4619 164.583 29.2891 163.309 28.9483C158.07 27.5491 154.527 23.7091 155.413 20.3875C156.061 17.9563 158.931 16.3867 162.721 16.3867C163.969 16.3867 165.248 16.5595 166.523 16.9003C171.762 18.2995 175.304 22.1395 174.419 25.4611C173.771 27.8923 170.9 29.4619 167.111 29.4619Z" fill="#DDDDE3"/>
<path d="M162.72 16.5095C163.958 16.5095 165.225 16.6799 166.49 17.0183C171.667 18.4007 175.171 22.1735 174.3 25.4327C173.666 27.8087 170.841 29.3447 167.107 29.3447C165.868 29.3447 164.599 29.1743 163.336 28.8359C158.16 27.4535 154.658 23.6807 155.527 20.4215C156.16 18.0455 158.985 16.5095 162.72 16.5095ZM162.72 16.2695C159 16.2695 155.976 17.8079 155.296 20.3591C154.392 23.7503 157.965 27.6479 163.276 29.0663C164.592 29.4167 165.888 29.5823 167.109 29.5823C170.829 29.5823 173.853 28.0439 174.532 25.4927C175.437 22.1015 171.864 18.2039 166.552 16.7855C165.237 16.4351 163.941 16.2695 162.72 16.2695Z" fill="#DDDDE3"/>
</g>
<path d="M174.526 25.4888C175.431 22.0976 171.858 18.1995 166.546 16.7821C161.233 15.3647 156.193 16.965 155.289 20.3562C154.384 23.7474 157.956 27.6455 163.269 29.0629C168.581 30.4803 173.621 28.8805 174.526 25.4888Z" fill="#0B74E5"/>
<g opacity="0.5">
<path d="M169.603 21.4879C174.072 18.2858 176.459 13.9649 174.934 11.837C173.409 9.7092 168.55 10.5799 164.081 13.782C159.612 16.9841 157.225 21.305 158.749 23.4329C160.274 25.5607 165.133 24.69 169.603 21.4879Z" fill="#C2E1FF"/>
</g>
</svg>
