<svg width="1200" height="126" viewBox="0 0 1200 126" fill="none" xmlns="http://www.w3.org/2000/svg">
<path d="M161.103 38.2934C168.367 26.4719 175.632 14.6396 182.896 2.79661C183.381 2.02433 184.039 1.37549 184.819 0.901319C185.598 0.427145 186.476 0.140633 187.385 0.0644531H227.425C228.989 0.0644531 229.45 1.28588 228.582 2.79661C216.303 22.7968 203.996 42.797 191.66 62.7973C179.325 82.7975 167.046 102.798 154.824 122.798C154.332 123.561 153.674 124.202 152.898 124.673C152.122 125.145 151.249 125.434 150.346 125.519H108.827C107.959 125.519 107.317 125.176 107.231 124.512C104.274 112.405 101.274 100.266 98.4451 88.1689C95.6165 76.0724 92.6165 63.933 89.745 51.8043L67.9519 87.3118C60.6947 99.1262 53.4339 110.955 46.1695 122.798C45.6763 123.56 45.0174 124.2 44.2418 124.671C43.4663 125.143 42.5943 125.433 41.6909 125.519H1.64049C0.0869019 125.519 -0.502375 124.298 0.483349 122.798L37.3087 62.7973L74.1448 2.79661C74.6392 2.01383 75.311 1.35854 76.1059 0.883859C76.9007 0.409174 77.7963 0.128463 78.7199 0.0644531H120.238C121.106 0.0644531 121.749 0.407317 121.824 1.07161C124.695 13.2003 127.685 25.3183 130.524 37.447C133.363 49.5757 136.353 61.6722 139.321 73.7902L161.103 38.2934Z" fill="url(#paint0_linear_760_64201)"/>
<path d="M335.705 37.6397C349.769 25.5753 363.919 13.5144 378.155 1.45714C379.103 0.597011 380.317 0.0866924 381.594 0.0107249H426.959C427.362 -0.0325394 427.767 0.0814478 428.088 0.328939C428.409 0.576431 428.623 0.938336 428.684 1.3393C428.619 1.86988 428.446 2.38143 428.175 2.84222C427.904 3.30301 427.541 3.70319 427.109 4.0179C403.537 24.0181 380.001 44.0183 356.501 64.0185C333.001 84.0187 309.565 104.015 286.193 124.008C285.24 124.852 284.035 125.357 282.765 125.444H240.454C239.275 125.444 238.696 124.919 238.761 124.008C239.832 104.005 240.904 84.0009 241.975 64.0078C243.046 44.0147 244.118 24.0002 245.189 4.00717C245.443 2.95991 246.025 2.02125 246.85 1.32858C247.764 0.525002 248.924 0.0564472 250.139 0H295.504C296.576 0 297.154 0.535694 297.09 1.44642C296.383 13.5108 295.772 25.5646 295.076 37.629C294.379 49.6934 293.865 61.7471 293.361 73.8008C307.429 61.7578 321.615 49.6934 335.705 37.6397Z" fill="url(#paint1_linear_760_64201)"/>
<path d="M376.441 122.766C388.784 102.766 401.073 82.7653 413.309 62.7651C425.545 42.7649 437.834 22.7647 450.177 2.76445C450.667 1.97693 451.337 1.31793 452.133 0.842608C452.929 0.367283 453.827 0.0893886 454.752 0.0322266H569.836C579.243 0.0322266 585.607 3.68583 588.211 9.60018C590.815 15.5145 589.615 23.6575 584.161 32.6147C582.757 34.8326 581.45 37.0398 580.057 39.2577C574.614 48.1614 565.539 56.6257 555.018 62.7651C558.061 68.9259 556.711 77.3902 551.268 86.3368C549.864 88.5654 548.557 90.7725 547.164 92.9796C541.711 101.937 532.668 110.123 522.928 115.994C513.189 121.866 502.303 125.551 492.799 125.551H377.716C376.087 125.487 375.584 124.266 376.441 122.766ZM460.013 96.5368H489.017C494.621 96.5368 501.874 92.1975 505.089 86.8939C505.249 86.6903 505.335 86.4867 505.496 86.3046C508.292 81.226 506.246 77.2295 500.91 77.2295H450.252C446.31 83.6582 442.381 90.0868 438.467 96.5154L460.013 96.5368ZM518.632 48.322C523.989 48.322 530.921 44.3149 534.393 39.247C534.553 39.0648 534.639 38.8613 534.8 38.6577C538.014 33.3541 536.043 29.0147 530.514 29.0147H479.867C475.924 35.4434 471.995 41.872 468.081 48.3006H518.589L518.632 48.322Z" fill="url(#paint2_linear_760_64201)"/>
<path d="M615.372 106.866L605.472 123.012C605.002 123.723 604.381 124.322 603.653 124.764C602.925 125.207 602.108 125.483 601.261 125.573H563.589C562.121 125.573 561.521 124.427 562.411 123.012C573.961 104.205 585.504 85.4011 597.04 66.6009C608.575 47.8007 620.143 28.997 631.744 10.1896C632.214 9.46252 632.846 8.85273 633.588 8.40703C634.331 7.96133 635.166 7.69149 636.029 7.61816H741.684C750.588 7.61816 756.384 11.0682 758.891 16.6183C761.399 22.1683 760.381 29.8291 755.206 38.2507C750.727 45.5222 746.255 52.8008 741.791 60.0866C736.616 68.5081 728.152 76.1582 718.905 81.719C709.659 87.2798 699.544 90.7083 690.651 90.7083H625.294L615.372 106.866ZM678.587 63.4831H685.733C691.691 63.4831 699.33 58.8865 702.726 53.2722C704.398 50.54 706.144 47.8079 707.816 45.0543C711.212 39.4399 709.219 34.8435 703.337 34.8435H659.58L641.965 63.4831H678.587Z" fill="url(#paint3_linear_760_64201)"/>
<path d="M758.152 52.5758C766.799 38.4542 775.574 24.3327 784.21 10.1896C784.653 9.47043 785.258 8.86388 785.975 8.41769C786.693 7.9715 787.504 7.69782 788.345 7.61816H825.985C827.453 7.61816 827.967 8.77535 827.164 10.1896C819.171 23.1862 811.092 36.1721 803.196 49.1686C795.299 62.1652 787.317 75.1618 779.324 88.1476C775.863 93.762 777.835 98.3584 783.803 98.3584H847.403C848.871 98.3584 849.439 99.5263 848.571 100.93L834.985 123.012C834.511 123.736 833.879 124.342 833.137 124.786C832.395 125.229 831.561 125.499 830.7 125.573H745.541C736.648 125.573 730.713 122.112 728.334 116.584C725.956 111.055 727.016 103.373 732.191 94.9512C740.863 80.8297 749.516 66.7045 758.152 52.5758Z" fill="url(#paint4_linear_760_64201)"/>
<path d="M899.925 124.212C899.039 125.016 897.905 125.492 896.711 125.562H854.057C853.877 125.585 853.695 125.57 853.521 125.519C853.347 125.468 853.186 125.383 853.046 125.267C852.907 125.152 852.792 125.009 852.71 124.848C852.628 124.687 852.579 124.511 852.567 124.33C852.751 123.338 853.278 122.443 854.057 121.802C876.107 103.008 898.154 84.2083 920.197 65.4009C942.24 46.5936 964.344 27.7863 986.508 8.97891C987.375 8.14503 988.52 7.66048 989.722 7.61816H1029.37C1030.44 7.61816 1031.08 8.12176 1030.97 8.97891C1029.97 27.7934 1029 46.6079 1027.96 65.4009C1026.92 84.194 1026.03 103.008 1025.03 121.802C1024.81 122.82 1024.22 123.721 1023.38 124.33C1022.53 125.071 1021.46 125.505 1020.33 125.562H977.679C976.608 125.562 976.126 125.069 976.158 124.212C976.34 119.562 976.619 114.923 976.887 110.284H916.297C910.822 114.923 905.293 119.562 899.925 124.212ZM978.29 83.0476C978.69 74.0975 979.169 65.1474 979.726 56.1973C969.204 65.1545 958.758 74.101 948.236 83.0476H978.29Z" fill="url(#paint5_linear_760_64201)"/>
<path d="M1047.61 51.1508C1046.47 38.0042 1045.32 24.8041 1044.13 11.6361C1044.15 11.1083 1044.3 10.5938 1044.57 10.1354C1044.83 9.67699 1045.2 9.28783 1045.64 9.00033C1046.52 8.17966 1047.66 7.69738 1048.86 7.63965H1088.63C1089.7 7.63965 1090.13 8.04679 1090.2 8.77537C1090.79 16.5433 1091.51 24.3327 1092.15 32.0577C1092.79 39.7828 1093.61 47.5722 1094.38 55.3295C1104.53 47.5722 1114.74 39.7935 1124.9 32.0577C1135.05 24.3219 1145.46 16.5433 1155.69 8.77537C1156.54 8.11646 1157.57 7.72168 1158.65 7.63965H1198.51C1199.59 7.63965 1200.07 8.14318 1199.99 9.00033C1199.93 9.53928 1199.74 10.0567 1199.45 10.5133C1199.16 10.97 1198.76 11.3539 1198.3 11.6361C1180.99 24.8005 1163.62 37.9721 1146.2 51.1508C1128.77 64.3295 1111.44 77.4939 1094.19 90.6441C1090.97 96.0013 1087.6 101.433 1084.29 106.801C1080.98 112.169 1077.66 117.569 1074.39 122.948C1073.91 123.669 1073.28 124.274 1072.54 124.718C1071.79 125.163 1070.96 125.437 1070.1 125.519H1032.45C1031.07 125.519 1030.42 124.362 1031.38 122.948C1034.65 117.569 1037.95 112.187 1041.28 106.801C1044.58 101.444 1047.9 96.087 1051.18 90.6441C1050.02 77.4546 1048.76 64.3081 1047.61 51.1508Z" fill="url(#paint6_linear_760_64201)"/>
<defs>
<linearGradient id="paint0_linear_760_64201" x1="114.508" y1="0.0644531" x2="114.508" y2="125.519" gradientUnits="userSpaceOnUse">
<stop stop-color="#DBDBDB"/>
<stop offset="1" stop-color="#DBDBDB" stop-opacity="0.6"/>
</linearGradient>
<linearGradient id="paint1_linear_760_64201" x1="333.72" y1="0" x2="333.72" y2="125.444" gradientUnits="userSpaceOnUse">
<stop stop-color="#DBDBDB"/>
<stop offset="1" stop-color="#DBDBDB" stop-opacity="0.6"/>
</linearGradient>
<linearGradient id="paint2_linear_760_64201" x1="482.779" y1="0.0322266" x2="482.779" y2="125.551" gradientUnits="userSpaceOnUse">
<stop stop-color="#DBDBDB"/>
<stop offset="1" stop-color="#DBDBDB" stop-opacity="0.6"/>
</linearGradient>
<linearGradient id="paint3_linear_760_64201" x1="661.098" y1="7.61816" x2="661.098" y2="125.573" gradientUnits="userSpaceOnUse">
<stop stop-color="#DBDBDB"/>
<stop offset="1" stop-color="#DBDBDB" stop-opacity="0.6"/>
</linearGradient>
<linearGradient id="paint4_linear_760_64201" x1="788.054" y1="7.61816" x2="788.054" y2="125.573" gradientUnits="userSpaceOnUse">
<stop stop-color="#DBDBDB"/>
<stop offset="1" stop-color="#DBDBDB" stop-opacity="0.6"/>
</linearGradient>
<linearGradient id="paint5_linear_760_64201" x1="941.776" y1="7.61816" x2="941.776" y2="125.572" gradientUnits="userSpaceOnUse">
<stop stop-color="#DBDBDB"/>
<stop offset="1" stop-color="#DBDBDB" stop-opacity="0.6"/>
</linearGradient>
<linearGradient id="paint6_linear_760_64201" x1="1115.46" y1="7.63965" x2="1115.46" y2="125.519" gradientUnits="userSpaceOnUse">
<stop stop-color="#DBDBDB"/>
<stop offset="1" stop-color="#DBDBDB" stop-opacity="0.6"/>
</linearGradient>
</defs>
</svg>
