<svg width="398" height="301" viewBox="0 0 398 301" fill="none" xmlns="http://www.w3.org/2000/svg">
<path d="M103.815 224.872H103.735C102.74 224.792 101.745 224.672 100.75 224.522C100.62 224.503 100.494 224.459 100.381 224.391C100.267 224.323 100.168 224.234 100.089 224.128C100.01 224.022 99.9528 223.901 99.9203 223.772C99.8878 223.644 99.8808 223.51 99.8998 223.379C99.9187 223.248 99.9632 223.122 100.031 223.008C100.098 222.894 100.187 222.795 100.293 222.716C100.399 222.636 100.519 222.579 100.647 222.546C100.775 222.514 100.908 222.507 101.039 222.526C102.001 222.665 102.966 222.775 103.934 222.855C104.198 222.866 104.447 222.981 104.626 223.176C104.806 223.371 104.9 223.629 104.89 223.893C104.879 224.158 104.764 224.408 104.57 224.588C104.376 224.768 104.119 224.863 103.855 224.852L103.815 224.872ZM113.765 224.493C113.634 224.502 113.503 224.486 113.379 224.445C113.254 224.404 113.139 224.339 113.04 224.253C112.94 224.167 112.859 224.063 112.8 223.945C112.741 223.828 112.705 223.7 112.695 223.569C112.686 223.438 112.702 223.306 112.743 223.181C112.784 223.056 112.849 222.941 112.934 222.841C113.02 222.741 113.124 222.66 113.241 222.6C113.358 222.541 113.485 222.506 113.616 222.496C114.561 222.346 115.526 222.156 116.471 221.927C116.599 221.897 116.731 221.893 116.86 221.915C116.989 221.936 117.112 221.983 117.223 222.053C117.334 222.122 117.43 222.213 117.506 222.32C117.582 222.427 117.636 222.548 117.665 222.675C117.725 222.932 117.681 223.202 117.544 223.427C117.406 223.651 117.185 223.812 116.929 223.874C115.934 224.113 114.939 224.313 113.944 224.473L113.765 224.493ZM91.2781 222.056C91.1627 222.056 91.0482 222.036 90.9398 221.996C89.9448 221.647 89.0493 221.268 88.114 220.868C87.9938 220.816 87.8849 220.741 87.7936 220.647C87.7023 220.553 87.6303 220.442 87.5818 220.32C87.5333 220.198 87.5092 220.068 87.5109 219.937C87.5126 219.806 87.54 219.676 87.5916 219.555C87.6432 219.435 87.718 219.326 87.8117 219.234C87.9054 219.142 88.0161 219.07 88.1376 219.021C88.2591 218.973 88.389 218.949 88.5198 218.95C88.6506 218.952 88.7798 218.979 88.9 219.031C89.7955 219.421 90.7209 219.78 91.6263 220.119C91.847 220.2 92.0323 220.356 92.1494 220.56C92.2665 220.764 92.3078 221.003 92.2662 221.235C92.2245 221.467 92.1024 221.677 91.9216 221.827C91.7408 221.977 91.5128 222.059 91.2781 222.056ZM126.033 220.519C125.847 220.519 125.664 220.467 125.506 220.368C125.347 220.269 125.22 220.128 125.138 219.96C125.021 219.723 125.002 219.449 125.086 219.198C125.17 218.947 125.35 218.74 125.586 218.622C126.451 218.203 127.317 217.733 128.163 217.244C128.276 217.178 128.402 217.135 128.532 217.118C128.662 217.101 128.794 217.11 128.921 217.144C129.048 217.178 129.166 217.238 129.27 217.318C129.374 217.399 129.461 217.499 129.526 217.613C129.656 217.843 129.69 218.114 129.621 218.369C129.552 218.623 129.385 218.84 129.158 218.971C128.272 219.48 127.367 219.97 126.471 220.419C126.323 220.492 126.159 220.526 125.994 220.519H126.033ZM79.7261 216.266C79.5365 216.268 79.35 216.216 79.1888 216.116C78.3431 215.577 77.4973 215.008 76.6715 214.429C76.4554 214.277 76.3078 214.046 76.2612 213.786C76.2146 213.526 76.2727 213.258 76.4227 213.041C76.5734 212.824 76.8036 212.676 77.0628 212.629C77.3221 212.582 77.5893 212.641 77.8058 212.791C78.6117 213.36 79.4276 213.899 80.2535 214.429C80.433 214.545 80.5705 214.716 80.6455 214.917C80.7205 215.118 80.729 215.338 80.6698 215.544C80.6107 215.75 80.487 215.931 80.317 216.061C80.147 216.191 79.9398 216.263 79.7261 216.266ZM136.74 213.4C136.595 213.399 136.453 213.366 136.322 213.304C136.191 213.242 136.076 213.152 135.983 213.041C135.898 212.941 135.834 212.826 135.793 212.701C135.753 212.576 135.737 212.445 135.748 212.314C135.758 212.183 135.793 212.056 135.853 211.939C135.912 211.822 135.994 211.718 136.093 211.633L136.312 211.403C136.968 210.834 137.635 210.245 138.302 209.626C138.496 209.446 138.753 209.351 139.017 209.361C139.281 209.371 139.53 209.486 139.71 209.681C139.889 209.876 139.984 210.134 139.974 210.399C139.964 210.664 139.849 210.914 139.655 211.094C138.958 211.733 138.282 212.342 137.605 212.921L137.376 213.111C137.206 213.281 136.98 213.384 136.74 213.4ZM69.4378 208.408C69.1912 208.407 68.9537 208.315 68.7712 208.148C68.0249 207.46 67.2886 206.761 66.5822 206.062C66.3935 205.876 66.2859 205.623 66.2831 205.359C66.2803 205.094 66.3825 204.838 66.5673 204.649C66.752 204.46 67.0041 204.352 67.2681 204.349C67.5322 204.346 67.7865 204.449 67.9752 204.634C68.6717 205.323 69.3881 206.002 70.1144 206.631C70.2117 206.72 70.2905 206.827 70.3462 206.946C70.4019 207.066 70.4334 207.195 70.439 207.327C70.4445 207.459 70.424 207.591 70.3785 207.715C70.3331 207.838 70.2636 207.952 70.1741 208.049C70.0838 208.158 69.9715 208.246 69.8445 208.308C69.7176 208.37 69.5789 208.404 69.4378 208.408ZM145.963 204.305C145.717 204.304 145.479 204.211 145.297 204.045C145.102 203.867 144.985 203.619 144.972 203.356C144.959 203.092 145.051 202.833 145.227 202.637C145.884 201.908 146.55 201.17 147.217 200.411C147.301 200.306 147.406 200.219 147.524 200.156C147.643 200.092 147.773 200.054 147.907 200.042C148.041 200.031 148.175 200.047 148.303 200.089C148.431 200.131 148.548 200.198 148.649 200.288C148.75 200.377 148.832 200.485 148.89 200.607C148.948 200.728 148.98 200.861 148.986 200.995C148.992 201.13 148.97 201.264 148.923 201.39C148.875 201.516 148.803 201.631 148.709 201.729C148.033 202.497 147.366 203.246 146.719 203.975C146.62 204.072 146.501 204.147 146.371 204.195C146.241 204.243 146.102 204.264 145.963 204.255V204.305ZM60.6918 198.853C60.5406 198.854 60.3913 198.82 60.2551 198.755C60.1189 198.689 59.9994 198.593 59.9057 198.474C59.2689 197.665 58.662 196.856 58.0749 196.048C57.9981 195.941 57.943 195.82 57.9129 195.692C57.8828 195.564 57.8783 195.431 57.8995 195.301C57.9208 195.171 57.9675 195.047 58.0368 194.935C58.1062 194.823 58.1969 194.726 58.3038 194.65C58.5179 194.497 58.7834 194.436 59.0424 194.479C59.3015 194.522 59.5331 194.666 59.6868 194.88C60.2639 195.668 60.851 196.457 61.4679 197.236C61.5835 197.383 61.6557 197.559 61.6762 197.745C61.6967 197.931 61.6646 198.119 61.5837 198.288C61.5028 198.457 61.3763 198.599 61.2185 198.699C61.0608 198.799 60.8783 198.852 60.6918 198.853ZM154.401 194.43C154.168 194.431 153.943 194.349 153.764 194.201C153.562 194.033 153.434 193.792 153.408 193.53C153.382 193.269 153.46 193.007 153.625 192.803C154.252 192.034 154.878 191.265 155.505 190.477C155.587 190.374 155.689 190.289 155.804 190.226C155.919 190.163 156.045 190.123 156.176 190.109C156.306 190.095 156.438 190.107 156.564 190.145C156.689 190.182 156.807 190.244 156.908 190.327C157.112 190.493 157.242 190.733 157.27 190.995C157.298 191.257 157.221 191.519 157.058 191.725L155.167 194.061C155.074 194.175 154.958 194.268 154.825 194.332C154.693 194.396 154.548 194.429 154.401 194.43ZM53.6074 188.02C53.4222 188.015 53.2421 187.958 53.0874 187.856C52.9327 187.754 52.8095 187.61 52.7318 187.441C52.2542 186.513 51.8064 185.584 51.4084 184.686C51.3554 184.566 51.3265 184.437 51.3233 184.305C51.3201 184.174 51.3428 184.044 51.3899 183.921C51.437 183.799 51.5077 183.687 51.598 183.592C51.6882 183.497 51.7963 183.421 51.9159 183.368C52.0354 183.315 52.1642 183.286 52.295 183.282C52.4257 183.279 52.5558 183.302 52.6778 183.349C52.7997 183.397 52.9112 183.467 53.0059 183.558C53.1005 183.649 53.1764 183.757 53.2293 183.877C53.6173 184.736 54.0452 185.634 54.5029 186.523C54.5629 186.64 54.5991 186.768 54.6096 186.899C54.62 187.031 54.6045 187.163 54.5638 187.288C54.5231 187.414 54.458 187.53 54.3724 187.629C54.2869 187.729 54.1824 187.811 54.0651 187.871C53.9235 187.943 53.7665 187.981 53.6074 187.98V188.02ZM162.46 184.256C162.275 184.256 162.093 184.203 161.936 184.105C161.778 184.006 161.651 183.865 161.57 183.698C161.488 183.531 161.454 183.344 161.473 183.158C161.491 182.973 161.561 182.797 161.674 182.649L163.505 180.283C163.581 180.17 163.68 180.074 163.794 180.001C163.909 179.928 164.037 179.879 164.171 179.857C164.306 179.836 164.443 179.842 164.574 179.876C164.706 179.909 164.829 179.969 164.937 180.053C165.044 180.136 165.134 180.241 165.199 180.36C165.265 180.479 165.306 180.611 165.319 180.746C165.332 180.882 165.318 181.019 165.276 181.149C165.234 181.278 165.167 181.398 165.077 181.501L163.246 183.867C163.15 183.981 163.029 184.071 162.893 184.131C162.757 184.192 162.609 184.221 162.46 184.216V184.256ZM49.498 175.77C49.2566 175.772 49.0225 175.686 48.8395 175.528C48.6564 175.371 48.5368 175.151 48.503 174.911C48.3637 173.913 48.2742 172.845 48.2344 171.826C48.2344 171.561 48.3392 171.307 48.5258 171.12C48.7124 170.933 48.9655 170.828 49.2294 170.828C49.4933 170.828 49.7463 170.933 49.9329 171.12C50.1195 171.307 50.2244 171.561 50.2244 171.826C50.2574 172.788 50.3405 173.748 50.4731 174.702C50.4913 174.832 50.4836 174.965 50.4503 175.092C50.4171 175.22 50.359 175.34 50.2795 175.445C50.1999 175.549 50.1005 175.637 49.9868 175.704C49.8732 175.77 49.7477 175.813 49.6174 175.83L49.498 175.77ZM170.371 173.963C170.184 173.964 170.001 173.913 169.842 173.815C169.683 173.717 169.555 173.576 169.472 173.409C169.389 173.241 169.355 173.053 169.373 172.867C169.391 172.681 169.461 172.504 169.575 172.355L171.395 169.979C171.56 169.781 171.793 169.655 172.048 169.626C172.303 169.597 172.559 169.668 172.762 169.824C172.966 169.979 173.103 170.208 173.143 170.462C173.183 170.716 173.124 170.976 172.978 171.187L171.137 173.533C171.046 173.652 170.93 173.748 170.798 173.815C170.665 173.883 170.519 173.919 170.371 173.923V173.963ZM334.317 168.471C334.224 168.481 334.131 168.481 334.038 168.471C333.913 168.435 333.796 168.374 333.694 168.292C333.592 168.209 333.507 168.108 333.444 167.993C333.382 167.878 333.342 167.752 333.328 167.622C333.313 167.491 333.325 167.359 333.362 167.233C333.61 166.355 333.879 165.396 334.148 164.368C334.18 164.241 334.237 164.121 334.316 164.016C334.395 163.911 334.493 163.822 334.606 163.756C334.719 163.689 334.843 163.645 334.973 163.627C335.103 163.609 335.235 163.616 335.362 163.649C335.489 163.683 335.608 163.741 335.712 163.821C335.817 163.901 335.904 164.001 335.97 164.115C336.035 164.23 336.078 164.356 336.095 164.486C336.112 164.617 336.103 164.75 336.068 164.877C335.799 165.876 335.531 166.874 335.272 167.783C335.206 167.984 335.078 168.16 334.907 168.284C334.735 168.408 334.528 168.473 334.317 168.471ZM178.231 163.659C178.011 163.658 177.798 163.585 177.624 163.449C177.416 163.288 177.28 163.05 177.247 162.788C177.213 162.526 177.285 162.261 177.445 162.052L179.266 159.675C179.428 159.465 179.667 159.328 179.93 159.294C180.193 159.26 180.459 159.333 180.669 159.496C180.879 159.659 181.015 159.898 181.049 160.162C181.083 160.426 181.01 160.693 180.848 160.903L179.017 163.27C178.922 163.379 178.804 163.466 178.671 163.524C178.539 163.583 178.396 163.612 178.251 163.609L178.231 163.659ZM50.5328 162.95C50.4372 162.964 50.3399 162.964 50.2443 162.95C49.9923 162.872 49.7816 162.697 49.6585 162.463C49.5354 162.229 49.5099 161.955 49.5876 161.702C49.8761 160.704 50.2244 159.755 50.5826 158.797C50.6258 158.668 50.6949 158.549 50.7857 158.447C50.8764 158.346 50.9869 158.264 51.1103 158.207C51.2336 158.15 51.3673 158.12 51.5031 158.116C51.6389 158.113 51.7738 158.138 51.8997 158.189C52.0255 158.24 52.1396 158.317 52.2349 158.414C52.3301 158.511 52.4046 158.627 52.4537 158.754C52.5027 158.881 52.5253 159.017 52.5201 159.153C52.5149 159.289 52.482 159.423 52.4233 159.546C52.0651 160.454 51.7368 161.373 51.4283 162.281C51.3564 162.458 51.2358 162.609 51.0806 162.719C50.9255 162.829 50.7423 162.892 50.5527 162.9L50.5328 162.95ZM337.302 155.782C337.239 155.792 337.175 155.792 337.113 155.782C336.855 155.733 336.626 155.584 336.477 155.367C336.328 155.15 336.27 154.883 336.317 154.623C336.496 153.625 336.665 152.687 336.834 151.688C336.856 151.557 336.903 151.431 336.973 151.319C337.043 151.206 337.134 151.108 337.242 151.03C337.349 150.953 337.471 150.898 337.6 150.867C337.729 150.837 337.863 150.833 337.993 150.854C338.124 150.876 338.249 150.923 338.362 150.993C338.474 151.064 338.572 151.155 338.649 151.263C338.726 151.371 338.781 151.494 338.811 151.623C338.841 151.752 338.846 151.886 338.824 152.018C338.655 153.016 338.486 154.014 338.307 155.013C338.254 155.238 338.125 155.438 337.942 155.578C337.758 155.718 337.532 155.79 337.302 155.782ZM186.191 153.355C186.004 153.356 185.82 153.304 185.661 153.205C185.502 153.106 185.374 152.964 185.291 152.795C185.209 152.626 185.176 152.437 185.197 152.25C185.217 152.063 185.289 151.886 185.405 151.738L187.266 149.382C187.346 149.275 187.446 149.185 187.562 149.118C187.677 149.051 187.805 149.008 187.937 148.991C188.069 148.974 188.203 148.984 188.331 149.021C188.46 149.057 188.579 149.119 188.683 149.202C188.787 149.286 188.874 149.39 188.937 149.507C189 149.625 189.039 149.754 189.052 149.887C189.064 150.021 189.05 150.155 189.01 150.282C188.97 150.41 188.904 150.528 188.818 150.63L186.967 152.976C186.877 153.091 186.762 153.185 186.631 153.25C186.501 153.316 186.357 153.352 186.211 153.355H186.191ZM56.4531 151.419C56.2412 151.416 56.0355 151.346 55.866 151.219C55.6562 151.062 55.5166 150.828 55.4775 150.568C55.4384 150.308 55.5029 150.043 55.6571 149.831C56.2541 149.022 56.8909 148.214 57.5476 147.425C57.7178 147.222 57.9612 147.096 58.2243 147.073C58.4874 147.051 58.7487 147.134 58.9505 147.305C59.1524 147.476 59.2784 147.72 59.3008 147.984C59.3232 148.248 59.2401 148.51 59.0699 148.713C58.4331 149.462 57.8262 150.24 57.259 151.009C57.1664 151.136 57.0451 151.24 56.905 151.311C56.7649 151.382 56.6101 151.419 56.4531 151.419ZM194.31 143.222C194.081 143.22 193.86 143.139 193.684 142.992C193.481 142.824 193.354 142.583 193.327 142.322C193.301 142.06 193.379 141.799 193.544 141.594L195.445 139.278C195.526 139.175 195.626 139.089 195.74 139.025C195.854 138.961 195.98 138.92 196.11 138.905C196.239 138.89 196.371 138.9 196.497 138.936C196.623 138.972 196.74 139.032 196.843 139.113C196.945 139.194 197.031 139.295 197.095 139.41C197.158 139.524 197.199 139.65 197.214 139.78C197.229 139.911 197.219 140.043 197.183 140.169C197.148 140.295 197.088 140.413 197.007 140.516L195.116 142.822C195.023 142.948 194.901 143.049 194.761 143.118C194.621 143.188 194.466 143.223 194.31 143.222ZM339.053 142.922H338.973C338.711 142.902 338.467 142.778 338.296 142.578C338.124 142.377 338.039 142.117 338.058 141.854C338.138 140.855 338.197 139.857 338.257 138.858C338.257 138.723 338.284 138.589 338.337 138.464C338.39 138.34 338.468 138.228 338.566 138.134C338.664 138.041 338.779 137.968 338.906 137.921C339.032 137.874 339.167 137.853 339.302 137.86C339.564 137.876 339.809 137.994 339.985 138.191C340.16 138.387 340.251 138.645 340.237 138.908C340.187 139.907 340.118 140.905 340.038 141.904C340.041 142.036 340.017 142.167 339.969 142.29C339.921 142.412 339.849 142.524 339.757 142.619C339.666 142.714 339.556 142.789 339.435 142.841C339.314 142.893 339.185 142.921 339.053 142.922ZM65.428 142.073C65.2216 142.074 65.02 142.011 64.8512 141.891C64.6823 141.772 64.5547 141.603 64.4858 141.408C64.4169 141.213 64.4103 141.001 64.4668 140.802C64.5233 140.602 64.6401 140.426 64.8011 140.296C66.2837 139.098 67.2389 138.459 67.2787 138.429C67.499 138.289 67.7655 138.241 68.0208 138.296C68.276 138.351 68.4995 138.504 68.6431 138.723C68.7867 138.941 68.8389 139.208 68.7884 139.465C68.7379 139.722 68.5888 139.949 68.3732 140.097C68.3732 140.097 67.4478 140.716 66.0548 141.844C65.8732 141.995 65.644 142.076 65.4081 142.073H65.428ZM202.668 133.277C202.479 133.275 202.294 133.219 202.135 133.116C201.977 133.012 201.851 132.865 201.772 132.692C201.694 132.519 201.666 132.327 201.693 132.139C201.72 131.951 201.799 131.774 201.922 131.63C202.569 130.871 203.226 130.112 203.912 129.364C203.996 129.259 204.101 129.172 204.219 129.108C204.338 129.045 204.468 129.007 204.602 128.995C204.736 128.984 204.871 128.999 204.998 129.041C205.126 129.084 205.243 129.151 205.344 129.24C205.445 129.329 205.527 129.438 205.585 129.56C205.643 129.681 205.675 129.813 205.681 129.948C205.687 130.083 205.665 130.217 205.618 130.343C205.57 130.469 205.498 130.584 205.405 130.681C204.748 131.43 204.091 132.179 203.415 132.938C203.319 133.047 203.201 133.134 203.069 133.192C202.937 133.251 202.793 133.28 202.648 133.277H202.668ZM339.292 129.943C339.038 129.943 338.793 129.846 338.609 129.672C338.424 129.497 338.312 129.258 338.297 129.004C338.237 128.006 338.167 127.007 338.078 126.009C338.054 125.744 338.136 125.481 338.306 125.277C338.476 125.072 338.719 124.944 338.983 124.921C339.247 124.897 339.51 124.979 339.713 125.149C339.917 125.32 340.044 125.564 340.068 125.829C340.157 126.828 340.237 127.826 340.287 128.824C340.287 129.079 340.191 129.324 340.017 129.51C339.843 129.696 339.605 129.808 339.352 129.823L339.292 129.943ZM211.335 123.603C211.083 123.602 210.842 123.506 210.658 123.333C210.466 123.153 210.353 122.903 210.344 122.64C210.334 122.376 210.43 122.119 210.608 121.925C211.285 121.187 211.972 120.458 212.658 119.739C212.844 119.568 213.086 119.475 213.338 119.476C213.59 119.478 213.831 119.576 214.014 119.749C214.197 119.922 214.307 120.159 214.323 120.411C214.34 120.663 214.26 120.911 214.101 121.107L212.111 123.283C212.008 123.395 211.881 123.482 211.74 123.538C211.598 123.593 211.446 123.615 211.295 123.603H211.335ZM337.491 117.103C337.264 117.11 337.041 117.038 336.86 116.9C336.679 116.762 336.55 116.566 336.496 116.344C336.267 115.346 336.018 114.417 335.74 113.499C335.703 113.373 335.692 113.241 335.706 113.111C335.72 112.98 335.76 112.854 335.822 112.739C335.885 112.624 335.97 112.523 336.072 112.441C336.174 112.359 336.291 112.297 336.416 112.261C336.668 112.186 336.939 112.215 337.171 112.34C337.402 112.465 337.574 112.677 337.65 112.93C337.929 113.928 338.197 114.877 338.436 115.875C338.467 116.003 338.473 116.136 338.453 116.266C338.432 116.396 338.387 116.52 338.318 116.633C338.25 116.745 338.16 116.843 338.054 116.92C337.948 116.997 337.827 117.053 337.7 117.083L337.491 117.103ZM220.359 114.297C220.163 114.297 219.971 114.237 219.807 114.127C219.644 114.016 219.517 113.86 219.443 113.677C219.368 113.495 219.349 113.294 219.389 113.1C219.428 112.907 219.523 112.729 219.663 112.59L221.822 110.493C221.915 110.4 222.025 110.326 222.146 110.275C222.267 110.224 222.397 110.198 222.529 110.198C222.66 110.198 222.79 110.224 222.911 110.275C223.032 110.326 223.143 110.4 223.235 110.493C223.42 110.681 223.524 110.934 223.524 111.197C223.524 111.461 223.42 111.714 223.235 111.901C222.519 112.58 221.812 113.279 221.096 113.978C220.997 114.085 220.877 114.169 220.743 114.224C220.609 114.279 220.464 114.304 220.32 114.297H220.359ZM229.882 105.491C229.68 105.491 229.482 105.429 229.316 105.314C229.15 105.198 229.023 105.035 228.952 104.845C228.881 104.656 228.869 104.449 228.917 104.252C228.966 104.055 229.073 103.878 229.225 103.744L231.513 101.747C231.717 101.577 231.979 101.494 232.243 101.517C232.507 101.541 232.751 101.668 232.921 101.872C233.092 102.076 233.174 102.339 233.151 102.604C233.127 102.869 233 103.114 232.797 103.285C232.041 103.914 231.285 104.563 230.528 105.212C230.344 105.39 230.098 105.49 229.842 105.491H229.882ZM333.023 104.962C332.842 104.961 332.665 104.91 332.511 104.815C332.356 104.72 332.231 104.584 332.148 104.423C331.69 103.555 331.212 102.696 330.705 101.867C330.57 101.641 330.529 101.37 330.593 101.113C330.656 100.857 330.818 100.636 331.043 100.499C331.269 100.363 331.539 100.323 331.795 100.387C332.05 100.45 332.27 100.613 332.406 100.839C332.934 101.697 333.401 102.596 333.909 103.495C333.99 103.647 334.03 103.818 334.025 103.991C334.02 104.164 333.971 104.333 333.882 104.481C333.792 104.629 333.666 104.751 333.516 104.835C333.365 104.92 333.196 104.964 333.023 104.962ZM239.991 97.3943C239.834 97.3947 239.679 97.3578 239.539 97.2867C239.399 97.2155 239.277 97.1121 239.185 96.9849C239.107 96.8794 239.051 96.7596 239.019 96.6322C238.987 96.5048 238.981 96.3724 239 96.2426C239.02 96.1127 239.065 95.988 239.132 95.8755C239.2 95.7631 239.289 95.6651 239.394 95.5872C240.21 94.9881 241.026 94.409 241.842 93.8299C241.949 93.7546 242.07 93.7011 242.197 93.6726C242.325 93.6441 242.457 93.6411 242.586 93.6638C242.715 93.6865 242.838 93.7345 242.948 93.805C243.059 93.8754 243.154 93.967 243.23 94.0746C243.305 94.1821 243.358 94.3034 243.386 94.4316C243.415 94.5597 243.418 94.6923 243.395 94.8216C243.372 94.9509 243.325 95.0745 243.254 95.1853C243.184 95.2961 243.093 95.392 242.986 95.4673L240.578 97.1946C240.397 97.3305 240.176 97.4009 239.951 97.3943H239.991ZM325.461 94.4989C325.33 94.4983 325.199 94.4716 325.078 94.4202C324.957 94.3687 324.847 94.2937 324.755 94.1994C324.092 93.5338 323.385 92.8681 322.635 92.2025C322.438 92.0276 322.317 91.7812 322.301 91.5172C322.284 91.2533 322.372 90.9935 322.546 90.7948C322.72 90.5964 322.966 90.4755 323.229 90.4587C323.492 90.4418 323.751 90.5304 323.949 90.7049C324.705 91.3738 325.451 92.0827 326.168 92.8116C326.353 92.9986 326.457 93.2517 326.457 93.5154C326.457 93.7792 326.353 94.0323 326.168 94.2193C326.069 94.315 325.952 94.3892 325.824 94.4373C325.695 94.4854 325.558 94.5064 325.422 94.4989H325.461ZM250.836 90.2656C250.661 90.2663 250.489 90.2205 250.337 90.1328C250.185 90.0452 250.058 89.9188 249.971 89.7664C249.84 89.5383 249.804 89.2678 249.872 89.0136C249.939 88.7593 250.103 88.5419 250.329 88.4086C251.204 87.8994 252.08 87.4101 252.956 86.9309C253.07 86.8653 253.196 86.823 253.327 86.8064C253.457 86.7897 253.59 86.799 253.717 86.8338C253.844 86.8685 253.963 86.9281 254.067 87.009C254.171 87.0899 254.258 87.1906 254.324 87.3053C254.389 87.42 254.431 87.5465 254.448 87.6776C254.464 87.8087 254.455 87.9418 254.421 88.0693C254.386 88.1967 254.327 88.3161 254.246 88.4206C254.165 88.5251 254.065 88.6126 253.951 88.6781C253.085 89.1474 252.229 89.6765 251.374 90.1358C251.182 90.2494 250.958 90.2951 250.737 90.2656H250.836ZM315.193 86.7512C315.025 86.7517 314.86 86.7069 314.715 86.6214C313.879 86.1621 313.004 85.7128 312.108 85.2935C311.99 85.2371 311.884 85.1579 311.796 85.0604C311.709 84.9629 311.641 84.849 311.597 84.7253C311.553 84.6015 311.534 84.4703 311.541 84.3391C311.547 84.2079 311.58 84.0793 311.636 83.9606C311.692 83.842 311.771 83.7356 311.868 83.6475C311.965 83.5595 312.079 83.4915 312.202 83.4474C312.325 83.4034 312.456 83.3842 312.587 83.3909C312.718 83.3975 312.846 83.43 312.964 83.4864C313.889 83.9257 314.795 84.3949 315.671 84.8742C315.866 84.9799 316.02 85.1481 316.109 85.3521C316.198 85.5561 316.217 85.784 316.162 85.9998C316.107 86.2155 315.982 86.4067 315.806 86.5428C315.631 86.679 315.415 86.7523 315.193 86.7512ZM262.408 84.5347C262.176 84.5353 261.952 84.4546 261.773 84.3066C261.594 84.1587 261.472 83.9527 261.428 83.7243C261.385 83.4958 261.422 83.2593 261.534 83.0554C261.645 82.8516 261.824 82.6933 262.04 82.6078C262.975 82.2284 263.911 81.8689 264.856 81.5295C265.102 81.448 265.37 81.466 265.603 81.5796C265.836 81.6933 266.015 81.8936 266.103 82.138C266.191 82.3824 266.181 82.6516 266.074 82.8885C265.968 83.1254 265.773 83.3112 265.532 83.4065C264.617 83.736 263.702 84.0854 262.786 84.4648C262.641 84.5239 262.484 84.5478 262.329 84.5347H262.408ZM303.253 81.839C303.157 81.8487 303.06 81.8487 302.964 81.839C302.029 81.5594 301.074 81.2998 300.129 81.0802C299.865 81.018 299.636 80.8531 299.494 80.6218C299.351 80.3906 299.305 80.1119 299.367 79.8471C299.429 79.5823 299.594 79.3531 299.824 79.2099C300.055 79.0666 300.332 79.0211 300.596 79.0834C301.591 79.323 302.586 79.5826 303.581 79.8721C303.845 79.9092 304.084 80.0499 304.244 80.2634C304.404 80.4768 304.474 80.7455 304.437 81.0103C304.4 81.2751 304.26 81.5143 304.047 81.6753C303.834 81.8364 303.567 81.906 303.303 81.8689L303.253 81.839ZM274.617 80.7307C274.385 80.7359 274.159 80.66 273.978 80.516C273.796 80.372 273.67 80.1691 273.622 79.942C273.594 79.8128 273.592 79.6794 273.617 79.5495C273.641 79.4196 273.69 79.2958 273.763 79.1852C273.835 79.0747 273.928 78.9797 274.037 78.9056C274.146 78.8316 274.269 78.78 274.398 78.7539C275.393 78.5542 276.388 78.3645 277.383 78.2147C277.647 78.1737 277.916 78.2395 278.132 78.3977C278.347 78.556 278.491 78.7936 278.532 79.0584C278.573 79.3232 278.507 79.5934 278.35 79.8097C278.192 80.026 277.955 80.1705 277.691 80.2116C276.696 80.3613 275.771 80.541 274.806 80.7407C274.743 80.7463 274.679 80.7429 274.617 80.7307ZM290.467 79.6125H290.397C289.402 79.5526 288.408 79.5127 287.472 79.5027C287.208 79.5027 286.955 79.3975 286.769 79.2103C286.582 79.023 286.477 78.7691 286.477 78.5043C286.477 78.2395 286.582 77.9855 286.769 77.7983C286.955 77.611 287.208 77.5059 287.472 77.5059C288.467 77.5059 289.462 77.5558 290.507 77.6157C290.771 77.6236 291.021 77.7364 291.202 77.9293C291.383 78.1222 291.48 78.3793 291.472 78.6441C291.464 78.9088 291.352 79.1596 291.16 79.3413C290.967 79.5229 290.711 79.6205 290.447 79.6125H290.467Z" fill="#E2E8F0"/>
<path d="M270.284 236.893H155.969L178.545 52.3657H280.493L291.139 66.4733L270.284 236.893Z" fill="#CBD5E1"/>
<path d="M257.911 236.893H143.586L166.162 52.3657H280.488L257.911 236.893Z" fill="#E2E8F0"/>
<path d="M252.286 201.878H156.766L173.054 68.8196H268.574L252.286 201.878Z" fill="white"/>
<path d="M202 85.184L206.133 77.0383H210.181L215.901 85.7805L218.24 81.1357L222.201 81.1536L218.121 89.2813H214.176L208.421 80.5906L206.1 85.1661L202 85.184Z" fill="#FD3E1C"/>
<path d="M204 89.2815L206.1 85.1663H210.164L208.097 89.2815H204Z" fill="#FD3E1C"/>
<path d="M218.236 81.1357L219.636 78.5911H215.624L214.359 81.1357H218.236Z" fill="#FD3E1C"/>
<path d="M225.426 77.0383L224.104 79.5986H230.373C230.473 79.6043 230.572 79.6269 230.665 79.6656C230.87 79.7655 231.041 79.9215 231.16 80.1154C231.279 80.3093 231.34 80.533 231.336 80.7603C231.293 81.3948 230.442 81.9735 229.953 81.9735H222.899L221.584 84.5003H229.242C229.318 84.5472 229.848 84.8935 229.886 85.4609C229.928 86.0865 229.358 86.7567 228.492 86.8729H220.44L219.211 89.288H228.192C228.405 89.2765 228.617 89.2451 228.824 89.1942C230.846 88.7228 232.815 86.645 232.571 84.6209C232.501 84.0943 232.299 83.5941 231.983 83.1665C232.521 82.8864 232.981 82.4782 233.324 81.9779C234.133 80.776 234.282 78.9172 233.375 77.9364C232.979 77.513 232.467 77.2161 231.903 77.083C231.763 77.0523 231.62 77.0329 231.476 77.0249C230.33 76.9668 226.13 77.0271 225.426 77.0383Z" fill="#FD3E1C"/>
<path d="M220.062 143.791L247.664 144.12L247.126 148.403L220.062 147.934V143.791Z" fill="#E2E8F0"/>
<path d="M143.586 236.893L157.337 249.633L268.568 251.33L270.279 236.893H143.586Z" fill="#CBD5E1"/>
<path d="M231.834 104.823C231.834 104.823 236.6 105.162 239.038 114.158C241.476 123.153 240.64 148.264 240.64 148.264L220.083 147.934C220.083 147.934 209.825 110.563 231.834 104.823Z" fill="#FF3F1A"/>
<path d="M133.053 50.8945L58.2812 111.847L97.5244 160.318L172.296 99.3662L133.053 50.8945Z" fill="#FF3F1A"/>
<path d="M132.642 64.3056L99.1641 91.5962L105.645 99.6012L139.123 72.3106L132.642 64.3056Z" fill="white"/>
<path opacity="0.46" d="M105.991 125.823L94.0204 135.581C92.3911 136.909 92.1433 139.311 93.4669 140.946L95.1546 143.031C96.4782 144.666 98.872 144.914 100.501 143.586L112.472 133.828C114.101 132.5 114.349 130.098 113.025 128.463L111.337 126.379C110.014 124.744 107.62 124.495 105.991 125.823Z" fill="white"/>
<path opacity="0.46" d="M149.734 90.1737L116.364 117.376C114.735 118.704 114.487 121.106 115.811 122.741L117.498 124.826C118.822 126.461 121.216 126.709 122.845 125.381L156.215 98.1787C157.844 96.8505 158.092 94.4485 156.769 92.8136L155.081 90.7291C153.757 89.0942 151.363 88.8455 149.734 90.1737Z" fill="white"/>
<path opacity="0.3" d="M81.4699 120.148C85.2286 120.148 88.2757 117.091 88.2757 113.319C88.2757 109.547 85.2286 106.49 81.4699 106.49C77.7111 106.49 74.6641 109.547 74.6641 113.319C74.6641 117.091 77.7111 120.148 81.4699 120.148Z" fill="white"/>
<path opacity="0.3" d="M88.3761 113.928C92.1348 113.928 95.1819 110.871 95.1819 107.099C95.1819 103.327 92.1348 100.27 88.3761 100.27C84.6174 100.27 81.5703 103.327 81.5703 107.099C81.5703 110.871 84.6174 113.928 88.3761 113.928Z" fill="white"/>
<path d="M231.832 104.823C231.832 104.823 221.016 108.726 224.787 139.308C227.553 161.712 218.21 191.375 204.4 191.735C190.589 192.094 165.117 190.876 165.117 190.876C165.117 190.876 178.381 156.431 175.634 127.507C175.212 123.457 175.695 119.364 177.047 115.526C178.659 111.123 181.654 106.54 187.226 105.791C198.35 104.273 231.832 104.823 231.832 104.823Z" fill="#FF3F1A"/>
<path d="M157.473 193.112L206.277 192.114C206.277 192.114 198.835 184.706 198.367 165.846L131.234 166.844C132.385 171.71 134.154 176.408 136.498 180.822C138.526 184.611 141.557 187.765 145.259 189.934C148.96 192.102 153.187 193.203 157.473 193.112Z" fill="#FF3F1A"/>
<path opacity="0.44" d="M157.473 193.112L206.277 192.114C206.277 192.114 198.835 184.706 198.367 165.846L131.234 166.844C132.385 171.71 134.154 176.408 136.498 180.822C138.526 184.611 141.557 187.765 145.259 189.934C148.96 192.102 153.187 193.203 157.473 193.112Z" fill="white"/>
<path opacity="0.48" d="M206.719 210.854C201.396 206.182 192.978 207.1 189.217 213.12C188.268 214.583 187.753 216.287 187.734 218.033C187.734 225.421 192.819 230.263 202.978 228.227C210.729 226.669 213.684 216.954 206.719 210.854Z" fill="white"/>
<path d="M319.442 234.073C334.598 234.073 346.884 221.744 346.884 206.536C346.884 191.328 334.598 179 319.442 179C304.286 179 292 191.328 292 206.536C292 221.744 304.286 234.073 319.442 234.073Z" fill="#FF937F"/>
<path d="M320.934 229.764C336.09 229.764 348.376 217.436 348.376 202.228C348.376 187.02 336.09 174.692 320.934 174.692C305.778 174.692 293.492 187.02 293.492 202.228C293.492 217.436 305.778 229.764 320.934 229.764Z" fill="#FF3F1A"/>
<path d="M324.871 185.664C325.786 185.814 326.015 186.183 325.866 187.102L325.538 189.099C329.12 190.227 330.921 192.423 331.936 195.888C332.254 196.886 331.936 197.416 330.811 197.715L328.712 198.264C327.717 198.554 327.319 198.264 326.961 197.266C326.718 196.203 326.141 195.247 325.315 194.539C324.489 193.83 323.458 193.407 322.374 193.332C318.991 192.763 317.269 193.502 316.881 195.778C316.642 197.256 317.876 198.404 319.19 198.923C320.102 199.287 321.035 199.594 321.986 199.842C323.778 200.237 325.503 200.889 327.11 201.779C327.917 202.188 328.642 202.743 329.249 203.416C329.835 204.285 330.24 205.263 330.442 206.292C330.644 207.321 330.637 208.38 330.423 209.407C329.697 213.76 326.294 216.236 321.03 216.126L320.682 218.213C320.523 219.131 320.195 219.401 319.279 219.211L317.08 218.842C316.165 218.682 315.906 218.312 316.085 217.394L316.423 215.397C312.523 214.199 310.195 211.713 309.458 207.889C309.289 206.96 309.707 206.411 310.692 206.212L312.762 205.812C313.817 205.623 314.215 205.942 314.483 207.01C314.991 209.397 316.593 210.824 319.309 211.274C322.971 211.893 325 211.044 325.398 208.678C325.518 208.137 325.454 207.572 325.218 207.071C324.982 206.57 324.587 206.163 324.095 205.912C322.897 205.254 321.61 204.773 320.274 204.484C318.461 204.078 316.725 203.383 315.13 202.428C314.337 201.989 313.629 201.411 313.04 200.72C312.444 199.892 312.026 198.949 311.812 197.951C311.598 196.952 311.593 195.92 311.797 194.92C312.513 190.606 315.707 188.18 320.921 188.36L321.249 186.363C321.398 185.445 321.777 185.185 322.692 185.365L324.871 185.664Z" fill="white"/>
<path d="M184.843 117.243C184.712 117.247 184.582 117.226 184.46 117.18C184.337 117.134 184.225 117.064 184.129 116.975C184.034 116.885 183.956 116.778 183.902 116.659C183.848 116.539 183.818 116.41 183.813 116.279C183.809 116.148 183.83 116.017 183.876 115.894C183.921 115.772 183.991 115.659 184.08 115.563C184.169 115.467 184.276 115.39 184.395 115.335C184.514 115.281 184.643 115.25 184.773 115.246C184.982 115.246 205.788 113.708 216.942 114.707C217.206 114.731 217.449 114.859 217.619 115.063C217.789 115.267 217.871 115.53 217.847 115.795C217.823 116.06 217.696 116.304 217.492 116.475C217.289 116.645 217.026 116.727 216.763 116.704C205.818 115.705 185.122 117.213 184.923 117.233L184.843 117.243Z" fill="white"/>
<path d="M183.187 130.751C183.056 130.756 182.926 130.735 182.803 130.689C182.681 130.643 182.569 130.573 182.473 130.484C182.28 130.303 182.166 130.053 182.157 129.788C182.148 129.523 182.244 129.266 182.424 129.072C182.604 128.878 182.853 128.764 183.117 128.755C183.326 128.755 204.131 127.217 215.285 128.215C215.549 128.239 215.793 128.367 215.963 128.571C216.133 128.776 216.215 129.039 216.191 129.304C216.167 129.569 216.039 129.813 215.836 129.983C215.633 130.154 215.37 130.236 215.106 130.212C204.161 129.214 183.475 130.731 183.266 130.741L183.187 130.751Z" fill="white"/>
<path d="M182.997 144.789C182.733 144.8 182.475 144.705 182.281 144.525C182.087 144.345 181.972 144.095 181.962 143.831C181.951 143.566 182.046 143.308 182.225 143.113C182.404 142.918 182.653 142.803 182.917 142.792C183.126 142.792 203.941 141.255 215.085 142.253C215.216 142.265 215.343 142.302 215.459 142.363C215.575 142.425 215.679 142.508 215.763 142.609C215.847 142.71 215.91 142.827 215.949 142.952C215.988 143.078 216.002 143.21 215.991 143.341C215.979 143.472 215.942 143.6 215.881 143.717C215.82 143.833 215.737 143.937 215.636 144.021C215.535 144.105 215.419 144.169 215.294 144.208C215.169 144.248 215.037 144.262 214.906 144.25C203.961 143.252 183.275 144.769 183.066 144.779L182.997 144.789Z" fill="white"/>
<path d="M181.679 158.827C181.548 158.831 181.418 158.81 181.295 158.764C181.173 158.718 181.061 158.649 180.965 158.559C180.869 158.47 180.792 158.362 180.738 158.243C180.684 158.123 180.654 157.994 180.649 157.863C180.644 157.732 180.666 157.601 180.711 157.479C180.757 157.356 180.827 157.243 180.916 157.147C181.005 157.051 181.112 156.974 181.231 156.919C181.35 156.865 181.479 156.835 181.609 156.83C181.818 156.83 202.624 155.292 213.778 156.301C213.908 156.313 214.035 156.35 214.152 156.411C214.268 156.472 214.371 156.556 214.455 156.657C214.539 156.758 214.602 156.875 214.642 157C214.681 157.126 214.695 157.258 214.683 157.389C214.671 157.52 214.634 157.648 214.573 157.764C214.512 157.881 214.429 157.984 214.328 158.069C214.228 158.153 214.111 158.217 213.986 158.256C213.861 158.295 213.729 158.309 213.598 158.298C202.653 157.299 181.967 158.817 181.758 158.827H181.679Z" fill="white"/>
<path d="M53.9201 246.899L56.5678 254.079L63.7231 256.735L56.5678 259.392L53.9201 266.572L51.2725 259.392L44.1172 256.735L51.2725 254.079L53.9201 246.899Z" fill="#E2E8F0"/>
<path d="M357.811 81.6438L360.458 88.8236L367.614 91.4804L360.458 94.1372L357.811 101.317L355.163 94.1372L348.008 91.4804L355.163 88.8236L357.811 81.6438Z" fill="#E2E8F0"/>
<path d="M37.7391 219.356L39.4601 224.023L44.111 225.75L39.4601 227.477L37.7391 232.144L36.0181 227.477L31.3672 225.75L36.0181 224.023L37.7391 219.356Z" fill="#E2E8F0"/>
<path d="M338.692 33.4443L340.413 38.1112L345.064 39.8381L340.413 41.565L338.692 46.2319L336.971 41.565L332.32 39.8381L336.971 38.1112L338.692 33.4443Z" fill="#E2E8F0"/>
<path d="M283.798 29.5098L284.725 32.0227L287.229 32.9526L284.725 33.8824L283.798 36.3954L282.872 33.8824L280.367 32.9526L282.872 32.0227L283.798 29.5098Z" fill="#E2E8F0"/>
</svg>
