<svg width="240" height="236" viewBox="0 0 240 236" fill="none" xmlns="http://www.w3.org/2000/svg">
<path d="M114.625 50.5556C114.602 50.5556 114.579 50.5556 114.554 50.553C114.137 50.5151 113.828 50.1459 113.869 49.7287C115.032 37.0122 119.902 21.8506 136.497 21.8506C153.093 21.8506 157.614 37.0198 158.469 49.7464C158.497 50.1636 158.18 50.5252 157.763 50.553C157.343 50.5809 156.984 50.2648 156.957 49.8476C156.145 37.7683 151.937 23.3678 136.5 23.3678C121.063 23.3678 116.486 37.7784 115.381 49.8653C115.346 50.2597 115.014 50.5556 114.627 50.5556H114.625Z" fill="#DDDDE3"/>
<path opacity="0.75" d="M203.825 194.912L197.395 193.81C196.184 193.602 194.937 193.86 193.908 194.533L184.658 200.579V200.574C185.392 199.325 185.746 197.843 185.574 196.285L170.22 56.3966C170.043 54.7833 169.322 53.3445 168.25 52.2471L180.117 59.8077C181.28 60.5486 182.701 60.7635 184.031 60.3943L186.524 59.704C189.369 58.9176 192.257 60.8242 192.646 63.7498L209.474 189.466C209.912 192.72 207.064 195.466 203.828 194.91L203.825 194.912Z" fill="#DDDDE3"/>
<path d="M183.899 201.98V200.371L184.003 200.189C184.686 199.029 184.966 197.709 184.82 196.369L169.466 56.4799C169.317 55.1246 168.74 53.8779 167.799 52.8766L167.342 52.3886L167.769 51.8475C168.019 51.5465 168.457 51.4783 168.786 51.6907L180.524 59.1678C181.505 59.7924 182.708 59.9745 183.828 59.6634L186.324 58.9731C187.892 58.5407 189.571 58.8062 190.929 59.7039C192.284 60.6016 193.187 62.0404 193.402 63.6511L210.23 189.367C210.47 191.16 209.861 192.909 208.558 194.166C207.256 195.423 205.486 195.967 203.703 195.661L197.273 194.558C196.247 194.384 195.2 194.599 194.327 195.168L183.902 201.98H183.899ZM170.604 54.6466C170.786 55.1827 170.91 55.739 170.973 56.313L186.327 196.202C186.418 197.034 186.377 197.861 186.205 198.66L193.49 193.898C194.684 193.119 196.115 192.824 197.521 193.064L203.951 194.166C205.254 194.391 206.546 193.992 207.496 193.074C208.447 192.156 208.892 190.879 208.718 189.569L191.89 63.8534C191.733 62.6776 191.076 61.6257 190.084 60.9707C189.093 60.3158 187.867 60.1211 186.721 60.4372L184.228 61.1275C182.696 61.5523 181.044 61.3045 179.704 60.4498L170.601 54.6492L170.604 54.6466Z" fill="#DDDDE3"/>
<path opacity="0.25" d="M184.656 200.571C183.427 202.677 181.124 204.114 178.449 204.114H80.2366C87.0007 197.81 91.2362 188.818 91.2362 178.837C91.2362 174.776 90.5332 170.877 89.2436 167.264C89.0236 166.642 88.7834 166.027 88.528 165.423C85.8173 158.985 81.2026 153.546 75.3918 149.794C70.3977 146.567 64.506 144.597 58.1769 144.332C57.6838 144.307 57.1831 144.296 56.685 144.296C53.2157 144.296 49.8653 144.807 46.707 145.76L56.513 56.3962C56.905 52.8056 59.9773 50.0898 63.6337 50.0898H163.095C163.939 50.0898 164.753 50.234 165.51 50.502C166.554 50.8687 167.489 51.473 168.248 52.2468C169.323 53.3442 170.041 54.783 170.22 56.3962L182.186 165.423L185.574 196.285C185.746 197.84 185.392 199.324 184.656 200.571Z" fill="white"/>
<path opacity="0.25" d="M184.654 200.572C183.425 202.678 181.122 204.114 178.446 204.114H80.2344C86.9985 197.811 91.2339 188.819 91.2339 178.838C91.2339 174.777 90.5309 170.878 89.2413 167.265C89.0214 166.643 88.7811 166.028 88.5258 165.424H182.184L185.572 196.286C185.744 197.841 185.39 199.325 184.654 200.572Z" fill="#DDDDE3"/>
<path d="M178.448 204.873H78.3089L79.7174 203.561C86.5548 197.189 90.4742 188.179 90.4742 178.838C90.4742 174.952 89.8193 171.144 88.5271 167.52C86.0516 160.546 81.2396 154.48 74.9787 150.434C69.9594 147.19 64.1385 145.344 58.1431 145.091C57.6779 145.068 57.1898 145.058 56.6841 145.058C53.3564 145.058 50.0717 145.539 46.9236 146.49L45.8262 146.821L55.7586 56.3161C56.1936 52.336 59.5794 49.332 63.6353 49.332H163.096C164.014 49.332 164.912 49.4863 165.764 49.7872C166.897 50.1842 167.944 50.8517 168.791 51.7165C170.027 52.9758 170.781 54.5663 170.976 56.3136L186.332 196.202C186.514 197.869 186.163 199.515 185.313 200.956C183.902 203.371 181.272 204.873 178.45 204.873H178.448ZM82.0892 203.356H178.448C180.734 203.356 182.86 202.142 184.001 200.19C184.683 199.029 184.964 197.707 184.817 196.367L169.461 56.4779C169.307 55.072 168.697 53.7925 167.701 52.7786C167.016 52.0781 166.169 51.5395 165.253 51.2184C164.563 50.9731 163.837 50.8492 163.091 50.8492H63.6303C60.3506 50.8492 57.6121 53.2691 57.2632 56.4805L47.5785 144.725C50.5319 143.938 53.5891 143.539 56.6816 143.539C57.2101 143.539 57.7259 143.551 58.2089 143.574C64.4698 143.837 70.5536 145.769 75.8005 149.157C82.3421 153.383 87.369 159.724 89.9558 167.009C91.3061 170.797 91.9913 174.777 91.9913 178.838C91.9913 187.972 88.4032 196.804 82.0867 203.356H82.0892Z" fill="#DDDDE3"/>
<path d="M185.616 200.711C185.53 200.711 185.444 200.696 185.358 200.666C184.963 200.524 184.759 200.089 184.903 199.695L193.677 175.372L181.512 60.6276C181.469 60.2104 181.77 59.8387 182.187 59.7931C182.604 59.7502 182.976 60.0511 183.021 60.4683L195.225 175.559L186.331 200.21C186.22 200.519 185.929 200.711 185.618 200.711H185.616Z" fill="#DDDDE3"/>
<path d="M206.357 195.433C206.104 195.433 205.856 195.307 205.712 195.074L193.807 175.864C193.587 175.507 193.696 175.04 194.052 174.82C194.409 174.6 194.877 174.708 195.097 175.065L207.001 194.275C207.221 194.632 207.113 195.099 206.756 195.319C206.632 195.395 206.493 195.433 206.357 195.433Z" fill="#DDDDE3"/>
<path d="M86.7208 98.256C76.5355 98.256 74.9981 89.6258 74.9829 89.5398C74.9146 89.1277 75.1953 88.7357 75.6075 88.6675C76.0222 88.5992 76.4116 88.8799 76.4798 89.292C76.5329 89.6106 77.8579 96.7388 86.7208 96.7388C95.5836 96.7388 96.9086 89.5955 96.9617 89.292C97.0325 88.8799 97.4219 88.5992 97.8341 88.67C98.2463 88.7383 98.5244 89.1277 98.4587 89.5398C98.4435 89.6258 96.9061 98.256 86.7208 98.256Z" fill="#DDDDE3"/>
<path d="M127.572 98.256C117.387 98.256 115.85 89.6258 115.834 89.5398C115.766 89.1277 116.047 88.7357 116.459 88.6675C116.874 88.5992 117.263 88.8799 117.331 89.292C117.384 89.6106 118.709 96.7388 127.572 96.7388C136.435 96.7388 137.76 89.5955 137.813 89.292C137.884 88.8799 138.273 88.5992 138.686 88.67C139.098 88.7383 139.376 89.1277 139.31 89.5398C139.295 89.6258 137.758 98.256 127.572 98.256Z" fill="#DDDDE3"/>
<path d="M107.148 123.006C110.581 123.006 113.365 120.916 113.365 118.338C113.365 115.76 110.581 113.67 107.148 113.67C103.714 113.67 100.93 115.76 100.93 118.338C100.93 120.916 103.714 123.006 107.148 123.006Z" fill="#DDDDE3"/>
<path d="M168.247 192.513H95.5008C95.081 192.513 94.7422 192.174 94.7422 191.755C94.7422 191.335 95.081 190.996 95.5008 190.996H168.247C168.667 190.996 169.005 191.335 169.005 191.755C169.005 192.174 168.667 192.513 168.247 192.513Z" fill="#DDDDE3"/>
<path d="M125.011 185.83H104.079C103.659 185.83 103.32 185.491 103.32 185.071C103.32 184.651 103.659 184.312 104.079 184.312H125.011C125.431 184.312 125.769 184.651 125.769 185.071C125.769 185.491 125.431 185.83 125.011 185.83Z" fill="#DDDDE3"/>
<rect x="38.3984" y="150.801" width="36.8" height="56.8" fill="#FF3F1A"/>
<path d="M61.1922 174.186V183.711C61.1745 186.482 60.8053 188.513 60.0821 189.808C59.3589 191.105 58.2387 191.752 56.719 191.752H56.6811C55.1336 191.742 53.9982 191.077 53.2801 189.754C52.5569 188.422 52.1953 186.318 52.1953 183.445V173.604C52.2484 171.027 52.6227 169.103 53.3206 167.834C54.021 166.564 55.1336 165.93 56.6685 165.93H56.6836C58.2463 165.932 59.3918 166.615 60.1124 167.98C60.8331 169.348 61.1947 171.417 61.1947 174.186H61.1922Z" fill="#DDDDE3"/>
<path d="M89.2426 167.264C86.671 160.025 81.7452 153.903 75.3908 149.797C70.3968 146.568 64.5025 144.6 58.1759 144.332C57.6828 144.31 57.1821 144.297 56.6865 144.297C53.2172 144.297 49.8668 144.808 46.706 145.761C41.2366 147.405 36.3412 150.368 32.3864 154.282C26.0573 160.548 22.1328 169.232 22.1328 178.838C22.1328 187.213 25.1141 194.89 30.0676 200.867C35.0111 206.832 41.9193 211.108 49.7935 212.699H49.796C52.0263 213.154 54.3223 213.389 56.6865 213.389C57.1847 213.389 57.6853 213.379 58.1759 213.356C61.0105 213.235 63.7566 212.775 66.3788 212.006C69.6938 211.043 72.7914 209.594 75.6158 207.74C77.2569 206.663 78.8044 205.449 80.2356 204.114C86.9997 197.81 91.2352 188.816 91.2352 178.838C91.2352 174.777 90.5322 170.878 89.2451 167.264H89.2426ZM43.2519 175.326C43.2519 172.529 43.5882 170.079 44.2659 167.972C44.3392 167.732 44.4227 167.497 44.5087 167.264C45.0725 165.745 45.821 164.422 46.7566 163.287C49.093 160.457 52.398 159.049 56.6663 159.049H56.6815C57.1922 159.049 57.6879 159.069 58.1708 159.11C61.721 159.413 64.5278 160.814 66.5886 163.312C67.5192 164.44 68.2676 165.76 68.8265 167.264C69.6837 169.533 70.106 172.228 70.106 175.346V182.36C70.106 187.562 68.9377 191.58 66.6013 194.402C64.5354 196.89 61.7261 198.288 58.1708 198.576C57.7005 198.617 57.215 198.635 56.7169 198.635H56.6789C52.4106 198.622 49.1082 197.201 46.7667 194.371C44.4227 191.532 43.2494 187.526 43.2494 182.358V175.321L43.2519 175.326Z" fill="#DDDDE3"/>
<path d="M56.7198 192.513H56.6819C54.8613 192.501 53.4579 191.674 52.6158 190.119C51.8244 188.66 51.4375 186.478 51.4375 183.448V173.607C51.4931 170.868 51.8901 168.866 52.6538 167.472C53.4933 165.948 54.8436 165.174 56.6667 165.174C58.5177 165.179 59.9337 166.026 60.7808 167.629C61.5672 169.124 61.9515 171.27 61.9515 174.188V183.714C61.9338 186.647 61.5394 188.761 60.7454 190.182C59.8932 191.709 58.5025 192.516 56.7223 192.516L56.7198 192.513ZM56.6794 166.688C55.4049 166.688 54.5502 167.169 53.9838 168.201C53.3491 169.359 53.0027 171.182 52.9547 173.619V183.446C52.9547 186.179 53.2885 188.179 53.9484 189.393C54.5351 190.478 55.4074 190.986 56.6869 190.994H56.7198C57.9689 190.994 58.8262 190.498 59.4204 189.439C60.0778 188.265 60.4192 186.336 60.4344 183.706V174.186C60.4344 171.556 60.1006 169.586 59.4406 168.335C58.8489 167.214 57.974 166.694 56.6819 166.691L56.6794 166.688Z" fill="#FF3F1A"/>
<path d="M56.6848 214.147C54.3256 214.147 51.979 213.915 49.7108 213.457L49.6425 213.445C41.7912 211.859 34.6326 207.563 29.4843 201.353C24.2551 195.044 21.375 187.048 21.375 178.838C21.375 169.345 25.0971 160.432 31.8536 153.744C35.9424 149.695 41.0047 146.684 46.4893 145.035C49.7791 144.041 53.2104 143.538 56.6873 143.538C57.2158 143.538 57.7316 143.551 58.2146 143.573C64.4755 143.836 70.5593 145.768 75.8063 149.157C82.3478 153.382 87.3747 159.724 89.9615 167.009C91.3118 170.797 91.9971 174.777 91.9971 178.838C91.9971 188.596 87.9007 198.012 80.7573 204.67C79.3008 206.031 77.7128 207.277 76.0364 208.377C73.1082 210.301 69.9323 211.768 66.5945 212.737C63.8888 213.528 61.0669 213.991 58.2146 214.115C57.7139 214.137 57.2006 214.147 56.6924 214.147H56.6848ZM49.8676 211.94L49.946 211.955C52.1383 212.403 54.4039 212.63 56.6848 212.63C57.1728 212.63 57.6633 212.62 58.1413 212.6C60.8747 212.481 63.5728 212.039 66.1621 211.28C69.3557 210.352 72.3951 208.949 75.1969 207.108C76.8 206.053 78.3222 204.86 79.7155 203.56C86.5529 197.188 90.4748 188.178 90.4748 178.838C90.4748 174.951 89.8199 171.143 88.5278 167.52C86.0523 160.546 81.2403 154.479 74.9794 150.434C69.9601 147.189 64.1392 145.344 58.1438 145.091C57.6785 145.068 57.1905 145.058 56.6848 145.058C53.3571 145.058 50.0724 145.538 46.9243 146.489C41.6748 148.067 36.8325 150.949 32.9182 154.823C26.45 161.226 22.8897 169.755 22.8897 178.84C22.8897 186.697 25.6459 194.348 30.65 200.387C35.5631 206.311 42.3854 210.415 49.8676 211.945V211.94Z" fill="#DDDDE3"/>
<path d="M56.7208 199.396H56.6828C52.1971 199.381 48.6671 197.856 46.184 194.857C43.7338 191.888 42.4922 187.686 42.4922 182.361V175.323C42.4922 172.451 42.8462 169.9 43.5416 167.738C43.6098 167.518 43.6933 167.275 43.7944 167.002C44.3861 165.411 45.1852 163.998 46.1688 162.802C48.6418 159.808 52.1743 158.288 56.6651 158.288C57.1962 158.288 57.7171 158.308 58.2329 158.351C61.9829 158.672 64.9894 160.177 67.1741 162.827C68.1552 164.015 68.9518 165.419 69.5384 166.997C70.4184 169.326 70.8659 172.135 70.8659 175.344V182.358C70.8659 187.719 69.6269 191.934 67.1868 194.885C64.9919 197.53 61.9778 199.027 58.2329 199.333C57.7525 199.373 57.2442 199.393 56.7183 199.393L56.7208 199.396ZM56.6828 159.805C52.5941 159.805 49.542 161.1 47.3421 163.768C46.4647 164.832 45.7516 166.096 45.2206 167.528C45.1296 167.775 45.0537 167.993 44.9905 168.198C44.3406 170.216 44.0119 172.613 44.0119 175.326V182.363C44.0119 187.327 45.1371 191.206 47.3573 193.894C49.5673 196.564 52.6193 197.869 56.6879 197.881H56.7233C57.2063 197.881 57.6741 197.864 58.1115 197.826C61.4367 197.555 64.0968 196.24 66.0236 193.922C68.2336 191.251 69.3538 187.362 69.3538 182.363V175.349C69.3538 172.324 68.9391 169.697 68.1224 167.535C67.5939 166.114 66.8833 164.857 66.0084 163.798C64.0664 161.441 61.4822 160.157 58.1115 159.868C57.6387 159.831 57.1582 159.81 56.6854 159.81L56.6828 159.805Z" fill="#FF3F1A"/>
<path d="M90.0631 72.4914C92.6524 72.4914 94.7512 70.3926 94.7512 67.8033C94.7512 65.214 92.6524 63.1152 90.0631 63.1152C87.4738 63.1152 85.375 65.214 85.375 67.8033C85.375 70.3926 87.4738 72.4914 90.0631 72.4914Z" fill="#DDDDE3"/>
<path d="M132.258 72.4914C134.848 72.4914 136.946 70.3926 136.946 67.8033C136.946 65.214 134.848 63.1152 132.258 63.1152C129.669 63.1152 127.57 65.214 127.57 67.8033C127.57 70.3926 129.669 72.4914 132.258 72.4914Z" fill="#DDDDE3"/>
<path d="M132.262 68.5645C132.224 68.5645 132.183 68.5619 132.143 68.5543C131.728 68.4886 131.445 68.1017 131.511 67.687C131.551 67.4241 135.516 41.235 125.285 29.2746C121.932 25.3553 117.361 23.3678 111.696 23.3678C106.032 23.3678 101.385 25.3679 97.9306 29.31C87.4393 41.2907 90.7821 67.4418 90.815 67.7047C90.8706 68.1194 90.5773 68.5012 90.1626 68.5569C89.7479 68.61 89.3661 68.3192 89.3105 67.9045C89.3004 67.8362 88.4204 61.0873 88.8857 52.9097C89.5178 41.8546 92.1754 33.5784 96.7851 28.3138C100.54 24.0252 105.557 21.8506 111.694 21.8506C117.831 21.8506 122.782 24.0176 126.438 28.291C130.942 33.5556 133.412 41.8394 133.787 52.9072C134.062 61.0924 133.018 67.8539 133.008 67.9222C132.95 68.2964 132.626 68.5619 132.259 68.5645H132.262Z" fill="#DDDDE3"/>
<g opacity="0.75">
<path d="M179.125 48.7649H189.725V52.2443H173.709V49.703L184.107 34.7285H173.724V31.2188H189.495V33.7019L179.125 48.7649Z" fill="#C2E1FF"/>
<path d="M198.707 41.2701H206.346V44.6357H193.377V42.0944L200.728 32.3744H193.594V29.0088H206.116V31.4666L198.707 41.2676V41.2701Z" fill="#C2E1FF"/>
<path d="M212.882 35.4445H217.868V37.6419H209.402V35.9831L214.199 29.6388H209.541V27.4414H217.714V29.0471L212.879 35.4445H212.882Z" fill="#C2E1FF"/>
</g>
<path opacity="0.25" d="M169.992 55.2414C169.992 55.2414 169.992 55.2389 169.992 55.2363C170.033 55.3805 170.066 55.5271 170.098 55.6738C170.093 55.6561 170.088 55.6358 170.086 55.6181C170.058 55.4917 170.03 55.3653 169.995 55.2414H169.992Z" fill="#DDDDE3"/>
<path opacity="0.25" d="M169.811 54.6902C169.811 54.6902 169.811 54.6851 169.809 54.6826C169.859 54.8141 169.9 54.9481 169.943 55.0821C169.935 55.0619 169.927 55.0392 169.922 55.0189C169.887 54.9077 169.854 54.7989 169.814 54.6902H169.811Z" fill="#DDDDE3"/>
<path opacity="0.25" d="M169.583 54.1619C169.583 54.1619 169.581 54.1568 169.578 54.1543C169.634 54.2731 169.684 54.397 169.735 54.5184C169.727 54.5007 169.72 54.4805 169.712 54.4628C169.669 54.3616 169.629 54.2605 169.583 54.1619Z" fill="#DDDDE3"/>
<path opacity="0.25" d="M169.013 53.1775C169.013 53.1775 169.008 53.1725 169.006 53.1699C169.077 53.2711 169.14 53.3747 169.206 53.4784C169.198 53.4658 169.19 53.4531 169.18 53.4405C169.125 53.352 169.072 53.2635 169.013 53.18V53.1775Z" fill="#DDDDE3"/>
<path opacity="0.25" d="M168.672 52.725C168.672 52.725 168.667 52.7199 168.664 52.7148C168.74 52.8084 168.811 52.9045 168.884 53.0006C168.876 52.9905 168.866 52.9778 168.859 52.9677C168.798 52.8868 168.737 52.8033 168.674 52.725H168.672Z" fill="#DDDDE3"/>
<path opacity="0.25" d="M170.129 55.8076C170.147 55.8936 170.157 55.9846 170.169 56.0731C170.157 55.9846 170.147 55.8961 170.129 55.8101V55.8076Z" fill="#DDDDE3"/>
<path opacity="0.25" d="M169.318 53.658C169.318 53.658 169.315 53.6529 169.312 53.6504C169.376 53.7591 169.434 53.8729 169.492 53.9867C169.484 53.9715 169.477 53.9564 169.467 53.9387C169.419 53.8451 169.371 53.749 169.318 53.658Z" fill="#DDDDE3"/>
<path opacity="0.25" d="M23.6699 141.429H40.9379C43.067 141.429 45.1303 141.712 47.0926 142.243L52.3572 94.2676H23.6699C17.1587 94.2676 11.2619 96.9075 6.99357 101.173C2.72778 105.442 0.0878906 111.336 0.0878906 117.85C0.0878906 130.872 10.6449 141.429 23.6699 141.429Z" fill="#DDDDE3"/>
<path opacity="0.25" d="M216.414 188.594H209.357L209.473 189.466C209.91 192.72 207.063 195.467 203.826 194.91L197.396 193.808C196.185 193.6 194.938 193.858 193.909 194.531L185.618 199.95L184.659 200.577V200.572C184.963 200.056 185.198 199.497 185.36 198.911C185.196 199.497 184.963 200.053 184.659 200.572C183.431 202.678 181.124 204.114 178.452 204.114H80.2398C78.8086 205.45 77.261 206.663 75.62 207.741C72.7955 209.597 69.6979 211.043 66.3829 212.006C63.7607 212.772 61.0146 213.233 58.18 213.357C57.6869 213.377 57.1863 213.389 56.6907 213.389C54.3264 213.389 52.0304 213.154 49.8002 212.699H49.7976C41.9235 211.109 35.0178 206.83 30.0718 200.868C27.1209 197.31 24.8729 193.148 23.5328 188.596C17.0772 188.634 11.2335 191.264 6.99553 195.499C2.72973 199.768 0.0898438 205.662 0.0898438 212.173C0.0898438 225.198 10.6469 235.755 23.6718 235.755H216.417C222.928 235.755 228.822 233.115 233.09 228.85C237.359 224.581 239.998 218.687 239.998 212.173C239.998 199.151 229.439 188.594 216.417 188.594H216.414Z" fill="#DDDDE3"/>
<path opacity="0.25" d="M233.086 134.524C237.355 130.255 239.995 124.361 239.995 117.85C239.995 104.825 229.435 94.2678 216.413 94.2678H203.792C201.276 94.2678 198.851 93.8734 196.578 93.1426L203.041 141.429H216.413C222.924 141.429 228.818 138.789 233.086 134.524Z" fill="#DDDDE3"/>
<path opacity="0.25" d="M19.8421 47.1091H58.7552C60.0271 47.1091 61.2763 47.2103 62.495 47.405C65.2664 47.8475 67.876 48.773 70.2377 50.0904H163.094C163.939 50.0904 164.753 50.2345 165.509 50.5026C166.556 50.8692 167.489 51.4736 168.247 52.2473C168.346 52.3459 168.437 52.4521 168.528 52.5583C168.518 52.5482 168.51 52.5381 168.5 52.528C168.417 52.4344 168.336 52.3384 168.247 52.2499L180.114 59.8105C180.835 60.2707 181.654 60.5261 182.491 60.5665C183.654 58.1213 185.225 55.9088 187.116 54.0174C187.743 53.3903 188.406 52.8011 189.098 52.2473H173.709V49.7061L184.107 34.7315H173.724V31.2218H189.495V33.7049L179.125 48.7679H189.725V51.7694C192.707 49.5518 196.227 48.0169 200.055 47.4075C201.274 47.2128 202.523 47.1117 203.795 47.1117H220.069C225.083 46.3126 229.569 43.9332 233.003 40.5018C237.271 36.2335 239.911 30.3393 239.911 23.8281C239.911 10.8031 229.352 0.246094 216.329 0.246094H23.582C17.0708 0.246094 11.174 2.88598 6.90568 7.15178C2.63989 11.4201 0 17.3169 0 23.8281C0 35.5786 8.5948 45.3214 19.8421 47.1117V47.1091ZM209.401 35.9832L214.198 29.6389H209.54V27.4415H217.712V29.0472L212.878 35.4446H217.864V37.642H209.398V35.9832H209.401ZM193.377 42.0949L200.728 32.3748H193.594V29.0092H206.116V31.4671L198.707 41.268H206.346V44.6336H193.377V42.0924V42.0949Z" fill="#DDDDE3"/>
</svg>
