<svg width="300" height="300" viewBox="0 0 300 300" fill="none" xmlns="http://www.w3.org/2000/svg">
    <path
        d="M143.034 267.029H27.1748C25.2866 267.029 23.75 265.493 23.75 263.604V36.3965C23.75 34.5083 25.2866 32.9717 27.1748 32.9717H143.034C144.922 32.9717 146.458 34.5083 146.458 36.3965V263.604C146.458 265.493 144.922 267.029 143.034 267.029ZM27.1748 33.1223C25.3688 33.1223 23.9 34.5911 23.9 36.3971V263.604C23.9 265.41 25.3688 266.879 27.1748 266.879H143.034C144.84 266.879 146.308 265.41 146.308 263.604V36.3965C146.308 34.5911 144.84 33.1217 143.034 33.1217L27.1748 33.1223Z"
        fill="" />
    <path
        d="M272.815 267.029H156.955C155.068 267.029 153.531 265.493 153.531 263.604V36.3965C153.531 34.5083 155.068 32.9717 156.955 32.9717H272.815C274.704 32.9717 276.24 34.5083 276.24 36.3965V263.604C276.24 265.493 274.703 267.029 272.815 267.029ZM156.955 33.1223C155.15 33.1223 153.681 34.5911 153.681 36.3971V263.604C153.681 265.41 155.15 266.879 156.955 266.879H272.815C274.621 266.879 276.09 265.41 276.09 263.604V36.3965C276.09 34.5911 274.621 33.1217 272.815 33.1217L156.955 33.1223Z"
        fill="" />
    <path
        d="M67.8273 100.949L68.7975 102.914L70.9665 103.23L69.3969 104.76L69.7677 106.921L67.8273 105.901L65.8869 106.921L66.2577 104.76L64.6875 103.23L66.8571 102.914L67.8273 100.949Z"
        fill="#EBEBEB" />
    <path
        d="M262.023 193.49L262.993 195.456L265.162 195.771L263.592 197.301L263.963 199.462L262.023 198.442L260.082 199.462L260.452 197.301L258.883 195.771L261.052 195.456L262.023 193.49Z"
        fill="#F5F5F5" />
    <path
        d="M223.562 250.54L224.532 252.505L226.701 252.82L225.131 254.351L225.502 256.512L223.562 255.492L221.621 256.512L221.992 254.351L220.422 252.82L222.591 252.505L223.562 250.54Z"
        fill="#F5F5F5" />
    <path
        d="M135.565 66.0929L135.925 66.8225L136.731 66.9395C136.932 66.9689 137.012 67.2155 136.866 67.3577L136.284 67.9259L136.421 68.7281C136.455 68.9285 136.245 69.0809 136.066 68.9867L135.345 68.6081L134.625 68.9867C134.445 69.0815 134.235 68.9285 134.269 68.7281L134.407 67.9259L133.824 67.3577C133.679 67.2161 133.759 66.9689 133.96 66.9395L134.765 66.8225L135.125 66.0929C135.216 65.9105 135.475 65.9105 135.565 66.0929Z"
        fill="#EBEBEB" />
    <path
        d="M36.4639 241.205L36.8239 241.935L37.6291 242.052C37.8301 242.081 37.9105 242.328 37.7647 242.47L37.1821 243.038L37.3195 243.84C37.3537 244.041 37.1437 244.193 36.9643 244.099L36.2437 243.72L35.5231 244.099C35.3431 244.193 35.1331 244.041 35.1679 243.84L35.3053 243.038L34.7227 242.47C34.5775 242.328 34.6573 242.081 34.8583 242.052L35.6635 241.935L36.0235 241.205C36.1141 241.023 36.3739 241.023 36.4639 241.205Z"
        fill="#F5F5F5" />
    <path
        d="M52.652 58.3809L53.012 59.1105L53.8172 59.2275C54.0182 59.2569 54.0986 59.5035 53.9528 59.6457L53.3702 60.2139L53.5076 61.0161C53.5418 61.2165 53.3318 61.3689 53.1518 61.2741L52.4312 60.8955L51.7112 61.2741C51.5312 61.3689 51.3212 61.2159 51.3554 61.0161L51.4928 60.2139L50.9102 59.6457C50.765 59.5041 50.8448 59.2569 51.0458 59.2275L51.851 59.1105L52.211 58.3809C52.3022 58.1985 52.562 58.1985 52.652 58.3809Z"
        fill="#EBEBEB" />
    <path
        d="M51.6783 202.992C51.6783 203.432 51.3219 203.788 50.8821 203.788C50.4423 203.788 50.0859 203.432 50.0859 202.992C50.0859 202.552 50.4423 202.196 50.8821 202.196C51.3213 202.196 51.6783 202.552 51.6783 202.992Z"
        fill="#EBEBEB" />
    <path
        d="M165.397 103.137C165.397 103.576 165.041 103.933 164.601 103.933C164.161 103.933 163.805 103.576 163.805 103.137C163.805 102.697 164.161 102.34 164.601 102.34C165.041 102.34 165.397 102.697 165.397 103.137Z"
        fill="#EBEBEB" />
    <path
        d="M124.022 59.0403C124.022 59.4801 123.666 59.8365 123.226 59.8365C122.786 59.8365 122.43 59.4801 122.43 59.0403C122.43 58.6005 122.786 58.2441 123.226 58.2441C123.666 58.2441 124.022 58.6011 124.022 59.0403Z"
        fill="#F5F5F5" />
    <path
        d="M125.301 253.499C127.671 252.939 129.138 250.565 128.579 248.195C128.019 245.825 125.645 244.358 123.275 244.918C120.905 245.477 119.438 247.852 119.998 250.221C120.557 252.591 122.932 254.058 125.301 253.499Z"
        fill="#F0F0F0" />
    <path
        d="M122.755 246.654C121.819 246.654 120.949 246.954 120.241 247.47C120.007 248.01 119.875 248.604 119.875 249.228C119.875 251.664 121.849 253.632 124.285 253.632C125.107 253.632 125.881 253.404 126.541 253.009C126.535 253.003 126.535 253.003 126.541 253.003C126.871 252.391 127.057 251.695 127.057 250.951C127.057 248.58 125.131 246.654 122.755 246.654Z"
        fill="#E6E6E6" />
    <path
        d="M88.6146 172.587H52.1016V156.102L88.6146 112.7H106.084V157.037H115.138V172.587H106.084V186.071H88.6146V172.587ZM88.6146 157.037V134.334L69.321 157.037H88.6146Z"
        fill="#D93843" />
    <path
        d="M121.391 149.705C121.391 135.993 123.858 126.398 128.796 120.918C133.734 115.44 141.254 112.7 151.359 112.7C156.213 112.7 160.2 113.3 163.316 114.497C166.433 115.694 168.975 117.252 170.943 119.171C172.911 121.091 174.462 123.108 175.593 125.224C176.726 127.34 177.636 129.809 178.325 132.63C179.669 138.011 180.342 143.621 180.342 149.46C180.342 162.549 178.127 172.129 173.699 178.197C169.269 184.267 161.642 187.301 150.816 187.301C144.747 187.301 139.842 186.332 136.103 184.397C132.363 182.462 129.295 179.624 126.901 175.884C125.161 173.228 123.808 169.594 122.841 164.985C121.874 160.376 121.391 155.283 121.391 149.705ZM141.271 149.754C141.271 158.94 142.083 165.215 143.706 168.578C145.331 171.94 147.684 173.621 150.768 173.621C152.802 173.621 154.565 172.908 156.058 171.48C157.551 170.054 158.649 167.799 159.356 164.715C160.061 161.631 160.413 156.825 160.413 150.296C160.413 140.718 159.602 134.279 157.978 130.982C156.354 127.685 153.918 126.036 150.67 126.036C147.356 126.036 144.962 127.718 143.485 131.081C142.009 134.443 141.271 140.668 141.271 149.754Z"
        fill="#D93843" />
    <path
        d="M223.052 172.587H186.539V156.102L223.052 112.7H240.521V157.037H249.575V172.587H240.521V186.071H223.052V172.587ZM223.052 157.037V134.334L203.759 157.037H223.052Z"
        fill="#D93843" />
    <g opacity="0.3">
        <path
            d="M120.566 87.3709C120.566 87.9889 120.065 88.49 119.447 88.49C118.829 88.49 118.328 87.9889 118.328 87.3709C118.328 86.7529 118.829 86.252 119.447 86.252C120.065 86.252 120.566 86.7529 120.566 87.3709Z"
            fill="#D93843" />
        <path
            d="M43.7782 130.471C44.2166 130.471 44.572 130.116 44.572 129.677C44.572 129.239 44.2166 128.884 43.7782 128.884C43.3398 128.884 42.9844 129.239 42.9844 129.677C42.9844 130.116 43.3398 130.471 43.7782 130.471Z"
            fill="#D93843" />
        <path
            d="M174.628 246.136C175.255 246.136 175.764 245.627 175.764 245C175.764 244.373 175.255 243.864 174.628 243.864C174.001 243.864 173.492 244.373 173.492 245C173.492 245.627 174.001 246.136 174.628 246.136Z"
            fill="#D93843" />
        <path
            d="M201.895 199.994C202.334 199.994 202.689 199.638 202.689 199.2C202.689 198.762 202.334 198.406 201.895 198.406C201.457 198.406 201.102 198.762 201.102 199.2C201.102 199.638 201.457 199.994 201.895 199.994Z"
            fill="#D93843" />
        <path
            d="M254.502 57.3714C254.502 57.81 254.146 58.1652 253.708 58.1652C253.269 58.1652 252.914 57.81 252.914 57.3714C252.914 56.9328 253.269 56.5776 253.708 56.5776C254.146 56.5776 254.502 56.9328 254.502 57.3714Z"
            fill="#D93843" />
        <path
            d="M103.65 41.3778C103.65 41.8164 103.295 42.1716 102.856 42.1716C102.418 42.1716 102.062 41.8164 102.062 41.3778C102.062 40.9392 102.418 40.584 102.856 40.584C103.295 40.584 103.65 40.9392 103.65 41.3778Z"
            fill="#D93843" />
        <path
            d="M166.614 82.9597C167.053 82.9597 167.408 82.6043 167.408 82.1659C167.408 81.7275 167.053 81.3721 166.614 81.3721C166.176 81.3721 165.82 81.7275 165.82 82.1659C165.82 82.6043 166.176 82.9597 166.614 82.9597Z"
            fill="#D93843" />
    </g>
    <path
        d="M84.7319 82.9629C91.9923 82.9629 97.8779 77.0772 97.8779 69.8169C97.8779 62.5566 91.9923 56.6709 84.7319 56.6709C77.4716 56.6709 71.5859 62.5566 71.5859 69.8169C71.5859 77.0772 77.4716 82.9629 84.7319 82.9629Z"
        fill="#D93843" />
    <path opacity="0.7"
        d="M84.7319 82.9629C91.9923 82.9629 97.8779 77.0772 97.8779 69.8169C97.8779 62.5566 91.9923 56.6709 84.7319 56.6709C77.4716 56.6709 71.5859 62.5566 71.5859 69.8169C71.5859 77.0772 77.4716 82.9629 84.7319 82.9629Z"
        fill="white" />
    <path opacity="0.2"
        d="M80.2001 59.8984C78.3575 59.8984 76.6085 60.2794 75.0155 60.9604C72.8855 63.2962 71.5859 66.4072 71.5859 69.8176C71.5859 77.0758 77.4701 82.96 84.7283 82.96C86.5769 82.96 88.3385 82.579 89.9381 81.892C89.9381 81.892 89.9381 81.892 89.9381 81.886C92.0555 79.5496 93.3485 76.4512 93.3485 73.0474C93.3491 65.7826 87.4649 59.8984 80.2001 59.8984Z"
        fill="#D93843" />
    <path opacity="0.2"
        d="M78.8958 63.3742C78.8958 64.0378 78.3576 64.576 77.694 64.576C77.0304 64.576 76.4922 64.0378 76.4922 63.3742C76.4922 62.7106 77.0304 62.1724 77.694 62.1724C78.3576 62.1724 78.8958 62.7106 78.8958 63.3742Z"
        fill="#D93843" />
    <path opacity="0.2"
        d="M93.0286 62.1725C93.0286 62.8361 92.4904 63.3743 91.8268 63.3743C91.1632 63.3743 90.625 62.8361 90.625 62.1725C90.625 61.5089 91.1632 60.9707 91.8268 60.9707C92.4904 60.9713 93.0286 61.5089 93.0286 62.1725Z"
        fill="#D93843" />
    <path opacity="0.2"
        d="M90.6289 70.7407C90.6289 71.8267 89.7487 72.7075 88.6621 72.7075C87.5761 72.7075 86.6953 71.8267 86.6953 70.7407C86.6953 69.6547 87.5755 68.7739 88.6621 68.7739C89.7481 68.7739 90.6289 69.6547 90.6289 70.7407Z"
        fill="#D93843" />
    <path opacity="0.2"
        d="M84.3744 76.3478C84.3744 77.7998 83.1972 78.9764 81.7458 78.9764C80.2938 78.9764 79.1172 77.7992 79.1172 76.3478C79.1172 74.8958 80.2944 73.7192 81.7458 73.7192C83.1972 73.7192 84.3744 74.8964 84.3744 76.3478Z"
        fill="#D93843" />
    <path
        d="M240.541 228.422C242.005 222.222 238.166 216.009 231.966 214.545C225.766 213.081 219.552 216.92 218.088 223.12C216.624 229.321 220.464 235.534 226.664 236.998C232.864 238.462 239.077 234.622 240.541 228.422Z"
        fill="#D93843" />
    <path opacity="0.3"
        d="M240.541 228.422C242.005 222.222 238.166 216.009 231.966 214.545C225.766 213.081 219.552 216.92 218.088 223.12C216.624 229.321 220.464 235.534 226.664 236.998C232.864 238.462 239.077 234.622 240.541 228.422Z"
        fill="white" />
    <path opacity="0.4"
        d="M236.602 216.804C235.553 216.485 234.435 216.316 233.28 216.316C226.908 216.316 221.742 221.482 221.742 227.853C221.742 231.464 223.398 234.681 225.996 236.798C227.046 237.117 228.163 237.285 229.32 237.285C235.691 237.285 240.856 232.119 240.856 225.748C240.856 222.138 239.201 218.915 236.602 216.804Z"
        fill="#D93843" />
    <path
        d="M218.298 229.169C205.977 234.966 215.168 239.434 232.525 233.197C248.595 227.421 254.705 220.135 240.356 222.393C241.096 225.458 220.969 233.3 218.298 229.169Z"
        fill="#D93843" />
    <path opacity="0.2"
        d="M236.446 112.698C220.312 123.6 199.426 137.976 193.66 172.584H192.43C198.04 138.396 218.164 123.642 234.304 112.698H236.446Z"
        fill="black" />
    <path
        d="M152.998 220.96C142.816 220.961 132.713 216.363 127.807 208.849C124.775 204.205 121.255 194.479 131.74 181.502L132.673 182.257C125.256 191.436 123.884 200.647 128.812 208.193C134.808 217.378 148.969 221.996 161.05 218.71C173.426 215.342 180.941 204.575 181.666 189.173C184.147 136.489 212.137 120.26 232.574 108.41C245.271 101.048 254.445 95.7282 252.428 84.507C252.149 82.95 251.528 81.8742 250.531 81.2184C247.919 79.4976 242.819 80.6868 236.914 82.0632C225.331 84.7614 209.467 88.4574 200.016 72.3828L201.05 71.7744C210.054 87.0882 224.797 83.6544 236.642 80.8938C242.816 79.4562 248.148 78.2136 251.191 80.2152C252.478 81.0624 253.269 82.3968 253.61 84.2946C255.775 96.3438 245.802 102.127 233.176 109.448C212.977 121.159 185.315 137.198 182.864 189.229C182.113 205.186 174.277 216.353 161.364 219.867C158.643 220.607 155.816 220.96 152.998 220.96Z"
        fill="#D93843" />
    <path opacity="0.2"
        d="M152.998 220.96C142.816 220.961 132.713 216.363 127.807 208.849C124.775 204.205 121.255 194.479 131.74 181.502L132.673 182.257C125.256 191.436 123.884 200.647 128.812 208.193C134.808 217.378 148.969 221.996 161.05 218.71C173.426 215.342 180.941 204.575 181.666 189.173C184.147 136.489 212.137 120.26 232.574 108.41C245.271 101.048 254.445 95.7282 252.428 84.507C252.149 82.95 251.528 81.8742 250.531 81.2184C247.919 79.4976 242.819 80.6868 236.914 82.0632C225.331 84.7614 209.467 88.4574 200.016 72.3828L201.05 71.7744C210.054 87.0882 224.797 83.6544 236.642 80.8938C242.816 79.4562 248.148 78.2136 251.191 80.2152C252.478 81.0624 253.269 82.3968 253.61 84.2946C255.775 96.3438 245.802 102.127 233.176 109.448C212.977 121.159 185.315 137.198 182.864 189.229C182.113 205.186 174.277 216.353 161.364 219.867C158.643 220.607 155.816 220.96 152.998 220.96Z"
        fill="white" />
    <path
        d="M187.648 58.1695C191.761 58.0945 195.798 59.4499 195.798 59.4499C195.798 59.4499 202.377 70.7125 203.179 73.2901C202.902 75.8341 198.61 80.0047 198.61 80.0047L187.648 58.1695Z"
        fill="#D93843" />
    <path opacity="0.3"
        d="M187.648 58.1695C191.761 58.0945 195.798 59.4499 195.798 59.4499C195.798 59.4499 202.377 70.7125 203.179 73.2901C202.902 75.8341 198.61 80.0047 198.61 80.0047L187.648 58.1695Z"
        fill="white" />
    <path
        d="M207.196 112.88C204.715 109.731 202.278 106.524 200.261 103.049C199.757 102.181 199.279 101.296 198.828 100.4C198.571 99.8907 198.322 99.3771 198.081 98.8599C197.871 98.4081 197.406 97.7427 197.359 97.2495C196.638 89.6463 199.241 84.0495 196.742 77.9463L186.859 81.8085C186.859 81.8085 187.7 92.6817 189.618 99.1863C190.809 103.222 193.503 106.716 196.1 109.948C196.912 110.96 197.695 111.994 198.506 113.007C199.273 113.966 200.133 114.846 200.902 115.8C202.071 117.247 202.459 118.629 201.571 120.336C201.524 120.427 201.474 120.518 201.423 120.608C201.171 121.053 202.351 121.557 203.092 120.621C204.317 119.072 204.124 119.167 205.169 117.847C205.803 117.045 206.532 116.179 207.16 115.427C207.775 114.693 207.789 113.631 207.196 112.88Z"
        fill="#D93843" />
    <path opacity="0.7"
        d="M207.196 112.88C204.715 109.731 202.278 106.524 200.261 103.049C199.757 102.181 199.279 101.296 198.828 100.4C198.571 99.8907 198.322 99.3771 198.081 98.8599C197.871 98.4081 197.406 97.7427 197.359 97.2495C196.638 89.6463 199.241 84.0495 196.742 77.9463L186.859 81.8085C186.859 81.8085 187.7 92.6817 189.618 99.1863C190.809 103.222 193.503 106.716 196.1 109.948C196.912 110.96 197.695 111.994 198.506 113.007C199.273 113.966 200.133 114.846 200.902 115.8C202.071 117.247 202.459 118.629 201.571 120.336C201.524 120.427 201.474 120.518 201.423 120.608C201.171 121.053 202.351 121.557 203.092 120.621C204.317 119.072 204.124 119.167 205.169 117.847C205.803 117.045 206.532 116.179 207.16 115.427C207.775 114.693 207.789 113.631 207.196 112.88Z"
        fill="white" />
    <path opacity="0.3"
        d="M204.777 109.751C203.454 111.35 200.764 113.424 199.578 114.265C199.836 114.552 200.092 114.846 200.348 115.139C202.789 113.545 204.718 111.477 205.45 110.637C205.224 110.346 205 110.048 204.777 109.751Z"
        fill="#D93843" />
    <path opacity="0.3"
        d="M207.189 112.881C207.167 112.85 207.143 112.825 207.12 112.794C206.703 113.228 206.41 113.92 206.361 114.696C206.321 115.233 206.411 115.724 206.587 116.107C206.787 115.875 206.973 115.646 207.156 115.428C207.773 114.694 207.782 113.633 207.189 112.881Z"
        fill="#D93843" />
    <path
        d="M185.303 65.3704C184.269 66.874 183.051 68.356 181.478 69.6868C180.697 70.3558 179.806 70.9612 178.828 71.4748C178.334 71.7268 177.815 71.9452 177.278 72.1258L176.873 72.256L176.742 72.2968C176.647 72.3256 176.552 72.3514 176.456 72.3742C176.275 72.415 176.093 72.4426 175.932 72.4558C175.282 72.505 174.811 72.4126 174.423 72.316C173.657 72.1072 173.145 71.8282 172.661 71.5576C172.184 71.2822 171.765 71.0002 171.369 70.7092C170.587 70.1146 169.881 69.5176 169.222 68.8804C167.896 67.6144 166.72 66.3016 165.628 64.8394C165.13 64.1728 165.267 63.229 165.933 62.7316C166.447 62.347 167.127 62.341 167.639 62.6644L167.685 62.6938C169.101 63.5926 170.529 64.5406 171.923 65.389C172.627 65.8042 173.314 66.2218 173.991 66.547C174.323 66.715 174.649 66.868 174.943 66.9766C175.229 67.0882 175.515 67.1518 175.589 67.1368C175.62 67.135 175.583 67.0924 175.362 67.1002C175.309 67.1032 175.233 67.1104 175.156 67.1272C175.112 67.1356 175.069 67.147 175.026 67.1608C174.984 67.1746 175.043 67.1494 175.047 67.1458L175.245 67.0444C175.509 66.91 175.762 66.742 176.019 66.571C176.533 66.2236 177.022 65.7826 177.521 65.299C178.509 64.318 179.459 63.097 180.462 61.8274L180.475 61.81C181.503 60.5092 183.39 60.2878 184.691 61.315C185.937 62.2984 186.187 64.0798 185.303 65.3704Z"
        fill="#D93843" />
    <path opacity="0.7"
        d="M185.303 65.3704C184.269 66.874 183.051 68.356 181.478 69.6868C180.697 70.3558 179.806 70.9612 178.828 71.4748C178.334 71.7268 177.815 71.9452 177.278 72.1258L176.873 72.256L176.742 72.2968C176.647 72.3256 176.552 72.3514 176.456 72.3742C176.275 72.415 176.093 72.4426 175.932 72.4558C175.282 72.505 174.811 72.4126 174.423 72.316C173.657 72.1072 173.145 71.8282 172.661 71.5576C172.184 71.2822 171.765 71.0002 171.369 70.7092C170.587 70.1146 169.881 69.5176 169.222 68.8804C167.896 67.6144 166.72 66.3016 165.628 64.8394C165.13 64.1728 165.267 63.229 165.933 62.7316C166.447 62.347 167.127 62.341 167.639 62.6644L167.685 62.6938C169.101 63.5926 170.529 64.5406 171.923 65.389C172.627 65.8042 173.314 66.2218 173.991 66.547C174.323 66.715 174.649 66.868 174.943 66.9766C175.229 67.0882 175.515 67.1518 175.589 67.1368C175.62 67.135 175.583 67.0924 175.362 67.1002C175.309 67.1032 175.233 67.1104 175.156 67.1272C175.112 67.1356 175.069 67.147 175.026 67.1608C174.984 67.1746 175.043 67.1494 175.047 67.1458L175.245 67.0444C175.509 66.91 175.762 66.742 176.019 66.571C176.533 66.2236 177.022 65.7826 177.521 65.299C178.509 64.318 179.459 63.097 180.462 61.8274L180.475 61.81C181.503 60.5092 183.39 60.2878 184.691 61.315C185.937 62.2984 186.187 64.0798 185.303 65.3704Z"
        fill="white" />
    <path
        d="M163.371 61.4496L164.074 62.6292C164.074 62.6292 164.611 64.1988 165.686 64.4892L168.598 63.546L168.452 63.3012C168.454 63.3018 168.455 63.3018 168.457 63.3018C168.083 62.7336 168.124 61.638 168.255 60.7266C168.386 59.8152 167.913 59.7828 167.564 60.0096C167.362 60.1404 167.219 60.5562 167.056 61.0044C166.912 60.807 166.759 60.6168 166.585 60.444L165.695 59.5578C165.311 59.1756 164.696 59.1582 164.291 59.5182L163.57 60.159C163.203 60.4854 163.12 61.0272 163.371 61.4496Z"
        fill="#D93843" />
    <path opacity="0.7"
        d="M163.371 61.4496L164.074 62.6292C164.074 62.6292 164.611 64.1988 165.686 64.4892L168.598 63.546L168.452 63.3012C168.454 63.3018 168.455 63.3018 168.457 63.3018C168.083 62.7336 168.124 61.638 168.255 60.7266C168.386 59.8152 167.913 59.7828 167.564 60.0096C167.362 60.1404 167.219 60.5562 167.056 61.0044C166.912 60.807 166.759 60.6168 166.585 60.444L165.695 59.5578C165.311 59.1756 164.696 59.1582 164.291 59.5182L163.57 60.159C163.203 60.4854 163.12 61.0272 163.371 61.4496Z"
        fill="white" />
    <path
        d="M190.601 57.1348C187.812 57.8116 183.98 59.4034 181.392 61.0156C180.474 61.5868 180.017 62.6716 180.233 63.7306C181.387 69.3946 184.021 76.9816 186.864 81.808L200.131 76.3198C200.222 73.9798 197.001 66.4078 193.721 59.0896C193.131 57.7732 192.003 56.7952 190.601 57.1348Z"
        fill="#D93843" />
    <path opacity="0.8"
        d="M190.601 57.1348C187.812 57.8116 183.98 59.4034 181.392 61.0156C180.474 61.5868 180.017 62.6716 180.233 63.7306C181.387 69.3946 184.021 76.9816 186.864 81.808L200.131 76.3198C200.222 73.9798 197.001 66.4078 193.721 59.0896C193.131 57.7732 192.003 56.7952 190.601 57.1348Z"
        fill="white" />
    <path opacity="0.3"
        d="M195.773 63.7283L193.141 62.8457C193.73 64.3859 195.86 66.3383 197.359 67.4849C196.865 66.2813 196.33 65.0231 195.773 63.7283Z"
        fill="#D93843" />
    <path
        d="M189.729 51.1921C188.634 49.1035 186.264 48.0523 183.419 48.2899C181.02 48.4903 178.893 50.9395 179.145 52.2631C179.397 53.5867 181.416 54.1471 181.782 54.6067L180.118 55.8127C179.29 56.4133 179.128 57.5809 179.76 58.3849C180.461 59.2741 181.382 60.2029 181.919 60.8587C186.518 60.7393 189.918 58.9849 191.144 57.2971C190.703 55.1497 190.818 53.2693 189.729 51.1921Z"
        fill="#D93843" />
    <path opacity="0.8"
        d="M189.729 51.1921C188.634 49.1035 186.264 48.0523 183.419 48.2899C181.02 48.4903 178.893 50.9395 179.145 52.2631C179.397 53.5867 181.416 54.1471 181.782 54.6067L180.118 55.8127C179.29 56.4133 179.128 57.5809 179.76 58.3849C180.461 59.2741 181.382 60.2029 181.919 60.8587C186.518 60.7393 189.918 58.9849 191.144 57.2971C190.703 55.1497 190.818 53.2693 189.729 51.1921Z"
        fill="white" />
    <path
        d="M187.472 52.4857C188.386 54.8233 187.232 57.4585 184.894 58.3717C182.557 59.2849 179.921 58.1311 179.008 55.7935C178.095 53.4565 179.249 50.8207 181.586 49.9075C183.923 48.9943 186.559 50.1487 187.472 52.4857Z"
        fill="#263238" />
    <path
        d="M226.426 106.558C226.359 104.584 226.274 104.782 226.216 103.099C226.182 102.077 226.177 100.946 226.171 99.9654C226.164 99.0084 225.488 98.1894 224.55 97.9992C223.755 97.8378 222.958 97.6842 222.164 97.515C221.128 97.2942 220.105 97.0566 219.088 96.7614C218.299 96.5322 217.518 96.2796 216.745 96.0012C215.917 95.703 215.1 95.376 214.291 95.0292C213.346 94.6236 212.412 94.1917 211.485 93.7465C210.45 93.2496 209.422 92.736 208.399 92.2158C204.45 85.6788 204.365 81.3714 200.127 76.3188L191.031 80.4336C191.031 80.4336 197.715 92.2927 202.266 97.3207C204.886 100.214 208.997 101.519 212.663 102.466C215.308 103.148 217.99 103.671 220.675 104.164C221.719 104.356 222.853 104.43 223.752 105.053C224.459 105.544 224.825 106.31 225.034 107.125C225.076 107.291 225.112 107.459 225.145 107.628C225.241 108.13 226.467 107.751 226.426 106.558Z"
        fill="#D93843" />
    <path opacity="0.8"
        d="M226.426 106.558C226.359 104.584 226.274 104.782 226.216 103.099C226.182 102.077 226.177 100.946 226.171 99.9654C226.164 99.0084 225.488 98.1894 224.55 97.9992C223.755 97.8378 222.958 97.6842 222.164 97.515C221.128 97.2942 220.105 97.0566 219.088 96.7614C218.299 96.5322 217.518 96.2796 216.745 96.0012C215.917 95.703 215.1 95.376 214.291 95.0292C213.346 94.6236 212.412 94.1917 211.485 93.7465C210.45 93.2496 209.422 92.736 208.399 92.2158C204.45 85.6788 204.365 81.3714 200.127 76.3188L191.031 80.4336C191.031 80.4336 197.715 92.2927 202.266 97.3207C204.886 100.214 208.997 101.519 212.663 102.466C215.308 103.148 217.99 103.671 220.675 104.164C221.719 104.356 222.853 104.43 223.752 105.053C224.459 105.544 224.825 106.31 225.034 107.125C225.076 107.291 225.112 107.459 225.145 107.628C225.241 108.13 226.467 107.751 226.426 106.558Z"
        fill="white" />
    <path opacity="0.3"
        d="M221.814 97.4401C221.455 97.3615 221.092 97.2811 220.73 97.1953C220.758 99.2671 219.787 102.846 219.43 103.93C219.808 104.001 220.192 104.074 220.571 104.146C221.624 101.299 221.79 98.2855 221.814 97.4401Z"
        fill="#D93843" />
    <path opacity="0.3"
        d="M226.165 99.9659C226.159 99.0065 225.485 98.1893 224.549 97.9973C224.361 97.9589 224.166 97.9181 223.977 97.8857C224.016 98.4497 224.367 99.1043 224.953 99.6239C225.338 99.9707 225.773 100.201 226.173 100.31C226.167 100.19 226.166 100.078 226.165 99.9659Z"
        fill="#D93843" />
    <path
        d="M186.622 52.524C186.865 53.4336 185.847 54.39 185.032 53.6034C184.371 52.965 183.375 51.8958 182.562 51.3876C181.727 50.865 182.841 49.9554 184.152 50.3082C185.377 50.6382 186.379 51.6138 186.622 52.524Z"
        fill="white" />
    <path
        d="M186.697 81.5161C186.274 81.6721 187.047 82.3897 187.047 82.3897C187.047 82.3897 195.429 79.5175 200.544 76.5601C200.587 75.9415 200.137 75.6133 200.137 75.6133C200.137 75.6133 193.914 78.8557 186.697 81.5161Z"
        fill="#D93843" />
    <path opacity="0.5"
        d="M186.697 81.5161C186.274 81.6721 187.047 82.3897 187.047 82.3897C187.047 82.3897 195.429 79.5175 200.544 76.5601C200.587 75.9415 200.137 75.6133 200.137 75.6133C200.137 75.6133 193.914 78.8557 186.697 81.5161Z"
        fill="white" />
    <path
        d="M192.87 56.7379C194.525 57.5737 196.082 58.4587 197.638 59.4385C198.413 59.9263 199.184 60.4273 199.943 60.9679C200.709 61.4977 201.464 62.0563 202.222 62.6851L202.506 62.9179L202.861 63.2377C203.113 63.4597 203.298 63.6643 203.483 63.8683C203.678 64.0789 203.838 64.2817 203.996 64.4839C204.159 64.6873 204.315 64.8895 204.455 65.0887C205.048 65.8855 205.532 66.6961 206.006 67.5001C206.928 69.1303 207.727 70.7581 208.386 72.5095C208.68 73.2907 208.285 74.1619 207.503 74.4565C206.916 74.6773 206.278 74.5093 205.872 74.0809L205.843 74.0485C204.638 72.7717 203.481 71.4247 202.318 70.1737C201.18 68.9263 199.971 67.6459 198.996 67.0891C197.634 66.2395 196.117 65.3959 194.61 64.5649L190.072 62.0461L190.061 62.0401C188.612 61.2361 188.089 59.4097 188.893 57.9607C189.678 56.5477 191.44 56.0179 192.87 56.7379Z"
        fill="#D93843" />
    <path opacity="0.8"
        d="M192.87 56.7379C194.525 57.5737 196.082 58.4587 197.638 59.4385C198.413 59.9263 199.184 60.4273 199.943 60.9679C200.709 61.4977 201.464 62.0563 202.222 62.6851L202.506 62.9179L202.861 63.2377C203.113 63.4597 203.298 63.6643 203.483 63.8683C203.678 64.0789 203.838 64.2817 203.996 64.4839C204.159 64.6873 204.315 64.8895 204.455 65.0887C205.048 65.8855 205.532 66.6961 206.006 67.5001C206.928 69.1303 207.727 70.7581 208.386 72.5095C208.68 73.2907 208.285 74.1619 207.503 74.4565C206.916 74.6773 206.278 74.5093 205.872 74.0809L205.843 74.0485C204.638 72.7717 203.481 71.4247 202.318 70.1737C201.18 68.9263 199.971 67.6459 198.996 67.0891C197.634 66.2395 196.117 65.3959 194.61 64.5649L190.072 62.0461L190.061 62.0401C188.612 61.2361 188.089 59.4097 188.893 57.9607C189.678 56.5477 191.44 56.0179 192.87 56.7379Z"
        fill="white" />
    <path
        d="M209.831 75.4429L209.322 74.1679C209.322 74.1679 209.038 72.5335 208.022 72.0781L204.998 72.5533L205.103 72.8179C205.102 72.8173 205.101 72.8167 205.099 72.8167C205.379 73.4359 205.167 74.5123 204.895 75.3913C204.622 76.2709 205.084 76.3771 205.464 76.2079C205.684 76.1101 205.891 75.7219 206.122 75.3049C206.233 75.5227 206.355 75.7345 206.499 75.9319L207.239 76.9465C207.558 77.3839 208.163 77.4979 208.619 77.2057L209.432 76.6855C209.846 76.4209 210.014 75.8995 209.831 75.4429Z"
        fill="#D93843" />
    <path opacity="0.8"
        d="M209.831 75.4429L209.322 74.1679C209.322 74.1679 209.038 72.5335 208.022 72.0781L204.998 72.5533L205.103 72.8179C205.102 72.8173 205.101 72.8167 205.099 72.8167C205.379 73.4359 205.167 74.5123 204.895 75.3913C204.622 76.2709 205.084 76.3771 205.464 76.2079C205.684 76.1101 205.891 75.7219 206.122 75.3049C206.233 75.5227 206.355 75.7345 206.499 75.9319L207.239 76.9465C207.558 77.3839 208.163 77.4979 208.619 77.2057L209.432 76.6855C209.846 76.4209 210.014 75.8995 209.831 75.4429Z"
        fill="white" />
    <path opacity="0.3"
        d="M190.34 63.6343L189.608 63.6937L185.117 74.5441C185.381 74.5621 185.624 74.5399 185.848 74.4847C185.848 74.4847 191.704 72.3025 193.476 71.5027C192.284 69.0307 190.34 63.6343 190.34 63.6343Z"
        fill="#D93843" />
    <path
        d="M182.141 66.4813C182.391 68.4355 183.856 72.5887 185.12 74.5441C187.313 73.7881 190.976 72.3619 192.748 71.5621C191.555 69.0907 190.298 65.6851 189.611 63.6943C187.721 63.8197 183.603 65.3707 182.141 66.4813Z"
        fill="white" />
    <path opacity="0.3"
        d="M186.6 68.828C186.356 69.647 185.493 70.112 184.674 69.8666C183.856 69.6212 183.39 68.759 183.636 67.9406C183.881 67.1216 184.743 66.6566 185.562 66.902C186.38 67.1468 186.845 68.009 186.6 68.828Z"
        fill="#D93843" />
    <path opacity="0.6"
        d="M187.743 66.7606C187.663 67.0288 187.38 67.1812 187.112 67.1008C186.844 67.0204 186.691 66.7378 186.771 66.4696C186.852 66.2014 187.134 66.049 187.402 66.1294C187.671 66.2092 187.824 66.4918 187.743 66.7606Z"
        fill="#D93843" />
    <path opacity="0.6"
        d="M189.087 66.2396C189.006 66.5078 188.724 66.6602 188.455 66.5798C188.187 66.4994 188.035 66.2168 188.115 65.9486C188.196 65.6804 188.478 65.528 188.746 65.6084C189.015 65.6888 189.167 65.9714 189.087 66.2396Z"
        fill="#D93843" />
    <path opacity="0.5" d="M190.97 70.9122L185.421 73.1046L185.086 72.0138L190.634 69.8208L190.97 70.9122Z"
        fill="#D93843" />
    <path opacity="0.2"
        d="M160.354 154.302C160.234 158.826 159.898 162.3 159.346 164.712C158.638 167.796 157.54 170.052 156.046 171.48C154.558 172.908 152.794 173.622 150.76 173.622C147.676 173.622 145.318 171.942 143.698 168.576C143.434 168.03 143.194 167.406 142.972 166.71C139.546 169.656 136.354 172.872 133.42 176.328L130.234 180.084C131.956 181.83 133.912 183.264 136.096 184.398C139.834 186.33 144.736 187.302 150.808 187.302C151.876 187.302 152.908 187.272 153.91 187.212C157.582 181.776 160.624 175.932 162.97 169.8L171.88 146.568L160.354 154.302Z"
        fill="black" />
    <path
        d="M80.0312 185.974C83.3894 189.333 90.5324 196.476 90.5324 196.476L119.939 168.775C109.819 164.928 90.0938 175.912 80.0312 185.974Z"
        fill="#263238" />
    <path
        d="M116.65 222.595C113.291 219.237 106.148 212.094 106.148 212.094L133.849 182.688C137.696 192.807 126.712 212.532 116.65 222.595Z"
        fill="#263238" />
    <path
        d="M156.839 156.419L168.294 134.334L146.208 145.788C139.113 149.469 132.562 154.115 126.742 159.593L89.0938 195.035L107.592 213.533L143.034 175.885C148.513 170.066 153.159 163.515 156.839 156.419Z"
        fill="#D93843" />
    <path opacity="0.6"
        d="M156.839 156.419L168.294 134.334L146.208 145.788C139.113 149.469 132.562 154.115 126.742 159.593L89.0938 195.035L107.592 213.533L143.034 175.885C148.513 170.066 153.159 163.515 156.839 156.419Z"
        fill="white" />
    <path
        d="M133.31 177.049C137.584 177.049 141.049 173.584 141.049 169.31C141.049 165.035 137.584 161.57 133.31 161.57C129.035 161.57 125.57 165.035 125.57 169.31C125.57 173.584 129.035 177.049 133.31 177.049Z"
        fill="white" />
    <path
        d="M133.315 174.281C136.06 174.281 138.286 172.055 138.286 169.31C138.286 166.564 136.06 164.339 133.315 164.339C130.569 164.339 128.344 166.564 128.344 169.31C128.344 172.055 130.569 174.281 133.315 174.281Z"
        fill="#D93843" />
    <path opacity="0.3" d="M113.844 206.889L95.7344 188.781L110.561 174.822L127.801 192.063L113.844 206.889Z"
        fill="#D93843" />
    <path
        d="M84.126 202.569C70.563 203.673 66.0702 212.353 64.5378 223.893C63.7566 229.778 63.4098 235.733 58.4676 239.178C57.096 240.134 57.777 242.266 59.4486 242.214C77.652 241.646 86.1426 232.731 87.2088 228.999C86.8416 231.359 86.3064 233.22 85.7136 234.684C85.104 236.188 86.7558 237.58 88.131 236.718C93.2412 233.517 99.6504 227.625 100.076 218.072C96.2982 212.762 84.126 202.569 84.126 202.569Z"
        fill="#D93843" />
    <path opacity="0.2"
        d="M84.126 202.569C70.563 203.673 66.0702 212.353 64.5378 223.893C63.7566 229.778 63.4098 235.733 58.4676 239.178C57.096 240.134 57.777 242.266 59.4486 242.214C77.652 241.646 86.1426 232.731 87.2088 228.999C86.8416 231.359 86.3064 233.22 85.7136 234.684C85.104 236.188 86.7558 237.58 88.131 236.718C93.2412 233.517 99.6504 227.625 100.076 218.072C96.2982 212.762 84.126 202.569 84.126 202.569Z"
        fill="white" />
    <path d="M102.163 222.18L80.4453 200.462L92.0151 197.959L104.666 210.61L102.163 222.18Z" fill="#D93843" />
</svg>