<svg width="488" height="44" viewBox="0 0 488 44" fill="none" xmlns="http://www.w3.org/2000/svg">
<g clip-path="url(#clip0_753_61164)">
<rect width="488" height="44" fill="url(#paint0_linear_753_61164)"/>
<g opacity="0.4">
<path d="M86.4637 10.8278C85.8696 10.8278 85.2875 9.99806 85.5643 9.4672L91.5595 -1.84583H71.2479L64.5346 10.8278H82.7063C82.9176 10.8277 83.1254 10.8818 83.3099 10.985C83.4945 11.0882 83.6496 11.237 83.7606 11.4172C83.8715 11.5975 83.9346 11.8032 83.9438 12.0148C83.953 12.2264 83.9081 12.4368 83.8132 12.6261L72.0948 34.7906L43.2951 -9.91152H22.8618L0 33.3272H18.0571C18.292 33.3273 18.5229 33.3879 18.7279 33.503C18.9328 33.6181 19.1048 33.784 19.2276 33.9847C19.3503 34.1855 19.4197 34.4144 19.429 34.6497C19.4384 34.885 19.3874 35.1187 19.281 35.3286L10.0723 52.7178H30.5031L41.3579 32.2272H23.141C22.9077 32.2269 22.6785 32.1661 22.4756 32.0508C22.2727 31.9355 22.103 31.7696 21.9829 31.5691C21.8629 31.3686 21.7966 31.1405 21.7905 30.9068C21.7844 30.673 21.8387 30.4417 21.9481 30.2353L34.1842 7.22899L63.5279 53H83.4148L105.265 10.8278H86.4637Z" fill="url(#paint1_linear_753_61164)" fill-opacity="0.3"/>
<path d="M164.795 -4.40924C162.142 -8.08221 157.211 -9.96174 150.144 -10H123.663L115.726 4.92142H141.78C144.166 4.92142 146.229 6.76509 146.344 9.15874C146.373 9.76101 146.28 10.3629 146.07 10.928C145.86 11.4931 145.538 12.0097 145.123 12.4463C144.708 12.8829 144.209 13.2306 143.656 13.4683C143.103 13.7059 142.508 13.8286 141.907 13.8288H111.01L103.061 28.8579H140.277C140.86 28.8576 141.437 28.9723 141.975 29.1956C142.513 29.4188 143.003 29.7462 143.415 30.1591C143.827 30.5719 144.154 31.062 144.377 31.6015C144.6 32.141 144.714 32.7193 144.714 33.3032C144.716 33.8894 144.602 34.4701 144.379 35.0119C144.156 35.5538 143.828 36.046 143.414 36.4602C143 36.8745 142.509 37.2027 141.968 37.4258C141.427 37.649 140.848 37.7627 140.263 37.7605H98.3396L90.4454 52.6652H100.642C111.539 52.6652 118.296 52.6485 135.406 52.5528C148.05 52.4811 156.951 45.1806 159.818 32.5261C160.455 29.69 161.471 25.1801 158.351 21.5454C161.929 19.214 163.96 16.2966 165.508 11.4424C167.712 4.61535 167.474 -0.714755 164.795 -4.40924Z" fill="url(#paint2_linear_753_61164)" fill-opacity="0.3"/>
<path d="M146.843 9.13484C146.715 6.45728 144.415 4.42142 141.78 4.42142H116.559L123.964 -9.5H150.143C157.141 -9.46187 161.873 -7.60011 164.389 -4.11649L164.39 -4.11572L146.344 9.15874M146.843 9.13484L146.344 9.15874M146.843 9.13484C146.843 9.13478 146.843 9.13471 146.843 9.13464L146.344 9.15874M146.843 9.13484C146.876 9.80448 146.772 10.4737 146.539 11.1021C146.305 11.7305 145.947 12.305 145.486 12.7907C145.024 13.2764 144.469 13.6632 143.854 13.9276C143.239 14.192 142.576 14.3286 141.907 14.3288H111.311M146.344 9.15874C146.373 9.76101 146.28 10.3629 146.07 10.928C145.86 11.4931 145.538 12.0097 145.123 12.4463C144.708 12.8829 144.209 13.2306 143.656 13.4683C143.103 13.7059 142.508 13.8286 141.907 13.8288H111.01M111.311 14.3288L111.452 14.0626L111.01 13.8288M111.311 14.3288H111.01V13.8288M111.311 14.3288L111.01 13.8288M158.351 21.5454C158.493 21.453 158.632 21.3597 158.769 21.2654C158.756 21.2501 158.743 21.2349 158.73 21.2197L158.351 21.5454ZM158.351 21.5454L158.624 21.9644C158.639 21.9548 158.653 21.9453 158.668 21.9357C158.567 21.8046 158.462 21.6745 158.351 21.5454ZM145.214 33.3019L144.714 33.3032H145.214C145.214 33.3027 145.214 33.3024 145.214 33.3019ZM145.214 33.3019C145.214 32.6529 145.087 32.0101 144.839 31.4105C144.591 30.8104 144.227 30.2651 143.769 29.8058C143.31 29.3465 142.766 28.9822 142.167 28.7337C141.567 28.4853 140.925 28.3575 140.277 28.3579M145.214 33.3019L140.277 28.3579M140.277 28.3579L140.277 28.8579V28.3579H140.277ZM85.1225 9.23307L85.1209 9.23607C84.8633 9.73017 85.0348 10.2742 85.2733 10.6267C85.5133 10.9816 85.9425 11.3278 86.4637 11.3278H104.443L83.1107 52.5H63.8013L34.6051 6.95914L34.144 6.23982L33.7428 6.9942L21.5067 30.0005L21.5063 30.0011C21.3566 30.2837 21.2823 30.6001 21.2907 30.9198C21.299 31.2395 21.3897 31.5517 21.554 31.826C21.7182 32.1003 21.9506 32.3276 22.2286 32.4855C22.5065 32.6435 22.8206 32.7267 23.1403 32.7272H23.141H40.5272L30.2022 52.2178H10.9028L19.7228 35.5626L19.7229 35.5627L19.7269 35.5548C19.8719 35.2688 19.9414 34.9503 19.9286 34.6299C19.9159 34.3094 19.8214 33.9975 19.6541 33.7239C19.4868 33.4503 19.2523 33.2242 18.9728 33.0671C18.6932 32.9101 18.3781 32.8274 18.0575 32.8272H18.0571H0.829957L23.163 -9.41152H43.0224L71.6745 35.0614L72.1374 35.7799L72.5368 35.0243L84.2552 12.8598L84.2553 12.8598L84.2602 12.8501C84.3932 12.5847 84.4563 12.2896 84.4433 11.993C84.4304 11.6964 84.342 11.4079 84.1863 11.1551C84.0307 10.9023 83.813 10.6934 83.5539 10.5486C83.2948 10.4037 83.003 10.3277 82.7063 10.3278C82.7062 10.3278 82.7061 10.3278 82.706 10.3278H65.3653L71.5489 -1.34583H90.7286L85.1225 9.23307ZM103.325 28.3579L103.061 28.8579H103.626L103.891 28.3579H103.325ZM90.7102 52.1652L90.4454 52.6652H91.0112L91.276 52.1652H90.7102ZM98.3396 38.2605H98.6405L98.7814 37.9946L98.3396 37.7605V38.2605ZM140.263 37.7605L140.261 38.2605C140.261 38.2605 140.262 38.2605 140.262 38.2605H140.263V37.7605ZM159.33 32.4165L159.818 32.5261L159.331 32.4156C159.33 32.4159 159.33 32.4162 159.33 32.4165ZM115.726 4.92142H116.293H115.726Z" stroke="url(#paint3_linear_753_61164)" stroke-opacity="0.6"/>
</g>


<path fill-rule="evenodd" clip-rule="evenodd" d="M487.188 43.2229C488.908 41.9043 490.651 40.5675 491.152 38.6994C491.652 36.8313 490.811 34.8018 489.981 32.7999C489.337 31.2474 488.7 29.7115 488.701 28.2805C488.704 26.776 489.358 25.1833 490.01 23.5976C490.825 21.6134 491.636 19.6402 491.159 17.8644C490.672 16.0506 488.959 14.736 487.251 13.425C485.9 12.3888 484.553 11.3548 483.816 10.0783C483.079 8.80193 482.857 7.1182 482.635 5.43084C482.354 3.29596 482.072 1.15526 480.745 -0.173721C479.446 -1.47507 477.331 -1.75932 475.205 -2.04515C473.506 -2.27357 471.799 -2.503 470.495 -3.25334C469.255 -3.96773 468.244 -5.28722 467.221 -6.62099C465.902 -8.34084 464.566 -10.0844 462.697 -10.585C460.829 -11.0855 458.8 -10.244 456.798 -9.41383C455.246 -8.77006 453.71 -8.13317 452.279 -8.13451C450.774 -8.13669 449.181 -8.7913 447.596 -9.44304C445.612 -10.2586 443.638 -11.0696 441.862 -10.5922C440.049 -10.1048 438.734 -8.39191 437.423 -6.6837C436.387 -5.33357 435.353 -3.98634 434.076 -3.24941C432.8 -2.51247 431.116 -2.29062 429.429 -2.06829C427.294 -1.78699 425.153 -1.50493 423.824 -0.177915C422.523 1.12128 422.239 3.2357 421.953 5.36183C421.725 7.06094 421.495 8.76754 420.745 10.0715C420.03 11.3116 418.711 12.3232 417.377 13.3458C415.657 14.6644 413.914 16.0013 413.413 17.8694C412.913 19.7375 413.754 21.767 414.584 23.7689C415.228 25.3214 415.865 26.8572 415.864 28.2883C415.861 29.7928 415.207 31.3855 414.555 32.9711C413.74 34.9553 412.928 36.9286 413.406 38.7044C413.893 40.5181 415.606 41.8328 417.314 43.1438C418.665 44.18 420.012 45.214 420.749 46.4904C421.486 47.7668 421.707 49.4506 421.93 51.1379C422.211 53.2728 422.493 55.4135 423.82 56.7425C425.119 58.0438 427.234 58.3281 429.36 58.6139C431.059 58.8423 432.766 59.0718 434.07 59.8221C435.31 60.5365 436.321 61.856 437.344 63.1898C438.663 64.9096 439.999 66.6532 441.867 67.1538C443.736 67.6543 445.765 66.8127 447.767 65.9826C449.319 65.3388 450.855 64.7019 452.286 64.7033C453.791 64.7055 455.384 65.3601 456.969 66.0118C458.953 66.8273 460.927 67.6384 462.703 67.161C464.516 66.6736 465.831 64.9607 467.142 63.2525C468.178 61.9023 469.212 60.5551 470.489 59.8182C471.765 59.0812 473.449 58.8594 475.136 58.6371C477.271 58.3558 479.412 58.0737 480.741 56.7467C482.042 55.4475 482.326 53.3331 482.612 51.2069C482.84 49.5078 483.07 47.8012 483.82 46.4972C484.535 45.2572 485.854 44.2455 487.188 43.2229ZM447.858 30.5428L466.619 19.7111C468.73 18.4924 471.425 19.2145 472.644 21.3255C473.862 23.4365 473.139 26.1379 471.028 27.3567L448.34 40.4552C446.287 41.6408 443.657 40.936 442.471 38.8825L434.594 25.239C433.375 23.128 434.099 20.4265 436.21 19.2077C438.321 17.9889 441.022 18.7128 442.241 20.8238L447.858 30.5428Z" fill="url(#paint7_linear_753_61164)" fill-opacity="0.5"/>
</g>
<defs>
<linearGradient id="paint0_linear_753_61164" x1="0" y1="22" x2="488" y2="22" gradientUnits="userSpaceOnUse">
<stop stop-color="#090D14"/>
<stop offset="1" stop-color="#011E24"/>
</linearGradient>
<linearGradient id="paint1_linear_753_61164" x1="163.418" y1="-7.7283" x2="3.48498" y2="52.6423" gradientUnits="userSpaceOnUse">
<stop stop-color="white"/>
<stop offset="1" stop-color="white" stop-opacity="0.05"/>
</linearGradient>
<linearGradient id="paint2_linear_753_61164" x1="163.418" y1="-7.7283" x2="3.48498" y2="52.6423" gradientUnits="userSpaceOnUse">
<stop stop-color="white"/>
<stop offset="1" stop-color="white" stop-opacity="0.05"/>
</linearGradient>
<linearGradient id="paint3_linear_753_61164" x1="163.418" y1="-7.7283" x2="3.48498" y2="52.6423" gradientUnits="userSpaceOnUse">
<stop stop-color="white"/>
<stop offset="1" stop-color="white" stop-opacity="0.1"/>
</linearGradient>
<linearGradient id="paint4_linear_753_61164" x1="27.9938" y1="12" x2="27.9938" y2="30.993" gradientUnits="userSpaceOnUse">
<stop stop-color="#F0ECDB"/>
<stop offset="0.5" stop-color="#E1C099"/>
<stop offset="1" stop-color="#DFA475"/>
</linearGradient>
<linearGradient id="paint5_linear_753_61164" x1="27.9938" y1="12" x2="27.9938" y2="30.993" gradientUnits="userSpaceOnUse">
<stop stop-color="#DFA475"/>
<stop offset="0.5" stop-color="#E1C099"/>
<stop offset="1" stop-color="#B06A33"/>
</linearGradient>
<linearGradient id="paint6_linear_753_61164" x1="194" y1="22" x2="48" y2="22" gradientUnits="userSpaceOnUse">
<stop stop-color="#E6BE8E"/>
<stop offset="0.5" stop-color="#FCE7D2"/>
<stop offset="1" stop-color="#FCE7D2"/>
</linearGradient>
<linearGradient id="paint7_linear_753_61164" x1="499.148" y1="2.18643" x2="412.601" y2="-8.28016" gradientUnits="userSpaceOnUse">
<stop stop-color="white"/>
<stop offset="1" stop-color="white" stop-opacity="0.05"/>
</linearGradient>
<clipPath id="clip0_753_61164">
<rect width="488" height="44" fill="white"/>
</clipPath>
</defs>
</svg>
