<svg width="488" height="109" viewBox="0 0 488 109" fill="none" xmlns="http://www.w3.org/2000/svg">
<g clip-path="url(#clip0_992_72227)">
<rect width="488" height="109" rx="8" fill="#FFF0F1"/>
<g opacity="0.1" clip-path="url(#clip1_992_72227)">
<path d="M430.515 70.573C432.224 73.5337 436.01 74.5481 438.971 72.8388C441.931 71.1294 442.946 67.3436 441.236 64.3829C439.527 61.4222 435.741 60.4078 432.781 62.1172C429.82 63.8265 428.806 67.6123 430.515 70.573Z" fill="#D93843"/>
<path d="M413.397 55.0462L410.878 54.3712C410.356 56.332 409.595 59.1896 409.288 60.335C408.921 61.7049 408.197 64.4402 407.698 66.3254C408.646 66.5729 409.7 66.8466 410.299 66.9958C413.317 67.7482 415.458 65.1377 416.24 62.2165C417.015 59.3263 416.675 55.9245 413.397 55.0462Z" fill="#D93843"/>
<path d="M374.178 55.4775C375.887 58.4381 379.673 59.4526 382.633 57.7432C385.594 56.0338 386.608 52.248 384.899 49.2873C383.19 46.3267 379.404 45.3123 376.443 47.0216C373.483 48.731 372.468 52.5168 374.178 55.4775Z" fill="#D93843"/>
<path d="M491.609 56.7778L353.629 19.8063C349.226 18.6265 344.701 21.2394 343.521 25.6423L334.976 57.5314C333.797 61.9345 336.41 66.4602 340.812 67.6397L478.792 104.611C483.195 105.791 487.721 103.178 488.9 98.7752L497.445 66.8861C498.625 62.4833 496.012 57.9576 491.609 56.7778ZM366.189 54.0216C364.87 56.8346 361.473 58.2227 358.113 57.3224C355.422 56.6013 353.095 54.7684 351.889 52.4196C351.368 51.4059 351.768 50.162 352.782 49.6415C353.795 49.1211 355.039 49.5202 355.56 50.5342C356.243 51.8641 357.597 52.9114 359.181 53.3361C360.722 53.7489 362.055 53.1179 362.452 52.2697C362.981 51.1412 361.574 49.9837 360.943 49.5388C358.715 47.9641 356.781 46.3984 356.7 46.3324C356.615 46.264 356.537 46.1888 356.464 46.1078C355.076 44.5614 354.725 42.407 355.547 40.4853C356.424 38.4372 358.446 37.12 360.825 37.0465C365.532 36.9014 368.326 40.8194 368.442 40.986C369.095 41.9202 368.867 43.2066 367.933 43.8592C367.003 44.5093 365.723 44.286 365.068 43.3615C365.022 43.2991 363.38 41.0965 360.952 41.1713C359.846 41.2054 359.457 41.8384 359.341 42.1091C359.258 42.304 359.113 42.786 359.454 43.2511C359.948 43.6461 361.56 44.9214 363.325 46.1687C366.95 48.7303 367.181 51.905 366.189 54.0216ZM376.868 62.3478C371.373 60.8754 368.101 55.2071 369.573 49.7123C371.045 44.2175 376.714 40.9448 382.209 42.4171C387.703 43.8895 390.976 49.5579 389.504 55.0527C388.031 60.5475 382.363 63.8201 376.868 62.3478ZM397.479 67.856C395.666 67.3809 394.426 67.0535 393.572 66.8245C391.795 66.3483 391.691 66.3003 391.556 66.2381C390.643 65.8176 390.166 64.8008 390.426 63.8298L394.695 47.8988C394.99 46.7981 396.121 46.1449 397.222 46.4397C398.323 46.7347 398.976 47.8662 398.681 48.9669L394.943 62.918C395.977 63.1937 397.295 63.5415 398.525 63.8638C398.529 63.8648 398.533 63.8658 398.537 63.8668C399.632 64.1603 400.286 65.2841 399.998 66.3826C399.71 67.4852 398.582 68.1447 397.479 67.856ZM409.301 71.0002C408.008 70.678 404.785 69.8277 404.648 69.7916C404.646 69.7909 404.643 69.7903 404.641 69.7896C404.115 69.6486 403.666 69.3056 403.392 68.8348C403.116 68.3618 403.04 67.7988 403.18 67.2695C403.18 67.2695 404.708 61.4836 405.302 59.267C405.789 57.4488 407.421 51.3129 407.421 51.3129C407.562 50.7834 407.908 50.3317 408.382 50.0572C408.856 49.7827 409.42 49.7082 409.949 49.85L414.465 51.06C419.509 52.4114 421.824 57.324 420.227 63.2847C418.707 68.9549 414.112 72.1996 409.301 71.0002ZM433.206 77.4431C427.711 75.9708 424.438 70.3024 425.91 64.8076C427.383 59.3128 433.051 56.0401 438.546 57.5125C444.041 58.9848 447.313 64.6532 445.841 70.148C444.369 75.6432 438.7 78.9157 433.206 77.4431ZM462.804 77.8959C462.303 79.7644 460.899 82.1598 457.052 82.9588C455.832 83.212 454.574 83.169 453.312 82.8309C453.308 82.8299 453.304 82.8288 453.3 82.8277C451.835 82.4331 450.591 81.6835 449.6 80.5993C447.718 78.5405 447.091 76.2767 447.736 73.8706L450.676 62.8991C450.971 61.7983 452.102 61.1452 453.203 61.44C454.304 61.7349 454.957 62.8664 454.662 63.9672L451.722 74.9387C451.49 75.8046 451.558 76.6251 452.646 77.8152C453.105 78.3172 453.67 78.6534 454.373 78.8429C454.376 78.8435 454.378 78.8441 454.38 78.8447C455.022 79.0168 455.622 79.0409 456.213 78.9181C458.132 78.5195 458.614 77.5915 458.818 76.8278L461.755 65.8679C462.05 64.7672 463.181 64.114 464.282 64.4088C465.383 64.7038 466.036 65.8353 465.741 66.936L462.804 77.8959ZM478.934 72.6068L476.506 71.9564L472.768 85.9078C472.473 87.0086 471.342 87.6617 470.241 87.3669C469.14 87.0719 468.487 85.9404 468.782 84.8397L472.52 70.8883L470.128 70.2473C469.027 69.9524 468.374 68.8209 468.669 67.7201C468.964 66.6193 470.095 65.9662 471.196 66.261L480.002 68.6203C481.102 68.9152 481.756 70.0467 481.461 71.1475C481.166 72.2486 480.034 72.9018 478.934 72.6068Z" fill="#D93843"/>
<path d="M451.243 37.4169C439.354 20.5916 416.977 14.5959 398.268 23.2225L451.243 37.4169Z" fill="#D93843"/>
<path d="M381.179 87.0006C393.068 103.826 415.445 109.822 434.153 101.195L381.179 87.0006Z" fill="#D93843"/>
<path d="M386.992 20.2011C388.161 19.3893 389.371 18.6171 390.625 17.8929C415.061 3.78476 446.419 12.187 460.527 36.623C461.251 37.8774 461.912 39.1509 462.519 40.4386L484.865 46.4263C483.332 39.767 480.799 33.22 477.205 26.9939C457.756 -6.69215 414.682 -18.2338 380.996 1.21482C374.77 4.80949 369.303 9.21314 364.645 14.2134L386.992 20.2011Z" fill="#D93843"/>
<path d="M445.43 104.216C444.261 105.028 443.051 105.8 441.797 106.525C417.361 120.633 386.003 112.23 371.895 87.7946C371.171 86.5401 370.509 85.2667 369.903 83.9789L347.556 77.9912C349.089 84.6502 351.622 91.1975 355.217 97.4236C374.665 131.11 417.74 142.651 451.426 123.203C457.652 119.608 463.119 115.204 467.776 110.204L445.43 104.216Z" fill="#D93843"/>
</g>
</g>
<defs>
<clipPath id="clip0_992_72227">
<rect width="488" height="109" rx="8" fill="white"/>
</clipPath>
<clipPath id="clip1_992_72227">
<rect width="140.859" height="140.859" fill="white" transform="translate(441.984 -34) rotate(60)"/>
</clipPath>
</defs>
</svg>
