<svg width="24" height="24" viewBox="0 0 24 24" fill="none" xmlns="http://www.w3.org/2000/svg">
    <g filter="url(#filter0_d_3011_141256)">
        <path
            d="M12.0519 18C11.6282 18 11.2103 17.888 10.8434 17.6763L6.00837 14.8846C5.26297 14.4544 4.7998 13.6524 4.7998 12.7915V7.20856C4.7998 6.34784 5.26286 5.5457 6.00837 5.11539L10.8434 2.32395C11.2103 2.11198 11.6282 2 12.0519 2C12.4755 2 12.8935 2.11198 13.2605 2.32395L18.0955 5.11539C18.8409 5.54581 19.304 6.34784 19.304 7.20856V12.7915C19.304 13.6524 18.841 14.4544 18.0955 14.8847L13.2605 17.6762C12.8934 17.888 12.4755 18 12.0519 18Z"
            fill="url(#paint0_linear_3011_141256)" />
        <path
            d="M17.9371 14.6038L13.1021 17.3953C12.4546 17.7692 11.6568 17.7692 11.0094 17.3953L6.17435 14.6038C5.52689 14.23 5.12793 13.5391 5.12793 12.7914V7.20845C5.12793 6.46079 5.52678 5.76987 6.17435 5.3961L11.0094 2.60455C11.6568 2.23077 12.4546 2.23077 13.1021 2.60455L17.9371 5.3961C18.5846 5.76998 18.9835 6.46079 18.9835 7.20845V12.7914C18.9835 13.5391 18.5847 14.2299 17.9371 14.6038Z"
            fill="url(#paint1_linear_3011_141256)" />
        <path
            d="M17.3356 14.1335L12.9949 16.6396C12.4136 16.9752 11.6974 16.9752 11.1161 16.6396L6.77535 14.1335C6.19404 13.7979 5.83594 13.1777 5.83594 12.5064V7.49426C5.83594 6.82302 6.19404 6.20279 6.77535 5.86717L11.1161 3.36109C11.6974 3.02547 12.4136 3.02547 12.9949 3.36109L17.3356 5.86717C17.9169 6.20279 18.275 6.82302 18.275 7.49426V12.5064C18.275 13.1777 17.9169 13.7979 17.3356 14.1335Z"
            fill="url(#paint2_linear_3011_141256)" />
        <path
            d="M17.0373 13.9046L12.9371 16.2718C12.388 16.5888 11.7114 16.5888 11.1623 16.2718L7.06212 13.9046C6.51302 13.5876 6.1748 13.0017 6.1748 12.3677V7.63321C6.1748 6.99915 6.51302 6.4133 7.06212 6.09627L11.1623 3.72898C11.7114 3.41195 12.388 3.41195 12.9371 3.72898L17.0373 6.09627C17.5864 6.4133 17.9246 6.99915 17.9246 7.63321V12.3677C17.9246 13.0017 17.5864 13.5877 17.0373 13.9046Z"
            fill="url(#paint3_linear_3011_141256)" />
        <path
            d="M12.937 16.2706L17.0371 13.9034C17.5862 13.5864 17.9245 13.0006 17.9245 12.3665V7.63202C17.9245 7.28343 17.8217 6.94976 17.6385 6.66699C15.1124 7.97662 10.608 10.2043 6.1748 11.8637V12.3665C6.1748 13.0006 6.51302 13.5864 7.06212 13.9034L11.1623 16.2706C11.7113 16.5877 12.3879 16.5877 12.937 16.2706Z"
            fill="url(#paint4_linear_3011_141256)" />
        <path
            d="M14.7048 14.2995C14.5819 14.2995 14.4591 14.2664 14.3494 14.2039L12.1782 12.9637C12.1402 12.9421 12.0971 12.9305 12.0534 12.9305C12.0097 12.9305 11.9665 12.942 11.9286 12.9637L9.75738 14.2039C9.64778 14.2664 9.52488 14.2995 9.40198 14.2995C9.18861 14.2995 8.97967 14.1994 8.84326 14.0317C8.70782 13.8652 8.65551 13.6478 8.69961 13.4353L9.20807 10.9873C9.22623 10.9005 9.19661 10.8095 9.131 10.7498L7.2807 9.06815C7.06917 8.87596 6.99275 8.58768 7.08095 8.31584C7.16926 8.04399 7.40058 7.8558 7.68475 7.82467L10.1702 7.55174C10.2584 7.54202 10.3357 7.48581 10.3721 7.40496L11.3997 5.12554C11.5172 4.86504 11.7677 4.70312 12.0536 4.70312C12.3392 4.70312 12.5898 4.86494 12.7073 5.12554L13.7349 7.40496C13.7713 7.48581 13.8487 7.54202 13.9368 7.55174L16.4222 7.82467C16.7063 7.8558 16.9376 8.0441 17.0259 8.31584C17.1142 8.58768 17.0377 8.87596 16.8263 9.06815L14.9759 10.7498C14.9103 10.8094 14.8808 10.9004 14.8988 10.9873L15.4073 13.4353C15.4514 13.6479 15.3991 13.8653 15.2636 14.0318C15.1271 14.1993 14.9183 14.2994 14.7048 14.2995Z"
            fill="url(#paint5_linear_3011_141256)" />
        <path
            d="M12.4915 5.2218L13.5191 7.50121C13.5896 7.65751 13.7375 7.76496 13.9078 7.78365L16.3933 8.05658C16.808 8.10209 16.975 8.61584 16.6662 8.89655L14.8159 10.5782C14.689 10.6936 14.6326 10.8674 14.6674 11.0352L15.1758 13.4834C15.2607 13.892 14.8237 14.2094 14.4614 14.0025L12.2901 12.7624C12.1413 12.6773 11.9585 12.6773 11.8097 12.7624L9.63847 14.0025C9.27615 14.2095 8.83903 13.892 8.92399 13.4834L9.43245 11.0352C9.46736 10.8674 9.41083 10.6936 9.28393 10.5782L7.43364 8.89655C7.12482 8.61584 7.29172 8.10209 7.70657 8.05658L10.192 7.78365C10.3625 7.76496 10.5102 7.65751 10.5807 7.50121L11.6083 5.2218C11.7799 4.84143 12.32 4.84143 12.4915 5.2218Z"
            fill="url(#paint6_radial_3011_141256)" />
        <path
            d="M15.7235 9.75684C13.3892 10.752 11.106 11.1616 9.37941 11.3202L8.93061 13.4809C8.84576 13.8895 9.28277 14.2069 9.64509 14L11.8163 12.7599C11.9651 12.6749 12.1479 12.6749 12.2968 12.7599L14.468 14C14.8303 14.207 15.2673 13.8895 15.1825 13.4809L14.674 11.0327C14.6391 10.8649 14.6956 10.6911 14.8225 10.5757L15.7235 9.75684Z"
            fill="url(#paint7_linear_3011_141256)" />
        <path
            d="M12.1211 6.41068C12.0173 6.70339 11.8146 6.89871 11.6683 6.84682C11.5219 6.79494 11.4873 6.51563 11.5911 6.22282C11.6948 5.93011 11.8975 5.73479 12.0439 5.78667C12.1902 5.83855 12.2248 6.11797 12.1211 6.41068Z"
            fill="#FFF8E1" />
        <path
            d="M11.6954 7.20759C11.6954 7.3147 11.6087 7.4015 11.5015 7.4015C11.3944 7.4015 11.3076 7.3147 11.3076 7.20759C11.3076 7.10047 11.3944 7.01367 11.5015 7.01367C11.6087 7.01367 11.6954 7.10047 11.6954 7.20759Z"
            fill="#FFF8E1" />
        <path
            d="M15.2653 8.75864C14.9558 8.73302 14.7153 8.58689 14.728 8.4321C14.7408 8.27731 15.0021 8.17257 15.3116 8.19819C15.6212 8.22381 15.8617 8.36995 15.8489 8.52473C15.8362 8.67941 15.5749 8.78415 15.2653 8.75864Z"
            fill="#FFF8E1" />
        <path
            d="M14.3822 8.5455C14.2786 8.57285 14.1725 8.51102 14.1451 8.40747C14.1178 8.30392 14.1796 8.19777 14.2832 8.17053C14.3867 8.14319 14.4929 8.20502 14.5201 8.30857C14.5475 8.41212 14.4857 8.51815 14.3822 8.5455Z"
            fill="#FFF8E1" />
    </g>
    <defs>
        <filter id="filter0_d_3011_141256" x="0" y="0" width="24" height="24" filterUnits="userSpaceOnUse"
            color-interpolation-filters="sRGB">
            <feFlood flood-opacity="0" result="BackgroundImageFix" />
            <feColorMatrix in="SourceAlpha" type="matrix" values="0 0 0 0 0 0 0 0 0 0 0 0 0 0 0 0 0 0 127 0"
                result="hardAlpha" />
            <feOffset dy="2" />
            <feGaussianBlur stdDeviation="2" />
            <feComposite in2="hardAlpha" operator="out" />
            <feColorMatrix type="matrix" values="0 0 0 0 0.391667 0 0 0 0 0.157183 0 0 0 0 0.0114236 0 0 0 0.25 0" />
            <feBlend mode="normal" in2="BackgroundImageFix" result="effect1_dropShadow_3011_141256" />
            <feBlend mode="normal" in="SourceGraphic" in2="effect1_dropShadow_3011_141256" result="shape" />
        </filter>
        <linearGradient id="paint0_linear_3011_141256" x1="12.0519" y1="-0.083446" x2="12.0519" y2="19.4951"
            gradientUnits="userSpaceOnUse">
            <stop stop-color="#FF8F00" />
            <stop offset="0.995" stop-color="#B13827" />
        </linearGradient>
        <linearGradient id="paint1_linear_3011_141256" x1="12.0557" y1="0.325268" x2="12.0557" y2="19.1101"
            gradientUnits="userSpaceOnUse">
            <stop stop-color="#FF8F00" />
            <stop offset="0.0897" stop-color="#FF9506" />
            <stop offset="0.2098" stop-color="#FFA615" />
            <stop offset="0.3473" stop-color="#FFC22F" />
            <stop offset="0.4967" stop-color="#FFE953" />
            <stop offset="0.515" stop-color="#FFEE58" />
            <stop offset="0.8195" stop-color="#F4991E" />
            <stop offset="0.995" stop-color="#EF6C00" />
        </linearGradient>
        <linearGradient id="paint2_linear_3011_141256" x1="12.0555" y1="15.7387" x2="12.0555" y2="3.34537"
            gradientUnits="userSpaceOnUse">
            <stop stop-color="#FFEE58" />
            <stop offset="0.6311" stop-color="#F4991E" />
            <stop offset="0.995" stop-color="#EF6C00" />
        </linearGradient>
        <linearGradient id="paint3_linear_3011_141256" x1="12.0497" y1="1.79627" x2="12.0497" y2="17.7261"
            gradientUnits="userSpaceOnUse">
            <stop stop-color="#FF8F00" />
            <stop offset="0.995" stop-color="#B13827" />
        </linearGradient>
        <linearGradient id="paint4_linear_3011_141256" x1="11.4292" y1="7.03395" x2="14.1314" y2="19.9508"
            gradientUnits="userSpaceOnUse">
            <stop stop-color="#FF8F00" />
            <stop offset="0.995" stop-color="#B13827" />
        </linearGradient>
        <linearGradient id="paint5_linear_3011_141256" x1="12.5431" y1="1.40855" x2="11.7674" y2="12.7075"
            gradientUnits="userSpaceOnUse">
            <stop stop-color="#FF8F00" />
            <stop offset="0.995" stop-color="#B13827" />
        </linearGradient>
        <radialGradient id="paint6_radial_3011_141256" cx="0" cy="0" r="1" gradientUnits="userSpaceOnUse"
            gradientTransform="translate(11.6716 8.7454) scale(4.67168)">
            <stop stop-color="#FFF176" />
            <stop offset="0.047" stop-color="#FFEF72" />
            <stop offset="0.6875" stop-color="#FFD53D" />
            <stop offset="1" stop-color="#FFCB28" />
        </radialGradient>
        <linearGradient id="paint7_linear_3011_141256" x1="13.4067" y1="15.6209" x2="10.4883" y2="5.08204"
            gradientUnits="userSpaceOnUse">
            <stop stop-color="#FFD54F" />
            <stop offset="0.4801" stop-color="#FFAF16" />
            <stop offset="0.6546" stop-color="#FFA000" />
        </linearGradient>
    </defs>
</svg>