<svg width="261" height="233" viewBox="0 0 261 233" fill="none" xmlns="http://www.w3.org/2000/svg">
    <path
        d="M217 118C217 125.381 207.932 131.465 206.115 138.27C204.241 145.305 208.984 155.109 205.423 161.264C201.805 167.521 190.92 168.271 185.846 173.346C180.771 178.42 180.021 189.305 173.764 192.923C167.609 196.484 157.805 191.741 150.77 193.615C143.965 195.432 137.881 204.5 130.5 204.5C123.119 204.5 117.035 195.432 110.23 193.615C103.195 191.741 93.3915 196.484 87.2356 192.923C80.9788 189.305 80.2291 178.42 75.1544 173.346C70.0798 168.271 59.1952 167.521 55.5766 161.264C52.0157 155.109 56.7588 145.305 54.8846 138.27C53.0681 131.465 44 125.381 44 118C44 110.619 53.0681 104.535 54.8846 97.7302C56.7588 90.6948 52.0157 80.8915 55.5766 74.7356C59.1952 68.4788 70.0798 67.7291 75.1544 62.6544C80.2291 57.5798 80.9788 46.6952 87.2356 43.0766C93.3915 39.5157 103.195 44.2588 110.23 42.3846C117.035 40.5681 123.119 31.5 130.5 31.5C137.881 31.5 143.965 40.5681 150.77 42.3846C157.805 44.2588 167.609 39.5157 173.764 43.0766C180.021 46.6952 180.771 57.5798 185.846 62.6544C190.92 67.7291 201.805 68.4788 205.423 74.7356C208.984 80.8915 204.241 90.6948 206.115 97.7302C207.932 104.535 217 110.619 217 118Z"
        fill="#F6F8F5" />
    <path
        d="M201 118C201 124.016 193.609 128.974 192.129 134.52C190.601 140.254 194.467 148.244 191.565 153.262C188.615 158.361 179.744 158.972 175.608 163.108C171.472 167.244 170.861 176.115 165.762 179.065C160.744 181.967 152.754 178.101 147.02 179.629C141.474 181.109 136.516 188.5 130.5 188.5C124.484 188.5 119.525 181.109 113.979 179.629C108.245 178.101 100.256 181.967 95.2383 179.065C90.1388 176.115 89.5278 167.244 85.3918 163.108C81.2558 158.972 72.3845 158.361 69.4352 153.262C66.533 148.244 70.3987 140.254 68.8713 134.52C67.3907 128.974 60 124.016 60 118C60 111.984 67.3907 107.025 68.8713 101.479C70.3987 95.7455 66.533 87.7555 69.4352 82.7383C72.3845 77.6388 81.2558 77.0278 85.3918 72.8918C89.5278 68.7558 90.1388 59.8845 95.2383 56.9352C100.256 54.033 108.245 57.8987 113.979 56.3713C119.525 54.8907 124.484 47.5 130.5 47.5C136.516 47.5 141.474 54.8907 147.02 56.3713C152.754 57.8987 160.744 54.033 165.762 56.9352C170.861 59.8845 171.472 68.7558 175.608 72.8918C179.744 77.0278 188.615 77.6388 191.565 82.7383C194.467 87.7555 190.601 95.7455 192.129 101.479C193.609 107.025 201 111.984 201 118Z"
        fill="#ECF3EB" />
    <path
        d="M181.803 117.499C181.803 121.878 176.424 125.488 175.346 129.524C174.234 133.698 177.048 139.514 174.936 143.166C172.789 146.878 166.332 147.322 163.321 150.333C160.311 153.343 159.866 159.801 156.154 161.947C152.502 164.06 146.686 161.246 142.513 162.358C138.476 163.436 134.867 168.815 130.488 168.815C126.109 168.815 122.5 163.436 118.463 162.358C114.289 161.246 108.473 164.06 104.821 161.947C101.109 159.801 100.665 153.343 97.6541 150.333C94.6436 147.322 88.1863 146.878 86.0396 143.166C83.9271 139.514 86.741 133.698 85.6291 129.524C84.5515 125.488 79.1719 121.878 79.1719 117.499C79.1719 113.12 84.5515 109.511 85.6291 105.474C86.741 101.301 83.9271 95.4849 86.0396 91.8329C88.1863 88.1211 94.6436 87.6764 97.6541 84.6658C100.665 81.6553 101.109 75.1981 104.821 73.0514C108.473 70.9389 114.289 73.7527 118.463 72.6408C122.5 71.5632 126.109 66.1836 130.488 66.1836C134.867 66.1836 138.476 71.5632 142.513 72.6408C146.686 73.7527 152.502 70.9389 156.154 73.0514C159.866 75.1981 160.311 81.6553 163.321 84.6658C166.332 87.6764 172.789 88.1211 174.936 91.8329C177.048 95.4849 174.234 101.301 175.346 105.474C176.424 109.511 181.803 113.12 181.803 117.499Z"
        fill="#079449" />
    <path
        d="M145.334 102.209L125.8 121.743L115.674 111.626C113.475 109.427 109.909 109.427 107.711 111.626C105.513 113.824 105.513 117.39 107.711 119.588L121.917 133.794C124.055 135.932 127.527 135.932 129.666 133.794L153.288 110.172C155.486 107.974 155.486 104.407 153.288 102.209C151.09 100.011 147.532 100.011 145.334 102.209Z"
        fill="#EFFFF4" />
    <rect width="7" height="7" transform="matrix(-0.852179 0.52325 0.52325 0.852179 250.195 223.137)" fill="#079449" />
    <rect width="7" height="7" transform="matrix(-0.852179 0.52325 0.52325 0.852179 130.336 35)" fill="#079449" />
    <rect width="3.67362" height="3.67362" transform="matrix(-0.852179 0.52325 0.52325 0.852179 173.078 55)"
        fill="#079449" />
    <rect width="2.43966" height="2.43966" transform="matrix(-0.852179 0.52325 0.52325 0.852179 249.727 131)"
        fill="#079449" />
    <rect width="6.05336" height="6.05336" transform="matrix(-0.852179 0.52325 0.52325 0.852179 233.75 55.082)"
        fill="#079449" />
    <rect width="6.05336" height="6.05336" transform="matrix(4.37114e-08 1 1 -4.37114e-08 35.9453 189)"
        fill="#079449" />
    <rect width="3.43986" height="3.43986" transform="matrix(0.866025 0.5 0.5 -0.866025 55.6172 184.656)"
        fill="#079449" />
    <rect width="4.8626" height="4.8626" transform="matrix(-0.707107 0.707107 0.707107 0.707107 48.7188 56.8418)"
        fill="#079449" />
    <rect width="3.00396" height="3.00396" transform="matrix(-0.707107 0.707107 0.707107 0.707107 3.875 92)"
        fill="#079449" />
    <rect opacity="0.5" width="4.8626" height="4.8626"
        transform="matrix(-0.835153 0.550018 0.550018 0.835153 137.328 0)" fill="#079449" />
    <rect opacity="0.5" width="3.55529" height="3.55529"
        transform="matrix(-0.797105 0.60384 0.60384 0.797105 41.8516 33)" fill="#079449" />
    <circle cx="3" cy="3" r="3" transform="matrix(-1 0 0 1 115 14)" fill="#079449" />
    <circle cx="2" cy="2" r="2" transform="matrix(-1 0 0 1 261 16)" fill="#079449" />
    <circle cx="1" cy="1" r="1" transform="matrix(-1 0 0 1 219 72)" fill="#079449" />
    <circle cx="1" cy="1" r="1" transform="matrix(-1 0 0 1 223 167)" fill="#079449" />
    <circle cx="2" cy="2" r="2" transform="matrix(-1 0 0 1 216 185)" fill="#079449" />
    <circle cx="2" cy="2" r="2" transform="matrix(-1 0 0 1 176 229)" fill="#079449" />
    <circle cx="2" cy="2" r="2" transform="matrix(-1 0 0 1 31 168)" fill="#079449" />
    <circle cx="1" cy="1" r="1" transform="matrix(-1 0 0 1 2 108)" fill="#079449" />
    <circle cx="1" cy="1" r="1" transform="matrix(-1 0 0 1 65 82)" fill="#079449" />
    <circle cx="1" cy="1" r="1" transform="matrix(-1 0 0 1 114 56)" fill="#079449" />
</svg>