<svg width="18" height="18" viewBox="0 0 18 18" fill="none" xmlns="http://www.w3.org/2000/svg">
    <g clip-path="url(#clip0_3007_142856)">
        <path fill-rule="evenodd" clip-rule="evenodd"
            d="M8.19449 0.0615234H9.78461C11.9685 0.0615234 13.2447 0.382281 14.3776 0.989673C15.5104 1.59706 16.4045 2.48426 17.005 3.61717C17.6124 4.75005 17.9332 6.02625 17.9332 8.21012V9.79343C17.9332 11.9773 17.6124 13.2535 17.005 14.3864C16.3976 15.5193 15.5104 16.4133 14.3776 17.0139C13.2447 17.6213 11.9685 17.942 9.78461 17.942H8.20129C6.01742 17.942 4.74122 17.6213 3.60834 17.0139C2.47547 16.4065 1.58144 15.5193 0.98088 14.3864C0.373489 13.2535 0.0527344 11.9773 0.0527344 9.79343V8.21012C0.0527344 6.02625 0.373489 4.75005 0.98088 3.61717C1.58827 2.48426 2.47547 1.59024 3.60834 0.989673C4.73442 0.382281 6.01742 0.0615234 8.19449 0.0615234Z"
            fill="#DDDDE3" />
        <path opacity="0.12" fill-rule="evenodd" clip-rule="evenodd"
            d="M17.9401 9.52734V9.78863C17.9401 11.9725 17.6194 13.2487 17.012 14.3816C16.4046 15.5145 15.5174 16.4085 14.3845 17.0091C13.2516 17.6165 11.9754 17.9372 9.79153 17.9372H8.20825C6.42128 17.9372 5.24203 17.7225 4.25174 17.3116L2.61914 15.6305L17.9401 9.52734Z"
            fill="#DDDDE3" />
        <path fill-rule="evenodd" clip-rule="evenodd"
            d="M2.80659 15.6921C3.64284 15.7846 4.68835 15.5461 5.4307 15.1857C8.65425 16.9674 13.6932 16.8823 16.7434 14.9304C16.8617 14.7529 16.9722 14.5684 17.0748 14.3771C17.6844 13.24 18.0063 11.9592 18.0063 9.76737V8.1783C18.0063 5.98644 17.6844 4.7056 17.0748 3.56858C16.472 2.43157 15.5747 1.54113 14.4377 0.931529C13.3007 0.321926 12.0199 0 9.82803 0H8.23212C6.36534 0 5.1535 0.234991 4.13532 0.683615C4.07966 0.733453 4.02505 0.784145 3.97159 0.835686C0.984394 3.71531 0.757321 9.95735 3.29036 13.3482C3.29318 13.3532 3.29631 13.3582 3.29975 13.3633C3.69018 13.9387 3.31345 14.9455 2.7244 15.5346C2.6285 15.6236 2.66275 15.6784 2.80659 15.6921Z"
            fill="#27272A" />
        <path
            d="M7.411 6.11719H3.91V6.8679H6.33953L3.94409 9.8366C3.86903 9.94579 3.81445 10.0482 3.81445 10.2802V10.4713H7.11752C7.28132 10.4713 7.41784 10.3348 7.41784 10.171V9.76834H4.86544L7.11752 6.94296C7.15165 6.90202 7.21307 6.82696 7.24039 6.79284L7.25404 6.77235C7.38371 6.58126 7.411 6.41746 7.411 6.21957V6.11719Z"
            fill="white" />
        <path d="M11.8541 10.4713H12.3523V6.11719H11.6016V10.2188C11.6016 10.3553 11.7108 10.4713 11.8541 10.4713Z"
            fill="white" />
        <path
            d="M9.2999 7.09277C8.3581 7.09277 7.59375 7.85713 7.59375 8.79892C7.59375 9.74072 8.3581 10.5051 9.2999 10.5051C10.2417 10.5051 11.006 9.74072 11.006 8.79892C11.0129 7.85713 10.2485 7.09277 9.2999 7.09277ZM9.2999 9.80213C8.74712 9.80213 8.29669 9.3517 8.29669 8.79892C8.29669 8.24614 8.74712 7.79571 9.2999 7.79571C9.85268 7.79571 10.3031 8.24614 10.3031 8.79892C10.3031 9.3517 9.85952 9.80213 9.2999 9.80213Z"
            fill="white" />
        <path
            d="M14.5694 7.0625C13.6208 7.0625 12.8496 7.83369 12.8496 8.78229C12.8496 9.73093 13.6208 10.5021 14.5694 10.5021C15.518 10.5021 16.2892 9.73093 16.2892 8.78229C16.2892 7.83369 15.518 7.0625 14.5694 7.0625ZM14.5694 9.79918C14.0098 9.79918 13.5593 9.34875 13.5593 8.78913C13.5593 8.22951 14.0098 7.77908 14.5694 7.77908C15.129 7.77908 15.5795 8.22951 15.5795 8.78913C15.5795 9.34875 15.129 9.79918 14.5694 9.79918Z"
            fill="white" />
        <path d="M10.6011 10.475H11.0037V7.18555H10.3008V10.1816C10.3008 10.3385 10.4373 10.475 10.6011 10.475Z"
            fill="white" />
    </g>
    <defs>
        <clipPath id="clip0_3007_142856">
            <rect width="18" height="18" fill="white" />
        </clipPath>
    </defs>
</svg>