<svg width="20" height="20" viewBox="0 0 20 20" fill="none" xmlns="http://www.w3.org/2000/svg">
<path d="M10.8327 5.83203C11.2747 5.83203 11.6986 6.00763 12.0112 6.32019C12.3238 6.63275 12.4993 7.05667 12.4993 7.4987V17.4987L8.33268 14.9987L4.16602 17.4987V7.4987C4.16602 7.05667 4.34161 6.63275 4.65417 6.32019C4.96673 6.00763 5.39065 5.83203 5.83268 5.83203H10.8327Z" stroke="#38383D" stroke-width="1.5" stroke-linecap="square" stroke-linejoin="round"/>
<path d="M7.7207 3.33334C7.86719 3.07961 8.07798 2.86898 8.33181 2.72268C8.58564 2.57638 8.87356 2.49957 9.16654 2.5H14.1665C14.6086 2.5 15.0325 2.6756 15.345 2.98816C15.6576 3.30072 15.8332 3.72464 15.8332 4.16667V14.1667L14.9999 13.6667" stroke="#38383D" stroke-width="1.5" stroke-linecap="round" stroke-linejoin="round"/>
</svg>
