<svg width="24" height="24" viewBox="0 0 24 24" fill="none" xmlns="http://www.w3.org/2000/svg">
<path d="M11.5 20C13.7543 20 15.9163 19.1045 17.5104 17.5104C19.1045 15.9163 20 13.7543 20 11.5C20 9.24566 19.1045 7.08365 17.5104 5.48959C15.9163 3.89553 13.7543 3 11.5 3C9.24566 3 7.08365 3.89553 5.48959 5.48959C3.89553 7.08365 3 9.24566 3 11.5C3 13.7543 3.89553 15.9163 5.48959 17.5104C7.08365 19.1045 9.24566 20 11.5 20Z" stroke="white" stroke-width="1.5" stroke-linecap="round" stroke-linejoin="round"/>
<path d="M14.3279 8.172C13.9569 7.80001 13.5161 7.50498 13.0308 7.30385C12.5455 7.10272 12.0252 6.99946 11.4999 7C10.9745 6.99946 10.4543 7.10272 9.96894 7.30385C9.48363 7.50498 9.04283 7.80001 8.67188 8.172" stroke="white" stroke-width="1.5" stroke-linecap="round" stroke-linejoin="round"/>
<path d="M17.6094 17.6094L21.8534 21.8524" stroke="white" stroke-width="1.5" stroke-linecap="round" stroke-linejoin="round"/>
</svg>
