<svg width="22" height="24" viewBox="0 0 22 24" fill="none" xmlns="http://www.w3.org/2000/svg">
<path d="M4.77951 14.2211C5.01526 14.2211 5.24135 14.1275 5.40805 13.9608C5.57475 13.7941 5.6684 13.568 5.6684 13.3322C5.6684 13.0965 5.57475 12.8704 5.40805 12.7037C5.24135 12.537 5.01526 12.4434 4.77951 12.4434C4.54377 12.4434 4.31767 12.537 4.15097 12.7037C3.98428 12.8704 3.89063 13.0965 3.89062 13.3322C3.89063 13.568 3.98428 13.7941 4.15097 13.9608C4.31767 14.1275 4.54377 14.2211 4.77951 14.2211Z" stroke="#515158" stroke-width="1.33333" stroke-linecap="round" stroke-linejoin="round"/>
<path d="M10.9983 14.2211C11.234 14.2211 11.4601 14.1275 11.6268 13.9608C11.7935 13.7941 11.8872 13.568 11.8872 13.3322C11.8872 13.0965 11.7935 12.8704 11.6268 12.7037C11.4601 12.537 11.234 12.4434 10.9983 12.4434C10.7625 12.4434 10.5364 12.537 10.3697 12.7037C10.203 12.8704 10.1094 13.0965 10.1094 13.3322C10.1094 13.568 10.203 13.7941 10.3697 13.9608C10.5364 14.1275 10.7625 14.2211 10.9983 14.2211Z" stroke="#515158" stroke-width="1.33333" stroke-linecap="round" stroke-linejoin="round"/>
<path d="M17.2229 14.2211C17.4586 14.2211 17.6847 14.1275 17.8514 13.9608C18.0181 13.7941 18.1118 13.568 18.1118 13.3322C18.1118 13.0965 18.0181 12.8704 17.8514 12.7037C17.6847 12.537 17.4586 12.4434 17.2229 12.4434C16.9871 12.4434 16.761 12.537 16.5943 12.7037C16.4276 12.8704 16.334 13.0965 16.334 13.3322C16.334 13.568 16.4276 13.7941 16.5943 13.9608C16.761 14.1275 16.9871 14.2211 17.2229 14.2211Z" stroke="#515158" stroke-width="1.33333" stroke-linecap="round" stroke-linejoin="round"/>
</svg>
