<svg width="26" height="13" viewBox="0 0 26 13" fill="none" xmlns="http://www.w3.org/2000/svg">
<rect x="0.5" y="1" width="25" height="11" rx="5.5" stroke="#C4C4CF"/>
<path d="M6 7.5C6.26522 7.5 6.51957 7.39464 6.70711 7.20711C6.89464 7.01957 7 6.76522 7 6.5C7 6.23478 6.89464 5.98043 6.70711 5.79289C6.51957 5.60536 6.26522 5.5 6 5.5C5.73478 5.5 5.48043 5.60536 5.29289 5.79289C5.10536 5.98043 5 6.23478 5 6.5C5 6.76522 5.10536 7.01957 5.29289 7.20711C5.48043 7.39464 5.73478 7.5 6 7.5Z" fill="#515158" stroke="#515158" stroke-width="1.5" stroke-linecap="square" stroke-linejoin="round"/>
<path d="M13 7.5C13.2652 7.5 13.5196 7.39464 13.7071 7.20711C13.8946 7.01957 14 6.76522 14 6.5C14 6.23478 13.8946 5.98043 13.7071 5.79289C13.5196 5.60536 13.2652 5.5 13 5.5C12.7348 5.5 12.4804 5.60536 12.2929 5.79289C12.1054 5.98043 12 6.23478 12 6.5C12 6.76522 12.1054 7.01957 12.2929 7.20711C12.4804 7.39464 12.7348 7.5 13 7.5Z" fill="#515158" stroke="#515158" stroke-width="1.5" stroke-linecap="square" stroke-linejoin="round"/>
<path d="M20 7.5C20.2652 7.5 20.5196 7.39464 20.7071 7.20711C20.8946 7.01957 21 6.76522 21 6.5C21 6.23478 20.8946 5.98043 20.7071 5.79289C20.5196 5.60536 20.2652 5.5 20 5.5C19.7348 5.5 19.4804 5.60536 19.2929 5.79289C19.1054 5.98043 19 6.23478 19 6.5C19 6.76522 19.1054 7.01957 19.2929 7.20711C19.4804 7.39464 19.7348 7.5 20 7.5Z" fill="#515158" stroke="#515158" stroke-width="1.5" stroke-linecap="square" stroke-linejoin="round"/>
</svg>
