<svg width="33" height="33" viewBox="0 0 33 33" fill="none" xmlns="http://www.w3.org/2000/svg">

    <path
        d="M29.2871 15.9482H3.92822V19.175H29.2871C29.6862 19.175 31.2382 19.441 31.2382 17.5786C31.2382 16.0886 29.9375 15.8709 29.2871 15.9482Z"
        fill="#DDDDE3" />
    <path
        d="M29.6833 15.4385H27.7558C27.9888 14.5817 28.1066 13.6977 28.106 12.8097C28.106 7.30139 23.6247 2.8201 18.1164 2.8201C12.6081 2.8201 8.12676 7.30139 8.12676 12.8097C8.12615 13.6977 8.2439 14.5817 8.47693 15.4385H4.44638V0.717023H0.240234V32.2631H4.44638V24.9024H6.9805L8.03203 19.6447H9.25575L11.288 32.3462L12.3263 32.1801L11.8349 29.1085H14.7077L14.9634 32.3051L16.0116 32.2212L15.7626 29.1085H18.6421V32.2631H19.6937V29.1085H22.5732L22.3242 32.2212L23.3724 32.3051L23.6281 29.1085H26.501L26.0095 32.1801L27.0478 32.3462L29.0801 19.6447H29.6833C30.2411 19.6447 30.776 19.4231 31.1704 19.0287C31.5648 18.6343 31.7864 18.0994 31.7864 17.5416C31.7864 16.9839 31.5648 16.4489 31.1704 16.0545C30.776 15.6601 30.2411 15.4385 29.6833 15.4385ZM3.39485 31.2116H1.29177V1.76856H3.39485V31.2116ZM27.0544 12.8097C27.0544 12.9589 27.0503 13.1075 27.0431 13.2557C24.8751 12.8951 22.8571 11.9171 21.2308 10.4389L24.7941 6.87558C26.2514 8.50846 27.0562 10.621 27.0544 12.8097ZM18.8599 12.8097L20.4862 11.1834C22.2837 12.83 24.5238 13.9144 26.9303 14.3028C26.8658 14.6869 26.776 15.0663 26.6617 15.4385H21.4888L18.8599 12.8097ZM20.0016 15.4385H16.7211C16.6452 15.351 16.5682 15.2646 16.4903 15.1793L18.1164 13.5533L20.0016 15.4385ZM18.1164 3.87163C20.305 3.86992 22.4176 4.67463 24.0505 6.13202L20.4872 9.69532C19.0089 8.06896 18.0308 6.05084 17.6703 3.88279C17.8181 3.87548 17.9668 3.87177 18.1164 3.87163ZM16.6234 3.99701C17.012 6.40305 18.0963 8.64274 19.7426 10.4399L18.1164 12.0661L12.1822 6.13202C13.4326 5.01709 14.9718 4.27714 16.6234 3.99701ZM11.4387 6.87558L17.3728 12.8097L15.7469 14.4356C13.9542 12.7826 11.7124 11.6971 9.30383 11.3158C9.58408 9.66455 10.324 8.12566 11.4387 6.87558ZM9.18948 12.363C11.3599 12.7167 13.3801 13.6956 15.0027 15.1798L14.744 15.4385H9.57108C9.30974 14.5868 9.17735 13.7007 9.1783 12.8097C9.1783 12.6599 9.18203 12.511 9.18948 12.363ZM6.11842 23.8508H4.44638V19.6447H6.95965L6.11842 23.8508ZM10.3206 19.6447H10.8316C11.7635 20.6366 12.8882 21.4278 14.1366 21.9699L14.3292 24.3766H11.0777L10.3206 19.6447ZM12.3587 19.6447H13.9506L14.04 20.7625C13.4392 20.4545 12.8752 20.0795 12.3587 19.6447ZM11.6666 28.057L11.246 25.4282H14.4133L14.6236 28.057H11.6666ZM18.6421 28.057H15.6785L15.4682 25.4282H18.6421V28.057ZM18.6421 24.3766H15.3841L15.2235 22.3697C16.1614 22.6543 17.1362 22.799 18.1164 22.7993C18.2922 22.7993 18.4674 22.7947 18.6421 22.7853V24.3766ZM18.6421 21.7317C18.4675 21.742 18.2923 21.7478 18.1164 21.7478C17.0998 21.7475 16.0907 21.5736 15.1326 21.2336L15.0055 19.6447H18.6421V21.7317ZM22.6573 28.057H19.6937V25.4282H22.8676L22.6573 28.057ZM22.9518 24.3766H19.6937V22.6736C20.9271 22.4752 22.1126 22.0478 23.1888 21.4134L22.9518 24.3766ZM23.2944 20.0931C22.2201 20.8561 20.9906 21.3728 19.6937 21.6064V19.6447H23.3303L23.2944 20.0931ZM26.6692 28.057H23.7122L23.9225 25.4282H27.0898L26.6692 28.057ZM27.2581 24.3766H24.0067L24.3048 20.6496C24.6948 20.3424 25.0612 20.0065 25.4012 19.6447H28.0152L27.2581 24.3766ZM29.6833 18.5932H4.44638V16.4901H29.6833C29.9622 16.4901 30.2296 16.6009 30.4268 16.7981C30.624 16.9953 30.7348 17.2627 30.7348 17.5416C30.7348 17.8205 30.624 18.088 30.4268 18.2852C30.2296 18.4824 29.9622 18.5932 29.6833 18.5932Z"
        fill="#515158" />
    <path d="M28.2554 8.75864L30.8838 6.13017L31.6273 6.87361L28.9988 9.50208L28.2554 8.75864Z"
        fill="#515158" />
    <path d="M26.6786 5.07865L29.3071 2.45019L30.0505 3.19362L27.4221 5.82209L26.6786 5.07865Z"
        fill="#515158" />
    <path d="M23.5246 2.44991L25.6274 0.347145L26.3708 1.09058L24.2681 3.19335L23.5246 2.44991Z"
        fill="#515158" />
    <path d="M10.9078 2.97466L13.5363 0.346191L14.2797 1.08963L11.6513 3.7181L10.9078 2.97466Z"
        fill="#515158" />
    <path d="M30.3586 1.39901L31.41 0.347652L32.1534 1.09109L31.1021 2.14245L30.3586 1.39901Z"
        fill="#515158" />
    <path
        d="M29.2871 15.9482H3.92822V19.175H29.2871C29.6862 19.175 31.2382 19.441 31.2382 17.5786C31.2382 16.0886 29.9375 15.8709 29.2871 15.9482Z"
        stroke="#515158" stroke-width="0.3" mask="url(#path-1-outside-1_1535_29732)" />
    <path
        d="M29.6833 15.4385H27.7558C27.9888 14.5817 28.1066 13.6977 28.106 12.8097C28.106 7.30139 23.6247 2.8201 18.1164 2.8201C12.6081 2.8201 8.12676 7.30139 8.12676 12.8097C8.12615 13.6977 8.2439 14.5817 8.47693 15.4385H4.44638V0.717023H0.240234V32.2631H4.44638V24.9024H6.9805L8.03203 19.6447H9.25575L11.288 32.3462L12.3263 32.1801L11.8349 29.1085H14.7077L14.9634 32.3051L16.0116 32.2212L15.7626 29.1085H18.6421V32.2631H19.6937V29.1085H22.5732L22.3242 32.2212L23.3724 32.3051L23.6281 29.1085H26.501L26.0095 32.1801L27.0478 32.3462L29.0801 19.6447H29.6833C30.2411 19.6447 30.776 19.4231 31.1704 19.0287C31.5648 18.6343 31.7864 18.0994 31.7864 17.5416C31.7864 16.9839 31.5648 16.4489 31.1704 16.0545C30.776 15.6601 30.2411 15.4385 29.6833 15.4385ZM3.39485 31.2116H1.29177V1.76856H3.39485V31.2116ZM27.0544 12.8097C27.0544 12.9589 27.0503 13.1075 27.0431 13.2557C24.8751 12.8951 22.8571 11.9171 21.2308 10.4389L24.7941 6.87558C26.2514 8.50846 27.0562 10.621 27.0544 12.8097ZM18.8599 12.8097L20.4862 11.1834C22.2837 12.83 24.5238 13.9144 26.9303 14.3028C26.8658 14.6869 26.776 15.0663 26.6617 15.4385H21.4888L18.8599 12.8097ZM20.0016 15.4385H16.7211C16.6452 15.351 16.5682 15.2646 16.4903 15.1793L18.1164 13.5533L20.0016 15.4385ZM18.1164 3.87163C20.305 3.86992 22.4176 4.67463 24.0505 6.13202L20.4872 9.69532C19.0089 8.06896 18.0308 6.05084 17.6703 3.88279C17.8181 3.87548 17.9668 3.87177 18.1164 3.87163ZM16.6234 3.99701C17.012 6.40305 18.0963 8.64274 19.7426 10.4399L18.1164 12.0661L12.1822 6.13202C13.4326 5.01709 14.9718 4.27714 16.6234 3.99701ZM11.4387 6.87558L17.3728 12.8097L15.7469 14.4356C13.9542 12.7826 11.7124 11.6971 9.30383 11.3158C9.58408 9.66455 10.324 8.12566 11.4387 6.87558ZM9.18948 12.363C11.3599 12.7167 13.3801 13.6956 15.0027 15.1798L14.744 15.4385H9.57108C9.30974 14.5868 9.17735 13.7007 9.1783 12.8097C9.1783 12.6599 9.18203 12.511 9.18948 12.363ZM6.11842 23.8508H4.44638V19.6447H6.95965L6.11842 23.8508ZM10.3206 19.6447H10.8316C11.7635 20.6366 12.8882 21.4278 14.1366 21.9699L14.3292 24.3766H11.0777L10.3206 19.6447ZM12.3587 19.6447H13.9506L14.04 20.7625C13.4392 20.4545 12.8752 20.0795 12.3587 19.6447ZM11.6666 28.057L11.246 25.4282H14.4133L14.6236 28.057H11.6666ZM18.6421 28.057H15.6785L15.4682 25.4282H18.6421V28.057ZM18.6421 24.3766H15.3841L15.2235 22.3697C16.1614 22.6543 17.1362 22.799 18.1164 22.7993C18.2922 22.7993 18.4674 22.7947 18.6421 22.7853V24.3766ZM18.6421 21.7317C18.4675 21.742 18.2923 21.7478 18.1164 21.7478C17.0998 21.7475 16.0907 21.5736 15.1326 21.2336L15.0055 19.6447H18.6421V21.7317ZM22.6573 28.057H19.6937V25.4282H22.8676L22.6573 28.057ZM22.9518 24.3766H19.6937V22.6736C20.9271 22.4752 22.1126 22.0478 23.1888 21.4134L22.9518 24.3766ZM23.2944 20.0931C22.2201 20.8561 20.9906 21.3728 19.6937 21.6064V19.6447H23.3303L23.2944 20.0931ZM26.6692 28.057H23.7122L23.9225 25.4282H27.0898L26.6692 28.057ZM27.2581 24.3766H24.0067L24.3048 20.6496C24.6948 20.3424 25.0612 20.0065 25.4012 19.6447H28.0152L27.2581 24.3766ZM29.6833 18.5932H4.44638V16.4901H29.6833C29.9622 16.4901 30.2296 16.6009 30.4268 16.7981C30.624 16.9953 30.7348 17.2627 30.7348 17.5416C30.7348 17.8205 30.624 18.088 30.4268 18.2852C30.2296 18.4824 29.9622 18.5932 29.6833 18.5932Z"
        stroke="#515158" stroke-width="0.3" mask="url(#path-1-outside-1_1535_29732)" />
    <path d="M28.2554 8.75864L30.8838 6.13017L31.6273 6.87361L28.9988 9.50208L28.2554 8.75864Z"
        stroke="#515158" stroke-width="0.3" mask="url(#path-1-outside-1_1535_29732)" />
    <path d="M26.6786 5.07865L29.3071 2.45019L30.0505 3.19362L27.4221 5.82209L26.6786 5.07865Z"
        stroke="#515158" stroke-width="0.3" mask="url(#path-1-outside-1_1535_29732)" />
    <path d="M23.5246 2.44991L25.6274 0.347145L26.3708 1.09058L24.2681 3.19335L23.5246 2.44991Z"
        stroke="#515158" stroke-width="0.3" mask="url(#path-1-outside-1_1535_29732)" />
    <path d="M10.9078 2.97466L13.5363 0.346191L14.2797 1.08963L11.6513 3.7181L10.9078 2.97466Z"
        stroke="#515158" stroke-width="0.3" mask="url(#path-1-outside-1_1535_29732)" />
    <path d="M30.3586 1.39901L31.41 0.347652L32.1534 1.09109L31.1021 2.14245L30.3586 1.39901Z"
        stroke="#515158" stroke-width="0.3" mask="url(#path-1-outside-1_1535_29732)" />
</svg>