<?xml version="1.0"?>
<svg width="34" height="33" xmlns="http://www.w3.org/2000/svg"
    xmlns:svg="http://www.w3.org/2000/svg">

    <g class="layer">
        <title>Layer 1</title>
        <path
            d="m5.5,32c2.8,0.8 5.5,-1.33 6.5,-2.5l-8,-8c-0.67,0.67 -2.1,2.3 -2.5,3.5c-0.5,1.5 0.5,6 4,7z"
            fill="#515158" id="svg_1" />
        <path
            d="m2.46,31.04c-2.45,-2.46 -2.47,-6.45 0,-8.92l1.11,-1.11c0.22,-0.22 0.57,-0.23 0.8,0l8.12,8.12c0.22,0.22 0.22,0.57 0,0.8l-1.11,1.11c-2.45,2.45 -6.44,2.47 -8.92,0zm0.8,-0.8c2.03,2.03 5.3,2.03 7.33,0l0.71,-0.71l-7.33,-7.33l-0.71,0.71c-2.03,2.03 -2.03,5.3 0,7.33z"
            fill="#515158" id="svg_2" />
        <path
            d="m11.7,29.93l-8.13,-8.13c-0.22,-0.22 -0.21,-0.57 0,-0.79l2.58,-2.58c0.22,-0.22 0.58,-0.22 0.8,0l8.12,8.12c0.22,0.22 0.22,0.58 0,0.8l-2.58,2.58c-0.21,0.21 -0.57,0.22 -0.79,0zm-6.93,-8.52l7.32,7.32l1.79,-1.78l-7.33,-7.33l-1.78,1.79z"
            fill="#515158" id="svg_3" />
        <path
            d="m8.18,21.24c-0.25,-0.17 -0.32,-0.52 -0.15,-0.78l10.91,-16.05c0.18,-0.26 0.53,-0.32 0.78,-0.15c0.26,0.17 0.33,0.52 0.15,0.78l-10.91,16.06c-0.17,0.25 -0.52,0.32 -0.78,0.14z"
            fill="#515158" id="svg_4" />
        <path
            d="m10.61,23.45c-0.5,0 -0.75,-0.6 -0.4,-0.96l13.48,-13.48c0.22,-0.22 0.58,-0.22 0.8,0c0.22,0.22 0.22,0.58 0,0.8l-13.48,13.48c-0.11,0.11 -0.26,0.16 -0.4,0.16z"
            fill="#515158" id="svg_5" />
        <path
            d="m12.26,25.32c-0.18,-0.26 -0.11,-0.61 0.14,-0.78l16.06,-10.91c0.25,-0.18 0.61,-0.11 0.78,0.15c0.17,0.25 0.11,0.6 -0.15,0.78l-16.05,10.91c-0.26,0.17 -0.61,0.11 -0.78,-0.15z"
            fill="#515158" id="svg_6" />
        <path
            d="m18.82,25.22c-2.46,-4.19 -6.34,-8.08 -10.54,-10.54c-0.27,-0.16 -0.36,-0.5 -0.2,-0.77c0.16,-0.27 0.5,-0.36 0.77,-0.2c4.36,2.55 8.39,6.59 10.94,10.94c0.16,0.27 0.06,0.61 -0.2,0.77c-0.25,0.15 -0.61,0.08 -0.77,-0.2z"
            fill="#515158" id="svg_7" />
        <path
            d="m14.16,27.18c-0.13,-0.29 0,-0.62 0.29,-0.74l17.81,-7.75c0,0 0,0 0,0c0,-0.01 0,-0.01 0,-0.01c0,0 0,0 -0.01,0l-1.49,-0.6c-0.54,-0.21 -0.96,-0.64 -1.18,-1.17l-0.61,-1.54c-0.26,-0.63 -0.76,-1.14 -1.4,-1.4l-1.53,-0.61c-0.54,-0.21 -0.97,-0.64 -1.18,-1.17l-0.61,-1.54c-0.26,-0.64 -0.77,-1.14 -1.4,-1.4l-1.54,-0.61c-0.53,-0.21 -0.96,-0.64 -1.17,-1.17l-0.61,-1.54c-0.26,-0.64 -0.77,-1.14 -1.4,-1.4l-1.54,-0.61c-0.53,-0.21 -0.96,-0.64 -1.17,-1.18l-0.6,-1.49c0,0 0,-0.01 0,-0.01c0,0 0,0 -0.01,0c0,0 0,0.01 0,0.01l-7.75,17.8c-0.12,0.29 -0.45,0.42 -0.74,0.29c-0.28,-0.12 -0.41,-0.45 -0.29,-0.74l7.75,-17.8c0.4,-0.92 1.71,-0.91 2.09,0.03l0.59,1.49c0.1,0.25 0.3,0.45 0.55,0.55l1.54,0.61c0.92,0.37 1.66,1.11 2.02,2.03l0.62,1.54c0.1,0.24 0.29,0.44 0.54,0.54l1.54,0.62c0.92,0.36 1.66,1.1 2.02,2.02l0.62,1.54c0.1,0.25 0.3,0.44 0.54,0.54l1.54,0.62c0.92,0.36 1.66,1.1 2.02,2.02l0.62,1.54c0.1,0.25 0.3,0.44 0.54,0.54l1.5,0.6c0.93,0.37 0.96,1.69 0.03,2.09l-17.8,7.75c-0.28,0.12 -0.62,0 -0.74,-0.29z"
            fill="#515158" id="svg_8" />
    </g>
</svg>