<svg width="240" height="240" viewBox="0 0 240 240" fill="none" xmlns="http://www.w3.org/2000/svg">
<mask id="mask0_728_49496" style="mask-type:luminance" maskUnits="userSpaceOnUse" x="0" y="0" width="240" height="240">
<path d="M240 0H0V240H240V0Z" fill="white"/>
</mask>
<g mask="url(#mask0_728_49496)">
<g opacity="0.25">
<path d="M240 208.243C240 214.334 237.029 219.849 232.224 223.838C227.424 227.834 220.786 230.301 213.458 230.301H26.5416C11.8848 230.301 0 220.425 0 208.243C0 202.152 2.97361 196.634 7.77601 192.643C12.5808 188.649 19.2168 186.18 26.5416 186.18H33.4224C35.124 186.18 36.792 186.045 38.4048 185.789C38.3256 187.269 38.3616 188.719 38.5584 190.14C39.1224 194.244 40.9992 198.096 45.1056 201.729C52.152 207.969 76.44 222.833 129.223 222.833C182.006 222.833 206.304 207.967 213.346 201.729C217.454 198.093 219.334 194.241 219.898 190.14C220.044 189.069 220.102 187.98 220.085 186.871C231.535 189.319 240 197.957 240 208.241V208.243Z" fill="#DDDDE3"/>
<path d="M240 120.002C240 126.093 237.029 131.609 232.224 135.602C227.424 139.596 220.786 142.065 213.458 142.065H209.726C209.215 140.527 208.582 139.229 207.833 138.369C206.009 136.274 204.658 135.122 203.69 133.418C203.249 132.636 202.891 131.736 202.608 130.577C202.531 130.279 202.464 129.962 202.399 129.626C202.169 128.424 201.566 124.104 199.526 118.428C198.84 116.532 197.998 114.48 196.954 112.344C194.362 107.059 190.543 101.251 184.882 95.9206C184.174 95.2534 183.437 94.5958 182.669 93.9478C179.203 91.0102 175.126 88.2646 170.328 85.8982C168.355 84.9214 166.262 84.0094 164.038 83.179C161.218 82.1206 158.191 81.1798 154.937 80.395C153.972 80.1574 152.993 79.9366 151.99 79.7302C147.458 78.7918 142.517 78.1294 137.129 77.8078C136.392 77.7646 135.641 77.7286 134.882 77.6998C135.216 77.4886 135.528 77.263 135.826 77.023C137.892 75.3622 139.166 73.051 139.166 70.4974C139.166 66.6766 136.306 63.3958 132.242 62.035V54.9142C136.085 54.3646 138.778 53.0854 138.778 51.5902C138.778 49.5958 133.968 47.9806 128.028 47.9806C122.088 47.9806 117.278 49.5958 117.278 51.5902C117.278 53.083 119.971 54.3622 123.818 54.9142V62.035C119.755 63.3958 116.892 66.6766 116.892 70.4974C116.892 73.147 118.265 75.5302 120.461 77.1982C120.761 77.4286 121.075 77.6422 121.404 77.8366C120.636 77.8822 119.887 77.9374 119.136 78.0022C90.9648 80.3398 75.5232 92.191 67.0296 103.982C58.536 115.771 56.9832 127.509 56.58 129.624C55.7304 134.102 54.0216 135.065 51.1416 138.369C49.8312 139.874 48.8736 142.709 48.312 145.86C44.064 143.465 38.9424 142.065 33.4224 142.065H26.5416C11.8848 142.065 0 132.189 0 120.005C0 113.909 2.97361 108.396 7.77601 104.402C12.5808 100.409 19.2168 97.939 26.5416 97.939H39.6C46.932 97.939 53.568 95.4718 58.368 91.4758C63.1728 87.487 66.144 81.9718 66.144 75.8806C66.144 73.6366 65.7408 71.4718 64.9896 69.4294H78.804L87.1248 76.8094C88.9416 78.4222 91.8096 77.131 91.8096 74.7046V69.4294H100.877C103.97 69.4294 106.476 66.9214 106.476 63.8302V31.2526C106.476 28.159 103.97 25.6534 100.877 25.6534H43.9632C40.8696 25.6534 38.364 28.159 38.364 31.2526V53.8198H26.5416C11.8848 53.8174 0 43.9414 0 31.7566C0 25.6654 2.97361 20.1502 7.77601 16.1614C12.5808 12.1654 19.2168 9.69824 26.5416 9.69824H213.461C228.118 9.69824 240.002 19.5742 240.002 31.7566C240.002 37.8478 237.031 43.3654 232.226 47.3566C227.426 51.3502 220.788 53.8198 213.461 53.8198H211.68C204.353 53.8198 197.714 56.2894 192.912 60.283C188.11 64.2766 185.136 69.7894 185.136 75.883C185.136 88.063 197.021 97.9414 211.68 97.9414H213.461C228.118 97.9414 240.002 107.817 240.002 120.005L240 120.002Z" fill="#DDDDE3"/>
<path d="M50.5268 165.199C50.5268 165.729 50.5004 166.248 50.4452 166.761C48.5684 168.074 41.6444 173.237 39.4964 179.215C38.4092 179.479 37.274 179.616 36.1052 179.616C28.1396 179.616 21.6836 173.16 21.6836 165.199C21.6836 157.238 28.1396 150.777 36.1052 150.777C41.1332 150.777 45.5564 153.35 48.1388 157.248C49.0388 158.606 49.7108 160.123 50.1092 161.748C50.3804 162.852 50.5244 164.006 50.5244 165.197L50.5268 165.199Z" fill="#DDDDE3"/>
<path d="M207.132 90.9575C215.096 90.9575 221.551 84.502 221.551 76.5383C221.551 68.5747 215.096 62.1191 207.132 62.1191C199.168 62.1191 192.713 68.5747 192.713 76.5383C192.713 84.502 199.168 90.9575 207.132 90.9575Z" fill="#DDDDE3"/>
</g>
<g opacity="0.5">
<path d="M210.923 156.804C210.644 158.395 209.953 160.231 208.571 162.185C205.228 166.913 197.821 172.332 182.36 176.63C160.508 182.705 129.486 183.029 129.486 183.029C129.486 183.029 98.4709 182.705 76.6189 176.63C61.1581 172.334 53.7541 166.915 50.4085 162.185C49.0237 160.231 48.3325 158.395 48.0517 156.804C47.0965 151.368 48.2653 141.67 51.1429 138.367C54.0205 135.062 55.7269 134.102 56.5789 129.624C57.3877 125.395 62.7877 82.6777 119.137 78.0001C119.082 78.0361 119.032 78.0673 118.981 78.1057C118.117 78.7057 117.268 79.4353 116.766 80.3785C116.224 81.4009 116.233 82.8265 116.624 83.9209C117.575 86.5417 121.141 87.0505 123.51 87.3097C125.092 87.4825 126.688 87.5377 128.276 87.5377C129.865 87.5377 131.464 87.4825 133.048 87.3097C135.416 87.0505 138.985 86.5417 139.933 83.9209C140.329 82.8265 140.339 81.4009 139.792 80.3785C139.292 79.4353 138.44 78.7057 137.576 78.1057C137.43 78.0025 137.281 77.9017 137.128 77.8057C142.516 78.1249 147.457 78.7873 151.988 79.7281C152.992 79.9321 153.973 80.1529 154.936 80.3905C158.188 81.1777 161.214 82.1161 164.034 83.1745C166.259 84.0097 168.354 84.9193 170.327 85.8961C175.127 88.2649 179.202 91.0081 182.668 93.9457C183.436 94.5937 184.172 95.2537 184.88 95.9209C190.54 101.251 194.36 107.057 196.95 112.342C197.996 114.478 198.839 116.527 199.523 118.426C201.565 124.102 202.168 128.419 202.398 129.624C202.463 129.96 202.53 130.277 202.607 130.574C202.892 131.736 203.25 132.634 203.692 133.416C204.656 135.12 206.01 136.272 207.834 138.367C210.712 141.67 211.88 151.37 210.923 156.804Z" fill="#DDDDE3"/>
</g>
<path d="M129.492 183.746C129.165 183.744 98.1163 183.353 76.4251 177.321C63.0523 173.604 54.1004 168.653 49.8212 162.6C48.518 160.759 47.6828 158.851 47.3444 156.929C46.3364 151.2 47.642 141.29 50.6012 137.892C51.1748 137.232 51.7123 136.656 52.1827 136.149C54.0811 134.109 55.2259 132.881 55.8715 129.487C55.9003 129.341 55.9339 129.149 55.9747 128.913C57.7171 118.891 61.5547 109.937 67.3795 102.297C72.3715 95.755 78.7244 90.3766 86.2604 86.3134C95.4452 81.3646 106.485 78.3238 119.076 77.2798L121.939 77.0422L119.5 78.619C119.469 78.6382 119.44 78.6574 119.412 78.679L119.392 78.6934C118.399 79.3846 117.768 80.0278 117.4 80.7142C116.985 81.4942 116.947 82.6846 117.302 83.6734C118.142 85.9942 121.821 86.3974 123.59 86.5894C124.982 86.7406 126.472 86.8126 128.28 86.8126C130.087 86.8126 131.58 86.743 132.972 86.5894C134.74 86.395 138.417 85.9942 139.26 83.671C139.617 82.6822 139.579 81.4942 139.161 80.7142C138.686 79.8142 137.796 79.1302 137.169 78.6934C137.03 78.5974 136.893 78.5014 136.752 78.4126L134.359 76.915L137.176 77.083C142.416 77.3926 147.448 78.0454 152.14 79.0174C153.139 79.2214 154.14 79.447 155.114 79.6846C158.272 80.4478 161.364 81.3934 164.294 82.495C166.483 83.3158 168.621 84.2398 170.652 85.2454C175.224 87.5014 179.426 90.2422 183.139 93.391C183.924 94.0558 184.677 94.7278 185.38 95.3926C190.399 100.118 194.51 105.713 197.601 112.02C198.573 114.005 199.449 116.076 200.205 118.176C202.017 123.211 202.711 127.205 203.008 128.911C203.049 129.146 203.083 129.338 203.109 129.485C203.179 129.847 203.241 130.135 203.306 130.389C203.565 131.443 203.887 132.288 204.319 133.058C204.94 134.157 205.759 135.033 206.791 136.145C207.264 136.653 207.801 137.229 208.377 137.892C211.339 141.29 212.642 151.2 211.632 156.926C211.296 158.846 210.463 160.757 209.157 162.6C204.878 168.653 195.926 173.606 182.553 177.321C160.86 183.35 129.806 183.741 129.494 183.746H129.492ZM116.916 78.9286C70.2884 83.7766 59.7572 115.555 57.3932 129.161C57.35 129.405 57.3163 129.607 57.2875 129.758C56.5652 133.557 55.2428 134.981 53.2388 137.131C52.7732 137.63 52.2475 138.197 51.6883 138.84C49.0195 141.905 47.8291 151.368 48.7627 156.679C49.0651 158.39 49.8163 160.104 50.9971 161.769C53.8051 165.739 60.5635 171.42 76.8115 175.937C98.3203 181.915 129.184 182.304 129.494 182.309C129.789 182.306 160.658 181.917 182.167 175.937C198.417 171.42 205.173 165.741 207.981 161.769C209.164 160.101 209.913 158.388 210.213 156.681C211.149 151.37 209.961 141.907 207.29 138.84C206.728 138.197 206.2 137.628 205.735 137.129C204.636 135.948 203.769 135.017 203.061 133.769C202.56 132.878 202.192 131.918 201.904 130.742C201.832 130.464 201.763 130.149 201.688 129.756C201.66 129.605 201.626 129.405 201.583 129.161C201.292 127.493 200.613 123.583 198.844 118.665C198.105 116.613 197.251 114.593 196.3 112.653C193.286 106.505 189.278 101.049 184.384 96.4414C183.7 95.7934 182.966 95.1382 182.2 94.4902C178.576 91.4158 174.472 88.7398 170.006 86.5366C168.019 85.555 165.924 84.6478 163.78 83.8438C160.903 82.7638 157.872 81.835 154.766 81.0838C153.808 80.8486 152.827 80.6278 151.843 80.4286C147.914 79.6126 143.743 79.027 139.408 78.6814C139.792 79.0678 140.152 79.519 140.426 80.0374C141.031 81.1726 141.103 82.7926 140.606 84.1606C139.459 87.3262 135.177 87.7942 133.12 88.0198C131.673 88.1782 130.132 88.2502 128.272 88.2502C126.412 88.2502 124.874 88.1758 123.427 88.0198C121.37 87.7942 117.088 87.3262 115.941 84.1606C115.449 82.7902 115.519 81.1702 116.124 80.035C116.344 79.6222 116.616 79.2526 116.911 78.9238L116.916 78.9286Z" fill="#DDDDE3"/>
<path d="M120.004 162.483C120.004 162.483 119.992 162.483 119.985 162.483C91.9915 161.736 75.1843 156.655 66.0163 152.527C55.9795 148.006 52.6531 143.671 52.5163 143.489C52.2787 143.17 52.3435 142.719 52.6603 142.481C52.9771 142.243 53.4283 142.306 53.6683 142.623C53.7043 142.671 57.0019 146.916 66.7723 151.287C75.8131 155.331 92.3899 160.306 120.026 161.043C120.424 161.052 120.736 161.383 120.727 161.782C120.717 162.173 120.395 162.483 120.007 162.483H120.004Z" fill="#DDDDE3"/>
<path d="M132.13 162.499C130.621 162.499 129.644 162.485 129.476 162.48C129.077 162.473 128.76 162.146 128.768 161.748C128.775 161.349 129.094 161.035 129.5 161.04C129.687 161.042 148.448 161.333 155.77 159.151C156.152 159.038 156.552 159.254 156.665 159.636C156.778 160.017 156.562 160.418 156.18 160.531C150.262 162.293 137.65 162.497 132.13 162.497V162.499Z" fill="#DDDDE3"/>
<path d="M169.247 158.645C168.923 158.645 168.63 158.426 168.549 158.098C168.453 157.711 168.688 157.32 169.074 157.226C194.284 150.962 205.293 139.997 205.401 139.886C205.679 139.603 206.135 139.598 206.418 139.877C206.702 140.155 206.706 140.611 206.428 140.894C205.977 141.355 195.064 152.251 169.42 158.623C169.362 158.638 169.302 158.645 169.245 158.645H169.247Z" fill="#DDDDE3"/>
<path d="M208.567 162.185C208.461 163.502 208.187 164.966 207.645 166.512C204.016 176.935 188.292 191.181 129.487 191.181C70.6819 191.181 54.9691 176.945 51.3283 166.524C50.7859 164.971 50.5099 163.505 50.4043 162.185C53.7475 166.913 61.1539 172.332 76.6147 176.633C98.4667 182.707 129.484 183.029 129.484 183.029C129.484 183.029 160.504 182.707 182.356 176.633C197.817 172.334 205.223 166.913 208.567 162.185Z" fill="#DDDDE3"/>
<path d="M219.896 190.142C219.332 194.244 217.453 198.098 213.346 201.734C206.302 207.972 182.014 222.837 129.224 222.837C76.4334 222.837 52.1526 207.972 45.1062 201.734C40.9974 198.098 39.1206 194.244 38.5566 190.142C39.2958 191.023 40.143 191.887 41.1078 192.741C48.4902 199.272 73.9302 214.848 129.224 214.848C184.517 214.848 209.962 199.274 217.345 192.741C218.309 191.887 219.157 191.023 219.896 190.142Z" fill="#DDDDE3"/>
<path d="M129.223 223.557C106.281 223.557 86.2822 220.783 69.787 215.309C54.7246 210.312 47.1766 204.528 44.6302 202.274C40.8718 198.948 38.6854 195.221 37.9414 190.879C37.8718 190.481 38.0734 190.097 38.4382 189.919C38.803 189.744 39.2302 189.828 39.499 190.13C40.1158 190.824 40.819 191.52 41.587 192.201C45.7246 195.861 69.4005 214.125 129.225 214.125C189.05 214.125 212.731 195.861 216.871 192.201C217.639 191.52 218.342 190.821 218.959 190.13C219.228 189.828 219.653 189.744 220.02 189.919C220.385 190.094 220.584 190.481 220.517 190.877C219.773 195.221 217.586 198.948 213.828 202.274C211.281 204.528 203.733 210.312 188.671 215.309C172.173 220.783 152.174 223.557 129.228 223.557H129.223ZM39.7894 192.506C40.7302 195.732 42.6382 198.588 45.583 201.194C49.5286 204.689 72.1102 222.117 129.223 222.117C186.336 222.117 208.922 204.689 212.868 201.194C215.813 198.588 217.721 195.732 218.661 192.504C218.39 192.763 218.109 193.022 217.821 193.279C215.153 195.641 207.245 201.693 191.479 206.925C174.199 212.659 153.254 215.565 129.223 215.565C105.192 215.565 84.2518 212.659 66.9718 206.925C51.2062 201.693 43.2982 195.641 40.6294 193.279C40.339 193.022 40.0606 192.763 39.7894 192.504V192.506Z" fill="#DDDDE3"/>
<g opacity="0.75">
<path d="M219.895 190.142C219.156 191.023 218.309 191.887 217.344 192.742C209.961 199.272 184.521 214.848 129.223 214.848C73.9246 214.848 48.4918 199.274 41.107 192.742C40.1422 191.887 39.295 191.023 38.5558 190.142C38.1526 187.21 38.419 184.15 39.019 180.95C40.459 173.275 50.9182 166.438 50.9182 166.438L51.331 166.526C54.9718 176.947 70.7038 191.184 129.489 191.184C188.275 191.184 204.019 176.938 207.648 166.514C208.788 167.285 218.081 173.75 219.434 180.953C220.034 184.152 220.301 187.212 219.897 190.145L219.895 190.142Z" fill="#DDDDE3"/>
</g>
<path d="M129.223 215.566C105.194 215.566 84.2517 212.66 66.9717 206.926C51.2061 201.694 43.2981 195.641 40.6293 193.28C39.6429 192.406 38.7597 191.506 38.0037 190.604L37.8693 190.445L37.8405 190.239C37.4661 187.512 37.6149 184.517 38.3109 180.814C39.7917 172.93 50.0853 166.119 50.5221 165.831L50.7717 165.668L51.8733 165.9L52.0077 166.282C54.2733 172.764 60.3285 178.083 70.0029 182.091C83.4045 187.642 103.416 190.457 129.487 190.457C155.558 190.457 175.581 187.64 188.98 182.086C198.657 178.076 204.708 172.755 206.964 166.27L207.271 165.387L208.046 165.91C209.136 166.647 218.728 173.316 220.137 180.812C220.833 184.512 220.982 187.508 220.605 190.236L220.576 190.443L220.442 190.601C219.684 191.504 218.8 192.404 217.816 193.275C215.148 195.636 207.24 201.689 191.474 206.921C174.194 212.655 153.249 215.561 129.218 215.561L129.223 215.566ZM39.2421 189.838C39.9237 190.632 40.7109 191.427 41.5845 192.202C45.7221 195.862 69.3981 214.126 129.223 214.126C189.048 214.126 212.728 195.862 216.868 192.202C217.742 191.429 218.529 190.635 219.211 189.838C219.53 187.323 219.374 184.534 218.726 181.083C217.591 175.037 210.47 169.426 207.996 167.636C205.377 174.12 199.173 179.427 189.537 183.42C175.96 189.048 155.76 191.902 129.492 191.902C103.224 191.902 83.0349 189.051 69.4581 183.425C59.6733 179.372 53.4213 173.964 50.8677 167.345C48.8853 168.74 40.9293 174.684 39.7293 181.083C39.0813 184.534 38.9253 187.323 39.2445 189.838H39.2421Z" fill="#DDDDE3"/>
<g opacity="0.75">
<path d="M139.931 83.9209C138.983 86.5441 135.417 87.0529 133.046 87.3121C131.464 87.4849 129.868 87.5377 128.277 87.5377C126.686 87.5377 125.092 87.4849 123.508 87.3121C121.142 87.0529 117.571 86.5441 116.623 83.9209C116.229 82.8289 116.219 81.4033 116.764 80.3785C117.266 79.4353 118.118 78.7057 118.977 78.1057C119.03 78.0673 119.08 78.0337 119.133 78.0001C119.882 77.9377 120.633 77.8801 121.401 77.8345H121.403C123.254 78.9673 125.546 79.6345 128.03 79.6345C130.514 79.6345 132.995 78.9121 134.884 77.6953C135.643 77.7241 136.391 77.7601 137.128 77.8057C137.282 77.9017 137.428 78.0025 137.577 78.1057C138.441 78.7057 139.293 79.4353 139.795 80.3785C140.339 81.4033 140.33 82.8265 139.931 83.9209Z" fill="#DDDDE3"/>
</g>
<path d="M128.279 88.2554C126.414 88.2554 124.873 88.1834 123.433 88.025C121.374 87.7994 117.092 87.329 115.948 84.1634C115.453 82.7954 115.525 81.1754 116.13 80.0378C116.754 78.8642 117.82 78.0338 118.566 77.513C118.626 77.4722 118.684 77.4314 118.746 77.3906L118.897 77.2946L119.075 77.2802C119.893 77.2106 120.64 77.1578 121.357 77.1122H121.604L121.78 77.2178C123.589 78.3266 125.749 78.9122 128.029 78.9122C130.309 78.9122 132.64 78.281 134.495 77.0882L134.684 76.9658L134.91 76.9754C135.632 77.0018 136.372 77.0378 137.171 77.0858L137.356 77.0978L137.512 77.1962C137.675 77.2994 137.831 77.405 137.987 77.5154C138.733 78.0338 139.799 78.8618 140.425 80.0402C141.03 81.1778 141.102 82.7978 140.605 84.1634C139.46 87.329 135.179 87.7994 133.122 88.025C131.682 88.181 130.144 88.2554 128.274 88.2554H128.279ZM119.384 78.701C118.393 79.3946 117.764 80.033 117.402 80.717C116.987 81.4994 116.946 82.6874 117.301 83.6762C118.141 85.997 121.82 86.4026 123.587 86.597C124.974 86.7482 126.464 86.8178 128.276 86.8178C130.088 86.8178 131.581 86.7482 132.966 86.597C134.732 86.4026 138.412 85.9994 139.252 83.6762C139.612 82.6898 139.571 81.5018 139.156 80.717C138.791 80.0306 138.157 79.3874 137.164 78.6962C137.072 78.6338 136.984 78.5714 136.895 78.5114C136.259 78.4754 135.661 78.4442 135.078 78.4226C133.031 79.685 130.6 80.3522 128.029 80.3522C125.459 80.3522 123.22 79.7354 121.225 78.5642C120.642 78.6026 120.035 78.6458 119.382 78.6986L119.384 78.701Z" fill="#DDDDE3"/>
<g opacity="0.25">
<path d="M138.78 51.5881C138.78 53.0809 136.088 54.3601 132.243 54.9097C130.949 55.0945 129.528 55.1977 128.031 55.1977C126.533 55.1977 125.112 55.0945 123.819 54.9097C119.974 54.3577 117.281 53.0809 117.281 51.5881C117.281 49.5937 122.093 47.9785 128.031 47.9785C133.968 47.9785 138.78 49.5937 138.78 51.5881Z" fill="#DDDDE3"/>
</g>
<path d="M128.03 55.9175C126.54 55.9175 125.09 55.8191 123.717 55.6223C119.237 54.9791 116.561 53.4719 116.561 51.5879C116.561 48.7439 122.33 47.2583 128.03 47.2583C133.73 47.2583 139.5 48.7463 139.5 51.5879C139.5 53.4719 136.824 54.9815 132.345 55.6223C130.973 55.8191 129.523 55.9175 128.033 55.9175H128.03ZM128.03 48.6983C121.908 48.6983 118.001 50.4095 118.001 51.5879C118.001 52.4423 120.074 53.6471 123.921 54.1967C125.225 54.3839 126.609 54.4775 128.03 54.4775C129.451 54.4775 130.836 54.3839 132.139 54.1967C135.984 53.6447 138.057 52.4423 138.057 51.5879C138.057 50.4095 134.15 48.6983 128.028 48.6983H128.03Z" fill="#DDDDE3"/>
<g opacity="0.75">
<path d="M132.242 54.9092V62.03C130.944 61.5956 129.521 61.3532 128.03 61.3532C126.54 61.3532 125.119 61.5932 123.818 62.03V54.9092C125.112 55.094 126.533 55.1972 128.03 55.1972C129.528 55.1972 130.949 55.094 132.242 54.9092Z" fill="#DDDDE3"/>
</g>
<path d="M132.963 63.0311L132.015 62.7143C130.75 62.2895 129.408 62.0759 128.033 62.0759C126.658 62.0759 125.316 62.2919 124.052 62.7143L123.104 63.0311V54.0791L123.924 54.1967C125.23 54.3839 126.612 54.4775 128.033 54.4775C129.454 54.4775 130.839 54.3839 132.142 54.1967L132.963 54.0791V63.0311ZM128.031 60.6335C129.223 60.6335 130.395 60.7799 131.523 61.0679V55.7279C130.397 55.8551 129.226 55.9175 128.031 55.9175C126.835 55.9175 125.664 55.8527 124.539 55.7279V61.0679C125.667 60.7799 126.835 60.6335 128.031 60.6335Z" fill="#DDDDE3"/>
<g opacity="0.5">
<path d="M139.165 70.4928C139.165 73.0488 137.889 75.3576 135.825 77.0184C135.527 77.2584 135.215 77.484 134.881 77.6952C132.993 78.9096 130.614 79.6344 128.027 79.6344C125.44 79.6344 123.251 78.9672 121.401 77.8344H121.398C121.069 77.64 120.757 77.424 120.455 77.196C118.259 75.5304 116.889 73.1448 116.889 70.4952C116.889 66.672 119.749 63.3936 123.815 62.0328C125.113 61.5984 126.537 61.356 128.027 61.356C129.517 61.356 130.938 61.596 132.239 62.0328C136.302 63.3936 139.165 66.672 139.165 70.4952V70.4928Z" fill="#DDDDE3"/>
</g>
<path d="M128.03 80.3546C125.515 80.3546 123.122 79.7114 121.099 78.4922L121.034 78.4538C120.701 78.257 120.369 78.0338 120.021 77.7674C117.573 75.9098 116.172 73.2602 116.172 70.493C116.172 66.4466 119.083 62.8562 123.59 61.3466C125.004 60.8738 126.497 60.6338 128.03 60.6338C129.564 60.6338 131.057 60.8738 132.47 61.3466C136.975 62.8562 139.889 66.4466 139.889 70.493C139.889 73.1906 138.607 75.7082 136.279 77.5802C135.96 77.8394 135.619 78.0842 135.271 78.305C133.19 79.6442 130.685 80.3546 128.033 80.3546H128.03ZM121.603 77.1146L121.778 77.2202C123.588 78.329 125.748 78.9146 128.028 78.9146C130.308 78.9146 132.638 78.2834 134.493 77.0906C134.801 76.8962 135.093 76.685 135.372 76.4618C137.354 74.8658 138.446 72.749 138.446 70.4954C138.446 67.0778 135.921 64.025 132.012 62.7146C130.747 62.2898 129.405 62.0762 128.03 62.0762C126.655 62.0762 125.313 62.2922 124.049 62.7146C120.139 64.025 117.614 67.0778 117.614 70.4954C117.614 72.8402 118.781 75.017 120.895 76.6226C121.14 76.8098 121.373 76.9706 121.603 77.1146Z" fill="#DDDDE3"/>
<path d="M202.606 130.572C200.588 132.487 198.97 134.364 197.775 135.895L199.23 118.608C199.333 118.553 199.429 118.49 199.525 118.423C198.841 116.525 197.996 114.475 196.952 112.339L196.676 115.61C192.826 112.673 186.318 108.302 181.542 108.259C179.355 108.25 177.498 108.41 176.014 108.622C179.019 104.474 182.24 99.9599 184.882 95.9183C184.177 95.2511 183.438 94.5911 182.67 93.9431C179.878 98.2655 176.47 103.185 173.257 107.604C173.401 101.481 172.863 93.9047 169.794 90.6935C168.56 89.4023 167.396 88.2791 166.316 87.3527C167.617 86.9039 168.975 86.3999 170.329 85.8911C168.356 84.9167 166.263 84.0047 164.036 83.1695C163.815 83.3831 163.611 83.5799 163.422 83.7503C162.862 84.2687 162.505 84.9647 162.404 85.7135C156.356 87.7175 150.788 89.3303 146.754 90.0263C149.314 87.5903 152.422 84.2423 154.935 80.3831C153.973 80.1455 152.991 79.9247 151.988 79.7207C149.293 83.6255 146.084 86.8559 144.087 88.7015C143.18 89.5415 142.688 90.7343 142.731 91.9775C142.772 93.2279 143.367 94.3943 144.351 95.1719C146.24 96.6767 148.376 98.6759 150.716 101.112C153.812 104.354 155.358 113.253 154.945 125.532C154.904 126.854 155.463 128.102 156.478 128.947C157.491 129.797 158.826 130.121 160.126 129.84C162.392 129.346 166.122 128.77 171.006 128.803C177.862 128.854 188.523 136.613 192.781 139.944C193.707 140.669 194.862 140.981 196.026 140.81C197.187 140.64 198.195 140.028 198.877 139.07C199.89 137.652 201.505 135.586 203.682 133.409C203.24 132.626 202.882 131.726 202.597 130.567L202.606 130.572ZM157.75 125.69C157.753 125.664 157.743 125.645 157.748 125.626C158 117.974 157.688 104.364 152.734 99.1847C150.318 96.6551 148.078 94.5743 146.091 92.9855C146.084 92.9831 146.074 92.9663 146.065 92.9591C150.346 92.3519 156.522 90.6071 163.244 88.3847C163.362 88.5167 163.486 88.6415 163.626 88.7423C164.857 89.7239 166.254 91.0271 167.778 92.6231C169.705 94.6439 170.703 100.543 170.444 108.408C170.418 109.171 170.658 109.91 171.111 110.506C166.801 116.21 162.229 121.577 157.75 125.688V125.69ZM194.802 137.918C194.698 137.877 194.602 137.82 194.511 137.746C188.938 133.392 178.477 126.067 171.032 126.009C166.554 125.978 162.978 126.446 160.539 126.912C164.989 122.685 169.462 117.384 173.66 111.809C173.917 111.809 174.178 111.792 174.44 111.734C175.914 111.41 178.338 111.033 181.518 111.057C184.561 111.079 189.831 113.793 195.61 118.315C195.853 118.509 196.129 118.663 196.412 118.776L194.802 137.921V137.918Z" fill="#DDDDE3"/>
<g opacity="0.5">
<path d="M43.9644 25.6508H100.88C103.972 25.6508 106.48 28.1588 106.48 31.25V63.8276C106.48 66.9188 103.972 69.4268 100.88 69.4268H91.8133V74.702C91.8133 77.1308 88.9452 78.4196 87.1284 76.8068L78.81 69.4244H43.9644C40.8732 69.4244 38.3652 66.9164 38.3652 63.8252V31.2476C38.3652 28.1564 40.8732 25.6484 43.9644 25.6484V25.6508Z" fill="#DDDDE3"/>
</g>
<path d="M88.9829 78.2448C88.1405 78.2448 87.3149 77.9376 86.6501 77.3472L78.5357 70.1472H43.9637C40.4789 70.1472 37.6445 67.3128 37.6445 63.828V31.2504C37.6445 27.7656 40.4789 24.9312 43.9637 24.9312H100.88C104.365 24.9312 107.199 27.7656 107.199 31.2504V63.828C107.199 67.3128 104.365 70.1472 100.88 70.1472H92.5325V74.7024C92.5325 76.1136 91.7333 77.3472 90.4469 77.9256C89.9741 78.1392 89.4749 78.2424 88.9853 78.2424L88.9829 78.2448ZM43.9637 26.3712C41.2733 26.3712 39.0845 28.56 39.0845 31.2504V63.828C39.0845 66.5184 41.2733 68.7072 43.9637 68.7072H79.0829L87.6077 76.2696C88.2437 76.8336 89.0837 76.9608 89.8565 76.6128C90.6293 76.2648 91.0925 75.5496 91.0925 74.7024V68.7072H100.88C103.57 68.7072 105.759 66.5184 105.759 63.828V31.2504C105.759 28.56 103.57 26.3712 100.88 26.3712H43.9637Z" fill="#DDDDE3"/>
<path d="M62.8438 44.3473C62.8438 40.6489 63.6814 37.7881 65.3542 35.7625C67.027 33.7369 69.3862 32.7241 72.4293 32.7241C75.4726 32.7241 77.8294 33.7297 79.495 35.7433C81.1606 37.7569 81.9958 40.6177 81.9958 44.3281V49.3465C81.9958 53.0329 81.1582 55.8865 79.4854 57.9121C77.8126 59.9377 75.4486 60.9505 72.391 60.9505C69.3598 60.9505 67.0102 59.9449 65.3446 57.9313C63.679 55.9201 62.8438 53.0569 62.8438 49.3465V44.3473ZM69.2014 50.3089C69.2134 52.2841 69.4774 53.7337 69.9934 54.6577C70.5094 55.5817 71.3086 56.0449 72.3886 56.0449C73.5094 56.0449 74.3254 55.5697 74.8414 54.6193C75.3574 53.6689 75.6142 52.1689 75.6142 50.1193V43.1017C75.5758 41.2657 75.3093 39.8953 74.8125 38.9881C74.3157 38.0833 73.5214 37.6297 72.427 37.6297C71.3326 37.6297 70.4902 38.1169 69.9742 39.0913C69.4582 40.0657 69.2014 41.5417 69.2014 43.5145V50.3065V50.3089Z" fill="#FF3F1A"/>
<path d="M152.307 62.5897C152.238 62.5897 152.168 62.5801 152.096 62.5585C148.078 61.3321 143.936 60.4081 139.782 59.8129C139.22 59.7313 138.718 59.6689 138.248 59.7193C137.773 59.7697 137.283 59.9425 136.782 60.1273C135.104 60.7537 133.441 61.4761 131.838 62.2753C131.482 62.4529 131.05 62.3089 130.873 61.9513C130.695 61.5961 130.839 61.1641 131.197 60.9865C132.843 60.1657 134.554 59.4217 136.28 58.7785C136.87 58.5577 137.454 58.3537 138.097 58.2865C138.73 58.2193 139.326 58.2913 139.986 58.3873C144.214 58.9945 148.429 59.9329 152.516 61.1809C152.895 61.2961 153.111 61.6993 152.994 62.0809C152.9 62.3905 152.614 62.5921 152.305 62.5921L152.307 62.5897Z" fill="#C2E1FF"/>
<path d="M139.108 69.7388C138.894 69.7388 138.683 69.6452 138.542 69.4652C138.294 69.1532 138.35 68.6996 138.662 68.4548C140.411 67.0748 142.67 66.1268 145.37 65.6372C147.729 65.21 150.134 65.1692 152.459 65.1284C152.858 65.114 153.184 65.438 153.191 65.8364C153.198 66.2348 152.882 66.5612 152.483 66.5684C150.215 66.6068 147.87 66.6476 145.626 67.0532C143.159 67.502 141.114 68.354 139.552 69.5852C139.42 69.6884 139.264 69.7388 139.108 69.7388Z" fill="#C2E1FF"/>
<path d="M148.464 85.1403C148.104 85.1403 147.792 84.8715 147.749 84.5043C147.593 83.1771 147.521 81.8283 147.53 80.4915C147.537 79.4163 147.6 78.1563 148.001 76.9611C148.557 75.3027 149.702 73.9443 150.713 72.7467L152.93 70.1187C153.187 69.8139 153.641 69.7755 153.945 70.0323C154.25 70.2891 154.289 70.7427 154.032 71.0475L151.814 73.6755C150.842 74.8299 149.837 76.0203 149.366 77.4195C149.03 78.4203 148.977 79.5387 148.973 80.5011C148.963 81.7779 149.033 83.0691 149.181 84.3363C149.227 84.7323 148.944 85.0899 148.55 85.1355C148.521 85.1379 148.493 85.1403 148.466 85.1403H148.464Z" fill="#C2E1FF"/>
<path d="M173.32 75.9956C172.984 75.9956 172.682 75.758 172.615 75.4148C172.43 74.4836 172.226 73.5332 172.01 72.5948C171.854 71.9108 171.7 71.3036 171.42 70.7828C171.165 70.3076 170.793 69.89 170.462 69.542C169.672 68.7116 168.792 67.9628 167.844 67.3172C167.515 67.094 167.431 66.6452 167.654 66.3164C167.877 65.9876 168.326 65.9012 168.655 66.1268C169.687 66.83 170.647 67.6436 171.506 68.5508C171.902 68.9684 172.351 69.4772 172.687 70.1036C173.052 70.7828 173.229 71.4884 173.412 72.2732C173.63 73.226 173.836 74.1884 174.026 75.1364C174.103 75.5252 173.851 75.9044 173.46 75.9836C173.412 75.9932 173.366 75.998 173.318 75.998L173.32 75.9956Z" fill="#C2E1FF"/>
<path d="M176.631 69.7941C176.327 69.7941 176.046 69.5997 175.947 69.2949C175.525 67.9797 174.966 66.7029 174.289 65.4981C174.087 65.1405 173.847 64.7349 173.54 64.4469C173.118 64.0533 172.508 63.8157 171.918 63.5877C170.317 62.9661 168.663 62.3253 166.979 61.9917C166.59 61.9149 166.335 61.5357 166.412 61.1445C166.489 60.7557 166.868 60.5013 167.259 60.5781C169.067 60.9381 170.783 61.6029 172.439 62.2461C173.123 62.5125 173.898 62.8125 174.524 63.3957C174.985 63.8253 175.292 64.3413 175.547 64.7925C176.271 66.0813 176.869 67.4469 177.32 68.8533C177.443 69.2325 177.234 69.6381 176.855 69.7605C176.78 69.7845 176.706 69.7965 176.634 69.7965L176.631 69.7941Z" fill="#C2E1FF"/>
<path d="M176.97 61.5024C176.798 61.5024 176.627 61.4424 176.488 61.3176C175.185 60.144 173.838 58.9296 172.23 58.2864C171.378 57.9456 170.45 57.7656 169.571 57.6096C167.764 57.2904 165.923 57.0432 164.097 56.8728C163.701 56.8368 163.41 56.484 163.446 56.088C163.482 55.692 163.835 55.4016 164.231 55.4376C166.096 55.6128 167.975 55.8648 169.821 56.1912C170.774 56.3592 171.786 56.556 172.766 56.9496C174.611 57.6888 176.121 59.0496 177.453 60.2496C177.748 60.516 177.772 60.972 177.506 61.2672C177.364 61.4256 177.167 61.5048 176.97 61.5048V61.5024Z" fill="#C2E1FF"/>
<path d="M163.867 75.4665C169.198 73.4774 171.586 66.6792 169.199 60.2822C166.812 53.8853 160.556 50.3121 155.224 52.3013C149.893 54.2904 147.506 61.0886 149.893 67.4851C152.279 73.8821 158.535 77.4552 163.867 75.4665Z" fill="#0B74E5"/>
<path d="M155.303 58.1635C157.991 57.1608 159.288 53.9851 158.201 51.0706C157.113 48.156 154.053 46.6061 151.365 47.6088C148.678 48.611 147.381 51.7867 148.469 54.7013C149.556 57.6163 152.616 59.1662 155.303 58.1635Z" fill="#C2E1FF"/>
</g>
</svg>
