<svg width="82" height="59" viewBox="0 0 82 59" fill="none" xmlns="http://www.w3.org/2000/svg">
<path d="M29 34L3 55.5H83V13L46 44.5L29 34Z" fill="url(#paint0_linear_0_1)"/>
<path d="M29.1313 34.1251L29.4038 33.7059L29.0954 33.5054L28.8122 33.7401L29.1313 34.1251ZM45.7194 44.9079L45.4469 45.3271L45.7591 45.53L46.0429 45.2891L45.7194 44.9079ZM82.1423 14.0015L76.4622 15.0354L80.1976 19.4376L82.1423 14.0015ZM0.801303 58.257L29.4504 34.51L28.8122 33.7401L0.163139 57.4871L0.801303 58.257ZM28.8588 34.5443L45.4469 45.3271L45.9919 44.4887L29.4038 33.7059L28.8588 34.5443ZM46.0429 45.2891L79.0346 17.2942L78.3876 16.5317L45.3959 44.5266L46.0429 45.2891Z" fill="url(#paint1_linear_0_1)"/>
<path d="M49.9544 4.375L49.258 6.42493L49.171 6.68115C48.0412 10.0067 51.4171 14.145 56.7113 15.9241C61.9134 17.6726 67.0291 16.4911 68.2774 13.2943L68.3429 13.1243L69.2134 10.5618" fill="#D28110"/>
<path d="M55.3117 15.3118C55.2736 15.2985 55.2555 15.2505 55.2714 15.2037L56.0246 12.9864C56.0406 12.9397 56.0846 12.9121 56.1231 12.9251L56.1236 12.9252C56.1618 12.9385 56.1799 12.9867 56.164 13.0333L55.4108 15.2506C55.3948 15.2974 55.3508 15.3249 55.3122 15.3119L55.3117 15.3118Z" fill="#FCD227"/>
<path d="M56.1554 15.6906C56.1173 15.6774 56.0992 15.6292 56.1152 15.5825L56.8684 13.3654C56.8845 13.3185 56.9285 13.2909 56.9669 13.3041L56.9675 13.3042C57.0055 13.3175 57.0237 13.3655 57.0078 13.4122L56.2544 15.6296C56.2385 15.6763 56.1945 15.7038 56.1559 15.6908L56.1554 15.6906Z" fill="#FCD227"/>
<path d="M56.8976 15.9407C56.8595 15.9275 56.8415 15.8795 56.8573 15.8328L57.6106 13.6153C57.6266 13.5685 57.6706 13.541 57.7091 13.554L57.7096 13.5542C57.7477 13.5674 57.7658 13.6156 57.75 13.6623L56.9967 15.8797C56.9807 15.9265 56.9366 15.9539 56.8982 15.9409L56.8976 15.9407Z" fill="#FCD227"/>
<path d="M61.2804 16.6752C61.2423 16.6619 61.2243 16.6137 61.2401 16.5673L61.9934 14.3497C62.0094 14.3029 62.0534 14.2754 62.0919 14.2884L62.0925 14.2886C62.1306 14.3018 62.1487 14.3499 62.1327 14.3966L61.3794 16.6141C61.3635 16.6609 61.3194 16.6883 61.281 16.6754L61.2804 16.6752Z" fill="#FCD227"/>
<path d="M62.6398 16.6361C62.6017 16.6228 62.5836 16.5747 62.5995 16.5281L63.3528 14.3106C63.3689 14.2638 63.4129 14.2364 63.4514 14.2493L63.4519 14.2495C63.4901 14.2628 63.5082 14.3108 63.4923 14.3575L62.7388 16.575C62.723 16.6218 62.6789 16.6492 62.6403 16.6363L62.6398 16.6361Z" fill="#FCD227"/>
<path d="M63.4992 16.4992C63.4611 16.4859 63.443 16.4378 63.4589 16.3911L64.2121 14.1738C64.2281 14.1271 64.2721 14.0996 64.3106 14.1126L64.3111 14.1127C64.3492 14.126 64.3674 14.1742 64.3515 14.2207L63.5983 16.438C63.5823 16.4849 63.5381 16.5124 63.4998 16.4993L63.4992 16.4992Z" fill="#FCD227"/>
<path d="M65.7805 15.7921C65.7424 15.7789 65.7242 15.7307 65.7401 15.6841L66.4935 13.4668C66.5095 13.42 66.5534 13.3926 66.592 13.4055L66.5926 13.4057C66.6306 13.4189 66.6487 13.4671 66.6328 13.5137L65.8795 15.7311C65.8635 15.778 65.8195 15.8053 65.781 15.7923L65.7805 15.7921Z" fill="#FCD227"/>
<path d="M69.2122 10.5618C67.9912 14.1501 62.7084 15.6202 57.4127 13.845C52.1171 12.0702 48.814 7.72223 50.035 4.13402C51.256 0.545731 56.5387 -0.924292 61.8344 0.850705C67.1301 2.62578 70.4332 6.97363 69.2122 10.5618Z" fill="#FFB703"/>
<path d="M57.2231 13.8813C54.7194 13.0118 52.5924 11.5451 51.2201 9.73884C49.808 7.87996 49.3622 5.88078 49.965 4.10938C50.5678 2.33789 52.1436 1.01631 54.4021 0.387949C56.6426 -0.235571 59.2931 -0.104134 61.8651 0.758016C67.1846 2.54339 70.5179 6.9512 69.2815 10.5839C68.6788 12.3553 67.1029 13.6771 64.8445 14.3054C62.6039 14.9289 59.9534 14.7974 57.3813 13.9353C57.3286 13.9175 57.2757 13.8996 57.2231 13.8813ZM61.9581 0.993773C61.9063 0.975756 61.8551 0.958485 61.8028 0.940921C59.2527 0.0861151 56.6274 -0.0450023 54.4107 0.571812C52.2121 1.18365 50.6827 2.45642 50.1044 4.15608C49.5261 5.85556 49.9648 7.78825 51.3395 9.59777C52.7255 11.4222 54.8913 12.8955 57.4435 13.7523C59.9938 14.6072 62.6192 14.7384 64.8358 14.1214C67.0345 13.5098 68.5639 12.2368 69.1422 10.5372C70.332 7.04027 67.1159 2.78508 61.9581 0.993773Z" fill="#FFB703"/>
<path d="M67.3161 9.92482C66.3902 12.6456 62.1959 13.697 57.9477 12.2731C53.6996 10.8491 51.0064 7.48915 51.9322 4.76836C52.858 2.04755 57.0523 0.996237 61.3004 2.42019C65.5486 3.84407 68.2419 7.20403 67.3161 9.92482Z" fill="#FB8500"/>
<path d="M61.1875 2.7654C65.3547 4.16219 68.0254 7.42206 67.2516 10.114C67.277 10.0519 67.3012 9.98895 67.323 9.92481C68.2488 7.20402 65.5555 3.84417 61.3073 2.42019C57.0592 0.996232 52.8649 2.04757 51.9391 4.76836C51.9215 4.8202 51.9056 4.87209 51.8906 4.92428C52.9433 2.34506 57.0394 1.37505 61.1875 2.7654Z" fill="#D28110"/>
<path d="M59.3808 6.84056L59.3807 6.84022L59.2247 6.29197L58.2403 6.77998L58.4107 7.37814L59.307 6.9338C59.307 6.93379 59.307 6.93379 59.307 6.93379C59.3257 6.92448 59.3481 6.91896 59.372 6.91775C59.3959 6.91653 59.4205 6.91967 59.4435 6.92685C59.4664 6.93404 59.487 6.94504 59.5032 6.9588C59.5194 6.97257 59.5308 6.98864 59.5361 7.00549L59.5364 7.00634L59.5364 7.00634L59.8804 8.20826L59.8997 8.27563L59.8074 8.24823L56.3458 7.21997L55.3059 7.73553L55.9506 9.99098L56.8409 9.54963L56.8409 9.54962C56.8609 9.53969 56.8849 9.53382 56.9104 9.53256C56.9359 9.5313 56.9622 9.5347 56.9867 9.54242C57.0112 9.55014 57.0331 9.56194 57.0503 9.57667C57.0676 9.59141 57.0796 9.60861 57.0852 9.62661L57.0854 9.62731L57.0854 9.62731L57.3355 10.505L58.3265 10.0137L58.0352 8.99148L57.1365 9.43706L57.1364 9.43709L57.1003 9.40392C57.0879 9.41011 57.073 9.41376 57.0571 9.41451C57.0412 9.41525 57.0249 9.41307 57.0097 9.40817C56.9945 9.40328 56.981 9.39583 56.9705 9.38657C56.9599 9.37731 56.9528 9.36654 56.9496 9.35532L59.3808 6.84056ZM59.3808 6.84056C59.3911 6.87521 59.4332 6.89623 59.4653 6.90524C59.4979 6.91437 59.5445 6.91826 59.58 6.90064L60.5107 6.43925L61.1619 8.62544L60.1514 9.12644L56.614 8.06954L56.5218 8.04201L56.5408 8.10937L56.8939 9.35885L59.3808 6.84056Z" fill="url(#paint2_linear_0_1)" stroke="#D28110" stroke-width="0.0979592"/>
<path d="M63.0413 4.21699L63.0412 4.21699C62.7646 4.146 62.438 4.1932 62.0652 4.37579L60.6787 5.06322L60.8824 5.78416L62.1994 5.13122C62.3484 5.05734 62.5739 5.07915 62.7063 5.19086M63.0413 4.21699L62.7064 5.19088C62.7064 5.19088 62.7063 5.19087 62.7063 5.19086M63.0413 4.21699C63.3193 4.28825 63.5553 4.48157 63.7331 4.80891L63.7332 4.80904C63.8592 5.03868 63.8758 5.20002 63.7917 5.37848L63.7721 5.42002L63.8361 5.43254C64.1297 5.49004 64.2617 5.67773 64.3533 5.81125M63.0413 4.21699L63.9407 7.21617M62.7063 5.19086C62.7394 5.21866 62.7646 5.25028 62.7806 5.28379C62.7966 5.31732 62.803 5.35205 62.7994 5.38587C62.7958 5.41969 62.7822 5.45191 62.7595 5.48056C62.7369 5.50922 62.7056 5.53372 62.6675 5.55257L62.6315 5.5194M62.7063 5.19086L62.6315 5.5194M62.6315 5.5194L62.6675 5.55257L61.0454 6.35679M62.6315 5.5194L60.983 6.3367M61.0454 6.35679L61.0386 6.33304L60.983 6.3367M61.0454 6.35679L61.019 6.36987L60.983 6.3367M61.0454 6.35679L61.252 7.08264M60.983 6.3367L61.2024 7.10728L61.252 7.08264M61.252 7.08264L61.2648 7.12737M61.252 7.08264L63.1649 6.13428C63.2018 6.11601 63.2443 6.10341 63.2899 6.09719C63.3355 6.09098 63.3834 6.09127 63.4309 6.09806C63.4783 6.10485 63.5244 6.118 63.5665 6.13675L61.2648 7.12737M61.2648 7.12737L63.201 6.16745C63.2321 6.15204 63.2679 6.14141 63.3064 6.13617C63.3449 6.13092 63.3853 6.13117 63.4253 6.1369C63.4654 6.14263 63.5042 6.15372 63.5397 6.16954C63.5752 6.18536 63.6066 6.2056 63.6321 6.22911M61.2648 7.12737L62.0293 4.34256C62.4081 4.157 62.7534 4.10234 63.0556 4.17991C63.3594 4.25776 63.6054 4.46598 63.7859 4.79842C63.9071 5.01933 63.9318 5.18314 63.8619 5.35755C63.8598 5.35712 63.8577 5.3567 63.8556 5.35629L63.8458 5.39441L63.9 5.41035C63.9005 5.40928 63.901 5.40821 63.9015 5.40714C64.1879 5.48241 64.3196 5.67415 64.4041 5.79738M63.6321 6.22911C63.6836 6.27656 63.7081 6.33442 63.7002 6.38997C63.6922 6.44552 63.6525 6.49421 63.5898 6.52533L61.3526 7.63446M63.6321 6.22911L63.676 6.20738C63.7371 6.26361 63.7661 6.3322 63.7567 6.39804C63.7473 6.46389 63.7002 6.52161 63.6258 6.5585L61.415 7.65455M63.6321 6.22911L63.676 6.20736L63.9407 7.21617M61.3526 7.63446L61.5701 8.39842L61.6198 8.37379M61.3526 7.63446L61.3886 7.66763L61.415 7.65455M61.3526 7.63446L61.4082 7.6308L61.415 7.65455M61.6198 8.37379L61.6325 8.41852L62.127 8.17335C62.7084 7.88511 63.0682 7.70555 63.977 7.24922M61.6198 8.37379L62.091 8.14017C62.6723 7.85199 63.032 7.67247 63.9407 7.21617M61.6198 8.37379L61.415 7.65455M63.977 7.24922C64.6485 6.91174 64.8044 6.38258 64.4041 5.79738M63.977 7.24922L63.9407 7.21616C63.9407 7.21617 63.9407 7.21617 63.9407 7.21617M63.977 7.24922L63.9407 7.21617M64.4041 5.79738L64.3533 5.81125M64.4041 5.79738L64.3533 5.81129C64.3533 5.81127 64.3533 5.81126 64.3533 5.81125M64.3533 5.81125C64.5487 6.09699 64.6068 6.36643 64.5368 6.6043C64.4668 6.84209 64.2679 7.05173 63.9407 7.21617" fill="url(#paint3_linear_0_1)" stroke="#D28110" stroke-width="0.0979592"/>
<path d="M56.6005 39.3274L57.4593 38.4832L57.5666 38.3777C58.9599 37.0082 57.9398 33.7111 55.2881 31.0136C52.6826 28.3628 49.4726 27.2789 48.0398 28.5414L47.9642 28.6088L46.8906 29.6641" fill="#D28110"/>
<path d="M46.8891 29.6649C48.2824 28.2954 51.5615 29.372 54.2131 32.0696C56.8648 34.7671 57.8848 38.0643 56.4916 39.4337C55.0983 40.8033 51.8193 39.7267 49.1676 37.0291C46.516 34.3315 45.4959 31.0344 46.8891 29.6649Z" fill="#FFB703"/>
<path d="M54.3335 32.1162C55.5812 33.4067 56.4989 34.8658 56.9227 36.2355C57.3587 37.6451 57.2201 38.7937 56.5324 39.4698C55.8445 40.1459 54.6937 40.2647 53.2918 39.8044C51.9011 39.3478 50.4259 38.3748 49.138 37.0645C46.4749 34.3536 45.4495 31.0163 46.8601 29.6299C47.5479 28.9539 48.6988 28.835 50.1006 29.2953C51.4914 29.7519 52.9666 30.725 54.2545 32.0353C54.2809 32.0621 54.3074 32.0892 54.3335 32.1162ZM49.1315 36.9152C49.1573 36.9419 49.1829 36.9681 49.2091 36.9947C50.486 38.2938 51.947 39.2581 53.3229 39.7098C54.6876 40.1578 55.8026 40.0474 56.4626 39.3987C57.1225 38.7501 57.2521 37.6371 56.8275 36.2649C56.3995 34.8814 55.4612 33.4058 54.1835 32.105C52.9065 30.8059 51.4455 29.8415 50.0696 29.3899C48.7049 28.9418 47.5898 29.0522 46.9299 29.7009C45.5722 31.0356 46.5611 34.2567 49.1315 36.9152Z" fill="#FFB703"/>
<path d="M47.8404 30.6319C48.8968 29.5935 51.4777 30.5059 53.6048 32.67C55.7319 34.834 56.5999 37.4301 55.5435 38.4685C54.4871 39.5069 51.9063 38.5945 49.7791 36.4305C47.652 34.2664 46.784 31.6703 47.8404 30.6319Z" fill="#FB8500"/>
<path d="M51.7433 34.269C51.7444 34.2817 51.7439 34.294 51.7418 34.3055C51.7385 34.323 51.7316 34.3378 51.7217 34.3486L51.7211 34.3492L51.7211 34.3492L51.0926 34.9943L51.044 35.0441L51.0222 34.95L50.4304 32.3967L49.7493 31.9286L48.5873 33.1202L49.1628 33.5158L49.1628 33.5158C49.1781 33.5263 49.192 33.5413 49.2033 33.5592C49.2146 33.5772 49.2229 33.5976 49.2274 33.6185C49.2319 33.6394 49.2324 33.66 49.2289 33.6785C49.2254 33.697 49.218 33.7126 49.2075 33.724L49.207 33.7245L49.207 33.7245L48.7606 34.1815L49.3967 34.6186L49.914 34.089L49.3328 33.6896L49.3327 33.6896M51.7433 34.269L49.3201 33.5289C49.3142 33.5349 49.3101 33.5433 49.308 33.5533C49.306 33.5632 49.3062 33.5744 49.3086 33.5858C49.3109 33.5972 49.3154 33.6083 49.3215 33.6181C49.3277 33.628 49.3353 33.6361 49.3436 33.6418L49.3327 33.6896M51.7433 34.269C51.7515 34.2938 51.767 34.3229 51.7914 34.3397L52.394 34.7539L51.2774 35.9249L50.616 35.4703L50.015 32.8588L49.9933 32.7647L49.9446 32.8143L49.2896 33.4819M51.7433 34.269L49.2896 33.4819M49.3327 33.6896C49.3175 33.6791 49.3035 33.6641 49.2922 33.6461C49.2809 33.628 49.2727 33.6075 49.2684 33.5866C49.264 33.5657 49.2637 33.545 49.2674 33.5267C49.2711 33.5084 49.2788 33.493 49.2896 33.482C49.2896 33.482 49.2896 33.482 49.2896 33.482C49.2896 33.4819 49.2896 33.4819 49.2896 33.4819M49.3327 33.6896L49.2896 33.4819M51.7525 34.1658L51.7523 34.166C51.7365 34.1826 51.7335 34.2085 51.7355 34.2315C51.731 34.2179 51.7249 34.2048 51.7174 34.1929C51.7067 34.1759 51.6935 34.1618 51.6791 34.1519C51.6791 34.1519 51.6791 34.1519 51.6791 34.1519L51.0996 33.7536L51.3949 33.4513L52.0265 33.8854L51.7525 34.1658Z" fill="url(#paint4_linear_0_1)" stroke="#D28110" stroke-width="0.0979592"/>
<path d="M54.6952 35.5754L54.6952 35.5753C54.6426 35.3816 54.5008 35.1946 54.255 35.024L53.3366 34.3928L52.9764 34.7599L53.8366 35.3511C53.9415 35.4232 54.0126 35.5827 53.9887 35.7141L53.9478 35.6886M54.6952 35.5754L53.7047 36.5907C53.7013 36.5554 53.6925 36.5195 53.6791 36.485C53.6656 36.4506 53.6477 36.4182 53.6263 36.3899C53.6049 36.3616 53.5805 36.3378 53.5545 36.3199L52.2967 35.4554L52.6589 35.0848L53.7345 35.824C53.7345 35.824 53.7345 35.824 53.7345 35.824C53.7614 35.8425 53.7894 35.8543 53.817 35.8587C53.8445 35.8632 53.871 35.8602 53.8947 35.8499C53.9185 35.8396 53.9391 35.8223 53.9552 35.7989C53.9714 35.7756 53.9828 35.7467 53.9887 35.714L53.9478 35.6886M54.6952 35.5754C54.748 35.77 54.7137 35.984 54.5734 36.2117L54.5733 36.2118C54.4758 36.3715 54.3829 36.4375 54.2443 36.4472L54.1989 36.4504L54.2196 36.5125C54.2857 36.7108 54.2189 36.8558 54.1678 36.962C54.06 37.1854 53.914 37.316 53.743 37.3554C53.572 37.3948 53.3726 37.3439 53.1552 37.1962C52.5453 36.7816 52.3046 36.6171 51.9168 36.3506L51.6209 36.1472L51.9796 35.78L53.4479 36.7892C53.5005 36.8253 53.5565 36.8352 53.6037 36.8168C53.6509 36.7984 53.6853 36.7531 53.6994 36.6909L54.6952 35.5754ZM53.9478 35.6886C53.9431 35.7146 53.9341 35.7376 53.9212 35.7563C53.9083 35.7749 53.8919 35.7887 53.873 35.7969C53.8541 35.8051 53.833 35.8075 53.811 35.8039C53.7891 35.8004 53.7667 35.7909 53.7453 35.7762L52.9441 34.7929L53.8258 35.3989C53.9107 35.4572 53.9667 35.5853 53.9478 35.6886Z" fill="url(#paint5_linear_0_1)" stroke="#D28110" stroke-width="0.0979592"/>
<path d="M55.9677 31.8003C55.9866 31.82 55.9864 31.8512 55.9667 31.8705L55.0378 32.7836C55.0182 32.8028 54.9867 32.8026 54.9674 32.783L54.9671 32.7827C54.9481 32.7631 54.9485 32.7317 54.968 32.7126L55.8969 31.7994C55.9166 31.7802 55.9481 31.7804 55.9674 31.8001L55.9677 31.8003Z" fill="#FCD227"/>
<path d="M55.5615 31.3198C55.5805 31.3395 55.5801 31.3708 55.5605 31.39L54.6316 32.303C54.6119 32.3223 54.5804 32.3221 54.5612 32.3024L54.5609 32.3022C54.5419 32.2825 54.5422 32.2512 54.5618 32.232L55.4908 31.3189C55.5104 31.2997 55.5419 31.2999 55.5612 31.3196L55.5615 31.3198Z" fill="#FCD227"/>
<path d="M55.1864 30.941C55.2054 30.9606 55.2051 30.9918 55.1855 31.0111L54.2566 31.9243C54.2369 31.9435 54.2054 31.9433 54.1862 31.9236L54.1859 31.9234C54.1669 31.9037 54.1672 31.8724 54.1868 31.8532L55.1157 30.94C55.1354 30.9208 55.1669 30.9211 55.1861 30.9407L55.1864 30.941Z" fill="#FCD227"/>
<path d="M52.8271 29.0933C52.8461 29.1129 52.8457 29.1442 52.8262 29.1634L51.8972 30.0766C51.8776 30.0959 51.846 30.0956 51.8268 30.076L51.8265 30.0757C51.8075 30.0561 51.8078 30.0248 51.8275 30.0056L52.7565 29.0924C52.7761 29.0731 52.8076 29.0734 52.8268 29.093L52.8271 29.0933Z" fill="#FCD227"/>
<path d="M52.0303 28.6636C52.0493 28.6833 52.0489 28.7146 52.0294 28.7338L51.1004 29.6469C51.0807 29.6662 51.0492 29.6659 51.0299 29.6463L51.0297 29.646C51.0106 29.6263 51.011 29.5951 51.0306 29.5758L51.9597 28.6627C51.9792 28.6434 52.0107 28.6437 52.0301 28.6634L52.0303 28.6636Z" fill="#FCD227"/>
<path d="M51.5145 28.4488C51.5335 28.4685 51.5332 28.4998 51.5136 28.519L50.5847 29.4321C50.565 29.4513 50.5336 29.451 50.5143 29.4314L50.514 29.4312C50.495 29.4115 50.4953 29.3802 50.5149 29.361L51.4438 28.4479C51.4635 28.4286 51.495 28.4289 51.5142 28.4485L51.5145 28.4488Z" fill="#FCD227"/>
<path d="M50.038 28.0621C50.057 28.0817 50.0567 28.113 50.0371 28.1322L49.1081 29.0453C49.0885 29.0645 49.0571 29.0643 49.0377 29.0446L49.0374 29.0444C49.0185 29.0248 49.0188 28.9934 49.0384 28.9743L49.9673 28.0611C49.987 28.0419 50.0185 28.0422 50.0377 28.0618L50.038 28.0621Z" fill="#FCD227"/>
<path d="M49.9145 36.296C47.8279 34.1732 46.9531 31.6347 47.9179 30.5586C47.8913 30.5808 47.8653 30.6039 47.8404 30.6284C46.784 31.6668 47.652 34.2629 49.7791 36.4269C51.9063 38.5909 54.4871 39.5034 55.5435 38.4649C55.5636 38.4452 55.5827 38.4247 55.6014 38.4039C54.5009 39.3284 51.9916 38.409 49.9145 36.296Z" fill="#D28110"/>
<path d="M46.4672 24.0977C48.6217 22.481 48.1517 18.2163 45.4173 14.5721C42.6829 10.928 38.7197 9.28434 36.5652 10.901C34.4106 12.5176 34.8807 16.7823 37.6151 20.4265C40.3495 24.0706 44.3127 25.7143 46.4672 24.0977Z" fill="#D28110"/>
<path d="M44.3654 15.511L47.6805 23.3153L46.1331 24.3117C46.1331 24.3117 42.5311 23.309 42.4379 23.2779C42.3446 23.2468 36.8106 17.9616 36.8106 17.9616L36.1719 11.2514L37.6047 9.88672L38.4895 10.4224L44.3654 15.511Z" fill="#D28110"/>
<path d="M36.2814 18.2246C36.263 18.1944 36.2776 18.1517 36.3144 18.129L38.0619 17.049C38.0988 17.0262 38.144 17.0321 38.1628 17.0625L38.1631 17.0629C38.1815 17.0931 38.1668 17.1358 38.1301 17.1585L36.3826 18.2385C36.3456 18.2613 36.3005 18.2553 36.2817 18.225L36.2814 18.2246Z" fill="#FCD227"/>
<path d="M36.6485 18.9549C36.6302 18.9247 36.6449 18.882 36.6817 18.8594L38.4292 17.7795C38.4662 17.7567 38.5113 17.7626 38.53 17.793L38.5303 17.7934C38.5487 17.8236 38.5341 17.8662 38.4973 17.8889L36.7496 18.9689C36.7128 18.9916 36.6677 18.9857 36.6488 18.9553L36.6485 18.9549Z" fill="#FCD227"/>
<path d="M37.0079 19.541C36.9896 19.5108 37.0041 19.4682 37.0409 19.4455L38.7886 18.3654C38.8255 18.3426 38.8707 18.3486 38.8894 18.3789L38.8897 18.3793C38.9081 18.4095 38.8935 18.4522 38.8567 18.475L37.1091 19.555C37.0722 19.5778 37.027 19.5717 37.0082 19.5415L37.0079 19.541Z" fill="#FCD227"/>
<path d="M39.5626 22.4824C39.5442 22.4522 39.5589 22.4095 39.5956 22.3869L41.3433 21.3067C41.3803 21.284 41.4254 21.29 41.4442 21.3203L41.4445 21.3207C41.4629 21.3509 41.4483 21.3936 41.4114 21.4163L39.6637 22.4964C39.6268 22.5191 39.5817 22.5131 39.5629 22.4829L39.5626 22.4824Z" fill="#FCD227"/>
<path d="M40.5079 23.2167C40.4895 23.1865 40.5042 23.1438 40.541 23.1211L42.2887 22.0411C42.3256 22.0184 42.3707 22.0244 42.3896 22.0546L42.3898 22.0551C42.4082 22.0854 42.3937 22.128 42.3568 22.1507L40.609 23.2307C40.5722 23.2535 40.527 23.2474 40.5082 23.2171L40.5079 23.2167Z" fill="#FCD227"/>
<path d="M41.1642 23.6035C41.1458 23.5732 41.1604 23.5305 41.1972 23.5078L42.9447 22.4278C42.9816 22.4051 43.0267 22.4111 43.0455 22.4414L43.0458 22.4418C43.0642 22.472 43.0496 22.5147 43.0128 22.5374L41.2653 23.6174C41.2283 23.6402 41.1831 23.6341 41.1645 23.6039L41.1642 23.6035Z" fill="#FCD227"/>
<path d="M43.1017 24.3963C43.0833 24.3661 43.0979 24.3234 43.1347 24.3008L44.8823 23.2208C44.9192 23.1981 44.9642 23.2041 44.9832 23.2344L44.9834 23.2348C45.0018 23.2649 44.9872 23.3076 44.9504 23.3303L43.2028 24.4103C43.1658 24.4331 43.1207 24.427 43.102 24.3967L43.1017 24.3963Z" fill="#FCD227"/>
<path d="M47.6855 23.3145C49.929 21.6311 49.4921 17.2602 46.7096 13.5519C43.9271 9.8436 39.8527 8.20209 37.6091 9.88551C35.3656 11.5689 35.8025 15.9398 38.585 19.6481C41.3676 23.3564 45.442 24.9979 47.6855 23.3145Z" fill="#FFB703"/>
<path d="M46.1437 13.8712C43.7268 10.8682 40.2841 9.62777 38.4542 11.1006C38.3824 11.1583 38.3147 11.2197 38.25 11.2839C40.0909 9.86667 43.4971 11.1108 45.8944 14.0894C48.2165 16.9747 48.7463 20.4368 47.1613 22.0102C47.1763 21.9986 47.1916 21.9873 47.2064 21.9753C49.0364 20.5025 48.5606 16.8742 46.1437 13.8712Z" fill="#D28110"/>
<path d="M45.8969 14.0896C43.4997 11.111 40.0934 9.86686 38.2525 11.2841C36.6674 12.8574 37.1972 16.3196 39.5194 19.2049C41.9166 22.1835 45.3229 23.4276 47.1638 22.0104C48.7489 20.437 48.2191 16.9749 45.8969 14.0896Z" fill="#FB8500"/>
<path d="M42.8502 16.454C42.862 16.4606 42.8724 16.4689 42.881 16.4786C42.8927 16.4918 42.9004 16.5072 42.9034 16.5233L42.9036 16.5242L42.9036 16.5242L43.064 17.5231L43.0763 17.5994L42.9924 17.5668L40.6929 16.6732L39.9614 17.0786L40.2575 18.926L40.8759 18.5832L40.876 18.5832C40.8923 18.5741 40.9113 18.569 40.9312 18.5682C40.9512 18.5674 40.9714 18.571 40.9899 18.5786C41.0084 18.5862 41.0246 18.5976 41.037 18.6117C41.0494 18.6258 41.0575 18.6422 41.0605 18.6592L41.0607 18.66L41.0607 18.66L41.1739 19.3695L41.8576 18.9906L41.7264 18.1681L41.1019 18.5142L41.1018 18.5143M42.8502 16.454L40.9708 18.434C40.9722 18.4433 40.9765 18.4523 40.9831 18.4601C40.9898 18.4679 40.9986 18.4743 41.0087 18.4785C41.0187 18.4828 41.0298 18.4848 41.0407 18.4844C41.0516 18.484 41.0621 18.4812 41.071 18.4762L41.1018 18.5143M42.8502 16.454C42.8742 16.4612 42.9069 16.4636 42.9344 16.4484L43.5819 16.0894L43.8866 17.8797L43.1762 18.2735L40.8265 17.3551L40.7428 17.3224L40.7548 17.3987L40.9185 18.437L42.8502 16.454ZM41.1018 18.5143C41.0855 18.5233 41.0665 18.5285 41.0465 18.5292C41.0265 18.53 41.0063 18.5263 40.9878 18.5185C40.9693 18.5107 40.9532 18.4991 40.9411 18.4848C40.9289 18.4705 40.9211 18.4541 40.9185 18.437L41.1018 18.5143ZM42.7795 16.3864L42.7796 16.3868C42.7841 16.4135 42.8044 16.432 42.8245 16.4432C42.8104 16.4389 42.7956 16.4371 42.781 16.4377C42.7622 16.4385 42.7442 16.4434 42.7288 16.4519C42.7288 16.4519 42.7288 16.4519 42.7288 16.4519L42.1061 16.7971L42.0312 16.327L42.7101 15.9507L42.7795 16.3864Z" fill="url(#paint6_linear_0_1)" stroke="#D28110" stroke-width="0.0979592"/>
<path d="M45.454 14.2774L45.454 14.2774C45.2751 14.2171 45.0533 14.2497 44.7881 14.3949L43.8022 14.9414L43.8924 15.5135L44.8163 15.0013C44.9287 14.939 45.0904 14.9609 45.1791 15.0607L45.1377 15.0862M45.454 14.2774L45.7054 15.8517C45.6762 15.8347 45.6437 15.8225 45.6098 15.8159C45.5759 15.8093 45.5412 15.8084 45.5078 15.8132C45.4744 15.818 45.4428 15.8284 45.4149 15.8439L44.0643 16.5926L43.9725 16.0164L45.127 15.3764C45.127 15.3764 45.127 15.3764 45.127 15.3764C45.1558 15.3604 45.1801 15.3394 45.1984 15.3147C45.2167 15.29 45.2286 15.262 45.2335 15.2325C45.2384 15.203 45.236 15.1725 45.2267 15.143C45.2173 15.1135 45.2011 15.0855 45.179 15.0607L45.1377 15.0862M45.454 14.2774C45.6337 14.3379 45.7811 14.4964 45.8818 14.768L45.8819 14.7682C45.9531 14.9578 45.954 15.0885 45.8866 15.232L45.8648 15.2785L45.9234 15.2938C46.1132 15.3433 46.1896 15.494 46.2444 15.6065C46.3593 15.8433 46.3817 16.0642 46.3198 16.2572C46.2579 16.45 46.1107 16.6187 45.8785 16.7492C45.2275 17.1146 44.9699 17.2583 44.5537 17.489L44.2353 17.6655L44.1444 17.0948L45.7205 16.2212C45.7768 16.19 45.8147 16.1402 45.8258 16.0828C45.837 16.0253 45.8205 15.965 45.78 15.9149L45.454 14.2774ZM45.1377 15.0862C45.1554 15.106 45.1683 15.1284 45.1758 15.152C45.1833 15.1755 45.1851 15.1998 45.1812 15.2234C45.1773 15.247 45.1678 15.2693 45.1532 15.2891C45.1386 15.3088 45.1192 15.3256 45.0962 15.3383L43.9004 15.5642L44.8472 15.0394C44.9383 14.9889 45.0678 15.0075 45.1377 15.0862Z" fill="url(#paint7_linear_0_1)" stroke="#D28110" stroke-width="0.0979592"/>
<path d="M37.1133 33.5264C38.2989 32.514 37.8718 30.0677 36.1595 28.0624C34.4471 26.0571 32.0979 25.2522 30.9123 26.2646C29.7267 27.277 30.1538 29.7233 31.8661 31.7286C33.5785 33.7339 35.9277 34.5388 37.1133 33.5264Z" fill="#D28110"/>
<path d="M32.4339 31.1481L30.2344 26.7609L31.0918 26.1289C31.0918 26.1289 33.2091 26.5768 33.2641 26.5913C33.3191 26.6059 36.7084 29.457 36.7084 29.457L37.3221 33.3098L36.5442 34.1503L36.0136 33.8732L32.4339 31.1481Z" fill="#D28110"/>
<path d="M36.9956 29.2837C37.0073 29.3005 37.0004 29.3256 36.98 29.3401L36.0099 30.0277C35.9895 30.0422 35.9631 30.0404 35.9512 30.0236L35.951 30.0234C35.9393 30.0065 35.9462 29.9813 35.9666 29.9669L36.9366 29.2793C36.9571 29.2648 36.9834 29.2666 36.9954 29.2835L36.9956 29.2837Z" fill="#FCD227"/>
<path d="M36.7535 28.8735C36.7652 28.8903 36.7583 28.9155 36.7378 28.9299L35.7678 29.6175C35.7472 29.632 35.7209 29.6302 35.709 29.6133L35.7088 29.6131C35.6971 29.5963 35.704 29.5712 35.7244 29.5567L36.6945 28.8691C36.715 28.8547 36.7413 28.8565 36.7533 28.8733L36.7535 28.8735Z" fill="#FCD227"/>
<path d="M36.5269 28.5493C36.5386 28.5661 36.5317 28.5912 36.5113 28.6057L35.5412 29.2933C35.5207 29.3078 35.4944 29.306 35.4824 29.2892L35.4823 29.289C35.4706 29.2722 35.4774 29.247 35.4979 29.2325L36.468 28.5449C36.4885 28.5304 36.5148 28.5323 36.5267 28.5491L36.5269 28.5493Z" fill="#FCD227"/>
<path d="M34.9488 26.9438C34.9605 26.9606 34.9536 26.9858 34.9332 27.0002L33.9631 27.6879C33.9426 27.7024 33.9163 27.7006 33.9043 27.6838L33.9042 27.6835C33.8924 27.6667 33.8993 27.6416 33.9198 27.6271L34.8899 26.9394C34.9104 26.925 34.9367 26.9268 34.9486 26.9436L34.9488 26.9438Z" fill="#FCD227"/>
<path d="M34.3785 26.5532C34.3903 26.57 34.3833 26.5952 34.3629 26.6096L33.3928 27.2972C33.3723 27.3117 33.346 27.3098 33.334 27.2931L33.3338 27.2928C33.3221 27.276 33.329 27.2509 33.3494 27.2364L34.3196 26.5488C34.3401 26.5343 34.3664 26.5362 34.3783 26.553L34.3785 26.5532Z" fill="#FCD227"/>
<path d="M33.9799 26.354C33.9916 26.3708 33.9847 26.3959 33.9643 26.4104L32.9943 27.098C32.9738 27.1125 32.9475 27.1106 32.9356 27.0939L32.9354 27.0936C32.9237 27.0768 32.9306 27.0516 32.951 27.0372L33.921 26.3496C33.9416 26.3351 33.9679 26.337 33.9798 26.3537L33.9799 26.354Z" fill="#FCD227"/>
<path d="M32.8316 25.9673C32.8433 25.984 32.8364 26.0092 32.816 26.0237L31.8459 26.7112C31.8254 26.7257 31.7992 26.7239 31.7871 26.7071L31.7869 26.7068C31.7752 26.6901 31.7821 26.6649 31.8026 26.6504L32.7727 25.9629C32.7932 25.9484 32.8194 25.9503 32.8314 25.967L32.8316 25.9673Z" fill="#FCD227"/>
<path d="M36.5455 34.1488C37.7801 33.0946 37.3683 30.5858 35.6258 28.5452C33.8833 26.5046 31.4699 25.7049 30.2354 26.7592C29.0008 27.8134 29.4126 30.3222 31.1551 32.3628C32.8976 34.4034 35.3109 35.203 36.5455 34.1488Z" fill="#FFB703"/>
<path d="M31.4596 32.1564C32.9652 33.8029 34.9991 34.3939 36.0024 33.4765C36.0418 33.4405 36.0787 33.4026 36.1137 33.3631C35.102 34.2489 33.089 33.6545 31.5957 32.0213C30.1491 30.4394 29.7168 28.4588 30.5751 27.4922C30.5668 27.4994 30.5584 27.5065 30.5502 27.514C29.5469 28.4314 29.954 30.5099 31.4596 32.1564Z" fill="#D28110"/>
<path d="M31.6001 32.0214C33.0934 33.6545 35.1064 34.2489 36.1181 33.3632C36.9763 32.3966 36.544 30.416 35.0974 28.8341C33.6041 27.2009 31.5911 26.6065 30.5794 27.4923C29.7212 28.4589 30.1535 30.4394 31.6001 32.0214Z" fill="#FB8500"/>
<mask id="path-57-inside-1_0_1" fill="white">
<path d="M33.4663 30.131C33.4475 30.1181 33.4363 30.0747 33.4494 30.061L33.7333 29.7705L33.0946 29.3315L32.7767 29.6569L33.3479 30.0495C33.3546 30.0541 33.3606 30.0606 33.3656 30.0684C33.3705 30.0762 33.3741 30.0851 33.3761 30.0942C33.3781 30.1033 33.3783 30.1123 33.3768 30.1204C33.3753 30.1284 33.3721 30.1352 33.3676 30.1402L32.8124 30.71L32.2834 28.428L31.6409 27.9864L30.5575 29.0974L31.1251 29.4876C31.1325 29.4927 31.1392 29.4999 31.1447 29.5086C31.1502 29.5173 31.1542 29.5272 31.1564 29.5373C31.1585 29.5474 31.1588 29.5574 31.1571 29.5663C31.1554 29.5753 31.1518 29.5828 31.1467 29.5883L30.7106 30.0349L31.3532 30.4765L31.8671 29.9503L31.2944 29.5567C31.2871 29.5517 31.2803 29.5445 31.2749 29.5358C31.2695 29.5271 31.2655 29.5173 31.2635 29.5073C31.2614 29.4972 31.2612 29.4873 31.263 29.4785C31.2648 29.4697 31.2685 29.4623 31.2737 29.457L31.8523 28.8672L32.3893 31.2008L33.0147 31.6306L34.0573 30.5372L33.4663 30.131Z"/>
</mask>
<path d="M33.4663 30.131C33.4475 30.1181 33.4363 30.0747 33.4494 30.061L33.7333 29.7705L33.0946 29.3315L32.7767 29.6569L33.3479 30.0495C33.3546 30.0541 33.3606 30.0606 33.3656 30.0684C33.3705 30.0762 33.3741 30.0851 33.3761 30.0942C33.3781 30.1033 33.3783 30.1123 33.3768 30.1204C33.3753 30.1284 33.3721 30.1352 33.3676 30.1402L32.8124 30.71L32.2834 28.428L31.6409 27.9864L30.5575 29.0974L31.1251 29.4876C31.1325 29.4927 31.1392 29.4999 31.1447 29.5086C31.1502 29.5173 31.1542 29.5272 31.1564 29.5373C31.1585 29.5474 31.1588 29.5574 31.1571 29.5663C31.1554 29.5753 31.1518 29.5828 31.1467 29.5883L30.7106 30.0349L31.3532 30.4765L31.8671 29.9503L31.2944 29.5567C31.2871 29.5517 31.2803 29.5445 31.2749 29.5358C31.2695 29.5271 31.2655 29.5173 31.2635 29.5073C31.2614 29.4972 31.2612 29.4873 31.263 29.4785C31.2648 29.4697 31.2685 29.4623 31.2737 29.457L31.8523 28.8672L32.3893 31.2008L33.0147 31.6306L34.0573 30.5372L33.4663 30.131Z" fill="url(#paint8_linear_0_1)"/>
<path d="M33.4494 30.061L33.3883 29.9672L33.3878 29.9677L33.4494 30.061ZM33.7333 29.7705L33.7944 29.8643L33.8893 29.7672L33.755 29.6749L33.7333 29.7705ZM33.0946 29.3315L33.1163 29.236L33.0677 29.2026L33.0335 29.2377L33.0946 29.3315ZM32.7767 29.6569L32.7155 29.5631L32.6207 29.6602L32.755 29.7525L32.7767 29.6569ZM33.3479 30.0495L33.3262 30.1451L33.3263 30.1451L33.3479 30.0495ZM33.3676 30.1402L33.4288 30.234L33.43 30.2327L33.3676 30.1402ZM32.8124 30.71L32.7328 30.7152L32.7764 30.9035L32.8736 30.8038L32.8124 30.71ZM32.2834 28.428L32.363 28.4227L32.3491 28.3626L32.3051 28.3324L32.2834 28.428ZM31.6409 27.9864L31.6626 27.8908L31.614 27.8574L31.5797 27.8926L31.6409 27.9864ZM30.5575 29.0974L30.4963 29.0037L30.4016 29.1008L30.5358 29.193L30.5575 29.0974ZM31.1251 29.4876L31.1469 29.3921L31.1468 29.392L31.1251 29.4876ZM31.1467 29.5883L31.2079 29.6821L31.2089 29.6811L31.1467 29.5883ZM30.7106 30.0349L30.6494 29.9411L30.5546 30.0381L30.6889 30.1304L30.7106 30.0349ZM31.3532 30.4765L31.3315 30.572L31.38 30.6054L31.4143 30.5703L31.3532 30.4765ZM31.8671 29.9503L31.9283 30.0441L32.0231 29.9471L31.8888 29.8548L31.8671 29.9503ZM31.2944 29.5567L31.3161 29.4612L31.316 29.4611L31.2944 29.5567ZM31.2737 29.457L31.3346 29.551L31.3347 29.5509L31.2737 29.457ZM31.8523 28.8672L31.932 28.8622L31.8886 28.674L31.7913 28.7733L31.8523 28.8672ZM32.3893 31.2008L32.3097 31.2057L32.3236 31.266L32.3677 31.2963L32.3893 31.2008ZM33.0147 31.6306L32.9931 31.7261L33.0421 31.7598L33.0764 31.7239L33.0147 31.6306ZM34.0573 30.5372L34.119 30.6305L34.2119 30.533L34.079 30.4417L34.0573 30.5372ZM33.488 30.0355C33.5021 30.0452 33.511 30.0579 33.5158 30.0662C33.5206 30.0746 33.5233 30.0822 33.5249 30.0887C33.5265 30.095 33.5279 30.1042 33.5271 30.1151C33.5262 30.1263 33.5224 30.1424 33.511 30.1543L33.3878 29.9677C33.352 30.0051 33.3582 30.0689 33.3669 30.1039C33.3758 30.1397 33.3991 30.1952 33.4446 30.2265L33.488 30.0355ZM33.5105 30.1548L33.7944 29.8643L33.6722 29.6767L33.3883 29.9672L33.5105 30.1548ZM33.755 29.6749L33.1163 29.236L33.0729 29.427L33.7116 29.866L33.755 29.6749ZM33.0335 29.2377L32.7155 29.5631L32.8378 29.7507L33.1557 29.4253L33.0335 29.2377ZM32.755 29.7525L33.3262 30.1451L33.3696 29.954L32.7984 29.5614L32.755 29.7525ZM33.3263 30.1451C33.3191 30.1402 33.3126 30.1332 33.3073 30.1248L33.4238 30.012C33.4087 29.988 33.39 29.968 33.3696 29.954L33.3263 30.1451ZM33.3073 30.1248C33.302 30.1164 33.2981 30.1069 33.296 30.0971L33.4562 30.0913C33.4501 30.0633 33.439 30.036 33.4238 30.012L33.3073 30.1248ZM33.296 30.0971C33.2939 30.0874 33.2936 30.0777 33.2952 30.0691L33.4584 30.1716C33.463 30.1469 33.4622 30.1192 33.4562 30.0913L33.296 30.0971ZM33.2952 30.0691C33.2968 30.0604 33.3002 30.0531 33.3052 30.0478L33.43 30.2327C33.444 30.2174 33.4538 30.1964 33.4584 30.1716L33.2952 30.0691ZM33.3064 30.0465L32.7512 30.6163L32.8736 30.8038L33.4288 30.234L33.3064 30.0465ZM32.892 30.7048L32.363 28.4227L32.2038 28.4332L32.7328 30.7152L32.892 30.7048ZM32.3051 28.3324L31.6626 27.8908L31.6192 28.0819L32.2617 28.5235L32.3051 28.3324ZM31.5797 27.8926L30.4963 29.0037L30.6186 29.1912L31.7021 28.0801L31.5797 27.8926ZM30.5358 29.193L31.1034 29.5831L31.1468 29.392L30.5792 29.0019L30.5358 29.193ZM31.1033 29.5831C31.0969 29.5786 31.0911 29.5724 31.0863 29.5648L31.2031 29.4524C31.1874 29.4274 31.168 29.4067 31.1469 29.3921L31.1033 29.5831ZM31.0863 29.5648C31.0816 29.5572 31.0781 29.5487 31.0762 29.5399L31.2365 29.5347C31.2303 29.5057 31.2188 29.4774 31.2031 29.4524L31.0863 29.5648ZM31.0762 29.5399C31.0743 29.5311 31.0741 29.5224 31.0756 29.5147L31.2386 29.618C31.2435 29.5923 31.2427 29.5637 31.2365 29.5347L31.0762 29.5399ZM31.0756 29.5147C31.077 29.5069 31.0801 29.5003 31.0846 29.4956L31.2089 29.6811C31.2235 29.6653 31.2338 29.6436 31.2386 29.618L31.0756 29.5147ZM31.0856 29.4945L30.6494 29.9411L30.7717 30.1287L31.2079 29.6821L31.0856 29.4945ZM30.6889 30.1304L31.3315 30.572L31.3748 30.381L30.7323 29.9393L30.6889 30.1304ZM31.4143 30.5703L31.9283 30.0441L31.806 29.8565L31.292 30.3827L31.4143 30.5703ZM31.8888 29.8548L31.3161 29.4612L31.2727 29.6522L31.8454 30.0459L31.8888 29.8548ZM31.316 29.4611C31.3226 29.4656 31.3286 29.4721 31.3335 29.4799L31.2163 29.5917C31.2321 29.6168 31.2515 29.6377 31.2728 29.6523L31.316 29.4611ZM31.3335 29.4799C31.3384 29.4877 31.342 29.4966 31.3438 29.5057L31.1831 29.5088C31.1891 29.538 31.2006 29.5665 31.2163 29.5917L31.3335 29.4799ZM31.3438 29.5057C31.3457 29.5147 31.3459 29.5237 31.3442 29.5316L31.1818 29.4254C31.1766 29.4509 31.177 29.4797 31.1831 29.5088L31.3438 29.5057ZM31.3442 29.5316C31.3426 29.5395 31.3393 29.5462 31.3346 29.551L31.2127 29.363C31.1976 29.3783 31.187 29.3998 31.1818 29.4254L31.3442 29.5316ZM31.3347 29.5509L31.9134 28.9611L31.7913 28.7733L31.2126 29.3631L31.3347 29.5509ZM31.7727 28.8722L32.3097 31.2057L32.469 31.1958L31.932 28.8622L31.7727 28.8722ZM32.3677 31.2963L32.9931 31.7261L33.0364 31.5351L32.411 31.1052L32.3677 31.2963ZM33.0764 31.7239L34.119 30.6305L33.9957 30.4439L32.9531 31.5373L33.0764 31.7239ZM34.079 30.4417L33.488 30.0355L33.4446 30.2265L34.0356 30.6327L34.079 30.4417Z" fill="#D28110" mask="url(#path-57-inside-1_0_1)"/>
<path d="M36.0099 31.2655L36.0099 31.2654C35.9643 31.0973 35.8407 30.9336 35.6243 30.7833L34.8158 30.2277L34.5052 30.5443L35.2573 31.0611C35.3523 31.1264 35.4168 31.271 35.3951 31.3903L35.3542 31.3648M36.0099 31.2655L35.1443 32.1626C35.1412 32.1305 35.1332 32.098 35.121 32.0667C35.1088 32.0355 35.0926 32.0061 35.0732 31.9804C35.0538 31.9547 35.0316 31.9332 35.008 31.9169L33.9048 31.1587L34.2172 30.8389L35.1645 31.49C35.1645 31.49 35.1645 31.49 35.1645 31.49C35.1889 31.5068 35.2143 31.5175 35.2393 31.5215C35.2643 31.5256 35.2883 31.5228 35.3099 31.5135C35.3314 31.5042 35.3501 31.4885 35.3647 31.4673C35.3794 31.4461 35.3897 31.4199 35.3951 31.3903L35.3542 31.3648M36.0099 31.2655C36.0557 31.4344 36.0263 31.6216 35.9027 31.8221L35.9026 31.8222C35.817 31.9625 35.7357 32.02 35.6146 32.0285L35.5692 32.0317L35.5899 32.0938C35.6471 32.2654 35.5895 32.3912 35.5442 32.4853C35.4494 32.6818 35.3212 32.7963 35.1713 32.8308C35.0214 32.8654 34.8465 32.8209 34.6552 32.691C34.1165 32.3247 33.9039 32.1794 33.5614 31.944L33.3078 31.7697L33.6171 31.4531L34.9114 32.3426C34.9591 32.3754 35.0099 32.3844 35.0527 32.3677C35.0955 32.3509 35.1267 32.3099 35.1395 32.2534L36.0099 31.2655ZM35.3542 31.3648C35.3501 31.3878 35.3421 31.4082 35.3307 31.4246C35.3193 31.441 35.3049 31.4532 35.2881 31.4605C35.2714 31.4677 35.2528 31.4698 35.2334 31.4667C35.214 31.4636 35.1943 31.4552 35.1753 31.4422L34.4729 30.5773L35.2464 31.1089C35.3214 31.1605 35.3709 31.2736 35.3542 31.3648Z" fill="url(#paint9_linear_0_1)" stroke="#D28110" stroke-width="0.0979592"/>
<path d="M66.7898 31.2242C70.8614 31.146 74.1246 29.1312 74.0784 26.724C74.0322 24.3167 70.694 22.4287 66.6223 22.5069C62.5507 22.5851 59.2875 24.5999 59.3337 27.0071C59.3799 29.4144 62.7181 31.3024 66.7898 31.2242Z" fill="#D28110"/>
<path d="M66.7529 23.7539L74.1451 25.4289L74.059 27.0718C74.059 27.0718 71.4492 29.1598 71.3779 29.2112C71.3066 29.2626 64.5814 30.5133 64.5814 30.5133L59.3814 27.4694L59.1406 25.717L59.9915 25.3554L66.7529 23.7539Z" fill="#D28110"/>
<path d="M64.4976 31.0422C64.4661 31.0397 64.4428 31.0069 64.4455 30.9683L64.5757 29.1365C64.5785 29.0979 64.6064 29.0682 64.6382 29.0704L64.6386 29.0705C64.6702 29.0729 64.6935 29.1059 64.6907 29.1444L64.5606 30.9761C64.5578 31.0148 64.5298 31.0444 64.498 31.0422L64.4976 31.0422Z" fill="#FCD227"/>
<path d="M65.2241 31.1594C65.1925 31.1569 65.1693 31.1239 65.1721 31.0854L65.3023 29.2537C65.3051 29.215 65.3331 29.1853 65.3648 29.1876L65.3653 29.1877C65.3968 29.1901 65.4201 29.223 65.4174 29.2615L65.2871 31.0934C65.2843 31.1319 65.2564 31.1616 65.2246 31.1594H65.2241Z" fill="#FCD227"/>
<path d="M65.8335 31.2024C65.802 31.2 65.7788 31.1671 65.7815 31.1286L65.9116 29.2967C65.9144 29.258 65.9424 29.2284 65.9742 29.2306L65.9746 29.2306C66.0062 29.2331 66.0295 29.266 66.0267 29.3045L65.8966 31.1364C65.8938 31.1751 65.8658 31.2047 65.834 31.2025L65.8335 31.2024Z" fill="#FCD227"/>
<path d="M69.3022 30.8861C69.2707 30.8836 69.2475 30.8506 69.2502 30.8122L69.3804 28.9803C69.3832 28.9416 69.4112 28.9119 69.4429 28.9142L69.4434 28.9142C69.4749 28.9167 69.4982 28.9495 69.4954 28.9881L69.3652 30.8201C69.3625 30.8587 69.3345 30.8883 69.3028 30.8861L69.3022 30.8861Z" fill="#FCD227"/>
<path d="M70.3257 30.5853C70.2942 30.5829 70.2709 30.5499 70.2737 30.5114L70.4039 28.6795C70.4067 28.6408 70.4347 28.6113 70.4664 28.6134L70.4669 28.6135C70.4985 28.6159 70.5218 28.6488 70.5189 28.6874L70.3887 30.5193C70.3859 30.558 70.3579 30.5875 70.3261 30.5854L70.3257 30.5853Z" fill="#FCD227"/>
<path d="M70.9508 30.3117C70.9192 30.3092 70.8959 30.2763 70.8987 30.2377L71.0288 28.406C71.0316 28.3673 71.0596 28.3378 71.0913 28.34L71.0918 28.34C71.1233 28.3425 71.1467 28.3754 71.1439 28.4139L71.0137 30.2456C71.0109 30.2844 70.9829 30.314 70.9512 30.3117L70.9508 30.3117Z" fill="#FCD227"/>
<path d="M72.5367 29.3234C72.5052 29.321 72.4818 29.288 72.4846 29.2496L72.6149 27.4178C72.6177 27.3791 72.6455 27.3496 72.6774 27.3517L72.6779 27.3517C72.7093 27.3541 72.7327 27.3871 72.7299 27.4256L72.5996 29.2574C72.5968 29.2962 72.5689 29.3256 72.5371 29.3234H72.5367Z" fill="#FCD227"/>
<path d="M66.7311 30.1131C70.8744 30.0336 74.1942 27.937 74.1461 25.4303C74.0979 22.9236 70.7001 20.9561 66.5568 21.0356C62.4135 21.1152 59.0937 23.2118 59.1418 25.7184C59.19 28.2251 62.5878 30.1927 66.7311 30.1131Z" fill="#FFB703"/>
<path d="M66.4926 21.6123C63.0517 21.7955 60.3527 23.6437 60.4643 25.7406C60.4686 25.8228 60.4778 25.904 60.4905 25.9845C60.4249 23.9087 63.1075 22.0888 66.5205 21.9072C69.8266 21.7312 72.6142 23.1566 72.9267 25.1284C72.9261 25.1114 72.9259 25.0944 72.925 25.0774C72.8134 22.9806 69.9335 21.4292 66.4926 21.6123Z" fill="#D28110"/>
<path d="M66.5155 21.9053C63.1025 22.0869 60.42 23.9068 60.4856 25.9826C60.798 27.9544 63.5857 29.3797 66.8917 29.2038C70.3047 29.0222 72.9873 27.2022 72.9217 25.1265C72.6092 23.1547 69.8216 21.7293 66.5155 21.9053Z" fill="#FB8500"/>
<path d="M66.6454 24.67L66.6456 24.6697L66.9348 24.1251H65.9365L65.6219 24.7177H66.5325C66.5325 24.7177 66.5325 24.7177 66.5325 24.7177C66.5524 24.7177 66.572 24.7228 66.5893 24.7324C66.6067 24.7421 66.6213 24.7561 66.6318 24.7731C66.6422 24.79 66.6482 24.8093 66.649 24.8292C66.6499 24.8491 66.6457 24.8689 66.6367 24.8866L66.6363 24.8876L66.6363 24.8876L65.9965 26.0954L65.9574 26.1693L65.9121 26.0991L64.3536 23.6857H63.2939L62.097 25.9438H63.0015H63.0015C63.0227 25.9438 63.0435 25.9493 63.062 25.9596C63.0805 25.97 63.0961 25.9849 63.1071 26.003C63.1182 26.0211 63.1245 26.0417 63.1253 26.0629C63.1262 26.0841 63.1216 26.1051 63.112 26.124L63.1116 26.1248L63.1116 26.1248L62.6468 27.0004H63.6519L64.1926 25.9818H63.2795H63.2794V25.9328C63.2666 25.9328 63.2541 25.9296 63.243 25.9233C63.2319 25.917 63.2226 25.908 63.216 25.897C63.2095 25.8861 63.2058 25.8736 63.2055 25.8609C63.2052 25.8481 63.2082 25.8355 63.2142 25.8243L66.6454 24.67ZM66.6454 24.67C66.6263 24.7069 66.6398 24.7454 66.6551 24.768C66.6706 24.7909 66.6999 24.8158 66.7381 24.8158H67.684L66.5415 27.0157H65.5118L63.9236 24.5441L63.8785 24.4738L63.8392 24.5475L63.171 25.8012C63.171 25.8012 63.171 25.8012 63.171 25.8012L66.6454 24.67Z" fill="url(#paint10_linear_0_1)" stroke="#D28110" stroke-width="0.0979592"/>
<path d="M70.9821 23.9662L70.9821 23.9662C70.8505 23.7845 70.6007 23.6837 70.2214 23.6818H68.8046L68.4234 24.397H69.7647C69.9192 24.397 70.0554 24.5162 70.0629 24.6746L70.0139 24.6769M70.9821 23.9662L69.9512 25.8809C69.9365 25.8456 69.9151 25.8134 69.888 25.7864C69.861 25.7593 69.8289 25.7379 69.7935 25.7232C69.7582 25.7086 69.7203 25.701 69.6821 25.701H67.7309L68.1137 24.9802H69.7716C69.7716 24.9802 69.7716 24.9802 69.7716 24.9802C69.8111 24.9802 69.8501 24.9722 69.8864 24.9567C69.9227 24.9411 69.9555 24.9184 69.9827 24.8898C70.0099 24.8612 70.0311 24.8274 70.0449 24.7904C70.0587 24.7534 70.0648 24.714 70.0629 24.6745L70.0139 24.6769M70.9821 23.9662C71.1145 24.1487 71.1321 24.4202 71.014 24.7853L71.014 24.7855C70.932 25.0419 70.827 25.1903 70.643 25.31L70.5961 25.3405L70.6326 25.383C70.7849 25.56 70.7378 25.7807 70.7021 25.9384C70.6258 26.2744 70.4701 26.536 70.2524 26.7141C70.0348 26.8922 69.7519 26.9897 69.4162 26.9916C68.4819 26.9967 68.1129 26.9978 67.518 26.9978H67.0424L67.4217 26.2836H69.6821C69.7593 26.2836 69.8334 26.2529 69.888 26.1983C69.9426 26.1437 69.9733 26.0696 69.9733 25.9924L70.9821 23.9662ZM70.0139 24.6769C70.0155 24.7097 70.0104 24.7425 69.999 24.7733C69.9875 24.8041 69.9699 24.8322 69.9473 24.856C69.9246 24.8798 69.8973 24.8987 69.8671 24.9116C69.8369 24.9246 69.8044 24.9312 69.7716 24.9312L68.3973 24.446H69.7647C69.895 24.446 70.0078 24.5465 70.0139 24.6769Z" fill="url(#paint11_linear_0_1)" stroke="#D28110" stroke-width="0.0979592"/>
<defs>
<linearGradient id="paint0_linear_0_1" x1="43" y1="13" x2="43" y2="55.5" gradientUnits="userSpaceOnUse">
<stop stop-color="#FFBE35"/>
<stop offset="1" stop-color="#FFCD63" stop-opacity="0"/>
</linearGradient>
<linearGradient id="paint1_linear_0_1" x1="84.3834" y1="29.8437" x2="-1.75889" y2="42.0298" gradientUnits="userSpaceOnUse">
<stop stop-color="#FFCD63"/>
<stop offset="1" stop-color="#D2981B"/>
</linearGradient>
<linearGradient id="paint2_linear_0_1" x1="56.8318" y1="6.928" x2="58.382" y2="10.0547" gradientUnits="userSpaceOnUse">
<stop stop-color="#FFF0B3"/>
<stop offset="1" stop-color="#FFC60C"/>
</linearGradient>
<linearGradient id="paint3_linear_0_1" x1="60.8861" y1="4.90931" x2="62.4299" y2="8.02319" gradientUnits="userSpaceOnUse">
<stop stop-color="#FFF0B3"/>
<stop offset="1" stop-color="#FFC60C"/>
</linearGradient>
<linearGradient id="paint4_linear_0_1" x1="50.7955" y1="32.5924" x2="49.3688" y2="34.6684" gradientUnits="userSpaceOnUse">
<stop stop-color="#FFF0B3"/>
<stop offset="1" stop-color="#FFC60C"/>
</linearGradient>
<linearGradient id="paint5_linear_0_1" x1="53.5032" y1="34.4521" x2="52.0823" y2="36.5195" gradientUnits="userSpaceOnUse">
<stop stop-color="#FFF0B3"/>
<stop offset="1" stop-color="#FFC60C"/>
</linearGradient>
<linearGradient id="paint6_linear_0_1" x1="41.042" y1="16.4245" x2="42.3511" y2="18.786" gradientUnits="userSpaceOnUse">
<stop stop-color="#FFF0B3"/>
<stop offset="1" stop-color="#FFC60C"/>
</linearGradient>
<linearGradient id="paint7_linear_0_1" x1="43.9389" y1="14.8105" x2="45.2426" y2="17.1624" gradientUnits="userSpaceOnUse">
<stop stop-color="#FFF0B3"/>
<stop offset="1" stop-color="#FFC60C"/>
</linearGradient>
<linearGradient id="paint8_linear_0_1" x1="32.577" y1="28.6297" x2="31.3166" y2="30.4635" gradientUnits="userSpaceOnUse">
<stop stop-color="#FFF0B3"/>
<stop offset="1" stop-color="#FFC60C"/>
</linearGradient>
<linearGradient id="paint9_linear_0_1" x1="34.9615" y1="30.2726" x2="33.7063" y2="32.0989" gradientUnits="userSpaceOnUse">
<stop stop-color="#FFF0B3"/>
<stop offset="1" stop-color="#FFC60C"/>
</linearGradient>
<linearGradient id="paint10_linear_0_1" x1="64.8901" y1="23.6367" x2="64.8901" y2="27.0647" gradientUnits="userSpaceOnUse">
<stop stop-color="#FFF0B3"/>
<stop offset="1" stop-color="#FFC60C"/>
</linearGradient>
<linearGradient id="paint11_linear_0_1" x1="69.0514" y1="23.6328" x2="69.0514" y2="27.0467" gradientUnits="userSpaceOnUse">
<stop stop-color="#FFF0B3"/>
<stop offset="1" stop-color="#FFC60C"/>
</linearGradient>
</defs>
</svg>
