<svg width="20" height="21" viewBox="0 0 20 21" fill="none" xmlns="http://www.w3.org/2000/svg">
<path d="M2.5 18H17.5" stroke="#515158" stroke-width="1.25" stroke-linecap="round" stroke-linejoin="round"/>
<path d="M7.5 18V14.6667C7.5 14.2246 7.6756 13.8007 7.98816 13.4882C8.30072 13.1756 8.72464 13 9.16667 13H10.8333C11.2754 13 11.6993 13.1756 12.0118 13.4882C12.3244 13.8007 12.5 14.2246 12.5 14.6667V18" stroke="#515158" stroke-width="1.25" stroke-linecap="round" stroke-linejoin="round"/>
<path d="M4.16602 18.0013V9.54297" stroke="#515158" stroke-width="1.25" stroke-linecap="round" stroke-linejoin="round"/>
<path d="M15.834 18.0013V9.54297" stroke="#515158" stroke-width="1.25" stroke-linecap="round" stroke-linejoin="round"/>
<path d="M12.5 7.16732C12.5 7.83036 12.7634 8.46624 13.2322 8.93509C13.7011 9.40393 14.337 9.66732 15 9.66732C15.663 9.66732 16.2989 9.40393 16.7678 8.93509C17.2366 8.46624 17.5 7.83036 17.5 7.16732V6.33398" stroke="#515158" stroke-width="1.25" stroke-linecap="round" stroke-linejoin="round"/>
<path d="M7.5 7.16732C7.5 7.83036 7.76339 8.46624 8.23223 8.93509C8.70107 9.40393 9.33696 9.66732 10 9.66732C10.663 9.66732 11.2989 9.40393 11.7678 8.93509C12.2366 8.46624 12.5 7.83036 12.5 7.16732V6.33398" stroke="#515158" stroke-width="1.25" stroke-linecap="round" stroke-linejoin="round"/>
<path d="M2.5 6.33398V7.16732C2.5 7.83036 2.76339 8.46624 3.23223 8.93509C3.70107 9.40393 4.33696 9.66732 5 9.66732C5.66304 9.66732 6.29893 9.40393 6.76777 8.93509C7.23661 8.46624 7.5 7.83036 7.5 7.16732V6.33398" stroke="#515158" stroke-width="1.25" stroke-linecap="round" stroke-linejoin="round"/>
<path d="M17.5 6.33398H2.5" stroke="#515158" stroke-width="1.25" stroke-linecap="round" stroke-linejoin="round"/>
<path d="M17.5 6.33333L15.8333 3H4.16667L2.5 6.33333" stroke="#515158" stroke-width="1.25" stroke-linecap="round" stroke-linejoin="round"/>
</svg>
