<svg width="25" height="24" viewBox="0 0 25 24" fill="none" xmlns="http://www.w3.org/2000/svg">
<path d="M6.4375 21C6.96793 21 7.47664 20.7893 7.85171 20.4142C8.22679 20.0391 8.4375 19.5304 8.4375 19C8.4375 18.4696 8.22679 17.9609 7.85171 17.5858C7.47664 17.2107 6.96793 17 6.4375 17C5.90707 17 5.39836 17.2107 5.02329 17.5858C4.64821 17.9609 4.4375 18.4696 4.4375 19C4.4375 19.5304 4.64821 20.0391 5.02329 20.4142C5.39836 20.7893 5.90707 21 6.4375 21Z" stroke="#38383D" stroke-width="1.5" stroke-linecap="square" stroke-linejoin="round"/>
<path d="M17.4375 21C17.9679 21 18.4766 20.7893 18.8517 20.4142C19.2268 20.0391 19.4375 19.5304 19.4375 19C19.4375 18.4696 19.2268 17.9609 18.8517 17.5858C18.4766 17.2107 17.9679 17 17.4375 17C16.9071 17 16.3984 17.2107 16.0233 17.5858C15.6482 17.9609 15.4375 18.4696 15.4375 19C15.4375 19.5304 15.6482 20.0391 16.0233 20.4142C16.3984 20.7893 16.9071 21 17.4375 21Z" stroke="#38383D" stroke-width="1.5" stroke-linecap="square" stroke-linejoin="round"/>
<path d="M17.4375 17H6.4375V3H4.4375" stroke="#38383D" stroke-width="1.5" stroke-linecap="round" stroke-linejoin="round"/>
<path d="M6.4375 5L20.4375 6L19.4375 13H6.4375" stroke="#38383D" stroke-width="1.5" stroke-linecap="round" stroke-linejoin="round"/>
</svg>
