<svg width="24" height="24" viewBox="0 0 24 24" fill="none" xmlns="http://www.w3.org/2000/svg">
<g clip-path="url(#clip0_753_61175)">
<path fill-rule="evenodd" clip-rule="evenodd" d="M22.5069 13.5084C22.8759 13.0278 23.25 12.5407 23.25 12C23.25 11.4593 22.8759 10.9722 22.5069 10.4916C22.2207 10.119 21.9376 9.7503 21.8344 9.36375C21.7261 8.95732 21.7876 8.47987 21.8489 8.00451C21.9256 7.40968 22.0018 6.81813 21.7444 6.37313C21.4815 5.91861 20.9238 5.68755 20.3677 5.45711C19.9281 5.27498 19.4895 5.09324 19.1981 4.80188C18.9068 4.51051 18.725 4.07189 18.5429 3.63231C18.3125 3.07616 18.0814 2.51849 17.6269 2.25563C17.1819 1.99821 16.5903 2.07445 15.9955 2.1511C15.5201 2.21236 15.0427 2.27389 14.6362 2.16563C14.2497 2.06244 13.881 1.77932 13.5084 1.49314C13.0278 1.12411 12.5407 0.75 12 0.75C11.4593 0.75 10.9722 1.12411 10.4916 1.49314C10.119 1.77932 9.7503 2.06244 9.36375 2.16563C8.95732 2.27389 8.47987 2.21236 8.00451 2.1511C7.40968 2.07445 6.81813 1.99821 6.37313 2.25563C5.91861 2.51849 5.68755 3.07616 5.45711 3.63231C5.27498 4.07189 5.09324 4.51051 4.80188 4.80188C4.51051 5.09324 4.07189 5.27498 3.63231 5.45711C3.07616 5.68755 2.51849 5.91861 2.25563 6.37313C1.99821 6.81813 2.07445 7.40968 2.1511 8.00451C2.21236 8.47987 2.27389 8.95732 2.16563 9.36375C2.06244 9.7503 1.77932 10.119 1.49314 10.4916C1.12411 10.9722 0.75 11.4593 0.75 12C0.75 12.5407 1.12411 13.0278 1.49314 13.5084C1.77932 13.881 2.06244 14.2497 2.16563 14.6362C2.27389 15.0427 2.21236 15.5201 2.1511 15.9955C2.07445 16.5903 1.99821 17.1819 2.25563 17.6269C2.51849 18.0814 3.07616 18.3125 3.63231 18.5429C4.07189 18.725 4.51051 18.9068 4.80188 19.1981C5.09324 19.4895 5.27498 19.9281 5.45711 20.3677C5.68755 20.9238 5.91861 21.4815 6.37313 21.7444C6.81813 22.0018 7.40968 21.9256 8.00451 21.8489C8.47987 21.7876 8.95732 21.7261 9.36375 21.8344C9.7503 21.9376 10.119 22.2207 10.4916 22.5069C10.9722 22.8759 11.4593 23.25 12 23.25C12.5407 23.25 13.0278 22.8759 13.5084 22.5069C13.881 22.2207 14.2497 21.9376 14.6362 21.8344C15.0427 21.7261 15.5201 21.7876 15.9955 21.8489C16.5903 21.9256 17.1819 22.0018 17.6269 21.7444C18.0814 21.4815 18.3125 20.9238 18.5429 20.3677C18.725 19.9281 18.9068 19.4895 19.1981 19.1981C19.4895 18.9068 19.9281 18.725 20.3677 18.5429C20.9238 18.3125 21.4815 18.0814 21.7444 17.6269C22.0018 17.1819 21.9256 16.5903 21.8489 15.9955C21.7876 15.5201 21.7261 15.0427 21.8344 14.6362C21.9376 14.2497 22.2207 13.881 22.5069 13.5084ZM10.9687 12.93L15.2512 8.6475C15.7331 8.16563 16.5131 8.16563 16.995 8.6475C17.4769 9.12938 17.4769 9.91125 16.995 10.3931L11.8162 15.5719C11.3475 16.0406 10.5862 16.0406 10.1175 15.5719L7.0031 12.4575C6.52122 11.9756 6.52122 11.1938 7.0031 10.7119C7.48497 10.23 8.26685 10.23 8.74872 10.7119L10.9687 12.93Z" fill="url(#paint0_linear_753_61175)"/>
</g>
<defs>
<linearGradient id="paint0_linear_753_61175" x1="9.86057" y1="24.5616" x2="31.4511" y2="-10.9286" gradientUnits="userSpaceOnUse">
<stop offset="0.381435" stop-color="#8B7D75"/>
<stop offset="0.84052" stop-color="#DAC392"/>
</linearGradient>
<clipPath id="clip0_753_61175">
<rect width="24" height="24" fill="white"/>
</clipPath>
</defs>
</svg>
