<svg width="20" height="21" viewBox="0 0 20 21" fill="none" xmlns="http://www.w3.org/2000/svg">
<path d="M10 18C10.9849 18 11.9602 17.806 12.8701 17.4291C13.7801 17.0522 14.6069 16.4997 15.3033 15.8033C15.9997 15.1069 16.5522 14.2801 16.9291 13.3701C17.306 12.4602 17.5 11.4849 17.5 10.5C17.5 9.51509 17.306 8.53982 16.9291 7.62987C16.5522 6.71993 15.9997 5.89314 15.3033 5.1967C14.6069 4.50026 13.7801 3.94781 12.8701 3.5709C11.9602 3.19399 10.9849 3 10 3C8.01088 3 6.10322 3.79018 4.6967 5.1967C3.29018 6.60322 2.5 8.51088 2.5 10.5C2.5 12.4891 3.29018 14.3968 4.6967 15.8033C6.10322 17.2098 8.01088 18 10 18Z" fill="#079449"/>
<path d="M7.5 10.5007L9.16667 12.1673L12.5 8.83398" stroke="white" stroke-width="1.25" stroke-linecap="round" stroke-linejoin="round"/>
</svg>
