<svg width="33" height="33" viewBox="0 0 33 33" fill="none" xmlns="http://www.w3.org/2000/svg">
<g clip-path="url(#clip0_689_45340)">
<path d="M31.0063 9.72351C30.9714 8.67436 30.097 7.79999 29.0479 7.835H26.6348V15.9486L26.8796 16.7181V21.2995H27.2992C28.5582 21.2995 29.7823 21.4743 30.9713 21.859H31.0063V9.75845L31.0063 9.72351Z" fill="#2BA037"/>
<path d="M22.5434 22.0698L22.7182 22.1398V22.3146C22.7182 22.3846 22.7182 22.4545 22.7532 22.4895H22.7182V24.5528H22.4734L20.8647 24.4829H20.7598C20.8997 24.0282 21.0046 23.5036 21.0046 23.014C21.0046 22.6643 20.9696 22.3145 20.8997 21.9648H21.0396L22.5434 22.0698Z" fill="#F4B844"/>
<path d="M19.4998 19.5158C20.479 19.7606 21.4582 19.8655 22.4725 19.8655C24.9555 19.8655 27.0888 19.201 27.2287 18.4316V20.9497C24.8506 20.9846 22.8921 21.5442 22.6473 22.2437L22.4725 22.1737L21.1086 22.1038H20.9686C20.7588 21.1245 20.2343 20.2153 19.4648 19.5507L19.4998 19.5158Z" fill="#E5A739"/>
<path d="M4.04304 19.168H13.3457L13.4506 19.6576C12.4714 20.4969 11.9118 21.7559 11.9118 23.0499C11.9118 23.2947 11.9468 23.5046 11.9818 23.7494H5.96649C4.91734 23.7494 4.04297 22.8751 4.04297 21.8259L4.04304 19.168Z" fill="#2BA037"/>
<path d="M25.0599 3.56836H1.97799C0.893833 3.56836 0.0544739 4.40765 0.0195312 5.49181V17.5574V17.5923C0.0544739 18.6415 0.928842 19.5158 1.97799 19.4808H13.3092L13.4141 19.6207C14.2534 18.8513 15.3376 18.4317 16.4567 18.4317C16.9113 18.4317 17.366 18.5016 17.8206 18.6415L26.9834 15.9486V7.83497V5.49181C26.9834 4.44266 26.1091 3.56836 25.0599 3.56836Z" fill="#3BB54A"/>
<path d="M13.5205 6.50586C16.3183 6.50586 18.5565 8.74413 18.5565 11.5419C18.5565 14.3398 16.3183 16.578 13.5205 16.578C10.7226 16.578 8.48438 14.3398 8.48438 11.5419C8.48444 8.74413 10.7226 6.50586 13.5205 6.50586Z" fill="#2BA037"/>
<path d="M3.55321 8.36032C4.3258 8.36032 4.95212 7.73401 4.95212 6.96141C4.95212 6.18881 4.3258 5.5625 3.55321 5.5625C2.78061 5.5625 2.1543 6.18881 2.1543 6.96141C2.1543 7.73401 2.78061 8.36032 3.55321 8.36032Z" fill="#2BA037"/>
<path d="M32.0213 24.7285V27.0367C32.0213 27.8411 29.9229 28.4706 27.335 28.4706C24.747 28.4706 22.6836 27.8411 22.6836 27.0367V24.9384C23.0683 25.6378 24.9918 26.1624 27.3 26.1624C29.6082 26.1624 32.0213 25.4979 32.0213 24.7285Z" fill="#E5A739"/>
<path d="M32.0213 22.4902V24.7285C32.0213 25.4979 29.853 26.1624 27.3 26.1624C24.7469 26.1624 23.0683 25.6377 22.6836 24.9383V22.5951C22.9634 23.2946 24.9219 23.8541 27.3 23.8541C29.6781 23.8541 31.8465 23.2596 32.0213 22.4902Z" fill="#F4B844"/>
<path d="M32.0211 22.49C31.8462 23.2594 29.7828 23.8539 27.2998 23.8539C24.8167 23.8539 22.9631 23.2943 22.6834 22.5949C22.6484 22.5249 22.6484 22.49 22.6484 22.42V22.2452C22.8932 21.5457 24.8517 20.9862 27.2299 20.9512H27.2998C28.5588 20.9512 29.7829 21.126 30.9719 21.5107C31.6364 21.7555 32.0211 22.0703 32.0211 22.42V22.49Z" fill="#FEDB41"/>
<path d="M22.6827 24.9367V26.7902H22.4379C21.4936 26.7902 20.5494 26.6853 19.6051 26.4755H19.5352C20.1647 25.9159 20.6193 25.2165 20.8292 24.4121H20.9341L22.4379 24.4821H22.6827V24.9367Z" fill="#E5A739"/>
<path d="M27.2301 16.3702V18.4335C27.0902 19.2029 24.9569 19.8674 22.4738 19.8674C21.4596 19.8674 20.4803 19.7625 19.5011 19.5177H19.4662C19.0115 19.133 18.452 18.8182 17.8574 18.6434V16.1953C17.9973 16.9297 20.0257 17.5243 22.5088 17.5243C24.9919 17.5243 26.8104 17.0346 27.2301 16.3702Z" fill="#F4B844"/>
<path d="M27.2317 16.405C26.812 17.0694 24.7486 17.5591 22.4754 17.5591C20.2022 17.5591 17.9639 16.9646 17.824 16.2302C17.7891 16.1952 17.7891 16.1602 17.7891 16.1253C17.7891 15.3559 19.8874 14.6914 22.4754 14.6914C24.4689 14.6914 26.2874 15.0761 26.9869 15.6357C27.1617 15.7406 27.3016 15.9155 27.3016 16.1253C27.3016 16.2302 27.3016 16.335 27.2317 16.405Z" fill="#FEDB41"/>
<path d="M21.1459 22.1054C21.1808 22.4202 21.2158 22.7349 21.2158 23.0497C21.2158 23.5043 21.1459 23.959 21.041 24.4136C20.7962 25.2179 20.3415 25.9524 19.6771 26.5469C17.7536 28.2955 14.746 28.1556 12.9973 26.2321C12.3678 25.5327 11.9481 24.6933 11.8082 23.7841C11.7733 23.5393 11.7383 23.2945 11.7383 23.0846C11.7383 21.7557 12.2978 20.4616 13.312 19.5524C14.571 18.4333 16.2847 18.0486 17.8935 18.5731C18.523 18.748 19.0825 19.0627 19.5722 19.4824C20.3765 20.147 20.936 21.0563 21.1459 22.1054Z" fill="#FEDB41"/>
<path d="M16.4936 20.7051C17.7876 20.7051 18.8367 21.7542 18.8367 23.0482C18.8367 24.3423 17.7876 25.3914 16.4936 25.3914C15.1995 25.3914 14.1504 24.3423 14.1504 23.0482C14.1503 21.7542 15.1995 20.7051 16.4936 20.7051Z" fill="#F4B844"/>
</g>
<defs>
<clipPath id="clip0_689_45340">
<rect width="32" height="32" fill="white" transform="translate(0.0195312 0.0195312)"/>
</clipPath>
</defs>
</svg>
