<svg width="20" height="20" viewBox="0 0 20 20" fill="none" xmlns="http://www.w3.org/2000/svg">
<g clip-path="url(#clip0_725_49800)">
<path d="M9.99743 18.2931C14.5704 18.2931 18.3005 14.5677 18.3005 9.99959C18.3005 5.43145 14.5704 1.70703 9.99743 1.70703C5.42451 1.70703 1.69336 5.43246 1.69336 9.99959C1.69336 14.5667 5.42351 18.2931 9.99743 18.2931Z" fill="#FB8500"/>
<path d="M10.2582 9.31088L10.2584 9.31052L10.6191 8.6312H9.3785L8.98375 9.37469H10.1111C10.1111 9.37469 10.1111 9.37469 10.1111 9.37469C10.1335 9.37469 10.1556 9.38041 10.1751 9.39133C10.1947 9.40225 10.2112 9.418 10.223 9.43708C10.2347 9.45616 10.2414 9.47794 10.2424 9.50034C10.2434 9.52274 10.2386 9.54502 10.2285 9.56505L10.2281 9.56599L10.2281 9.56599L9.44854 11.0377L9.40943 11.1116L9.36411 11.0414L7.46199 8.09585H6.15848L4.68882 10.8687H5.80863H5.80867C5.83267 10.8687 5.85627 10.8748 5.87721 10.8866C5.89815 10.8983 5.91573 10.9152 5.92828 10.9357C5.94082 10.9562 5.94791 10.9795 5.94887 11.0035C5.94982 11.0275 5.94461 11.0513 5.93373 11.0727L5.93334 11.0735L5.93333 11.0735L5.3587 12.1561H6.6076L7.27781 10.8936H6.14735H6.14727V10.8446C6.13173 10.8446 6.11645 10.8406 6.10292 10.833C6.08939 10.8253 6.07807 10.8143 6.07007 10.801C6.06208 10.7877 6.05767 10.7725 6.05729 10.757C6.0569 10.7414 6.06056 10.7261 6.06789 10.7124L10.2582 9.31088ZM10.2582 9.31088C10.2374 9.35088 10.2518 9.39344 10.2694 9.41928C10.2871 9.44544 10.3199 9.47281 10.3616 9.47281H11.5318L10.1285 12.1748H8.86156L6.92323 9.15826L6.87808 9.08799L6.8388 9.1617L6.0247 10.6892C6.02469 10.6893 6.02468 10.6893 6.02466 10.6893L10.2582 9.31088Z" fill="url(#paint0_linear_725_49800)" stroke="#D28110" stroke-width="0.0979592"/>
<path d="M15.5392 8.44096L15.5392 8.44094C15.3759 8.21558 15.0673 8.09236 14.6036 8.09H12.8709L12.395 8.98288H14.0471C14.2301 8.98288 14.391 9.12396 14.3998 9.31085M15.5392 8.44096L14.3998 9.31089C14.3998 9.31088 14.3998 9.31087 14.3998 9.31085M15.5392 8.44096C15.7034 8.66736 15.724 9.00236 15.5796 9.44862L15.5795 9.44879C15.4791 9.76298 15.3499 9.94607 15.1232 10.0936L15.0762 10.1241L15.1128 10.1666C15.3023 10.3868 15.2431 10.6612 15.1998 10.8527M15.5392 8.44096L13.6226 12.1443M14.3998 9.31085C14.402 9.35745 14.3948 9.40401 14.3785 9.44773C14.3622 9.49145 14.3372 9.53141 14.305 9.56519C14.2729 9.59897 14.2341 9.62586 14.1913 9.64423C14.1484 9.66261 14.1022 9.67208 14.0555 9.67207V9.62309M14.3998 9.31085L14.0555 9.62309M14.0555 9.62309L14.0555 9.67207H12.029M14.0555 9.62309H11.9996M12.029 9.67207L12.0428 9.64606L11.9996 9.62309M12.029 9.67207H11.9996V9.62309M12.029 9.67207L11.5512 10.5718M11.9996 9.62309L11.4958 10.5718H11.5512M11.5512 10.5718L11.5252 10.6208M11.5512 10.5718H13.9465C13.9917 10.5718 14.0364 10.5807 14.0782 10.598C14.12 10.6153 14.1579 10.6407 14.1899 10.6726C14.2218 10.7046 14.2472 10.7426 14.2645 10.7843L11.5252 10.6208M11.5252 10.6208H13.9465C13.9852 10.6208 14.0236 10.6284 14.0595 10.6432C14.0953 10.6581 14.1278 10.6798 14.1552 10.7073C14.1826 10.7347 14.2044 10.7672 14.2192 10.8031C14.234 10.8389 14.2416 10.8773 14.2416 10.9161M11.5252 10.6208L14.6038 8.04102C15.0742 8.0434 15.4022 8.16834 15.5789 8.4122C15.7565 8.65718 15.7726 9.01122 15.6262 9.46369C15.5292 9.76726 15.4038 9.95656 15.1907 10.107C15.1895 10.1055 15.1883 10.1041 15.187 10.1027L15.1499 10.1346L15.1766 10.1757C15.1779 10.1749 15.1792 10.174 15.1804 10.1732C15.3505 10.4072 15.2879 10.6853 15.2475 10.8635M14.2416 10.9161C14.2416 10.9943 14.2105 11.0694 14.1552 11.1248C14.0998 11.1801 14.0248 11.2112 13.9465 11.2112H11.1564M14.2416 10.9161L14.2906 10.9161C14.2906 11.0073 14.2543 11.0949 14.1898 11.1594C14.1253 11.2239 14.0377 11.2602 13.9465 11.2602H11.1858M14.2416 10.9161H14.2906L13.6226 12.1443M11.1564 11.2112L10.6569 12.1518H10.7123M11.1564 11.2112V11.2602H11.1858M11.1564 11.2112L11.1996 11.2342L11.1858 11.2602M10.7123 12.1518L10.6863 12.2008H11.3096C12.0346 12.2008 12.4844 12.1995 13.6229 12.1933M10.7123 12.1518H11.3096C12.0345 12.1518 12.4842 12.1505 13.6226 12.1443M10.7123 12.1518L11.1858 11.2602M13.6229 12.1933C14.4644 12.1884 15.0567 11.7038 15.2475 10.8635M13.6229 12.1933L13.6226 12.1443C13.6226 12.1443 13.6226 12.1443 13.6226 12.1443M13.6229 12.1933L13.6226 12.1443M15.2475 10.8635L15.1998 10.8527M15.2475 10.8635L15.1998 10.8527C15.1998 10.8527 15.1998 10.8527 15.1998 10.8527M15.1998 10.8527C15.1064 11.264 14.9155 11.585 14.6482 11.8038C14.3809 12.0225 14.0338 12.1419 13.6226 12.1443" fill="url(#paint1_linear_725_49800)" stroke="#D28110" stroke-width="0.0979592"/>
<path d="M9.99743 1.70703C5.42351 1.70703 1.69336 5.43246 1.69336 9.99959C1.69336 14.5667 5.42351 18.2931 9.99743 18.2931C14.5714 18.2931 18.3005 14.5677 18.3005 9.99959C18.3005 5.43145 14.5703 1.70703 9.99743 1.70703ZM9.99743 16.3308C6.50565 16.3308 3.65816 13.4869 3.65816 9.99955C3.65816 6.51219 6.50565 3.66831 9.99743 3.66831C13.4892 3.66831 16.3367 6.51319 16.3367 9.99955C16.3367 13.4859 13.4882 16.3308 9.99743 16.3308Z" fill="#FFB703"/>
<path d="M4.13086 4.14021L5.51883 5.52641C6.66717 4.37951 8.25187 3.66835 9.9977 3.66835V1.70703C7.71097 1.70703 5.63511 2.6382 4.13086 4.14021Z" fill="#FCD227"/>
<path d="M15.8649 15.8588L14.4769 14.4727C13.3284 15.6197 11.7435 16.3307 9.99805 16.3307V18.293C12.2847 18.293 14.3607 17.3615 15.8649 15.8589L15.8649 15.8588Z" fill="#FCD227"/>
<path d="M15.8623 4.14062L14.4746 5.52658C15.6231 6.67358 16.3352 8.25638 16.3352 9.99956H18.299C18.299 7.71601 17.3665 5.64287 15.8623 4.14062Z" fill="#FCD227"/>
<path d="M4.13016 15.8594L5.51836 14.4729C4.37002 13.326 3.65813 11.7432 3.65813 9.99951H1.69336C1.69336 12.2836 2.6259 14.357 4.13016 15.8594Z" fill="#FCD227"/>
</g>
<defs>
<linearGradient id="paint0_linear_725_49800" x1="8.1099" y1="8.04687" x2="8.1099" y2="12.2238" gradientUnits="userSpaceOnUse">
<stop stop-color="#FFF0B3"/>
<stop offset="1" stop-color="#FFC60C"/>
</linearGradient>
<linearGradient id="paint1_linear_725_49800" x1="13.178" y1="8.04102" x2="13.178" y2="12.2008" gradientUnits="userSpaceOnUse">
<stop stop-color="#FFF0B3"/>
<stop offset="1" stop-color="#FFC60C"/>
</linearGradient>
<clipPath id="clip0_725_49800">
<rect width="17.1429" height="17.1429" fill="white" transform="translate(1.42773 1.42871)"/>
</clipPath>
</defs>
</svg>
