<svg width="33" height="32" viewBox="0 0 33 32" fill="none" xmlns="http://www.w3.org/2000/svg">
<g clip-path="url(#clip0_2715_11453)">
<path d="M2.96802 12.0893V12.0949C2.95025 12.1489 2.94234 12.2016 2.93937 12.2499C2.93699 12.2613 2.93477 12.2765 2.93477 12.2944V27.9017C2.93477 28.9279 3.76937 29.7625 4.79552 29.7625H28.0775C29.1037 29.7625 29.9383 28.9279 29.9383 27.9017V12.2948C29.9383 12.2766 29.936 12.2613 29.9336 12.2499C29.9307 12.2017 29.9228 12.1495 29.9055 12.0959V11.9299H29.8378L26.3686 3.62782L26.3686 3.62781L26.3669 3.62408C25.9946 2.78173 25.1599 2.2375 24.2389 2.2375H8.63414C7.71274 2.2375 6.87783 2.78209 6.50257 3.63156L6.50253 3.63154L6.50098 3.63526L2.98348 12.0523L2.96802 12.0893ZM2.94603 12.2249L2.94548 12.2267C2.94595 12.2251 2.94635 12.2239 2.94603 12.2249ZM22.0884 5.99956H10.785V5.357H22.0881L22.0884 5.99956ZM22.0881 5.33288V5.33298V5.33288ZM24.5986 7.89671V7.22331C24.5986 6.54842 24.05 6 23.3748 6H23.3346V5.33331C23.3346 4.65848 22.7862 4.11 22.1113 4.11H10.7604C10.0861 4.11 9.53708 4.65843 9.53708 5.33331V6H9.49689C8.82217 6 8.27314 6.54837 8.27314 7.22331V7.89672C7.65858 7.96122 7.17808 8.48237 7.17808 9.11375V9.7815C6.52703 9.80842 6.00558 10.346 6.00558 11.0037V11.6704H4.49561L7.64844 4.12609C7.82112 3.73673 8.20819 3.48494 8.63458 3.48494H24.2389C24.6659 3.48494 25.0522 3.7373 25.2216 4.11829L28.3774 11.6704H26.8661V11.0037C26.8661 10.346 26.3451 9.80841 25.6936 9.78149V9.11375C25.6936 8.4824 25.2135 7.96118 24.5986 7.89671ZM10.1615 7.24744H23.352V7.89H9.52145V7.24744H10.1615ZM8.89795 9.13787H24.4466V9.78044H8.42639V9.13787H8.89708H8.89795ZM7.80333 11.0283H25.6187V11.6709H7.25433V11.0283H7.80245H7.80333ZM28.6904 27.9017C28.6904 28.2397 28.4155 28.5146 28.0775 28.5146H4.79552C4.45754 28.5146 4.18264 28.2397 4.18264 27.9017V12.9183H28.6904V27.9017Z" fill="#64646D" stroke="#515158" stroke-width="0.4"/>
<path d="M21.683 20.9038V20.9304C21.6689 21.3554 21.3183 21.6974 20.8899 21.6974H11.985C11.5473 21.6974 11.1914 21.3412 11.1914 20.9038V20.7004C11.1914 20.2631 11.5477 19.9068 11.985 19.9068H20.8894C21.3271 19.9068 21.683 20.263 21.683 20.7004V20.9038ZM20.8899 18.6594H11.985C10.8591 18.6594 9.94355 19.5749 9.94355 20.7004V20.9038C9.94355 22.0298 10.8592 22.9448 11.985 22.9448H20.8894C22.0153 22.9448 22.9309 22.0293 22.9309 20.9038V20.7004C22.9309 19.5745 22.0158 18.6594 20.8899 18.6594Z" fill="#64646D" stroke="#64646D" stroke-width="0.4"/>
</g>
<defs>
<clipPath id="clip0_2715_11453">
<rect width="28" height="28" fill="white" transform="translate(2.4375 2)"/>
</clipPath>
</defs>
</svg>
