<svg width="33" height="32" viewBox="0 0 33 32" fill="none" xmlns="http://www.w3.org/2000/svg">
    <rect x="0.5" width="32" height="32" rx="16" fill="url(#paint0_linear_3011_141454)" />
    <path d="M17.3126 20.7965L21.5626 22.0705L17.3126 20.7965Z" fill="url(#paint1_linear_3011_141454)" />
    <path d="M17.3126 20.7965L21.5626 22.0705M10.4316 10.9385L11.7066 15.1885" stroke="#0B74E5" stroke-width="1.5"
        stroke-linecap="round" stroke-linejoin="round" />
    <path d="M17.3126 20.7965L21.5626 22.0705M10.4316 10.9385L11.7066 15.1885" stroke="url(#paint2_linear_3011_141454)"
        stroke-width="1.5" stroke-linecap="round" stroke-linejoin="round" />
    <path d="M16.1826 16.3137L21.9416 10.5537L16.1826 16.3137Z" fill="url(#paint3_linear_3011_141454)" />
    <path d="M16.1826 16.3137L21.9416 10.5537" stroke="#0B74E5" stroke-width="1.5" stroke-linecap="round"
        stroke-linejoin="round" />
    <path d="M16.1826 16.3137L21.9416 10.5537" stroke="url(#paint4_linear_3011_141454)" stroke-width="1.5"
        stroke-linecap="round" stroke-linejoin="round" />
    <path
        d="M10 11C10.197 11 10.392 10.9612 10.574 10.8858C10.756 10.8104 10.9214 10.6999 11.0607 10.5607C11.1999 10.4214 11.3104 10.256 11.3858 10.074C11.4612 9.89204 11.5 9.69698 11.5 9.5C11.5 9.30302 11.4612 9.10796 11.3858 8.92597C11.3104 8.74399 11.1999 8.57863 11.0607 8.43934C10.9214 8.30005 10.756 8.18956 10.574 8.11418C10.392 8.0388 10.197 8 10 8C9.60218 8 9.22064 8.15804 8.93934 8.43934C8.65804 8.72064 8.5 9.10218 8.5 9.5C8.5 9.89782 8.65804 10.2794 8.93934 10.5607C9.22064 10.842 9.60218 11 10 11Z"
        fill="url(#paint5_linear_3011_141454)" />
    <path
        d="M10 11C10.197 11 10.392 10.9612 10.574 10.8858C10.756 10.8104 10.9214 10.6999 11.0607 10.5607C11.1999 10.4214 11.3104 10.256 11.3858 10.074C11.4612 9.89204 11.5 9.69698 11.5 9.5C11.5 9.30302 11.4612 9.10796 11.3858 8.92597C11.3104 8.74399 11.1999 8.57863 11.0607 8.43934C10.9214 8.30005 10.756 8.18956 10.574 8.11418C10.392 8.0388 10.197 8 10 8C9.60218 8 9.22064 8.15804 8.93934 8.43934C8.65804 8.72064 8.5 9.10218 8.5 9.5C8.5 9.89782 8.65804 10.2794 8.93934 10.5607C9.22064 10.842 9.60218 11 10 11Z"
        stroke="#0B74E5" stroke-width="1.5" stroke-linecap="square" stroke-linejoin="round" />
    <path
        d="M10 11C10.197 11 10.392 10.9612 10.574 10.8858C10.756 10.8104 10.9214 10.6999 11.0607 10.5607C11.1999 10.4214 11.3104 10.256 11.3858 10.074C11.4612 9.89204 11.5 9.69698 11.5 9.5C11.5 9.30302 11.4612 9.10796 11.3858 8.92597C11.3104 8.74399 11.1999 8.57863 11.0607 8.43934C10.9214 8.30005 10.756 8.18956 10.574 8.11418C10.392 8.0388 10.197 8 10 8C9.60218 8 9.22064 8.15804 8.93934 8.43934C8.65804 8.72064 8.5 9.10218 8.5 9.5C8.5 9.89782 8.65804 10.2794 8.93934 10.5607C9.22064 10.842 9.60218 11 10 11Z"
        stroke="url(#paint6_linear_3011_141454)" stroke-width="1.5" stroke-linecap="square" stroke-linejoin="round" />
    <path
        d="M23 11C23.197 11 23.392 10.9612 23.574 10.8858C23.756 10.8104 23.9214 10.6999 24.0607 10.5607C24.1999 10.4214 24.3104 10.256 24.3858 10.074C24.4612 9.89204 24.5 9.69698 24.5 9.5C24.5 9.30302 24.4612 9.10796 24.3858 8.92597C24.3104 8.74399 24.1999 8.57863 24.0607 8.43934C23.9214 8.30005 23.756 8.18956 23.574 8.11418C23.392 8.0388 23.197 8 23 8C22.6022 8 22.2206 8.15804 21.9393 8.43934C21.658 8.72064 21.5 9.10218 21.5 9.5C21.5 9.89782 21.658 10.2794 21.9393 10.5607C22.2206 10.842 22.6022 11 23 11Z"
        fill="url(#paint7_linear_3011_141454)" />
    <path
        d="M23 11C23.197 11 23.392 10.9612 23.574 10.8858C23.756 10.8104 23.9214 10.6999 24.0607 10.5607C24.1999 10.4214 24.3104 10.256 24.3858 10.074C24.4612 9.89204 24.5 9.69698 24.5 9.5C24.5 9.30302 24.4612 9.10796 24.3858 8.92597C24.3104 8.74399 24.1999 8.57863 24.0607 8.43934C23.9214 8.30005 23.756 8.18956 23.574 8.11418C23.392 8.0388 23.197 8 23 8C22.6022 8 22.2206 8.15804 21.9393 8.43934C21.658 8.72064 21.5 9.10218 21.5 9.5C21.5 9.89782 21.658 10.2794 21.9393 10.5607C22.2206 10.842 22.6022 11 23 11Z"
        stroke="#0B74E5" stroke-width="1.5" stroke-linecap="square" stroke-linejoin="round" />
    <path
        d="M23 11C23.197 11 23.392 10.9612 23.574 10.8858C23.756 10.8104 23.9214 10.6999 24.0607 10.5607C24.1999 10.4214 24.3104 10.256 24.3858 10.074C24.4612 9.89204 24.5 9.69698 24.5 9.5C24.5 9.30302 24.4612 9.10796 24.3858 8.92597C24.3104 8.74399 24.1999 8.57863 24.0607 8.43934C23.9214 8.30005 23.756 8.18956 23.574 8.11418C23.392 8.0388 23.197 8 23 8C22.6022 8 22.2206 8.15804 21.9393 8.43934C21.658 8.72064 21.5 9.10218 21.5 9.5C21.5 9.89782 21.658 10.2794 21.9393 10.5607C22.2206 10.842 22.6022 11 23 11Z"
        stroke="url(#paint8_linear_3011_141454)" stroke-width="1.5" stroke-linecap="square" stroke-linejoin="round" />
    <path
        d="M23 24C23.3978 24 23.7794 23.842 24.0607 23.5607C24.342 23.2794 24.5 22.8978 24.5 22.5C24.5 22.1022 24.342 21.7206 24.0607 21.4393C23.7794 21.158 23.3978 21 23 21C22.6022 21 22.2206 21.158 21.9393 21.4393C21.658 21.7206 21.5 22.1022 21.5 22.5C21.5 22.8978 21.658 23.2794 21.9393 23.5607C22.2206 23.842 22.6022 24 23 24Z"
        fill="url(#paint9_linear_3011_141454)" />
    <path
        d="M23 24C23.3978 24 23.7794 23.842 24.0607 23.5607C24.342 23.2794 24.5 22.8978 24.5 22.5C24.5 22.1022 24.342 21.7206 24.0607 21.4393C23.7794 21.158 23.3978 21 23 21C22.6022 21 22.2206 21.158 21.9393 21.4393C21.658 21.7206 21.5 22.1022 21.5 22.5C21.5 22.8978 21.658 23.2794 21.9393 23.5607C22.2206 23.842 22.6022 24 23 24Z"
        stroke="#0B74E5" stroke-width="1.5" stroke-linecap="square" stroke-linejoin="round" />
    <path
        d="M23 24C23.3978 24 23.7794 23.842 24.0607 23.5607C24.342 23.2794 24.5 22.8978 24.5 22.5C24.5 22.1022 24.342 21.7206 24.0607 21.4393C23.7794 21.158 23.3978 21 23 21C22.6022 21 22.2206 21.158 21.9393 21.4393C21.658 21.7206 21.5 22.1022 21.5 22.5C21.5 22.8978 21.658 23.2794 21.9393 23.5607C22.2206 23.842 22.6022 24 23 24Z"
        stroke="url(#paint10_linear_3011_141454)" stroke-width="1.5" stroke-linecap="square" stroke-linejoin="round" />
    <path
        d="M13 24C14.1935 24 15.3381 23.5259 16.182 22.682C17.0259 21.8381 17.5 20.6935 17.5 19.5C17.5 18.3065 17.0259 17.1619 16.182 16.318C15.3381 15.4741 14.1935 15 13 15C11.8065 15 10.6619 15.4741 9.81802 16.318C8.97411 17.1619 8.5 18.3065 8.5 19.5C8.5 20.6935 8.97411 21.8381 9.81802 22.682C10.6619 23.5259 11.8065 24 13 24Z"
        fill="url(#paint11_linear_3011_141454)" />
    <path
        d="M13 24C14.1935 24 15.3381 23.5259 16.182 22.682C17.0259 21.8381 17.5 20.6935 17.5 19.5C17.5 18.3065 17.0259 17.1619 16.182 16.318C15.3381 15.4741 14.1935 15 13 15C11.8065 15 10.6619 15.4741 9.81802 16.318C8.97411 17.1619 8.5 18.3065 8.5 19.5C8.5 20.6935 8.97411 21.8381 9.81802 22.682C10.6619 23.5259 11.8065 24 13 24Z"
        stroke="#0B74E5" stroke-width="1.5" stroke-linecap="square" stroke-linejoin="round" />
    <path
        d="M13 24C14.1935 24 15.3381 23.5259 16.182 22.682C17.0259 21.8381 17.5 20.6935 17.5 19.5C17.5 18.3065 17.0259 17.1619 16.182 16.318C15.3381 15.4741 14.1935 15 13 15C11.8065 15 10.6619 15.4741 9.81802 16.318C8.97411 17.1619 8.5 18.3065 8.5 19.5C8.5 20.6935 8.97411 21.8381 9.81802 22.682C10.6619 23.5259 11.8065 24 13 24Z"
        stroke="url(#paint12_linear_3011_141454)" stroke-width="1.5" stroke-linecap="square" stroke-linejoin="round" />
    <rect x="11" y="17.5" width="4" height="4" rx="2" fill="#F9E3DE" />
    <defs>
        <linearGradient id="paint0_linear_3011_141454" x1="16.5" y1="0" x2="16.5" y2="32"
            gradientUnits="userSpaceOnUse">
            <stop stop-color="#FBEDE2" />
            <stop offset="1" stop-color="#F7DBDA" />
        </linearGradient>
        <linearGradient id="paint1_linear_3011_141454" x1="15.9971" y1="10.9385" x2="15.9971" y2="22.0705"
            gradientUnits="userSpaceOnUse">
            <stop stop-color="#EDA173" />
            <stop offset="1" stop-color="#E3564C" />
        </linearGradient>
        <linearGradient id="paint2_linear_3011_141454" x1="15.9971" y1="10.9385" x2="15.9971" y2="22.0705"
            gradientUnits="userSpaceOnUse">
            <stop stop-color="#EDA173" />
            <stop offset="1" stop-color="#E3564C" />
        </linearGradient>
        <linearGradient id="paint3_linear_3011_141454" x1="19.0621" y1="10.5537" x2="19.0621" y2="16.3137"
            gradientUnits="userSpaceOnUse">
            <stop stop-color="#EDA173" />
            <stop offset="1" stop-color="#E3564C" />
        </linearGradient>
        <linearGradient id="paint4_linear_3011_141454" x1="19.0621" y1="10.5537" x2="19.0621" y2="16.3137"
            gradientUnits="userSpaceOnUse">
            <stop stop-color="#EDA173" />
            <stop offset="1" stop-color="#E3564C" />
        </linearGradient>
        <linearGradient id="paint5_linear_3011_141454" x1="10" y1="8" x2="10" y2="11" gradientUnits="userSpaceOnUse">
            <stop stop-color="#EDA173" />
            <stop offset="1" stop-color="#E3564C" />
        </linearGradient>
        <linearGradient id="paint6_linear_3011_141454" x1="10" y1="8" x2="10" y2="11" gradientUnits="userSpaceOnUse">
            <stop stop-color="#EDA173" />
            <stop offset="1" stop-color="#E3564C" />
        </linearGradient>
        <linearGradient id="paint7_linear_3011_141454" x1="23" y1="8" x2="23" y2="11" gradientUnits="userSpaceOnUse">
            <stop stop-color="#EDA173" />
            <stop offset="1" stop-color="#E3564C" />
        </linearGradient>
        <linearGradient id="paint8_linear_3011_141454" x1="23" y1="8" x2="23" y2="11" gradientUnits="userSpaceOnUse">
            <stop stop-color="#EDA173" />
            <stop offset="1" stop-color="#E3564C" />
        </linearGradient>
        <linearGradient id="paint9_linear_3011_141454" x1="23" y1="21" x2="23" y2="24" gradientUnits="userSpaceOnUse">
            <stop stop-color="#EDA173" />
            <stop offset="1" stop-color="#E3564C" />
        </linearGradient>
        <linearGradient id="paint10_linear_3011_141454" x1="23" y1="21" x2="23" y2="24" gradientUnits="userSpaceOnUse">
            <stop stop-color="#EDA173" />
            <stop offset="1" stop-color="#E3564C" />
        </linearGradient>
        <linearGradient id="paint11_linear_3011_141454" x1="13" y1="15" x2="13" y2="24" gradientUnits="userSpaceOnUse">
            <stop stop-color="#EDA173" />
            <stop offset="1" stop-color="#E3564C" />
        </linearGradient>
        <linearGradient id="paint12_linear_3011_141454" x1="13" y1="15" x2="13" y2="24" gradientUnits="userSpaceOnUse">
            <stop stop-color="#EDA173" />
            <stop offset="1" stop-color="#E3564C" />
        </linearGradient>
    </defs>
</svg>