<svg width="32" height="32" viewBox="0 0 32 32" fill="none" xmlns="http://www.w3.org/2000/svg">
<g clip-path="url(#clip0_689_45402)">
<path d="M29.9252 17.0659L10.5348 27.7374C9.4718 28.3225 8.13578 27.935 7.55074 26.872L1.64179 16.1353C1.05675 15.0723 1.44424 13.7362 2.50726 13.1512L21.8976 2.47968C22.9607 1.89464 24.2967 2.28213 24.8817 3.34516L30.7907 14.0818C31.3757 15.1449 30.9882 16.4809 29.9252 17.0659Z" fill="#FEBC1F"/>
<path d="M29.4975 16.2964L10.1071 26.9679C9.04406 27.5529 7.70804 27.1655 7.12301 26.1024L1.21406 15.3658C0.629018 14.3027 1.0165 12.9667 2.07953 12.3817L21.4699 1.71015C22.5329 1.12511 23.8689 1.5126 24.454 2.57562L30.3629 13.3123C30.948 14.3753 30.5605 15.7113 29.4975 16.2964Z" fill="#FFD475"/>
<path d="M21.4699 1.71082L2.07953 12.3824C1.0165 12.9674 0.629025 14.3034 1.21405 15.3664L7.12301 26.1031C7.12301 26.1031 1.61704 15.5733 23.4302 1.63448C22.8223 1.36131 22.0988 1.3647 21.4699 1.71082Z" fill="#FEBC1F"/>
<path d="M2.9524 16.6817L3.69441 18.0299C3.88144 18.3698 4.30857 18.4937 4.64843 18.3066L25.1039 7.04893C25.4437 6.86189 25.5676 6.43476 25.3806 6.09491L24.6386 4.74667C24.4515 4.40682 24.0244 4.28294 23.6845 4.46998L3.2291 15.7277C2.88924 15.9147 2.76536 16.3418 2.9524 16.6817Z" fill="#1D2943"/>
<path d="M2.74928 16.3086L3.49128 17.6569C3.67832 17.9967 4.10545 18.1206 4.4453 17.9336L24.9007 6.67588C25.2406 6.48884 25.3645 6.06171 25.1774 5.72186L24.4354 4.37363C24.2484 4.03377 23.8213 3.90989 23.4814 4.09693L3.02597 15.3546C2.68612 15.5417 2.56224 15.9688 2.74928 16.3086Z" fill="#4C5C75"/>
<path d="M26.414 30.5634L4.28101 30.5634C3.06763 30.5634 2.08399 29.5797 2.08399 28.3664L2.08398 16.1111C2.08398 14.8977 3.06762 13.9141 4.281 13.9141L26.414 13.9141C27.6273 13.9141 28.611 14.8977 28.611 16.1111L28.611 28.3663C28.611 29.5797 27.6273 30.5634 26.414 30.5634Z" fill="#5094FF"/>
<path d="M4.281 29.6845L26.414 29.6845C27.6273 29.6845 28.611 28.7008 28.611 27.4875L28.611 15.2322C28.611 14.0188 27.6273 13.0352 26.414 13.0352L4.28101 13.0352C3.06763 13.0352 2.08399 14.0188 2.08399 15.2322L2.08398 27.4874C2.08398 28.7008 3.06762 29.6845 4.281 29.6845Z" fill="#57B3FE"/>
<path d="M4.28355 13.0352L26.4165 13.0352C27.6299 13.0352 28.6135 14.0188 28.6135 15.2322L28.6135 27.4875C28.6135 27.4875 28.3602 15.6077 2.5293 13.9135C2.93021 13.381 3.56569 13.0352 4.28355 13.0352Z" fill="#5094FF"/>
<path d="M26.8937 25.7417V26.0827H26.8891C26.898 26.5438 26.5134 26.9312 26.0497 26.9312L23.8205 26.9312C23.3651 26.9312 22.9721 26.5509 22.9811 26.0827H22.9766V25.7417H23.031C23.1626 25.4105 23.5211 25.1836 23.8976 25.1836L25.9725 25.1836C26.3491 25.1836 26.7076 25.4105 26.8392 25.7417H26.8937Z" fill="#E3E7F0"/>
<path d="M26.0436 26.5917L23.8888 26.5918C23.4546 26.5918 23.0444 26.297 22.9834 25.8671C22.9092 25.3437 23.314 24.8946 23.8232 24.8946L25.9696 24.8945C26.43 24.8945 26.8587 25.2286 26.8867 25.6882C26.9179 26.1983 26.5145 26.5917 26.0436 26.5917Z" fill="white"/>
<path d="M20.4972 25.7417V26.0827H20.4927C20.5015 26.5438 20.1169 26.9312 19.6532 26.9312L17.4241 26.9312C16.9686 26.9312 16.5756 26.5509 16.5846 26.0827H16.5801V25.7417H16.6345C16.7661 25.4105 17.1246 25.1836 17.5012 25.1836L19.5761 25.1836C19.9526 25.1836 20.3111 25.4105 20.4427 25.7417H20.4972Z" fill="#E3E7F0"/>
<path d="M19.655 26.5917L17.5001 26.5918C17.066 26.5918 16.6557 26.297 16.5947 25.8671C16.5205 25.3437 16.9254 24.8946 17.4345 24.8946L19.5809 24.8945C20.0413 24.8945 20.47 25.2286 20.4981 25.6882C20.5292 26.1983 20.1258 26.5917 19.655 26.5917Z" fill="white"/>
<path d="M14.1144 25.7417V26.0827H14.1098C14.1187 26.5438 13.7341 26.9312 13.2704 26.9312H11.0412C10.5858 26.9312 10.1928 26.5509 10.2018 26.0827H10.1973V25.7417H10.2517C10.3833 25.4105 10.7418 25.1836 11.1184 25.1836H13.1932C13.5698 25.1836 13.9283 25.4105 14.0599 25.7417H14.1144Z" fill="#E3E7F0"/>
<path d="M13.2721 26.5917L11.1173 26.5918C10.6832 26.5918 10.2729 26.297 10.2119 25.8671C10.1377 25.3437 10.5426 24.8946 11.0517 24.8946L13.1981 24.8945C13.6585 24.8945 14.0872 25.2286 14.1153 25.6882C14.1464 26.1983 13.743 26.5917 13.2721 26.5917Z" fill="white"/>
<path d="M7.72961 25.7417V26.0827H7.72507C7.73395 26.5438 7.34932 26.9312 6.88563 26.9312L4.65648 26.9312C4.20102 26.9312 3.80803 26.5509 3.81704 26.0827H3.8125V25.7417H3.86695C3.99856 25.4105 4.35704 25.1836 4.73359 25.1836L6.80847 25.1836C7.18507 25.1836 7.54356 25.4105 7.67517 25.7417H7.72961Z" fill="#E3E7F0"/>
<path d="M6.87956 26.5917L4.72473 26.5918C4.29057 26.5918 3.8803 26.297 3.81935 25.8671C3.74514 25.3437 4.14998 24.8946 4.65914 24.8946L6.8055 24.8945C7.26589 24.8945 7.69464 25.2286 7.72268 25.6882C7.7538 26.1983 7.35046 26.5917 6.87956 26.5917Z" fill="white"/>
<path d="M3.80859 16.9064L3.80859 18.9565C3.80859 19.4733 4.22752 19.8922 4.74429 19.8922L8.58302 19.8922C9.09979 19.8922 9.51871 19.4732 9.51871 18.9565L9.51871 16.9064C9.51871 16.3896 9.09979 15.9707 8.58302 15.9707L4.74429 15.9707C4.22752 15.9707 3.80859 16.3896 3.80859 16.9064Z" fill="#FEBC1F"/>
<path d="M3.80859 16.5861L3.80859 18.6362C3.80859 19.1529 4.22752 19.5719 4.74429 19.5719L8.58302 19.5719C9.09979 19.5719 9.51871 19.1529 9.51871 18.6362V16.5861C9.51871 16.0693 9.09979 15.6504 8.58302 15.6504L4.74429 15.6504C4.22752 15.6504 3.80859 16.0693 3.80859 16.5861Z" fill="#FFD475"/>
<path d="M6.56421 17.3899V15.6504H6.11977V17.3899H3.80859V17.8344H5.07304V19.5718H5.51748V17.8344H7.51865V19.5718H7.96307V17.8344H9.51872V17.3899H6.56421Z" fill="#FEBC1F"/>
<path d="M26.4842 18.9244L23.982 18.9244C23.7735 18.9244 23.5765 18.7829 23.5472 18.5764C23.5116 18.3251 23.706 18.1094 23.9505 18.1094L26.4487 18.1094C26.6698 18.1094 26.8757 18.2698 26.8891 18.4905C26.9041 18.7355 26.7104 18.9244 26.4842 18.9244Z" fill="white"/>
<path d="M26.4845 17.1803L22.0914 17.1803C21.8829 17.1803 21.6858 17.0387 21.6566 16.8323C21.6209 16.5809 21.8154 16.3653 22.0599 16.3653L26.4489 16.3652C26.67 16.3652 26.8759 16.5257 26.8894 16.7464C26.9043 16.9913 26.7106 17.1803 26.4845 17.1803Z" fill="white"/>
<path d="M25.8184 7.67969C26.8643 9.02183 27.7191 10.4804 28.3741 12.0511C27.3266 10.71 26.4749 9.24948 25.8184 7.67969Z" fill="white"/>
<path d="M6.32422 12.0497C7.8484 10.8834 9.48986 9.90759 11.245 9.13086C9.72182 10.2987 8.07847 11.2713 6.32422 12.0497Z" fill="white"/>
<path d="M18.9141 28.5819C20.8199 28.3565 22.7294 28.3545 24.6352 28.5819C22.7294 28.8093 20.8199 28.8074 18.9141 28.5819Z" fill="white"/>
</g>
<defs>
<clipPath id="clip0_689_45402">
<rect width="32" height="32" fill="white"/>
</clipPath>
</defs>
</svg>
