<svg width="32" height="32" viewBox="0 0 32 32" fill="none" xmlns="http://www.w3.org/2000/svg">
<path d="M24.0013 3H5.33464C3.30959 3 1.66797 4.64162 1.66797 6.66667V20C1.66797 22.025 3.30959 23.6667 5.33464 23.6667H24.0013C26.0263 23.6667 27.668 22.025 27.668 20V6.66667C27.668 4.64162 26.0263 3 24.0013 3Z" fill="#27272A"/>
<path d="M24.0013 28.9997C27.4991 28.9997 30.3346 26.1641 30.3346 22.6663C30.3346 19.1685 27.4991 16.333 24.0013 16.333C20.5035 16.333 17.668 19.1685 17.668 22.6663C17.668 26.1641 20.5035 28.9997 24.0013 28.9997Z" fill="#FF3F1A"/>
<path d="M24 25.667C23.7348 25.667 23.4804 25.5616 23.2929 25.3741C23.1054 25.1866 23 24.9322 23 24.667V20.667C23 20.4018 23.1054 20.1474 23.2929 19.9599C23.4804 19.7723 23.7348 19.667 24 19.667C24.2652 19.667 24.5196 19.7723 24.7071 19.9599C24.8946 20.1474 25 20.4018 25 20.667V24.667C25 24.9322 24.8946 25.1866 24.7071 25.3741C24.5196 25.5616 24.2652 25.667 24 25.667Z" fill="white"/>
<path d="M26 23.667H22C21.7348 23.667 21.4804 23.5616 21.2929 23.3741C21.1054 23.1866 21 22.9322 21 22.667C21 22.4018 21.1054 22.1474 21.2929 21.9599C21.4804 21.7723 21.7348 21.667 22 21.667H26C26.2652 21.667 26.5196 21.7723 26.7071 21.9599C26.8946 22.1474 27 22.4018 27 22.667C27 22.9322 26.8946 23.1866 26.7071 23.3741C26.5196 23.5616 26.2652 23.667 26 23.667Z" fill="white"/>
<path d="M1.66797 8.33301H27.668V10.333H1.66797V8.33301Z" fill="#FFB56C"/>
<path d="M9.33464 15.667H6.66797C6.40275 15.667 6.1484 15.5616 5.96086 15.3741C5.77333 15.1866 5.66797 14.9322 5.66797 14.667C5.66797 14.4018 5.77333 14.1474 5.96086 13.9599C6.1484 13.7723 6.40275 13.667 6.66797 13.667H9.33464C9.59985 13.667 9.85421 13.7723 10.0417 13.9599C10.2293 14.1474 10.3346 14.4018 10.3346 14.667C10.3346 14.9322 10.2293 15.1866 10.0417 15.3741C9.85421 15.5616 9.59985 15.667 9.33464 15.667Z" fill="white"/>
<path d="M12.0013 19.667H6.66797C6.40275 19.667 6.1484 19.5616 5.96086 19.3741C5.77333 19.1866 5.66797 18.9322 5.66797 18.667C5.66797 18.4018 5.77333 18.1474 5.96086 17.9599C6.1484 17.7723 6.40275 17.667 6.66797 17.667H12.0013C12.2665 17.667 12.5209 17.7723 12.7084 17.9599C12.8959 18.1474 13.0013 18.4018 13.0013 18.667C13.0013 18.9322 12.8959 19.1866 12.7084 19.3741C12.5209 19.5616 12.2665 19.667 12.0013 19.667Z" fill="white"/>
</svg>
