<svg width="240" height="102" viewBox="0 0 240 102" fill="none" xmlns="http://www.w3.org/2000/svg">
<mask id="path-1-inside-1_753_61099" fill="white">
<path fill-rule="evenodd" clip-rule="evenodd" d="M0 8C0 3.58172 3.58172 0 8 0H230C234.418 0 238 3.58172 238 8V50.9835C237.672 50.9426 237.339 50.9216 237 50.9216C232.582 50.9216 229 54.5033 229 58.9216C229 63.3398 232.582 66.9216 237 66.9216C237.339 66.9216 237.672 66.9005 238 66.8597V94C238 98.4183 234.418 102 230 102H8C3.58172 102 0 98.4183 0 94V65.9216C4.41828 65.9216 8 62.3398 8 57.9216C8 53.5033 4.41828 49.9216 0 49.9216V8Z"/>
</mask>
<path fill-rule="evenodd" clip-rule="evenodd" d="M0 8C0 3.58172 3.58172 0 8 0H230C234.418 0 238 3.58172 238 8V50.9835C237.672 50.9426 237.339 50.9216 237 50.9216C232.582 50.9216 229 54.5033 229 58.9216C229 63.3398 232.582 66.9216 237 66.9216C237.339 66.9216 237.672 66.9005 238 66.8597V94C238 98.4183 234.418 102 230 102H8C3.58172 102 0 98.4183 0 94V65.9216C4.41828 65.9216 8 62.3398 8 57.9216C8 53.5033 4.41828 49.9216 0 49.9216V8Z" fill="#F0F8FF"/>
<path d="M238 50.9835L237.876 51.9758L239 52.1159V50.9835H238ZM238 66.8597H239V65.7272L237.876 65.8674L238 66.8597ZM0 65.9216V64.9216H-1V65.9216H0ZM0 49.9216H-1V50.9216H0V49.9216ZM8 -1C3.02944 -1 -1 3.02944 -1 8H1C1 4.13401 4.13401 1 8 1V-1ZM230 -1H8V1H230V-1ZM239 8C239 3.02944 234.971 -1 230 -1V1C233.866 1 237 4.13401 237 8H239ZM239 50.9835V8H237V50.9835H239ZM238.124 49.9911C237.755 49.9452 237.38 49.9216 237 49.9216V51.9216C237.297 51.9216 237.59 51.94 237.876 51.9758L238.124 49.9911ZM237 49.9216C232.029 49.9216 228 53.951 228 58.9216H230C230 55.0556 233.134 51.9216 237 51.9216V49.9216ZM228 58.9216C228 63.8921 232.029 67.9216 237 67.9216V65.9216C233.134 65.9216 230 62.7876 230 58.9216H228ZM237 67.9216C237.38 67.9216 237.755 67.8979 238.124 67.852L237.876 65.8674C237.59 65.9031 237.297 65.9216 237 65.9216V67.9216ZM239 94V66.8597H237V94H239ZM230 103C234.971 103 239 98.9706 239 94H237C237 97.866 233.866 101 230 101V103ZM8 103H230V101H8V103ZM-1 94C-1 98.9706 3.02944 103 8 103V101C4.13401 101 1 97.866 1 94H-1ZM-1 65.9216V94H1V65.9216H-1ZM7 57.9216C7 61.7876 3.86599 64.9216 0 64.9216V66.9216C4.97056 66.9216 9 62.8921 9 57.9216H7ZM0 50.9216C3.86599 50.9216 7 54.0556 7 57.9216H9C9 52.951 4.97056 48.9216 0 48.9216V50.9216ZM-1 8V49.9216H1V8H-1Z" fill="#C2E1FF" mask="url(#path-1-inside-1_753_61099)"/>
<line x1="10" y1="57.5" x2="228" y2="57.5" stroke="#C2E1FF" stroke-dasharray="4 4"/>
<path d="M216 20C216 15.0294 220.029 11 225 11H240V29H225C220.029 29 216 24.9706 216 20Z" fill="#FF3F1A"/>
<path d="M238 31L240 29H238V31Z" fill="#B64F00"/>
</svg>
