<svg width="40" height="40" viewBox="0 0 40 40" fill="none" xmlns="http://www.w3.org/2000/svg">
    <g filter="url(#filter0_b_2913_139386)">
        <rect width="40" height="40" rx="20" fill="url(#paint0_linear_2913_139386)" />
        <rect width="40" height="40" rx="20" fill="white" fill-opacity="0.01" />
        <rect x="0.5" y="0.5" width="39" height="39" rx="19.5" stroke="white" stroke-opacity="0.1" />
        <g clip-path="url(#clip0_2913_139386)">
            <path
                d="M21.237 28V20.7022H23.6856L24.053 17.8573H21.237V16.0412C21.237 15.2178 21.4647 14.6566 22.6468 14.6566L24.1521 14.656V12.1114C23.8918 12.0776 22.9982 12 21.9582 12C19.7865 12 18.2998 13.3256 18.2998 15.7594V17.8573H15.8438V20.7022H18.2998V28H21.237Z"
                fill="white" />
        </g>
    </g>
    <defs>
        <filter id="filter0_b_2913_139386" x="-20" y="-20" width="80" height="80" filterUnits="userSpaceOnUse"
            color-interpolation-filters="sRGB">
            <feFlood flood-opacity="0" result="BackgroundImageFix" />
            <feGaussianBlur in="BackgroundImageFix" stdDeviation="10" />
            <feComposite in2="SourceAlpha" operator="in" result="effect1_backgroundBlur_2913_139386" />
            <feBlend mode="normal" in="SourceGraphic" in2="effect1_backgroundBlur_2913_139386" result="shape" />
        </filter>
        <linearGradient id="paint0_linear_2913_139386" x1="20" y1="0" x2="20" y2="40" gradientUnits="userSpaceOnUse">
            <stop stop-color="white" stop-opacity="0" />
            <stop offset="1" stop-color="white" stop-opacity="0.1" />
        </linearGradient>
        <clipPath id="clip0_2913_139386">
            <rect width="16" height="16" fill="white" transform="translate(12 12)" />
        </clipPath>
    </defs>
</svg>