<svg width="24" height="24" viewBox="0 0 24 24" fill="none" xmlns="http://www.w3.org/2000/svg">
<g clip-path="url(#clip0_919_69558)">
<path d="M17.5071 7.67841C17.0069 7.13236 16.2293 6.39534 15.8985 8.0595C15.786 8.62533 15.5232 9.0615 15.298 9.41269C15.0552 8.184 14.3248 6.91223 13.6366 6.05475C13.3791 5.73394 12.4653 4.45861 12.2897 2.32505C12.2635 2.00662 11.8853 1.85709 11.6487 2.07187C9.38784 4.12425 8.14688 6.94697 8.1008 10.1248C8.1008 10.1248 7.15936 9.33122 6.64791 7.85494C6.51019 7.45739 5.97722 7.38155 5.74599 7.73306C5.70159 7.80056 5.66044 7.86816 5.62331 7.93378C3.87895 11.0182 3.03985 14.7637 3.81558 18.2484C5.11261 24.0842 13.6923 25.7157 18.2345 22.0478C22.6785 18.4592 21.2658 11.7801 17.5071 7.67841Z" fill="#ED984A"/>
<path d="M5.02382 18.6153C4.25709 15.0933 5.06868 11.3113 6.77207 8.17864C6.72899 8.07472 6.68756 7.96724 6.64884 7.85549C6.51112 7.45794 5.97815 7.3821 5.74692 7.73361C5.70252 7.80111 5.66142 7.86871 5.62429 7.93433C3.87993 11.0187 3.04082 14.7643 3.81656 18.2489C4.40817 20.9108 6.5151 22.6974 9.06281 23.5059C7.07531 22.5432 5.51887 20.8927 5.02382 18.6153Z" fill="#D8693A"/>
<path d="M9.31483 10.0666C9.409 7.1825 10.4522 4.59641 12.3192 2.60975C12.3063 2.50034 12.2968 2.40252 12.2907 2.32827C12.2639 2.00712 11.8995 1.84606 11.664 2.05897C9.4803 4.03325 8.14933 6.82742 8.10156 10.125L8.51027 10.4424C8.71155 10.5987 8.98427 10.5919 9.1765 10.4487C9.2912 10.3515 9.30766 10.2048 9.31483 10.0666Z" fill="#D8693A"/>
<path d="M16.1366 11.9445C15.7672 11.5412 15.1929 10.9968 14.9486 12.226C14.8655 12.6439 14.6713 12.9661 14.505 13.2255C14.3257 12.3179 13.7862 11.3786 13.2779 10.7452C13.0877 10.5083 12.4128 9.56634 12.2831 7.99036C12.2637 7.75514 11.9844 7.64475 11.8096 7.80337C10.1397 9.31926 9.22307 11.4043 9.18909 13.7514C9.18909 13.7514 8.49369 13.1653 8.11598 12.0749C8.01426 11.7812 7.62055 11.7252 7.44979 11.9849C7.41702 12.0347 7.3866 12.0847 7.35918 12.1331C6.07073 14.4113 5.45094 17.1778 6.0239 19.7517C6.98193 24.0622 13.3191 25.2673 16.674 22.558C19.9564 19.9075 18.913 14.9741 16.1366 11.9445Z" fill="#F4A32C"/>
<path d="M7.21879 20.0899C6.71151 17.5738 7.23693 14.874 8.35091 12.6259C8.26602 12.4597 8.18559 12.2759 8.11593 12.0749C8.01421 11.7813 7.62051 11.7253 7.44974 11.9849C7.41698 12.0347 7.38655 12.0847 7.35913 12.1332C6.07073 14.4114 5.45099 17.1779 6.02385 19.7518C6.46944 21.7565 8.07871 23.0891 10.0101 23.669C8.63788 22.9808 7.55741 21.7717 7.21879 20.0899Z" fill="#E89528"/>
<path d="M14.8854 15.8395C14.6353 15.5665 14.2465 15.1979 14.0811 16.03C14.0249 16.313 13.8934 16.531 13.7808 16.7066C13.6594 16.0922 13.2942 15.4564 12.9501 15.0276C12.8214 14.8672 12.3645 14.2296 12.2766 13.1628C12.2635 13.0035 12.0745 12.9288 11.9562 13.0362C10.8257 14.0624 10.2052 15.4738 10.1822 17.0626C10.1822 17.0626 9.71145 16.6658 9.4558 15.9277C9.38694 15.729 9.12045 15.6911 9.00486 15.8668C8.98264 15.9005 8.96211 15.9344 8.9435 15.9672C8.07134 17.5094 7.65176 19.3821 8.03961 21.1245C8.68812 24.0424 12.978 24.8582 15.249 23.0242C16.0267 22.3962 16.5089 21.5112 16.6067 20.5323C16.7543 19.0497 16.1837 17.2563 14.8854 15.8395Z" fill="#F4D44E"/>
<path d="M13.7228 19.4536C13.5835 19.3015 13.3669 19.0962 13.2748 19.5597C13.2435 19.7174 13.1702 19.8389 13.1075 19.9367C13.0398 19.5944 12.8364 19.2401 12.6447 19.0013C12.573 18.9119 12.3184 18.5567 12.2694 17.9623C12.2621 17.8736 12.1568 17.832 12.0909 17.8918C11.4611 18.4635 11.1154 19.2499 11.1026 20.135C11.1026 20.135 10.8403 19.914 10.6979 19.5027C10.6595 19.392 10.511 19.3708 10.4467 19.4688C10.4343 19.4876 10.4228 19.5064 10.4125 19.5247C9.92663 20.3839 9.69287 21.4273 9.90896 22.398C10.4011 24.612 14.4346 24.5449 14.682 22.0681C14.7641 21.2421 14.4462 20.2429 13.7228 19.4536Z" fill="#EAE9E8"/>
<path d="M10.8455 22.8373C10.6294 21.969 10.8631 21.0356 11.3491 20.2671C11.3594 20.2507 11.3709 20.2339 11.3832 20.2171C11.4476 20.1295 11.596 20.1484 11.6344 20.2474C11.7768 20.6153 12.0391 20.813 12.0391 20.813C12.0496 20.1624 12.2853 19.5718 12.7182 19.0981C12.6214 18.964 12.3253 18.6408 12.2694 17.9623C12.2621 17.8736 12.1568 17.832 12.0909 17.8918C11.4611 18.4635 11.1154 19.2499 11.1026 20.135C11.1026 20.135 10.8403 19.914 10.6979 19.5028C10.6595 19.392 10.511 19.3709 10.4467 19.4689C10.4343 19.4876 10.4229 19.5065 10.4125 19.5248C9.92663 20.3839 9.69287 21.4273 9.90896 22.3981C10.1089 23.2978 10.9305 23.8386 11.8387 23.9691C11.3488 23.7285 10.9722 23.3475 10.8455 22.8373Z" fill="#F7E7A1"/>
<path d="M8.65396 3.18961C9.66763 2.36512 9.66538 0.822609 8.65396 0C7.64029 0.824437 7.64249 2.367 8.65396 3.18961Z" fill="#D8553A"/>
<path d="M20.8014 9.8068C21.8151 8.98231 21.8129 7.4398 20.8014 6.61719C20.3381 6.99397 19.79 8.98419 20.8014 9.8068Z" fill="#D8553A"/>
<path d="M2.84901 10.4345C3.57955 9.8403 3.57796 8.72866 2.84901 8.13574C2.51511 8.40729 2.12005 9.84166 2.84901 10.4345Z" fill="#D8553A"/>
<path d="M15.5024 5.48825C16.2329 4.89402 16.2313 3.78237 15.5024 3.18945C14.7718 3.78364 14.7735 4.89538 15.5024 5.48825Z" fill="#D8553A"/>
<path d="M10.1216 13.3744C10.2893 11.3939 11.0457 9.63281 12.3156 8.29026C12.3028 8.19295 12.2919 8.09306 12.2835 7.99036C12.2641 7.75514 11.9848 7.64475 11.81 7.80337C10.4868 9.00459 9.63748 10.5635 9.32464 12.3267L9.32417 12.3265C9.30097 12.4573 9.27219 12.6478 9.254 12.7975C9.25405 12.7976 9.25409 12.7977 9.25419 12.7979C9.21617 13.1102 9.19414 13.4282 9.18945 13.7514C9.2248 13.7583 10.0249 14.1696 10.1216 13.3744Z" fill="#E89528"/>
<path d="M9.20667 21.5384C8.86191 19.9107 9.15553 18.1749 9.83766 16.6709C9.70552 16.4856 9.56091 16.2367 9.45389 15.9277C9.38498 15.729 9.11855 15.6911 9.00291 15.8668C8.98073 15.9005 8.96011 15.9343 8.94155 15.9671C8.06939 17.5093 7.64981 19.3821 8.03766 21.1245C8.34141 22.491 9.44377 23.3964 10.7633 23.7846C9.99525 23.2747 9.41423 22.5199 9.20667 21.5384Z" fill="#E8C842"/>
<path d="M11.4251 16.3514C11.5393 15.5346 11.8734 14.6346 12.3993 13.8822C12.342 13.6698 12.297 13.4297 12.275 13.1628C12.2619 13.0035 12.0728 12.9288 11.9545 13.0362C11.2502 13.6756 10.7446 14.4649 10.4574 15.3531L10.4567 15.353C10.4115 15.4925 10.3476 15.7237 10.3089 15.9062C10.3092 15.9061 10.3095 15.9061 10.3099 15.9059C10.2305 16.2783 10.1864 16.6648 10.1807 17.0626C10.8131 17.1415 11.3363 16.9849 11.4251 16.3514Z" fill="#E8C842"/>
</g>
<defs>
<clipPath id="clip0_919_69558">
<rect width="24" height="24" fill="white"/>
</clipPath>
</defs>
</svg>
