<svg width="340" height="89" viewBox="0 0 340 89" fill="none" xmlns="http://www.w3.org/2000/svg">
<path d="M87.6524 19.1164C87.4513 19.2651 86.6198 19.7559 84.0974 18.6924C81.1537 17.4475 77.6732 16.8025 77.6732 16.8025C78.2076 16.0934 79.5304 14.5247 79.704 14.3797C79.8775 14.2348 80.3329 13.6139 82.4687 14.4323C84.6045 15.2507 88.1067 16.4739 88.1067 16.4739C89.572 16.9941 90.1416 17.173 90.3742 16.7264C90.3434 16.8177 90.2989 16.8913 90.2378 16.9462C89.8403 17.2978 87.8554 18.9715 87.6543 19.1203L87.6524 19.1164Z" fill="url(#paint0_linear_1035_81544)"/>
<path d="M89.4285 8.87095C89.4285 8.87095 89.1233 9.86399 89.7619 12.6419C90.3045 15.0035 90.5512 16.199 90.3685 16.7215C90.136 17.1681 89.5663 16.9892 88.101 16.469C88.101 16.469 87.4665 14.5259 87.182 12.0019C87.1275 11.5308 87.1742 11.1003 87.2856 10.7113C87.2876 10.7054 87.2886 10.7024 87.2906 10.6965C87.4359 10.1975 87.689 9.76771 87.9921 9.39411C88.3502 9.05216 88.8178 8.88167 89.4275 8.8739L89.4285 8.87095Z" fill="url(#paint1_linear_1035_81544)"/>
<path d="M98.8443 9.4815C98.8443 9.4815 96.5683 11.1522 96.4036 11.31C96.2359 11.4667 95.5762 11.1361 93.2904 9.91604C91.0045 8.69597 89.4346 8.87553 89.4346 8.87553C88.8249 8.8833 88.3573 9.05379 87.9992 9.39574C88.725 8.49851 89.7159 7.95319 90.1091 7.72149C90.7938 7.31575 91.1761 7.08696 91.3485 6.9843C91.5209 6.88164 92.1971 6.67645 93.2438 7.10475C95.621 8.07342 98.2095 9.95329 98.8472 9.4825L98.8443 9.4815Z" fill="url(#paint2_linear_1035_81544)"/>
<path d="M212.184 18.2554L217.248 17C216.409 23.613 219.674 27.4803 224 28.224L218.679 30C212.249 26.9865 211.559 24.2735 212.184 18.2524V18.2554Z" fill="url(#paint3_linear_1035_81544)"/>
<path d="M43.8111 27.3557C44.9319 28.1164 45.4621 27.8686 45.7762 27.4508C46.096 26.8745 46.1162 25.6989 45.586 22.78C45.586 22.7743 45.586 22.7714 45.586 22.7656L43.4336 23.6416C43.8716 26.6065 43.8139 27.3557 43.8139 27.3557H43.8111Z" fill="url(#paint4_linear_1035_81544)"/>
<path d="M43.8103 27.3552C43.8103 27.3552 42.3465 26.3265 40.6292 24.5948C39.8772 23.837 39.3066 23.3414 38.886 23.0273L36.1602 24.1338C36.3071 24.2635 36.4627 24.4018 36.6471 24.5689C36.6471 24.5689 39.1021 26.7789 40.5745 28.1879C42.0469 29.594 42.6347 29.2454 42.8277 29.1849C43.0208 29.1244 44.6488 28.2917 45.3288 27.894C45.5074 27.7903 45.663 27.6577 45.7754 27.4532C45.4613 27.8681 44.9283 28.1188 43.8103 27.3581V27.3552Z" fill="url(#paint5_linear_1035_81544)"/>
<path d="M287.353 29.355C286.233 30.1154 285.703 29.8677 285.389 29.45C285.069 28.874 285.049 27.6988 285.579 24.781C285.579 24.7752 285.579 24.7724 285.579 24.7666L287.73 25.6422C287.293 28.6061 287.35 29.355 287.35 29.355H287.353Z" fill="url(#paint6_linear_1035_81544)"/>
<path d="M287.353 29.3546C287.353 29.3546 288.816 28.3263 290.533 26.5952C291.284 25.8377 291.855 25.3423 292.275 25.0283L295 26.1344C294.853 26.264 294.698 26.4022 294.513 26.5693C294.513 26.5693 292.059 28.7785 290.587 30.187C289.115 31.5926 288.528 31.2441 288.335 31.1836C288.142 31.1231 286.515 30.2907 285.835 29.8932C285.656 29.7895 285.501 29.657 285.388 29.4525C285.702 29.8673 286.235 30.1179 287.353 29.3575V29.3546Z" fill="url(#paint7_linear_1035_81544)"/>
<path d="M224.243 76C224.354 75.5825 224.473 74.9649 224.595 74.0333C224.867 71.939 225.617 70.9385 226 70.5555L224.928 70C224.622 70.0311 224.3 70.1139 223.983 70.2726C223.73 70.4106 223.497 70.5865 223.305 70.8177C222.287 72.0495 222.038 73.4986 222 73.7677L224.243 76Z" fill="url(#paint8_linear_1035_81544)"/>
<path d="M35.4861 54C35.7081 54.835 35.9454 56.0702 36.1904 57.9333C36.7339 62.1219 38.2345 64.1231 39 64.889L36.8564 66C36.244 65.9379 35.6009 65.7723 34.9655 65.4549C34.4603 65.1788 33.9933 64.8269 33.6105 64.3646C31.5741 61.9011 31.0766 59.0029 31 58.4646L35.4861 54Z" fill="url(#paint9_linear_1035_81544)"/>
<path d="M83.7275 84.6079C87.8763 84.7856 90.618 79.5111 90.618 79.5111L93.0017 81.0016C93.0017 81.0016 89.3205 86.5803 86.0973 86.742L83.7287 84.6059L83.7275 84.6079Z" fill="url(#paint10_linear_1035_81544)"/>
<g filter="url(#filter0_f_1035_81544)">
<path d="M253.952 11.6615C252.292 12.7683 252.339 13.6297 252.73 14.2927C253.341 15.0497 254.933 15.7284 259.214 16.6211C259.225 16.6211 259.23 16.6211 259.235 16.6211V13.1964C254.944 12.1522 253.952 11.6562 253.952 11.6562V11.6615Z" fill="url(#paint11_linear_1035_81544)"/>
<path d="M253.955 11.6611C253.955 11.6611 256.168 10.2359 259.488 8.84719C260.94 8.24159 261.932 7.7404 262.595 7.33841V3C262.339 3.13052 262.057 3.26626 261.733 3.42288C261.733 3.42288 257.353 5.5477 254.612 6.77979C251.877 8.00665 252.028 9.00381 252.002 9.30139C251.976 9.59897 252.211 12.2824 252.378 13.4362C252.42 13.739 252.514 14.0209 252.733 14.2924C252.341 13.6293 252.294 12.7679 253.955 11.6611Z" fill="url(#paint12_linear_1035_81544)"/>
</g>
<path d="M260.52 50.0965L260.616 50C260.55 50.0784 260.52 50.0965 260.52 50.0965Z" fill="url(#paint13_linear_1035_81544)"/>
<path d="M265.761 51.2007C265.761 51.2007 262.594 52.1598 261.364 52.7269C260.398 53.1733 259.578 53.4628 259.065 53.3542C258.365 53.125 259.023 52.0693 260.525 50.0907C260.525 50.0907 261.937 49.0773 264.259 48.5706C265.266 48.3474 265.888 48.4017 266.31 48.5706C267.468 49.2462 266.823 49.385 265.761 51.1947V51.2007Z" fill="url(#paint14_linear_1035_81544)"/>
<path d="M264.732 57.2267C263.749 56.1952 263.646 56.0082 263.453 55.7367C263.26 55.4653 263.514 54.9465 264.213 53.9934C264.913 53.0403 265.77 51.1944 265.77 51.1944C266.831 49.3847 267.477 49.2459 266.319 48.5703C266.874 48.7935 267.085 49.2278 267.344 49.5234C267.803 50.0482 268.611 50.9652 268.713 51.1522C268.816 51.3392 269.124 51.8519 268.822 52.6059C268.52 53.36 267.815 54.0778 267.815 54.0778C266.077 55.6523 264.63 57.6671 265.908 58.3186C265.589 58.1919 265.317 57.836 264.738 57.2267H264.732Z" fill="url(#paint15_linear_1035_81544)"/>
<path d="M270.403 56.575C271.302 54.6085 271.724 53.5649 271.338 53.3115C271.513 53.3718 271.67 53.4623 271.808 53.583C273.057 54.6809 273.497 55.2238 273.787 55.6279C274.076 56.0321 274.161 56.2432 273.473 57.5402C272.792 58.8371 272.092 61.6603 272.092 61.6603L269.57 59.374C269.57 59.374 269.6 58.1374 269.902 57.6186C270.21 57.0998 270.403 56.575 270.403 56.575Z" fill="url(#paint16_linear_1035_81544)"/>
<path d="M270.397 56.5757C270.397 56.5757 267.73 57.8968 266.765 58.2406C266.367 58.3793 266.12 58.4095 265.896 58.319C264.612 57.6675 266.065 55.6527 267.803 54.0783C267.803 54.0783 269.974 52.8236 271.338 53.3122C271.724 53.5655 271.295 54.6091 270.403 56.5757H270.397Z" fill="url(#paint17_linear_1035_81544)"/>
<g filter="url(#filter1_f_1035_81544)">
<path d="M322.52 35.0965L322.616 35C322.55 35.0784 322.52 35.0965 322.52 35.0965Z" fill="url(#paint18_linear_1035_81544)"/>
<path d="M327.761 36.2007C327.761 36.2007 324.594 37.1598 323.364 37.7269C322.398 38.1733 321.578 38.4628 321.065 38.3542C320.365 38.125 321.023 37.0693 322.525 35.0907C322.525 35.0907 323.937 34.0773 326.259 33.5706C327.266 33.3474 327.888 33.4017 328.31 33.5706C329.468 34.2462 328.823 34.385 327.761 36.1947V36.2007Z" fill="url(#paint19_linear_1035_81544)"/>
<path d="M326.732 42.2267C325.749 41.1952 325.646 41.0082 325.453 40.7367C325.26 40.4653 325.514 39.9465 326.213 38.9934C326.913 38.0403 327.77 36.1944 327.77 36.1944C328.831 34.3847 329.477 34.2459 328.319 33.5703C328.874 33.7935 329.085 34.2278 329.344 34.5234C329.803 35.0482 330.611 35.9652 330.713 36.1522C330.816 36.3392 331.124 36.8519 330.822 37.6059C330.52 38.36 329.815 39.0778 329.815 39.0778C328.077 40.6523 326.63 42.6671 327.908 43.3186C327.589 43.1919 327.317 42.836 326.738 42.2267H326.732Z" fill="url(#paint20_linear_1035_81544)"/>
<path d="M332.403 41.575C333.302 39.6085 333.724 38.5649 333.338 38.3115C333.513 38.3718 333.67 38.4623 333.808 38.583C335.057 39.6809 335.497 40.2238 335.787 40.6279C336.076 41.0321 336.161 41.2432 335.473 42.5402C334.792 43.8371 334.092 46.6603 334.092 46.6603L331.57 44.374C331.57 44.374 331.6 43.1374 331.902 42.6186C332.21 42.0998 332.403 41.575 332.403 41.575Z" fill="url(#paint21_linear_1035_81544)"/>
<path d="M332.397 41.5757C332.397 41.5757 329.73 42.8968 328.765 43.2406C328.367 43.3793 328.12 43.4095 327.896 43.319C326.612 42.6675 328.065 40.6527 329.803 39.0783C329.803 39.0783 331.974 37.8236 333.338 38.3122C333.724 38.5655 333.295 39.6091 332.403 41.5757H332.397Z" fill="url(#paint22_linear_1035_81544)"/>
</g>
<g filter="url(#filter2_f_1035_81544)">
<path d="M5.73438 11.6737L5.83088 11.5771C5.76452 11.6556 5.73438 11.6737 5.73438 11.6737Z" fill="url(#paint23_linear_1035_81544)"/>
<path d="M10.976 12.7778C10.976 12.7778 7.80898 13.737 6.57838 14.304C5.61321 14.7504 4.79281 15.04 4.28006 14.9314C3.58031 14.7022 4.23785 13.6465 5.7399 11.6679C5.7399 11.6679 7.15145 10.6545 9.4739 10.1477C10.4813 9.92454 11.1026 9.97883 11.5249 10.1477C12.6831 10.8234 12.0377 10.9621 10.976 12.7718V12.7778Z" fill="url(#paint24_linear_1035_81544)"/>
<path d="M9.94695 18.8039C8.96367 17.7723 8.86111 17.5853 8.66807 17.3139C8.47504 17.0424 8.7284 16.5236 9.42815 15.5705C10.1279 14.6174 10.9845 12.7715 10.9845 12.7715C12.0462 10.9618 12.6916 10.8231 11.5334 10.1475C12.0884 10.3707 12.2995 10.805 12.5589 11.1006C13.0174 11.6254 13.8257 12.5423 13.9283 12.7293C14.0308 12.9163 14.3385 13.4291 14.0369 14.1831C13.7353 14.9371 13.0295 15.655 13.0295 15.655C11.2921 17.2294 9.84438 19.2442 11.1232 19.8957C10.8035 19.769 10.5321 19.4131 9.95297 18.8039H9.94695Z" fill="url(#paint25_linear_1035_81544)"/>
<path d="M15.6176 18.1522C16.5164 16.1856 16.9387 15.142 16.5526 14.8887C16.7276 14.949 16.8844 15.0395 17.0231 15.1601C18.2718 16.258 18.7122 16.8009 19.0018 17.2051C19.2913 17.6093 19.3758 17.8204 18.6881 19.1173C18.0064 20.4143 17.3067 23.2374 17.3067 23.2374L14.7852 20.9512C14.7852 20.9512 14.8153 19.7145 15.1169 19.1958C15.4246 18.677 15.6176 18.1522 15.6176 18.1522Z" fill="url(#paint26_linear_1035_81544)"/>
<path d="M15.6114 18.1528C15.6114 18.1528 12.9451 19.4739 11.98 19.8177C11.5818 19.9565 11.3345 19.9867 11.1113 19.8962C9.82642 19.2447 11.2802 17.2299 13.0175 15.6554C13.0175 15.6554 15.1892 14.4007 16.5525 14.8893C16.9386 15.1427 16.5103 16.1863 15.6175 18.1528H15.6114Z" fill="url(#paint27_linear_1035_81544)"/>
</g>
<g filter="url(#filter3_f_1035_81544)">
<path d="M81.2068 59.6805C80.3983 60.3016 79.5289 60.6836 79.2898 60.7562C78.0712 61.1171 73.9161 57.7823 71.1953 54.2014C71.1953 54.2014 73.7849 52.3687 73.956 52.3359L76.7424 55.1997C79.0391 57.6487 81.7224 59.9735 82.0177 58.8861C81.9872 59.1743 81.6826 59.3173 81.2068 59.6805Z" fill="url(#paint28_linear_1035_81544)"/>
<path d="M78.6262 53.4655C76.1749 51.7407 74.8906 50.8783 74.7383 51.1829C74.75 51.0259 74.7922 50.8947 74.8836 50.7963C75.6804 49.9245 76.6108 49.2074 76.9576 49.0644C77.3044 48.9191 77.513 48.9214 79.1605 50.1541C80.808 51.3892 84.1358 53.2476 84.1358 53.2476L81.9704 55.4552C81.9704 55.4552 80.6041 54.9349 79.9362 54.4076C79.2683 53.8803 78.6262 53.4679 78.6262 53.4679V53.4655Z" fill="url(#paint29_linear_1035_81544)"/>
<path d="M78.6273 53.4653C78.6273 53.4653 80.952 56.7907 81.6434 57.9391C81.9269 58.4101 82.0371 58.682 82.016 58.8835C81.7207 59.9709 79.0374 57.6461 76.7407 55.1971C76.7407 55.1971 74.6503 52.4154 74.737 51.1804C74.8893 50.8757 76.1736 51.7405 78.6249 53.4629L78.6273 53.4653Z" fill="url(#paint30_linear_1035_81544)"/>
</g>
<defs>
<filter id="filter0_f_1035_81544" x="249" y="0" width="16.5938" height="19.6211" filterUnits="userSpaceOnUse" color-interpolation-filters="sRGB">
<feFlood flood-opacity="0" result="BackgroundImageFix"/>
<feBlend mode="normal" in="SourceGraphic" in2="BackgroundImageFix" result="shape"/>
<feGaussianBlur stdDeviation="1.5" result="effect1_foregroundBlur_1035_81544"/>
</filter>
<filter id="filter1_f_1035_81544" x="316.785" y="29.4229" width="23.2148" height="21.2373" filterUnits="userSpaceOnUse" color-interpolation-filters="sRGB">
<feFlood flood-opacity="0" result="BackgroundImageFix"/>
<feBlend mode="normal" in="SourceGraphic" in2="BackgroundImageFix" result="shape"/>
<feGaussianBlur stdDeviation="2" result="effect1_foregroundBlur_1035_81544"/>
</filter>
<filter id="filter2_f_1035_81544" x="0" y="6" width="23.2148" height="21.2373" filterUnits="userSpaceOnUse" color-interpolation-filters="sRGB">
<feFlood flood-opacity="0" result="BackgroundImageFix"/>
<feBlend mode="normal" in="SourceGraphic" in2="BackgroundImageFix" result="shape"/>
<feGaussianBlur stdDeviation="2" result="effect1_foregroundBlur_1035_81544"/>
</filter>
<filter id="filter3_f_1035_81544" x="69.1953" y="47" width="16.9414" height="15.7832" filterUnits="userSpaceOnUse" color-interpolation-filters="sRGB">
<feFlood flood-opacity="0" result="BackgroundImageFix"/>
<feBlend mode="normal" in="SourceGraphic" in2="BackgroundImageFix" result="shape"/>
<feGaussianBlur stdDeviation="1" result="effect1_foregroundBlur_1035_81544"/>
</filter>
<linearGradient id="paint0_linear_1035_81544" x1="80.6973" y1="13.4081" x2="87.2224" y2="19.9648" gradientUnits="userSpaceOnUse">
<stop stop-color="white"/>
<stop offset="0.19" stop-color="#D5D5D5"/>
<stop offset="0.68" stop-color="white"/>
<stop offset="0.91" stop-color="white"/>
</linearGradient>
<linearGradient id="paint1_linear_1035_81544" x1="86.7582" y1="10.6437" x2="91.6252" y2="15.5342" gradientUnits="userSpaceOnUse">
<stop stop-color="white"/>
<stop offset="0.19" stop-color="#D5D5D5"/>
<stop offset="0.68" stop-color="white"/>
<stop offset="0.91" stop-color="white"/>
</linearGradient>
<linearGradient id="paint2_linear_1035_81544" x1="90.6965" y1="6.68976" x2="96.1578" y2="12.1775" gradientUnits="userSpaceOnUse">
<stop stop-color="white"/>
<stop offset="0.19" stop-color="#D5D5D5"/>
<stop offset="0.68" stop-color="white"/>
<stop offset="0.91" stop-color="white"/>
</linearGradient>
<linearGradient id="paint3_linear_1035_81544" x1="220.152" y1="31.5246" x2="215.135" y2="19.3039" gradientUnits="userSpaceOnUse">
<stop stop-color="white"/>
<stop offset="0.19" stop-color="#D5D5D5"/>
<stop offset="0.68" stop-color="white"/>
<stop offset="0.91" stop-color="white"/>
</linearGradient>
<linearGradient id="paint4_linear_1035_81544" x1="45.7614" y1="27.5999" x2="42.3238" y2="19.1343" gradientUnits="userSpaceOnUse">
<stop stop-color="white"/>
<stop offset="0.68" stop-color="white"/>
<stop offset="0.91" stop-color="white"/>
</linearGradient>
<linearGradient id="paint5_linear_1035_81544" x1="42.4323" y1="29.321" x2="39.3319" y2="21.6857" gradientUnits="userSpaceOnUse">
<stop stop-color="white"/>
<stop offset="0.19" stop-color="#D5D5D5"/>
<stop offset="0.68" stop-color="white"/>
<stop offset="0.91" stop-color="white"/>
</linearGradient>
<linearGradient id="paint6_linear_1035_81544" x1="285.404" y1="29.5992" x2="288.84" y2="21.1366" gradientUnits="userSpaceOnUse">
<stop stop-color="white"/>
<stop offset="0.68" stop-color="white"/>
<stop offset="0.91" stop-color="white"/>
</linearGradient>
<linearGradient id="paint7_linear_1035_81544" x1="288.73" y1="31.3197" x2="291.829" y2="23.6871" gradientUnits="userSpaceOnUse">
<stop stop-color="white"/>
<stop offset="0.19" stop-color="#D5D5D5"/>
<stop offset="0.68" stop-color="white"/>
<stop offset="0.91" stop-color="white"/>
</linearGradient>
<linearGradient id="paint8_linear_1035_81544" x1="223.757" y1="70.0758" x2="224.33" y2="75.9508" gradientUnits="userSpaceOnUse">
<stop stop-color="white"/>
<stop offset="0.19" stop-color="#D5D5D5"/>
<stop offset="0.68" stop-color="white"/>
<stop offset="0.91" stop-color="white"/>
</linearGradient>
<linearGradient id="paint9_linear_1035_81544" x1="34.5139" y1="65.8484" x2="35.6608" y2="54.0984" gradientUnits="userSpaceOnUse">
<stop stop-color="white"/>
<stop offset="0.19" stop-color="#D5D5D5"/>
<stop offset="0.68" stop-color="white"/>
<stop offset="0.91" stop-color="white"/>
</linearGradient>
<linearGradient id="paint10_linear_1035_81544" x1="83.6131" y1="84.2518" x2="93.2091" y2="82.0413" gradientUnits="userSpaceOnUse">
<stop stop-color="white"/>
<stop offset="0.19" stop-color="#D5D5D5"/>
<stop offset="0.68" stop-color="white"/>
<stop offset="0.91" stop-color="white"/>
</linearGradient>
<linearGradient id="paint11_linear_1035_81544" x1="252.506" y1="14.1465" x2="265.97" y2="14.1465" gradientUnits="userSpaceOnUse">
<stop stop-color="white"/>
<stop offset="0.68" stop-color="white"/>
<stop offset="0.91" stop-color="white"/>
</linearGradient>
<linearGradient id="paint12_linear_1035_81544" x1="252.002" y1="8.6488" x2="264.145" y2="8.6488" gradientUnits="userSpaceOnUse">
<stop stop-color="white"/>
<stop offset="0.19" stop-color="#D5D5D5"/>
<stop offset="0.68" stop-color="white"/>
<stop offset="0.91" stop-color="white"/>
</linearGradient>
<linearGradient id="paint13_linear_1035_81544" x1="260.543" y1="49.9617" x2="260.45" y2="50.0644" gradientUnits="userSpaceOnUse">
<stop stop-color="white"/>
<stop offset="0.19" stop-color="#D5D5D5"/>
<stop offset="0.68" stop-color="white"/>
<stop offset="0.91" stop-color="white"/>
</linearGradient>
<linearGradient id="paint14_linear_1035_81544" x1="265.584" y1="47.8503" x2="259.857" y2="54.1637" gradientUnits="userSpaceOnUse">
<stop stop-color="white"/>
<stop offset="0.19" stop-color="#D5D5D5"/>
<stop offset="0.68" stop-color="white"/>
<stop offset="0.91" stop-color="white"/>
</linearGradient>
<linearGradient id="paint15_linear_1035_81544" x1="268.627" y1="50.5674" x2="263.48" y2="56.2419" gradientUnits="userSpaceOnUse">
<stop stop-color="white"/>
<stop offset="0.19" stop-color="#D5D5D5"/>
<stop offset="0.68" stop-color="white"/>
<stop offset="0.91" stop-color="white"/>
</linearGradient>
<linearGradient id="paint16_linear_1035_81544" x1="273.639" y1="55.2683" x2="269.744" y2="59.5621" gradientUnits="userSpaceOnUse">
<stop stop-color="white"/>
<stop offset="0.19" stop-color="#D5D5D5"/>
<stop offset="0.68" stop-color="white"/>
<stop offset="0.91" stop-color="white"/>
</linearGradient>
<linearGradient id="paint17_linear_1035_81544" x1="271.018" y1="53.0518" x2="266.045" y2="58.5342" gradientUnits="userSpaceOnUse">
<stop stop-color="white"/>
<stop offset="0.19" stop-color="#D5D5D5"/>
<stop offset="0.68" stop-color="white"/>
<stop offset="0.91" stop-color="white"/>
</linearGradient>
<linearGradient id="paint18_linear_1035_81544" x1="322.543" y1="34.9617" x2="322.45" y2="35.0644" gradientUnits="userSpaceOnUse">
<stop stop-color="white"/>
<stop offset="0.19" stop-color="#D5D5D5"/>
<stop offset="0.68" stop-color="white"/>
<stop offset="0.91" stop-color="white"/>
</linearGradient>
<linearGradient id="paint19_linear_1035_81544" x1="327.584" y1="32.8503" x2="321.857" y2="39.1637" gradientUnits="userSpaceOnUse">
<stop stop-color="white"/>
<stop offset="0.19" stop-color="#D5D5D5"/>
<stop offset="0.68" stop-color="white"/>
<stop offset="0.91" stop-color="white"/>
</linearGradient>
<linearGradient id="paint20_linear_1035_81544" x1="330.627" y1="35.5674" x2="325.48" y2="41.2419" gradientUnits="userSpaceOnUse">
<stop stop-color="white"/>
<stop offset="0.19" stop-color="#D5D5D5"/>
<stop offset="0.68" stop-color="white"/>
<stop offset="0.91" stop-color="white"/>
</linearGradient>
<linearGradient id="paint21_linear_1035_81544" x1="335.639" y1="40.2683" x2="331.744" y2="44.5621" gradientUnits="userSpaceOnUse">
<stop stop-color="white"/>
<stop offset="0.19" stop-color="#D5D5D5"/>
<stop offset="0.68" stop-color="white"/>
<stop offset="0.91" stop-color="white"/>
</linearGradient>
<linearGradient id="paint22_linear_1035_81544" x1="333.018" y1="38.0518" x2="328.045" y2="43.5342" gradientUnits="userSpaceOnUse">
<stop stop-color="white"/>
<stop offset="0.19" stop-color="#D5D5D5"/>
<stop offset="0.68" stop-color="white"/>
<stop offset="0.91" stop-color="white"/>
</linearGradient>
<linearGradient id="paint23_linear_1035_81544" x1="5.75827" y1="11.5388" x2="5.66506" y2="11.6416" gradientUnits="userSpaceOnUse">
<stop stop-color="white"/>
<stop offset="0.19" stop-color="#D5D5D5"/>
<stop offset="0.68" stop-color="white"/>
<stop offset="0.91" stop-color="white"/>
</linearGradient>
<linearGradient id="paint24_linear_1035_81544" x1="10.7984" y1="9.42748" x2="5.07174" y2="15.7409" gradientUnits="userSpaceOnUse">
<stop stop-color="white"/>
<stop offset="0.19" stop-color="#D5D5D5"/>
<stop offset="0.68" stop-color="white"/>
<stop offset="0.91" stop-color="white"/>
</linearGradient>
<linearGradient id="paint25_linear_1035_81544" x1="13.8416" y1="12.1446" x2="8.69449" y2="17.819" gradientUnits="userSpaceOnUse">
<stop stop-color="white"/>
<stop offset="0.19" stop-color="#D5D5D5"/>
<stop offset="0.68" stop-color="white"/>
<stop offset="0.91" stop-color="white"/>
</linearGradient>
<linearGradient id="paint26_linear_1035_81544" x1="18.854" y1="16.8454" x2="14.9592" y2="21.1392" gradientUnits="userSpaceOnUse">
<stop stop-color="white"/>
<stop offset="0.19" stop-color="#D5D5D5"/>
<stop offset="0.68" stop-color="white"/>
<stop offset="0.91" stop-color="white"/>
</linearGradient>
<linearGradient id="paint27_linear_1035_81544" x1="16.2329" y1="14.629" x2="11.2601" y2="20.1113" gradientUnits="userSpaceOnUse">
<stop stop-color="white"/>
<stop offset="0.19" stop-color="#D5D5D5"/>
<stop offset="0.68" stop-color="white"/>
<stop offset="0.91" stop-color="white"/>
</linearGradient>
<linearGradient id="paint28_linear_1035_81544" x1="72.5244" y1="52.8219" x2="80.5174" y2="60.5596" gradientUnits="userSpaceOnUse">
<stop stop-color="white"/>
<stop offset="0.19" stop-color="#D5D5D5"/>
<stop offset="0.68" stop-color="white"/>
<stop offset="0.91" stop-color="white"/>
</linearGradient>
<linearGradient id="paint29_linear_1035_81544" x1="76.3641" y1="49.2527" x2="82.3685" y2="55.0653" gradientUnits="userSpaceOnUse">
<stop stop-color="white"/>
<stop offset="0.19" stop-color="#D5D5D5"/>
<stop offset="0.68" stop-color="white"/>
<stop offset="0.91" stop-color="white"/>
</linearGradient>
<linearGradient id="paint30_linear_1035_81544" x1="74.5596" y1="51.3534" x2="82.2108" y2="58.7601" gradientUnits="userSpaceOnUse">
<stop stop-color="white"/>
<stop offset="0.68" stop-color="white"/>
</linearGradient>
</defs>
</svg>
