<svg width="36" height="37" viewBox="0 0 36 37" fill="none" xmlns="http://www.w3.org/2000/svg">
    <path
        d="M21.8979 10.0257L18.4572 12.6062L19.9088 17.337H24.8009L25.8761 12.6062L21.8979 10.0257Z"
        fill="#DDDDE3" />
    <path
        d="M34.1419 21.1447C35.0653 19.558 35.6802 17.771 35.9044 15.866C35.9052 15.86 35.9057 15.8539 35.9066 15.8479C35.9675 15.3233 35.9999 14.7899 35.9999 14.2491C35.9999 10.678 34.6311 7.42083 32.3909 4.9739C32.3552 4.92391 32.3132 4.87832 32.2654 4.83904C30.8103 3.29135 29.0019 2.07928 26.9697 1.33441C26.9332 1.31793 26.8953 1.3042 26.8566 1.29431C25.416 0.7807 23.8658 0.5 22.2509 0.5C20.4496 0.5 18.7284 0.848816 17.1505 1.48135C17.1076 1.49426 17.0664 1.51129 17.0266 1.53216C15.0864 2.33197 13.3681 3.56353 11.9916 5.10629C11.9465 5.14611 11.9064 5.19088 11.8726 5.24032C9.77397 7.65511 8.50176 10.8063 8.50176 14.2491C8.50176 14.7652 8.53142 15.2747 8.58718 15.7762C8.58773 15.7825 8.58855 15.7886 8.58937 15.7946C8.69155 16.7048 8.88298 17.5881 9.15462 18.436L1.7688 25.8218C1.49414 26.0965 1.49414 26.5417 1.7688 26.8163C1.90613 26.9537 2.08603 27.0223 2.26593 27.0223C2.44583 27.0223 2.62573 26.9537 2.76306 26.8163L9.70586 19.8738C9.89922 20.3031 10.114 20.7211 10.3488 21.1257C10.3703 21.174 10.3974 21.2194 10.429 21.2614C12.172 24.1884 14.9702 26.4164 18.2952 27.4173L13.3421 32.3702C13.0677 32.6448 13.0677 33.0901 13.3421 33.3647C13.4794 33.5021 13.6596 33.5707 13.8395 33.5707C14.0194 33.5707 14.1993 33.5021 14.3366 33.3647L19.9042 27.7969C20.6672 27.9287 21.451 27.9982 22.2509 27.9982C27.2592 27.9982 31.6502 25.3057 34.054 21.2927C34.0891 21.2471 34.1188 21.1977 34.1419 21.1447ZM28.0582 21.1724L25.5566 17.3228L26.8868 13.229L30.871 12.3345L34.4654 16.0256C34.2471 17.534 33.7549 18.9551 33.0408 20.2366L28.0582 21.1724ZM18.9453 17.3228L16.4449 21.1705L11.4469 20.2114C10.7309 18.9191 10.2403 17.4854 10.0278 15.9638L13.6269 12.3334L17.6152 13.229L18.9453 17.3228ZM12.0166 7.35656L12.6507 11.3207L9.9102 14.0851C9.94289 11.597 10.7144 9.28383 12.0166 7.35656ZM20.2285 16.7216L18.9865 12.8992L22.2379 10.5371L25.4893 12.8994L24.2473 16.7216H20.2285ZM34.5923 14.1403L31.8375 11.3114L32.3245 7.12447C33.7335 9.11107 34.5695 11.5303 34.5923 14.1403ZM31.0822 5.63555L30.4598 10.9856L26.4979 11.875L22.9669 9.30965V5.50317L26.783 2.76812C28.4147 3.41467 29.8762 4.39959 31.0822 5.63555ZM25.1056 2.24023L22.2212 4.30758L19.0055 2.34021C20.0401 2.05786 21.1281 1.90625 22.2509 1.90625C23.2333 1.90625 24.1891 2.02215 25.1056 2.24023ZM17.299 2.94445L21.5348 5.53613V9.30965L18.0041 11.875L14.0205 10.9807L13.202 5.86462C14.3459 4.63085 15.7382 3.63082 17.299 2.94445ZM12.5343 21.8519L16.3281 22.5803L18.2603 25.9295C15.9777 25.1475 13.9946 23.7141 12.5343 21.8519ZM20.1637 26.4145L17.6009 21.9722L20.0992 18.1278H24.4025L26.9008 21.9722L24.3385 26.4142C23.6596 26.5304 22.9622 26.5917 22.2509 26.5917C21.5395 26.5919 20.8424 26.5307 20.1637 26.4145ZM26.2416 25.9295L28.1727 22.5817L31.952 21.8717C30.4933 23.7242 28.5163 25.1503 26.2416 25.9295Z"
        fill="#515158" />
    <path
        d="M9.68361 25.8218L0.205993 35.2997C-0.0686644 35.5743 -0.0686644 36.0196 0.205993 36.2942C0.343322 36.4313 0.523223 36.4999 0.703124 36.4999C0.883025 36.4999 1.06293 36.4313 1.20025 36.294L10.6781 26.8163C10.9525 26.5417 10.9525 26.0965 10.6781 25.8218C10.4035 25.5474 9.95827 25.5474 9.68361 25.8218Z"
        fill="#515158" />
    <path
        d="M11.6823 34.3211C11.4974 34.3211 11.3162 34.3963 11.1854 34.5271C11.0547 34.6578 10.9792 34.8391 10.9792 35.0248C10.9792 35.2096 11.0544 35.3903 11.1854 35.5213C11.3162 35.6529 11.4974 35.7279 11.6823 35.7279C11.8674 35.7279 12.0487 35.6529 12.1794 35.5213C12.3101 35.3906 12.3854 35.2096 12.3854 35.0248C12.3854 34.8391 12.3104 34.6578 12.1794 34.5271C12.0487 34.3963 11.8674 34.3211 11.6823 34.3211Z"
        fill="#515158" />
</svg>