<svg width="30" height="31" viewBox="0 0 30 31" fill="none" xmlns="http://www.w3.org/2000/svg">
<g clip-path="url(#clip0_1262_85673)">
<path d="M14.9961 1.78906C7.06785 1.78906 0.640625 8.21628 0.640625 16.1447C0.640625 19.1639 1.57355 21.9647 3.16565 24.2767L14.6576 30.4958C14.7702 30.4986 14.883 30.5002 14.9963 30.5002C22.9245 30.5002 29.3517 24.073 29.3517 16.1447C29.3517 8.21628 22.9245 1.78906 14.9961 1.78906Z" fill="#FFD1A4"/>
<path d="M17.6539 0.5L6.33613 0.500458C4.51927 0.500687 3.04665 1.97331 3.04688 3.79017L3.04779 24.0913C5.6147 27.9456 9.99526 30.4883 14.9709 30.4995H15.0373C16.7253 30.4958 18.3444 30.2001 19.8479 29.6613C20.5208 29.0589 20.9445 28.1841 20.9445 27.2098L20.9433 3.78926C20.9433 1.97262 19.4705 0.499771 17.6539 0.5Z" fill="#FF3F1A"/>
<path d="M6.33613 0.500458C4.51927 0.500687 3.04665 1.97331 3.04688 3.79017L3.04779 24.0913C3.9949 25.5133 5.18898 26.7566 6.56867 27.7602C6.53869 27.5815 6.52221 27.3982 6.52198 27.2107L6.52084 3.79017C6.52084 1.97354 7.99346 0.500687 9.81032 0.500687V0.500229C9.80803 0.500229 9.81238 0.5 9.81032 0.5L6.33613 0.500458Z" fill="#A5260E"/>
<path d="M17.6533 2.21973H15.5546C15.3395 2.21973 15.1443 2.34332 15.0495 2.53673C14.8424 2.95947 14.4084 3.25061 13.9058 3.25061L10.0832 3.25084C9.58083 3.25084 9.14665 2.9597 8.93951 2.53696C8.84475 2.34355 8.64951 2.22018 8.43414 2.22018H6.33552C5.46829 2.22018 4.76562 2.92331 4.76562 3.79031L4.76654 26.2076C5.76767 27.2259 6.91917 28.0961 8.18557 28.781L17.6546 28.7805C18.5219 28.7803 19.2248 28.0774 19.2248 27.2104L19.2236 3.78962C19.2234 2.92262 18.5205 2.21973 17.6533 2.21973Z" fill="#E6FCFF"/>
<path d="M6.33552 2.21973C5.46829 2.21973 4.76562 2.92285 4.76562 3.78985L4.76654 26.2072C5.32249 26.7728 5.92468 27.2921 6.56738 27.7597C6.5374 27.5812 6.52137 27.3978 6.52137 27.2106L6.52023 3.79008C6.52023 3.22131 6.66465 2.68642 6.91848 2.21973H6.33552Z" fill="#CCEBFF"/>
<path d="M16.9407 5.48145H7.03908C6.75 5.48145 6.51562 5.71559 6.51562 6.00467V10.4956C6.51562 10.7846 6.75 11.019 7.03908 11.019H16.9407C17.23 11.019 17.4642 10.7846 17.4642 10.4956V6.00467C17.4642 5.71582 17.2298 5.48145 16.9407 5.48145Z" fill="#FE4675"/>
<path d="M8.83511 10.4956V6.00467C8.83511 5.71582 9.06948 5.48145 9.35856 5.48145H7.03908C6.75 5.48145 6.51562 5.71582 6.51562 6.00467V10.4956C6.51562 10.7846 6.75 11.019 7.03908 11.019H9.35856C9.06948 11.019 8.83511 10.7846 8.83511 10.4956Z" fill="#EC3969"/>
<path d="M16.8196 27.0191H13.4756C13.1195 27.0191 12.8281 26.7275 12.8281 26.3713V23.0274C12.8281 22.6712 13.1195 22.3799 13.4756 22.3799H16.8196C17.1757 22.3799 17.4671 22.6712 17.4671 23.0274V26.3713C17.4671 26.7275 17.1757 27.0191 16.8196 27.0191Z" fill="#205DD9"/>
<path d="M10.5071 27.0191H7.16313C6.80699 27.0191 6.51562 26.7275 6.51562 26.3713V23.0274C6.51562 22.6712 6.80699 22.3799 7.16313 22.3799H10.5071C10.8632 22.3799 11.1548 22.6712 11.1548 23.0274V26.3713C11.1548 26.7275 10.8635 27.0191 10.5071 27.0191Z" fill="#51E0F4"/>
<path d="M8.83511 26.3713V23.0274C8.83511 22.6712 9.1267 22.3799 9.48284 22.3799H7.16336C6.80699 22.3799 6.51562 22.6712 6.51562 23.0274V26.3713C6.51562 26.7275 6.80699 27.0191 7.16336 27.0191H9.48284C9.1267 27.0191 8.83511 26.7275 8.83511 26.3713Z" fill="#15D4F0"/>
<path d="M7.16313 20.7525H10.5071C10.8635 20.7525 11.1548 20.4611 11.1548 20.105V16.761C11.1548 16.4049 10.8635 16.1133 10.5071 16.1133H7.16313C6.80699 16.1133 6.51562 16.4046 6.51562 16.761V20.105C6.51562 20.4611 6.80699 20.7525 7.16313 20.7525Z" fill="#F9CE00"/>
<path d="M8.83511 20.105V16.761C8.83511 16.4049 9.1267 16.1133 9.48284 16.1133H7.16336C6.80699 16.1133 6.51562 16.4046 6.51562 16.761V20.105C6.51562 20.4611 6.80699 20.7525 7.16336 20.7525H9.48284C9.1267 20.7525 8.83511 20.4611 8.83511 20.105Z" fill="#F4B500"/>
<path d="M13.4759 20.7525H16.8198C17.176 20.7525 17.4673 20.4611 17.4673 20.105V16.761C17.4673 16.4049 17.176 16.1133 16.8198 16.1133H13.4759C13.1197 16.1133 12.8281 16.4046 12.8281 16.761V20.105C12.8281 20.4611 13.1197 20.7525 13.4759 20.7525Z" fill="#8DAE16"/>
<path d="M15.1476 20.105V16.761C15.1476 16.4049 15.439 16.1133 15.7951 16.1133H13.4756C13.1195 16.1133 12.8281 16.4046 12.8281 16.761V20.105C12.8281 20.4611 13.1195 20.7525 13.4756 20.7525H15.7951C15.439 20.7525 15.1476 20.4611 15.1476 20.105Z" fill="#749C18"/>
<path d="M14.181 8.72758H9.78995C9.52628 8.72758 9.3125 8.51381 9.3125 8.25014C9.3125 7.98624 9.52628 7.77246 9.78995 7.77246H14.181C14.4447 7.77246 14.6585 7.98624 14.6585 8.25014C14.6585 8.51381 14.4447 8.72758 14.181 8.72758Z" fill="#FC6590"/>
<path d="M17.4673 19.2549V20.1686C17.4673 20.5247 17.176 20.8161 16.8198 20.8161H13.4759C13.1195 20.8161 12.8281 20.5247 12.8281 20.1686V19.2549H17.4673Z" fill="#A5C013"/>
<path d="M15.1469 20.1686V19.2549H12.8281V20.1686C12.8281 20.5247 13.1195 20.8161 13.4759 20.8161H15.7944C15.4383 20.8161 15.1469 20.5247 15.1469 20.1686Z" fill="#8DAE16"/>
<path d="M11.1548 19.2549V20.1686C11.1548 20.5247 10.8635 20.8161 10.5071 20.8161H7.16313C6.80699 20.8161 6.51562 20.5247 6.51562 20.1686V19.2549H11.1548Z" fill="#FFE600"/>
<path d="M8.83442 20.1686V19.2549H6.51562V20.1686C6.51562 20.5247 6.80699 20.8161 7.16313 20.8161H9.48193C9.12579 20.8161 8.83442 20.5247 8.83442 20.1686Z" fill="#F9CE00"/>
<path d="M6.51562 25.5215V26.4354C6.51562 26.7915 6.80699 27.0829 7.16313 27.0829H10.5071C10.8635 27.0829 11.1548 26.7915 11.1548 26.4354V25.5215H6.51562Z" fill="#8CECF8"/>
<path d="M8.83442 26.4354V25.5215H6.51562V26.4354C6.51562 26.7913 6.80699 27.0829 7.16313 27.0829H9.48193C9.12579 27.0829 8.83442 26.7913 8.83442 26.4354Z" fill="#51E0F4"/>
<path d="M12.8281 25.5215V26.4354C12.8281 26.7915 13.1195 27.0829 13.4759 27.0829H16.8198C17.176 27.0829 17.4673 26.7915 17.4673 26.4354V25.5215H12.8281Z" fill="#5F83FA"/>
<path d="M15.1469 26.4354V25.5215H12.8281V26.4354C12.8281 26.7913 13.1195 27.0829 13.4759 27.0829H15.7944C15.4383 27.0829 15.1469 26.7913 15.1469 26.4354Z" fill="#4070EA"/>
<path d="M26.1504 21.4731C24.4887 18.5953 20.809 17.6095 17.9312 19.271C15.0535 20.9324 14.0675 24.6124 15.7289 27.4901C17.3906 30.3679 21.0704 31.3539 23.9481 29.6922C26.8258 28.0307 27.8118 24.351 26.1504 21.4731Z" fill="#2DC26D"/>
<path d="M21.6673 27.7443C21.0518 26.6782 21.1635 25.3923 21.8479 24.4594L21.5489 23.9419C20.399 24.0678 19.1294 23.3484 18.514 22.2823C17.8667 21.1612 18.0233 19.7966 18.8047 18.8555C18.5076 18.9688 18.2155 19.1066 17.9312 19.2707C15.0535 20.9321 14.0675 24.6121 15.7289 27.49C17.3904 30.3678 21.0704 31.3538 23.9483 29.6923C24.1925 29.5511 24.423 29.3952 24.6395 29.2268C23.4777 29.3689 22.2896 28.8219 21.6673 27.7443Z" fill="#079449"/>
<path d="M16.7512 14.4576H9.1253C8.6506 14.4576 8.26562 14.0727 8.26562 13.598C8.26562 13.123 8.6506 12.7383 9.1253 12.7383H16.7509C17.2259 12.7383 17.6106 13.123 17.6106 13.598C17.6106 14.0727 17.2259 14.4576 16.7512 14.4576Z" fill="#CCEBFF"/>
<path d="M11.928 13.598C11.928 13.123 12.3129 12.7383 12.7876 12.7383H9.1253C8.6506 12.7383 8.26562 13.123 8.26562 13.598C8.26562 14.0727 8.6506 14.4576 9.1253 14.4576H12.7876C12.3129 14.4576 11.928 14.0727 11.928 13.598Z" fill="#B8DFF4"/>
<path d="M9.12619 14.4576H7.24249C6.76779 14.4576 6.38281 14.0727 6.38281 13.598C6.38281 13.123 6.76779 12.7383 7.24249 12.7383H9.12619C9.60111 12.7383 9.98586 13.123 9.98586 13.598C9.98586 14.0727 9.60111 14.4576 9.12619 14.4576Z" fill="#FE4675"/>
<path d="M8.25369 13.598C8.25369 13.123 8.63867 12.7383 9.11337 12.7383H7.24249C6.76779 12.7383 6.38281 13.123 6.38281 13.598C6.38281 14.0727 6.76779 14.4576 7.24249 14.4576H9.11337C8.63867 14.4576 8.25369 14.0727 8.25369 13.598Z" fill="#EC3969"/>
<g clip-path="url(#clip1_1262_85673)">
<path d="M18.7578 24.5L20.3203 26.0625L23.4453 22.9375" stroke="white" stroke-width="1.125" stroke-linecap="round" stroke-linejoin="round"/>
</g>
</g>
<defs>
<clipPath id="clip0_1262_85673">
<rect width="30" height="30" fill="white" transform="translate(0 0.5)"/>
</clipPath>
<clipPath id="clip1_1262_85673">
<rect width="7.5" height="7.5" fill="white" transform="translate(17.1953 20.75)"/>
</clipPath>
</defs>
</svg>
