<svg width="42" height="42" viewBox="0 0 42 42" fill="none" xmlns="http://www.w3.org/2000/svg">
<g clip-path="url(#clip0_1063_83195)">
<rect opacity="0.5" width="42" height="42" rx="8" fill="#E9E1FD"/>
<path d="M11.8164 23.0874V28.9743H32.5063C33.0974 28.9743 33.5766 28.4951 33.5766 27.9039C33.5766 27.3842 33.5766 23.6061 33.5766 23.0874L22.6965 21.6602L11.8164 23.0874Z" fill="#8B9BA9"/>
<path d="M31.4359 22.8008V26.8324H11.8164V28.9731H32.5063C33.0974 28.9731 33.5766 28.4939 33.5766 27.9028C33.5766 27.4103 33.5766 23.5693 33.5766 23.0862L31.4359 22.8008Z" fill="#6C7A88"/>
<path d="M34.5418 8.98047H15.0295C14.4384 8.98047 13.9591 9.4597 13.9591 10.0508V13.3864H6.82109C5.81983 13.3864 4.95229 14.0805 4.73258 15.0574L3.92248 18.6599C3.71441 19.5853 3.60938 20.5309 3.60938 21.4794V28.9725H13.9591C13.9591 28.7983 13.9591 26.1509 13.9591 23.0855H34.5419C35.133 23.0855 35.6122 22.6063 35.6122 22.0152V10.0508C35.6121 9.45963 35.133 8.98047 34.5418 8.98047Z" fill="#A079FC"/>
<path d="M38.4666 18.4889H35.6122V16.5682H37.0394C37.335 16.5682 37.5745 16.3286 37.5745 16.033C37.5745 15.7374 37.335 15.4978 37.0394 15.4978H35.6122V13.5771H37.7529C38.0485 13.5771 38.2881 13.3375 38.2881 13.0419C38.2881 12.7464 38.0485 12.5068 37.7529 12.5068H35.6122V10.586H38.4666C38.7622 10.586 39.0017 10.3464 39.0017 10.0508C39.0017 9.75526 38.7622 9.51564 38.4666 9.51564H35.4678C35.2827 9.19604 34.9378 8.98047 34.5419 8.98047H33.4715V20.9449H13.9591C13.9591 17.1796 13.9591 13.488 13.9591 13.3863H11.8185V23.0856H10.213C8.65271 23.0856 7.23338 23.6969 6.17889 24.6911H3.60938V28.9725H13.9591C13.9591 28.8273 13.9591 26.1679 13.9591 23.0856H20.5562H34.5419C34.9378 23.0856 35.2827 22.87 35.4678 22.5504H37.7529C38.0485 22.5504 38.2881 22.3108 38.2881 22.0153C38.2881 21.7197 38.0485 21.4801 37.7529 21.4801H35.6122V19.5593H38.4666C38.7622 19.5593 39.0017 19.3197 39.0017 19.0241C39.0017 18.7286 38.7622 18.4889 38.4666 18.4889Z" fill="#733DF2"/>
<path d="M3.53614 28.9727H7.45328V26.832H3.53614C3.24059 26.832 3.00098 27.0716 3.00098 27.3672V28.4376C3.00098 28.7332 3.24059 28.9727 3.53614 28.9727Z" fill="#8B9BA9"/>
<path d="M11.8155 15.5273H6.69045L5.67285 20.0526H11.8155V15.5273Z" fill="#E9E1FD"/>
<path d="M9.80248 17.9119H6.15422L5.67285 20.0526H11.8155V15.5273H9.80248V17.9119Z" fill="#D2C3FF"/>
<path d="M28.4034 32.719C30.4723 32.719 32.1496 31.0418 32.1496 28.9728C32.1496 26.9038 30.4723 25.2266 28.4034 25.2266C26.3344 25.2266 24.6572 26.9038 24.6572 28.9728C24.6572 31.0418 26.3344 32.719 28.4034 32.719Z" fill="#4D5967"/>
<path d="M29.1694 25.3047C28.7302 26.1159 28.853 27.1509 29.5388 27.8366L27.2682 30.1071C26.5826 29.4214 25.5476 29.2985 24.7363 29.7377C25.0908 31.4372 26.6003 32.7181 28.4035 32.7181C30.4692 32.7181 32.1497 31.0375 32.1497 28.9718C32.1496 27.1686 30.8688 25.6592 29.1694 25.3047Z" fill="#35404A"/>
<path d="M28.4043 30.5782C29.291 30.5782 30.0098 29.8594 30.0098 28.9727C30.0098 28.086 29.291 27.3672 28.4043 27.3672C27.5176 27.3672 26.7988 28.086 26.7988 28.9727C26.7988 29.8594 27.5176 30.5782 28.4043 30.5782Z" fill="#FFF9EB"/>
<path d="M10.2091 32.719C12.278 32.719 13.9552 31.0418 13.9552 28.9728C13.9552 26.9038 12.278 25.2266 10.2091 25.2266C8.14011 25.2266 6.46289 26.9038 6.46289 28.9728C6.46289 31.0418 8.14011 32.719 10.2091 32.719Z" fill="#4D5967"/>
<path d="M10.975 25.3047C10.5359 26.1159 10.6587 27.1509 11.3444 27.8366L9.0739 30.1071C8.38825 29.4214 7.3533 29.2985 6.54199 29.7377C6.89649 31.4372 8.40594 32.7181 10.2092 32.7181C12.2748 32.7181 13.9553 31.0375 13.9553 28.9718C13.9553 27.1686 12.6746 25.6592 10.975 25.3047Z" fill="#35404A"/>
<path d="M10.21 30.5782C11.0967 30.5782 11.8155 29.8594 11.8155 28.9727C11.8155 28.086 11.0967 27.3672 10.21 27.3672C9.3233 27.3672 8.60449 28.086 8.60449 28.9727C8.60449 29.8594 9.3233 30.5782 10.21 30.5782Z" fill="#FFF9EB"/>
<path d="M19.3729 14.9607V15.4959H20.0507C20.3462 15.4959 20.5857 15.7353 20.5857 16.031C20.5857 16.3266 20.3462 16.5661 20.0507 16.5661H19.3729V17.6363C19.3729 17.932 19.1332 18.1715 18.8378 18.1715C18.5423 18.1715 18.3027 17.9321 18.3027 17.6363V14.4257C18.3027 14.1301 18.5423 13.8906 18.8378 13.8906H20.4787C20.7743 13.8906 21.0137 14.1301 21.0137 14.4257C21.0137 14.7213 20.7743 14.9608 20.4787 14.9608H19.3729V14.9607Z" fill="#FFF9EB"/>
<path d="M24.4729 17.2597C24.6808 17.4694 24.6795 17.8083 24.4697 18.0164C24.3652 18.1198 24.2291 18.1715 24.0929 18.1715C23.9551 18.1715 23.8175 18.1187 23.7129 18.0132L22.8087 17.1013H22.5232V17.6363C22.5232 17.932 22.2836 18.1715 21.9881 18.1715C21.6927 18.1715 21.4531 17.9321 21.4531 17.6363V14.4257C21.4531 14.1301 21.6927 13.8906 21.9881 13.8906H23.0317C23.9119 13.8906 24.628 14.6108 24.628 15.4959C24.628 16.0181 24.3786 16.4827 23.9934 16.7761L24.4729 17.2597ZM23.5578 15.4959C23.5578 15.2008 23.3217 14.9608 23.0317 14.9608H22.5232V16.031H23.0317C23.3217 16.031 23.5578 15.7909 23.5578 15.4959Z" fill="#FFF9EB"/>
<path d="M27.9444 17.6363C27.9444 17.932 27.7049 18.1715 27.4094 18.1715H25.7684C25.4729 18.1715 25.2334 17.9321 25.2334 17.6363V14.4257C25.2334 14.1301 25.4729 13.8906 25.7684 13.8906H27.4094C27.7049 13.8906 27.9444 14.1301 27.9444 14.4257C27.9444 14.7213 27.7049 14.9608 27.4094 14.9608H26.3035V15.496H26.9813C27.2769 15.496 27.5163 15.7355 27.5163 16.0311C27.5163 16.3267 27.2769 16.5663 26.9813 16.5663H26.3035V17.1014H27.4094C27.7049 17.1013 27.9444 17.3408 27.9444 17.6363Z" fill="#FFF9EB"/>
<path d="M31.2657 17.6363C31.2657 17.932 31.0262 18.1715 30.7307 18.1715H29.0897C28.7942 18.1715 28.5547 17.9321 28.5547 17.6363V14.4257C28.5547 14.1301 28.7942 13.8906 29.0897 13.8906H30.7307C31.0262 13.8906 31.2657 14.1301 31.2657 14.4257C31.2657 14.7213 31.0262 14.9608 30.7307 14.9608H29.6248V15.496H30.3026C30.5982 15.496 30.8376 15.7355 30.8376 16.0311C30.8376 16.3267 30.5982 16.5663 30.3026 16.5663H29.6248V17.1014H30.7307C31.0262 17.1013 31.2657 17.3408 31.2657 17.6363Z" fill="#FFF9EB"/>
</g>
<defs>
<clipPath id="clip0_1063_83195">
<rect width="42" height="42" fill="white"/>
</clipPath>
</defs>
</svg>
