<svg width="24" height="24" viewBox="0 0 24 24" fill="none" xmlns="http://www.w3.org/2000/svg">
<g clip-path="url(#clip0_753_61140)">
<g clip-path="url(#clip1_753_61140)">
<path fill-rule="evenodd" clip-rule="evenodd" d="M3.86837 12.0435H11.3307V22.0763H5.27032C4.49925 22.0763 3.86841 21.4455 3.86841 20.6744L3.86837 12.0435ZM12.6682 22.0763H18.7286C19.4997 22.0763 20.1305 21.4455 20.1305 20.6744V12.0435H12.6682V22.0763ZM21.6376 8.18109V9.81096C21.6376 10.3032 21.2349 10.706 20.7427 10.706H12.6682V8.62374H11.3307V10.706H3.25625C2.76403 10.706 2.36133 10.3032 2.36133 9.81096V8.18109C2.36133 7.68887 2.76403 7.28613 3.25625 7.28613H5.7007C5.04467 6.46597 5.06665 5.71783 5.13322 5.35696C5.29551 4.47773 6.05141 3.80667 7.05842 3.64755C8.25719 3.45828 9.90866 3.97542 11.4135 5.78734C11.6202 4.45223 12.1291 3.24628 12.9343 2.18782C13.1581 1.89359 13.5777 1.83689 13.8716 2.0603C14.1654 2.28412 14.2225 2.70367 13.9991 2.99749C13.4204 3.75816 13.03 4.59071 12.8226 5.5135C14.2617 3.92309 15.8043 3.46787 16.9404 3.64755C17.9476 3.80671 18.7033 4.47773 18.8656 5.35696C18.9321 5.71783 18.9542 6.46597 18.2982 7.28613H20.7426C21.2349 7.28613 21.6376 7.68882 21.6376 8.18109ZM10.8677 7.28613C9.57403 5.38094 8.16137 4.82737 7.2673 4.96866C6.82131 5.03906 6.50756 5.2812 6.44857 5.59995C6.37452 6.00032 6.6872 6.65395 7.78667 7.28613H10.8677ZM17.5504 5.59995C17.4916 5.2812 17.1777 5.03906 16.7319 4.96866C15.8379 4.82772 14.4249 5.38104 13.1312 7.28613H16.2124C17.3117 6.65395 17.6245 6.00032 17.5504 5.59995Z" fill="url(#paint0_linear_753_61140)"/>
</g>
</g>
<defs>
<linearGradient id="paint0_linear_753_61140" x1="11.9995" y1="1.92383" x2="11.9995" y2="22.0763" gradientUnits="userSpaceOnUse">
<stop stop-color="#A6A6B0"/>
<stop offset="1" stop-color="#B3B3D2"/>
</linearGradient>
<clipPath id="clip0_753_61140">
<rect width="24" height="24" fill="white"/>
</clipPath>
<clipPath id="clip1_753_61140">
<rect width="24" height="24" fill="white"/>
</clipPath>
</defs>
</svg>
