<svg width="42" height="42" viewBox="0 0 42 42" fill="none" xmlns="http://www.w3.org/2000/svg">
<g clip-path="url(#clip0_1063_83226)">
<rect opacity="0.5" width="42" height="42" rx="8" fill="#E9E1FD"/>
<g clip-path="url(#clip1_1063_83226)">
<path fill-rule="evenodd" clip-rule="evenodd" d="M33.2916 7.87617C34.4748 7.87617 35.4338 6.91802 35.4338 5.73797C35.4338 4.5558 34.4748 3.59766 33.2916 3.59766C32.1084 3.59766 31.1494 4.5558 31.1494 5.73797C31.1494 6.91802 32.1084 7.87617 33.2916 7.87617Z" fill="#BFA4FE"/>
<path fill-rule="evenodd" clip-rule="evenodd" d="M13.5471 22.5563L11.0562 18.7362C2.55792 12.083 -0.881624 24.4416 9.08623 23.2595L13.5471 22.5563Z" fill="#D2C3FF"/>
<path fill-rule="evenodd" clip-rule="evenodd" d="M17.2021 18.741C23.4481 10.8933 11.12 7.31782 12.3157 18.0379L14.3936 21.6154L17.2021 18.741Z" fill="#D2C3FF"/>
<path fill-rule="evenodd" clip-rule="evenodd" d="M18.274 38.4029L19.8121 31.4386L18.274 24.8435H15.1312L11.2848 24.5117L10.5146 27.4152V37.0382C10.5146 37.789 11.1291 38.4029 11.8805 38.4029H18.274Z" fill="#D2C3FF"/>
<path fill-rule="evenodd" clip-rule="evenodd" d="M31.1417 37.0385V28.1579V25.6069C31.1417 25.188 30.7971 24.8438 30.3779 24.8438H23.3825L21.5537 31.6255L23.3825 38.4032H29.7758C30.5273 38.4031 31.1417 37.7892 31.1417 37.0385Z" fill="#D2C3FF"/>
<path fill-rule="evenodd" clip-rule="evenodd" d="M17.2013 18.7377C21.4877 13.3516 17.0249 9.97735 14.1914 11.8564C16.5266 11.987 18.5485 14.7827 15.6528 18.802L15.9932 19.4096L17.2013 18.7377Z" fill="#8352FA"/>
<path fill-rule="evenodd" clip-rule="evenodd" d="M11.0561 18.7362C6.20709 14.9409 3.00626 17.3321 3 19.8685C4.00884 18.4085 6.36277 17.7137 9.55327 19.7752C9.68194 19.5761 9.85842 19.404 10.0805 19.2816L11.0561 18.7362Z" fill="#8352FA"/>
<path fill-rule="evenodd" clip-rule="evenodd" d="M18.2734 24.8438H23.384V38.4031H18.2734V24.8438Z" fill="#8352FA"/>
<path fill-rule="evenodd" clip-rule="evenodd" d="M31.1428 28.1579V25.6069C31.1428 25.188 30.7982 24.8438 30.3789 24.8438H27.2964C27.7158 24.8438 28.0603 25.188 28.0603 25.6069V28.1579V37.0384C28.0603 37.7892 27.4438 38.403 26.6924 38.403H29.777C30.5284 38.403 31.1429 37.7891 31.1429 37.0384V28.1579H31.1428Z" fill="#BFA4FE"/>
<path d="M9.31854 21.0055C9.25779 21.0055 9.19605 20.9951 9.13566 20.9732C8.36587 20.6933 7.75936 20.5277 6.5805 20.3987C6.28673 20.3666 6.0746 20.1024 6.10673 19.8087C6.13887 19.5151 6.40296 19.3032 6.69701 19.3352C7.83551 19.4598 8.5432 19.6194 9.50149 19.9678C9.77923 20.0687 9.92252 20.3756 9.82155 20.6533C9.74252 20.8706 9.53721 21.0055 9.31854 21.0055Z" fill="#8352FA"/>
<path d="M14.7038 18.0748C14.6896 18.0748 14.6754 18.0743 14.6609 18.0731C14.3663 18.0498 14.1463 17.7922 14.1697 17.4976C14.2387 16.6269 14.6471 15.407 15.1408 14.5967C15.2945 14.3444 15.6237 14.2642 15.8762 14.418C16.1286 14.5716 16.2087 14.9008 16.055 15.1531C15.6516 15.8151 15.2922 16.8821 15.2367 17.5821C15.2146 17.8622 14.9802 18.0748 14.7038 18.0748Z" fill="#8352FA"/>
<path d="M27.206 22.3093C27.0762 22.3093 26.9462 22.2624 26.8432 22.1675C26.6259 21.9672 26.6123 21.6288 26.8127 21.4117C29.104 18.9291 28.4248 12.3888 28.4177 12.323C28.3859 12.0293 28.5982 11.7654 28.8921 11.7336C29.1862 11.7021 29.45 11.9141 29.4818 12.2078C29.5131 12.496 30.2169 19.3011 27.5995 22.137C27.494 22.2513 27.3502 22.3093 27.206 22.3093Z" fill="#BFA4FE"/>
<path d="M32.6304 14.8557C32.5909 14.8557 32.5508 14.8513 32.5106 14.8421C32.2229 14.7762 32.0428 14.4905 32.1081 14.2028C32.1199 14.1509 32.4076 12.9142 33.3129 11.5286C34.5186 9.68343 36.2572 8.44536 38.3407 7.94832C38.6283 7.87977 38.917 8.05703 38.9856 8.34439C39.0542 8.63176 38.8767 8.92032 38.5893 8.98888C36.7638 9.42439 35.2971 10.465 34.2301 12.0818C33.4192 13.3105 33.1543 14.4295 33.1517 14.4406C33.0945 14.6879 32.874 14.8557 32.6304 14.8557Z" fill="#BFA4FE"/>
<path fill-rule="evenodd" clip-rule="evenodd" d="M26.8051 8.2587L27.8554 6.99364C28.0712 6.74888 28.0568 6.67632 27.7392 6.5975L26.1076 6.19306C25.9229 6.14743 25.9125 6.09764 25.8212 5.9483L24.9971 4.57327C24.831 4.29329 24.7294 4.29329 24.5612 4.57327L23.7371 5.9483C23.6479 6.09764 23.6354 6.14743 23.4507 6.19306L21.8191 6.5975C21.5036 6.67632 21.487 6.74888 21.7029 6.99364L22.7553 8.2587C22.8674 8.39349 22.884 8.55113 22.8695 8.74196L22.7429 10.3057C22.7076 10.6292 22.7761 10.6687 23.0792 10.5463L24.5136 9.94901C24.6631 9.88679 24.8976 9.88679 25.045 9.94901L26.4814 10.5463C26.7845 10.6687 26.8509 10.6293 26.8156 10.3057L26.6911 8.74196C26.6764 8.55113 26.6909 8.39349 26.8051 8.2587Z" fill="#FF7400"/>
<path fill-rule="evenodd" clip-rule="evenodd" d="M24.8395 6.95394C24.6257 8.32271 24.1711 9.51521 23.6211 10.3199L24.5137 9.94869C24.6632 9.88646 24.8978 9.88646 25.0451 9.94869L26.4815 10.546C26.7846 10.6683 26.851 10.629 26.8157 10.3054L26.6912 8.74163C26.6767 8.55081 26.6912 8.39323 26.8054 8.25838L27.8557 6.99331C28.0716 6.74855 28.0571 6.67599 27.7395 6.59717L26.108 6.19273C25.9233 6.1471 25.9129 6.09732 25.8215 5.94798L24.9975 4.57295C24.9705 4.52731 24.9456 4.48998 24.9227 4.46094C25.0014 5.20562 24.9807 6.06013 24.8395 6.95394Z" fill="#FF953D"/>
<path fill-rule="evenodd" clip-rule="evenodd" d="M37.2704 20.5555L38.3208 19.2904C38.5387 19.0458 38.5221 18.9731 38.2045 18.8943L36.573 18.4899C36.3903 18.4442 36.3779 18.3944 36.2886 18.2452L35.4645 16.8701C35.2964 16.5902 35.1947 16.5902 35.0286 16.8701L34.2024 18.2452C34.1132 18.3945 34.1007 18.4443 33.918 18.4899L32.2865 18.8943C31.9689 18.9731 31.9523 19.0457 32.1702 19.2904L33.2206 20.5555C33.3348 20.6903 33.3492 20.8479 33.3348 21.0388L33.2081 22.6004C33.1749 22.926 33.2413 22.9654 33.5444 22.8431L34.9788 22.2457C35.1283 22.1835 35.3629 22.1835 35.5123 22.2457L36.9466 22.8431C37.2497 22.9654 37.3161 22.926 37.2829 22.6004L37.1563 21.0388C37.1418 20.8479 37.1562 20.6904 37.2704 20.5555Z" fill="#FF7400"/>
<path fill-rule="evenodd" clip-rule="evenodd" d="M35.3065 19.2488C35.0906 20.6176 34.6381 21.8101 34.0859 22.6148L34.9786 22.2436C35.128 22.1813 35.3626 22.1813 35.512 22.2436L36.9464 22.8409C37.2494 22.9632 37.3159 22.9238 37.2827 22.5982L37.1561 21.0366C37.1415 20.8457 37.1561 20.6882 37.2702 20.5533L38.3206 19.2883C38.5385 19.0436 38.522 18.9709 38.2044 18.8921L36.5728 18.4877C36.3901 18.442 36.3777 18.3923 36.2884 18.243L35.4643 16.868C35.4373 16.8223 35.4125 16.785 35.3876 16.7539C35.4684 17.5005 35.4456 18.355 35.3065 19.2488Z" fill="#FF953D"/>
<path fill-rule="evenodd" clip-rule="evenodd" d="M35.432 5.73797C35.432 4.5558 34.473 3.59766 33.2898 3.59766C32.8996 3.59766 32.5342 3.70137 32.2188 3.88383C32.8601 4.25297 33.2898 4.94569 33.2898 5.7379C33.2898 6.52807 32.8601 7.22079 32.2188 7.58993C32.5342 7.77246 32.8996 7.8761 33.2898 7.8761C34.473 7.87617 35.432 6.91802 35.432 5.73797Z" fill="#8352FA"/>
<path fill-rule="evenodd" clip-rule="evenodd" d="M10.2304 22.6213L13.726 21.9577L15.9948 19.4109L15.2662 18.1064C15.1293 17.8596 14.932 17.6687 14.7037 17.5381C14.2636 17.2871 13.7031 17.2644 13.2298 17.5278L12.3165 18.0359L11.0565 18.7369L10.0809 19.2823C9.62835 19.5333 9.35849 19.9875 9.31905 20.4686C9.29416 20.7528 9.35224 21.0472 9.50172 21.3148L10.2304 22.6213Z" fill="#FF7400"/>
<path fill-rule="evenodd" clip-rule="evenodd" d="M18.1011 23.1897L24.2163 19.7843C24.7207 19.5023 24.9034 18.8614 24.6231 18.3575L23.5375 16.4122C23.2552 15.9082 22.6138 15.7257 22.1094 16.0077L17.2022 18.7412L15.9941 19.4132V21.96L18.1011 23.1897Z" fill="#D2C3FF"/>
<path fill-rule="evenodd" clip-rule="evenodd" d="M6.2205 29.8052L12.3357 26.3977L12.5101 23.8509L10.2288 22.6211L9.08503 23.2599L4.11148 26.0286C3.60916 26.3086 3.42649 26.9494 3.70669 27.4534L4.79231 29.4008C5.07265 29.9027 5.71615 30.0851 6.2205 29.8052Z" fill="#D2C3FF"/>
<path fill-rule="evenodd" clip-rule="evenodd" d="M15.6548 18.8032L15.2666 18.1064C15.1297 17.8596 14.9324 17.6687 14.7041 17.5381C14.264 17.2871 13.7035 17.2644 13.2302 17.5278L12.3169 18.0359L11.4492 18.5192C11.9225 18.2558 12.4809 18.2785 12.923 18.5295C13.1513 18.6601 13.3486 18.853 13.4856 19.0978L14.2142 20.4043L15.9952 19.4109L15.6548 18.8032Z" fill="#FF953D"/>
<path fill-rule="evenodd" clip-rule="evenodd" d="M24.2157 19.7843C24.7202 19.5023 24.9028 18.8614 24.6226 18.3575L23.5369 16.4122C23.2546 15.9082 22.6133 15.7257 22.1088 16.0077L19.6553 17.3745C20.1597 17.0924 20.8011 17.2749 21.0814 17.7789L22.167 19.7242C22.4472 20.2282 22.2666 20.867 21.7663 21.149L24.2157 19.7843Z" fill="#BFA4FE"/>
<path fill-rule="evenodd" clip-rule="evenodd" d="M18.1008 23.1868L15.9939 19.4102L10.2295 22.6206L12.3364 26.3973C14.2606 25.325 16.1766 24.259 18.1008 23.1868Z" fill="#8352FA"/>
</g>
</g>
<defs>
<clipPath id="clip0_1063_83226">
<rect width="42" height="42" fill="white"/>
</clipPath>
<clipPath id="clip1_1063_83226">
<rect width="36" height="36" fill="white" transform="translate(3 3)"/>
</clipPath>
</defs>
</svg>
