<svg width="32" height="32" viewBox="0 0 32 32" fill="none" xmlns="http://www.w3.org/2000/svg">
    <rect width="32" height="32" rx="16" fill="#F5F5FA" />
    <path
        d="M8 19V16C8 13.8783 8.84285 11.8434 10.3431 10.3431C11.8434 8.84285 13.8783 8 16 8C18.1217 8 20.1566 8.84285 21.6569 10.3431C23.1571 11.8434 24 13.8783 24 16V19"
        stroke="#FF3F1A" stroke-width="1.5" stroke-linecap="round" stroke-linejoin="round" />
    <path
        d="M11 17H10C9.46957 17 8.96086 17.2107 8.58579 17.5858C8.21071 17.9609 8 18.4696 8 19V22C8 22.5304 8.21071 23.0391 8.58579 23.4142C8.96086 23.7893 9.46957 24 10 24H11C11.5304 24 12.0391 23.7893 12.4142 23.4142C12.7893 23.0391 13 22.5304 13 22V19C13 18.4696 12.7893 17.9609 12.4142 17.5858C12.0391 17.2107 11.5304 17 11 17Z"
        fill="#FF9F41" stroke="#FF3F1A" stroke-width="1.5" stroke-linecap="square" stroke-linejoin="round" />
    <path
        d="M22 17H21C20.4696 17 19.9609 17.2107 19.5858 17.5858C19.2107 17.9609 19 18.4696 19 19V22C19 22.5304 19.2107 23.0391 19.5858 23.4142C19.9609 23.7893 20.4696 24 21 24H22C22.5304 24 23.0391 23.7893 23.4142 23.4142C23.7893 23.0391 24 22.5304 24 22V19C24 18.4696 23.7893 17.9609 23.4142 17.5858C23.0391 17.2107 22.5304 17 22 17Z"
        fill="#FF9F41" stroke="#FF3F1A" stroke-width="1.5" stroke-linecap="square" stroke-linejoin="round" />
</svg>