<svg width="488" height="44" viewBox="0 0 488 44" fill="none" xmlns="http://www.w3.org/2000/svg">
<g clip-path="url(#clip0_753_61248)">
<rect width="488" height="44" fill="url(#paint0_linear_753_61248)"/>
<g opacity="0.4">
<path d="M86.4637 10.8278C85.8696 10.8278 85.2875 9.99806 85.5643 9.4672L91.5595 -1.84583H71.2479L64.5346 10.8278H82.7063C82.9176 10.8277 83.1254 10.8818 83.3099 10.985C83.4945 11.0882 83.6496 11.237 83.7606 11.4172C83.8715 11.5975 83.9346 11.8032 83.9438 12.0148C83.953 12.2264 83.9081 12.4368 83.8132 12.6261L72.0948 34.7906L43.2951 -9.91152H22.8618L0 33.3272H18.0571C18.292 33.3273 18.5229 33.3879 18.7279 33.503C18.9328 33.6182 19.1048 33.784 19.2276 33.9847C19.3503 34.1855 19.4197 34.4144 19.429 34.6497C19.4384 34.885 19.3874 35.1187 19.281 35.3286L10.0723 52.7178H30.5031L41.3579 32.2272H23.141C22.9077 32.2269 22.6785 32.1661 22.4756 32.0508C22.2727 31.9355 22.103 31.7696 21.9829 31.5691C21.8629 31.3686 21.7966 31.1405 21.7905 30.9068C21.7844 30.673 21.8387 30.4417 21.9481 30.2353L34.1842 7.22899L63.5279 53H83.4148L105.265 10.8278H86.4637Z" fill="url(#paint1_linear_753_61248)" fill-opacity="0.3"/>
<path d="M164.795 -4.40924C162.142 -8.08221 157.211 -9.96174 150.144 -10H123.663L115.726 4.92142H141.78C144.166 4.92142 146.229 6.76509 146.344 9.15874C146.373 9.76101 146.28 10.3629 146.07 10.928C145.86 11.4931 145.538 12.0097 145.123 12.4463C144.708 12.8829 144.209 13.2306 143.656 13.4683C143.103 13.7059 142.508 13.8286 141.907 13.8288H111.01L103.061 28.8579H140.277C140.86 28.8576 141.437 28.9723 141.975 29.1956C142.513 29.4188 143.003 29.7462 143.415 30.1591C143.827 30.5719 144.154 31.062 144.377 31.6015C144.6 32.141 144.714 32.7193 144.714 33.3032C144.716 33.8894 144.602 34.4701 144.379 35.0119C144.156 35.5538 143.828 36.046 143.414 36.4602C143 36.8745 142.509 37.2027 141.968 37.4258C141.427 37.649 140.848 37.7627 140.263 37.7605H98.3396L90.4454 52.6652H100.642C111.539 52.6652 118.296 52.6485 135.406 52.5528C148.05 52.4811 156.951 45.1806 159.818 32.5261C160.455 29.69 161.471 25.1801 158.351 21.5454C161.929 19.214 163.96 16.2966 165.508 11.4424C167.712 4.61535 167.474 -0.714755 164.795 -4.40924Z" fill="url(#paint2_linear_753_61248)" fill-opacity="0.3"/>
<path d="M146.843 9.13484C146.715 6.45728 144.415 4.42142 141.78 4.42142H116.559L123.964 -9.5H150.143C157.141 -9.46187 161.873 -7.60011 164.389 -4.11649L164.39 -4.11572L146.344 9.15874M146.843 9.13484L146.344 9.15874M146.843 9.13484C146.843 9.13477 146.843 9.1347 146.843 9.13463L146.344 9.15874M146.843 9.13484C146.876 9.8045 146.772 10.4738 146.539 11.1021C146.305 11.7305 145.947 12.305 145.486 12.7907C145.024 13.2764 144.469 13.6632 143.854 13.9276C143.239 14.192 142.576 14.3286 141.907 14.3288H111.311M146.344 9.15874C146.373 9.76101 146.28 10.3629 146.07 10.928C145.86 11.4931 145.538 12.0097 145.123 12.4463C144.708 12.8829 144.209 13.2306 143.656 13.4683C143.103 13.7059 142.508 13.8286 141.907 13.8288H111.01M111.311 14.3288L111.452 14.0626L111.01 13.8288M111.311 14.3288H111.01V13.8288M111.311 14.3288L111.01 13.8288M158.351 21.5454C158.493 21.453 158.632 21.3597 158.769 21.2654C158.756 21.2501 158.743 21.2349 158.73 21.2197L158.351 21.5454ZM158.351 21.5454L158.624 21.9644C158.639 21.9548 158.653 21.9453 158.668 21.9357C158.567 21.8046 158.462 21.6745 158.351 21.5454ZM145.214 33.3019L144.714 33.3032H145.214C145.214 33.3027 145.214 33.3024 145.214 33.3019ZM145.214 33.3019C145.214 32.6529 145.087 32.0101 144.839 31.4105C144.591 30.8104 144.227 30.2651 143.769 29.8058C143.31 29.3465 142.766 28.9822 142.167 28.7337C141.567 28.4853 140.925 28.3576 140.277 28.3579M145.214 33.3019L140.277 28.3579M140.277 28.3579L140.277 28.8579V28.3579H140.277ZM85.1225 9.23307L85.1209 9.23607C84.8633 9.73017 85.0348 10.2742 85.2733 10.6267C85.5133 10.9816 85.9425 11.3278 86.4637 11.3278H104.443L83.1107 52.5H63.8013L34.6051 6.95914L34.144 6.23982L33.7428 6.9942L21.5067 30.0005L21.5063 30.0011C21.3566 30.2837 21.2823 30.6001 21.2907 30.9198C21.299 31.2395 21.3897 31.5517 21.554 31.826C21.7182 32.1003 21.9506 32.3276 22.2286 32.4855C22.5065 32.6435 22.8206 32.7268 23.1403 32.7272H23.141H40.5272L30.2022 52.2178H10.9028L19.7228 35.5626L19.7229 35.5627L19.7269 35.5548C19.8719 35.2688 19.9414 34.9503 19.9286 34.6299C19.9159 34.3094 19.8214 33.9975 19.6541 33.7239C19.4868 33.4503 19.2523 33.2242 18.9728 33.0671C18.6932 32.9101 18.3781 32.8274 18.0575 32.8272H18.0571H0.829957L23.163 -9.41152H43.0224L71.6745 35.0614L72.1374 35.7799L72.5368 35.0243L84.2552 12.8598L84.2553 12.8598L84.2602 12.8501C84.3932 12.5847 84.4563 12.2896 84.4433 11.993C84.4304 11.6964 84.342 11.4079 84.1863 11.1551C84.0307 10.9023 83.813 10.6934 83.5539 10.5486C83.2948 10.4037 83.003 10.3277 82.7063 10.3278C82.7062 10.3278 82.7061 10.3278 82.706 10.3278H65.3653L71.5489 -1.34583H90.7286L85.1225 9.23307ZM103.325 28.3579L103.061 28.8579H103.626L103.891 28.3579H103.325ZM90.7102 52.1652L90.4454 52.6652H91.0112L91.276 52.1652H90.7102ZM98.3396 38.2605H98.6405L98.7814 37.9946L98.3396 37.7605V38.2605ZM140.263 37.7605L140.261 38.2605C140.261 38.2605 140.262 38.2605 140.262 38.2605H140.263V37.7605ZM159.33 32.4165L159.818 32.5261L159.331 32.4156C159.33 32.4159 159.33 32.4162 159.33 32.4165ZM115.726 4.92142H116.293H115.726Z" stroke="url(#paint3_linear_753_61248)" stroke-opacity="0.6"/>
</g>

<g clip-path="url(#clip1_753_61248)">
<path d="M492.822 22.9031C492.526 22.4003 492.479 21.8007 492.694 21.2582L494.684 16.2282C495.792 13.4276 494.496 10.2939 491.734 9.09361L486.773 6.9379C486.237 6.70541 485.847 6.24774 485.702 5.68272L484.355 0.4436C483.606 -2.47339 480.715 -4.24719 477.775 -3.59456L472.494 -2.42238C471.924 -2.29603 471.34 -2.43683 470.89 -2.80864L466.722 -6.25556C464.401 -8.17491 461.02 -7.91109 459.025 -5.65466L455.441 -1.60217C455.055 -1.16495 454.499 -0.935538 453.917 -0.971665L448.518 -1.31011C445.512 -1.49879 442.932 0.702329 442.644 3.70032L442.127 9.08467C442.072 9.66551 441.757 10.1781 441.265 10.4909L436.698 13.3905C434.156 15.0047 433.362 18.3019 434.891 20.8966L437.638 25.5566C437.934 26.0594 437.981 26.659 437.766 27.2015L435.776 32.2313C434.668 35.0319 435.964 38.1657 438.726 39.366L443.687 41.5217C444.222 41.7542 444.612 42.2118 444.758 42.7769L446.104 48.016C446.787 50.6714 449.243 52.3794 451.896 52.172C452.157 52.1516 452.421 52.1125 452.684 52.054L457.965 50.8818C458.535 50.7551 459.119 50.8963 459.569 51.2681L463.738 54.715C464.899 55.6748 466.324 56.0886 467.708 55.9804C469.093 55.8722 470.437 55.2421 471.435 54.1141L475.018 50.062C475.405 49.6249 475.96 49.3956 476.543 49.4315L481.941 49.7699C484.948 49.9585 487.527 47.7575 487.815 44.7595L488.332 39.3751C488.388 38.7943 488.703 38.2817 489.195 37.9689L493.762 35.0694C496.304 33.4551 497.098 30.1579 495.569 27.5632L492.822 22.9031ZM456.618 8.3205C460.32 8.03145 463.568 10.8085 463.857 14.5109C464.146 18.2133 461.369 21.4606 457.666 21.7496C453.964 22.0387 450.717 19.2617 450.428 15.5593C450.139 11.8569 452.916 8.60954 456.618 8.3205ZM455.484 38.4525C455.154 38.838 454.699 39.0534 454.231 39.09C453.762 39.1266 453.279 38.9845 452.894 38.6547C452.123 37.9954 452.032 36.8359 452.692 36.0649L474.976 10.0068C475.635 9.23589 476.795 9.14536 477.566 9.80465C478.336 10.464 478.427 11.6235 477.768 12.3944L455.484 38.4525ZM473.841 40.1391C470.139 40.4281 466.891 37.6511 466.602 33.9487C466.313 30.2463 469.09 26.999 472.793 26.7099C476.495 26.4209 479.743 29.1979 480.032 32.9003C480.321 36.6027 477.544 39.8501 473.841 40.1391Z" fill="url(#paint4_linear_753_61248)"/>
<path d="M473.079 30.3725C471.396 30.5039 470.133 31.9799 470.265 33.6628C470.396 35.3457 471.872 36.6079 473.555 36.4765C475.238 36.3451 476.5 34.8691 476.369 33.1863C476.238 31.5034 474.762 30.2411 473.079 30.3725Z" fill="url(#paint5_linear_753_61248)"/>
<path d="M456.904 11.9829C455.221 12.1143 453.959 13.5903 454.09 15.2732C454.222 16.9561 455.698 18.2185 457.381 18.0871C459.063 17.9557 460.326 16.4797 460.194 14.7967C460.063 13.1139 458.587 11.8516 456.904 11.9829Z" fill="url(#paint6_linear_753_61248)"/>
</g>
</g>
<defs>
<linearGradient id="paint0_linear_753_61248" x1="0" y1="22" x2="488" y2="22" gradientUnits="userSpaceOnUse">
<stop stop-color="#0974F1"/>
<stop offset="1" stop-color="#9FCCFA"/>
</linearGradient>
<linearGradient id="paint1_linear_753_61248" x1="163.418" y1="-7.7283" x2="3.48498" y2="52.6423" gradientUnits="userSpaceOnUse">
<stop stop-color="white"/>
<stop offset="1" stop-color="white" stop-opacity="0.05"/>
</linearGradient>
<linearGradient id="paint2_linear_753_61248" x1="163.418" y1="-7.7283" x2="3.48498" y2="52.6423" gradientUnits="userSpaceOnUse">
<stop stop-color="white"/>
<stop offset="1" stop-color="white" stop-opacity="0.05"/>
</linearGradient>
<linearGradient id="paint3_linear_753_61248" x1="163.418" y1="-7.7283" x2="3.48498" y2="52.6423" gradientUnits="userSpaceOnUse">
<stop stop-color="white"/>
<stop offset="1" stop-color="white" stop-opacity="0.1"/>
</linearGradient>
<linearGradient id="paint4_linear_753_61248" x1="434.764" y1="26.6081" x2="495.696" y2="21.8512" gradientUnits="userSpaceOnUse">
<stop stop-color="#0974F1"/>
<stop offset="1" stop-color="#9FCCFA"/>
</linearGradient>
<linearGradient id="paint5_linear_753_61248" x1="434.764" y1="26.6081" x2="495.696" y2="21.8512" gradientUnits="userSpaceOnUse">
<stop stop-color="#0974F1"/>
<stop offset="1" stop-color="#9FCCFA"/>
</linearGradient>
<linearGradient id="paint6_linear_753_61248" x1="434.764" y1="26.6081" x2="495.696" y2="21.8512" gradientUnits="userSpaceOnUse">
<stop stop-color="#0974F1"/>
<stop offset="1" stop-color="#9FCCFA"/>
</linearGradient>
<clipPath id="clip0_753_61248">
<rect width="488" height="44" fill="white"/>
</clipPath>
<clipPath id="clip1_753_61248">
<rect width="63.6943" height="63.6943" fill="white" transform="translate(431 -5.04297) rotate(-4.46399)"/>
</clipPath>
</defs>
</svg>
