<svg width="41" height="30" viewBox="0 0 41 30" fill="none" xmlns="http://www.w3.org/2000/svg">
<path d="M0.744671 4.7557C0.807065 2.23658 3.05202 0.0621606 5.55369 0.0253438C8.05175 0.0176465 10.5502 0.0242313 13.0482 0.0220056C13.0414 8.45046 13.0618 16.8798 13.0379 25.3078C12.9417 27.7963 10.7212 29.9293 8.24681 29.9734C5.74402 29.9824 3.24096 29.9746 0.738089 29.9772V19.4561C3.16921 20.0306 5.71862 20.2751 8.19879 19.8941C9.6813 19.6555 11.3033 18.9272 11.8053 17.3887C12.1746 16.0726 11.9667 14.6876 12.0217 13.3369V10.2H7.72949C7.71021 12.2747 7.76898 14.3529 7.69843 16.425C7.58273 17.6987 6.32179 18.5079 5.12093 18.4647C3.63164 18.4805 0.680423 17.3851 0.680423 17.3851C0.673006 13.4981 0.723626 8.63018 0.744671 4.75607V4.7557Z" fill="url(#paint0_linear_0_1)"/>
<path d="M30.8036 15.6056C31.887 15.6292 32.9765 15.5578 34.0555 15.6427C35.1483 15.8466 35.4117 17.5014 34.4408 18.0434C33.7784 18.4004 32.9915 18.1764 32.2734 18.2394H30.8036V15.6056ZM34.682 12.6246C34.9226 13.4744 34.1037 14.2375 33.2854 14.1204H30.8036C30.821 13.319 30.7696 12.4491 30.8288 11.6899C31.823 11.7179 32.8264 11.6327 33.8149 11.7344C34.2396 11.8411 34.595 12.1904 34.682 12.6246ZM40.6548 0.0215435C40.7009 1.64454 40.6614 3.35332 40.6747 5.00924C40.6716 11.7416 40.6812 18.4738 40.6694 25.2065C40.6258 27.7297 38.3904 29.9221 35.8855 29.9724C33.3782 29.9826 30.8705 29.974 28.3628 29.9768V19.7988C31.0951 19.7847 33.8287 19.8275 36.5598 19.7775C37.8268 19.6979 39.2145 18.8617 39.2735 17.467C39.4226 16.0663 38.1025 15.0975 36.849 14.9445C36.3672 14.932 36.3813 14.804 36.849 14.7482C38.0445 14.4897 38.9833 13.252 38.6316 12.0125C38.3318 10.7088 36.8913 10.2042 35.6932 10.2067C33.2501 10.1901 30.8066 10.2044 28.3634 10.1996C28.3792 8.29948 28.3305 6.39734 28.3896 4.49863C28.5832 2.02106 30.8749 -0.0221362 33.3446 0.0221924C35.7816 0.0218214 38.2183 0.0218217 40.6548 0.0217289V0.0215435Z" fill="url(#paint1_linear_0_1)"/>
<path d="M14.6369 11.4658C14.411 11.5137 14.5915 10.696 14.5337 10.3857C14.5491 8.42435 14.5015 6.46081 14.56 4.5008C14.753 2.01275 17.0623 -0.0355427 19.5419 0.0226964H26.8444C26.8376 8.45115 26.8579 16.8805 26.8341 25.3085C26.7378 27.797 24.5172 29.9299 22.0427 29.974C19.5398 29.9835 17.0367 29.9755 14.5336 29.9779V18.4507C16.2431 19.8537 18.5665 20.0721 20.6962 20.0759C22.3017 20.0753 23.8979 19.8277 25.457 19.4573V17.3455C23.6999 18.2215 21.6344 18.7779 19.6866 18.2746C18.3278 17.9363 17.3415 16.6228 17.3635 15.2201C17.206 13.7615 18.0608 12.2215 19.4938 11.7878C21.273 11.2307 23.2121 11.6568 24.8798 12.3812C25.2371 12.5683 25.5998 12.8004 25.4569 12.203V10.5431C22.6677 9.8793 19.6994 9.63503 16.8971 10.3572C16.086 10.5861 15.2958 10.9332 14.6369 11.4659V11.4658Z" fill="url(#paint2_linear_0_1)"/>
<defs>
<linearGradient id="paint0_linear_0_1" x1="0.476175" y1="15.2864" x2="12.8464" y2="15.2864" gradientUnits="userSpaceOnUse">
<stop stop-color="#0F6EB6"/>
<stop offset="1" stop-color="#006DBA"/>
</linearGradient>
<linearGradient id="paint1_linear_0_1" x1="28.2788" y1="14.3587" x2="40.597" y2="14.3587" gradientUnits="userSpaceOnUse">
<stop stop-color="#58B03A"/>
<stop offset="1" stop-color="#55B330"/>
</linearGradient>
<linearGradient id="paint2_linear_0_1" x1="14.5156" y1="14.65" x2="26.8421" y2="14.65" gradientUnits="userSpaceOnUse">
<stop stop-color="#DE0D3D"/>
<stop offset="1" stop-color="#E30138"/>
</linearGradient>
</defs>
</svg>
