<svg width="33" height="32" viewBox="0 0 33 32" fill="none" xmlns="http://www.w3.org/2000/svg">
    <path
        d="M27.0401 11.4347C26.9326 11.2051 26.7618 11.0109 26.5479 10.8749C26.3339 10.7389 26.0856 10.6667 25.8321 10.6667H19.9894L23.0241 4.59608C23.1256 4.39285 23.1736 4.16705 23.1634 3.94009C23.1531 3.71313 23.0851 3.49255 22.9657 3.29927C22.8463 3.106 22.6795 2.94644 22.4811 2.83574C22.2827 2.72504 22.0593 2.66687 21.8321 2.66675H13.8321C13.5944 2.66674 13.361 2.73027 13.1561 2.85077C12.9512 2.97126 12.7823 3.14434 12.6668 3.35208L6.00009 15.3521C5.88722 15.555 5.82932 15.784 5.83213 16.0162C5.83493 16.2484 5.89834 16.4759 6.01608 16.676C6.13381 16.8762 6.30179 17.0422 6.50338 17.1575C6.70497 17.2728 6.93318 17.3334 7.16542 17.3334H13.5028L11.1974 27.7107C11.1329 28.0024 11.1681 28.3073 11.2976 28.5766C11.427 28.8458 11.6431 29.0638 11.9112 29.1955C12.1793 29.3273 12.4839 29.3652 12.7761 29.3032C13.0684 29.2411 13.3313 29.0827 13.5228 28.8534L26.8561 12.8534C27.0184 12.6589 27.1219 12.4221 27.1545 12.1708C27.187 11.9196 27.1474 11.6643 27.0401 11.4347Z"
        fill="url(#paint0_linear_1844_113219)" />
    <path
        d="M27.0401 11.4347C26.9326 11.2051 26.7618 11.0109 26.5479 10.8749C26.3339 10.7389 26.0856 10.6667 25.8321 10.6667H19.9894L23.0241 4.59608C23.1256 4.39285 23.1736 4.16705 23.1634 3.94009C23.1531 3.71313 23.0851 3.49255 22.9657 3.29927C22.8463 3.106 22.6795 2.94644 22.4811 2.83574C22.2827 2.72504 22.0593 2.66687 21.8321 2.66675H13.8321C13.5944 2.66674 13.361 2.73027 13.1561 2.85077C12.9512 2.97126 12.7823 3.14434 12.6668 3.35208L6.00009 15.3521C5.88722 15.555 5.82932 15.784 5.83213 16.0162C5.83493 16.2484 5.89834 16.4759 6.01608 16.676C6.13381 16.8762 6.30179 17.0422 6.50338 17.1575C6.70497 17.2728 6.93318 17.3334 7.16542 17.3334H13.5028L11.1974 27.7107C11.1329 28.0024 11.1681 28.3073 11.2976 28.5766C11.427 28.8458 11.6431 29.0638 11.9112 29.1955C12.1793 29.3273 12.4839 29.3652 12.7761 29.3032C13.0684 29.2411 13.3313 29.0827 13.5228 28.8534L26.8561 12.8534C27.0184 12.6589 27.1219 12.4221 27.1545 12.1708C27.187 11.9196 27.1474 11.6643 27.0401 11.4347Z"
        fill="url(#paint1_linear_1844_113219)" />
    <defs>
        <linearGradient id="paint0_linear_1844_113219" x1="8.55609" y1="7.39075" x2="21.7748" y2="20.6094"
            gradientUnits="userSpaceOnUse">
            <stop stop-color="white" />
            <stop offset="1" stop-color="#E8E8E8" />
        </linearGradient>
        <linearGradient id="paint1_linear_1844_113219" x1="5.83203" y1="15.9995" x2="27.1655" y2="15.9995"
            gradientUnits="userSpaceOnUse">
            <stop stop-color="#FF3F1A" />
            <stop offset="1" stop-color="#F09840" />
        </linearGradient>
    </defs>
</svg>