<svg width="30" height="30" viewBox="0 0 30 30" fill="none" xmlns="http://www.w3.org/2000/svg">
    <path
        d="M18.8361 3.4669C20.6194 5.24675 20.6194 8.13237 18.8361 9.91222M20.8239 12.4999C24.0392 9.29086 24.0392 4.08797 20.8239 0.878964M11.1641 3.46685C9.38077 5.24669 9.38077 8.13237 11.1641 9.91222M9.17616 12.4999C5.96089 9.2908 5.96089 4.08791 9.17616 0.878906M4.88312 18.4149V25.604H8.12124M10.8443 18.4149V25.604M13.9359 18.4149L16.1063 25.604L18.2768 18.4153M24.9987 25.604H21.152V18.4149H25.117M21.4479 21.557H24.5252M26.5841 29.1209H3.41629C2.28086 29.1209 1.36035 28.2004 1.36035 27.065V16.9539C1.36035 15.8184 2.28086 14.898 3.41629 14.898H26.5841C27.7196 14.898 28.6401 15.8184 28.6401 16.9539V27.065C28.6401 28.2004 27.7196 29.1209 26.5841 29.1209ZM16.3099 7.99437C15.5878 8.71507 14.417 8.71507 13.6949 7.99437C12.9727 7.27367 12.9727 6.10513 13.6949 5.38437C14.417 4.66367 15.5878 4.66367 16.3099 5.38437C17.032 6.10513 17.032 7.27367 16.3099 7.99437Z"
        stroke="#64646D" stroke-width="1.6875" stroke-miterlimit="10" stroke-linecap="round"
        stroke-linejoin="round" />
</svg>