<svg width="24" height="24" viewBox="0 0 24 24" fill="none" xmlns="http://www.w3.org/2000/svg">
<rect width="24" height="24" rx="12" fill="#EBEBF0"/>
<path d="M12 13.667C12.3283 13.667 12.6534 13.6023 12.9567 13.4767C13.26 13.3511 13.5356 13.1669 13.7678 12.9348C13.9999 12.7026 14.1841 12.427 14.3097 12.1237C14.4353 11.8204 14.5 11.4953 14.5 11.167C14.5 10.8387 14.4353 10.5136 14.3097 10.2103C14.1841 9.90697 13.9999 9.63137 13.7678 9.39922C13.5356 9.16708 13.26 8.98293 12.9567 8.85729C12.6534 8.73166 12.3283 8.66699 12 8.66699C11.337 8.66699 10.7011 8.93038 10.2322 9.39922C9.76339 9.86807 9.5 10.504 9.5 11.167C9.5 11.83 9.76339 12.4659 10.2322 12.9348C10.7011 13.4036 11.337 13.667 12 13.667Z" stroke="#515158" stroke-width="1.25" stroke-linecap="square" stroke-linejoin="round"/>
<path d="M16.7148 15.8806L13.179 19.4164C12.8665 19.7286 12.4428 19.904 12.0011 19.904C11.5593 19.904 11.1357 19.7286 10.8232 19.4164L7.28649 15.8806C6.35417 14.9482 5.71927 13.7603 5.46206 12.4671C5.20485 11.1739 5.3369 9.83352 5.84149 8.61536C6.34608 7.39721 7.20057 6.35604 8.29689 5.62351C9.39321 4.89098 10.6821 4.5 12.0007 4.5C13.3192 4.5 14.6081 4.89098 15.7044 5.62351C16.8007 6.35604 17.6552 7.39721 18.1598 8.61536C18.6644 9.83352 18.7965 11.1739 18.5392 12.4671C18.282 13.7603 17.6471 14.9482 16.7148 15.8806Z" fill="#FF3F1A" stroke="white" stroke-width="1.25" stroke-linecap="square" stroke-linejoin="round"/>
<circle cx="12" cy="11" r="2" fill="white"/>
</svg>
