<svg width="124" height="53" viewBox="0 0 124 53" fill="none" xmlns="http://www.w3.org/2000/svg">
<path d="M55.0262 26.2242C54.6482 26.2242 54.2777 25.6973 54.4538 25.3603L58.2692 18.1774H45.3428L41.0704 26.2242H52.6349C52.7694 26.2241 52.9017 26.2585 53.0191 26.324C53.1366 26.3895 53.2353 26.4839 53.3059 26.5984C53.3765 26.7128 53.4167 26.8434 53.4225 26.9778C53.4284 27.1121 53.3998 27.2457 53.3394 27.3659L45.8817 41.4386L27.5533 13.0563H14.5495L0 40.5095H11.4917C11.6412 40.5096 11.7882 40.548 11.9186 40.6211C12.049 40.6942 12.1585 40.7995 12.2366 40.927C12.3147 41.0544 12.3588 41.1998 12.3648 41.3492C12.3707 41.4986 12.3383 41.647 12.2706 41.7802L6.41008 52.821H19.4124L26.3205 39.8111H14.7271C14.5787 39.8109 14.4328 39.7723 14.3036 39.6991C14.1745 39.6259 14.0665 39.5205 13.9901 39.3932C13.9137 39.266 13.8715 39.1211 13.8677 38.9727C13.8638 38.8243 13.8983 38.6774 13.968 38.5464L21.7551 23.9392L40.4297 53.0002H53.0859L66.9916 26.2242H55.0262Z" fill="white"/>
<path d="M104.877 16.5497C103.189 14.2176 100.05 13.0243 95.5534 13H78.7008L73.6495 22.4739H90.2304C91.7487 22.4739 93.062 23.6445 93.1348 25.1643C93.1533 25.5467 93.094 25.9288 92.9604 26.2876C92.8269 26.6464 92.6219 26.9744 92.3579 27.2516C92.0938 27.5289 91.7763 27.7496 91.4244 27.9005C91.0725 28.0514 90.6937 28.1293 90.3109 28.1294H70.6479L65.5891 37.6717H89.2739C89.6447 37.6715 90.0119 37.7443 90.3545 37.8861C90.6971 38.0278 91.0084 38.2357 91.2706 38.4978C91.5329 38.7599 91.7409 39.0711 91.8829 39.4137C92.0248 39.7562 92.0979 40.1233 92.0979 40.4941C92.0989 40.8663 92.0263 41.235 91.8842 41.579C91.7421 41.923 91.5334 42.2355 91.2701 42.4986C91.0068 42.7616 90.6941 42.97 90.3499 43.1116C90.0058 43.2533 89.637 43.3255 89.2648 43.3241H62.5845L57.5605 52.7874H64.0496C70.985 52.7874 75.2847 52.7768 86.1736 52.7161C94.2204 52.6705 99.885 48.0353 101.71 40.0007C102.115 38.2 102.762 35.3366 100.776 33.0288C103.054 31.5485 104.346 29.6963 105.331 26.6142C106.734 22.2796 106.582 18.8954 104.877 16.5497Z" fill="white"/>
<path d="M115.347 14.6254C115.055 14.4718 114.707 14.4717 114.415 14.625L111.363 16.2301C110.629 16.6158 109.771 15.9928 109.912 15.1759L110.495 11.776C110.551 11.4514 110.443 11.1201 110.207 10.8904L107.734 8.4836C107.14 7.90513 107.467 6.89631 108.288 6.77736L111.699 6.28311C112.024 6.23588 112.306 6.03127 112.452 5.73601L113.979 2.6427C114.345 1.89944 115.405 1.89945 115.772 2.6427L117.299 5.73601C117.444 6.03127 117.726 6.23588 118.052 6.28311L121.462 6.77736C122.283 6.89631 122.611 7.90513 122.016 8.48359L119.544 10.8904C119.308 11.1201 119.2 11.4514 119.256 11.776L119.839 15.1735C119.979 15.9909 119.12 16.6139 118.387 16.2273L115.347 14.6254Z" fill="white"/>
</svg>
