<svg width="20" height="20" viewBox="0 0 20 20" fill="none" xmlns="http://www.w3.org/2000/svg">
<path d="M15 5V5.00833" stroke="#0B74E5" stroke-width="1.25" stroke-linecap="round" stroke-linejoin="round"/>
<path d="M14.9993 10.8325L12.0827 6.66583C11.8019 6.15835 11.6584 5.5864 11.6663 5.00649C11.6743 4.42657 11.8334 3.85876 12.1279 3.35916C12.4225 2.85956 12.8423 2.44545 13.3459 2.15776C13.8494 1.87007 14.4194 1.71875 14.9993 1.71875C15.5793 1.71875 16.1493 1.87007 16.6528 2.15776C17.1564 2.44545 17.5762 2.85956 17.8708 3.35916C18.1653 3.85876 18.3244 4.42657 18.3324 5.00649C18.3403 5.5864 18.1968 6.15835 17.916 6.66583L14.9993 10.8325Z" stroke="#0B74E5" stroke-width="1.25" stroke-linecap="square" stroke-linejoin="round"/>
<path d="M8.75 3.95801L7.5 3.33301L2.5 5.83301V16.6663L7.5 14.1663L12.5 16.6663L17.5 14.1663V12.4997" stroke="#0B74E5" stroke-width="1.25" stroke-linecap="round" stroke-linejoin="round"/>
<path d="M7.5 3.33301V14.1663" stroke="#0B74E5" stroke-width="1.25" stroke-linecap="round" stroke-linejoin="round"/>
<path d="M12.5 12.5V16.6667" stroke="#0B74E5" stroke-width="1.25" stroke-linecap="round" stroke-linejoin="round"/>
</svg>
