<svg width="41" height="24" viewBox="0 0 41 24" fill="none" xmlns="http://www.w3.org/2000/svg">
<path fill-rule="evenodd" clip-rule="evenodd" d="M20.707 21.0123C18.5886 22.7917 15.8396 23.8661 12.8356 23.8661C6.13717 23.8661 0.707031 18.5243 0.707031 11.935C0.707031 5.34563 6.13717 0.00390625 12.8356 0.00390625C15.8396 0.00390625 18.5886 1.07826 20.707 2.85768C22.8255 1.07826 25.5745 0.00390625 28.5785 0.00390625C35.2769 0.00390625 40.707 5.34563 40.707 11.935C40.707 18.5243 35.2769 23.8661 28.5785 23.8661C25.5745 23.8661 22.8255 22.7917 20.707 21.0123Z" fill="#ED0006"/>
<path fill-rule="evenodd" clip-rule="evenodd" d="M20.707 21.0124C23.3125 18.8241 24.9644 15.5693 24.9644 11.9349C24.9644 8.30062 23.3125 5.04583 20.7071 2.85748C22.8255 1.07818 25.5744 0.00390625 28.5783 0.00390625C35.2767 0.00390625 40.7068 5.34563 40.7068 11.935C40.7068 18.5243 35.2767 23.8661 28.5783 23.8661C25.5743 23.8661 22.8255 22.7918 20.707 21.0124Z" fill="#F9A000"/>
<path fill-rule="evenodd" clip-rule="evenodd" d="M20.7065 21.012C18.1011 18.8237 16.4492 15.5689 16.4492 11.9346C16.4492 8.30043 18.1009 5.04577 20.7062 2.85742C23.3116 5.04577 24.9634 8.30055 24.9634 11.9348C24.9634 15.569 23.3117 18.8237 20.7065 21.012Z" fill="#FF5E00"/>
</svg>
