<svg width="44" height="45" viewBox="0 0 44 45" fill="none" xmlns="http://www.w3.org/2000/svg">
<g clip-path="url(#clip0_2118_122016)">
<path d="M25.2348 2.57346C25.9677 2.38901 26.7871 2.55387 27.3666 3.046C28.3419 3.81808 28.51 5.38834 27.7134 6.34649C26.1799 8.13221 24.6415 9.91303 23.1063 11.6971C22.7056 12.1689 22.0502 12.4072 21.4406 12.2978C20.8268 12.2048 20.2849 11.7624 20.0637 11.1846C19.8483 10.6549 19.9136 10.0273 20.2221 9.5474C21.3949 7.61722 22.5677 5.68704 23.7372 3.75442C24.0506 3.17904 24.5974 2.73587 25.2348 2.57346Z" fill="#EB2D4B"/>
<path d="M26.6184 9.99418C27.2085 9.79177 27.9112 9.94276 28.338 10.4063C28.6 10.674 28.7502 11.0388 28.7787 11.411C29.0252 13.999 29.2758 16.5862 29.5206 19.1742C29.603 19.8989 29.3557 20.6595 28.8212 21.1639C28.0646 21.936 26.7588 22.0535 25.8635 21.4569C25.1404 20.9917 24.7037 20.1168 24.7927 19.2582C25.0457 16.6147 25.2971 13.9704 25.5542 11.3269C25.6137 10.7254 26.0496 10.1901 26.6184 9.99418Z" fill="#EB2D4B"/>
<path d="M4.7491 10.0864C5.71133 9.82198 6.82129 10.2145 7.35913 11.065C8.57273 13.0604 9.78226 15.0592 10.9959 17.0555C11.2374 17.4407 11.3395 17.9165 11.2456 18.3645C11.1403 18.9856 10.6743 19.5251 10.0785 19.7267C9.39948 19.974 8.58089 19.7642 8.11569 19.2093C6.59277 17.439 5.06658 15.6721 3.54447 13.9019C2.83932 13.0825 2.81729 11.7758 3.48897 10.9303C3.80237 10.5214 4.25125 10.2186 4.7491 10.0864Z" fill="#EB2D4B"/>
<path d="M11.6013 11.6391C11.8935 11.5436 12.2101 11.5436 12.508 11.6106C15.0903 12.1876 17.675 12.7524 20.2557 13.3351C21.4113 13.6052 22.216 14.8417 22.0006 16.008C21.8537 17.1089 20.8384 17.9977 19.7309 18.0148C19.362 18.0312 18.9955 17.9455 18.6601 17.7986C16.2557 16.7531 13.8506 15.7092 11.4462 14.6654C10.8504 14.4148 10.4595 13.7742 10.4856 13.1319C10.4938 12.4651 10.9663 11.8391 11.6013 11.6391Z" fill="#EB2D4B"/>
<path d="M32.0831 18.1566C32.7009 17.928 33.3367 18.1859 33.9447 18.3141C35.9026 18.776 37.8606 19.2363 39.8193 19.6966C40.3025 19.8084 40.7554 20.0622 41.0819 20.4385C41.605 21.0122 41.8058 21.8545 41.6091 22.6054C41.4524 23.2672 40.9839 23.841 40.3784 24.1462C39.7638 24.4564 39.0162 24.4833 38.3821 24.2148C36.2307 23.3089 34.0753 22.4095 31.9239 21.5036C31.2784 21.2261 30.8385 20.5348 30.8687 19.8313C30.8638 19.0886 31.3779 18.3859 32.0831 18.1566Z" fill="#EB2D4B"/>
<path d="M13.1378 19.2779C14.2102 18.9979 15.4149 19.5839 15.8605 20.5967C16.2416 21.4145 16.1069 22.4445 15.5144 23.1276C13.843 25.0194 12.1707 26.9104 10.4992 28.8023C10.3099 29.0169 10.1287 29.2495 9.87733 29.3956C9.26032 29.78 8.3797 29.6837 7.87859 29.1499C7.37585 28.6619 7.26404 27.8351 7.61008 27.2271C8.95182 24.9492 10.2936 22.6714 11.6394 20.3952C11.9577 19.8369 12.5127 19.4231 13.1378 19.2779Z" fill="#EB2D4B"/>
<path d="M32.9755 23.7577C33.6014 23.5928 34.3221 23.8303 34.6967 24.3657C35.1031 24.9052 35.1121 25.7001 34.7269 26.2534C34.5506 26.517 34.2878 26.7121 33.9981 26.8353C31.6133 27.8686 29.2285 28.9043 26.8454 29.9416C26.1737 30.2476 25.3592 30.2297 24.7104 29.8763C23.944 29.4698 23.4405 28.6202 23.4658 27.7519C23.456 26.6917 24.2525 25.6952 25.2866 25.4675C27.8493 24.8954 30.4136 24.3322 32.9755 23.7577Z" fill="#EB2D4B"/>
<path d="M16.8278 26.821C17.8113 26.5133 18.9718 26.9173 19.5162 27.8004C20.8734 30.0888 22.2201 32.3847 23.5732 34.6764C23.8532 35.14 23.8817 35.7439 23.6434 36.2311C23.3953 36.7535 22.8452 37.1199 22.265 37.1338C21.7891 37.1656 21.3084 36.9648 20.9869 36.6155C19.4068 34.8233 17.8219 33.0367 16.2418 31.2453C15.824 30.776 15.34 30.3092 15.211 29.6677C14.8895 28.4859 15.6452 27.145 16.8278 26.821Z" fill="#EB2D4B"/>
<path d="M12.4316 30.2538C13.3286 30.0277 14.3259 30.6129 14.5593 31.5074C14.8172 32.3366 14.3732 33.3119 13.571 33.6506C11.4025 34.5606 9.23399 35.4722 7.06304 36.3773C6.07959 36.7846 4.84966 36.4279 4.24898 35.5457C3.76256 34.8707 3.67605 33.9346 4.02291 33.1788C4.31346 32.521 4.92393 32.0224 5.62255 31.8559C7.89225 31.3229 10.1619 30.7867 12.4316 30.2538Z" fill="#EB2D4B"/>
<path d="M26.712 31.3981C27.2752 31.2479 27.906 31.3989 28.3443 31.7825C28.7148 32.1 28.936 32.5758 28.9597 33.0622C29.1294 35.1271 29.3008 37.1903 29.473 39.2543C29.5057 39.6362 29.5497 40.0198 29.5187 40.4034C29.451 41.0931 29.0462 41.7345 28.4684 42.1116C27.8008 42.558 26.9014 42.6225 26.1725 42.2895C25.2985 41.9051 24.7182 40.9527 24.7867 39.9986C24.9565 37.9003 25.1369 35.8028 25.3074 33.7053C25.3597 33.245 25.3278 32.7562 25.5474 32.3334C25.7743 31.8706 26.2109 31.5205 26.712 31.3981Z" fill="#EB2D4B"/>
</g>
<defs>
<clipPath id="clip0_2118_122016">
<rect width="40" height="40" fill="white" transform="translate(2 2.5)"/>
</clipPath>
</defs>
</svg>
