<svg width="33" height="32" viewBox="0 0 33 32" fill="none" xmlns="http://www.w3.org/2000/svg">
    <rect x="0.5" width="32" height="32" rx="16" fill="url(#paint0_linear_3011_141492)" />
    <path
        d="M7.5 23.9977L8.8 20.0977C7.676 18.4357 7.27 16.4677 7.656 14.5597C8.042 12.6517 9.196 10.9327 10.9 9.72368C12.604 8.51368 14.745 7.89668 16.924 7.98368C19.103 8.07368 21.172 8.86168 22.745 10.2037C24.319 11.5467 25.291 13.3507 25.48 15.2827C25.67 17.2137 25.063 19.1407 23.774 20.7047C22.484 22.2687 20.601 23.3627 18.472 23.7847C16.342 24.2067 14.114 23.9267 12.2 22.9977L7.5 23.9977Z"
        fill="#026086" />
    <path d="M16.5 16V16.01" stroke="white" stroke-width="1.5" stroke-linecap="round" stroke-linejoin="round" />
    <path d="M12.5 16V16.01" stroke="white" stroke-width="1.5" stroke-linecap="round" stroke-linejoin="round" />
    <path d="M20.5 16V16.01" stroke="white" stroke-width="1.5" stroke-linecap="round" stroke-linejoin="round" />
    <defs>
        <linearGradient id="paint0_linear_3011_141492" x1="16.5" y1="0" x2="16.5" y2="32"
            gradientUnits="userSpaceOnUse">
            <stop stop-color="#F5F5FA" />
            <stop offset="1" stop-color="#EBEBF0" />
        </linearGradient>
    </defs>
</svg>