<svg width="42" height="42" viewBox="0 0 42 42" fill="none" xmlns="http://www.w3.org/2000/svg">
<g clip-path="url(#clip0_1063_83283)">
<rect opacity="0.5" width="42" height="42" rx="7.15789" fill="#E9E1FD"/>
<path d="M30.9483 16.5034L29.5882 7.887C29.5016 7.34025 29.0302 6.9375 28.4767 6.9375H28.313C27.6915 6.9375 27.188 6.43406 27.188 5.8125C27.188 5.19094 26.6846 4.6875 26.063 4.6875H15.938C15.3165 4.6875 14.813 5.19094 14.813 5.8125C14.813 6.43406 14.3096 6.9375 13.688 6.9375H13.5243C12.9708 6.9375 12.4995 7.34025 12.4128 7.887L11.0522 16.5034C10.9363 17.2363 11.0302 17.9867 11.3222 18.6684L12.563 21.5625H29.438L30.6783 18.6684C30.9703 17.9867 31.0642 17.2363 30.9483 16.5034Z" fill="#A079FC"/>
<path d="M16.5 10.3125C15.8706 10.3125 15.2951 10.5268 14.8266 10.8761C14.1386 11.3891 13.6875 12.2014 13.6875 13.125C13.6875 14.6781 14.9469 15.9375 16.5 15.9375C18.0531 15.9375 19.3125 14.6781 19.3125 13.125C19.3125 11.5719 18.0531 10.3125 16.5 10.3125Z" fill="white"/>
<path d="M16.5009 10.3125C16.2017 10.3125 15.9159 10.3637 15.6465 10.4526C16.79 10.8092 17.6259 11.8639 17.6259 13.125C17.6259 14.3822 16.7951 15.4341 15.6572 15.7946C15.9249 15.879 16.205 15.9375 16.5009 15.9375C18.054 15.9375 19.3134 14.6781 19.3134 13.125C19.3134 11.5719 18.054 10.3125 16.5009 10.3125Z" fill="#D2D2D2"/>
<path d="M22.6875 14.8125C24.2408 14.8125 25.5 13.5533 25.5 12C25.5 10.4467 24.2408 9.1875 22.6875 9.1875C21.1342 9.1875 19.875 10.4467 19.875 12C19.875 13.5533 21.1342 14.8125 22.6875 14.8125Z" fill="#FF953D"/>
<path d="M21.5625 16.5C20.9331 16.5 20.3576 16.7143 19.8891 17.0636C19.2011 17.5766 18.75 18.3889 18.75 19.3125C18.75 20.8656 20.0094 22.125 21.5625 22.125C23.1156 22.125 24.375 20.8656 24.375 19.3125C24.375 17.7594 23.1156 16.5 21.5625 16.5Z" fill="#FF953D"/>
<path d="M15.9375 14.25C15.3081 14.25 14.7326 14.4643 14.2641 14.8136C13.5761 15.3266 13.125 16.1389 13.125 17.0625C13.125 18.6156 14.3844 19.875 15.9375 19.875C17.4906 19.875 18.75 18.6156 18.75 17.0625C18.75 15.5094 17.4906 14.25 15.9375 14.25Z" fill="#5CB3FF"/>
<path d="M30.9477 16.5034L29.5876 7.887C29.501 7.34025 29.0296 6.9375 28.4761 6.9375H28.3124C27.6908 6.9375 27.1874 6.43406 27.1874 5.8125C27.1874 5.19094 26.684 4.6875 26.0624 4.6875H23.6836C24.3052 4.6875 24.8086 5.19094 24.8086 5.8125C24.8086 6.43406 25.312 6.9375 25.9336 6.9375H26.0973C26.6508 6.9375 27.1222 7.34025 27.2088 7.887L28.5695 16.5034C28.6853 17.2363 28.5914 17.9867 28.2995 18.6684L27.0586 21.5625H29.4374L30.6777 18.6684C30.9697 17.9867 31.0636 17.2363 30.9477 16.5034Z" fill="#733DF2"/>
<path d="M26.0625 19.875C27.6158 19.875 28.875 18.6158 28.875 17.0625C28.875 15.5092 27.6158 14.25 26.0625 14.25C24.5092 14.25 23.25 15.5092 23.25 17.0625C23.25 18.6158 24.5092 19.875 26.0625 19.875Z" fill="#5CB3FF"/>
<path d="M24.9375 17.0625C24.9375 15.8053 25.7683 14.7534 26.9062 14.3929C26.6385 14.3085 26.3584 14.25 26.0625 14.25C24.5094 14.25 23.25 15.5094 23.25 17.0625C23.25 18.6156 24.5094 19.875 26.0625 19.875C26.3584 19.875 26.6385 19.8165 26.9062 19.7321C25.7683 19.3716 24.9375 18.3197 24.9375 17.0625Z" fill="#0B74E5"/>
<path d="M14.25 17.0625C14.25 16.1389 14.7011 15.3266 15.3891 14.8136C15.7176 14.5684 16.1006 14.3957 16.5163 14.3107C16.329 14.2719 16.1361 14.25 15.9375 14.25C15.3081 14.25 14.7326 14.4643 14.2641 14.8136C13.5761 15.3266 13.125 16.1389 13.125 17.0625C13.125 18.6156 14.3844 19.875 15.9375 19.875C16.1304 19.875 16.3183 19.8553 16.5 19.8182C15.2164 19.5578 14.25 18.4232 14.25 17.0625Z" fill="#5CB3FF"/>
<path d="M21.5624 16.5C20.933 16.5 20.3575 16.7143 19.889 17.0636C19.5622 17.3072 19.2916 17.6199 19.0947 17.9783C19.4935 17.7572 19.948 17.625 20.4374 17.625C21.9905 17.625 23.2499 18.8844 23.2499 20.4375C23.2499 20.9235 23.1155 21.3741 22.8984 21.7734C23.7736 21.2964 24.3749 20.3796 24.3749 19.3125C24.3749 17.7594 23.1155 16.5 21.5624 16.5Z" fill="#FF7400"/>
<path d="M23.25 13.6893C21.6969 13.6893 20.4375 12.4298 20.4375 10.8768C20.4375 10.6535 20.4701 10.4392 20.5191 10.2305C20.1225 10.7153 19.875 11.3268 19.875 12.0018C19.875 13.5548 21.1344 14.8143 22.6875 14.8143C24.0173 14.8143 25.1254 13.8884 25.4184 12.6481C24.9026 13.2787 24.1281 13.6893 23.25 13.6893Z" fill="#FF7400"/>
<path d="M16.5836 14.332C17.2142 14.8478 17.6248 15.6224 17.6248 16.5005C17.6248 18.0535 16.3654 19.313 14.8123 19.313C14.589 19.313 14.3747 19.2803 14.166 19.2314C14.6509 19.628 15.2623 19.8755 15.9373 19.8755C17.4904 19.8755 18.7498 18.616 18.7498 17.063C18.7498 15.7332 17.824 14.6251 16.5836 14.332Z" fill="#0B74E5"/>
<path d="M21 7.5H16.5C16.1895 7.5 15.9375 7.248 15.9375 6.9375C15.9375 6.627 16.1895 6.375 16.5 6.375H21C21.3105 6.375 21.5625 6.627 21.5625 6.9375C21.5625 7.248 21.3105 7.5 21 7.5Z" fill="#ECE7ED"/>
<path d="M23.25 7.5C22.9395 7.5 22.6875 7.248 22.6875 6.9375C22.6875 6.627 22.9395 6.375 23.25 6.375C23.5605 6.375 23.8125 6.627 23.8125 6.9375C23.8125 7.248 23.5605 7.5 23.25 7.5Z" fill="#ECE7ED"/>
<path d="M33.7945 20.3362L33.1465 19.4171C34.4453 18.5008 34.8711 16.7464 34.1382 15.3368L33.9891 15.0516L34.9864 14.5312L35.1355 14.817C36.1272 16.7244 35.5512 19.0971 33.7945 20.3362Z" fill="#BFA4FE"/>
<path d="M33.5307 13.9408L32.9682 12.8158C32.8827 12.6436 32.8901 12.44 32.9891 12.2752C33.8064 10.9117 33.4874 9.13531 32.246 8.14194L31.9951 7.94113L32.6982 7.0625L32.9491 7.26331C34.5449 8.54019 35.0141 10.775 34.1067 12.5761L34.5376 13.4373L33.5307 13.9408Z" fill="#BFA4FE"/>
<path d="M8.6484 19.902L7.53465 19.749L7.66515 18.795C6.22627 17.3809 5.95234 15.1146 7.05315 13.3922L7.22752 13.1211L8.17477 13.7275L8.00096 13.9986C7.1454 15.3379 7.41371 17.1227 8.62646 18.1504C8.77327 18.2747 8.8464 18.4654 8.81996 18.6561L8.6484 19.902Z" fill="#BFA4FE"/>
<path d="M8.22461 11.6055L9.34944 10.4806L10.1449 11.2761L9.0201 12.401L8.22461 11.6055Z" fill="#BFA4FE"/>
<path d="M30 21.5625H29.4375H23.7996H12.5625H12C11.3784 21.5625 10.875 22.0659 10.875 22.6875V36.1875C10.875 36.8091 11.3784 37.3125 12 37.3125H30C30.6216 37.3125 31.125 36.8091 31.125 36.1875V22.6875C31.125 22.0659 30.6216 21.5625 30 21.5625Z" fill="#ECE7ED"/>
<path d="M30 21.5625H29.4375C29.4375 29.3289 23.1414 35.625 15.375 35.625H10.875V36.1875C10.875 36.8091 11.3784 37.3125 12 37.3125H30C30.6216 37.3125 31.125 36.8091 31.125 36.1875V22.6875C31.125 22.0659 30.6216 21.5625 30 21.5625Z" fill="#DAD5DB"/>
<path d="M18.75 31.125H13.125C12.8145 31.125 12.5625 31.377 12.5625 31.6875V35.0625C12.5625 35.373 12.8145 35.625 13.125 35.625H18.75C19.0605 35.625 19.3125 35.373 19.3125 35.0625V31.6875C19.3125 31.377 19.0605 31.125 18.75 31.125Z" fill="#656366"/>
<path d="M28.875 24.375H27.75C27.4395 24.375 27.1875 24.627 27.1875 24.9375V28.3125C27.1875 28.623 27.4395 28.875 27.75 28.875H28.875C29.1855 28.875 29.4375 28.623 29.4375 28.3125V24.9375C29.4375 24.627 29.1855 24.375 28.875 24.375Z" fill="#656366"/>
<path d="M21 30.5625C23.1746 30.5625 24.9375 28.7996 24.9375 26.625C24.9375 24.4504 23.1746 22.6875 21 22.6875C18.8254 22.6875 17.0625 24.4504 17.0625 26.625C17.0625 28.7996 18.8254 30.5625 21 30.5625Z" fill="#DAD5DB"/>
<path d="M21 30C22.864 30 24.375 28.489 24.375 26.625C24.375 24.761 22.864 23.25 21 23.25C19.136 23.25 17.625 24.761 17.625 26.625C17.625 28.489 19.136 30 21 30Z" fill="#656366"/>
<path d="M21 28.875C22.864 28.875 24.375 27.8676 24.375 26.625C24.375 25.3824 22.864 24.375 21 24.375C19.136 24.375 17.625 25.3824 17.625 26.625C17.625 27.8676 19.136 28.875 21 28.875Z" fill="#5E5E5E"/>
<path d="M17.625 26.625C17.625 27.0199 17.6964 27.3979 17.8213 27.75H24.1787C24.3036 27.3979 24.375 27.0199 24.375 26.625C24.375 26.2301 24.3036 25.8521 24.1787 25.5H17.8213C17.6964 25.8521 17.625 26.2301 17.625 26.625Z" fill="#7E7C80"/>
<path d="M27.75 24.9375H28.875V28.3125H27.75V24.9375Z" fill="#2B2B2B"/>
<path d="M18.75 31.125H13.125C12.8145 31.125 12.5625 31.377 12.5625 31.6875V35.0625C12.5625 35.0704 12.567 35.0771 12.567 35.0856L19.074 31.2403C18.9818 31.1728 18.8732 31.125 18.75 31.125Z" fill="#5E5E5E"/>
</g>
<defs>
<clipPath id="clip0_1063_83283">
<rect width="42" height="42" fill="white"/>
</clipPath>
</defs>
</svg>
