<svg width="32" height="32" viewBox="0 0 32 32" fill="none" xmlns="http://www.w3.org/2000/svg">
<g clip-path="url(#clip0_689_45365)">
<g clip-path="url(#clip1_689_45365)">
<path fill-rule="evenodd" clip-rule="evenodd" d="M29.8378 0H2.16216C0.972973 0 0 0.972973 0 2.16216V29.8378C0 31.027 0.972973 32 2.16216 32H29.8378C31.027 32 32 31.027 32 29.8378V2.16216C32 0.972973 31.027 0 29.8378 0Z" fill="#A50064"/>
<path d="M22.1415 15.0271C24.682 15.0271 26.7361 12.973 26.7361 10.4325C26.7361 7.89194 24.682 5.83789 22.1415 5.83789C19.6009 5.83789 17.5469 7.89194 17.5469 10.4325C17.5469 12.973 19.6009 15.0271 22.1415 15.0271ZM22.1415 8.47573C23.2226 8.47573 24.0982 9.3514 24.0982 10.4325C24.0982 11.5136 23.2226 12.3892 22.1415 12.3892C21.0604 12.3892 20.1847 11.5136 20.1847 10.4325C20.1847 9.3514 21.0604 8.47573 22.1415 8.47573Z" fill="white"/>
<path d="M22.1415 17.0156C19.6009 17.0156 17.5469 19.0697 17.5469 21.6102C17.5469 24.1508 19.6009 26.2048 22.1415 26.2048C24.682 26.2048 26.7361 24.1508 26.7361 21.6102C26.7361 19.0697 24.682 17.0156 22.1415 17.0156ZM22.1415 23.567C21.0604 23.567 20.1847 22.6913 20.1847 21.6102C20.1847 20.5291 21.0604 19.6535 22.1415 19.6535C23.2226 19.6535 24.0982 20.5291 24.0982 21.6102C24.0982 22.6913 23.2226 23.567 22.1415 23.567Z" fill="white"/>
<path d="M12.7776 17.0156C11.9992 17.0156 11.2857 17.2751 10.7127 17.7075C10.1398 17.2751 9.41544 17.0156 8.64787 17.0156C6.74516 17.0156 5.19922 18.5616 5.19922 20.4643V26.2156H7.83706V20.4318C7.83706 19.9994 8.183 19.6535 8.61543 19.6535C9.04787 19.6535 9.39381 19.9994 9.39381 20.4318V26.2048H12.0317V20.4318C12.0317 19.9994 12.3776 19.6535 12.81 19.6535C13.2425 19.6535 13.5884 19.9994 13.5884 20.4318V26.2048H16.2154V20.4535C16.2154 18.5616 14.6803 17.0156 12.7776 17.0156Z" fill="white"/>
<path d="M12.7786 5.83789C12.0003 5.83789 11.2868 6.09735 10.7138 6.52978C10.1408 6.09735 9.41648 5.83789 8.64891 5.83789C6.7354 5.83789 5.18945 7.38384 5.18945 9.28654V15.0271H7.82729V9.25411C7.82729 8.82167 8.17324 8.47573 8.60567 8.47573C9.0381 8.47573 9.38405 8.82167 9.38405 9.25411V15.0271H12.0219V9.25411C12.0219 8.82167 12.3678 8.47573 12.8003 8.47573C13.2327 8.47573 13.5786 8.82167 13.5786 9.25411V15.0271H16.2165V9.28654C16.2165 7.38384 14.6813 5.83789 12.7786 5.83789Z" fill="white"/>
</g>
</g>
<defs>
<clipPath id="clip0_689_45365">
<rect width="32" height="32" fill="white"/>
</clipPath>
<clipPath id="clip1_689_45365">
<rect width="32" height="32" fill="white"/>
</clipPath>
</defs>
</svg>
