<svg width="42" height="42" viewBox="0 0 42 42" fill="none" xmlns="http://www.w3.org/2000/svg">
<g clip-path="url(#clip0_1063_83341)">
<rect opacity="0.5" width="42" height="42" rx="7.15789" fill="#E9E1FD"/>
<path d="M34.7723 17.4781L31.5614 29.8391C31.4679 30.197 31.2586 30.514 30.966 30.7404C30.6734 30.9668 30.3141 31.09 29.9442 31.0906H12.0567C11.6867 31.09 11.3274 30.9668 11.0348 30.7404C10.7423 30.514 10.5329 30.197 10.4395 29.8391L7.22854 17.4781C7.15046 17.1806 7.15605 16.8673 7.24467 16.5727C7.33329 16.2782 7.50152 16.0138 7.73081 15.8087C7.96011 15.6037 8.24156 15.4659 8.54415 15.4106C8.84675 15.3553 9.15873 15.3846 9.44573 15.4953L14.766 17.5438C14.8198 17.5647 14.879 17.5678 14.9346 17.5526C14.9903 17.5374 15.0397 17.5047 15.0754 17.4594L19.6832 11.5531C19.8388 11.3518 20.0384 11.1888 20.2667 11.0767C20.495 10.9646 20.746 10.9062 21.0004 10.9062C21.2548 10.9062 21.5058 10.9646 21.7341 11.0767C21.9625 11.1888 22.1621 11.3518 22.3176 11.5531L26.9254 17.4594C26.9612 17.5047 27.0105 17.5374 27.0662 17.5526C27.1219 17.5678 27.181 17.5647 27.2348 17.5438L32.5551 15.4953C32.842 15.3895 33.1523 15.3638 33.4526 15.421C33.753 15.4781 34.0321 15.616 34.2601 15.8199C34.488 16.0237 34.6561 16.2858 34.7463 16.5779C34.8366 16.8701 34.8456 17.1813 34.7723 17.4781Z" fill="url(#paint0_linear_1063_83341)"/>
</g>
<defs>
<linearGradient id="paint0_linear_1063_83341" x1="7.17323" y1="20.9984" x2="34.8365" y2="20.9984" gradientUnits="userSpaceOnUse">
<stop stop-color="#BFA4FE"/>
<stop offset="1" stop-color="#8352FA"/>
</linearGradient>
<clipPath id="clip0_1063_83341">
<rect width="42" height="42" fill="white"/>
</clipPath>
</defs>
</svg>
