<svg width="42" height="17" viewBox="0 0 42 17" fill="none" xmlns="http://www.w3.org/2000/svg">
    <path
        d="M0 11.1561L5.38168 0.549805H10.6528L18.0999 11.9328L21.1457 5.88494L26.3033 5.90822L20.9915 16.4912H15.8541L8.36052 5.17514L5.33805 11.1328L0 11.1561Z"
        fill="#010C2D" />
    <path d="M2.60938 16.4912L5.34385 11.1328H10.6354L7.94451 16.4912H2.60938Z" fill="#010C2D" />
    <path d="M21.1448 5.88466L22.9688 2.57129H17.7442L16.0977 5.88466H21.1448Z" fill="#010C2D" />
    <path
        d="M30.5128 0.549853L28.7907 3.88359H36.9534C37.0844 3.89098 37.2133 3.92049 37.3345 3.97086C37.6004 4.10085 37.8238 4.304 37.9784 4.55648C38.133 4.80896 38.2123 5.10028 38.2072 5.39628C38.1519 6.22244 37.0436 6.97587 36.4065 6.97587H27.2227L25.5093 10.266H35.4814C35.5803 10.3271 36.2698 10.778 36.3192 11.5169C36.3745 12.3314 35.6327 13.2041 34.504 13.3554H24.0199L22.4199 16.5H34.1142C34.3918 16.485 34.6674 16.4441 34.9374 16.3778C37.5701 15.764 40.1329 13.0586 39.8159 10.4231C39.7245 9.73742 39.4613 9.086 39.0508 8.52929C39.7509 8.1646 40.3503 7.63308 40.7962 6.98169C41.8493 5.41664 42.0442 2.99634 40.8631 1.71928C40.3476 1.16799 39.6806 0.781373 38.9461 0.608034C38.7632 0.568074 38.5774 0.542782 38.3904 0.532399C36.8981 0.456765 31.4292 0.535308 30.5128 0.549853Z"
        fill="#010C2D" />
</svg>