<svg width="32" height="32" viewBox="0 0 32 32" fill="none" xmlns="http://www.w3.org/2000/svg">
<path d="M16.5687 13.9609C16.4545 13.9609 16.3434 13.8018 16.3959 13.7008L17.5447 11.5376H13.6531L12.3667 13.9605H15.8474C15.8879 13.9604 15.9277 13.9708 15.963 13.9905C15.9984 14.0102 16.0281 14.0387 16.0494 14.0731C16.0707 14.1076 16.0827 14.1469 16.0845 14.1874C16.0863 14.2278 16.0777 14.2681 16.0595 14.3042L13.8149 18.542L8.29625 9.99609H4.38127L0 18.2622H3.45875C3.50377 18.2622 3.54802 18.2738 3.58728 18.2958C3.62655 18.3178 3.65952 18.3495 3.68304 18.3879C3.70656 18.4263 3.71985 18.4701 3.72164 18.515C3.72343 18.56 3.71366 18.6047 3.69327 18.6448L1.92869 21.9692H5.84413L7.92368 18.0519H4.43384C4.3891 18.052 4.3451 18.0405 4.30614 18.0184C4.26718 17.9964 4.2346 17.9647 4.21157 17.9263C4.18854 17.888 4.17585 17.8443 4.17475 17.7996C4.17364 17.7548 4.18416 17.7106 4.20527 17.6711L6.5495 13.2725L12.1724 22.0231H15.9831L20.1701 13.9609H16.5687Z" fill="#FF3F1A"/>
<path d="M31.5774 11.0473C31.0686 10.3451 30.1242 9.98537 28.7697 9.97852H23.6954L22.1749 12.8316H27.1669C27.6241 12.8316 28.0199 13.184 28.0414 13.6416C28.047 13.7567 28.0291 13.8718 27.9889 13.9798C27.9487 14.0878 27.887 14.1865 27.8075 14.27C27.728 14.3534 27.6323 14.4198 27.5264 14.4652C27.4204 14.5106 27.3064 14.534 27.1911 14.534H21.2711L19.7456 17.4067H26.8771C26.9887 17.4067 27.0993 17.4287 27.2024 17.4714C27.3055 17.5141 27.3992 17.5768 27.4782 17.6557C27.5571 17.7347 27.6197 17.8284 27.6623 17.9316C27.705 18.0348 27.727 18.1453 27.7269 18.257C27.7269 18.4824 27.6374 18.6985 27.478 18.8579C27.3186 19.0173 27.1025 19.1068 26.8771 19.1068H18.8432L17.3301 21.9562H19.2844C21.3721 21.9562 22.6672 21.9525 25.9454 21.9347C28.3683 21.9205 30.0739 20.5253 30.6234 18.1056C30.7459 17.5639 30.9402 16.7018 30.3422 16.0069C31.0279 15.5607 31.417 15.0035 31.7137 14.075C32.1351 12.7721 32.089 11.7527 31.5774 11.0473Z" fill="#FF3F1A"/>
</svg>
