<svg width="86" height="33" viewBox="0 0 86 33" fill="none" xmlns="http://www.w3.org/2000/svg">
    <path
        d="M44.5053 11.0792C44.2029 11.0792 43.9065 10.6577 44.0474 10.3881L47.0997 4.64178H36.7586L33.3407 11.0792H42.5923C42.6999 11.0791 42.8057 11.1066 42.8997 11.159C42.9936 11.2114 43.0726 11.287 43.1291 11.3786C43.1856 11.4701 43.2177 11.5746 43.2224 11.6821C43.2271 11.7896 43.2042 11.8965 43.1559 11.9926L37.1898 23.2508L22.527 0.544922H12.1239L0.484375 22.5074H9.67773C9.79732 22.5075 9.9149 22.5383 10.0192 22.5968C10.1236 22.6552 10.2111 22.7395 10.2736 22.8414C10.3361 22.9434 10.3715 23.0597 10.3762 23.1792C10.381 23.2987 10.355 23.4174 10.3008 23.524L5.61244 32.3567H16.0143L21.5408 21.9487H12.2661C12.1473 21.9485 12.0306 21.9177 11.9273 21.8591C11.824 21.8006 11.7376 21.7163 11.6765 21.6144C11.6153 21.5126 11.5816 21.3967 11.5785 21.278C11.5754 21.1593 11.603 21.0418 11.6587 20.9369L17.8885 9.25121L32.8281 32.5H42.9531L54.0776 11.0792H44.5053Z"
        fill="white" />
    <path
        d="M84.3844 3.33975C83.0338 1.47411 80.5232 0.519434 76.9255 0.5H63.4434L59.4024 8.07914H72.6671C73.8817 8.07914 74.9324 9.0156 74.9907 10.2314C75.0055 10.5373 74.958 10.8431 74.8512 11.1301C74.7443 11.4171 74.5803 11.6795 74.3691 11.9013C74.1579 12.1231 73.9038 12.2997 73.6223 12.4204C73.3408 12.5411 73.0378 12.6034 72.7315 12.6035H57.0012L52.9541 20.2373H71.9019C72.1986 20.2372 72.4923 20.2955 72.7664 20.4089C73.0405 20.5223 73.2895 20.6886 73.4993 20.8983C73.7091 21.1079 73.8756 21.3569 73.9891 21.6309C74.1027 21.905 74.1611 22.1987 74.1611 22.4953C74.1619 22.793 74.1038 23.088 73.9902 23.3632C73.8765 23.6384 73.7096 23.8884 73.4989 24.0989C73.2883 24.3093 73.0381 24.476 72.7627 24.5893C72.4874 24.7027 72.1924 24.7604 71.8946 24.7593H50.5504L46.5312 32.33H51.7225C57.2708 32.33 60.7106 32.3215 69.4217 32.2729C75.8591 32.2364 80.3908 28.5282 81.8508 22.1005C82.1751 20.66 82.6925 18.3693 81.1038 16.5231C82.9257 15.3388 83.9593 13.857 84.7476 11.3914C85.8699 7.92367 85.7484 5.21631 84.3844 3.33975Z"
        fill="white" />
</svg>