<svg width="20" height="20" viewBox="0 0 20 20" fill="none" xmlns="http://www.w3.org/2000/svg">
<g clip-path="url(#clip0_753_61080)">
<g clip-path="url(#clip1_753_61080)">
<path d="M10.0006 19.6747C15.3357 19.6747 19.6875 15.3284 19.6875 9.99887C19.6875 4.66937 15.3357 0.324219 10.0006 0.324219C4.66551 0.324219 0.3125 4.67055 0.3125 9.99887C0.3125 15.3272 4.66434 19.6747 10.0006 19.6747Z" fill="#FB8500"/>
<path d="M10.3074 9.19733L10.3076 9.19691L10.7285 8.40437H9.2811L8.82056 9.27178H10.1358C10.1358 9.27178 10.1358 9.27178 10.1358 9.27178C10.162 9.27177 10.1877 9.27845 10.2105 9.29119C10.2334 9.30393 10.2526 9.3223 10.2663 9.34457C10.28 9.36683 10.2879 9.39223 10.289 9.41836C10.2901 9.4445 10.2846 9.47049 10.2728 9.49386L10.2723 9.49496L10.2723 9.49495L9.36281 11.212L9.31719 11.2981L9.26431 11.2162L7.04517 7.7798H5.52442L3.8098 11.0147H5.11625H5.1163C5.1443 11.0148 5.17183 11.022 5.19627 11.0357C5.2207 11.0493 5.24121 11.0691 5.25584 11.093C5.27048 11.1168 5.27875 11.1441 5.27986 11.172C5.28098 11.2 5.2749 11.2278 5.26221 11.2528L5.26175 11.2537L5.26174 11.2537L4.59133 12.5167H6.04839L6.8303 11.0438L5.51143 11.0438L5.51133 11.0438M10.3074 9.19733L5.41872 10.8324C5.41017 10.8484 5.40591 10.8663 5.40635 10.8844C5.4068 10.9025 5.41194 10.9202 5.42127 10.9358C5.4306 10.9513 5.4438 10.9642 5.45959 10.9731C5.47537 10.982 5.4932 10.9867 5.51133 10.9867V11.0438M10.3074 9.19733C10.2831 9.24399 10.3 9.29364 10.3204 9.3238C10.3411 9.35431 10.3794 9.38625 10.4281 9.38625H11.7932L10.1561 12.5386H8.67801L6.41662 9.01927L6.36395 8.93729L6.31812 9.02328L5.36833 10.8054M10.3074 9.19733L5.36833 10.8054M5.51133 11.0438C5.48335 11.0438 5.45584 11.0366 5.43148 11.0229C5.40709 11.0091 5.38669 10.9892 5.37228 10.9652C5.35786 10.9412 5.34992 10.9138 5.34923 10.8858C5.34854 10.8578 5.35512 10.8301 5.36833 10.8054M5.51133 11.0438L5.36833 10.8054" fill="url(#paint0_linear_753_61080)" stroke="#D28110" stroke-width="0.114286"/>
<path d="M16.4647 8.18144L16.4647 8.18143C16.2742 7.9185 15.9142 7.77475 15.3732 7.77199H13.3516L12.7965 8.81368H14.7239C14.9374 8.81368 15.1251 8.97826 15.1353 9.19628C15.138 9.25065 15.1295 9.30499 15.1105 9.356C15.0915 9.40702 15.0624 9.45364 15.0248 9.49305C14.9873 9.53246 14.9421 9.56383 14.8921 9.58527C14.842 9.6067 14.7882 9.61775 14.7337 9.61774L16.4647 8.18144ZM16.4647 8.18144C16.6563 8.44558 16.6802 8.83641 16.5118 9.35705L16.5117 9.35724C16.3946 9.7238 16.2438 9.93741 15.9793 10.1095L15.9246 10.1451L15.9672 10.1947C16.1883 10.4516 16.1192 10.7717 16.0687 10.9951C15.9597 11.475 15.7371 11.8495 15.4252 12.1047C15.1133 12.3599 14.7083 12.4992 14.2287 12.5021C12.9005 12.5093 12.3759 12.5108 11.5301 12.5108H10.8333M16.4647 8.18144L10.8333 12.5108M10.8333 12.5108L11.3857 11.4705H14.6065C14.713 11.4705 14.8151 11.4282 14.8904 11.353C14.9657 11.2777 15.008 11.1756 15.008 11.0691L10.8333 12.5108ZM11.8121 10.6674L12.3695 9.61774H14.7337L11.8121 10.6674ZM11.8121 10.6674H14.6065C14.6592 10.6674 14.7115 10.6778 14.7602 10.698C14.8089 10.7182 14.8532 10.7478 14.8905 10.7851C14.9277 10.8224 14.9573 10.8667 14.9775 10.9154C14.9976 10.9641 15.008 11.0163 15.008 11.0691L11.8121 10.6674Z" fill="url(#paint1_linear_753_61080)" stroke="#D28110" stroke-width="0.114286"/>
<path d="M10.0006 0.324219C4.66434 0.324219 0.3125 4.67055 0.3125 9.99887C0.3125 15.3272 4.66434 19.6747 10.0006 19.6747C15.3368 19.6747 19.6875 15.3284 19.6875 9.99887C19.6875 4.66937 15.3356 0.324219 10.0006 0.324219ZM10.0006 17.3853C5.92684 17.3853 2.60477 14.0674 2.60477 9.99883C2.60477 5.93023 5.92684 2.61238 10.0006 2.61238C14.0743 2.61238 17.3964 5.93141 17.3964 9.99883C17.3964 14.0662 14.0732 17.3853 10.0006 17.3853Z" fill="#FFB703"/>
<path d="M3.1543 3.16293L4.77359 4.78016C6.11332 3.44211 7.96215 2.61242 9.99895 2.61242V0.324219C7.33109 0.324219 4.90926 1.41059 3.1543 3.16293Z" fill="#FCD227"/>
<path d="M16.8466 16.834L15.2273 15.2168C13.8874 16.555 12.0384 17.3845 10.002 17.3845V19.6739C12.6697 19.6739 15.0917 18.5871 16.8466 16.8341L16.8466 16.834Z" fill="#FCD227"/>
<path d="M16.8455 3.16406L15.2266 4.78102C16.5664 6.11918 17.3972 7.96578 17.3972 9.99949H19.6884C19.6884 7.33535 18.6004 4.91668 16.8455 3.16406Z" fill="#FCD227"/>
<path d="M3.15543 16.8345L4.775 15.217C3.43527 13.8789 2.60473 12.0323 2.60473 9.99805H0.3125C0.3125 12.6628 1.40047 15.0818 3.15543 16.8345Z" fill="#FCD227"/>
</g>
</g>
<defs>
<linearGradient id="paint0_linear_753_61080" x1="7.80107" y1="7.72266" x2="7.80107" y2="12.5957" gradientUnits="userSpaceOnUse">
<stop stop-color="#FFF0B3"/>
<stop offset="1" stop-color="#FFC60C"/>
</linearGradient>
<linearGradient id="paint1_linear_753_61080" x1="13.71" y1="7.71484" x2="13.71" y2="12.5679" gradientUnits="userSpaceOnUse">
<stop stop-color="#FFF0B3"/>
<stop offset="1" stop-color="#FFC60C"/>
</linearGradient>
<clipPath id="clip0_753_61080">
<rect width="20" height="20" fill="white"/>
</clipPath>
<clipPath id="clip1_753_61080">
<rect width="20" height="20" fill="white"/>
</clipPath>
</defs>
</svg>
