<svg width="64" height="64" viewBox="0 0 64 64" fill="none" xmlns="http://www.w3.org/2000/svg">
<path d="M64 32C64 34.7307 60.6453 36.9813 59.9733 39.4987C59.28 42.1013 61.0347 45.728 59.7173 48.0053C58.3787 50.32 54.352 50.5973 52.4747 52.4747C50.5973 54.352 50.32 58.3787 48.0053 59.7173C45.728 61.0347 42.1013 59.28 39.4987 59.9733C36.9813 60.6453 34.7307 64 32 64C29.2693 64 27.0187 60.6453 24.5013 59.9733C21.8987 59.28 18.272 61.0347 15.9947 59.7173C13.68 58.3787 13.4027 54.352 11.5253 52.4747C9.648 50.5973 5.62133 50.32 4.28267 48.0053C2.96533 45.728 4.72 42.1013 4.02667 39.4987C3.35467 36.9813 0 34.7307 0 32C0 29.2693 3.35467 27.0187 4.02667 24.5013C4.72 21.8987 2.96533 18.272 4.28267 15.9947C5.62133 13.68 9.648 13.4027 11.5253 11.5253C13.4027 9.648 13.68 5.62133 15.9947 4.28267C18.272 2.96533 21.8987 4.72 24.5013 4.02667C27.0187 3.35467 29.2693 0 32 0C34.7307 0 36.9813 3.35467 39.4987 4.02667C42.1013 4.72 45.728 2.96533 48.0053 4.28267C50.32 5.62133 50.5973 9.648 52.4747 11.5253C54.352 13.4027 58.3787 13.68 59.7173 15.9947C61.0347 18.272 59.28 21.8987 59.9733 24.5013C60.6453 27.0187 64 29.2693 64 32Z" fill="white" fill-opacity="0.2"/>
<path d="M57.2568 32.0005C57.2568 34.1562 54.6084 35.9331 54.0778 37.9205C53.5305 39.9752 54.9157 42.8384 53.8757 44.6362C52.8189 46.4636 49.6399 46.6826 48.1578 48.1647C46.6757 49.6468 46.4568 52.8257 44.6294 53.8826C42.8315 54.9226 39.9684 53.5373 37.9136 54.0847C35.9263 54.6152 34.1494 57.2636 31.9936 57.2636C29.8378 57.2636 28.061 54.6152 26.0736 54.0847C24.0189 53.5373 21.1557 54.9226 19.3578 53.8826C17.5305 52.8257 17.3115 49.6468 15.8294 48.1647C14.3473 46.6826 11.1684 46.4636 10.1115 44.6362C9.07152 42.8384 10.4568 39.9752 9.90942 37.9205C9.37889 35.9331 6.73047 34.1562 6.73047 32.0005C6.73047 29.8447 9.37889 28.0678 9.90942 26.0805C10.4568 24.0257 9.07152 21.1626 10.1115 19.3647C11.1684 17.5373 14.3473 17.3184 15.8294 15.8363C17.3115 14.3541 17.5305 11.1752 19.3578 10.1184C21.1557 9.07836 24.0189 10.4636 26.0736 9.91625C28.061 9.38573 29.8378 6.7373 31.9936 6.7373C34.1494 6.7373 35.9263 9.38573 37.9136 9.91625C39.9684 10.4636 42.8315 9.07836 44.6294 10.1184C46.4568 11.1752 46.6757 14.3541 48.1578 15.8363C49.6399 17.3184 52.8189 17.5373 53.8757 19.3647C54.9157 21.1626 53.5305 24.0257 54.0778 26.0805C54.6084 28.0678 57.2568 29.8447 57.2568 32.0005Z" fill="#FFFCED"/>
<path d="M28 25H26C25.4696 25 24.9609 25.2107 24.5858 25.5858C24.2107 25.9609 24 26.4696 24 27V39C24 39.5304 24.2107 40.0391 24.5858 40.4142C24.9609 40.7893 25.4696 41 26 41H31.697" stroke="#E59900" stroke-width="2" stroke-linecap="round" stroke-linejoin="round"/>
<path d="M38 34V38H42" stroke="#E59900" stroke-width="2" stroke-linecap="round" stroke-linejoin="round"/>
<path d="M38 31V27C38 26.4696 37.7893 25.9609 37.4142 25.5858C37.0391 25.2107 36.5304 25 36 25H34" stroke="#E59900" stroke-width="2" stroke-linecap="round" stroke-linejoin="round"/>
<path d="M32 23H30C29.4696 23 28.9609 23.2107 28.5858 23.5858C28.2107 23.9609 28 24.4696 28 25C28 25.5304 28.2107 26.0391 28.5858 26.4142C28.9609 26.7893 29.4696 27 30 27H32C32.5304 27 33.0391 26.7893 33.4142 26.4142C33.7893 26.0391 34 25.5304 34 25C34 24.4696 33.7893 23.9609 33.4142 23.5858C33.0391 23.2107 32.5304 23 32 23Z" stroke="#E59900" stroke-width="2" stroke-linecap="square" stroke-linejoin="round"/>
<path d="M38 42C39.0609 42 40.0783 41.5786 40.8284 40.8284C41.5786 40.0783 42 39.0609 42 38C42 36.9391 41.5786 35.9217 40.8284 35.1716C40.0783 34.4214 39.0609 34 38 34C36.9391 34 35.9217 34.4214 35.1716 35.1716C34.4214 35.9217 34 36.9391 34 38C34 39.0609 34.4214 40.0783 35.1716 40.8284C35.9217 41.5786 36.9391 42 38 42Z" stroke="#E59900" stroke-width="2" stroke-linecap="square" stroke-linejoin="round"/>
<path d="M28 31H32" stroke="#E59900" stroke-width="2" stroke-linecap="round" stroke-linejoin="round"/>
<path d="M28 35H31" stroke="#E59900" stroke-width="2" stroke-linecap="round" stroke-linejoin="round"/>
</svg>
