<svg width="24" height="25" viewBox="0 0 24 25" fill="none" xmlns="http://www.w3.org/2000/svg">
    <path
        d="M6.52733 9.80234H6.66735M11.9984 9.80234H12.1385M17.3279 9.80234H17.468M11.3984 15.2023H4.53177C3.35356 15.2023 2.39844 14.2472 2.39844 13.069V6.53568C2.39844 5.35747 3.35356 4.40234 4.53177 4.40234H19.4651C20.6433 4.40234 21.5984 5.35747 21.5984 6.53568V9.80234M15.4096 14.0974L16.7997 13.4024C17.8132 12.8957 19.0061 12.8957 20.0196 13.4024L21.4096 14.0974C21.4096 14.0974 21.4096 16.2874 21.4096 17.4424C21.4096 18.5974 20.342 19.3771 18.4096 20.5974C16.4773 19.3771 15.4096 18.3474 15.4096 17.4424V14.0974Z"
        stroke="#38383D" stroke-width="1.5" stroke-linecap="round" stroke-linejoin="round" />
</svg>