<svg width="824" height="2" viewBox="0 0 824 2" fill="none" xmlns="http://www.w3.org/2000/svg">
<g clip-path="url(#clip0_1025_82030)">
<rect width="920" height="2" transform="translate(-48)" fill="white"/>
<path d="M6.5 0H57.5L61.5 2H10.5L6.5 0Z" fill="#0B74E5"/>
<path d="M69.5 0H120.5L124.5 2H73.5L69.5 0Z" fill="#FF3F1A"/>
<path d="M132.5 0H183.5L187.5 2H136.5L132.5 0Z" fill="#0B74E5"/>
<path d="M195.5 0H246.5L250.5 2H199.5L195.5 0Z" fill="#FF3F1A"/>
<path d="M258.5 0H309.5L313.5 2H262.5L258.5 0Z" fill="#0B74E5"/>
<path d="M321.5 0H372.5L376.5 2H325.5L321.5 0Z" fill="#FF3F1A"/>
<path d="M384.5 0H435.5L439.5 2H388.5L384.5 0Z" fill="#0B74E5"/>
<path d="M447.5 0H498.5L502.5 2H451.5L447.5 0Z" fill="#FF3F1A"/>
<path d="M510.5 0H561.5L565.5 2H514.5L510.5 0Z" fill="#0B74E5"/>
<path d="M573.5 0H624.5L628.5 2H577.5L573.5 0Z" fill="#0B74E5"/>
<path d="M636.5 0H687.5L691.5 2H640.5L636.5 0Z" fill="#FF3F1A"/>
<path d="M699.5 0H750.5L754.5 2H703.5L699.5 0Z" fill="#0B74E5"/>
<path d="M762.5 0H813.5L817.5 2H766.5L762.5 0Z" fill="#FF3F1A"/>
</g>
<defs>
<clipPath id="clip0_1025_82030">
<rect width="920" height="2" fill="white" transform="translate(-48)"/>
</clipPath>
</defs>
</svg>
