<svg width="32" height="33" viewBox="0 0 32 33" fill="none" xmlns="http://www.w3.org/2000/svg">
    <mask id="path-1-outside-1_1535_9041" maskUnits="userSpaceOnUse" x="-0.722656" y="-0.223145"
        width="33" height="33" fill="black">
        <rect fill="white" x="-0.722656" y="-0.223145" width="33" height="33" />
        <path
            d="M30.9998 26.9999C30.9998 29.4852 28.985 31.4999 26.4998 31.4999C24.0145 31.4999 21.9998 29.4852 21.9998 26.9999C21.9998 24.5146 24.0145 22.4999 26.4998 22.4999C28.985 22.4999 30.9998 24.5146 30.9998 26.9999Z" />
        <path
            d="M30.3998 16.1152C31.2336 15.2789 31.7019 14.1461 31.7019 12.9652C31.7019 11.7842 31.2336 10.6514 30.3998 9.81517L22.6654 2.07967C21.8293 1.2454 20.6965 0.776855 19.5154 0.776855C18.3343 0.776855 17.2014 1.2454 16.3654 2.07967L7.99257 10.4525C7.40515 11.036 6.99301 11.7724 6.80291 12.5782C6.61281 13.3841 6.65236 14.2271 6.91707 15.0115L8.52863 19.849L1.93726 26.4382C1.71156 26.4048 1.48117 26.4252 1.26485 26.4977C1.04853 26.5702 0.8524 26.6929 0.692445 26.8555C0.426616 27.1222 0.277344 27.4834 0.277344 27.8599C0.277344 28.2364 0.426616 28.5976 0.692445 28.8642L3.61745 31.7892C3.74916 31.9216 3.90581 32.0266 4.07835 32.098C4.25089 32.1695 4.43589 32.206 4.62263 32.2055C4.81559 32.2047 5.00641 32.165 5.18367 32.0887C5.36092 32.0124 5.52098 31.9012 5.65426 31.7617C5.78689 31.6304 5.89205 31.4739 5.96361 31.3015C6.03518 31.1292 6.0717 30.9443 6.07107 30.7576C6.06936 30.6842 6.06221 30.6111 6.0497 30.5388L12.6338 23.9525L17.4713 25.564C17.929 25.7172 18.4084 25.7954 18.891 25.7958C19.4743 25.7949 20.0516 25.6788 20.59 25.4543C21.1283 25.2298 21.617 24.9012 22.0281 24.4874L30.3998 16.1152ZM4.82963 30.9933C4.77334 31.047 4.6985 31.077 4.62066 31.077C4.54283 31.077 4.46799 31.047 4.4117 30.9933L1.4867 28.0683C1.4582 28.0377 1.43623 28.0017 1.42215 27.9623C1.40807 27.923 1.40217 27.8812 1.4048 27.8395C1.40743 27.7978 1.41855 27.7571 1.43746 27.7198C1.45638 27.6825 1.4827 27.6495 1.51482 27.6228C1.54208 27.5952 1.57453 27.5733 1.6103 27.5584C1.64608 27.5435 1.68446 27.5358 1.72323 27.5358C1.76199 27.5358 1.80038 27.5435 1.83615 27.5584C1.87192 27.5733 1.90438 27.5952 1.93163 27.6228L4.85663 30.5478C4.88422 30.575 4.9061 30.6074 4.92098 30.6431C4.93585 30.6789 4.94343 30.7172 4.94326 30.7559C4.94187 30.8012 4.93105 30.8457 4.91149 30.8866C4.89192 30.9275 4.86404 30.9638 4.82963 30.9933ZM5.44838 29.5471L2.93401 27.0327L9.17213 20.794L11.6871 23.309L5.44838 29.5471ZM17.8234 24.497L12.7839 22.8174L9.6632 19.6949L7.98357 14.6555C7.7861 14.069 7.75679 13.439 7.89895 12.8368C8.04111 12.2345 8.34907 11.6841 8.78795 11.2479L17.1608 2.87505C17.7856 2.25127 18.6325 1.90092 19.5154 1.90092C20.3983 1.90092 21.2451 2.25127 21.87 2.87505L29.6055 10.6105C30.229 11.2356 30.5792 12.0823 30.5792 12.9652C30.5792 13.848 30.229 14.6948 29.6055 15.3198L21.231 23.6926C20.7946 24.1307 20.2445 24.4381 19.6427 24.5802C19.0409 24.7223 18.4114 24.6935 17.8251 24.497H17.8234ZM26.6586 22.0979C25.6573 22.0979 24.6785 22.3948 23.846 22.9511C23.0135 23.5074 22.3646 24.298 21.9814 25.2231C21.5983 26.1481 21.498 27.166 21.6933 28.1481C21.8887 29.1301 22.3708 30.0321 23.0788 30.7402C23.7868 31.4482 24.6889 31.9303 25.6709 32.1257C26.653 32.321 27.6709 32.2207 28.5959 31.8376C29.521 31.4544 30.3116 30.8055 30.8679 29.973C31.4242 29.1405 31.7211 28.1617 31.7211 27.1604C31.7196 25.8185 31.186 24.532 30.2373 23.5829C29.2885 22.6339 28.0022 22.0999 26.6603 22.0979H26.6586ZM26.6586 31.0979C25.8798 31.0979 25.1185 30.867 24.471 30.4343C23.8235 30.0017 23.3188 29.3867 23.0208 28.6672C22.7228 27.9478 22.6448 27.1561 22.7967 26.3923C22.9487 25.6285 23.3237 24.9269 23.8743 24.3762C24.425 23.8255 25.1266 23.4505 25.8904 23.2986C26.6542 23.1467 27.4459 23.2246 28.1654 23.5226C28.8849 23.8207 29.4998 24.3253 29.9325 24.9729C30.3651 25.6204 30.5961 26.3817 30.5961 27.1604C30.5949 28.2041 30.1799 29.2046 29.4421 29.9427C28.7043 30.6809 27.7039 31.0963 26.6603 31.0979H26.6586ZM25.0273 24.3479C24.7937 24.3479 24.5653 24.4172 24.3711 24.547C24.1768 24.6768 24.0254 24.8613 23.936 25.0771C23.8466 25.293 23.8232 25.5305 23.8688 25.7596C23.9143 25.9888 24.0268 26.1992 24.1921 26.3644C24.3573 26.5296 24.5677 26.6421 24.7969 26.6877C25.026 26.7333 25.2635 26.7099 25.4794 26.6205C25.6952 26.5311 25.8797 26.3797 26.0095 26.1854C26.1393 25.9912 26.2086 25.7628 26.2086 25.5292C26.2086 25.2162 26.0843 24.916 25.8632 24.6945C25.642 24.473 25.342 24.3484 25.029 24.3479H25.0273ZM24.9711 25.5292C24.9711 25.5143 24.977 25.4999 24.9875 25.4894C24.9981 25.4788 25.0124 25.4729 25.0273 25.4729C25.0422 25.4729 25.0565 25.4788 25.0671 25.4894C25.0776 25.4999 25.0836 25.5143 25.0836 25.5292C25.0847 25.591 24.9728 25.591 24.9728 25.5297L24.9711 25.5292ZM28.2898 26.7104C28.5234 26.7104 28.7518 26.6411 28.9461 26.5113C29.1403 26.3816 29.2917 26.1971 29.3812 25.9812C29.4706 25.7654 29.494 25.5279 29.4484 25.2987C29.4028 25.0696 29.2903 24.8591 29.1251 24.6939C28.9599 24.5287 28.7494 24.4162 28.5203 24.3706C28.2911 24.325 28.0536 24.3484 27.8378 24.4378C27.6219 24.5272 27.4374 24.6787 27.3076 24.8729C27.1778 25.0672 27.1086 25.2955 27.1086 25.5292C27.1085 25.6845 27.1391 25.8383 27.1985 25.9818C27.2579 26.1253 27.3451 26.2556 27.4549 26.3654C27.5648 26.4752 27.6953 26.5622 27.8388 26.6215C27.9824 26.6808 28.1362 26.7112 28.2915 26.711L28.2898 26.7104ZM28.2898 25.4729C28.3047 25.4729 28.319 25.4788 28.3296 25.4894C28.3401 25.4999 28.3461 25.5143 28.3461 25.5292C28.3461 25.5899 28.2336 25.591 28.2336 25.5292C28.2336 25.5216 28.2351 25.5142 28.238 25.5073C28.2409 25.5003 28.2452 25.494 28.2506 25.4888C28.256 25.4835 28.2624 25.4794 28.2695 25.4767C28.2765 25.474 28.284 25.4727 28.2915 25.4729H28.2898ZM25.0273 27.6104C24.7937 27.6104 24.5653 27.6797 24.3711 27.8095C24.1768 27.9393 24.0254 28.1238 23.936 28.3396C23.8466 28.5555 23.8232 28.793 23.8688 29.0221C23.9143 29.2513 24.0268 29.4617 24.1921 29.6269C24.3573 29.7921 24.5677 29.9046 24.7969 29.9502C25.026 29.9958 25.2635 29.9724 25.4794 29.883C25.6952 29.7936 25.8797 29.6422 26.0095 29.4479C26.1393 29.2537 26.2086 29.0253 26.2086 28.7917C26.2086 28.4787 26.0843 28.1785 25.8632 27.957C25.642 27.7355 25.342 27.6109 25.029 27.6104H25.0273ZM24.9711 28.7917C24.9711 28.7768 24.977 28.7624 24.9875 28.7519C24.9981 28.7414 25.0124 28.7354 25.0273 28.7354C25.0422 28.7354 25.0565 28.7414 25.0671 28.7519C25.0776 28.7624 25.0836 28.7768 25.0836 28.7917C25.0847 28.8535 24.9728 28.8535 24.9728 28.7922L24.9711 28.7917ZM28.2898 27.6104C28.0562 27.6104 27.8278 27.6797 27.6336 27.8095C27.4393 27.9393 27.2879 28.1238 27.1985 28.3396C27.1091 28.5555 27.0857 28.793 27.1313 29.0221C27.1768 29.2513 27.2893 29.4617 27.4545 29.6269C27.6198 29.7921 27.8302 29.9046 28.0594 29.9502C28.2885 29.9958 28.526 29.9724 28.7419 29.883C28.9577 29.7936 29.1422 29.6422 29.272 29.4479C29.4018 29.2537 29.4711 29.0253 29.4711 28.7917C29.4711 28.4787 29.3468 28.1785 29.1257 27.957C28.9045 27.7355 28.6045 27.6109 28.2915 27.6104H28.2898ZM28.2336 28.7917C28.2336 28.7768 28.2395 28.7624 28.25 28.7519C28.2606 28.7414 28.2749 28.7354 28.2898 28.7354C28.3047 28.7354 28.319 28.7414 28.3296 28.7519C28.3401 28.7624 28.3461 28.7768 28.3461 28.7917C28.3483 28.853 28.2353 28.8541 28.2353 28.7922L28.2336 28.7917Z" />
    </mask>
    <path
        d="M30.9998 26.9999C30.9998 29.4852 28.985 31.4999 26.4998 31.4999C24.0145 31.4999 21.9998 29.4852 21.9998 26.9999C21.9998 24.5146 24.0145 22.4999 26.4998 22.4999C28.985 22.4999 30.9998 24.5146 30.9998 26.9999Z"
        fill="#DDDDE3" />
    <path
        d="M30.3998 16.1152C31.2336 15.2789 31.7019 14.1461 31.7019 12.9652C31.7019 11.7842 31.2336 10.6514 30.3998 9.81517L22.6654 2.07967C21.8293 1.2454 20.6965 0.776855 19.5154 0.776855C18.3343 0.776855 17.2014 1.2454 16.3654 2.07967L7.99257 10.4525C7.40515 11.036 6.99301 11.7724 6.80291 12.5782C6.61281 13.3841 6.65236 14.2271 6.91707 15.0115L8.52863 19.849L1.93726 26.4382C1.71156 26.4048 1.48117 26.4252 1.26485 26.4977C1.04853 26.5702 0.8524 26.6929 0.692445 26.8555C0.426616 27.1222 0.277344 27.4834 0.277344 27.8599C0.277344 28.2364 0.426616 28.5976 0.692445 28.8642L3.61745 31.7892C3.74916 31.9216 3.90581 32.0266 4.07835 32.098C4.25089 32.1695 4.43589 32.206 4.62263 32.2055C4.81559 32.2047 5.00641 32.165 5.18367 32.0887C5.36092 32.0124 5.52098 31.9012 5.65426 31.7617C5.78689 31.6304 5.89205 31.4739 5.96361 31.3015C6.03518 31.1292 6.0717 30.9443 6.07107 30.7576C6.06936 30.6842 6.06221 30.6111 6.0497 30.5388L12.6338 23.9525L17.4713 25.564C17.929 25.7172 18.4084 25.7954 18.891 25.7958C19.4743 25.7949 20.0516 25.6788 20.59 25.4543C21.1283 25.2298 21.617 24.9012 22.0281 24.4874L30.3998 16.1152ZM4.82963 30.9933C4.77334 31.047 4.6985 31.077 4.62066 31.077C4.54283 31.077 4.46799 31.047 4.4117 30.9933L1.4867 28.0683C1.4582 28.0377 1.43623 28.0017 1.42215 27.9623C1.40807 27.923 1.40217 27.8812 1.4048 27.8395C1.40743 27.7978 1.41855 27.7571 1.43746 27.7198C1.45638 27.6825 1.4827 27.6495 1.51482 27.6228C1.54208 27.5952 1.57453 27.5733 1.6103 27.5584C1.64608 27.5435 1.68446 27.5358 1.72323 27.5358C1.76199 27.5358 1.80038 27.5435 1.83615 27.5584C1.87192 27.5733 1.90438 27.5952 1.93163 27.6228L4.85663 30.5478C4.88422 30.575 4.9061 30.6074 4.92098 30.6431C4.93585 30.6789 4.94343 30.7172 4.94326 30.7559C4.94187 30.8012 4.93105 30.8457 4.91149 30.8866C4.89192 30.9275 4.86404 30.9638 4.82963 30.9933ZM5.44838 29.5471L2.93401 27.0327L9.17213 20.794L11.6871 23.309L5.44838 29.5471ZM17.8234 24.497L12.7839 22.8174L9.6632 19.6949L7.98357 14.6555C7.7861 14.069 7.75679 13.439 7.89895 12.8368C8.04111 12.2345 8.34907 11.6841 8.78795 11.2479L17.1608 2.87505C17.7856 2.25127 18.6325 1.90092 19.5154 1.90092C20.3983 1.90092 21.2451 2.25127 21.87 2.87505L29.6055 10.6105C30.229 11.2356 30.5792 12.0823 30.5792 12.9652C30.5792 13.848 30.229 14.6948 29.6055 15.3198L21.231 23.6926C20.7946 24.1307 20.2445 24.4381 19.6427 24.5802C19.0409 24.7223 18.4114 24.6935 17.8251 24.497H17.8234ZM26.6586 22.0979C25.6573 22.0979 24.6785 22.3948 23.846 22.9511C23.0135 23.5074 22.3646 24.298 21.9814 25.2231C21.5983 26.1481 21.498 27.166 21.6933 28.1481C21.8887 29.1301 22.3708 30.0321 23.0788 30.7402C23.7868 31.4482 24.6889 31.9303 25.6709 32.1257C26.653 32.321 27.6709 32.2207 28.5959 31.8376C29.521 31.4544 30.3116 30.8055 30.8679 29.973C31.4242 29.1405 31.7211 28.1617 31.7211 27.1604C31.7196 25.8185 31.186 24.532 30.2373 23.5829C29.2885 22.6339 28.0022 22.0999 26.6603 22.0979H26.6586ZM26.6586 31.0979C25.8798 31.0979 25.1185 30.867 24.471 30.4343C23.8235 30.0017 23.3188 29.3867 23.0208 28.6672C22.7228 27.9478 22.6448 27.1561 22.7967 26.3923C22.9487 25.6285 23.3237 24.9269 23.8743 24.3762C24.425 23.8255 25.1266 23.4505 25.8904 23.2986C26.6542 23.1467 27.4459 23.2246 28.1654 23.5226C28.8849 23.8207 29.4998 24.3253 29.9325 24.9729C30.3651 25.6204 30.5961 26.3817 30.5961 27.1604C30.5949 28.2041 30.1799 29.2046 29.4421 29.9427C28.7043 30.6809 27.7039 31.0963 26.6603 31.0979H26.6586ZM25.0273 24.3479C24.7937 24.3479 24.5653 24.4172 24.3711 24.547C24.1768 24.6768 24.0254 24.8613 23.936 25.0771C23.8466 25.293 23.8232 25.5305 23.8688 25.7596C23.9143 25.9888 24.0268 26.1992 24.1921 26.3644C24.3573 26.5296 24.5677 26.6421 24.7969 26.6877C25.026 26.7333 25.2635 26.7099 25.4794 26.6205C25.6952 26.5311 25.8797 26.3797 26.0095 26.1854C26.1393 25.9912 26.2086 25.7628 26.2086 25.5292C26.2086 25.2162 26.0843 24.916 25.8632 24.6945C25.642 24.473 25.342 24.3484 25.029 24.3479H25.0273ZM24.9711 25.5292C24.9711 25.5143 24.977 25.4999 24.9875 25.4894C24.9981 25.4788 25.0124 25.4729 25.0273 25.4729C25.0422 25.4729 25.0565 25.4788 25.0671 25.4894C25.0776 25.4999 25.0836 25.5143 25.0836 25.5292C25.0847 25.591 24.9728 25.591 24.9728 25.5297L24.9711 25.5292ZM28.2898 26.7104C28.5234 26.7104 28.7518 26.6411 28.9461 26.5113C29.1403 26.3816 29.2917 26.1971 29.3812 25.9812C29.4706 25.7654 29.494 25.5279 29.4484 25.2987C29.4028 25.0696 29.2903 24.8591 29.1251 24.6939C28.9599 24.5287 28.7494 24.4162 28.5203 24.3706C28.2911 24.325 28.0536 24.3484 27.8378 24.4378C27.6219 24.5272 27.4374 24.6787 27.3076 24.8729C27.1778 25.0672 27.1086 25.2955 27.1086 25.5292C27.1085 25.6845 27.1391 25.8383 27.1985 25.9818C27.2579 26.1253 27.3451 26.2556 27.4549 26.3654C27.5648 26.4752 27.6953 26.5622 27.8388 26.6215C27.9824 26.6808 28.1362 26.7112 28.2915 26.711L28.2898 26.7104ZM28.2898 25.4729C28.3047 25.4729 28.319 25.4788 28.3296 25.4894C28.3401 25.4999 28.3461 25.5143 28.3461 25.5292C28.3461 25.5899 28.2336 25.591 28.2336 25.5292C28.2336 25.5216 28.2351 25.5142 28.238 25.5073C28.2409 25.5003 28.2452 25.494 28.2506 25.4888C28.256 25.4835 28.2624 25.4794 28.2695 25.4767C28.2765 25.474 28.284 25.4727 28.2915 25.4729H28.2898ZM25.0273 27.6104C24.7937 27.6104 24.5653 27.6797 24.3711 27.8095C24.1768 27.9393 24.0254 28.1238 23.936 28.3396C23.8466 28.5555 23.8232 28.793 23.8688 29.0221C23.9143 29.2513 24.0268 29.4617 24.1921 29.6269C24.3573 29.7921 24.5677 29.9046 24.7969 29.9502C25.026 29.9958 25.2635 29.9724 25.4794 29.883C25.6952 29.7936 25.8797 29.6422 26.0095 29.4479C26.1393 29.2537 26.2086 29.0253 26.2086 28.7917C26.2086 28.4787 26.0843 28.1785 25.8632 27.957C25.642 27.7355 25.342 27.6109 25.029 27.6104H25.0273ZM24.9711 28.7917C24.9711 28.7768 24.977 28.7624 24.9875 28.7519C24.9981 28.7414 25.0124 28.7354 25.0273 28.7354C25.0422 28.7354 25.0565 28.7414 25.0671 28.7519C25.0776 28.7624 25.0836 28.7768 25.0836 28.7917C25.0847 28.8535 24.9728 28.8535 24.9728 28.7922L24.9711 28.7917ZM28.2898 27.6104C28.0562 27.6104 27.8278 27.6797 27.6336 27.8095C27.4393 27.9393 27.2879 28.1238 27.1985 28.3396C27.1091 28.5555 27.0857 28.793 27.1313 29.0221C27.1768 29.2513 27.2893 29.4617 27.4545 29.6269C27.6198 29.7921 27.8302 29.9046 28.0594 29.9502C28.2885 29.9958 28.526 29.9724 28.7419 29.883C28.9577 29.7936 29.1422 29.6422 29.272 29.4479C29.4018 29.2537 29.4711 29.0253 29.4711 28.7917C29.4711 28.4787 29.3468 28.1785 29.1257 27.957C28.9045 27.7355 28.6045 27.6109 28.2915 27.6104H28.2898ZM28.2336 28.7917C28.2336 28.7768 28.2395 28.7624 28.25 28.7519C28.2606 28.7414 28.2749 28.7354 28.2898 28.7354C28.3047 28.7354 28.319 28.7414 28.3296 28.7519C28.3401 28.7624 28.3461 28.7768 28.3461 28.7917C28.3483 28.853 28.2353 28.8541 28.2353 28.7922L28.2336 28.7917Z"
        fill="#515158" />
    <path
        d="M30.9998 26.9999C30.9998 29.4852 28.985 31.4999 26.4998 31.4999C24.0145 31.4999 21.9998 29.4852 21.9998 26.9999C21.9998 24.5146 24.0145 22.4999 26.4998 22.4999C28.985 22.4999 30.9998 24.5146 30.9998 26.9999Z"
        stroke="#515158" stroke-width="0.2" mask="url(#path-1-outside-1_1535_9041)" />
    <path
        d="M30.3998 16.1152C31.2336 15.2789 31.7019 14.1461 31.7019 12.9652C31.7019 11.7842 31.2336 10.6514 30.3998 9.81517L22.6654 2.07967C21.8293 1.2454 20.6965 0.776855 19.5154 0.776855C18.3343 0.776855 17.2014 1.2454 16.3654 2.07967L7.99257 10.4525C7.40515 11.036 6.99301 11.7724 6.80291 12.5782C6.61281 13.3841 6.65236 14.2271 6.91707 15.0115L8.52863 19.849L1.93726 26.4382C1.71156 26.4048 1.48117 26.4252 1.26485 26.4977C1.04853 26.5702 0.8524 26.6929 0.692445 26.8555C0.426616 27.1222 0.277344 27.4834 0.277344 27.8599C0.277344 28.2364 0.426616 28.5976 0.692445 28.8642L3.61745 31.7892C3.74916 31.9216 3.90581 32.0266 4.07835 32.098C4.25089 32.1695 4.43589 32.206 4.62263 32.2055C4.81559 32.2047 5.00641 32.165 5.18367 32.0887C5.36092 32.0124 5.52098 31.9012 5.65426 31.7617C5.78689 31.6304 5.89205 31.4739 5.96361 31.3015C6.03518 31.1292 6.0717 30.9443 6.07107 30.7576C6.06936 30.6842 6.06221 30.6111 6.0497 30.5388L12.6338 23.9525L17.4713 25.564C17.929 25.7172 18.4084 25.7954 18.891 25.7958C19.4743 25.7949 20.0516 25.6788 20.59 25.4543C21.1283 25.2298 21.617 24.9012 22.0281 24.4874L30.3998 16.1152ZM4.82963 30.9933C4.77334 31.047 4.6985 31.077 4.62066 31.077C4.54283 31.077 4.46799 31.047 4.4117 30.9933L1.4867 28.0683C1.4582 28.0377 1.43623 28.0017 1.42215 27.9623C1.40807 27.923 1.40217 27.8812 1.4048 27.8395C1.40743 27.7978 1.41855 27.7571 1.43746 27.7198C1.45638 27.6825 1.4827 27.6495 1.51482 27.6228C1.54208 27.5952 1.57453 27.5733 1.6103 27.5584C1.64608 27.5435 1.68446 27.5358 1.72323 27.5358C1.76199 27.5358 1.80038 27.5435 1.83615 27.5584C1.87192 27.5733 1.90438 27.5952 1.93163 27.6228L4.85663 30.5478C4.88422 30.575 4.9061 30.6074 4.92098 30.6431C4.93585 30.6789 4.94343 30.7172 4.94326 30.7559C4.94187 30.8012 4.93105 30.8457 4.91149 30.8866C4.89192 30.9275 4.86404 30.9638 4.82963 30.9933ZM5.44838 29.5471L2.93401 27.0327L9.17213 20.794L11.6871 23.309L5.44838 29.5471ZM17.8234 24.497L12.7839 22.8174L9.6632 19.6949L7.98357 14.6555C7.7861 14.069 7.75679 13.439 7.89895 12.8368C8.04111 12.2345 8.34907 11.6841 8.78795 11.2479L17.1608 2.87505C17.7856 2.25127 18.6325 1.90092 19.5154 1.90092C20.3983 1.90092 21.2451 2.25127 21.87 2.87505L29.6055 10.6105C30.229 11.2356 30.5792 12.0823 30.5792 12.9652C30.5792 13.848 30.229 14.6948 29.6055 15.3198L21.231 23.6926C20.7946 24.1307 20.2445 24.4381 19.6427 24.5802C19.0409 24.7223 18.4114 24.6935 17.8251 24.497H17.8234ZM26.6586 22.0979C25.6573 22.0979 24.6785 22.3948 23.846 22.9511C23.0135 23.5074 22.3646 24.298 21.9814 25.2231C21.5983 26.1481 21.498 27.166 21.6933 28.1481C21.8887 29.1301 22.3708 30.0321 23.0788 30.7402C23.7868 31.4482 24.6889 31.9303 25.6709 32.1257C26.653 32.321 27.6709 32.2207 28.5959 31.8376C29.521 31.4544 30.3116 30.8055 30.8679 29.973C31.4242 29.1405 31.7211 28.1617 31.7211 27.1604C31.7196 25.8185 31.186 24.532 30.2373 23.5829C29.2885 22.6339 28.0022 22.0999 26.6603 22.0979H26.6586ZM26.6586 31.0979C25.8798 31.0979 25.1185 30.867 24.471 30.4343C23.8235 30.0017 23.3188 29.3867 23.0208 28.6672C22.7228 27.9478 22.6448 27.1561 22.7967 26.3923C22.9487 25.6285 23.3237 24.9269 23.8743 24.3762C24.425 23.8255 25.1266 23.4505 25.8904 23.2986C26.6542 23.1467 27.4459 23.2246 28.1654 23.5226C28.8849 23.8207 29.4998 24.3253 29.9325 24.9729C30.3651 25.6204 30.5961 26.3817 30.5961 27.1604C30.5949 28.2041 30.1799 29.2046 29.4421 29.9427C28.7043 30.6809 27.7039 31.0963 26.6603 31.0979H26.6586ZM25.0273 24.3479C24.7937 24.3479 24.5653 24.4172 24.3711 24.547C24.1768 24.6768 24.0254 24.8613 23.936 25.0771C23.8466 25.293 23.8232 25.5305 23.8688 25.7596C23.9143 25.9888 24.0268 26.1992 24.1921 26.3644C24.3573 26.5296 24.5677 26.6421 24.7969 26.6877C25.026 26.7333 25.2635 26.7099 25.4794 26.6205C25.6952 26.5311 25.8797 26.3797 26.0095 26.1854C26.1393 25.9912 26.2086 25.7628 26.2086 25.5292C26.2086 25.2162 26.0843 24.916 25.8632 24.6945C25.642 24.473 25.342 24.3484 25.029 24.3479H25.0273ZM24.9711 25.5292C24.9711 25.5143 24.977 25.4999 24.9875 25.4894C24.9981 25.4788 25.0124 25.4729 25.0273 25.4729C25.0422 25.4729 25.0565 25.4788 25.0671 25.4894C25.0776 25.4999 25.0836 25.5143 25.0836 25.5292C25.0847 25.591 24.9728 25.591 24.9728 25.5297L24.9711 25.5292ZM28.2898 26.7104C28.5234 26.7104 28.7518 26.6411 28.9461 26.5113C29.1403 26.3816 29.2917 26.1971 29.3812 25.9812C29.4706 25.7654 29.494 25.5279 29.4484 25.2987C29.4028 25.0696 29.2903 24.8591 29.1251 24.6939C28.9599 24.5287 28.7494 24.4162 28.5203 24.3706C28.2911 24.325 28.0536 24.3484 27.8378 24.4378C27.6219 24.5272 27.4374 24.6787 27.3076 24.8729C27.1778 25.0672 27.1086 25.2955 27.1086 25.5292C27.1085 25.6845 27.1391 25.8383 27.1985 25.9818C27.2579 26.1253 27.3451 26.2556 27.4549 26.3654C27.5648 26.4752 27.6953 26.5622 27.8388 26.6215C27.9824 26.6808 28.1362 26.7112 28.2915 26.711L28.2898 26.7104ZM28.2898 25.4729C28.3047 25.4729 28.319 25.4788 28.3296 25.4894C28.3401 25.4999 28.3461 25.5143 28.3461 25.5292C28.3461 25.5899 28.2336 25.591 28.2336 25.5292C28.2336 25.5216 28.2351 25.5142 28.238 25.5073C28.2409 25.5003 28.2452 25.494 28.2506 25.4888C28.256 25.4835 28.2624 25.4794 28.2695 25.4767C28.2765 25.474 28.284 25.4727 28.2915 25.4729H28.2898ZM25.0273 27.6104C24.7937 27.6104 24.5653 27.6797 24.3711 27.8095C24.1768 27.9393 24.0254 28.1238 23.936 28.3396C23.8466 28.5555 23.8232 28.793 23.8688 29.0221C23.9143 29.2513 24.0268 29.4617 24.1921 29.6269C24.3573 29.7921 24.5677 29.9046 24.7969 29.9502C25.026 29.9958 25.2635 29.9724 25.4794 29.883C25.6952 29.7936 25.8797 29.6422 26.0095 29.4479C26.1393 29.2537 26.2086 29.0253 26.2086 28.7917C26.2086 28.4787 26.0843 28.1785 25.8632 27.957C25.642 27.7355 25.342 27.6109 25.029 27.6104H25.0273ZM24.9711 28.7917C24.9711 28.7768 24.977 28.7624 24.9875 28.7519C24.9981 28.7414 25.0124 28.7354 25.0273 28.7354C25.0422 28.7354 25.0565 28.7414 25.0671 28.7519C25.0776 28.7624 25.0836 28.7768 25.0836 28.7917C25.0847 28.8535 24.9728 28.8535 24.9728 28.7922L24.9711 28.7917ZM28.2898 27.6104C28.0562 27.6104 27.8278 27.6797 27.6336 27.8095C27.4393 27.9393 27.2879 28.1238 27.1985 28.3396C27.1091 28.5555 27.0857 28.793 27.1313 29.0221C27.1768 29.2513 27.2893 29.4617 27.4545 29.6269C27.6198 29.7921 27.8302 29.9046 28.0594 29.9502C28.2885 29.9958 28.526 29.9724 28.7419 29.883C28.9577 29.7936 29.1422 29.6422 29.272 29.4479C29.4018 29.2537 29.4711 29.0253 29.4711 28.7917C29.4711 28.4787 29.3468 28.1785 29.1257 27.957C28.9045 27.7355 28.6045 27.6109 28.2915 27.6104H28.2898ZM28.2336 28.7917C28.2336 28.7768 28.2395 28.7624 28.25 28.7519C28.2606 28.7414 28.2749 28.7354 28.2898 28.7354C28.3047 28.7354 28.319 28.7414 28.3296 28.7519C28.3401 28.7624 28.3461 28.7768 28.3461 28.7917C28.3483 28.853 28.2353 28.8541 28.2353 28.7922L28.2336 28.7917Z"
        stroke="#515158" stroke-width="0.2" mask="url(#path-1-outside-1_1535_9041)" />
</svg>