<svg width="24" height="20" viewBox="0 0 24 20" fill="none" xmlns="http://www.w3.org/2000/svg">
<path d="M0 9C0 4.02944 4.02944 0 9 0H24V18H9C4.02944 18 0 13.9706 0 9Z" fill="#FF3F1A"/>
<path d="M6.36805 13L8.25805 10.29L6.36805 7.59H7.69805L9.24805 9.85H8.60805L10.158 7.59H11.488L9.58805 10.29L11.478 13H10.148L8.61805 10.73H9.23805L7.69805 13H6.36805ZM14.5896 13.12C14.1963 13.12 13.8263 13.05 13.4796 12.91C13.1329 12.7633 12.8329 12.56 12.5796 12.3C12.3263 12.04 12.1463 11.7267 12.0396 11.36L13.0296 10.98C13.1563 11.3333 13.3629 11.6033 13.6496 11.79C13.9363 11.9767 14.2496 12.07 14.5896 12.07C14.8696 12.07 15.1163 12.0067 15.3296 11.88C15.5429 11.7533 15.7096 11.58 15.8296 11.36C15.9563 11.14 16.0196 10.89 16.0196 10.61C16.0196 10.3233 15.9563 10.0733 15.8296 9.86C15.7096 9.64 15.5429 9.47 15.3296 9.35C15.1163 9.22333 14.8696 9.16 14.5896 9.16C14.3096 9.16 14.0529 9.22333 13.8196 9.35C13.5863 9.47667 13.4163 9.64667 13.3096 9.86L12.3596 9.65L12.9396 5.55H16.9096V6.55H13.3996L13.8496 6.06L13.4196 9.2L13.0496 8.95C13.2496 8.67 13.4929 8.46667 13.7796 8.34C14.0663 8.21333 14.3929 8.15 14.7596 8.15C15.2463 8.15 15.6696 8.26 16.0296 8.48C16.3963 8.69333 16.6796 8.98667 16.8796 9.36C17.0863 9.72667 17.1896 10.1433 17.1896 10.61C17.1896 11.0833 17.0763 11.51 16.8496 11.89C16.6229 12.27 16.3129 12.57 15.9196 12.79C15.5329 13.01 15.0896 13.12 14.5896 13.12Z" fill="white"/>
<path d="M22 20L24 18H22V20Z" fill="#B64F00"/>
</svg>
