<svg width="42" height="42" viewBox="0 0 42 42" fill="none" xmlns="http://www.w3.org/2000/svg">
<g clip-path="url(#clip0_1063_83320)">
<rect opacity="0.5" width="42" height="42" rx="7.15789" fill="#E9E1FD"/>
<g clip-path="url(#clip1_1063_83320)">
<path d="M29.6738 16.9807C24.2365 10.9754 23.0013 6.30469 23.0013 6.30469C23.0013 6.30469 22.0596 6.72493 20.9995 7.68778L19.665 22.986L20.9995 36.0601H20.9996C27.558 36.06 32.8746 30.7434 32.8746 24.185C32.8746 21.476 31.3617 18.8449 29.6738 16.9807Z" fill="#BFA4FE"/>
<path d="M18.9983 10.3079C18.3181 11.6683 18.1579 13.2021 18.1644 14.379C18.1707 15.5208 17.3664 16.5062 16.2468 16.7301C15.4646 16.8866 14.656 16.6417 14.092 16.0777L12.993 14.9787C12.993 14.9787 11.3638 17.2251 11.0846 17.6477C9.83059 19.546 9.10707 21.8255 9.12534 24.2751C9.17401 30.8172 14.4578 36.0598 21.0001 36.0598V7.6875C20.3066 8.31731 19.5627 9.17919 18.9983 10.3079Z" fill="#BFA4FE"/>
<path d="M30.3702 16.3525C27.6571 13.3559 26.0447 10.718 25.1698 9.03275C24.2222 7.20732 23.9117 6.07539 23.9093 6.06638L23.6272 5L22.6198 5.44933C22.5625 5.47492 21.8729 5.78926 21.0003 6.46511L20.333 7.64077L21.0003 9.0243C21.5217 8.43935 22.0596 8.00209 22.4922 7.69938C23.1979 9.49447 24.9869 13.2031 28.9791 17.6122C29.8684 18.5944 31.937 21.2014 31.937 24.1867C31.937 30.2172 27.0308 35.1234 21.0003 35.1234L20.333 36.3328L21.0003 37.0001C28.0656 37 33.8137 31.252 33.8137 24.1867C33.8137 21.6249 32.5586 18.7695 30.3702 16.3525Z" fill="#A079FC"/>
<path d="M13.2894 31.9563C11.2315 29.9142 10.0862 27.1843 10.0645 24.2698C10.0483 22.088 10.6721 19.9775 11.8684 18.1666C12.0145 17.9455 12.6004 17.1281 13.1091 16.4226L13.4293 16.7429C14.217 17.5306 15.3391 17.8704 16.4317 17.6519C17.9886 17.3405 19.1123 15.9627 19.1036 14.3756C19.0982 13.3934 19.2213 11.9636 19.8384 10.7292C20.1731 10.0598 20.5817 9.49433 21.0009 9.0241V6.46484C20.0819 7.17678 18.9599 8.28989 18.1598 9.88993C17.377 11.4557 17.2204 13.1991 17.227 14.3858C17.2308 15.0764 16.7415 15.676 16.0636 15.8116C15.5883 15.9066 15.0993 15.7588 14.7563 15.4157L12.8798 13.5393L12.2343 14.4294C12.1673 14.5218 10.5898 16.6974 10.3026 17.1321C8.90018 19.255 8.16891 21.728 8.18786 24.2837C8.21326 27.697 9.55557 30.8949 11.9675 33.2884C14.3793 35.6817 17.5874 36.9997 21.0009 36.9997V35.1231C18.086 35.1231 15.3473 33.9985 13.2894 31.9563Z" fill="#A079FC"/>
<path d="M21.0015 17.8906C20.9946 17.8906 20.9876 17.8909 20.9807 17.8909L19.417 25.2304L20.9807 32.57C20.9876 32.57 20.9946 32.5702 21.0015 32.5702C25.0552 32.5702 28.3413 29.2841 28.3413 25.2304C28.3413 21.1768 25.0552 17.8906 21.0015 17.8906Z" fill="#733DF2"/>
<path d="M13.6611 25.2302C13.6611 29.2769 16.936 32.5584 20.9801 32.5697V17.8906C16.9361 17.9019 13.6611 21.1835 13.6611 25.2302Z" fill="#733DF2"/>
<path d="M24.9804 20.9219H22.9001L20.9774 23.7375L20.3311 26.3253L20.9774 26.784L24.9804 20.9219Z" fill="#D9E7EC"/>
<path d="M24.1558 24.8594C22.851 24.8594 21.8662 25.7333 21.8662 27.2597C21.8662 28.7984 22.851 29.6601 24.1558 29.6601C25.4606 29.6601 26.4454 28.7984 26.4454 27.2597C26.4454 25.7333 25.4606 24.8594 24.1558 24.8594ZM24.1558 28.3306C23.885 28.3306 23.6142 28.0844 23.6142 27.2597C23.6142 26.435 23.885 26.1887 24.1558 26.1887C24.4266 26.1887 24.6974 26.435 24.6974 27.2597C24.6974 28.0844 24.4266 28.3306 24.1558 28.3306Z" fill="#D9E7EC"/>
<path d="M19.0969 29.5354L20.9778 26.7809V23.7344L17.0166 29.5354H19.0969Z" fill="#FAFCFD"/>
<path d="M20.1309 23.1972C20.1309 21.6709 19.1462 20.7969 17.8413 20.7969C16.5365 20.7969 15.5518 21.6708 15.5518 23.1972C15.5518 24.7359 16.5365 25.5976 17.8413 25.5976C19.1462 25.5976 20.1309 24.7359 20.1309 23.1972ZM17.2997 23.1972C17.2997 22.3725 17.5705 22.1263 17.8413 22.1263C18.1121 22.1263 18.3829 22.3725 18.3829 23.1972C18.3829 24.022 18.1121 24.2682 17.8413 24.2682C17.5705 24.2682 17.2997 24.022 17.2997 23.1972Z" fill="#FAFCFD"/>
</g>
</g>
<defs>
<clipPath id="clip0_1063_83320">
<rect width="42" height="42" fill="white"/>
</clipPath>
<clipPath id="clip1_1063_83320">
<rect width="32" height="32" fill="white" transform="translate(5 5)"/>
</clipPath>
</defs>
</svg>
