<svg width="33" height="32" viewBox="0 0 33 32" fill="none" xmlns="http://www.w3.org/2000/svg">
<path d="M20.4375 5.33203L28.4375 7.9987V14.6654H24.4375V25.332C24.4375 25.6857 24.297 26.0248 24.047 26.2748C23.7969 26.5249 23.4578 26.6654 23.1042 26.6654H9.77083C9.41721 26.6654 9.07807 26.5249 8.82802 26.2748C8.57798 26.0248 8.4375 25.6857 8.4375 25.332V14.6654H4.4375V7.9987L12.4375 5.33203C12.4375 6.3929 12.8589 7.41031 13.6091 8.16046C14.3592 8.9106 15.3766 9.33203 16.4375 9.33203C17.4984 9.33203 18.5158 8.9106 19.2659 8.16046C20.0161 7.41031 20.4375 6.3929 20.4375 5.33203Z" stroke="#38383D" stroke-width="2" stroke-linecap="square" stroke-linejoin="round"/>
</svg>
