<svg width="30" height="33" viewBox="0 0 30 33" fill="none" xmlns="http://www.w3.org/2000/svg">
    <path
        d="M0.987335 16.2316L2.92703 14.2616L7.10957 18.535C9.42309 21.2527 14.6624 26.9849 17.1113 28.173C19.5602 29.3611 25.8097 29.4965 28.6283 29.4156L29.0223 31.3857C29.1436 31.3857 28.1495 31.4887 23.2032 31.9009C18.2569 32.3131 13.9693 29.1429 12.4438 27.5062L0.987335 16.2316Z"
        fill="#DDDDE3" />
    <path
        d="M29.607 29.0944C29.5981 28.7554 29.3205 28.486 28.9824 28.486C28.9797 28.486 28.9769 28.486 28.9742 28.486C28.8192 28.488 28.6639 28.4909 28.5087 28.494C28.5089 28.4605 28.5092 28.4265 28.5099 28.391C28.5371 26.854 27.9119 25.5899 26.6517 24.6339C25.608 23.8421 24.2621 23.3482 23.0746 22.9123C22.036 22.5311 21.0505 22.1695 20.5305 21.7074L18.9278 12.4435L28.1232 1.52769C28.2798 1.34175 28.3144 1.08188 28.2119 0.861439C28.1094 0.640938 27.8882 0.5 27.6452 0.5H16.0045C15.8061 0.5 15.6196 0.594125 15.5018 0.753751L13.4111 3.58489C13.4106 3.58557 13.41 3.58632 13.4095 3.58701L10.327 7.76122C10.201 7.46759 10.098 7.17221 10.0202 6.87896C9.96155 6.65752 9.78642 6.4859 9.56379 6.43177C9.34104 6.37765 9.10673 6.44965 8.95298 6.6194L2.3907 13.8607L0.511446 15.7129C0.392196 15.8304 0.325133 15.9909 0.325195 16.1583C0.32532 16.3258 0.392571 16.4862 0.511946 16.6036L8.24485 24.2086H5.47597C5.13084 24.2086 4.85096 24.4884 4.85096 24.8336C4.85096 25.1788 5.13084 25.4586 5.47597 25.4586H9.51586L11.4561 27.3667H8.53642C8.19129 27.3667 7.91141 27.6465 7.91141 27.9917C7.91141 28.3369 8.19129 28.6167 8.53642 28.6167H12.7271L13.8317 29.7031C13.8471 29.7182 13.8631 29.7324 13.8799 29.7458C16.9358 32.1869 20.7036 32.4999 23.6447 32.5C25.0992 32.5 26.5557 32.4116 27.9636 32.326C28.3404 32.3031 28.7144 32.2804 29.0845 32.2596C29.4219 32.2407 29.6832 31.9569 29.6742 31.619L29.607 29.0944ZM16.3199 1.75H26.3015L21.4093 7.5574C20.228 6.85577 18.8447 6.06846 17.5014 5.30396C16.5373 4.7552 15.616 4.23083 14.8274 3.77114L16.3199 1.75ZM14.0805 4.78252C14.9003 5.26183 15.8681 5.81265 16.8831 6.39034C18.1543 7.11384 19.461 7.85765 20.5929 8.52666L17.969 11.6415C17.8797 11.6425 17.79 11.6434 17.7012 11.6445C15.6841 11.6703 13.9419 11.6926 12.5773 10.6798C11.9941 10.247 11.4409 9.6481 10.9875 8.97091L14.0805 4.78252ZM9.17154 8.23966C9.2351 8.38853 9.30354 8.53678 9.37686 8.68403C9.46111 8.8531 9.55211 9.01997 9.64798 9.18441C9.67098 9.24135 9.70255 9.29503 9.74242 9.34391C10.3085 10.2702 11.0459 11.1 11.8323 11.6836C13.5358 12.948 15.567 12.922 17.7172 12.8944C17.7238 12.8944 17.7306 12.8943 17.7372 12.8942L18.2346 15.7694H15.377C15.0319 15.7694 14.752 16.0492 14.752 16.3944C14.752 16.7396 15.0318 17.0194 15.377 17.0194H18.4509L18.6983 18.4498H16.3496C16.0044 18.4498 15.7246 18.7296 15.7246 19.0748C15.7246 19.4199 16.0044 19.6998 16.3496 19.6998H18.9146L19.3328 22.1175C19.3532 22.2353 19.407 22.3448 19.4876 22.433C20.1691 23.1776 21.3713 23.6187 22.6439 24.0858C24.9357 24.9268 27.3056 25.7966 27.2601 28.3689C27.2591 28.4247 27.2587 28.4771 27.2586 28.5277C27.1362 28.5315 27.0137 28.5354 26.8926 28.5392C26.0397 28.5665 25.1576 28.5948 24.3093 28.5948C20.6298 28.5948 17.6592 28.0639 15.1209 25.4728C15.118 25.4698 15.1151 25.467 15.1123 25.4642L3.7084 14.2682L9.17154 8.23966ZM27.8877 31.0784C26.4983 31.1628 25.0618 31.2501 23.6451 31.2501C20.9161 31.2501 17.4336 30.9698 14.6848 28.789L1.84101 16.1576L2.84289 15.1702L14.2323 26.352C17.2423 29.4215 20.8542 29.8448 24.3092 29.8448C25.1775 29.8448 26.0697 29.8162 26.9325 29.7886C27.4056 29.7735 27.8901 29.758 28.3739 29.7471L28.4085 31.047C28.2356 31.0573 28.0619 31.0678 27.8877 31.0784Z"
        fill="#515158" />
    <path
        d="M2.10427 25.1722H2.06827C1.68 25.1722 1.36514 25.487 1.36514 25.8754C1.36514 26.2637 1.68 26.5785 2.06827 26.5785H2.10427C2.49254 26.5785 2.8074 26.2637 2.8074 25.8754C2.8074 25.487 2.49261 25.1722 2.10427 25.1722Z"
        fill="#515158" />
    <path
        d="M5.62253 28.7251H5.58646C5.19819 28.7251 4.88333 29.0399 4.88333 29.4283C4.88333 29.8166 5.19819 30.1314 5.58646 30.1314H5.62253C6.01087 30.1314 6.32566 29.8166 6.32566 29.4283C6.32566 29.0399 6.01087 28.7251 5.62253 28.7251Z"
        fill="#515158" />
</svg>