<svg width="33" height="32" viewBox="0 0 33 32" fill="none" xmlns="http://www.w3.org/2000/svg">
<path d="M4.4375 28H28.4375M7.10352 28.0027V14.4694M25.7715 28.0027V14.4694M20.4375 10.6667C20.4375 11.7276 20.8589 12.745 21.6091 13.4951C22.3592 14.2453 23.3766 14.6667 24.4375 14.6667C25.4984 14.6667 26.5158 14.2453 27.2659 13.4951C28.0161 12.745 28.4375 11.7276 28.4375 10.6667V9.33337M20.4375 10.6667C20.4375 11.7276 20.0161 12.745 19.2659 13.4951C18.5158 14.2453 17.4984 14.6667 16.4375 14.6667C15.3766 14.6667 14.3592 14.2453 13.6091 13.4951C12.8589 12.745 12.4375 11.7276 12.4375 10.6667M20.4375 10.6667V9.33337M28.4375 9.33337H4.4375M28.4375 9.33337L25.7708 4H7.10417L4.4375 9.33337M12.4375 10.6667C12.4375 11.7276 12.0161 12.745 11.2659 13.4951C10.5158 14.2453 9.49837 14.6667 8.4375 14.6667C7.37663 14.6667 6.35922 14.2453 5.60907 13.4951C4.85893 12.745 4.4375 11.7276 4.4375 10.6667V9.33337M12.4375 10.6667V9.33337" stroke="#515158" stroke-width="2" stroke-linecap="round" stroke-linejoin="round"/>
<path d="M18.5472 24.4732L17.5698 24.9794C17.5408 24.9943 17.5081 25.0009 17.4755 24.9986C17.4429 24.9963 17.4116 24.985 17.3851 24.9661C17.3586 24.9472 17.3379 24.9214 17.3254 24.8916C17.3129 24.8617 17.309 24.8291 17.3142 24.7972L17.5009 23.7254L16.7103 22.9668C16.6868 22.9442 16.6703 22.9156 16.6625 22.8842C16.6547 22.8528 16.6559 22.8198 16.6661 22.7891C16.6762 22.7583 16.6949 22.731 16.72 22.7102C16.745 22.6894 16.7755 22.6759 16.8079 22.6713L17.9005 22.5153L18.3892 21.5404C18.4039 21.5113 18.4264 21.4869 18.4543 21.4699C18.4822 21.4528 18.5144 21.4437 18.5472 21.4437C18.58 21.4437 18.6122 21.4528 18.6401 21.4699C18.668 21.4869 18.6905 21.5113 18.7051 21.5404L19.1938 22.5153L20.2865 22.6713C20.319 22.6758 20.3496 22.6891 20.3747 22.7099C20.3999 22.7307 20.4187 22.7581 20.4289 22.7889C20.439 22.8197 20.4402 22.8527 20.4323 22.8842C20.4244 22.9157 20.4077 22.9443 20.3841 22.9668L19.5935 23.7254L19.7798 24.7963C19.7856 24.8283 19.7822 24.8613 19.77 24.8915C19.7577 24.9217 19.7371 24.9479 19.7104 24.967C19.6838 24.9861 19.6522 24.9974 19.6193 24.9996C19.5864 25.0018 19.5536 24.9948 19.5246 24.9794L18.5472 24.4732Z" stroke="#64646D" stroke-linecap="square" stroke-linejoin="round"/>
<path d="M13.3273 24.4733L12.3499 24.9794C12.3209 24.9943 12.2882 25.001 12.2556 24.9986C12.223 24.9963 12.1917 24.985 12.1652 24.9661C12.1387 24.9472 12.118 24.9214 12.1055 24.8916C12.093 24.8618 12.0891 24.8291 12.0943 24.7972L12.281 23.7254L11.4904 22.9668C11.4669 22.9442 11.4504 22.9156 11.4426 22.8842C11.4348 22.8528 11.436 22.8198 11.4462 22.7891C11.4563 22.7584 11.475 22.731 11.5001 22.7102C11.5251 22.6894 11.5556 22.6759 11.588 22.6713L12.6806 22.5153L13.1693 21.5404C13.1838 21.5112 13.2063 21.4867 13.2342 21.4695C13.2622 21.4523 13.2944 21.4432 13.3273 21.4432C13.3602 21.4432 13.3924 21.4523 13.4203 21.4695C13.4483 21.4867 13.4707 21.5112 13.4852 21.5404L13.9739 22.5153L15.0666 22.6713C15.0991 22.6758 15.1297 22.6892 15.1548 22.7099C15.18 22.7307 15.1988 22.7581 15.209 22.7889C15.2191 22.8197 15.2203 22.8528 15.2124 22.8842C15.2045 22.9157 15.1878 22.9443 15.1642 22.9668L14.3736 23.7254L14.5599 24.7963C14.5655 24.8283 14.562 24.8612 14.5497 24.8913C14.5374 24.9214 14.5168 24.9475 14.4902 24.9665C14.4636 24.9856 14.4321 24.9969 14.3993 24.9992C14.3665 25.0015 14.3337 24.9946 14.3047 24.9794L13.3273 24.4733Z" stroke="#64646D" stroke-linecap="square" stroke-linejoin="round"/>
<path d="M15.9373 20.0295L14.9599 20.5356C14.9309 20.5506 14.8983 20.5572 14.8657 20.5549C14.833 20.5525 14.8017 20.5413 14.7752 20.5224C14.7487 20.5035 14.728 20.4777 14.7155 20.4478C14.703 20.418 14.6991 20.3853 14.7043 20.3535L14.8911 19.2816L14.1004 18.5231C14.0768 18.5005 14.0601 18.4719 14.0522 18.4405C14.0443 18.409 14.0455 18.376 14.0556 18.3452C14.0658 18.3144 14.0846 18.287 14.1098 18.2662C14.1349 18.2454 14.1655 18.232 14.198 18.2276L15.2907 18.0711L15.7794 17.0966C15.794 17.0676 15.8165 17.0432 15.8444 17.0261C15.8723 17.009 15.9045 17 15.9373 17C15.9701 17 16.0023 17.009 16.0302 17.0261C16.0581 17.0432 16.0807 17.0676 16.0953 17.0966L16.584 18.0711L17.6766 18.2276C17.709 18.2322 17.7395 18.2456 17.7646 18.2665C17.7896 18.2873 17.8083 18.3146 17.8185 18.3453C17.8286 18.3761 17.8299 18.409 17.822 18.4404C17.8142 18.4719 17.7977 18.5005 17.7742 18.5231L16.9836 19.2816L17.1699 20.3526C17.1758 20.3846 17.1724 20.4176 17.1601 20.4478C17.1478 20.478 17.1272 20.5041 17.1005 20.5232C17.0739 20.5424 17.0423 20.5537 17.0094 20.5559C16.9766 20.5581 16.9438 20.5511 16.9147 20.5356L15.9373 20.0295Z" stroke="#64646D" stroke-linecap="square" stroke-linejoin="round"/>
</svg>
