<svg width="20" height="19" viewBox="0 0 20 19" fill="none" xmlns="http://www.w3.org/2000/svg">
<path d="M17.4993 10.0756C17.9909 9.59496 18.3775 9.01769 18.6348 8.38019C18.8921 7.74268 19.0145 7.05877 18.9943 6.37159C18.9649 5.33515 18.614 4.33349 17.9901 3.50529C17.3663 2.67708 16.5004 2.06331 15.5123 1.74893C14.5243 1.43456 13.4629 1.43513 12.4752 1.75057C11.4875 2.06601 10.6223 2.68072 9.99932 3.50959C9.58757 2.9556 9.06558 2.49285 8.4662 2.1505C7.86682 1.80815 7.20306 1.59361 6.51669 1.5204C5.83033 1.44718 5.13624 1.51687 4.47814 1.72508C3.82003 1.93328 3.21216 2.2755 2.69281 2.73017C2.17346 3.18485 1.75388 3.74213 1.46048 4.36693C1.16709 4.99173 1.00624 5.67051 0.988062 6.36053C0.969886 7.05055 1.09478 7.73685 1.35487 8.37623C1.61497 9.01561 2.00463 9.59421 2.49932 10.0756L9.99932 17.5036L17.4993 10.0756Z" stroke="#64646D" stroke-width="1.5" stroke-linecap="square" stroke-linejoin="round"/>
</svg>
