<svg width="60" height="24" viewBox="0 0 60 24" fill="none" xmlns="http://www.w3.org/2000/svg">
<path fill-rule="evenodd" clip-rule="evenodd" d="M0 0H60V1C58.3431 1 57 2.34315 57 4C57 5.65685 58.3431 7 60 7V9C58.3431 9 57 10.3431 57 12C57 13.6569 58.3431 15 60 15V17C58.3431 17 57 18.3431 57 20C57 21.6569 58.3431 23 60 23V24H0V23C1.65685 23 3 21.6569 3 20C3 18.3431 1.65685 17 0 17V15C1.65685 15 3 13.6569 3 12C3 10.3431 1.65685 9 0 9V7C1.65685 7 3 5.65685 3 4C3 2.34315 1.65685 1 0 1V0Z" fill="#DBEEFF"/>
</svg>
