<svg width="24" height="25" viewBox="0 0 24 25" fill="none" xmlns="http://www.w3.org/2000/svg">
<path fill-rule="evenodd" clip-rule="evenodd" d="M1.64935 11.0595C8.08963 8.25351 12.3842 6.40364 14.5329 5.50995C20.6682 2.95813 21.943 2.51482 22.7739 2.50015C22.9567 2.49696 23.3653 2.54227 23.63 2.75706C24.0226 3.07567 24.0249 3.76726 23.9813 4.22498C23.6488 7.71829 22.2102 16.1955 21.4783 20.1081C21.1686 21.7636 20.5588 22.3188 19.9685 22.3731C18.6857 22.4911 17.7114 21.5252 16.4688 20.7107C14.5245 19.4361 13.426 18.6427 11.5386 17.399C9.35743 15.9616 10.7714 15.1716 12.0144 13.8805C12.3398 13.5427 17.9923 8.40117 18.1018 7.93473C18.1155 7.87639 18.1282 7.65892 17.999 7.54415C17.8698 7.42937 17.6792 7.46855 17.5416 7.49979C17.3466 7.54406 14.2404 9.59716 8.22305 13.659C7.34135 14.2645 6.54275 14.5594 5.82726 14.544C5.03842 14.527 3.52114 14.098 2.39315 13.7313C1.00963 13.2816 -0.0899731 13.0438 0.00581696 12.2801C0.0556968 11.8821 0.603512 11.4753 1.64935 11.0595Z" fill="white"/>
</svg>
