<svg width="33" height="33" viewBox="0 0 33 33" fill="none" xmlns="http://www.w3.org/2000/svg">
    <path
        d="M23 26.9999C23 24.5146 25.0147 22.4999 27.5 22.4999C29.9852 22.4999 32 24.5146 32 26.9999C32 29.4851 29.9852 31.4999 27.5 31.4999C25.0147 31.4999 23 29.4851 23 26.9999Z"
        fill="#DDDDE3" />
    <path
        d="M29.8379 3.72407C27.9187 1.80489 25.2358 0.904837 22.2818 1.18775C19.4322 1.4613 16.6588 2.81618 14.4723 5.0029C12.2857 7.18962 10.9307 9.96282 10.6571 12.8123C10.6165 13.2345 10.6003 13.6587 10.6086 14.0828C9.67677 18.7041 8.4509 22.0456 7.13551 23.5701L1.56496 29.1405C1.45396 29.2515 1.36591 29.3832 1.30584 29.5283C1.24576 29.6733 1.21484 29.8287 1.21484 29.9857C1.21484 30.1427 1.24576 30.2981 1.30584 30.4431C1.36591 30.5881 1.45396 30.7199 1.56496 30.8309L2.73102 31.9969C2.95537 32.2207 3.25932 32.3464 3.57622 32.3464C3.89311 32.3464 4.19706 32.2207 4.42141 31.9969L9.99234 26.426C11.5171 25.1108 14.8583 23.8851 19.4791 22.9534C19.9031 22.9614 20.3273 22.9451 20.7496 22.9048C23.5988 22.6314 26.3723 21.2765 28.5591 19.0896C30.7458 16.9031 32.1007 14.1297 32.3742 11.2803C32.6577 8.32663 31.757 5.64308 29.8379 3.72407ZM3.82492 31.4005C3.75891 31.4663 3.6695 31.5033 3.57629 31.5033C3.48307 31.5033 3.39366 31.4663 3.32765 31.4005L2.16166 30.2344C2.09574 30.1685 2.0587 30.079 2.0587 29.9858C2.0587 29.8925 2.09574 29.8031 2.16166 29.7372L7.20869 24.6901L8.87184 26.3534L3.82492 31.4005ZM31.5344 11.1996C31.2795 13.8546 30.011 16.4447 27.9626 18.4931C25.9142 20.5415 23.3237 21.8101 20.669 22.0649C20.2647 22.1038 19.8583 22.1185 19.4522 22.1088C19.4208 22.1078 19.3895 22.1106 19.3587 22.1169C15.9585 22.7999 11.5692 23.9761 9.47169 25.7599L8.77166 25.0598C8.83725 25.0813 8.90712 25.0864 8.97514 25.0746C9.04316 25.0629 9.10726 25.0346 9.16181 24.9923C10.5466 23.9171 12.8231 22.947 15.9278 22.1089C16.0113 22.0864 16.0858 22.0388 16.1413 21.9725C16.1969 21.9062 16.2307 21.8245 16.2382 21.7384C16.2458 21.6522 16.2266 21.5659 16.1835 21.491C16.1403 21.416 16.0752 21.3562 15.9969 21.3195C14.3445 20.5461 13.0158 19.2175 12.2424 17.5651C12.2058 17.4868 12.1459 17.4217 12.071 17.3786C11.9961 17.3354 11.9098 17.3163 11.8237 17.3239C11.7376 17.3314 11.6558 17.3652 11.5896 17.4207C11.5233 17.4762 11.4757 17.5507 11.4531 17.6342C10.6149 20.7388 9.64478 23.0153 8.56984 24.4002C8.52747 24.4547 8.49914 24.5188 8.48735 24.5869C8.47555 24.6549 8.48066 24.7248 8.5022 24.7905L7.80203 24.0902C9.58587 21.9928 10.7621 17.6035 11.445 14.2032C11.4512 14.1724 11.4539 14.1411 11.4531 14.1097C11.4434 13.7036 11.458 13.2973 11.497 12.893C11.7519 10.238 13.0204 7.64782 15.0689 5.59942C17.1174 3.55102 19.7075 2.28251 22.3624 2.02763C25.0603 1.7678 27.5033 2.58285 29.2413 4.32062C30.979 6.05836 31.7934 8.50131 31.5344 11.1996ZM10.2529 23.3091C10.8779 22.123 11.4573 20.6332 11.9852 18.8529C12.6767 19.9542 13.6078 20.8853 14.7091 21.5767C12.9287 22.1047 11.4389 22.684 10.2529 23.3091Z"
        fill="#515158" />
    <path
        d="M15.9207 6.45126C12.1305 10.2414 11.5569 15.835 14.6419 18.9199C15.9408 20.2189 17.7101 20.909 19.6972 20.909C20.0179 20.9087 20.3383 20.8913 20.6571 20.8567C22.9973 20.6047 25.2893 19.4626 27.1107 17.6412C30.9009 13.8511 31.4745 8.25754 28.3894 5.17258C25.3043 2.08762 19.7109 2.66126 15.9207 6.45126ZM25.8607 4.49992C26.4516 4.73627 26.9994 5.06851 27.4821 5.48325L26.3707 6.59465L25.0684 5.29231L25.8607 4.49992ZM19.3714 10.9892L20.6738 9.68681L21.9762 10.9892L20.6738 12.2916L19.3714 10.9892ZM20.0772 12.8881L18.7748 14.1905L17.4724 12.8882L18.7748 11.5858L20.0772 12.8881ZM22.5728 11.5858L23.8751 12.8881L22.5727 14.1905L21.2704 12.8882L22.5728 11.5858ZM23.1693 10.9892L24.4717 9.68677L25.7741 10.9892L24.4717 12.2916L23.1693 10.9892ZM24.4717 8.49361L23.1693 7.19125L24.4718 5.88884L25.7741 7.1912L24.4717 8.49361ZM23.8751 9.0902L22.5727 10.3926L21.2703 9.09032L22.5728 7.7879L23.8751 9.0902ZM20.6738 8.49371L19.3713 7.19131L20.6738 5.88888L21.9762 7.19128L20.6738 8.49371ZM20.0772 9.09032L18.7748 10.3927L17.4724 9.09024L18.7748 7.78785L20.0772 9.09032ZM18.1783 10.9892L16.8759 12.2916L15.5735 10.9892L16.8759 9.68678L18.1783 10.9892ZM18.1783 14.7871L16.8759 16.0896L15.5735 14.7872L16.8759 13.4847L18.1783 14.7871ZM18.7749 15.3837L20.0772 16.6861L18.7748 17.9885L17.4725 16.6861L18.7749 15.3837ZM19.3714 14.7871L20.6738 13.4847L21.9762 14.7871L20.6738 16.0895L19.3714 14.7871ZM22.5727 15.3837L23.8751 16.6861L22.5727 17.9885L21.2703 16.6861L22.5727 15.3837ZM23.1693 14.7871L24.4717 13.4847L25.7741 14.7871L24.4717 16.0895L23.1693 14.7871ZM25.0683 12.8882L26.3707 11.5857L27.6731 12.8881L26.3707 14.1906L25.0683 12.8882ZM25.0683 9.09023L26.3707 7.78781L27.6731 9.09021L26.3707 10.3926L25.0683 9.09023ZM24.9548 4.2127L24.4717 4.69575L23.8197 4.0437C24.2021 4.0686 24.5817 4.12512 24.9548 4.2127ZM22.4925 4.07015C22.542 4.06498 22.5913 4.06212 22.6407 4.05788L23.8751 5.2923L22.5727 6.59471L21.2703 5.29231L22.4925 4.07015ZM21.0099 4.3597L20.6738 4.69579L20.4994 4.52132C20.6693 4.46236 20.8394 4.40807 21.0099 4.3597ZM19.6475 4.8626L20.0773 5.29239L18.7748 6.59482L17.9916 5.81154C18.5133 5.4452 19.0676 5.1276 19.6475 4.8626ZM16.5173 7.04791C16.7741 6.79104 17.0393 6.55041 17.3129 6.32603L18.1783 7.19139L16.8759 8.49378L15.9936 7.6115C16.1606 7.4197 16.334 7.23121 16.5173 7.04791ZM15.4612 8.27225L16.2792 9.09032L14.9768 10.3927L14.4687 9.88442C14.7506 9.31834 15.0827 8.77885 15.4612 8.27225ZM14.105 10.714L14.3803 10.9893L13.8286 11.5409C13.9072 11.2644 13.9993 10.9888 14.105 10.714ZM14.9769 11.5858L16.2793 12.8883L14.9768 14.1907L13.6744 12.8883L14.9769 11.5858ZM13.4973 13.9043L14.3803 14.7872L13.6819 15.4856C13.5612 14.9671 13.4992 14.4367 13.4973 13.9043ZM14.7389 17.7506C14.4226 17.334 14.1639 16.8766 13.9699 16.3908L14.9768 15.3838L16.2793 16.6862L14.9769 17.9886L14.7389 17.7506ZM15.8094 18.8211L15.5735 18.5852L16.8759 17.2828L18.1782 18.5851L17.1704 19.5929C16.684 19.3981 16.2262 19.1385 15.8094 18.8211ZM18.0771 19.8793L18.7747 19.1817L19.6558 20.0627C19.1243 20.0612 18.5947 19.9997 18.0771 19.8793ZM20.6737 19.8875L19.3713 18.5851L20.6737 17.2827L21.9761 18.5851L20.6737 19.8875ZM22.0221 19.7323L22.5727 19.1817L22.8483 19.4573C22.5756 19.5622 22.3002 19.6539 22.0221 19.7323ZM23.678 19.0938L23.1692 18.5851L24.4716 17.2827L25.2903 18.1014C24.7839 18.4801 24.2442 18.8123 23.678 19.0938ZM26.514 17.0448C26.3314 17.2274 26.1429 17.4011 25.9507 17.5687L25.0682 16.6862L26.3706 15.3837L27.235 16.2481C27.0101 16.521 26.771 16.7878 26.514 17.0448ZM27.7507 15.5707L26.9672 14.7872L28.2696 13.4848L28.7002 13.9154C28.435 14.495 28.1171 15.0492 27.7507 15.5707ZM29.0427 13.0648L28.8662 12.8882L29.2026 12.5518C29.154 12.7229 29.1019 12.8942 29.0427 13.0648ZM29.4914 11.0699L28.2696 12.2916L26.9672 10.9892L28.2696 9.68677L29.5047 10.9219C29.5005 10.9711 29.4965 11.0205 29.4914 11.0699ZM29.5179 9.74208L28.8662 9.09031L29.3493 8.60715C29.4368 8.98012 29.4931 9.3598 29.5179 9.74208ZM28.2696 8.49375L26.9672 7.19135L28.0789 6.07954C28.4935 6.56257 28.8254 7.11072 29.0614 7.70188L28.2696 8.49375Z"
        fill="#515158" />
    <path
        d="M24.261 23.4926C23.599 24.1546 23.1482 24.998 22.9655 25.9162C22.7829 26.8344 22.8766 27.7861 23.2349 28.651C23.5931 29.516 24.1998 30.2552 24.9783 30.7753C25.7567 31.2955 26.6718 31.5731 27.608 31.5731C28.5442 31.5731 29.4594 31.2955 30.2378 30.7753C31.0162 30.2552 31.6229 29.516 31.9811 28.651C32.3394 27.7861 32.4331 26.8344 32.2505 25.9162C32.0678 24.998 31.617 24.1546 30.955 23.4926C30.0667 22.6062 28.863 22.1084 27.608 22.1084C26.3531 22.1084 25.1494 22.6062 24.261 23.4926ZM24.8576 24.0891C25.5784 23.3676 26.5547 22.9592 27.5746 22.9526C27.5675 23.9724 27.1591 24.9484 26.438 25.6695C25.7168 26.3907 24.7408 26.7989 23.7209 26.8061C23.7276 25.7862 24.136 24.81 24.8576 24.0891ZM30.3585 29.59C29.9759 29.9729 29.5175 30.2715 29.0126 30.4666C28.5078 30.6618 27.9677 30.7492 27.4271 30.7232C27.402 30.1978 27.4839 29.6728 27.6678 29.18C27.8517 28.6873 28.1338 28.237 28.4969 27.8565C28.8601 27.476 29.2968 27.1733 29.7804 26.9666C30.2641 26.76 30.7847 26.6538 31.3107 26.6544C31.371 26.6544 31.4313 26.6558 31.4916 26.6587C31.5176 27.1993 31.4302 27.7393 31.235 28.2442C31.0399 28.749 30.7413 29.2074 30.3585 29.59ZM27.9636 27.1952C27.5184 27.6401 27.1666 28.1696 26.9291 28.7525C26.6916 29.3353 26.573 29.9599 26.5805 30.5892C25.892 30.4019 25.2686 30.0281 24.7789 29.509C24.2892 28.99 23.9523 28.3458 23.8053 27.6476C25.0193 27.6195 26.1759 27.1248 27.0345 26.2661C27.8932 25.4075 28.3879 24.2509 28.416 23.0369C29.1142 23.1839 29.7584 23.5208 30.2774 24.0104C30.7965 24.5001 31.1703 25.1235 31.3576 25.812C30.7282 25.8046 30.1037 25.9231 29.5209 26.1606C28.938 26.3982 28.4085 26.75 27.9636 27.1952Z"
        fill="#515158" />
    <path
        d="M23 26.9999C23 24.5146 25.0147 22.4999 27.5 22.4999C29.9852 22.4999 32 24.5146 32 26.9999C32 29.4851 29.9852 31.4999 27.5 31.4999C25.0147 31.4999 23 29.4851 23 26.9999Z"
        stroke="#515158" stroke-width="0.5" mask="url(#path-1-outside-1_1535_9858)" />
    <path
        d="M29.8379 3.72407C27.9187 1.80489 25.2358 0.904837 22.2818 1.18775C19.4322 1.4613 16.6588 2.81618 14.4723 5.0029C12.2857 7.18962 10.9307 9.96282 10.6571 12.8123C10.6165 13.2345 10.6003 13.6587 10.6086 14.0828C9.67677 18.7041 8.4509 22.0456 7.13551 23.5701L1.56496 29.1405C1.45396 29.2515 1.36591 29.3832 1.30584 29.5283C1.24576 29.6733 1.21484 29.8287 1.21484 29.9857C1.21484 30.1427 1.24576 30.2981 1.30584 30.4431C1.36591 30.5881 1.45396 30.7199 1.56496 30.8309L2.73102 31.9969C2.95537 32.2207 3.25932 32.3464 3.57622 32.3464C3.89311 32.3464 4.19706 32.2207 4.42141 31.9969L9.99234 26.426C11.5171 25.1108 14.8583 23.8851 19.4791 22.9534C19.9031 22.9614 20.3273 22.9451 20.7496 22.9048C23.5988 22.6314 26.3723 21.2765 28.5591 19.0896C30.7458 16.9031 32.1007 14.1297 32.3742 11.2803C32.6577 8.32663 31.757 5.64308 29.8379 3.72407ZM3.82492 31.4005C3.75891 31.4663 3.6695 31.5033 3.57629 31.5033C3.48307 31.5033 3.39366 31.4663 3.32765 31.4005L2.16166 30.2344C2.09574 30.1685 2.0587 30.079 2.0587 29.9858C2.0587 29.8925 2.09574 29.8031 2.16166 29.7372L7.20869 24.6901L8.87184 26.3534L3.82492 31.4005ZM31.5344 11.1996C31.2795 13.8546 30.011 16.4447 27.9626 18.4931C25.9142 20.5415 23.3237 21.8101 20.669 22.0649C20.2647 22.1038 19.8583 22.1185 19.4522 22.1088C19.4208 22.1078 19.3895 22.1106 19.3587 22.1169C15.9585 22.7999 11.5692 23.9761 9.47169 25.7599L8.77166 25.0598C8.83725 25.0813 8.90712 25.0864 8.97514 25.0746C9.04316 25.0629 9.10726 25.0346 9.16181 24.9923C10.5466 23.9171 12.8231 22.947 15.9278 22.1089C16.0113 22.0864 16.0858 22.0388 16.1413 21.9725C16.1969 21.9062 16.2307 21.8245 16.2382 21.7384C16.2458 21.6522 16.2266 21.5659 16.1835 21.491C16.1403 21.416 16.0752 21.3562 15.9969 21.3195C14.3445 20.5461 13.0158 19.2175 12.2424 17.5651C12.2058 17.4868 12.1459 17.4217 12.071 17.3786C11.9961 17.3354 11.9098 17.3163 11.8237 17.3239C11.7376 17.3314 11.6558 17.3652 11.5896 17.4207C11.5233 17.4762 11.4757 17.5507 11.4531 17.6342C10.6149 20.7388 9.64478 23.0153 8.56984 24.4002C8.52747 24.4547 8.49914 24.5188 8.48735 24.5869C8.47555 24.6549 8.48066 24.7248 8.5022 24.7905L7.80203 24.0902C9.58587 21.9928 10.7621 17.6035 11.445 14.2032C11.4512 14.1724 11.4539 14.1411 11.4531 14.1097C11.4434 13.7036 11.458 13.2973 11.497 12.893C11.7519 10.238 13.0204 7.64782 15.0689 5.59942C17.1174 3.55102 19.7075 2.28251 22.3624 2.02763C25.0603 1.7678 27.5033 2.58285 29.2413 4.32062C30.979 6.05836 31.7934 8.50131 31.5344 11.1996ZM10.2529 23.3091C10.8779 22.123 11.4573 20.6332 11.9852 18.8529C12.6767 19.9542 13.6078 20.8853 14.7091 21.5767C12.9287 22.1047 11.4389 22.684 10.2529 23.3091Z"
        stroke="#515158" stroke-width="0.5" mask="url(#path-1-outside-1_1535_9858)" />
    <path
        d="M15.9207 6.45126C12.1305 10.2414 11.5569 15.835 14.6419 18.9199C15.9408 20.2189 17.7101 20.909 19.6972 20.909C20.0179 20.9087 20.3383 20.8913 20.6571 20.8567C22.9973 20.6047 25.2893 19.4626 27.1107 17.6412C30.9009 13.8511 31.4745 8.25754 28.3894 5.17258C25.3043 2.08762 19.7109 2.66126 15.9207 6.45126ZM25.8607 4.49992C26.4516 4.73627 26.9994 5.06851 27.4821 5.48325L26.3707 6.59465L25.0684 5.29231L25.8607 4.49992ZM19.3714 10.9892L20.6738 9.68681L21.9762 10.9892L20.6738 12.2916L19.3714 10.9892ZM20.0772 12.8881L18.7748 14.1905L17.4724 12.8882L18.7748 11.5858L20.0772 12.8881ZM22.5728 11.5858L23.8751 12.8881L22.5727 14.1905L21.2704 12.8882L22.5728 11.5858ZM23.1693 10.9892L24.4717 9.68677L25.7741 10.9892L24.4717 12.2916L23.1693 10.9892ZM24.4717 8.49361L23.1693 7.19125L24.4718 5.88884L25.7741 7.1912L24.4717 8.49361ZM23.8751 9.0902L22.5727 10.3926L21.2703 9.09032L22.5728 7.7879L23.8751 9.0902ZM20.6738 8.49371L19.3713 7.19131L20.6738 5.88888L21.9762 7.19128L20.6738 8.49371ZM20.0772 9.09032L18.7748 10.3927L17.4724 9.09024L18.7748 7.78785L20.0772 9.09032ZM18.1783 10.9892L16.8759 12.2916L15.5735 10.9892L16.8759 9.68678L18.1783 10.9892ZM18.1783 14.7871L16.8759 16.0896L15.5735 14.7872L16.8759 13.4847L18.1783 14.7871ZM18.7749 15.3837L20.0772 16.6861L18.7748 17.9885L17.4725 16.6861L18.7749 15.3837ZM19.3714 14.7871L20.6738 13.4847L21.9762 14.7871L20.6738 16.0895L19.3714 14.7871ZM22.5727 15.3837L23.8751 16.6861L22.5727 17.9885L21.2703 16.6861L22.5727 15.3837ZM23.1693 14.7871L24.4717 13.4847L25.7741 14.7871L24.4717 16.0895L23.1693 14.7871ZM25.0683 12.8882L26.3707 11.5857L27.6731 12.8881L26.3707 14.1906L25.0683 12.8882ZM25.0683 9.09023L26.3707 7.78781L27.6731 9.09021L26.3707 10.3926L25.0683 9.09023ZM24.9548 4.2127L24.4717 4.69575L23.8197 4.0437C24.2021 4.0686 24.5817 4.12512 24.9548 4.2127ZM22.4925 4.07015C22.542 4.06498 22.5913 4.06212 22.6407 4.05788L23.8751 5.2923L22.5727 6.59471L21.2703 5.29231L22.4925 4.07015ZM21.0099 4.3597L20.6738 4.69579L20.4994 4.52132C20.6693 4.46236 20.8394 4.40807 21.0099 4.3597ZM19.6475 4.8626L20.0773 5.29239L18.7748 6.59482L17.9916 5.81154C18.5133 5.4452 19.0676 5.1276 19.6475 4.8626ZM16.5173 7.04791C16.7741 6.79104 17.0393 6.55041 17.3129 6.32603L18.1783 7.19139L16.8759 8.49378L15.9936 7.6115C16.1606 7.4197 16.334 7.23121 16.5173 7.04791ZM15.4612 8.27225L16.2792 9.09032L14.9768 10.3927L14.4687 9.88442C14.7506 9.31834 15.0827 8.77885 15.4612 8.27225ZM14.105 10.714L14.3803 10.9893L13.8286 11.5409C13.9072 11.2644 13.9993 10.9888 14.105 10.714ZM14.9769 11.5858L16.2793 12.8883L14.9768 14.1907L13.6744 12.8883L14.9769 11.5858ZM13.4973 13.9043L14.3803 14.7872L13.6819 15.4856C13.5612 14.9671 13.4992 14.4367 13.4973 13.9043ZM14.7389 17.7506C14.4226 17.334 14.1639 16.8766 13.9699 16.3908L14.9768 15.3838L16.2793 16.6862L14.9769 17.9886L14.7389 17.7506ZM15.8094 18.8211L15.5735 18.5852L16.8759 17.2828L18.1782 18.5851L17.1704 19.5929C16.684 19.3981 16.2262 19.1385 15.8094 18.8211ZM18.0771 19.8793L18.7747 19.1817L19.6558 20.0627C19.1243 20.0612 18.5947 19.9997 18.0771 19.8793ZM20.6737 19.8875L19.3713 18.5851L20.6737 17.2827L21.9761 18.5851L20.6737 19.8875ZM22.0221 19.7323L22.5727 19.1817L22.8483 19.4573C22.5756 19.5622 22.3002 19.6539 22.0221 19.7323ZM23.678 19.0938L23.1692 18.5851L24.4716 17.2827L25.2903 18.1014C24.7839 18.4801 24.2442 18.8123 23.678 19.0938ZM26.514 17.0448C26.3314 17.2274 26.1429 17.4011 25.9507 17.5687L25.0682 16.6862L26.3706 15.3837L27.235 16.2481C27.0101 16.521 26.771 16.7878 26.514 17.0448ZM27.7507 15.5707L26.9672 14.7872L28.2696 13.4848L28.7002 13.9154C28.435 14.495 28.1171 15.0492 27.7507 15.5707ZM29.0427 13.0648L28.8662 12.8882L29.2026 12.5518C29.154 12.7229 29.1019 12.8942 29.0427 13.0648ZM29.4914 11.0699L28.2696 12.2916L26.9672 10.9892L28.2696 9.68677L29.5047 10.9219C29.5005 10.9711 29.4965 11.0205 29.4914 11.0699ZM29.5179 9.74208L28.8662 9.09031L29.3493 8.60715C29.4368 8.98012 29.4931 9.3598 29.5179 9.74208ZM28.2696 8.49375L26.9672 7.19135L28.0789 6.07954C28.4935 6.56257 28.8254 7.11072 29.0614 7.70188L28.2696 8.49375Z"
        stroke="#515158" stroke-width="0.5" mask="url(#path-1-outside-1_1535_9858)" />
    <path
        d="M24.261 23.4926C23.599 24.1546 23.1482 24.998 22.9655 25.9162C22.7829 26.8344 22.8766 27.7861 23.2349 28.651C23.5931 29.516 24.1998 30.2552 24.9783 30.7753C25.7567 31.2955 26.6718 31.5731 27.608 31.5731C28.5442 31.5731 29.4594 31.2955 30.2378 30.7753C31.0162 30.2552 31.6229 29.516 31.9811 28.651C32.3394 27.7861 32.4331 26.8344 32.2505 25.9162C32.0678 24.998 31.617 24.1546 30.955 23.4926C30.0667 22.6062 28.863 22.1084 27.608 22.1084C26.3531 22.1084 25.1494 22.6062 24.261 23.4926ZM24.8576 24.0891C25.5784 23.3676 26.5547 22.9592 27.5746 22.9526C27.5675 23.9724 27.1591 24.9484 26.438 25.6695C25.7168 26.3907 24.7408 26.7989 23.7209 26.8061C23.7276 25.7862 24.136 24.81 24.8576 24.0891ZM30.3585 29.59C29.9759 29.9729 29.5175 30.2715 29.0126 30.4666C28.5078 30.6618 27.9677 30.7492 27.4271 30.7232C27.402 30.1978 27.4839 29.6728 27.6678 29.18C27.8517 28.6873 28.1338 28.237 28.4969 27.8565C28.8601 27.476 29.2968 27.1733 29.7804 26.9666C30.2641 26.76 30.7847 26.6538 31.3107 26.6544C31.371 26.6544 31.4313 26.6558 31.4916 26.6587C31.5176 27.1993 31.4302 27.7393 31.235 28.2442C31.0399 28.749 30.7413 29.2074 30.3585 29.59ZM27.9636 27.1952C27.5184 27.6401 27.1666 28.1696 26.9291 28.7525C26.6916 29.3353 26.573 29.9599 26.5805 30.5892C25.892 30.4019 25.2686 30.0281 24.7789 29.509C24.2892 28.99 23.9523 28.3458 23.8053 27.6476C25.0193 27.6195 26.1759 27.1248 27.0345 26.2661C27.8932 25.4075 28.3879 24.2509 28.416 23.0369C29.1142 23.1839 29.7584 23.5208 30.2774 24.0104C30.7965 24.5001 31.1703 25.1235 31.3576 25.812C30.7282 25.8046 30.1037 25.9231 29.5209 26.1606C28.938 26.3982 28.4085 26.75 27.9636 27.1952Z"
        stroke="#515158" stroke-width="0.5" mask="url(#path-1-outside-1_1535_9858)" />
</svg>