<svg width="80" height="80" viewBox="0 0 80 80" fill="none" xmlns="http://www.w3.org/2000/svg">
<path d="M80 40C80 43.4133 75.8067 46.2267 74.9667 49.3733C74.1 52.6267 76.2933 57.16 74.6467 60.0067C72.9733 62.9 67.94 63.2467 65.5933 65.5933C63.2467 67.94 62.9 72.9733 60.0067 74.6467C57.16 76.2933 52.6267 74.1 49.3733 74.9667C46.2267 75.8067 43.4133 80 40 80C36.5867 80 33.7733 75.8067 30.6267 74.9667C27.3733 74.1 22.84 76.2933 19.9933 74.6467C17.1 72.9733 16.7533 67.94 14.4067 65.5933C12.06 63.2467 7.02667 62.9 5.35333 60.0067C3.70667 57.16 5.9 52.6267 5.03333 49.3733C4.19333 46.2267 0 43.4133 0 40C0 36.5867 4.19333 33.7733 5.03333 30.6267C5.9 27.3733 3.70667 22.84 5.35333 19.9933C7.02667 17.1 12.06 16.7533 14.4067 14.4067C16.7533 12.06 17.1 7.02667 19.9933 5.35333C22.84 3.70667 27.3733 5.9 30.6267 5.03333C33.7733 4.19333 36.5867 0 40 0C43.4133 0 46.2267 4.19333 49.3733 5.03333C52.6267 5.9 57.16 3.70667 60.0067 5.35333C62.9 7.02667 63.2467 12.06 65.5933 14.4067C67.94 16.7533 72.9733 17.1 74.6467 19.9933C76.2933 22.84 74.1 27.3733 74.9667 30.6267C75.8067 33.7733 80 36.5867 80 40Z" fill="#D7FAE0"/>
<path d="M71.572 39.9998C71.572 42.6946 68.2614 44.9156 67.5983 47.3998C66.9141 49.9683 68.6456 53.5472 67.3456 55.7946C66.0246 58.0788 62.0509 58.3525 60.1983 60.2051C58.3456 62.0577 58.072 66.0314 55.7878 67.3525C53.5404 68.6525 49.9614 66.9209 47.393 67.6051C44.9088 68.2683 42.6877 71.5788 39.993 71.5788C37.2983 71.5788 35.0772 68.2683 32.593 67.6051C30.0246 66.9209 26.4456 68.6525 24.1983 67.3525C21.9141 66.0314 21.6404 62.0577 19.7877 60.2051C17.9351 58.3525 13.9614 58.0788 12.6404 55.7946C11.3404 53.5472 13.072 49.9683 12.3877 47.3998C11.7246 44.9156 8.41406 42.6946 8.41406 39.9998C8.41406 37.3051 11.7246 35.0841 12.3877 32.5998C13.072 30.0314 11.3404 26.4525 12.6404 24.2051C13.9614 21.9209 17.9351 21.6472 19.7877 19.7946C21.6404 17.942 21.9141 13.9683 24.1983 12.6472C26.4456 11.3472 30.0246 13.0788 32.593 12.3946C35.0772 11.7314 37.2983 8.4209 39.993 8.4209C42.6877 8.4209 44.9088 11.7314 47.393 12.3946C49.9614 13.0788 53.5404 11.3472 55.7878 12.6472C58.072 13.9683 58.3456 17.942 60.1983 19.7946C62.0509 21.6472 66.0246 21.9209 67.3456 24.2051C68.6456 26.4525 66.9141 30.0314 67.5983 32.5998C68.2614 35.0841 71.572 37.3051 71.572 39.9998Z" fill="#079449"/>
<path d="M49.128 30.5897L37.107 42.6107L30.8754 36.3844C29.5228 35.0318 27.328 35.0318 25.9754 36.3844C24.6228 37.737 24.6228 39.9318 25.9754 41.2844L34.7175 50.0265C36.0333 51.3423 38.1701 51.3423 39.4859 50.0265L54.0228 35.4897C55.3754 34.137 55.3754 31.9423 54.0228 30.5897C52.6701 29.237 50.4807 29.237 49.128 30.5897Z" fill="#EFFFF4"/>
</svg>
