<svg width="33" height="32" viewBox="0 0 33 32" fill="none" xmlns="http://www.w3.org/2000/svg">
    <rect x="0.5" width="32" height="32" rx="16" fill="url(#paint0_linear_3011_141446)" />
    <path
        d="M9.5 9H23.5C24.0304 9 24.5391 9.21071 24.9142 9.58579C25.2893 9.96086 25.5 10.4696 25.5 11V14C24.9696 14 24.4609 14.2107 24.0858 14.5858C23.7107 14.9609 23.5 15.4696 23.5 16C23.5 16.5304 23.7107 17.0391 24.0858 17.4142C24.4609 17.7893 24.9696 18 25.5 18V21C25.5 21.5304 25.2893 22.0391 24.9142 22.4142C24.5391 22.7893 24.0304 23 23.5 23H9.5C8.96957 23 8.46086 22.7893 8.08579 22.4142C7.71071 22.0391 7.5 21.5304 7.5 21V18C8.03043 18 8.53914 17.7893 8.91421 17.4142C9.28929 17.0391 9.5 16.5304 9.5 16C9.5 15.4696 9.28929 14.9609 8.91421 14.5858C8.53914 14.2107 8.03043 14 7.5 14V11C7.5 10.4696 7.71071 9.96086 8.08579 9.58579C8.46086 9.21071 8.96957 9 9.5 9Z"
        fill="url(#paint1_linear_3011_141446)" />
    <path
        d="M18.75 11C18.75 11.4142 19.0858 11.75 19.5 11.75C19.9142 11.75 20.25 11.4142 20.25 11H18.75ZM18.75 9V11H20.25V9H18.75Z"
        fill="white" />
    <path d="M19.5 15V17" stroke="white" stroke-width="1.5" stroke-linecap="round" stroke-linejoin="round" />
    <path
        d="M20.25 21C20.25 20.5858 19.9142 20.25 19.5 20.25C19.0858 20.25 18.75 20.5858 18.75 21H20.25ZM18.75 21V23H20.25V21H18.75Z"
        fill="white" />
    <defs>
        <linearGradient id="paint0_linear_3011_141446" x1="16.5" y1="0" x2="16.5" y2="32"
            gradientUnits="userSpaceOnUse">
            <stop stop-color="#FFEED4" />
            <stop offset="1" stop-color="#FEDCCA" />
        </linearGradient>
        <linearGradient id="paint1_linear_3011_141446" x1="16.5" y1="9" x2="16.5" y2="23"
            gradientUnits="userSpaceOnUse">
            <stop stop-color="#FBA604" />
            <stop offset="1" stop-color="#F07304" />
        </linearGradient>
    </defs>
</svg>