<svg width="40" height="40" viewBox="0 0 40 40" fill="none" xmlns="http://www.w3.org/2000/svg">
    <g filter="url(#filter0_b_2913_139390)">
        <rect width="40" height="40" rx="20" fill="url(#paint0_linear_2913_139390)" />
        <rect width="40" height="40" rx="20" fill="white" fill-opacity="0.01" />
        <rect x="0.5" y="0.5" width="39" height="39" rx="19.5" stroke="white" stroke-opacity="0.1" />
        <g clip-path="url(#clip0_2913_139390)">
            <path
                d="M27.0124 16.0122C26.0993 16.0122 25.2568 15.7097 24.5802 15.1994C23.8043 14.6144 23.2468 13.7563 23.0499 12.7672C23.0012 12.5228 22.9749 12.2706 22.9724 12.0122H20.364V19.1397L20.3609 23.0438C20.3609 24.0875 19.6812 24.9725 18.739 25.2838C18.4655 25.3741 18.1702 25.4169 17.8627 25.4C17.4702 25.3785 17.1024 25.26 16.7827 25.0688C16.1024 24.6619 15.6412 23.9238 15.6287 23.0794C15.609 21.7597 16.6759 20.6838 17.9946 20.6838C18.2549 20.6838 18.5049 20.7263 18.739 20.8035V18.8553V18.155C18.4921 18.1185 18.2409 18.0994 17.9868 18.0994C16.5434 18.0994 15.1934 18.6994 14.2284 19.7803C13.499 20.5972 13.0615 21.6394 12.994 22.7322C12.9055 24.1678 13.4309 25.5325 14.4496 26.5394C14.5993 26.6872 14.7565 26.8244 14.9209 26.951C15.7943 27.6231 16.8621 27.9875 17.9868 27.9875C18.2409 27.9875 18.4921 27.9688 18.739 27.9322C19.7896 27.7766 20.759 27.2956 21.524 26.5394C22.464 25.6103 22.9834 24.3769 22.989 23.0641L22.9755 17.2341C23.424 17.58 23.9143 17.8663 24.4405 18.0885C25.259 18.4338 26.1268 18.6088 27.0199 18.6085V16.7144V16.0116C27.0205 16.0122 27.013 16.0122 27.0124 16.0122Z"
                fill="white" />
        </g>
    </g>
    <defs>
        <filter id="filter0_b_2913_139390" x="-20" y="-20" width="80" height="80" filterUnits="userSpaceOnUse"
            color-interpolation-filters="sRGB">
            <feFlood flood-opacity="0" result="BackgroundImageFix" />
            <feGaussianBlur in="BackgroundImageFix" stdDeviation="10" />
            <feComposite in2="SourceAlpha" operator="in" result="effect1_backgroundBlur_2913_139390" />
            <feBlend mode="normal" in="SourceGraphic" in2="effect1_backgroundBlur_2913_139390" result="shape" />
        </filter>
        <linearGradient id="paint0_linear_2913_139390" x1="20" y1="0" x2="20" y2="40" gradientUnits="userSpaceOnUse">
            <stop stop-color="white" stop-opacity="0" />
            <stop offset="1" stop-color="white" stop-opacity="0.1" />
        </linearGradient>
        <clipPath id="clip0_2913_139390">
            <rect width="16" height="16" fill="white" transform="translate(12 12)" />
        </clipPath>
    </defs>
</svg>