<svg width="90" height="34" viewBox="0 0 90 34" fill="none" xmlns="http://www.w3.org/2000/svg">
<g opacity="0.3">
<mask id="path-1-inside-1_725_49556" fill="white">
<path d="M60.0586 5.21582C59.646 5.21582 59.2416 4.64947 59.4339 4.28714L63.5982 -3.43445H49.4896L44.8265 5.21582H57.4487C57.5954 5.21575 57.7398 5.25268 57.868 5.3231C57.9962 5.39351 58.1039 5.49507 58.181 5.61809C58.2581 5.74112 58.3019 5.88152 58.3083 6.02594C58.3147 6.17037 58.2835 6.31401 58.2176 6.44318L50.0778 21.5714L30.0732 -8.93961H15.8801L0 20.5725H12.5427C12.7058 20.5726 12.8662 20.614 13.0086 20.6925C13.1509 20.7711 13.2704 20.8843 13.3557 21.0213C13.4409 21.1584 13.4891 21.3146 13.4956 21.4752C13.5021 21.6358 13.4667 21.7953 13.3928 21.9386L6.99632 33.8074H21.1878L28.7276 19.8217H16.074C15.9119 19.8215 15.7527 19.7801 15.6118 19.7013C15.4708 19.6227 15.353 19.5094 15.2696 19.3726C15.1862 19.2357 15.1401 19.08 15.1359 18.9205C15.1317 18.761 15.1694 18.6031 15.2454 18.4622L23.7447 2.75947L44.1272 34H57.9408L73.1183 5.21582H60.0586Z"/>
<path d="M114.468 -5.18409C112.625 -7.69103 109.2 -8.97389 104.292 -9H85.8979L80.3847 1.18446H98.482C100.139 1.18446 101.573 2.44284 101.652 4.0766C101.672 4.48768 101.607 4.89851 101.462 5.28422C101.316 5.66992 101.092 6.02247 100.804 6.32049C100.516 6.61852 100.169 6.85582 99.7852 7.01802C99.4012 7.18023 98.9877 7.26395 98.5698 7.26414H77.1086L71.5871 17.5221H97.438C97.8427 17.5218 98.2435 17.6002 98.6174 17.7525C98.9914 17.9049 99.3312 18.1284 99.6174 18.4102C99.9036 18.6919 100.131 19.0265 100.286 19.3947C100.441 19.7629 100.52 20.1576 100.52 20.5562C100.521 20.9563 100.442 21.3526 100.287 21.7224C100.132 22.0922 99.9042 22.4282 99.6168 22.711C99.3294 22.9937 98.9881 23.2177 98.6125 23.37C98.2368 23.5223 97.8343 23.6 97.4281 23.5985H68.3077L62.8243 33.7715H69.9068C77.4765 33.7715 82.1694 33.7601 94.0542 33.6948C102.837 33.6458 109.02 28.6629 111.011 20.0257C111.454 18.09 112.16 15.0118 109.992 12.531C112.478 10.9397 113.888 8.94849 114.964 5.63528C116.495 0.975554 116.329 -2.66245 114.468 -5.18409Z"/>
</mask>
<path d="M60.0586 5.21582C59.646 5.21582 59.2416 4.64947 59.4339 4.28714L63.5982 -3.43445H49.4896L44.8265 5.21582H57.4487C57.5954 5.21575 57.7398 5.25268 57.868 5.3231C57.9962 5.39351 58.1039 5.49507 58.181 5.61809C58.2581 5.74112 58.3019 5.88152 58.3083 6.02594C58.3147 6.17037 58.2835 6.31401 58.2176 6.44318L50.0778 21.5714L30.0732 -8.93961H15.8801L0 20.5725H12.5427C12.7058 20.5726 12.8662 20.614 13.0086 20.6925C13.1509 20.7711 13.2704 20.8843 13.3557 21.0213C13.4409 21.1584 13.4891 21.3146 13.4956 21.4752C13.5021 21.6358 13.4667 21.7953 13.3928 21.9386L6.99632 33.8074H21.1878L28.7276 19.8217H16.074C15.9119 19.8215 15.7527 19.7801 15.6118 19.7013C15.4708 19.6227 15.353 19.5094 15.2696 19.3726C15.1862 19.2357 15.1401 19.08 15.1359 18.9205C15.1317 18.761 15.1694 18.6031 15.2454 18.4622L23.7447 2.75947L44.1272 34H57.9408L73.1183 5.21582H60.0586Z" fill="url(#paint0_linear_725_49556)" fill-opacity="0.3"/>
<path d="M114.468 -5.18409C112.625 -7.69103 109.2 -8.97389 104.292 -9H85.8979L80.3847 1.18446H98.482C100.139 1.18446 101.573 2.44284 101.652 4.0766C101.672 4.48768 101.607 4.89851 101.462 5.28422C101.316 5.66992 101.092 6.02247 100.804 6.32049C100.516 6.61852 100.169 6.85582 99.7852 7.01802C99.4012 7.18023 98.9877 7.26395 98.5698 7.26414H77.1086L71.5871 17.5221H97.438C97.8427 17.5218 98.2435 17.6002 98.6174 17.7525C98.9914 17.9049 99.3312 18.1284 99.6174 18.4102C99.9036 18.6919 100.131 19.0265 100.286 19.3947C100.441 19.7629 100.52 20.1576 100.52 20.5562C100.521 20.9563 100.442 21.3526 100.287 21.7224C100.132 22.0922 99.9042 22.4282 99.6168 22.711C99.3294 22.9937 98.9881 23.2177 98.6125 23.37C98.2368 23.5223 97.8343 23.6 97.4281 23.5985H68.3077L62.8243 33.7715H69.9068C77.4765 33.7715 82.1694 33.7601 94.0542 33.6948C102.837 33.6458 109.02 28.6629 111.011 20.0257C111.454 18.09 112.16 15.0118 109.992 12.531C112.478 10.9397 113.888 8.94849 114.964 5.63528C116.495 0.975554 116.329 -2.66245 114.468 -5.18409Z" fill="url(#paint1_linear_725_49556)" fill-opacity="0.3"/>
<path d="M60.0586 5.21582C59.646 5.21582 59.2416 4.64947 59.4339 4.28714L63.5982 -3.43445H49.4896L44.8265 5.21582H57.4487C57.5954 5.21575 57.7398 5.25268 57.868 5.3231C57.9962 5.39351 58.1039 5.49507 58.181 5.61809C58.2581 5.74112 58.3019 5.88152 58.3083 6.02594C58.3147 6.17037 58.2835 6.31401 58.2176 6.44318L50.0778 21.5714L30.0732 -8.93961H15.8801L0 20.5725H12.5427C12.7058 20.5726 12.8662 20.614 13.0086 20.6925C13.1509 20.7711 13.2704 20.8843 13.3557 21.0213C13.4409 21.1584 13.4891 21.3146 13.4956 21.4752C13.5021 21.6358 13.4667 21.7953 13.3928 21.9386L6.99632 33.8074H21.1878L28.7276 19.8217H16.074C15.9119 19.8215 15.7527 19.7801 15.6118 19.7013C15.4708 19.6227 15.353 19.5094 15.2696 19.3726C15.1862 19.2357 15.1401 19.08 15.1359 18.9205C15.1317 18.761 15.1694 18.6031 15.2454 18.4622L23.7447 2.75947L44.1272 34H57.9408L73.1183 5.21582H60.0586Z" stroke="url(#paint2_linear_725_49556)" stroke-opacity="0.6" stroke-width="2" mask="url(#path-1-inside-1_725_49556)"/>
<path d="M114.468 -5.18409C112.625 -7.69103 109.2 -8.97389 104.292 -9H85.8979L80.3847 1.18446H98.482C100.139 1.18446 101.573 2.44284 101.652 4.0766C101.672 4.48768 101.607 4.89851 101.462 5.28422C101.316 5.66992 101.092 6.02247 100.804 6.32049C100.516 6.61852 100.169 6.85582 99.7852 7.01802C99.4012 7.18023 98.9877 7.26395 98.5698 7.26414H77.1086L71.5871 17.5221H97.438C97.8427 17.5218 98.2435 17.6002 98.6174 17.7525C98.9914 17.9049 99.3312 18.1284 99.6174 18.4102C99.9036 18.6919 100.131 19.0265 100.286 19.3947C100.441 19.7629 100.52 20.1576 100.52 20.5562C100.521 20.9563 100.442 21.3526 100.287 21.7224C100.132 22.0922 99.9042 22.4282 99.6168 22.711C99.3294 22.9937 98.9881 23.2177 98.6125 23.37C98.2368 23.5223 97.8343 23.6 97.4281 23.5985H68.3077L62.8243 33.7715H69.9068C77.4765 33.7715 82.1694 33.7601 94.0542 33.6948C102.837 33.6458 109.02 28.6629 111.011 20.0257C111.454 18.09 112.16 15.0118 109.992 12.531C112.478 10.9397 113.888 8.94849 114.964 5.63528C116.495 0.975554 116.329 -2.66245 114.468 -5.18409Z" stroke="url(#paint3_linear_725_49556)" stroke-opacity="0.6" stroke-width="2" mask="url(#path-1-inside-1_725_49556)"/>
</g>
<defs>
<linearGradient id="paint0_linear_725_49556" x1="113.512" y1="-7.44947" x2="2.91291" y2="35.0371" gradientUnits="userSpaceOnUse">
<stop stop-color="white"/>
<stop offset="1" stop-color="white" stop-opacity="0.05"/>
</linearGradient>
<linearGradient id="paint1_linear_725_49556" x1="113.512" y1="-7.44947" x2="2.91291" y2="35.0371" gradientUnits="userSpaceOnUse">
<stop stop-color="white"/>
<stop offset="1" stop-color="white" stop-opacity="0.05"/>
</linearGradient>
<linearGradient id="paint2_linear_725_49556" x1="113.512" y1="-7.44947" x2="2.91291" y2="35.0371" gradientUnits="userSpaceOnUse">
<stop stop-color="white"/>
<stop offset="1" stop-color="white" stop-opacity="0.1"/>
</linearGradient>
<linearGradient id="paint3_linear_725_49556" x1="113.512" y1="-7.44947" x2="2.91291" y2="35.0371" gradientUnits="userSpaceOnUse">
<stop stop-color="white"/>
<stop offset="1" stop-color="white" stop-opacity="0.1"/>
</linearGradient>
</defs>
</svg>
