<svg width="41" height="14" viewBox="0 0 41 14" fill="none" xmlns="http://www.w3.org/2000/svg">
<path fill-rule="evenodd" clip-rule="evenodd" d="M10.057 13.6469H6.59461L3.99822 3.59995C3.87499 3.13779 3.61332 2.72921 3.22842 2.53665C2.26786 2.05272 1.20939 1.66758 0.0546875 1.47334V1.08653H5.63236C6.40216 1.08653 6.97951 1.66758 7.07573 2.3424L8.42288 9.58964L11.8836 1.08653H15.2498L10.057 13.6469ZM17.1662 13.6469H13.8963L16.5889 1.08653H19.8588L17.1662 13.6469ZM24.1021 4.56715C24.1984 3.89065 24.7757 3.50384 25.4493 3.50384C26.5078 3.40672 27.6608 3.60096 28.623 4.08322L29.2004 1.3789C28.2381 0.992093 27.1797 0.797852 26.2191 0.797852C23.0454 0.797852 20.736 2.53766 20.736 4.95228C20.736 6.78921 22.3718 7.75372 23.5265 8.33477C24.7757 8.91415 25.2568 9.30096 25.1606 9.88033C25.1606 10.7494 24.1984 11.1362 23.2378 11.1362C22.0831 11.1362 20.9284 10.8465 19.8716 10.3626L19.2943 13.0686C20.449 13.5508 21.6982 13.7451 22.8529 13.7451C26.4115 13.8405 28.623 12.1024 28.623 9.49352C28.623 6.20816 24.1021 6.01559 24.1021 4.56715ZM40.0547 13.647L37.4583 1.08657H34.6695C34.0921 1.08657 33.5148 1.47338 33.3223 2.05276L28.5144 13.647H31.8806L32.5525 11.8117H36.6885L37.0734 13.647H40.0547ZM35.1588 4.4713L36.1194 9.20511H33.4268L35.1588 4.4713Z" fill="#172B85"/>
</svg>
