<svg width="32" height="32" viewBox="0 0 32 32" fill="none" xmlns="http://www.w3.org/2000/svg">
<path d="M17.2439 6.508L15.683 8.06897L15.6049 8.14702L15.1093 8.64263L14.7425 9.01336L14.2469 9.50898L14.1688 9.58312L13.9542 9.80166L13.8761 9.8758L13.1464 10.6056L13.0683 10.6797C12.855 10.8927 12.6134 11.0752 12.3503 11.2221C12.2247 11.2924 12.0943 11.3537 11.96 11.4056C11.6578 11.5227 11.3392 11.5925 11.0156 11.6124C10.8196 11.6299 10.6224 11.6299 10.4264 11.6124C9.99833 11.5659 9.58415 11.4331 9.20881 11.2221C9.03885 11.1342 8.88136 11.0239 8.74052 10.8943L8.65076 10.8046L5.80588 7.93239L5.74735 7.87385C5.69668 7.81906 5.65218 7.75886 5.61467 7.69434C5.51705 7.52886 5.46582 7.34013 5.46637 7.148C5.46433 7.11811 5.46433 7.08813 5.46637 7.05824C5.46637 7.01141 5.46637 6.96458 5.46637 6.92166V6.87093C5.50452 6.72905 5.57088 6.59632 5.66149 6.48068C5.68544 6.45025 5.71152 6.42156 5.73954 6.39483L5.79027 6.3441L8.85369 3.31971L10.6878 1.48946C10.883 1.29398 11.1452 1.17998 11.4212 1.17056C11.6973 1.16114 11.9666 1.257 12.1747 1.43873L17.2439 6.508Z" fill="#005BAA"/>
<path d="M11.7275 13.3135C11.4806 13.3126 11.2369 13.258 11.0133 13.1535L10.4318 12.576L10.2875 12.4355L10.264 12.4082L9.99477 12.1389L8.64062 10.7691L8.73038 10.8589C8.87219 10.9901 9.03101 11.1017 9.20258 11.1906C9.57792 11.4016 9.9921 11.5343 10.4201 11.5808C10.6162 11.5984 10.8134 11.5984 11.0094 11.5808C11.333 11.5609 11.6515 11.4912 11.9538 11.374C12.088 11.3221 12.2184 11.2609 12.344 11.1906C12.6072 11.0437 12.8488 10.8611 13.0621 10.6482L13.1401 10.574L13.8699 9.84426L13.9479 9.77012L14.1626 9.55158L14.2406 9.47743L14.7362 8.98182L15.1031 8.61109L15.6104 8.1428L15.6884 8.06475L18.8299 4.9428L20.1177 3.5106L20.1879 3.44426C20.3781 3.25481 20.6356 3.14844 20.904 3.14844C21.1725 3.14844 21.43 3.25481 21.6201 3.44426L22.3304 4.15451H22.3538C22.1944 4.14786 22.0353 4.17385 21.8864 4.23089C21.7374 4.28793 21.6016 4.37482 21.4875 4.48621L19.0875 6.82768L19.064 6.85499L14.8962 11.0072L13.3548 12.5174L13.2611 12.615C13.0513 12.8186 12.8102 12.9873 12.547 13.1145C12.4006 13.1855 12.2459 13.238 12.0865 13.2706C11.9952 13.2897 11.9026 13.3015 11.8094 13.3057L11.7275 13.3135Z" fill="#ED1C24"/>
<path d="M26.1809 9.4312L26.1029 9.50925L22.7038 12.959L19.1253 16.5844C19.0141 16.6966 18.894 16.7997 18.7663 16.8927L18.7156 16.9278C18.0934 17.3723 17.3359 17.5862 16.5732 17.5328C15.8104 17.4794 15.0901 17.162 14.536 16.6351L14.4424 16.5805L13.8297 15.9678L12.1009 14.239L11.5234 13.6575L11.4453 13.5756C11.5382 13.5911 11.6321 13.599 11.7263 13.599H11.8082C11.9186 13.5943 12.0282 13.58 12.136 13.5561C12.3188 13.5198 12.496 13.4595 12.6629 13.3766C12.9504 13.2338 13.2138 13.0468 13.4434 12.8224L13.5487 12.7092L14.8756 11.4058L19.4375 6.91803L19.4609 6.88681L21.7009 4.71705C21.8464 4.57756 22.0352 4.49188 22.236 4.47414C22.4368 4.4564 22.6376 4.50767 22.8053 4.61949L23.3282 5.14632L26.177 7.999C26.2024 8.02313 26.2259 8.04923 26.2473 8.07705C26.406 8.27086 26.4871 8.5167 26.4748 8.7669C26.4626 9.0171 26.3578 9.25383 26.1809 9.4312Z" fill="#ED1C24"/>
<path d="M15.1673 5.65287C15.1269 5.69017 15.074 5.71089 15.019 5.71089C14.9641 5.71089 14.9111 5.69017 14.8707 5.65287C14.5502 5.33027 14.1692 5.07396 13.7496 4.89859C13.33 4.72321 12.88 4.6322 12.4252 4.63075C11.5067 4.62782 10.6247 4.98988 9.97317 5.63726C9.32164 6.28465 8.95397 7.16434 8.95104 8.08281C8.94812 9.00128 9.31017 9.8833 9.95756 10.5348L11.0112 11.5963C11.0123 11.6041 11.0123 11.6119 11.0112 11.6197C10.8204 11.6373 10.6284 11.6373 10.4376 11.6197L9.65707 10.8392C8.93258 10.1095 8.52762 9.12196 8.53127 8.09371C8.53493 7.06546 8.94691 6.08078 9.67658 5.35629C10.4063 4.63179 11.3938 4.22683 12.4221 4.23049C13.4503 4.23415 14.435 4.64613 15.1595 5.3758C15.1949 5.41283 15.2153 5.46165 15.2167 5.51284C15.2181 5.56402 15.2005 5.61392 15.1673 5.65287Z" fill="#009EDB"/>
<path d="M16.7825 6.98009L16.4899 7.26887L15.9786 6.75374C15.9594 6.73453 15.9441 6.71172 15.9337 6.68661C15.9233 6.6615 15.918 6.63459 15.918 6.6074C15.918 6.58022 15.9233 6.5533 15.9337 6.52819C15.9441 6.50308 15.9594 6.48027 15.9786 6.46106C15.9978 6.44183 16.0207 6.42657 16.0458 6.41616C16.0709 6.40575 16.0978 6.40039 16.125 6.40039C16.1522 6.40039 16.1791 6.40575 16.2042 6.41616C16.2293 6.42657 16.2521 6.44183 16.2713 6.46106L16.7825 6.98009Z" fill="#009EDB"/>
<path d="M12.3663 11.214C12.2409 11.2835 12.1104 11.3435 11.9761 11.3935L10.54 9.95744C10.1045 9.51883 9.83585 8.94198 9.78028 8.32643C9.72471 7.71088 9.88575 7.09524 10.2356 6.58574C10.2671 6.54081 10.315 6.50997 10.3689 6.49977C10.4228 6.48956 10.4786 6.50081 10.5244 6.5311C10.5467 6.54669 10.5658 6.56654 10.5804 6.58951C10.5951 6.61248 10.605 6.63812 10.6098 6.66495C10.6145 6.69178 10.6138 6.71928 10.6079 6.74587C10.6019 6.77246 10.5908 6.79761 10.5751 6.81988C10.2802 7.24992 10.1446 7.76938 10.1916 8.2887C10.2386 8.80803 10.4653 9.29468 10.8327 9.66476L12.3663 11.214Z" fill="#009EDB"/>
<path d="M15.9107 7.84215L15.696 8.05678L15.6258 8.12703L14.0141 6.49971C13.7192 6.20346 13.3472 5.99565 12.9403 5.89978C12.5334 5.80392 12.1078 5.82384 11.7117 5.95727C11.6852 5.96951 11.6564 5.97602 11.6273 5.97638C11.5981 5.97673 11.5692 5.97091 11.5425 5.9593C11.5157 5.9477 11.4917 5.93057 11.4721 5.90904C11.4524 5.88751 11.4375 5.86207 11.4284 5.83438C11.4192 5.80669 11.4161 5.77738 11.4191 5.74838C11.422 5.71937 11.4311 5.69133 11.4457 5.66608C11.4603 5.64083 11.4801 5.61896 11.5037 5.60189C11.5273 5.58482 11.5543 5.57294 11.5829 5.56703C12.05 5.41387 12.5506 5.3941 13.0284 5.50992C13.5061 5.62574 13.9421 5.87257 14.2873 6.22264L15.9107 7.84215Z" fill="#009EDB"/>
<path d="M15.0471 8.70874L14.7544 9.00142L13.1349 7.3702C12.9398 7.21029 12.6921 7.12878 12.4402 7.14158C12.1882 7.15437 11.9501 7.26056 11.7722 7.43941C11.5943 7.61827 11.4895 7.85698 11.478 8.10897C11.4666 8.36097 11.5495 8.60818 11.7105 8.8024L12.7524 9.85215C12.7912 9.89097 12.813 9.94361 12.813 9.9985C12.813 10.0534 12.7912 10.106 12.7524 10.1448C12.7136 10.1836 12.661 10.2055 12.6061 10.2055C12.5512 10.2055 12.4985 10.1836 12.4597 10.1448L11.3983 9.09508C11.1506 8.82176 11.0179 8.46342 11.0279 8.09471C11.0378 7.72599 11.1896 7.37534 11.4517 7.11578C11.7138 6.85623 12.0659 6.70779 12.4347 6.70139C12.8035 6.69499 13.1605 6.83112 13.4314 7.08142L15.0471 8.70874Z" fill="#009EDB"/>
<path d="M14.1798 9.57074L13.9652 9.78928L13.895 9.85562L12.2676 8.23221C12.2288 8.19339 12.207 8.14075 12.207 8.08586C12.207 8.03098 12.2288 7.97834 12.2676 7.93952C12.3065 7.90071 12.3591 7.87891 12.414 7.87891C12.4689 7.87891 12.5215 7.90071 12.5603 7.93952L14.1798 9.57074Z" fill="#009EDB"/>
<path fill-rule="evenodd" clip-rule="evenodd" d="M27.1399 24.5589L24.7282 21.1013L24.4862 20.8789H26.8745L28.4862 23.4896L28.615 23.3843L29.5867 21.9364C29.7085 21.7783 29.7629 21.5784 29.738 21.3804C29.7132 21.1823 29.6111 21.0021 29.454 20.8789H31.6979L29.1028 24.555V27.2243L29.5594 27.7706H26.7575L27.1477 27.2321C27.1477 26.3462 27.1165 25.4447 27.1477 24.5589H27.1399ZM20.5955 20.8789C20.7502 21.0391 20.8464 21.2466 20.8687 21.4682C20.884 21.6004 20.8666 21.7344 20.8179 21.8584L19.0267 27.0564C18.9083 27.3176 18.7337 27.5494 18.5155 27.7355H20.4667C20.3234 27.618 20.2266 27.4534 20.1935 27.2711C20.1583 27.1434 20.1583 27.0085 20.1935 26.8808L20.5838 25.6477H22.8589L23.214 26.5999C23.2499 26.6952 23.2722 26.795 23.2804 26.8964C23.3035 27.0585 23.282 27.2237 23.218 27.3743C23.154 27.525 23.0501 27.6553 22.9175 27.7511H25.9809C25.6788 27.508 25.4304 27.2051 25.2511 26.8613L23.0111 20.8594L20.5955 20.8789ZM22.5467 24.7813H20.9194L21.6999 22.5335L22.5389 24.7813H22.5467ZM14.3867 20.8828H17.8014C18.2968 20.8838 18.7717 21.0811 19.122 21.4314C19.4723 21.7818 19.6696 22.2566 19.6706 22.7521V22.9823C19.6645 23.473 19.466 23.9417 19.1179 24.2876C18.7698 24.6335 18.2999 24.829 17.8092 24.8321L16.9545 24.8594C17.2746 24.6848 17.5321 24.4145 17.6909 24.0863C17.8497 23.7581 17.902 23.3885 17.8404 23.0291C17.774 22.4516 17.4775 21.8974 16.9818 21.8857H16.6696V27.0018C16.6682 27.084 16.6928 27.1646 16.7399 27.2321C16.8335 27.3788 16.9378 27.5184 17.0521 27.6496L17.1418 27.7589H14.4882L14.6014 27.6067C14.6845 27.4972 14.7539 27.3779 14.8082 27.2516C14.8425 27.1783 14.8598 27.0983 14.8589 27.0174V21.5111C14.8472 21.2223 14.5623 21.0584 14.3867 20.8828Z" fill="#005BAA"/>
<path fill-rule="evenodd" clip-rule="evenodd" d="M0.00390625 20.8477H2.14634L3.94537 26.0028L5.47122 21.7335C5.49906 21.609 5.47661 21.4786 5.40878 21.3706C5.32683 21.195 5.23708 21.0272 5.15122 20.8555H6.75122C6.65757 21.2028 6.51708 21.5852 6.3961 21.9364L4.32781 27.954C3.70686 27.8546 3.12582 27.5844 2.64976 27.1735C2.32998 26.8294 2.09833 26.413 1.97464 25.9599L0.245857 21.3589C0.177135 21.1831 0.0962905 21.0123 0.00390625 20.8477ZM8.55805 23.2711V26.955C8.55805 27.1033 8.59317 27.1306 8.68683 27.2516L9.1083 27.8018H7.09073L7.43025 27.2828C7.51351 27.1819 7.55782 27.0545 7.55513 26.9238V21.7686L6.98927 20.8477H9.08098L12.4644 25.2223V21.7491C12.4681 21.6177 12.4252 21.4891 12.3434 21.3862C12.2302 21.2106 12.1093 21.0428 11.9961 20.8711H13.9942L13.6039 21.4057C13.5102 21.5228 13.4751 21.5501 13.4751 21.7023V27.954C13.0664 27.9328 12.667 27.8239 12.304 27.6347C11.9411 27.4455 11.6231 27.1804 11.3717 26.8574L8.55805 23.2711Z" fill="#ED1C24"/>
<path d="M2.1496 30.1229C2.1496 30.3961 2.26667 30.5405 2.56716 30.5405C2.68445 30.5405 2.80079 30.5194 2.91057 30.4781C2.96521 30.4547 2.98082 30.4781 2.98082 30.5288V30.56C2.98082 30.6068 2.98082 30.6264 2.91057 30.6537C2.80255 30.696 2.68703 30.716 2.57106 30.7122C2.15741 30.7122 1.96228 30.5288 1.96228 30.1229V29.7327C1.9507 29.6504 1.95833 29.5665 1.98458 29.4877C2.01082 29.4088 2.05496 29.3371 2.11354 29.2781C2.17213 29.2191 2.24356 29.1745 2.32226 29.1478C2.40096 29.121 2.48478 29.1129 2.56716 29.1239C2.68058 29.1246 2.79294 29.1458 2.89887 29.1864C2.9535 29.2059 2.96521 29.2293 2.96521 29.2761V29.3073C2.96521 29.3659 2.9418 29.3815 2.89106 29.362C2.78628 29.3171 2.67332 29.2945 2.55936 29.2956C2.27057 29.2956 2.16911 29.4361 2.16911 29.7405L2.1496 30.1229Z" fill="#009EDB"/>
<path d="M2.57114 30.7167C2.15358 30.7167 1.95845 30.5254 1.95845 30.1235V29.7333C1.94674 29.6506 1.9544 29.5663 1.98085 29.4871C2.0073 29.4079 2.05181 29.3359 2.11086 29.2769C2.16991 29.2178 2.24187 29.1733 2.32108 29.1469C2.40028 29.1204 2.48456 29.1128 2.56723 29.1245C2.68066 29.1252 2.79302 29.1463 2.89894 29.1869C2.95748 29.2103 2.96918 29.2337 2.96918 29.2806V29.3118C2.96918 29.343 2.96918 29.3625 2.96918 29.3703C2.96918 29.3781 2.93796 29.3703 2.91065 29.3703C2.80502 29.3287 2.69246 29.3075 2.57894 29.3079C2.29797 29.3079 2.1887 29.4445 2.1887 29.7489V30.1391C2.1887 30.424 2.31358 30.5528 2.60236 30.5528C2.71852 30.5543 2.83386 30.5331 2.94187 30.4903C2.97309 30.4903 2.9887 30.4903 3.0004 30.4903C3.01211 30.4903 3.0004 30.5176 3.0004 30.5489V30.5801C3.0004 30.6308 3.0004 30.6503 2.93016 30.6737C2.8155 30.716 2.69252 30.7307 2.57114 30.7167ZM2.57114 29.1284C2.48822 29.1163 2.40364 29.124 2.32421 29.1506C2.24477 29.1773 2.17272 29.2222 2.11386 29.2818C2.05499 29.3415 2.01097 29.4141 1.98533 29.4939C1.95969 29.5736 1.95316 29.6583 1.96626 29.7411V30.1313C1.96626 30.5215 2.16138 30.7167 2.57504 30.7167C2.68992 30.7232 2.80476 30.7032 2.91065 30.6581C2.96918 30.6347 2.98089 30.6152 2.98089 30.5684V30.5293C2.98089 30.4981 2.98089 30.4825 2.98089 30.4747C2.98089 30.4669 2.95748 30.4747 2.93016 30.4747C2.8208 30.5175 2.70418 30.5387 2.58675 30.5372C2.29797 30.5372 2.16528 30.4084 2.16528 30.1196V29.7293C2.16528 29.4211 2.29406 29.2845 2.57894 29.2845C2.69386 29.2826 2.80799 29.3038 2.91455 29.3469C2.93797 29.3469 2.95358 29.3469 2.96528 29.3469C2.96916 29.3383 2.97117 29.329 2.97117 29.3196C2.97117 29.3102 2.96916 29.3009 2.96528 29.2923V29.2611C2.96528 29.2181 2.96528 29.1947 2.89504 29.1713C2.78958 29.1357 2.67845 29.1198 2.56723 29.1245L2.57114 29.1284Z" fill="#009EDB"/>
<path d="M3.23438 29.1249C3.23438 29.0586 3.23438 29.0469 3.30852 29.0469H3.33584C3.39828 29.0469 3.40999 29.0469 3.40999 29.1249V29.6752C3.45525 29.6166 3.51515 29.5709 3.58365 29.5428C3.65216 29.5148 3.72686 29.5052 3.80023 29.5152C4.0773 29.5152 4.2412 29.6322 4.2412 29.9054V30.6079C4.2412 30.6703 4.2412 30.682 4.16706 30.682H4.13584C4.0734 30.682 4.06169 30.682 4.06169 30.6079V29.9327C4.06169 29.7454 3.97974 29.6635 3.7573 29.6635C3.53486 29.6635 3.4295 29.7532 3.4295 29.9718V30.6157C3.4295 30.6781 3.4295 30.6898 3.35535 30.6898H3.32804C3.2695 30.6898 3.25389 30.6898 3.25389 30.6157L3.23438 29.1249Z" fill="#009EDB"/>
<path d="M4.14363 30.6859H4.11241C4.04997 30.6859 4.03826 30.6859 4.03826 30.6078V29.9327C4.03826 29.7415 3.94851 29.6674 3.73387 29.6674C3.51924 29.6674 3.40997 29.7571 3.40997 29.9717V30.6157C3.40997 30.6781 3.40997 30.6937 3.33192 30.6937H3.3046C3.24217 30.6937 3.22656 30.6937 3.22656 30.6157V29.1249C3.22656 29.0547 3.22656 29.043 3.3046 29.043H3.33192C3.39436 29.043 3.40997 29.043 3.40997 29.1249V29.6674C3.45567 29.6095 3.51577 29.5646 3.58425 29.5372C3.65273 29.5098 3.72719 29.5009 3.80021 29.5113C4.0929 29.5113 4.24119 29.6517 4.24119 29.9327V30.6352C4.23729 30.6859 4.20997 30.6859 4.14363 30.6859ZM3.73387 29.6517C3.95241 29.6517 4.04216 29.7337 4.04216 29.9249V30.6078C4.04216 30.6703 4.04216 30.6781 4.11241 30.6781H4.14363C4.20607 30.6781 4.21777 30.6781 4.21777 30.6078V29.9054C4.21777 29.6283 4.06948 29.4917 3.7807 29.4917C3.70716 29.4782 3.63128 29.4861 3.5621 29.5145C3.49292 29.5429 3.43334 29.5905 3.39046 29.6517V29.1249C3.39046 29.0625 3.39046 29.0508 3.32021 29.0508H3.2929C3.23436 29.0508 3.21875 29.0508 3.21875 29.1249V30.6352C3.21875 30.6976 3.21875 30.7054 3.2929 30.7054H3.32021C3.38265 30.7054 3.39046 30.7054 3.39046 30.6352V29.9717C3.40217 29.7532 3.50363 29.6596 3.73387 29.6596V29.6517Z" fill="#009EDB"/>
<path d="M4.47266 30.2141V29.9956C4.47266 29.6639 4.64827 29.4961 4.99558 29.4961C5.3429 29.4961 5.51461 29.6678 5.51461 29.9956V30.2141C5.51461 30.5498 5.3429 30.7137 4.99558 30.7137C4.64827 30.7137 4.47266 30.5419 4.47266 30.2141ZM5.33509 29.9956C5.33509 29.7654 5.25315 29.6639 4.99558 29.6639C4.73802 29.6639 4.65217 29.7654 4.65217 29.9956V30.2141C4.65217 30.4444 4.73802 30.5458 4.99558 30.5458C5.25315 30.5458 5.33509 30.4444 5.33509 30.2141V29.9956Z" fill="#009EDB"/>
<path d="M4.99398 30.7167C4.63495 30.7167 4.47105 30.5567 4.47105 30.2133V29.9948C4.46435 29.9244 4.47233 29.8533 4.4945 29.7861C4.51667 29.719 4.55253 29.6571 4.59983 29.6045C4.70956 29.5153 4.84891 29.4707 4.99007 29.4796C5.3452 29.4796 5.5091 29.6396 5.5091 29.9831V30.2016C5.51967 30.2717 5.51363 30.3433 5.49148 30.4106C5.46933 30.4779 5.43168 30.5391 5.38157 30.5892C5.33146 30.6393 5.27028 30.677 5.20296 30.6991C5.13563 30.7213 5.06406 30.7273 4.99398 30.7167ZM4.99398 29.4992C4.85319 29.4879 4.71347 29.5312 4.60373 29.6201C4.55561 29.6722 4.51921 29.734 4.49699 29.8013C4.47477 29.8686 4.46726 29.9399 4.47495 30.0104V30.2289C4.47495 30.5684 4.63886 30.7245 4.99398 30.7245C5.1349 30.737 5.27508 30.6936 5.38422 30.6036C5.43235 30.5515 5.46875 30.4897 5.49096 30.4224C5.51318 30.3551 5.52069 30.2838 5.513 30.2133V29.9948C5.5091 29.6553 5.3452 29.5148 4.99398 29.5148V29.4992ZM4.99398 30.5489C4.74422 30.5489 4.64666 30.4553 4.64666 30.2133V29.9948C4.64666 29.7528 4.74032 29.6592 4.99398 29.6592C5.24764 29.6592 5.33739 29.7528 5.33739 29.9948V30.2133C5.33739 30.4592 5.24373 30.5489 4.99398 30.5489ZM4.99398 29.667C4.74422 29.667 4.65446 29.7528 4.65446 29.9948V30.2133C4.65446 30.4514 4.74812 30.5411 4.99398 30.5411C5.23983 30.5411 5.33349 30.4553 5.33349 30.2133V29.9948C5.33349 29.7528 5.23983 29.667 4.99398 29.667Z" fill="#009EDB"/>
<path d="M6.37891 29.9881C6.37891 29.6759 6.54671 29.4964 6.90964 29.4964C6.9799 29.4941 7.05 29.5047 7.11647 29.5276C7.175 29.5276 7.19061 29.5627 7.19061 29.6174V29.6408C7.19061 29.6993 7.19061 29.7188 7.11647 29.6993C7.05161 29.675 6.98278 29.6631 6.91354 29.6642C6.64817 29.6642 6.55842 29.7696 6.55842 29.992V30.2222C6.55842 30.4603 6.66378 30.5462 6.94866 30.5462C7.02022 30.5487 7.09165 30.5381 7.15939 30.5149C7.21403 30.4954 7.22964 30.5149 7.22964 30.5735V30.5969C7.22964 30.6476 7.22964 30.6671 7.15549 30.6827C7.08364 30.7056 7.00843 30.7162 6.93305 30.714C6.57013 30.714 6.39842 30.5579 6.39842 30.2222L6.37891 29.9881Z" fill="#009EDB"/>
<path d="M6.91355 30.7166C6.77312 30.7248 6.63447 30.6819 6.5233 30.5957C6.47427 30.5441 6.43701 30.4825 6.4141 30.4151C6.39119 30.3477 6.38318 30.2762 6.39062 30.2054V29.9713C6.38638 29.9049 6.39599 29.8383 6.41883 29.7759C6.44167 29.7134 6.47725 29.6563 6.5233 29.6083C6.63086 29.5145 6.77108 29.4668 6.91355 29.4757C6.98371 29.475 7.05353 29.4855 7.12038 29.5069C7.18282 29.5069 7.19452 29.5459 7.19452 29.6005V29.6239C7.19452 29.6591 7.19452 29.6786 7.19452 29.6864C7.18551 29.6912 7.17546 29.6937 7.16526 29.6937C7.15505 29.6937 7.145 29.6912 7.13599 29.6864C7.07035 29.6656 7.0019 29.6551 6.93306 29.6552C6.6794 29.6552 6.57794 29.7488 6.57794 29.9791V30.2093C6.57794 30.4435 6.6794 30.5293 6.96818 30.5293C7.03976 30.5322 7.11126 30.5217 7.17891 30.4981C7.20623 30.4981 7.22184 30.4981 7.23355 30.4981C7.24525 30.4981 7.25306 30.5254 7.25306 30.5605V30.5839C7.25306 30.6386 7.25306 30.6581 7.17501 30.6737C7.09112 30.7035 7.00257 30.718 6.91355 30.7166ZM6.91355 29.4991C6.56623 29.4991 6.38672 29.6669 6.38672 29.9869V30.221C6.38672 30.5566 6.55452 30.7088 6.91745 30.7088C6.99253 30.7105 7.06744 30.7013 7.13989 30.6815C7.19843 30.6815 7.21404 30.6464 7.21404 30.5957V30.5722C7.21404 30.541 7.21404 30.5215 7.21404 30.5137C7.21404 30.5059 7.18672 30.5137 7.1633 30.5137C7.09378 30.535 7.02139 30.5456 6.94867 30.5449C6.6794 30.5449 6.55843 30.4513 6.55843 30.2171V29.9869C6.55843 29.7527 6.66379 29.6552 6.91745 29.6552C6.98666 29.6544 7.05543 29.6663 7.12038 29.6903C7.14769 29.6903 7.1633 29.6903 7.17501 29.6903C7.18672 29.6903 7.17501 29.663 7.17501 29.6317V29.6083C7.17501 29.5576 7.17501 29.5381 7.10477 29.5186C7.04025 29.5079 6.97453 29.5066 6.90964 29.5147L6.91355 29.4991Z" fill="#009EDB"/>
<path d="M7.5584 30.2688C7.5584 30.4561 7.63645 30.5459 7.8745 30.5459C8.11255 30.5459 8.1906 30.46 8.1906 30.2688V29.5937C8.1906 29.5351 8.1906 29.5195 8.26865 29.5195H8.29206C8.3584 29.5195 8.37011 29.5195 8.37011 29.5937V30.2688C8.37011 30.5576 8.22572 30.7137 7.8745 30.7137C7.52328 30.7137 7.36328 30.5654 7.36328 30.2688V29.5937C7.36328 29.5351 7.36328 29.5195 7.44133 29.5195H7.46475C7.53109 29.5195 7.54279 29.5195 7.54279 29.5937L7.5584 30.2688Z" fill="#009EDB"/>
<path d="M7.87061 30.7176C7.5428 30.7176 7.375 30.5654 7.375 30.2688V29.5937C7.375 29.5351 7.375 29.5156 7.44915 29.5156H7.47646C7.54281 29.5156 7.55451 29.5156 7.55451 29.5937V30.2688C7.55451 30.4678 7.64427 30.542 7.87061 30.542C8.09695 30.542 8.1828 30.4678 8.1828 30.2688V29.5937C8.1828 29.5351 8.1828 29.5156 8.26476 29.5156H8.28817C8.35841 29.5156 8.36622 29.5156 8.36622 29.5937V30.2688C8.37175 30.3289 8.36453 30.3896 8.34503 30.4467C8.32553 30.5039 8.29419 30.5563 8.25305 30.6005C8.14513 30.6868 8.00835 30.7287 7.87061 30.7176ZM7.44915 29.5156C7.39451 29.5156 7.3789 29.5156 7.3789 29.5859V30.261C7.37361 30.3218 7.38171 30.383 7.40261 30.4403C7.42351 30.4976 7.45671 30.5496 7.49988 30.5927C7.61077 30.6785 7.75078 30.7177 7.89012 30.702C7.95941 30.7097 8.02954 30.7036 8.0965 30.6842C8.16346 30.6648 8.22594 30.6324 8.28037 30.5888C8.32161 30.5455 8.35307 30.4938 8.37259 30.4372C8.39212 30.3806 8.39926 30.3205 8.39354 30.261V29.5937C8.39354 29.539 8.39354 29.5234 8.31939 29.5234H8.29598C8.23744 29.5234 8.22183 29.5234 8.22183 29.5937V30.2688C8.22183 30.4717 8.13207 30.5498 7.90183 30.5498C7.67158 30.5498 7.58183 30.4717 7.58183 30.2688V29.5937C7.58183 29.539 7.58183 29.5234 7.50768 29.5234L7.44915 29.5156Z" fill="#009EDB"/>
<path d="M8.60547 30.2137V29.9952C8.60547 29.6635 8.77717 29.4957 9.12839 29.4957C9.47961 29.4957 9.64352 29.6674 9.64352 29.9952V30.2137C9.64352 30.5493 9.47181 30.7132 9.12839 30.7132C8.78498 30.7132 8.60547 30.5415 8.60547 30.2137ZM9.46791 29.9952C9.46791 29.7649 9.38596 29.6635 9.12839 29.6635C8.87083 29.6635 8.78108 29.7649 8.78108 29.9952V30.2137C8.78108 30.444 8.87083 30.5454 9.12839 30.5454C9.38596 30.5454 9.46791 30.444 9.46791 30.2137V29.9952ZM8.96059 29.1835C9.01522 29.0976 9.05035 29.0664 9.12839 29.0664C9.20644 29.0664 9.23766 29.0898 9.2962 29.1835L9.38596 29.324C9.41327 29.3669 9.38596 29.3786 9.35474 29.3786C9.33469 29.3819 9.31413 29.3783 9.29641 29.3683C9.27869 29.3584 9.26486 29.3428 9.25718 29.324L9.20254 29.2303C9.16742 29.164 9.12839 29.164 9.08937 29.2303L9.03864 29.324C9.03041 29.3424 9.01648 29.3576 8.9989 29.3674C8.98133 29.3773 8.96105 29.3812 8.94108 29.3786H8.91766C8.87083 29.3786 8.86303 29.3786 8.89035 29.324L8.96059 29.1835ZM9.04644 30.924C9.06294 30.9079 9.0838 30.8971 9.10642 30.8928C9.12905 30.8886 9.15242 30.8911 9.17363 30.9C9.19484 30.909 9.21293 30.924 9.22565 30.9432C9.23838 30.9623 9.24516 30.9849 9.24516 31.0079C9.24516 31.0309 9.23838 31.0534 9.22565 31.0726C9.21293 31.0918 9.19484 31.1068 9.17363 31.1157C9.15242 31.1247 9.12905 31.1272 9.10642 31.1229C9.0838 31.1187 9.06294 31.1078 9.04644 31.0918C9.03523 31.0809 9.02632 31.0678 9.02024 31.0534C9.01415 31.039 9.01102 31.0235 9.01102 31.0079C9.01102 30.9922 9.01415 30.9767 9.02024 30.9623C9.02632 30.9479 9.03523 30.9349 9.04644 30.924Z" fill="#009EDB"/>
<path d="M9.13033 31.1269C9.09959 31.1259 9.07038 31.1133 9.04863 31.0915C9.02689 31.0698 9.01424 31.0406 9.01326 31.0098C9.01272 30.9938 9.01557 30.9779 9.02162 30.9631C9.02768 30.9483 9.0368 30.935 9.04838 30.924C9.05864 30.9125 9.0713 30.9034 9.08546 30.8973C9.09962 30.8912 9.11494 30.8884 9.13033 30.8888C9.16242 30.8888 9.19319 30.9016 9.21588 30.9243C9.23857 30.947 9.25131 30.9777 9.25131 31.0098C9.2518 31.0252 9.24891 31.0405 9.24284 31.0547C9.23678 31.0689 9.22768 31.0815 9.21619 31.0918C9.20489 31.103 9.19149 31.1119 9.17676 31.1179C9.16203 31.1239 9.14625 31.127 9.13033 31.1269ZM9.13033 30.8928C9.11501 30.8928 9.09984 30.8959 9.08575 30.9019C9.07167 30.9079 9.05895 30.9168 9.04838 30.9279C9.02775 30.9501 9.01656 30.9795 9.01716 31.0098C9.01732 31.04 9.02866 31.0689 9.04863 31.0915C9.07097 31.1121 9.09997 31.1238 9.13033 31.1238C9.1607 31.1238 9.18995 31.1123 9.21228 31.0918C9.22338 31.0812 9.23222 31.0685 9.23826 31.0544C9.24429 31.0403 9.24741 31.0252 9.24741 31.0098C9.24643 30.9791 9.23378 30.9499 9.21203 30.9281C9.19029 30.9064 9.16107 30.8937 9.13033 30.8928ZM9.13033 30.7171C8.77131 30.7171 8.60351 30.5571 8.60351 30.2137V29.9952C8.59732 29.9245 8.60593 29.8533 8.62877 29.7861C8.65162 29.7189 8.6882 29.6572 8.73619 29.6049C8.84554 29.515 8.98517 29.4703 9.12643 29.4801C9.48155 29.4801 9.64546 29.6401 9.64546 29.9835V30.202C9.65602 30.2721 9.64999 30.3437 9.62784 30.411C9.60569 30.4783 9.56804 30.5395 9.51793 30.5896C9.46781 30.6397 9.40664 30.6774 9.33932 30.6995C9.27199 30.7217 9.20041 30.7277 9.13033 30.7171ZM9.13033 29.4996C8.98946 29.4875 8.84943 29.5309 8.74009 29.6206C8.69196 29.6726 8.65556 29.7344 8.63335 29.8017C8.61113 29.869 8.60362 29.9403 8.61131 30.0108V30.2293C8.61131 30.5688 8.77521 30.7249 9.13033 30.7249C9.27117 30.7366 9.41104 30.6932 9.52058 30.604C9.5687 30.5519 9.6051 30.4901 9.62732 30.4228C9.64954 30.3555 9.65705 30.2842 9.64936 30.2137V29.9952C9.64546 29.6557 9.48155 29.5152 9.13033 29.5152V29.4996ZM9.13033 30.5493C8.88058 30.5493 8.78302 30.4557 8.78302 30.2137V29.9952C8.78302 29.7532 8.87668 29.6596 9.13033 29.6596C9.38399 29.6596 9.46985 29.7532 9.46985 29.9952V30.2137C9.46985 30.4596 9.38009 30.5493 9.13033 30.5493ZM9.13033 29.6674C8.88058 29.6674 8.78692 29.7532 8.78692 29.9952V30.2137C8.78692 30.4518 8.88448 30.5415 9.13033 30.5415C9.37619 30.5415 9.46594 30.4557 9.46594 30.2137V29.9952C9.46594 29.7532 9.37619 29.6674 9.13033 29.6674ZM9.35668 29.3825C9.33615 29.3855 9.31522 29.3813 9.29744 29.3707C9.27965 29.36 9.26611 29.3435 9.25912 29.324L9.20448 29.2342C9.20448 29.1991 9.16546 29.1835 9.14985 29.1835C9.14985 29.1835 9.11082 29.1835 9.09521 29.2342L9.04058 29.324C9.03359 29.3435 9.02004 29.36 9.00226 29.3707C8.98447 29.3813 8.96354 29.3855 8.94302 29.3825H8.9196C8.89228 29.3825 8.88058 29.3825 8.87667 29.3825C8.87277 29.3825 8.87667 29.3591 8.87667 29.3396L8.96643 29.1991C9.02497 29.1132 9.05619 29.082 9.13814 29.082C9.22009 29.082 9.24741 29.1054 9.30595 29.1991L9.3957 29.3396C9.3957 29.3591 9.41911 29.3747 9.3957 29.3825C9.37229 29.3903 9.38399 29.3825 9.35668 29.3825ZM9.13033 29.1796C9.13033 29.1796 9.16936 29.1796 9.18887 29.2303L9.2435 29.324C9.25045 29.3425 9.26356 29.358 9.28062 29.3679C9.29768 29.3779 9.31765 29.3817 9.33716 29.3786C9.36448 29.3786 9.37619 29.3786 9.38009 29.3786C9.38399 29.3786 9.38009 29.3786 9.38009 29.3396L9.31375 29.1874C9.25911 29.0937 9.22399 29.0703 9.14985 29.0703C9.0757 29.0703 9.04058 29.0976 8.98204 29.1874L8.89228 29.3279C8.89228 29.3279 8.89228 29.3591 8.89228 29.3669C8.89228 29.3747 8.89228 29.3669 8.93131 29.3669H8.9235C8.94285 29.3686 8.96226 29.3643 8.97904 29.3545C8.99582 29.3447 9.00915 29.33 9.01716 29.3123L9.0718 29.2186C9.09131 29.1952 9.11082 29.1796 9.13033 29.1796Z" fill="#009EDB"/>
<path d="M9.875 29.9881C9.875 29.6759 10.0428 29.4964 10.4057 29.4964C10.476 29.4941 10.5461 29.5047 10.6126 29.5276C10.6711 29.5276 10.6867 29.5627 10.6867 29.6174V29.6408C10.6867 29.6993 10.6867 29.7188 10.6126 29.6993C10.5478 29.6747 10.4789 29.6627 10.4096 29.6642C10.1443 29.6642 10.0545 29.7696 10.0545 29.992V30.2222C10.0545 30.4603 10.1599 30.5461 10.4252 30.5461C10.4981 30.5484 10.5707 30.5379 10.6399 30.5149C10.6945 30.4954 10.7101 30.5149 10.7101 30.5735V30.5969C10.7101 30.6476 10.7101 30.6671 10.6321 30.6827C10.5616 30.7056 10.4876 30.7162 10.4135 30.714C10.0467 30.714 9.875 30.5579 9.875 30.2222V29.9881Z" fill="#009EDB"/>
<path d="M10.4135 30.7166C10.2729 30.7263 10.1338 30.6832 10.0233 30.5957C9.97336 30.5447 9.93551 30.4832 9.91254 30.4156C9.88957 30.3481 9.88209 30.2762 9.89062 30.2054V29.9713C9.88587 29.9052 9.89486 29.8388 9.91702 29.7763C9.93918 29.7139 9.97404 29.6567 10.0194 29.6083C10.127 29.5145 10.2672 29.4668 10.4096 29.4757C10.4811 29.4753 10.5521 29.4858 10.6204 29.5069C10.6789 29.5069 10.6906 29.5459 10.6906 29.6005V29.6239C10.6906 29.6591 10.6906 29.6786 10.6906 29.6864C10.6816 29.6912 10.6716 29.6937 10.6614 29.6937C10.6511 29.6937 10.6411 29.6912 10.6321 29.6864C10.5664 29.6656 10.498 29.6551 10.4292 29.6552C10.1794 29.6552 10.074 29.7488 10.074 29.9791V30.2093C10.074 30.4435 10.1755 30.5293 10.4448 30.5293C10.5163 30.5322 10.5878 30.5217 10.6555 30.4981C10.6647 30.4941 10.6747 30.4921 10.6848 30.4921C10.6948 30.4921 10.7048 30.4941 10.714 30.4981C10.714 30.4981 10.714 30.5254 10.714 30.5605V30.5839C10.714 30.6386 10.714 30.6581 10.6399 30.6737C10.567 30.6991 10.4907 30.7136 10.4135 30.7166ZM10.4135 29.4991C10.0701 29.4991 9.88672 29.6669 9.88672 29.9869V30.221C9.88672 30.5566 10.0545 30.7088 10.4214 30.7088C10.4951 30.7101 10.5687 30.7009 10.6399 30.6815C10.6984 30.6815 10.714 30.6464 10.714 30.5957V30.5722C10.714 30.541 10.714 30.5215 10.714 30.5137C10.714 30.5059 10.6867 30.5137 10.6633 30.5137C10.5938 30.535 10.5214 30.5456 10.4487 30.5449C10.1794 30.5449 10.0584 30.4513 10.0584 30.2171V29.9869C10.0584 29.7527 10.1638 29.6552 10.4175 29.6552C10.4879 29.6544 10.558 29.6663 10.6243 29.6903C10.6516 29.6903 10.6672 29.6903 10.675 29.6903C10.6828 29.6903 10.675 29.663 10.675 29.6317V29.6083C10.675 29.5576 10.675 29.5381 10.6048 29.5186C10.539 29.5073 10.4719 29.506 10.4057 29.5147L10.4135 29.4991Z" fill="#009EDB"/>
<path d="M11.4922 30.5615C11.4922 30.503 11.4922 30.4873 11.5702 30.4991C11.6831 30.532 11.8 30.5491 11.9176 30.5498C12.101 30.5498 12.1751 30.5147 12.1751 30.4132C12.1751 30.3117 12.1361 30.2961 12.0229 30.2415L11.7341 30.1049C11.5819 30.0308 11.5117 29.9605 11.5117 29.7966C11.5117 29.6327 11.6522 29.5156 11.9332 29.5156C12.0336 29.5151 12.1336 29.5295 12.2298 29.5586C12.2844 29.5586 12.3 29.5937 12.3 29.6483V29.6717C12.3 29.7303 12.3 29.742 12.2258 29.7264C12.1299 29.6963 12.0298 29.6818 11.9293 29.6834C11.7537 29.6834 11.6873 29.7186 11.6873 29.8161C11.6873 29.9137 11.7302 29.9332 11.8122 29.9722L12.1166 30.1088C12.2766 30.1869 12.3546 30.2571 12.3546 30.4288C12.3546 30.6005 12.2102 30.7332 11.9058 30.7332C11.7925 30.7346 11.6796 30.7201 11.5702 30.6903C11.5078 30.6708 11.4922 30.6513 11.4922 30.6005V30.5615Z" fill="#009EDB"/>
<path d="M11.9058 30.7178C11.791 30.7181 11.6768 30.7024 11.5663 30.671C11.5078 30.671 11.4922 30.6359 11.4922 30.5812C11.4922 30.55 11.4922 30.5305 11.4922 30.5227C11.4922 30.5149 11.5234 30.5227 11.5546 30.5227C11.6678 30.5538 11.7846 30.5696 11.9019 30.5695C12.0893 30.5695 12.1595 30.5344 12.1595 30.4368C12.1595 30.3393 12.1244 30.3237 12.0073 30.269L11.7146 30.1285C11.5702 30.0583 11.4922 29.9881 11.4922 29.8202C11.4922 29.6524 11.6288 29.5159 11.9176 29.5159C12.0184 29.5139 12.1188 29.5298 12.2141 29.5627C12.2727 29.5627 12.2883 29.5978 12.2883 29.6524V29.6759C12.2955 29.6947 12.2955 29.7155 12.2883 29.7344C12.2683 29.7426 12.2458 29.7426 12.2258 29.7344C12.1317 29.7022 12.0327 29.6863 11.9332 29.6876C11.7615 29.6876 11.6951 29.7266 11.6951 29.8202C11.697 29.855 11.7096 29.8884 11.7313 29.9156C11.753 29.9429 11.7826 29.9628 11.8161 29.9724L12.1205 30.1129C12.2766 30.1832 12.3585 30.2573 12.3585 30.4329C12.3585 30.6085 12.2102 30.7178 11.9058 30.7178ZM11.5156 30.4993H11.4922C11.4922 30.4993 11.4922 30.5266 11.4922 30.5539C11.4922 30.6046 11.4922 30.6241 11.5663 30.6398C11.6755 30.6702 11.7886 30.6847 11.9019 30.6827C12.2102 30.6827 12.3468 30.5929 12.3468 30.3822C12.3468 30.1715 12.2649 30.1363 12.1127 30.0661L11.8083 29.9256C11.7731 29.9166 11.7416 29.8966 11.7185 29.8686C11.6953 29.8405 11.6817 29.8058 11.6795 29.7695C11.6795 29.672 11.7497 29.6329 11.9254 29.6329C12.0261 29.632 12.1264 29.6478 12.2219 29.6798C12.2493 29.6798 12.2649 29.6798 12.2766 29.6798C12.2802 29.6711 12.2821 29.6618 12.2821 29.6524C12.2821 29.6431 12.2802 29.6338 12.2766 29.6251V29.6017C12.2766 29.5471 12.2766 29.5354 12.2063 29.5159C12.1106 29.485 12.0103 29.4704 11.9098 29.4729C11.6249 29.4729 11.4922 29.5666 11.4922 29.7695C11.4922 29.9724 11.5663 30.0037 11.7107 30.0739L11.9995 30.2144C12.1166 30.269 12.1556 30.312 12.1556 30.3861C12.1556 30.4602 12.0854 30.5227 11.8941 30.5227C11.7755 30.5225 11.6574 30.5067 11.5429 30.4759L11.5156 30.4993Z" fill="#009EDB"/>
<path d="M12.582 30.213V29.9945C12.582 29.6628 12.7576 29.495 13.105 29.495C13.4523 29.495 13.624 29.6667 13.624 29.9945V30.213C13.624 30.5486 13.4523 30.7125 13.105 30.7125C12.7576 30.7125 12.582 30.5408 12.582 30.213ZM13.4445 29.9945C13.4445 29.7643 13.3664 29.6628 13.105 29.6628C12.8435 29.6628 12.7615 29.7643 12.7615 29.9945V30.213C12.7615 30.4433 12.8474 30.5447 13.105 30.5447C13.3625 30.5447 13.4445 30.4433 13.4445 30.213V29.9945ZM12.9372 29.1828C12.9957 29.0969 13.0269 29.0657 13.105 29.0657C13.183 29.0657 13.2181 29.0891 13.2728 29.1828L13.3664 29.3233C13.3937 29.3662 13.3664 29.3779 13.3352 29.3779C13.3152 29.3812 13.2946 29.3776 13.2769 29.3676C13.2592 29.3577 13.2453 29.3421 13.2376 29.3233L13.183 29.2296C13.144 29.1633 13.105 29.1633 13.0698 29.2296L13.0152 29.3233C12.9918 29.3701 12.9684 29.3779 12.9176 29.3779C12.8669 29.3779 12.8591 29.3779 12.8864 29.3233L12.9372 29.1828ZM13.542 29.0423C13.5323 29.0603 13.5174 29.075 13.4994 29.0847C13.4814 29.0944 13.461 29.0987 13.4406 29.0969H13.4172C13.3625 29.0969 13.3547 29.0969 13.382 29.0384L13.4796 28.8472C13.4884 28.8232 13.5053 28.803 13.5274 28.7902C13.5495 28.7773 13.5754 28.7727 13.6006 28.7769H13.624C13.6864 28.7769 13.6981 28.7769 13.663 28.8433L13.542 29.0423Z" fill="#009EDB"/>
<path d="M13.1073 30.7169C12.7521 30.7169 12.5843 30.5569 12.5843 30.2135V29.9949C12.5776 29.9245 12.5856 29.8535 12.6078 29.7863C12.6299 29.7191 12.6658 29.6573 12.7131 29.6047C12.8232 29.5161 12.9623 29.4716 13.1034 29.4798C13.4585 29.4798 13.6263 29.6398 13.6263 29.9832V30.2018C13.6302 30.5491 13.4546 30.7169 13.1073 30.7169ZM13.1073 29.4993C12.9665 29.4881 12.8267 29.5314 12.717 29.6203C12.6689 29.6724 12.6325 29.7341 12.6103 29.8014C12.5881 29.8688 12.5805 29.9401 12.5882 30.0105V30.2291C12.5882 30.5686 12.7521 30.7247 13.1073 30.7247C13.2482 30.7372 13.3884 30.6937 13.4975 30.6037C13.5456 30.5517 13.582 30.4899 13.6042 30.4226C13.6265 30.3552 13.634 30.2839 13.6263 30.2135V29.9949C13.6068 29.6554 13.4585 29.5149 13.1073 29.5149V29.4993ZM13.1073 30.5491C12.8575 30.5491 12.7599 30.4554 12.7599 30.2135V29.9949C12.7599 29.753 12.8536 29.6593 13.1073 29.6593C13.3609 29.6593 13.4507 29.753 13.4507 29.9949V30.2135C13.4507 30.4593 13.357 30.5491 13.1073 30.5491ZM13.1073 29.6671C12.8575 29.6671 12.7677 29.753 12.7677 29.9949V30.2135C12.7677 30.4515 12.8614 30.5413 13.1073 30.5413C13.3531 30.5413 13.4468 30.4554 13.4468 30.2135V29.9949C13.4468 29.753 13.3531 29.6671 13.1073 29.6671ZM13.3375 29.3822C13.3165 29.3855 13.2949 29.3814 13.2765 29.3708C13.258 29.3602 13.2438 29.3435 13.236 29.3237L13.1814 29.234C13.1463 29.1676 13.1112 29.1676 13.0721 29.234L13.0214 29.3237C13.0137 29.3435 12.9994 29.3602 12.981 29.3708C12.9625 29.3814 12.941 29.3855 12.9199 29.3822C12.8926 29.3822 12.877 29.3822 12.8731 29.3822C12.8692 29.3822 12.8731 29.3588 12.8731 29.3393L12.9629 29.1988C13.0175 29.113 13.0526 29.0818 13.1307 29.0818C13.2087 29.0818 13.2438 29.1052 13.3024 29.1988L13.3921 29.3393C13.3921 29.3588 13.3921 29.3744 13.3921 29.3822C13.3921 29.3901 13.3648 29.3822 13.3375 29.3822ZM13.1073 29.1793C13.1073 29.1793 13.1463 29.1793 13.1658 29.2301L13.2204 29.3237C13.2287 29.3421 13.2426 29.3573 13.2602 29.3672C13.2777 29.377 13.298 29.3809 13.318 29.3783C13.3414 29.3783 13.357 29.3783 13.3609 29.3783C13.3648 29.3783 13.3609 29.3783 13.3609 29.3393L13.2712 29.1988C13.2126 29.1052 13.1814 29.0818 13.1034 29.0818C13.0253 29.0818 12.9941 29.1091 12.9395 29.1988L12.8497 29.3393C12.8497 29.3393 12.8497 29.3705 12.8497 29.3783C12.8497 29.3862 12.8497 29.3783 12.8926 29.3783C12.9125 29.3803 12.9326 29.3762 12.95 29.3664C12.9675 29.3566 12.9815 29.3417 12.9902 29.3237L13.0409 29.2301C13.0682 29.1949 13.0877 29.1793 13.1073 29.1793ZM13.4429 29.1013H13.4195C13.3882 29.1013 13.3726 29.1013 13.3687 29.1013C13.3624 29.085 13.3624 29.0669 13.3687 29.0505L13.4702 28.8593C13.4729 28.8444 13.4787 28.8302 13.4872 28.8176C13.4957 28.805 13.5067 28.7944 13.5196 28.7863C13.5324 28.7782 13.5468 28.7729 13.5618 28.7707C13.5768 28.7685 13.5921 28.7694 13.6068 28.7735H13.6302C13.6653 28.7735 13.6848 28.7735 13.6887 28.7735C13.6926 28.7735 13.6887 28.8008 13.6887 28.832L13.5716 29.0271C13.5615 29.0521 13.5433 29.0729 13.52 29.0863C13.4967 29.0997 13.4695 29.105 13.4429 29.1013ZM13.6029 28.7774C13.5783 28.774 13.5533 28.7792 13.532 28.792C13.5107 28.8047 13.4944 28.8244 13.4858 28.8476L13.3843 29.0388C13.3843 29.0662 13.3843 29.0779 13.3843 29.0857C13.3843 29.0935 13.3843 29.0857 13.4312 29.0857H13.4546C13.4752 29.0861 13.4956 29.0809 13.5135 29.0705C13.5314 29.0602 13.5461 29.0452 13.556 29.0271L13.6731 28.832C13.6731 28.8047 13.6965 28.7891 13.6731 28.7813C13.6497 28.7735 13.6497 28.7813 13.6185 28.7813L13.6029 28.7774Z" fill="#009EDB"/>
<path d="M14.0545 30.6161C14.0545 30.6785 14.0545 30.6902 13.9804 30.6902H13.953C13.8945 30.6902 13.875 30.6902 13.875 30.6161V29.941C13.875 29.6444 14.0428 29.4961 14.3745 29.4961C14.7062 29.4961 14.8662 29.6522 14.8662 29.941V30.6161C14.8662 30.6785 14.8662 30.6902 14.7921 30.6902H14.7765C14.7101 30.6902 14.6984 30.6902 14.6984 30.6161V29.941C14.6984 29.7498 14.6243 29.6639 14.3862 29.6639C14.1482 29.6639 14.0662 29.7537 14.0662 29.941L14.0545 30.6161Z" fill="#009EDB"/>
<path d="M14.7736 30.6852C14.7072 30.6852 14.6916 30.6852 14.6916 30.6072V29.9398C14.6916 29.7408 14.6097 29.6667 14.3833 29.6667C14.157 29.6667 14.0672 29.7408 14.0672 29.9398V30.615C14.0672 30.6774 14.0672 30.693 13.9892 30.693H13.9619C13.9033 30.693 13.8838 30.693 13.8838 30.615V29.9398C13.8838 29.6433 14.0516 29.4911 14.3833 29.4911C14.4529 29.4839 14.5232 29.4906 14.5901 29.5107C14.6571 29.5308 14.7195 29.5639 14.7736 29.6081C14.8152 29.6522 14.8471 29.7044 14.8673 29.7616C14.8875 29.8187 14.8954 29.8794 14.8907 29.9398V30.615C14.8672 30.6852 14.8555 30.6852 14.7736 30.6852ZM14.3833 29.6589C14.6136 29.6589 14.6994 29.7369 14.6994 29.9398V30.615C14.6994 30.6774 14.6994 30.6852 14.7736 30.6852C14.836 30.6852 14.8477 30.6852 14.8477 30.615V29.9398C14.8527 29.88 14.8448 29.8198 14.8246 29.7633C14.8044 29.7068 14.7724 29.6552 14.7307 29.612C14.6303 29.539 14.5071 29.5044 14.3833 29.5145C14.244 29.4987 14.104 29.5379 13.9931 29.6237C13.9497 29.6668 13.916 29.7187 13.8945 29.776C13.8729 29.8332 13.864 29.8944 13.8682 29.9555V30.6306C13.8682 30.693 13.8682 30.7008 13.9424 30.7008H13.9931C14.0555 30.7008 14.0672 30.7008 14.0672 30.6306V29.9398C14.0516 29.7369 14.1414 29.6589 14.3833 29.6589Z" fill="#009EDB"/>
<path d="M16.0975 29.936C16.0975 30.2092 15.9375 30.3497 15.6058 30.3497C15.5228 30.3406 15.4391 30.3406 15.3561 30.3497C15.3388 30.3525 15.3233 30.3617 15.3125 30.3754C15.3016 30.3891 15.2963 30.4064 15.2975 30.4238C15.2975 30.455 15.2975 30.4785 15.36 30.4902C15.4418 30.4965 15.524 30.4965 15.6058 30.4902C15.7401 30.4808 15.8745 30.5063 15.9961 30.5643C16.0366 30.5921 16.0689 30.6304 16.0895 30.675C16.1101 30.7197 16.1183 30.7691 16.1131 30.818C16.1185 30.8708 16.1106 30.9242 16.0901 30.9733C16.0697 31.0223 16.0374 31.0655 15.9961 31.0989C15.8762 31.1622 15.741 31.1905 15.6058 31.1809C15.4707 31.1893 15.3359 31.161 15.2156 31.0989C15.1772 31.0702 15.1467 31.0322 15.127 30.9886C15.1072 30.9449 15.0987 30.897 15.1024 30.8492C15.0997 30.7984 15.111 30.7479 15.1351 30.7032C15.1592 30.6585 15.1952 30.6212 15.239 30.5955C15.2083 30.5832 15.1823 30.5614 15.1647 30.5334C15.1472 30.5053 15.139 30.4724 15.1414 30.4394C15.1414 30.3341 15.2039 30.2716 15.3326 30.2521C15.2669 30.224 15.212 30.1753 15.1761 30.1135C15.1402 30.0516 15.1253 29.9797 15.1336 29.9087V29.9048C15.1336 29.6472 15.317 29.5145 15.6253 29.5145C15.7097 29.5127 15.7934 29.5287 15.8712 29.5614L16.0078 29.4404C16.0468 29.4053 16.0663 29.4053 16.1053 29.4404C16.1444 29.4755 16.1444 29.495 16.1053 29.5341L16 29.6433C16.0342 29.6782 16.0609 29.7198 16.0784 29.7654C16.0958 29.8111 16.1037 29.8599 16.1014 29.9087L16.0975 29.936ZM15.3756 30.6619C15.3398 30.6799 15.3101 30.708 15.29 30.7426C15.27 30.7773 15.2604 30.817 15.2624 30.857C15.2624 31.0131 15.3522 31.0521 15.6058 31.0521C15.8595 31.0521 15.9492 31.0131 15.9492 30.8531C15.9492 30.6931 15.8634 30.6775 15.6058 30.6775C15.5288 30.678 15.4518 30.6727 15.3756 30.6619ZM15.918 29.9048C15.918 29.737 15.8126 29.655 15.6058 29.655C15.399 29.655 15.2897 29.737 15.2897 29.9048V29.936C15.2897 30.1038 15.3678 30.1897 15.6058 30.1897C15.8439 30.1897 15.918 30.1038 15.918 29.936V29.9048Z" fill="#009EDB"/>
<path d="M15.6056 31.2092C15.4708 31.2194 15.3358 31.1924 15.2153 31.1311C15.1772 31.1013 15.147 31.0626 15.1272 31.0184C15.1075 30.9741 15.0989 30.9258 15.1022 30.8775C15.0991 30.8275 15.1095 30.7777 15.1321 30.7331C15.1547 30.6885 15.1889 30.6508 15.231 30.6238C15.2013 30.6104 15.1765 30.5883 15.1598 30.5604C15.143 30.5325 15.1352 30.5002 15.1373 30.4677C15.1373 30.3636 15.1997 30.3012 15.3246 30.2804C15.26 30.2511 15.2062 30.2021 15.1712 30.1404C15.1361 30.0787 15.1215 30.0075 15.1295 29.937V29.9057C15.1279 29.8484 15.1389 29.7914 15.1618 29.7387C15.1848 29.6861 15.219 29.6392 15.2622 29.6014C15.367 29.5243 15.4952 29.4857 15.6251 29.4921C15.7094 29.4903 15.7932 29.5062 15.871 29.5389L16.0075 29.4218C16.0466 29.3828 16.0661 29.3828 16.1051 29.4218C16.1285 29.4414 16.1363 29.4531 16.1363 29.4687C16.1363 29.4843 16.1363 29.496 16.1051 29.5194L15.9997 29.6248C16.0353 29.6589 16.0631 29.7002 16.0813 29.746C16.0995 29.7918 16.1076 29.8409 16.1051 29.8901V29.9214C16.1051 30.1945 15.9373 30.335 15.6095 30.335C15.5265 30.3255 15.4427 30.3255 15.3597 30.335C15.3439 30.3386 15.3298 30.3476 15.3199 30.3604C15.3099 30.3732 15.3047 30.389 15.3051 30.4053C15.3051 30.4365 15.3246 30.456 15.3636 30.4677C15.4454 30.4748 15.5277 30.4748 15.6095 30.4677C15.7503 30.4549 15.8919 30.4805 16.0192 30.5418C16.0597 30.5695 16.0917 30.6079 16.1117 30.6527C16.1316 30.6975 16.1388 30.7469 16.1324 30.7955C16.1392 30.8491 16.132 30.9035 16.1115 30.9534C16.0909 31.0033 16.0578 31.0471 16.0153 31.0804C15.8935 31.1608 15.7515 31.2054 15.6056 31.2092ZM15.6056 29.4999C15.3012 29.4999 15.1178 29.6521 15.1178 29.8901V29.9214C15.1098 29.9919 15.1244 30.0631 15.1595 30.1248C15.1945 30.1865 15.2483 30.2355 15.3129 30.2648C15.1841 30.2843 15.1217 30.3428 15.1217 30.4482C15.121 30.4809 15.1298 30.5131 15.1472 30.5408C15.1645 30.5685 15.1895 30.5906 15.2192 30.6043C15.1764 30.6298 15.1415 30.6666 15.1181 30.7107C15.0947 30.7547 15.0838 30.8043 15.0866 30.854C15.0835 30.9014 15.0918 30.9488 15.1108 30.9922C15.1298 31.0357 15.159 31.0739 15.1958 31.1038C15.317 31.1631 15.4514 31.19 15.5861 31.1818C15.7208 31.1919 15.8558 31.1649 15.9763 31.1038C16.0176 31.0704 16.05 31.0272 16.0704 30.9781C16.0908 30.9291 16.0987 30.8757 16.0934 30.8228C16.0991 30.7748 16.0915 30.7262 16.0716 30.6822C16.0516 30.6382 16.02 30.6004 15.9802 30.5731C15.8587 30.5151 15.7243 30.4896 15.59 30.4989C15.507 30.5078 15.4232 30.5078 15.3402 30.4989C15.3243 30.4962 15.3099 30.4882 15.2992 30.4761C15.2885 30.464 15.2824 30.4487 15.2817 30.4326C15.2805 30.4152 15.2858 30.3979 15.2966 30.3842C15.3075 30.3705 15.323 30.3613 15.3402 30.3584C15.4232 30.3487 15.507 30.3487 15.59 30.3584C15.728 30.3722 15.8664 30.3363 15.9802 30.257C16.0218 30.2176 16.0541 30.1696 16.075 30.1163C16.0959 30.063 16.1049 30.0058 16.1012 29.9487V29.9057C16.1039 29.8571 16.0959 29.8085 16.0777 29.7633C16.0595 29.7181 16.0315 29.6775 15.9958 29.6443L16.1012 29.535C16.1246 29.535 16.1324 29.4999 16.1324 29.4882C16.1311 29.4795 16.128 29.4712 16.1233 29.4638C16.1186 29.4564 16.1124 29.4501 16.1051 29.4453H16.0856C16.0505 29.4101 16.031 29.4101 15.9919 29.4453L15.8553 29.5662C15.7767 29.5317 15.6915 29.5144 15.6056 29.5155V29.4999ZM15.6056 31.0609C15.3402 31.0609 15.2622 31.014 15.2622 30.8618C15.2579 30.8215 15.2666 30.7809 15.2869 30.7458C15.3073 30.7107 15.3382 30.6831 15.3753 30.6667C15.452 30.6716 15.5289 30.6716 15.6056 30.6667C15.8631 30.6667 15.9529 30.694 15.9529 30.8462C15.9529 30.9984 15.8671 31.0765 15.6056 31.0765V31.0609ZM15.3753 30.6706C15.34 30.6878 15.3106 30.7152 15.2912 30.7493C15.2717 30.7835 15.2629 30.8227 15.2661 30.8618C15.2661 31.0101 15.3441 31.057 15.6056 31.057C15.8671 31.057 15.9451 31.0101 15.9451 30.8579C15.9451 30.7057 15.8631 30.6823 15.6056 30.6823C15.529 30.6885 15.4521 30.6898 15.3753 30.6862V30.6706ZM15.6056 30.1984C15.3792 30.1984 15.2895 30.1243 15.2895 29.9409V29.9057C15.2895 29.734 15.391 29.6521 15.6056 29.6521C15.8202 29.6521 15.9217 29.7379 15.9217 29.9057V29.937C15.9217 30.1204 15.8319 30.1945 15.6056 30.1945V30.1984ZM15.6056 29.6599C15.3949 29.6599 15.2934 29.7418 15.2934 29.9097V29.9409C15.2934 30.1204 15.3831 30.1945 15.6056 30.1945C15.828 30.1945 15.9178 30.1204 15.9178 29.9409V29.9057C15.9178 29.7418 15.8124 29.656 15.6056 29.656V29.6599Z" fill="#009EDB"/>
<path d="M18.1966 29.32C18.1966 29.3708 18.1966 29.3864 18.1303 29.3864H17.9898V30.2176C17.9898 30.5493 17.8142 30.7132 17.4668 30.7132C17.1195 30.7132 16.9478 30.5493 16.9478 30.2176V29.9952C16.9407 29.9294 16.9487 29.8628 16.9711 29.8006C16.9935 29.7383 17.0297 29.682 17.0771 29.6357C17.1244 29.5895 17.1816 29.5546 17.2444 29.5338C17.3072 29.5129 17.3739 29.5065 17.4395 29.5152C17.5142 29.5029 17.5909 29.5125 17.6602 29.543C17.7295 29.5735 17.7884 29.6235 17.8298 29.6869V29.4059H17.5059C17.4512 29.4059 17.4395 29.4059 17.4395 29.3396C17.4395 29.2888 17.4395 29.2732 17.5059 29.2732H17.8298V29.1249C17.8298 29.0586 17.8298 29.0469 17.9039 29.0469H17.8961C17.9546 29.0469 17.9742 29.0469 17.9742 29.1249V29.2537H18.1146C18.1654 29.2537 18.181 29.2537 18.181 29.32H18.1966ZM17.1156 30.2137C17.1156 30.4439 17.1937 30.5454 17.4551 30.5454C17.7166 30.5454 17.7985 30.4439 17.7985 30.2137V29.9952C17.7985 29.7649 17.7166 29.6635 17.4551 29.6635C17.1937 29.6635 17.1156 29.7649 17.1156 29.9952V30.2137Z" fill="#009EDB"/>
<path d="M17.4673 30.7171C17.326 30.7273 17.1862 30.6825 17.077 30.5922C17.0289 30.5402 16.9925 30.4784 16.9703 30.4111C16.9481 30.3438 16.9405 30.2725 16.9482 30.202V29.9796C16.941 29.9094 16.9484 29.8385 16.9699 29.7714C16.9914 29.7042 17.0265 29.6422 17.0731 29.5893C17.125 29.541 17.1868 29.5044 17.2541 29.4822C17.3215 29.46 17.3929 29.4526 17.4634 29.4605C17.534 29.4524 17.6055 29.4638 17.6701 29.4934C17.7348 29.5229 17.7901 29.5696 17.8302 29.6283V29.3591H17.5063C17.4517 29.3591 17.436 29.3591 17.436 29.2888C17.436 29.2342 17.436 29.2186 17.5063 29.2186H17.8263V29.1249C17.8263 29.0586 17.8263 29.043 17.9043 29.043H17.8965C17.9551 29.043 17.9746 29.043 17.9746 29.1249V29.2498H18.1151C18.1658 29.2498 18.1853 29.2498 18.1853 29.32C18.1853 29.3708 18.1853 29.3903 18.1151 29.3903H17.9746V30.2176C17.9902 30.5493 17.8146 30.7171 17.4673 30.7171ZM17.4399 29.5152C17.3738 29.5097 17.3073 29.5177 17.2443 29.5384C17.1813 29.5592 17.1231 29.5924 17.0731 29.6361C17.0278 29.6897 16.9937 29.7519 16.9729 29.819C16.9522 29.886 16.9451 29.9565 16.9521 30.0264V30.2488C16.9431 30.319 16.9497 30.3904 16.9712 30.4578C16.9928 30.5252 17.0289 30.5871 17.077 30.6391C17.1862 30.7291 17.3263 30.7725 17.4673 30.76C17.6081 30.7713 17.7478 30.728 17.8575 30.6391C17.9059 30.5872 17.9424 30.5254 17.9646 30.458C17.9868 30.3907 17.9942 30.3193 17.9863 30.2488V29.3825H18.1307C18.1775 29.3825 18.197 29.3825 18.197 29.32C18.197 29.2732 18.197 29.2576 18.1307 29.2576H17.9863V29.1249C17.9863 29.0586 17.9863 29.0508 17.9121 29.0508H17.8965C17.8341 29.0508 17.8263 29.0508 17.8263 29.1249V29.2576H17.5063C17.4517 29.2576 17.4438 29.2576 17.4438 29.32C17.4438 29.3669 17.4438 29.3825 17.5063 29.3825H17.8341V29.6791C17.7914 29.6164 17.7314 29.5676 17.6614 29.5384C17.5914 29.5093 17.5145 29.5012 17.4399 29.5152ZM17.4673 30.5649C17.2175 30.5649 17.1238 30.4752 17.1238 30.2293V30.0108C17.1238 29.7688 17.2214 29.6752 17.4673 29.6752C17.7131 29.6752 17.8146 29.7688 17.8146 30.0108V30.2293C17.8146 30.4557 17.717 30.5493 17.4673 30.5493V30.5649ZM17.4673 29.683C17.2253 29.683 17.1278 29.7727 17.1278 30.0108V30.2293C17.1278 30.4713 17.2214 30.5571 17.4673 30.5571C17.7131 30.5571 17.8068 30.4713 17.8068 30.2293V30.0108C17.8068 29.7532 17.717 29.6674 17.4673 29.6674V29.683Z" fill="#009EDB"/>
<path d="M18.2305 30.2141V29.9956C18.2305 29.6639 18.4022 29.4961 18.7534 29.4961C19.0149 29.4961 19.1671 29.5858 19.2334 29.7537C19.2685 29.7537 19.3036 29.6912 19.3036 29.5663C19.3036 29.5312 19.3036 29.5195 19.3583 29.5195H19.3973C19.4402 29.5195 19.448 29.5195 19.448 29.5663C19.448 29.7576 19.3739 29.8512 19.2607 29.8824C19.2649 29.92 19.2649 29.958 19.2607 29.9956V30.2141C19.2607 30.5498 19.089 30.7137 18.7456 30.7137C18.4022 30.7137 18.2305 30.5419 18.2305 30.2141ZM19.0929 29.9956C19.0929 29.7654 19.011 29.6639 18.7534 29.6639C18.4958 29.6639 18.4061 29.7654 18.4061 29.9956V30.2141C18.4061 30.4444 18.4958 30.5458 18.7534 30.5458C19.011 30.5458 19.0929 30.4444 19.0929 30.2141V29.9956Z" fill="#009EDB"/>
<path d="M18.7514 30.7169C18.3924 30.7169 18.2246 30.5569 18.2246 30.2135V29.995C18.2184 29.9243 18.227 29.8531 18.2499 29.7859C18.2727 29.7187 18.3093 29.657 18.3573 29.6047C18.4666 29.5148 18.6063 29.4701 18.7475 29.4798C19.0051 29.4798 19.1378 29.5618 19.2275 29.7374C19.2744 29.7179 19.2939 29.6554 19.2939 29.554C19.2939 29.515 19.2939 29.5032 19.3524 29.5032H19.3914C19.4344 29.5032 19.4461 29.5032 19.4461 29.554C19.4461 29.7257 19.3836 29.835 19.2587 29.874C19.2608 29.9104 19.2608 29.9469 19.2587 29.9832V30.2018C19.269 30.2711 19.2631 30.3419 19.2413 30.4085C19.2196 30.4752 19.1827 30.5359 19.1335 30.5858C19.0843 30.6357 19.0242 30.6736 18.9579 30.6963C18.8916 30.7191 18.8209 30.7261 18.7514 30.7169ZM18.7514 29.4993C18.6106 29.4873 18.4705 29.5307 18.3612 29.6203C18.3131 29.6724 18.2767 29.7341 18.2544 29.8015C18.2322 29.8688 18.2247 29.9401 18.2324 30.0106V30.2291C18.2324 30.5686 18.3963 30.7247 18.7514 30.7247C18.8923 30.7364 19.0321 30.693 19.1417 30.6037C19.1898 30.5517 19.2262 30.4899 19.2484 30.4226C19.2706 30.3553 19.2781 30.284 19.2705 30.2135V29.995C19.2727 29.9573 19.2727 29.9195 19.2705 29.8818C19.3953 29.8428 19.4578 29.7374 19.4578 29.5657C19.4578 29.5306 19.4578 29.5228 19.407 29.5228H19.368C19.329 29.5228 19.3173 29.5228 19.3173 29.5657C19.3173 29.6711 19.2939 29.7335 19.2431 29.7569C19.1573 29.5813 19.009 29.515 18.7514 29.515V29.4993ZM18.7514 30.5491C18.5017 30.5491 18.4041 30.4554 18.4041 30.2135V29.995C18.4041 29.753 18.4978 29.6593 18.7514 29.6593C19.0051 29.6593 19.0909 29.753 19.0909 29.995V30.2135C19.0909 30.4593 19.0012 30.5491 18.7514 30.5491ZM18.7514 29.6672C18.5017 29.6672 18.408 29.753 18.408 29.995V30.2135C18.408 30.4515 18.5056 30.5413 18.7514 30.5413C18.9973 30.5413 19.087 30.4554 19.087 30.2135V29.995C19.087 29.753 18.9973 29.6672 18.7514 29.6672Z" fill="#009EDB"/>
<path d="M19.699 30.6161C19.699 30.6785 19.699 30.6902 19.621 30.6902H19.5937C19.5351 30.6902 19.5195 30.6902 19.5195 30.6161V29.941C19.5195 29.6444 19.6873 29.4961 20.0151 29.4961C20.3429 29.4961 20.5107 29.6522 20.5107 29.941V30.6161C20.5107 30.6785 20.5107 30.6902 20.4327 30.6902H20.4054C20.339 30.6902 20.3273 30.6902 20.3273 30.6161V29.941C20.3273 29.7498 20.2571 29.6639 20.0151 29.6639C19.7732 29.6639 19.699 29.7537 19.699 29.941V30.6161Z" fill="#009EDB"/>
<path d="M20.4337 30.6852H20.4064C20.34 30.6852 20.3283 30.6852 20.3283 30.6072V29.9398C20.3283 29.7408 20.2425 29.6667 20.0161 29.6667C19.7898 29.6667 19.7 29.7408 19.7 29.9398V30.615C19.7 30.6774 19.7 30.693 19.622 30.693H19.5947C19.5361 30.693 19.5166 30.693 19.5166 30.615V29.9398C19.5166 29.6433 19.6844 29.4911 20.0161 29.4911C20.0857 29.4839 20.156 29.4906 20.2229 29.5107C20.2899 29.5308 20.3523 29.5639 20.4064 29.6081C20.4486 29.6517 20.481 29.7039 20.5012 29.7612C20.5214 29.8184 20.529 29.8794 20.5235 29.9398V30.615C20.5118 30.6852 20.5 30.6852 20.4337 30.6852ZM20.0161 29.6511C20.2464 29.6511 20.3322 29.7291 20.3322 29.932V30.6072C20.3322 30.6696 20.3322 30.6774 20.4064 30.6774H20.4337C20.4961 30.6774 20.5079 30.6774 20.5079 30.6072V29.9398C20.5126 29.8804 20.505 29.8205 20.4855 29.7641C20.466 29.7077 20.4351 29.6559 20.3947 29.612C20.3403 29.5685 20.2778 29.5361 20.2108 29.5166C20.1439 29.4972 20.0737 29.4912 20.0044 29.4989C19.8651 29.4831 19.7251 29.5223 19.6142 29.6081C19.5708 29.6512 19.5371 29.7031 19.5156 29.7604C19.494 29.8176 19.4851 29.8788 19.4893 29.9398V30.615C19.4893 30.6774 19.4893 30.6852 19.5635 30.6852H19.5908C19.6532 30.6852 19.6649 30.6852 19.6649 30.615V29.9398C19.6961 29.7369 19.7859 29.6589 20.0161 29.6589V29.6511Z" fill="#009EDB"/>
<path d="M22.3787 29.936C22.3787 30.2092 22.2187 30.3497 21.8909 30.3497C21.8066 30.3405 21.7215 30.3405 21.6372 30.3497C21.62 30.3525 21.6044 30.3617 21.5936 30.3754C21.5828 30.3891 21.5775 30.4064 21.5787 30.4238C21.5787 30.455 21.5787 30.4785 21.6411 30.4902C21.7242 30.4966 21.8077 30.4966 21.8909 30.4902C22.0252 30.4808 22.1596 30.5063 22.2811 30.5643C22.3206 30.5929 22.3519 30.6314 22.3718 30.6759C22.3917 30.7205 22.3994 30.7695 22.3943 30.818C22.3996 30.8708 22.3917 30.9242 22.3713 30.9733C22.3509 31.0223 22.3185 31.0655 22.2772 31.0989C22.1575 31.1626 22.0222 31.191 21.887 31.1809C21.7441 31.1933 21.6007 31.1649 21.4733 31.0989C21.4362 31.0693 21.4069 31.0311 21.3878 30.9876C21.3688 30.944 21.3606 30.8966 21.364 30.8492C21.361 30.7988 21.3717 30.7486 21.3951 30.7039C21.4185 30.6592 21.4536 30.6217 21.4967 30.5955C21.466 30.5832 21.44 30.5614 21.4225 30.5334C21.4049 30.5053 21.3968 30.4724 21.3992 30.4394C21.3992 30.3341 21.4616 30.2716 21.5904 30.2521C21.5246 30.224 21.4697 30.1753 21.4338 30.1135C21.398 30.0516 21.3831 29.9797 21.3914 29.9087V29.9048C21.3914 29.6472 21.5748 29.5145 21.887 29.5145C21.97 29.513 22.0524 29.529 22.1289 29.5614L22.2655 29.4404C22.3045 29.4053 22.324 29.4053 22.3631 29.4404C22.4021 29.4755 22.4021 29.495 22.3631 29.5341L22.2577 29.6433C22.292 29.6782 22.3187 29.7198 22.3361 29.7654C22.3536 29.8111 22.3614 29.8599 22.3592 29.9087L22.3787 29.936ZM21.6567 30.6619C21.621 30.6799 21.5913 30.708 21.5712 30.7426C21.5511 30.7773 21.5415 30.817 21.5436 30.857C21.5436 31.0131 21.6333 31.0521 21.8909 31.0521C22.1484 31.0521 22.2304 31.0131 22.2304 30.8531C22.2304 30.6931 22.1445 30.6775 21.8909 30.6775C21.8125 30.6782 21.7343 30.6729 21.6567 30.6619ZM22.1914 29.9048C22.1914 29.737 22.0899 29.655 21.8831 29.655C21.6762 29.655 21.567 29.737 21.567 29.9048V29.936C21.567 30.1038 21.6411 30.1897 21.8831 30.1897C22.125 30.1897 22.1914 30.1038 22.1914 29.936V29.9048Z" fill="#009EDB"/>
<path d="M21.8908 31.2092C21.7483 31.223 21.6048 31.1959 21.4771 31.1311C21.439 31.1013 21.4087 31.0626 21.389 31.0184C21.3693 30.9741 21.3607 30.9258 21.364 30.8775C21.3609 30.8271 21.3716 30.7769 21.395 30.7322C21.4184 30.6875 21.4535 30.65 21.4966 30.6238C21.4659 30.6115 21.4399 30.5897 21.4224 30.5617C21.4049 30.5336 21.3967 30.5007 21.3991 30.4677C21.3991 30.3636 21.4615 30.3012 21.5864 30.2804C21.5217 30.2511 21.468 30.2021 21.433 30.1404C21.3979 30.0787 21.3833 30.0075 21.3913 29.937V29.9057C21.3896 29.8484 21.4007 29.7914 21.4236 29.7387C21.4466 29.6861 21.4808 29.6392 21.524 29.6014C21.63 29.5237 21.7596 29.4851 21.8908 29.4921C21.9738 29.4906 22.0563 29.5065 22.1327 29.5389L22.2693 29.4218C22.3084 29.3828 22.3279 29.3828 22.3669 29.4218C22.3903 29.4414 22.3981 29.4531 22.3981 29.4687C22.3981 29.4843 22.3981 29.496 22.3669 29.5194L22.2654 29.6248C22.2997 29.6596 22.3264 29.7012 22.3438 29.7469C22.3613 29.7925 22.3692 29.8413 22.3669 29.8901V29.9214C22.3669 30.1945 22.1991 30.335 21.8752 30.335C21.7909 30.3253 21.7058 30.3253 21.6215 30.335C21.6057 30.3386 21.5916 30.3476 21.5817 30.3604C21.5717 30.3732 21.5665 30.389 21.5669 30.4053C21.5669 30.4365 21.5669 30.456 21.6254 30.4677C21.7085 30.4749 21.7921 30.4749 21.8752 30.4677C22.0095 30.4583 22.1439 30.4839 22.2654 30.5418C22.3063 30.5694 22.3388 30.6076 22.3594 30.6523C22.3801 30.697 22.3881 30.7466 22.3825 30.7955C22.3884 30.8494 22.3804 30.9039 22.3593 30.9538C22.3381 31.0037 22.3044 31.0473 22.2615 31.0804C22.1509 31.1542 22.0233 31.1985 21.8908 31.2092ZM21.8908 29.4999C21.5825 29.4999 21.3991 29.6521 21.3991 29.8901V29.9214C21.3911 29.9919 21.4057 30.0631 21.4408 30.1248C21.4758 30.1865 21.5296 30.2355 21.5942 30.2648C21.4654 30.2843 21.4069 30.3428 21.4069 30.4482C21.4053 30.4806 21.4134 30.5127 21.4301 30.5404C21.4467 30.5682 21.4713 30.5904 21.5005 30.6043C21.4577 30.6298 21.4228 30.6666 21.3994 30.7107C21.376 30.7547 21.3651 30.8043 21.3679 30.854C21.3646 30.9018 21.3732 30.9496 21.3929 30.9932C21.4127 31.0368 21.443 31.0748 21.481 31.1038C21.7416 31.208 22.0322 31.208 22.2927 31.1038C22.3336 31.0702 22.3654 31.0268 22.3852 30.9777C22.4049 30.9287 22.4121 30.8754 22.4059 30.8228C22.4116 30.7748 22.404 30.7262 22.3841 30.6822C22.3641 30.6382 22.3326 30.6004 22.2927 30.5731C22.1717 30.5137 22.0369 30.4881 21.9025 30.4989C21.8195 30.5082 21.7357 30.5082 21.6527 30.4989C21.6098 30.4989 21.5903 30.4638 21.5903 30.4326C21.5891 30.4152 21.5944 30.3979 21.6052 30.3842C21.6161 30.3705 21.6316 30.3613 21.6488 30.3584C21.7331 30.3485 21.8182 30.3485 21.9025 30.3584C22.0327 30.367 22.162 30.3313 22.2693 30.257C22.3109 30.2176 22.3432 30.1696 22.3641 30.1163C22.385 30.063 22.394 30.0058 22.3903 29.9487V29.9057C22.393 29.8571 22.385 29.8085 22.3668 29.7633C22.3486 29.7181 22.3206 29.6775 22.2849 29.6443L22.3942 29.535C22.4089 29.5234 22.4187 29.5067 22.4215 29.4882C22.4202 29.4795 22.4171 29.4712 22.4124 29.4638C22.4077 29.4564 22.4015 29.4501 22.3942 29.4453C22.3552 29.4062 22.3396 29.4101 22.2966 29.4453L22.1601 29.5662C22.0755 29.5285 21.9833 29.5112 21.8908 29.5155V29.4999ZM21.8908 31.0609C21.6215 31.0609 21.5435 31.014 21.5435 30.8618C21.5392 30.8215 21.5479 30.7809 21.5682 30.7458C21.5886 30.7107 21.6195 30.6831 21.6566 30.6667C21.7346 30.6717 21.8128 30.6717 21.8908 30.6667C22.1445 30.6667 22.2342 30.694 22.2342 30.8462C22.2342 30.9984 22.1171 31.0765 21.8908 31.0765V31.0609ZM21.6566 30.6706C21.6213 30.6878 21.5919 30.7152 21.5725 30.7493C21.553 30.7835 21.5442 30.8227 21.5474 30.8618C21.5474 31.0101 21.6254 31.057 21.8908 31.057C22.1562 31.057 22.2264 31.0101 22.2264 30.8579C22.2264 30.7057 22.1445 30.6823 21.8908 30.6823C21.8129 30.6886 21.7347 30.6899 21.6566 30.6862V30.6706ZM21.8908 30.1984C21.6645 30.1984 21.5708 30.1243 21.5708 29.9409V29.9057C21.5708 29.734 21.6762 29.6521 21.8908 29.6521C22.1054 29.6521 22.203 29.7379 22.203 29.9057V29.937C22.1913 30.1204 22.1132 30.1945 21.8908 30.1945V30.1984ZM21.8908 29.6599C21.6762 29.6599 21.5747 29.7418 21.5747 29.9097V29.9409C21.5747 30.1204 21.6645 30.1945 21.8908 30.1945C22.1171 30.1945 22.1991 30.1204 22.1991 29.9409V29.9057C22.1913 29.7418 22.0937 29.656 21.8908 29.656V29.6599Z" fill="#009EDB"/>
<path d="M22.8513 29.1522C22.8519 29.1674 22.8493 29.1826 22.8439 29.1967C22.8384 29.2109 22.8302 29.2239 22.8196 29.2348C22.809 29.2457 22.7964 29.2544 22.7824 29.2603C22.7684 29.2663 22.7534 29.2693 22.7382 29.2693C22.7225 29.2698 22.7068 29.2672 22.6922 29.2615C22.6775 29.2559 22.6641 29.2473 22.6528 29.2364C22.6416 29.2255 22.6326 29.2124 22.6265 29.198C22.6203 29.1835 22.6172 29.1679 22.6172 29.1522C22.6182 29.1208 22.6314 29.091 22.654 29.0692C22.6766 29.0473 22.7067 29.0351 22.7382 29.0352C22.7685 29.0362 22.7973 29.0489 22.8184 29.0708C22.8396 29.0926 22.8514 29.1218 22.8513 29.1522ZM22.6484 29.5932C22.6484 29.5347 22.6484 29.5191 22.7226 29.5191H22.7499C22.8084 29.5191 22.824 29.5191 22.824 29.5932V30.6156C22.824 30.6781 22.824 30.6898 22.7499 30.6898H22.7226C22.6562 30.6898 22.6484 30.6898 22.6484 30.6156V29.5932Z" fill="#009EDB"/>
<path d="M22.7538 30.6859H22.7264C22.6601 30.6859 22.6484 30.6859 22.6484 30.6078V29.5932C22.6484 29.5347 22.6484 29.5151 22.7264 29.5151H22.7538C22.8123 29.5151 22.8318 29.5151 22.8318 29.5932V30.6156C22.8318 30.6859 22.8123 30.6859 22.7538 30.6859ZM22.7264 29.5151C22.664 29.5151 22.6523 29.5151 22.6523 29.5854V30.6078C22.6523 30.6703 22.6523 30.6781 22.7264 30.6781H22.7538C22.8084 30.6781 22.824 30.6781 22.824 30.6078V29.5932C22.824 29.5386 22.824 29.523 22.7538 29.523L22.7264 29.5151ZM22.7264 29.2615C22.6954 29.2615 22.6656 29.2492 22.6437 29.2272C22.6217 29.2052 22.6094 29.1755 22.6094 29.1444C22.6094 29.1134 22.6217 29.0836 22.6437 29.0616C22.6656 29.0397 22.6954 29.0273 22.7264 29.0273C22.7575 29.0273 22.7873 29.0397 22.8092 29.0616C22.8312 29.0836 22.8435 29.1134 22.8435 29.1444C22.8435 29.1755 22.8312 29.2052 22.8092 29.2272C22.7873 29.2492 22.7575 29.2615 22.7264 29.2615ZM22.7264 29.0312C22.7116 29.0312 22.6969 29.0342 22.6831 29.0399C22.6694 29.0455 22.6569 29.0539 22.6464 29.0644C22.6359 29.0749 22.6276 29.0874 22.6219 29.1011C22.6162 29.1148 22.6133 29.1296 22.6133 29.1444C22.6133 29.1593 22.6162 29.174 22.6219 29.1877C22.6276 29.2015 22.6359 29.2139 22.6464 29.2244C22.6569 29.235 22.6694 29.2433 22.6831 29.249C22.6969 29.2547 22.7116 29.2576 22.7264 29.2576C22.7565 29.2576 22.7852 29.2457 22.8065 29.2244C22.8277 29.2032 22.8396 29.1744 22.8396 29.1444C22.8396 29.1144 22.8277 29.0856 22.8065 29.0644C22.7852 29.0432 22.7565 29.0312 22.7264 29.0312Z" fill="#009EDB"/>
<path d="M24.0225 30.339C24.0225 30.6044 23.8703 30.7292 23.5269 30.7292C23.2537 30.7292 23.082 30.62 23.082 30.3741C23.082 30.1283 23.242 30.0268 23.5659 30.0268H23.8469V29.8668C23.8469 29.7068 23.7337 29.6522 23.5347 29.6522C23.4468 29.6516 23.3591 29.6608 23.2732 29.6795C23.2147 29.6795 23.1952 29.6795 23.1952 29.6209V29.6014C23.1952 29.5468 23.1952 29.5312 23.2693 29.5195C23.3542 29.5032 23.4405 29.4954 23.5269 29.4961C23.8586 29.4961 24.0225 29.6209 24.0225 29.8668V30.339ZM23.8469 30.1517H23.5659C23.3552 30.1517 23.2576 30.2102 23.2576 30.3585C23.2576 30.5068 23.3474 30.5614 23.5269 30.5614C23.7064 30.5614 23.8469 30.5107 23.8469 30.3312V30.1517ZM23.5659 29.3712C23.523 29.3712 23.5191 29.3712 23.5113 29.3244C23.5035 29.2775 23.5464 29.2307 23.6167 29.1565C23.6333 29.1427 23.6444 29.1233 23.6479 29.1019C23.6479 29.059 23.6479 29.0395 23.605 29.0395C23.5703 29.0312 23.5342 29.0312 23.4996 29.0395C23.4723 29.0395 23.4528 29.0395 23.4372 29.0161V28.9965C23.4372 28.9614 23.4372 28.9458 23.4723 28.9341C23.5166 28.9149 23.5645 28.9056 23.6128 28.9068C23.636 28.9049 23.6593 28.9081 23.6811 28.9164C23.7029 28.9246 23.7225 28.9377 23.7386 28.9545C23.7547 28.9713 23.7668 28.9916 23.7741 29.0137C23.7813 29.0358 23.7836 29.0593 23.7806 29.0824C23.7806 29.1839 23.6401 29.2268 23.6362 29.3048C23.6346 29.3167 23.6291 29.3277 23.6207 29.3362C23.6122 29.3446 23.6012 29.3501 23.5893 29.3517L23.5659 29.3712Z" fill="#009EDB"/>
<path d="M23.5308 30.7171C23.2381 30.7171 23.082 30.5922 23.082 30.3581C23.082 30.124 23.2303 30.0069 23.5698 30.0069H23.8469V29.8664C23.8469 29.7181 23.7533 29.6557 23.5386 29.6557C23.4509 29.6544 23.3633 29.6623 23.2772 29.6791C23.2459 29.6791 23.2264 29.6791 23.2147 29.6791C23.203 29.6791 23.2147 29.6518 23.2147 29.6244V29.6049C23.2147 29.5503 23.2147 29.5347 23.2889 29.5191C23.3737 29.5025 23.46 29.4946 23.5464 29.4957C23.8781 29.4957 24.0459 29.6244 24.0459 29.8859V30.3581C24.0303 30.6001 23.8742 30.7171 23.5308 30.7171ZM23.5698 30.0147C23.2342 30.0147 23.0859 30.1201 23.0859 30.3581C23.0859 30.5961 23.2381 30.7093 23.5308 30.7093C23.6668 30.7236 23.8037 30.6935 23.9211 30.6235C23.9634 30.5898 23.9966 30.5462 24.0178 30.4964C24.0389 30.4467 24.0472 30.3924 24.042 30.3386V29.8664C24.0451 29.8136 24.0354 29.7608 24.0136 29.7125C23.9919 29.6643 23.9588 29.622 23.9172 29.5893C23.8056 29.5224 23.6763 29.4911 23.5464 29.4996C23.46 29.4985 23.3737 29.5064 23.2889 29.523C23.2303 29.523 23.2186 29.5464 23.2186 29.601V29.6205C23.2186 29.6479 23.2186 29.6635 23.2186 29.6713C23.2186 29.6791 23.2459 29.6713 23.2772 29.6713C23.3631 29.6528 23.4507 29.6436 23.5386 29.644C23.7572 29.644 23.8508 29.7103 23.8508 29.8625V30.0108L23.5698 30.0147ZM23.5308 30.561C23.3474 30.561 23.2615 30.4947 23.2615 30.3581C23.2615 30.2215 23.3552 30.1474 23.5698 30.1474H23.8508V30.3308C23.8508 30.522 23.7298 30.561 23.5308 30.561ZM23.5698 30.1708C23.3552 30.1708 23.2654 30.2293 23.2654 30.3737C23.2654 30.5181 23.3513 30.5727 23.5308 30.5727C23.7103 30.5727 23.8469 30.5103 23.8469 30.3464V30.1708H23.5698ZM23.5698 29.3903C23.523 29.3903 23.5191 29.3903 23.5113 29.3435C23.5035 29.2966 23.5347 29.2576 23.5854 29.203L23.6206 29.1679C23.6283 29.1617 23.6347 29.154 23.6394 29.1453C23.644 29.1365 23.6469 29.127 23.6479 29.1171C23.6479 29.0742 23.6479 29.0586 23.6089 29.0547C23.5776 29.0556 23.5469 29.0636 23.5191 29.0781C23.4879 29.0781 23.4684 29.0781 23.4489 29.0508V29.0313C23.4489 28.9922 23.4489 28.9805 23.484 28.9688C23.5283 28.9496 23.5762 28.9403 23.6245 28.9415C23.6699 28.9402 23.7143 28.9554 23.7493 28.9844C23.7652 29.0025 23.7772 29.0235 23.7845 29.0463C23.7919 29.0692 23.7946 29.0932 23.7923 29.1171C23.7887 29.1433 23.78 29.1685 23.7666 29.1913C23.7532 29.2141 23.7354 29.234 23.7142 29.2498C23.6818 29.2705 23.6582 29.3025 23.6479 29.3396C23.647 29.3517 23.6418 29.3631 23.6332 29.3717C23.6246 29.3803 23.6132 29.3855 23.6011 29.3864L23.5698 29.3903ZM23.5972 29.0508C23.6206 29.0508 23.644 29.0508 23.644 29.1171C23.6405 29.1385 23.6294 29.1579 23.6128 29.1718L23.5776 29.2069C23.5269 29.2576 23.4996 29.2849 23.5035 29.3396C23.5074 29.3942 23.5035 29.3825 23.5581 29.3825C23.569 29.3809 23.579 29.3759 23.5867 29.3682C23.5945 29.3604 23.5995 29.3504 23.6011 29.3396C23.6112 29.3014 23.6347 29.2681 23.6674 29.2459C23.6893 29.2328 23.7083 29.2153 23.7231 29.1945C23.7379 29.1737 23.7482 29.15 23.7533 29.1249C23.7552 29.1017 23.7524 29.0783 23.7451 29.0561C23.7377 29.034 23.7259 29.0136 23.7103 28.9961C23.6773 28.9664 23.6338 28.9509 23.5893 28.9532C23.5411 28.952 23.4931 28.9613 23.4489 28.9805C23.4215 28.9805 23.4059 29.004 23.4176 29.0391C23.4176 29.0742 23.4528 29.0742 23.4801 29.0664C23.5168 29.0499 23.5574 29.0445 23.5972 29.0508Z" fill="#009EDB"/>
<path d="M24.4569 30.6161C24.4569 30.6785 24.4569 30.6902 24.3788 30.6902H24.3515C24.293 30.6902 24.2773 30.6902 24.2773 30.6161V29.941C24.2773 29.6444 24.4452 29.4961 24.773 29.4961C25.1008 29.4961 25.2686 29.6522 25.2686 29.941V30.6161C25.2686 30.6785 25.2686 30.6902 25.1905 30.6902H25.1632C25.0969 30.6902 25.0851 30.6902 25.0851 30.6161V29.941C25.0851 29.7498 25.0149 29.6639 24.773 29.6639C24.531 29.6639 24.4569 29.7537 24.4569 29.941V30.6161Z" fill="#009EDB"/>
<path d="M25.1876 30.6852H25.1603C25.094 30.6852 25.0822 30.6852 25.0822 30.6072V29.9398C25.0822 29.7408 24.9964 29.6667 24.7701 29.6667C24.5437 29.6667 24.454 29.7408 24.454 29.9398V30.615C24.454 30.6774 24.454 30.693 24.3759 30.693H24.3486C24.2901 30.693 24.2705 30.693 24.2705 30.615V29.9398C24.2705 29.6433 24.4383 29.4911 24.7701 29.4911C24.8396 29.4839 24.9099 29.4906 24.9769 29.5107C25.0438 29.5308 25.1062 29.5639 25.1603 29.6081C25.2025 29.6517 25.2349 29.7039 25.2551 29.7612C25.2753 29.8184 25.2829 29.8794 25.2774 29.9398V30.615C25.2657 30.6852 25.254 30.6852 25.1876 30.6852ZM24.7701 29.6511C25.0003 29.6511 25.0861 29.7291 25.0861 29.932V30.6072C25.0861 30.6696 25.0861 30.6774 25.1603 30.6774H25.1876C25.2501 30.6774 25.2618 30.6774 25.2618 30.6072V29.9398C25.2665 29.8804 25.2589 29.8205 25.2394 29.7641C25.2199 29.7077 25.189 29.6559 25.1486 29.612C25.0942 29.5685 25.0317 29.5361 24.9647 29.5166C24.8978 29.4972 24.8276 29.4912 24.7583 29.4989C24.619 29.4831 24.479 29.5223 24.3681 29.6081C24.3247 29.6512 24.291 29.7031 24.2695 29.7604C24.2479 29.8176 24.239 29.8788 24.2432 29.9398V30.615C24.2432 30.6774 24.2627 30.6852 24.3174 30.6852H24.3447C24.4071 30.6852 24.4188 30.6852 24.4188 30.615V29.9398C24.4501 29.7369 24.5281 29.6589 24.7701 29.6589V29.6511Z" fill="#009EDB"/>
<path d="M26.2031 29.1249C26.2031 29.0586 26.2031 29.0469 26.2812 29.0469H26.3085C26.3709 29.0469 26.3826 29.0469 26.3826 29.1249V29.6752C26.4276 29.6163 26.4875 29.5704 26.5561 29.5423C26.6247 29.5142 26.6995 29.5048 26.7729 29.5152C27.0617 29.5152 27.21 29.6518 27.21 29.9327V30.6352C27.21 30.6976 27.21 30.7093 27.1358 30.7093H27.1046C27.0421 30.7093 27.0304 30.7093 27.0304 30.6352V29.9327C27.0304 29.7454 26.9446 29.6635 26.7261 29.6635C26.5075 29.6635 26.3982 29.7532 26.3982 29.9718V30.6157C26.3982 30.6781 26.3982 30.6898 26.3241 30.6898H26.2968C26.2343 30.6898 26.2187 30.6898 26.2187 30.6157L26.2031 29.1249Z" fill="#009EDB"/>
<path d="M27.1202 30.6859H27.089C27.0265 30.6859 27.0109 30.6859 27.0109 30.6078V29.9327C27.0109 29.7415 26.9251 29.6674 26.7104 29.6674C26.4958 29.6674 26.3865 29.7571 26.3865 29.9717V30.6157C26.3865 30.6781 26.3865 30.6937 26.3085 30.6937H26.2812C26.2226 30.6937 26.2031 30.6937 26.2031 30.6157V29.1249C26.2031 29.0547 26.2031 29.043 26.2812 29.043H26.3085C26.3709 29.043 26.3865 29.043 26.3865 29.1249V29.6674C26.4322 29.6095 26.4923 29.5646 26.5608 29.5372C26.6293 29.5098 26.7038 29.5009 26.7768 29.5113C27.0695 29.5113 27.2178 29.6517 27.2178 29.9327V30.6352C27.1982 30.6859 27.1826 30.6859 27.1202 30.6859ZM26.73 29.6517C26.9485 29.6517 27.0382 29.7337 27.0382 29.9249V30.6078C27.0382 30.6703 27.0382 30.6781 27.1085 30.6781H27.1397C27.2022 30.6781 27.21 30.6781 27.21 30.6078V29.9054C27.21 29.6283 27.0656 29.4917 26.7768 29.4917C26.7034 29.4814 26.6286 29.4907 26.56 29.5189C26.4914 29.547 26.4315 29.5928 26.3865 29.6517V29.1249C26.3865 29.0625 26.3865 29.0508 26.3163 29.0508H26.289C26.2304 29.0508 26.2148 29.0508 26.2148 29.1249V30.6352C26.2148 30.6976 26.2148 30.7054 26.289 30.7054H26.3163C26.3748 30.7054 26.3865 30.7054 26.3865 30.6352V29.9717C26.3787 29.7532 26.4841 29.6596 26.7104 29.6596L26.73 29.6517Z" fill="#009EDB"/>
<path d="M27.4453 30.2132V29.9947C27.4453 29.6629 27.617 29.4951 27.9682 29.4951C28.0653 29.4808 28.1644 29.4981 28.2509 29.5445C28.3373 29.5909 28.4065 29.6639 28.4482 29.7527C28.4834 29.7527 28.5185 29.6903 28.5185 29.5654C28.5185 29.5303 28.5185 29.5186 28.5731 29.5186H28.6121C28.6551 29.5186 28.6629 29.5186 28.6629 29.5654C28.6629 29.7566 28.5848 29.8503 28.4756 29.8815C28.4797 29.9191 28.4797 29.957 28.4756 29.9947V30.2132C28.4756 30.5488 28.3038 30.7127 27.9604 30.7127C27.617 30.7127 27.4453 30.541 27.4453 30.2132ZM28.3077 29.9947C28.3077 29.7644 28.2258 29.6629 27.9682 29.6629C27.7107 29.6629 27.6209 29.7644 27.6209 29.9947V30.2132C27.6209 30.4434 27.7068 30.5449 27.9682 30.5449C28.2297 30.5449 28.3077 30.4434 28.3077 30.2132V29.9947Z" fill="#009EDB"/>
<path d="M27.9702 30.7169C27.6112 30.7169 27.4433 30.5569 27.4433 30.2135V29.995C27.4372 29.9243 27.4458 29.8531 27.4686 29.7859C27.4915 29.7187 27.528 29.657 27.576 29.6047C27.6854 29.5148 27.825 29.4701 27.9663 29.4798C28.2238 29.4798 28.376 29.5618 28.4463 29.7374C28.4931 29.7179 28.5126 29.6554 28.5126 29.554C28.5126 29.515 28.5126 29.5032 28.5712 29.5032H28.6102C28.6531 29.5032 28.6648 29.5032 28.6648 29.554C28.6648 29.7257 28.6024 29.835 28.4775 29.874C28.4796 29.9104 28.4796 29.9469 28.4775 29.9832V30.2018C28.4878 30.2711 28.4818 30.3419 28.4601 30.4085C28.4383 30.4752 28.4014 30.5359 28.3522 30.5858C28.303 30.6357 28.2429 30.6736 28.1766 30.6963C28.1103 30.7191 28.0397 30.7261 27.9702 30.7169ZM27.9702 29.4993C27.8293 29.4873 27.6893 29.5307 27.5799 29.6203C27.5318 29.6724 27.4954 29.7341 27.4732 29.8015C27.451 29.8688 27.4435 29.9401 27.4512 30.0106V30.2291C27.4512 30.5686 27.6151 30.7247 27.9702 30.7247C28.111 30.7364 28.2509 30.693 28.3604 30.6037C28.4085 30.5517 28.4449 30.4899 28.4672 30.4226C28.4894 30.3553 28.4969 30.284 28.4892 30.2135V29.995C28.4913 29.9573 28.4913 29.9195 28.4892 29.8818C28.6141 29.8428 28.6726 29.7374 28.6726 29.5657C28.6726 29.5306 28.6726 29.5228 28.6258 29.5228H28.5868C28.5477 29.5228 28.536 29.5228 28.536 29.5657C28.536 29.6711 28.5126 29.7335 28.4619 29.7569C28.376 29.5813 28.2277 29.515 27.9702 29.515V29.4993ZM27.9702 30.5491C27.7204 30.5491 27.6229 30.4554 27.6229 30.2135V29.995C27.6229 29.753 27.7165 29.6593 27.9702 29.6593C28.2238 29.6593 28.3097 29.753 28.3097 29.995V30.2135C28.3097 30.4593 28.2199 30.5491 27.9702 30.5491ZM27.9702 29.6672C27.7204 29.6672 27.6268 29.753 27.6268 29.995V30.2135C27.6268 30.4515 27.7243 30.5413 27.9702 30.5413C28.216 30.5413 28.3058 30.4554 28.3058 30.2135V29.995C28.3058 29.753 28.216 29.6672 27.9702 29.6672Z" fill="#009EDB"/>
<path d="M28.9178 30.6161C28.9178 30.6785 28.9178 30.6902 28.8398 30.6902H28.8241C28.7656 30.6902 28.75 30.6902 28.75 30.6161V29.941C28.75 29.6444 28.9139 29.4961 29.2456 29.4961C29.5773 29.4961 29.7412 29.6522 29.7412 29.941V30.6161C29.7412 30.6785 29.7412 30.6902 29.6632 30.6902H29.6359C29.5695 30.6902 29.5578 30.6902 29.5578 30.6161V29.941C29.5578 29.7498 29.4876 29.6639 29.2456 29.6639C29.0037 29.6639 28.9295 29.7537 28.9295 29.941L28.9178 30.6161Z" fill="#009EDB"/>
<path d="M29.6525 30.6852H29.6251C29.5588 30.6852 29.5471 30.6852 29.5471 30.6072V29.9398C29.5471 29.7408 29.4612 29.6667 29.2349 29.6667C29.0086 29.6667 28.9188 29.7408 28.9188 29.9398V30.615C28.9188 30.6774 28.9188 30.693 28.8407 30.693H28.8251C28.7666 30.693 28.7471 30.693 28.7471 30.615V29.9398C28.7471 29.6433 28.9149 29.4911 29.2466 29.4911C29.3162 29.4839 29.3864 29.4906 29.4534 29.5107C29.5204 29.5308 29.5827 29.5639 29.6368 29.6081C29.6791 29.6517 29.7114 29.7039 29.7316 29.7612C29.7518 29.8184 29.7594 29.8794 29.7539 29.9398V30.615C29.7305 30.6852 29.7188 30.6852 29.6525 30.6852ZM29.2349 29.6511C29.4651 29.6511 29.551 29.7291 29.551 29.932V30.6072C29.551 30.6696 29.551 30.6774 29.6251 30.6774H29.6525C29.7149 30.6774 29.7266 30.6774 29.7266 30.6072V29.9398C29.7313 29.8804 29.7237 29.8205 29.7043 29.7641C29.6848 29.7077 29.6539 29.6559 29.6134 29.612C29.559 29.5685 29.4965 29.5361 29.4296 29.5166C29.3626 29.4972 29.2925 29.4912 29.2232 29.4989C29.0838 29.4831 28.9438 29.5223 28.8329 29.6081C28.7895 29.6512 28.7559 29.7031 28.7343 29.7604C28.7128 29.8176 28.7038 29.8788 28.7081 29.9398V30.615C28.7081 30.6774 28.7276 30.6852 28.7822 30.6852H28.8251C28.8876 30.6852 28.8993 30.6852 28.8993 30.615V29.9398C28.9149 29.7369 29.0047 29.6589 29.2349 29.6589V29.6511Z" fill="#009EDB"/>
</svg>
