<svg width="24" height="25" viewBox="0 0 24 25" fill="none" xmlns="http://www.w3.org/2000/svg">
<g clip-path="url(#clip0_1296_86806)">
<path fill-rule="evenodd" clip-rule="evenodd" d="M10.9338 0.580078H13.054C15.9658 0.580078 17.6674 1.00776 19.1779 1.81761C20.6884 2.62746 21.8804 3.8104 22.6812 5.32093C23.491 6.83145 23.9187 8.53305 23.9187 11.4449V13.556C23.9187 16.4678 23.491 18.1694 22.6812 19.6799C21.8713 21.1904 20.6884 22.3825 19.1779 23.1832C17.6674 23.9931 15.9658 24.4208 13.054 24.4208H10.9429C8.03104 24.4208 6.32944 23.9931 4.81893 23.1832C3.30844 22.3734 2.1164 21.1904 1.31565 19.6799C0.505797 18.1694 0.078125 16.4678 0.078125 13.556V11.4449C0.078125 8.53305 0.505797 6.83145 1.31565 5.32093C2.1255 3.8104 3.30844 2.61837 4.81893 1.81761C6.32037 1.00776 8.03104 0.580078 10.9338 0.580078Z" fill="#0068FF"/>
<path opacity="0.12" fill-rule="evenodd" clip-rule="evenodd" d="M23.9201 13.207V13.5554C23.9201 16.4672 23.4925 18.1688 22.6826 19.6794C21.8728 21.1899 20.6898 22.3819 19.1793 23.1827C17.6688 23.9925 15.9672 24.4202 13.0554 24.4202H10.9443C8.56171 24.4202 6.98938 24.1338 5.66899 23.5861L3.49219 21.3445L23.9201 13.207Z" fill="#001A33"/>
<path fill-rule="evenodd" clip-rule="evenodd" d="M3.73431 21.4228C4.8493 21.5461 6.24332 21.2281 7.23313 20.7476C11.5312 23.1233 18.2498 23.0098 22.3167 20.4071C22.4744 20.1705 22.6218 19.9245 22.7585 19.6694C23.5714 18.1534 24.0006 16.4456 24.0006 13.5232V11.4044C24.0006 8.48192 23.5714 6.77413 22.7585 5.25811C21.9549 3.74209 20.7585 2.55485 19.2425 1.74204C17.7265 0.929235 16.0187 0.5 13.0962 0.5H10.9683C8.4793 0.5 6.86353 0.813322 5.50594 1.41149C5.43173 1.47794 5.35892 1.54553 5.28764 1.61425C1.30471 5.45374 1.00195 13.7765 4.37933 18.2975C4.3831 18.3042 4.38727 18.3109 4.39186 18.3177C4.91242 19.0849 4.41012 20.4274 3.62472 21.2128C3.49686 21.3315 3.54252 21.4046 3.73431 21.4228Z" fill="white"/>
<path d="M9.87352 8.66016H5.20552V9.6611H8.44489L5.25097 13.6194C5.15089 13.765 5.07812 13.9015 5.07812 14.2108V14.4656H9.48222C9.70062 14.4656 9.88264 14.2836 9.88264 14.0652V13.5284H6.47944L9.48222 9.76118C9.52772 9.7066 9.60961 9.60652 9.64605 9.56102L9.66424 9.53371C9.83713 9.27892 9.87352 9.06052 9.87352 8.79667V8.66016Z" fill="#0068FF"/>
<path d="M15.8132 14.4656H16.4775V8.66016H15.4766V14.1289C15.4766 14.311 15.6221 14.4656 15.8132 14.4656Z" fill="#0068FF"/>
<path d="M12.3921 9.95312C11.1363 9.95312 10.1172 10.9723 10.1172 12.228C10.1172 13.4837 11.1363 14.5029 12.3921 14.5029C13.6478 14.5029 14.6669 13.4837 14.6669 12.228C14.676 10.9723 13.6569 9.95312 12.3921 9.95312ZM12.3921 13.5656C11.655 13.5656 11.0544 12.965 11.0544 12.228C11.0544 11.4909 11.655 10.8904 12.3921 10.8904C13.1291 10.8904 13.7297 11.4909 13.7297 12.228C13.7297 12.965 13.1382 13.5656 12.3921 13.5656Z" fill="#0068FF"/>
<path d="M19.4337 9.91602C18.1688 9.91602 17.1406 10.9443 17.1406 12.2091C17.1406 13.4739 18.1688 14.5022 19.4337 14.5022C20.6985 14.5022 21.7267 13.4739 21.7267 12.2091C21.7267 10.9443 20.6985 9.91602 19.4337 9.91602ZM19.4337 13.5649C18.6875 13.5649 18.0869 12.9644 18.0869 12.2182C18.0869 11.472 18.6875 10.8715 19.4337 10.8715C20.1798 10.8715 20.7804 11.472 20.7804 12.2182C20.7804 12.9644 20.1798 13.5649 19.4337 13.5649Z" fill="#0068FF"/>
<path d="M14.1426 14.466H14.6794V10.0801H13.7422V14.0748C13.7422 14.2841 13.9242 14.466 14.1426 14.466Z" fill="#0068FF"/>
</g>
<defs>
<clipPath id="clip0_1296_86806">
<rect width="24" height="24" fill="white" transform="translate(0 0.5)"/>
</clipPath>
</defs>
</svg>
