<svg width="127" height="36" viewBox="0 0 127 36" fill="none" xmlns="http://www.w3.org/2000/svg">
<g opacity="0.3">
<mask id="path-1-inside-1_919_69519" fill="white">
<path d="M65.7538 9.53822C65.3021 9.53822 64.8594 8.91919 65.0698 8.52315L69.629 0.0832729H54.1825L49.0772 9.53822H62.8964C63.0571 9.53815 63.2151 9.57851 63.3554 9.65548C63.4958 9.73244 63.6138 9.84344 63.6981 9.97791C63.7825 10.1124 63.8305 10.2658 63.8375 10.4237C63.8445 10.5816 63.8103 10.7386 63.7382 10.8798L54.8266 27.4152L32.925 -5.93399H17.3859L0 26.3234H13.732C13.9107 26.3236 14.0863 26.3687 14.2421 26.4546C14.398 26.5405 14.5288 26.6643 14.6222 26.814C14.7155 26.9638 14.7683 27.1346 14.7754 27.3101C14.7825 27.4856 14.7437 27.66 14.6628 27.8166L7.65976 40.7895H23.197L31.4518 25.5028H17.5982C17.4208 25.5026 17.2465 25.4573 17.0922 25.3712C16.9379 25.2852 16.8088 25.1614 16.7175 25.0119C16.6263 24.8623 16.5759 24.6921 16.5712 24.5177C16.5666 24.3434 16.6079 24.1708 16.6911 24.0168L25.9964 6.85337L48.3116 41H63.4352L80.0519 9.53822H65.7538Z"/>
<path d="M125.323 -1.82912C123.305 -4.56927 119.555 -5.97146 114.182 -6H94.0434L88.0074 5.13186H107.821C109.635 5.13186 111.204 6.50729 111.291 8.29303C111.314 8.74234 111.243 9.1914 111.083 9.61298C110.924 10.0346 110.679 10.4199 110.363 10.7457C110.048 11.0714 109.668 11.3308 109.248 11.5081C108.827 11.6854 108.374 11.7769 107.917 11.7771H84.4206L78.3756 22.9892H106.678C107.121 22.989 107.56 23.0746 107.969 23.2411C108.378 23.4077 108.75 23.652 109.064 23.9599C109.377 24.2679 109.626 24.6336 109.795 25.0361C109.965 25.4385 110.052 25.8699 110.052 26.3056C110.054 26.7429 109.967 27.1761 109.797 27.5803C109.627 27.9846 109.378 28.3518 109.063 28.6608C108.749 28.9699 108.375 29.2147 107.964 29.3812C107.552 29.5477 107.112 29.6325 106.667 29.6309H74.7852L68.7818 40.7503H76.5359C84.8234 40.7503 89.9614 40.7378 102.973 40.6664C112.589 40.6129 119.358 35.1665 121.538 25.7258C122.023 23.61 122.796 20.2455 120.423 17.5339C123.144 15.7945 124.688 13.6181 125.865 9.9967C127.542 4.90351 127.36 0.927087 125.323 -1.82912Z"/>
</mask>
<path d="M65.7538 9.53822C65.3021 9.53822 64.8594 8.91919 65.0698 8.52315L69.629 0.0832729H54.1825L49.0772 9.53822H62.8964C63.0571 9.53815 63.2151 9.57851 63.3554 9.65548C63.4958 9.73244 63.6138 9.84344 63.6981 9.97791C63.7825 10.1124 63.8305 10.2658 63.8375 10.4237C63.8445 10.5816 63.8103 10.7386 63.7382 10.8798L54.8266 27.4152L32.925 -5.93399H17.3859L0 26.3234H13.732C13.9107 26.3236 14.0863 26.3687 14.2421 26.4546C14.398 26.5405 14.5288 26.6643 14.6222 26.814C14.7155 26.9638 14.7683 27.1346 14.7754 27.3101C14.7825 27.4856 14.7437 27.66 14.6628 27.8166L7.65976 40.7895H23.197L31.4518 25.5028H17.5982C17.4208 25.5026 17.2465 25.4573 17.0922 25.3712C16.9379 25.2852 16.8088 25.1614 16.7175 25.0119C16.6263 24.8623 16.5759 24.6921 16.5712 24.5177C16.5666 24.3434 16.6079 24.1708 16.6911 24.0168L25.9964 6.85337L48.3116 41H63.4352L80.0519 9.53822H65.7538Z" fill="url(#paint0_linear_919_69519)" fill-opacity="0.4" style=""/>
<path d="M125.323 -1.82912C123.305 -4.56927 119.555 -5.97146 114.182 -6H94.0434L88.0074 5.13186H107.821C109.635 5.13186 111.204 6.50729 111.291 8.29303C111.314 8.74234 111.243 9.1914 111.083 9.61298C110.924 10.0346 110.679 10.4199 110.363 10.7457C110.048 11.0714 109.668 11.3308 109.248 11.5081C108.827 11.6854 108.374 11.7769 107.917 11.7771H84.4206L78.3756 22.9892H106.678C107.121 22.989 107.56 23.0746 107.969 23.2411C108.378 23.4077 108.75 23.652 109.064 23.9599C109.377 24.2679 109.626 24.6336 109.795 25.0361C109.965 25.4385 110.052 25.8699 110.052 26.3056C110.054 26.7429 109.967 27.1761 109.797 27.5803C109.627 27.9846 109.378 28.3518 109.063 28.6608C108.749 28.9699 108.375 29.2147 107.964 29.3812C107.552 29.5477 107.112 29.6325 106.667 29.6309H74.7852L68.7818 40.7503H76.5359C84.8234 40.7503 89.9614 40.7378 102.973 40.6664C112.589 40.6129 119.358 35.1665 121.538 25.7258C122.023 23.61 122.796 20.2455 120.423 17.5339C123.144 15.7945 124.688 13.6181 125.865 9.9967C127.542 4.90351 127.36 0.927087 125.323 -1.82912Z" fill="url(#paint1_linear_919_69519)" fill-opacity="0.4" style=""/>
<path d="M65.7538 9.53822C65.3021 9.53822 64.8594 8.91919 65.0698 8.52315L69.629 0.0832729H54.1825L49.0772 9.53822H62.8964C63.0571 9.53815 63.2151 9.57851 63.3554 9.65548C63.4958 9.73244 63.6138 9.84344 63.6981 9.97791C63.7825 10.1124 63.8305 10.2658 63.8375 10.4237C63.8445 10.5816 63.8103 10.7386 63.7382 10.8798L54.8266 27.4152L32.925 -5.93399H17.3859L0 26.3234H13.732C13.9107 26.3236 14.0863 26.3687 14.2421 26.4546C14.398 26.5405 14.5288 26.6643 14.6222 26.814C14.7155 26.9638 14.7683 27.1346 14.7754 27.3101C14.7825 27.4856 14.7437 27.66 14.6628 27.8166L7.65976 40.7895H23.197L31.4518 25.5028H17.5982C17.4208 25.5026 17.2465 25.4573 17.0922 25.3712C16.9379 25.2852 16.8088 25.1614 16.7175 25.0119C16.6263 24.8623 16.5759 24.6921 16.5712 24.5177C16.5666 24.3434 16.6079 24.1708 16.6911 24.0168L25.9964 6.85337L48.3116 41H63.4352L80.0519 9.53822H65.7538Z" stroke="url(#paint2_linear_919_69519)" stroke-opacity="0.6" style="" stroke-width="2" mask="url(#path-1-inside-1_919_69519)"/>
<path d="M125.323 -1.82912C123.305 -4.56927 119.555 -5.97146 114.182 -6H94.0434L88.0074 5.13186H107.821C109.635 5.13186 111.204 6.50729 111.291 8.29303C111.314 8.74234 111.243 9.1914 111.083 9.61298C110.924 10.0346 110.679 10.4199 110.363 10.7457C110.048 11.0714 109.668 11.3308 109.248 11.5081C108.827 11.6854 108.374 11.7769 107.917 11.7771H84.4206L78.3756 22.9892H106.678C107.121 22.989 107.56 23.0746 107.969 23.2411C108.378 23.4077 108.75 23.652 109.064 23.9599C109.377 24.2679 109.626 24.6336 109.795 25.0361C109.965 25.4385 110.052 25.8699 110.052 26.3056C110.054 26.7429 109.967 27.1761 109.797 27.5803C109.627 27.9846 109.378 28.3518 109.063 28.6608C108.749 28.9699 108.375 29.2147 107.964 29.3812C107.552 29.5477 107.112 29.6325 106.667 29.6309H74.7852L68.7818 40.7503H76.5359C84.8234 40.7503 89.9614 40.7378 102.973 40.6664C112.589 40.6129 119.358 35.1665 121.538 25.7258C122.023 23.61 122.796 20.2455 120.423 17.5339C123.144 15.7945 124.688 13.6181 125.865 9.9967C127.542 4.90351 127.36 0.927087 125.323 -1.82912Z" stroke="url(#paint3_linear_919_69519)" stroke-opacity="0.6" style="" stroke-width="2" mask="url(#path-1-inside-1_919_69519)"/>
</g>
<defs>
<linearGradient id="paint0_linear_919_69519" x1="124.276" y1="-4.30524" x2="18.5203" y2="28.8749" gradientUnits="userSpaceOnUse">
<stop stop-color="white" style="stop-color:white;stop-opacity:1;"/>
<stop offset="1" stop-color="white" stop-opacity="0" style="stop-color:none;stop-opacity:0;"/>
</linearGradient>
<linearGradient id="paint1_linear_919_69519" x1="124.276" y1="-4.30524" x2="18.5203" y2="28.8749" gradientUnits="userSpaceOnUse">
<stop stop-color="white" style="stop-color:white;stop-opacity:1;"/>
<stop offset="1" stop-color="white" stop-opacity="0" style="stop-color:none;stop-opacity:0;"/>
</linearGradient>
<linearGradient id="paint2_linear_919_69519" x1="124.276" y1="-4.30524" x2="3.24056" y2="42.2673" gradientUnits="userSpaceOnUse">
<stop stop-color="white" style="stop-color:white;stop-opacity:1;"/>
<stop offset="1" stop-color="white" stop-opacity="0" style="stop-color:none;stop-opacity:0;"/>
</linearGradient>
<linearGradient id="paint3_linear_919_69519" x1="124.276" y1="-4.30524" x2="3.24056" y2="42.2673" gradientUnits="userSpaceOnUse">
<stop stop-color="white" style="stop-color:white;stop-opacity:1;"/>
<stop offset="1" stop-color="white" stop-opacity="0" style="stop-color:none;stop-opacity:0;"/>
</linearGradient>
</defs>
</svg>
