<svg width="24" height="24" viewBox="0 0 24 24" fill="none" xmlns="http://www.w3.org/2000/svg">
<path d="M14.9834 17.7959C15.3717 17.7959 15.6865 17.4811 15.6865 17.0928C15.6865 16.7044 15.3717 16.3896 14.9834 16.3896C14.5951 16.3896 14.2803 16.7044 14.2803 17.0928C14.2803 17.4811 14.5951 17.7959 14.9834 17.7959Z" fill="#FF3F1A"/>
<path d="M9.0166 11.8291C9.40493 11.8291 9.71973 11.5143 9.71973 11.126C9.71973 10.7377 9.40493 10.4229 9.0166 10.4229C8.62828 10.4229 8.31348 10.7377 8.31348 11.126C8.31348 11.5143 8.62828 11.8291 9.0166 11.8291Z" fill="#FF3F1A"/>
<path d="M20.9402 7.72155L20.6092 7.20208L20.0506 7.46186C19.8826 7.53995 19.1703 7.78488 18.7553 7.55556C18.525 7.4283 18.3784 7.12755 18.3195 6.66166C18.0065 4.18811 16.272 3.42897 16.1983 3.39784L15.7877 3.22455L14.6477 4.24563C14.3461 4.51586 13.9843 4.62442 13.6287 4.55153C13.2128 4.46627 12.8482 4.14653 12.6282 3.67436C12.1547 2.65792 11.8211 1.65395 11.6367 0.690344L11.5053 0.00390625L10.8181 0.131078C10.7673 0.1405 9.55805 0.371641 8.27822 1.24333C7.08844 2.0537 5.60072 3.59059 5.26973 6.31052C5.19806 6.89941 4.91095 7.41555 4.50173 7.69127C4.30163 7.82603 3.97973 7.96427 3.58388 7.8573L3.05817 7.71527L2.78911 8.18875C1.88447 9.78081 1.40625 11.5852 1.40625 13.4067C1.40625 16.2364 2.50819 18.8967 4.50905 20.8977C6.51 22.8985 9.1703 24.0005 12 24.0005C14.8297 24.0005 17.49 22.8985 19.491 20.8977C21.4918 18.8967 22.5938 16.2364 22.5938 13.4067C22.5938 11.3853 22.022 9.41945 20.9402 7.72155ZM11.1263 11.1267C11.1263 12.2898 10.18 13.2361 9.01688 13.2361C7.85377 13.2361 6.9075 12.2898 6.9075 11.1267C6.9075 9.96362 7.85377 9.01736 9.01688 9.01736C10.18 9.01736 11.1263 9.96362 11.1263 11.1267ZM15.8922 9.22333L16.8865 10.2177L8.10783 18.9964L7.11347 18.002L15.8922 9.22333ZM14.9831 14.9836C16.1462 14.9836 17.0925 15.9299 17.0925 17.093C17.0925 18.2561 16.1462 19.2024 14.9831 19.2024C13.82 19.2024 12.8738 18.2561 12.8738 17.093C12.8738 15.9299 13.82 14.9836 14.9831 14.9836Z" fill="#FF3F1A"/>
<path d="M2.8125 2.8125H4.21875V4.21875H2.8125V2.8125Z" fill="#FF3F1A"/>
<path d="M15.5625 0H16.9688V1.40625H15.5625V0Z" fill="#FF3F1A"/>
<path d="M18.375 1.40625H19.7812V2.8125H18.375V1.40625Z" fill="#FF3F1A"/>
</svg>
