<svg width="24" height="24" viewBox="0 0 24 24" fill="none" xmlns="http://www.w3.org/2000/svg">
<rect width="24" height="24" rx="12" fill="#0B74E5"/>
<path d="M16.2667 7.73333L15.8 8.2M6 12H6.66667M12 6V6.66667M17.3333 12H18M7.73333 7.73333L8.2 8.2" stroke="#F0F8FF" stroke-linecap="round" stroke-linejoin="round"/>
<path d="M9.99935 14.667C9.43966 14.2472 9.02624 13.662 8.81764 12.9942C8.60904 12.3264 8.61584 11.6099 8.83707 10.9462C9.05831 10.2825 9.48276 9.70525 10.0503 9.29618C10.6179 8.88712 11.2997 8.66699 11.9993 8.66699C12.699 8.66699 13.3808 8.88712 13.9484 9.29618C14.5159 9.70525 14.9404 10.2825 15.1616 10.9462C15.3829 11.6099 15.3897 12.3264 15.1811 12.9942C14.9725 13.662 14.559 14.2472 13.9993 14.667C13.7391 14.9246 13.5431 15.24 13.4273 15.5874C13.3114 15.9349 13.279 16.3047 13.3327 16.667C13.3327 17.0206 13.1922 17.3598 12.9422 17.6098C12.6921 17.8598 12.353 18.0003 11.9993 18.0003C11.6457 18.0003 11.3066 17.8598 11.0565 17.6098C10.8065 17.3598 10.666 17.0206 10.666 16.667C10.7197 16.3047 10.6873 15.9348 10.5715 15.5874C10.4557 15.2399 10.2597 14.9246 9.99935 14.667Z" stroke="#F0F8FF" stroke-linecap="square" stroke-linejoin="round"/>
<path d="M10.4668 15.333H13.5335" stroke="#F0F8FF" stroke-linecap="round" stroke-linejoin="round"/>
</svg>
