<svg width="140" height="141" viewBox="0 0 140 141" fill="none" xmlns="http://www.w3.org/2000/svg">
<rect x="0.5" y="1" width="139" height="139" rx="7.5" stroke="#EBEBF0"/>
<mask id="mask0_2118_121554" style="mask-type:luminance" maskUnits="userSpaceOnUse" x="10" y="10" width="120" height="121">
<path d="M12.0689 60.1545C13.2116 60.1545 14.1379 59.2282 14.1379 58.0856C14.1379 56.9429 13.2116 56.0166 12.0689 56.0166C10.9263 56.0166 10 56.9429 10 58.0856C10 59.2282 10.9263 60.1545 12.0689 60.1545Z" fill="white"/>
<path d="M12.0689 72.5676C13.2116 72.5676 14.1379 71.6413 14.1379 70.4987C14.1379 69.356 13.2116 68.4297 12.0689 68.4297C10.9263 68.4297 10 69.356 10 70.4987C10 71.6413 10.9263 72.5676 12.0689 72.5676Z" fill="white"/>
<path d="M12.0689 93.258C13.2116 93.258 14.1379 92.3317 14.1379 91.1891C14.1379 90.0464 13.2116 89.1201 12.0689 89.1201C10.9263 89.1201 10 90.0464 10 91.1891C10 92.3317 10.9263 93.258 12.0689 93.258Z" fill="white"/>
<path d="M12.0689 97.3957C13.2116 97.3957 14.1379 96.4694 14.1379 95.3268C14.1379 94.1841 13.2116 93.2578 12.0689 93.2578C10.9263 93.2578 10 94.1841 10 95.3268C10 96.4694 10.9263 97.3957 12.0689 97.3957Z" fill="white"/>
<path d="M16.2057 56.0159C17.3483 56.0159 18.2746 55.0896 18.2746 53.9469C18.2746 52.8042 17.3483 51.8779 16.2057 51.8779C15.063 51.8779 14.1367 52.8042 14.1367 53.9469C14.1367 55.0896 15.063 56.0159 16.2057 56.0159Z" fill="white"/>
<path d="M16.2057 60.1545C17.3483 60.1545 18.2746 59.2282 18.2746 58.0856C18.2746 56.9429 17.3483 56.0166 16.2057 56.0166C15.063 56.0166 14.1367 56.9429 14.1367 58.0856C14.1367 59.2282 15.063 60.1545 16.2057 60.1545Z" fill="white"/>
<path d="M16.2057 64.2922C17.3483 64.2922 18.2746 63.3659 18.2746 62.2233C18.2746 61.0806 17.3483 60.1543 16.2057 60.1543C15.063 60.1543 14.1367 61.0806 14.1367 62.2233C14.1367 63.3659 15.063 64.2922 16.2057 64.2922Z" fill="white"/>
<path d="M16.2057 93.258C17.3483 93.258 18.2746 92.3317 18.2746 91.1891C18.2746 90.0464 17.3483 89.1201 16.2057 89.1201C15.063 89.1201 14.1367 90.0464 14.1367 91.1891C14.1367 92.3317 15.063 93.258 16.2057 93.258Z" fill="white"/>
<path d="M20.3463 47.7405C21.4889 47.7405 22.4152 46.8142 22.4152 45.6715C22.4152 44.5288 21.4889 43.6025 20.3463 43.6025C19.2036 43.6025 18.2773 44.5288 18.2773 45.6715C18.2773 46.8142 19.2036 47.7405 20.3463 47.7405Z" fill="white"/>
<path d="M20.3463 51.8782C21.4889 51.8782 22.4152 50.9519 22.4152 49.8092C22.4152 48.6665 21.4889 47.7402 20.3463 47.7402C19.2036 47.7402 18.2773 48.6665 18.2773 49.8092C18.2773 50.9519 19.2036 51.8782 20.3463 51.8782Z" fill="white"/>
<path d="M20.3463 60.1545C21.4889 60.1545 22.4152 59.2282 22.4152 58.0856C22.4152 56.9429 21.4889 56.0166 20.3463 56.0166C19.2036 56.0166 18.2773 56.9429 18.2773 58.0856C18.2773 59.2282 19.2036 60.1545 20.3463 60.1545Z" fill="white"/>
<path d="M20.3463 72.5676C21.4889 72.5676 22.4152 71.6413 22.4152 70.4987C22.4152 69.356 21.4889 68.4297 20.3463 68.4297C19.2036 68.4297 18.2773 69.356 18.2773 70.4987C18.2773 71.6413 19.2036 72.5676 20.3463 72.5676Z" fill="white"/>
<path d="M20.3463 76.7063C21.4889 76.7063 22.4152 75.78 22.4152 74.6373C22.4152 73.4947 21.4889 72.5684 20.3463 72.5684C19.2036 72.5684 18.2773 73.4947 18.2773 74.6373C18.2773 75.78 19.2036 76.7063 20.3463 76.7063Z" fill="white"/>
<path d="M20.3463 84.9817C21.4889 84.9817 22.4152 84.0554 22.4152 82.9127C22.4152 81.7701 21.4889 80.8438 20.3463 80.8438C19.2036 80.8438 18.2773 81.7701 18.2773 82.9127C18.2773 84.0554 19.2036 84.9817 20.3463 84.9817Z" fill="white"/>
<path d="M24.483 56.0159C25.6257 56.0159 26.552 55.0896 26.552 53.9469C26.552 52.8042 25.6257 51.8779 24.483 51.8779C23.3404 51.8779 22.4141 52.8042 22.4141 53.9469C22.4141 55.0896 23.3404 56.0159 24.483 56.0159Z" fill="white"/>
<path d="M24.483 72.5676C25.6257 72.5676 26.552 71.6413 26.552 70.4987C26.552 69.356 25.6257 68.4297 24.483 68.4297C23.3404 68.4297 22.4141 69.356 22.4141 70.4987C22.4141 71.6413 23.3404 72.5676 24.483 72.5676Z" fill="white"/>
<path d="M24.483 80.844C25.6257 80.844 26.552 79.9177 26.552 78.775C26.552 77.6324 25.6257 76.7061 24.483 76.7061C23.3404 76.7061 22.4141 77.6324 22.4141 78.775C22.4141 79.9177 23.3404 80.844 24.483 80.844Z" fill="white"/>
<path d="M24.483 97.3957C25.6257 97.3957 26.552 96.4694 26.552 95.3268C26.552 94.1841 25.6257 93.2578 24.483 93.2578C23.3404 93.2578 22.4141 94.1841 22.4141 95.3268C22.4141 96.4694 23.3404 97.3957 24.483 97.3957Z" fill="white"/>
<path d="M28.6197 47.7405C29.7624 47.7405 30.6887 46.8142 30.6887 45.6715C30.6887 44.5288 29.7624 43.6025 28.6197 43.6025C27.4771 43.6025 26.5508 44.5288 26.5508 45.6715C26.5508 46.8142 27.4771 47.7405 28.6197 47.7405Z" fill="white"/>
<path d="M28.6197 64.2922C29.7624 64.2922 30.6887 63.3659 30.6887 62.2233C30.6887 61.0806 29.7624 60.1543 28.6197 60.1543C27.4771 60.1543 26.5508 61.0806 26.5508 62.2233C26.5508 63.3659 27.4771 64.2922 28.6197 64.2922Z" fill="white"/>
<path d="M28.6197 72.5676C29.7624 72.5676 30.6887 71.6413 30.6887 70.4987C30.6887 69.356 29.7624 68.4297 28.6197 68.4297C27.4771 68.4297 26.5508 69.356 26.5508 70.4987C26.5508 71.6413 27.4771 72.5676 28.6197 72.5676Z" fill="white"/>
<path d="M28.6197 76.7063C29.7624 76.7063 30.6887 75.78 30.6887 74.6373C30.6887 73.4947 29.7624 72.5684 28.6197 72.5684C27.4771 72.5684 26.5508 73.4947 26.5508 74.6373C26.5508 75.78 27.4771 76.7063 28.6197 76.7063Z" fill="white"/>
<path d="M28.6197 84.9817C29.7624 84.9817 30.6887 84.0554 30.6887 82.9127C30.6887 81.7701 29.7624 80.8438 28.6197 80.8438C27.4771 80.8438 26.5508 81.7701 26.5508 82.9127C26.5508 84.0554 27.4771 84.9817 28.6197 84.9817Z" fill="white"/>
<path d="M28.6197 89.1194C29.7624 89.1194 30.6887 88.1931 30.6887 87.0504C30.6887 85.9078 29.7624 84.9814 28.6197 84.9814C27.4771 84.9814 26.5508 85.9078 26.5508 87.0504C26.5508 88.1931 27.4771 89.1194 28.6197 89.1194Z" fill="white"/>
<path d="M32.7604 47.7405C33.903 47.7405 34.8293 46.8142 34.8293 45.6715C34.8293 44.5288 33.903 43.6025 32.7604 43.6025C31.6177 43.6025 30.6914 44.5288 30.6914 45.6715C30.6914 46.8142 31.6177 47.7405 32.7604 47.7405Z" fill="white"/>
<path d="M32.7604 51.8782C33.903 51.8782 34.8293 50.9519 34.8293 49.8092C34.8293 48.6665 33.903 47.7402 32.7604 47.7402C31.6177 47.7402 30.6914 48.6665 30.6914 49.8092C30.6914 50.9519 31.6177 51.8782 32.7604 51.8782Z" fill="white"/>
<path d="M32.7604 56.0159C33.903 56.0159 34.8293 55.0896 34.8293 53.9469C34.8293 52.8042 33.903 51.8779 32.7604 51.8779C31.6177 51.8779 30.6914 52.8042 30.6914 53.9469C30.6914 55.0896 31.6177 56.0159 32.7604 56.0159Z" fill="white"/>
<path d="M32.7604 60.1545C33.903 60.1545 34.8293 59.2282 34.8293 58.0856C34.8293 56.9429 33.903 56.0166 32.7604 56.0166C31.6177 56.0166 30.6914 56.9429 30.6914 58.0856C30.6914 59.2282 31.6177 60.1545 32.7604 60.1545Z" fill="white"/>
<path d="M32.7604 64.2922C33.903 64.2922 34.8293 63.3659 34.8293 62.2233C34.8293 61.0806 33.903 60.1543 32.7604 60.1543C31.6177 60.1543 30.6914 61.0806 30.6914 62.2233C30.6914 63.3659 31.6177 64.2922 32.7604 64.2922Z" fill="white"/>
<path d="M32.7604 80.844C33.903 80.844 34.8293 79.9177 34.8293 78.775C34.8293 77.6324 33.903 76.7061 32.7604 76.7061C31.6177 76.7061 30.6914 77.6324 30.6914 78.775C30.6914 79.9177 31.6177 80.844 32.7604 80.844Z" fill="white"/>
<path d="M32.7604 84.9817C33.903 84.9817 34.8293 84.0554 34.8293 82.9127C34.8293 81.7701 33.903 80.8438 32.7604 80.8438C31.6177 80.8438 30.6914 81.7701 30.6914 82.9127C30.6914 84.0554 31.6177 84.9817 32.7604 84.9817Z" fill="white"/>
<path d="M32.7604 93.258C33.903 93.258 34.8293 92.3317 34.8293 91.1891C34.8293 90.0464 33.903 89.1201 32.7604 89.1201C31.6177 89.1201 30.6914 90.0464 30.6914 91.1891C30.6914 92.3317 31.6177 93.258 32.7604 93.258Z" fill="white"/>
<path d="M36.8971 47.7405C38.0397 47.7405 38.966 46.8142 38.966 45.6715C38.966 44.5288 38.0397 43.6025 36.8971 43.6025C35.7544 43.6025 34.8281 44.5288 34.8281 45.6715C34.8281 46.8142 35.7544 47.7405 36.8971 47.7405Z" fill="white"/>
<path d="M36.8971 56.0159C38.0397 56.0159 38.966 55.0896 38.966 53.9469C38.966 52.8042 38.0397 51.8779 36.8971 51.8779C35.7544 51.8779 34.8281 52.8042 34.8281 53.9469C34.8281 55.0896 35.7544 56.0159 36.8971 56.0159Z" fill="white"/>
<path d="M36.8971 64.2922C38.0397 64.2922 38.966 63.3659 38.966 62.2233C38.966 61.0806 38.0397 60.1543 36.8971 60.1543C35.7544 60.1543 34.8281 61.0806 34.8281 62.2233C34.8281 63.3659 35.7544 64.2922 36.8971 64.2922Z" fill="white"/>
<path d="M36.8971 72.5676C38.0397 72.5676 38.966 71.6413 38.966 70.4987C38.966 69.356 38.0397 68.4297 36.8971 68.4297C35.7544 68.4297 34.8281 69.356 34.8281 70.4987C34.8281 71.6413 35.7544 72.5676 36.8971 72.5676Z" fill="white"/>
<path d="M36.8971 80.844C38.0397 80.844 38.966 79.9177 38.966 78.775C38.966 77.6324 38.0397 76.7061 36.8971 76.7061C35.7544 76.7061 34.8281 77.6324 34.8281 78.775C34.8281 79.9177 35.7544 80.844 36.8971 80.844Z" fill="white"/>
<path d="M36.8971 89.1194C38.0397 89.1194 38.966 88.1931 38.966 87.0504C38.966 85.9078 38.0397 84.9814 36.8971 84.9814C35.7544 84.9814 34.8281 85.9078 34.8281 87.0504C34.8281 88.1931 35.7544 89.1194 36.8971 89.1194Z" fill="white"/>
<path d="M36.8971 97.3957C38.0397 97.3957 38.966 96.4694 38.966 95.3268C38.966 94.1841 38.0397 93.2578 36.8971 93.2578C35.7544 93.2578 34.8281 94.1841 34.8281 95.3268C34.8281 96.4694 35.7544 97.3957 36.8971 97.3957Z" fill="white"/>
<path d="M41.0338 51.8782C42.1764 51.8782 43.1027 50.9519 43.1027 49.8092C43.1027 48.6665 42.1764 47.7402 41.0338 47.7402C39.8911 47.7402 38.9648 48.6665 38.9648 49.8092C38.9648 50.9519 39.8911 51.8782 41.0338 51.8782Z" fill="white"/>
<path d="M41.0338 56.0159C42.1764 56.0159 43.1027 55.0896 43.1027 53.9469C43.1027 52.8042 42.1764 51.8779 41.0338 51.8779C39.8911 51.8779 38.9648 52.8042 38.9648 53.9469C38.9648 55.0896 39.8911 56.0159 41.0338 56.0159Z" fill="white"/>
<path d="M41.0338 60.1545C42.1764 60.1545 43.1027 59.2282 43.1027 58.0856C43.1027 56.9429 42.1764 56.0166 41.0338 56.0166C39.8911 56.0166 38.9648 56.9429 38.9648 58.0856C38.9648 59.2282 39.8911 60.1545 41.0338 60.1545Z" fill="white"/>
<path d="M41.0338 64.2922C42.1764 64.2922 43.1027 63.3659 43.1027 62.2233C43.1027 61.0806 42.1764 60.1543 41.0338 60.1543C39.8911 60.1543 38.9648 61.0806 38.9648 62.2233C38.9648 63.3659 39.8911 64.2922 41.0338 64.2922Z" fill="white"/>
<path d="M41.0338 76.7063C42.1764 76.7063 43.1027 75.78 43.1027 74.6373C43.1027 73.4947 42.1764 72.5684 41.0338 72.5684C39.8911 72.5684 38.9648 73.4947 38.9648 74.6373C38.9648 75.78 39.8911 76.7063 41.0338 76.7063Z" fill="white"/>
<path d="M41.0338 80.844C42.1764 80.844 43.1027 79.9177 43.1027 78.775C43.1027 77.6324 42.1764 76.7061 41.0338 76.7061C39.8911 76.7061 38.9648 77.6324 38.9648 78.775C38.9648 79.9177 39.8911 80.844 41.0338 80.844Z" fill="white"/>
<path d="M41.0338 97.3957C42.1764 97.3957 43.1027 96.4694 43.1027 95.3268C43.1027 94.1841 42.1764 93.2578 41.0338 93.2578C39.8911 93.2578 38.9648 94.1841 38.9648 95.3268C38.9648 96.4694 39.8911 97.3957 41.0338 97.3957Z" fill="white"/>
<path d="M45.1705 18.7747C46.3132 18.7747 47.2395 17.8483 47.2395 16.7057C47.2395 15.563 46.3132 14.6367 45.1705 14.6367C44.0279 14.6367 43.1016 15.563 43.1016 16.7057C43.1016 17.8483 44.0279 18.7747 45.1705 18.7747Z" fill="white"/>
<path d="M45.1705 31.1887C46.3132 31.1887 47.2395 30.2624 47.2395 29.1197C47.2395 27.9771 46.3132 27.0508 45.1705 27.0508C44.0279 27.0508 43.1016 27.9771 43.1016 29.1197C43.1016 30.2624 44.0279 31.1887 45.1705 31.1887Z" fill="white"/>
<path d="M45.1705 39.4641C46.3132 39.4641 47.2395 38.5378 47.2395 37.3951C47.2395 36.2525 46.3132 35.3262 45.1705 35.3262C44.0279 35.3262 43.1016 36.2525 43.1016 37.3951C43.1016 38.5378 44.0279 39.4641 45.1705 39.4641Z" fill="white"/>
<path d="M45.1705 47.7405C46.3132 47.7405 47.2395 46.8142 47.2395 45.6715C47.2395 44.5288 46.3132 43.6025 45.1705 43.6025C44.0279 43.6025 43.1016 44.5288 43.1016 45.6715C43.1016 46.8142 44.0279 47.7405 45.1705 47.7405Z" fill="white"/>
<path d="M45.1705 64.2922C46.3132 64.2922 47.2395 63.3659 47.2395 62.2233C47.2395 61.0806 46.3132 60.1543 45.1705 60.1543C44.0279 60.1543 43.1016 61.0806 43.1016 62.2233C43.1016 63.3659 44.0279 64.2922 45.1705 64.2922Z" fill="white"/>
<path d="M45.1705 76.7063C46.3132 76.7063 47.2395 75.78 47.2395 74.6373C47.2395 73.4947 46.3132 72.5684 45.1705 72.5684C44.0279 72.5684 43.1016 73.4947 43.1016 74.6373C43.1016 75.78 44.0279 76.7063 45.1705 76.7063Z" fill="white"/>
<path d="M45.1705 93.258C46.3132 93.258 47.2395 92.3317 47.2395 91.1891C47.2395 90.0464 46.3132 89.1201 45.1705 89.1201C44.0279 89.1201 43.1016 90.0464 43.1016 91.1891C43.1016 92.3317 44.0279 93.258 45.1705 93.258Z" fill="white"/>
<path d="M45.1705 97.3957C46.3132 97.3957 47.2395 96.4694 47.2395 95.3268C47.2395 94.1841 46.3132 93.2578 45.1705 93.2578C44.0279 93.2578 43.1016 94.1841 43.1016 95.3268C43.1016 96.4694 44.0279 97.3957 45.1705 97.3957Z" fill="white"/>
<path d="M45.1705 101.533C46.3132 101.533 47.2395 100.607 47.2395 99.4645C47.2395 98.3218 46.3132 97.3955 45.1705 97.3955C44.0279 97.3955 43.1016 98.3218 43.1016 99.4645C43.1016 100.607 44.0279 101.533 45.1705 101.533Z" fill="white"/>
<path d="M45.1705 109.81C46.3132 109.81 47.2395 108.883 47.2395 107.741C47.2395 106.598 46.3132 105.672 45.1705 105.672C44.0279 105.672 43.1016 106.598 43.1016 107.741C43.1016 108.883 44.0279 109.81 45.1705 109.81Z" fill="white"/>
<path d="M45.1705 113.948C46.3132 113.948 47.2395 113.021 47.2395 111.879C47.2395 110.736 46.3132 109.81 45.1705 109.81C44.0279 109.81 43.1016 110.736 43.1016 111.879C43.1016 113.021 44.0279 113.948 45.1705 113.948Z" fill="white"/>
<path d="M45.1705 122.223C46.3132 122.223 47.2395 121.297 47.2395 120.154C47.2395 119.011 46.3132 118.085 45.1705 118.085C44.0279 118.085 43.1016 119.011 43.1016 120.154C43.1016 121.297 44.0279 122.223 45.1705 122.223Z" fill="white"/>
<path d="M49.3111 22.9123C50.4538 22.9123 51.3801 21.986 51.3801 20.8434C51.3801 19.7007 50.4538 18.7744 49.3111 18.7744C48.1685 18.7744 47.2422 19.7007 47.2422 20.8434C47.2422 21.986 48.1685 22.9123 49.3111 22.9123Z" fill="white"/>
<path d="M49.3111 35.3264C50.4538 35.3264 51.3801 34.4001 51.3801 33.2574C51.3801 32.1148 50.4538 31.1885 49.3111 31.1885C48.1685 31.1885 47.2422 32.1148 47.2422 33.2574C47.2422 34.4001 48.1685 35.3264 49.3111 35.3264Z" fill="white"/>
<path d="M49.3111 43.6028C50.4538 43.6028 51.3801 42.6765 51.3801 41.5338C51.3801 40.3912 50.4538 39.4648 49.3111 39.4648C48.1685 39.4648 47.2422 40.3912 47.2422 41.5338C47.2422 42.6765 48.1685 43.6028 49.3111 43.6028Z" fill="white"/>
<path d="M49.3111 56.0159C50.4538 56.0159 51.3801 55.0896 51.3801 53.9469C51.3801 52.8042 50.4538 51.8779 49.3111 51.8779C48.1685 51.8779 47.2422 52.8042 47.2422 53.9469C47.2422 55.0896 48.1685 56.0159 49.3111 56.0159Z" fill="white"/>
<path d="M49.3111 60.1545C50.4538 60.1545 51.3801 59.2282 51.3801 58.0856C51.3801 56.9429 50.4538 56.0166 49.3111 56.0166C48.1685 56.0166 47.2422 56.9429 47.2422 58.0856C47.2422 59.2282 48.1685 60.1545 49.3111 60.1545Z" fill="white"/>
<path d="M49.3111 64.2922C50.4538 64.2922 51.3801 63.3659 51.3801 62.2233C51.3801 61.0806 50.4538 60.1543 49.3111 60.1543C48.1685 60.1543 47.2422 61.0806 47.2422 62.2233C47.2422 63.3659 48.1685 64.2922 49.3111 64.2922Z" fill="white"/>
<path d="M49.3111 84.9817C50.4538 84.9817 51.3801 84.0554 51.3801 82.9127C51.3801 81.7701 50.4538 80.8438 49.3111 80.8438C48.1685 80.8438 47.2422 81.7701 47.2422 82.9127C47.2422 84.0554 48.1685 84.9817 49.3111 84.9817Z" fill="white"/>
<path d="M49.3111 89.1194C50.4538 89.1194 51.3801 88.1931 51.3801 87.0504C51.3801 85.9078 50.4538 84.9814 49.3111 84.9814C48.1685 84.9814 47.2422 85.9078 47.2422 87.0504C47.2422 88.1931 48.1685 89.1194 49.3111 89.1194Z" fill="white"/>
<path d="M49.3111 93.258C50.4538 93.258 51.3801 92.3317 51.3801 91.1891C51.3801 90.0464 50.4538 89.1201 49.3111 89.1201C48.1685 89.1201 47.2422 90.0464 47.2422 91.1891C47.2422 92.3317 48.1685 93.258 49.3111 93.258Z" fill="white"/>
<path d="M49.3111 101.533C50.4538 101.533 51.3801 100.607 51.3801 99.4645C51.3801 98.3218 50.4538 97.3955 49.3111 97.3955C48.1685 97.3955 47.2422 98.3218 47.2422 99.4645C47.2422 100.607 48.1685 101.533 49.3111 101.533Z" fill="white"/>
<path d="M49.3111 105.671C50.4538 105.671 51.3801 104.745 51.3801 103.602C51.3801 102.46 50.4538 101.533 49.3111 101.533C48.1685 101.533 47.2422 102.46 47.2422 103.602C47.2422 104.745 48.1685 105.671 49.3111 105.671Z" fill="white"/>
<path d="M49.3111 113.948C50.4538 113.948 51.3801 113.021 51.3801 111.879C51.3801 110.736 50.4538 109.81 49.3111 109.81C48.1685 109.81 47.2422 110.736 47.2422 111.879C47.2422 113.021 48.1685 113.948 49.3111 113.948Z" fill="white"/>
<path d="M49.3111 126.362C50.4538 126.362 51.3801 125.435 51.3801 124.293C51.3801 123.15 50.4538 122.224 49.3111 122.224C48.1685 122.224 47.2422 123.15 47.2422 124.293C47.2422 125.435 48.1685 126.362 49.3111 126.362Z" fill="white"/>
<path d="M49.3111 130.499C50.4538 130.499 51.3801 129.573 51.3801 128.43C51.3801 127.288 50.4538 126.361 49.3111 126.361C48.1685 126.361 47.2422 127.288 47.2422 128.43C47.2422 129.573 48.1685 130.499 49.3111 130.499Z" fill="white"/>
<path d="M53.4479 18.7747C54.5905 18.7747 55.5168 17.8483 55.5168 16.7057C55.5168 15.563 54.5905 14.6367 53.4479 14.6367C52.3052 14.6367 51.3789 15.563 51.3789 16.7057C51.3789 17.8483 52.3052 18.7747 53.4479 18.7747Z" fill="white"/>
<path d="M53.4479 27.051C54.5905 27.051 55.5168 26.1247 55.5168 24.9821C55.5168 23.8394 54.5905 22.9131 53.4479 22.9131C52.3052 22.9131 51.3789 23.8394 51.3789 24.9821C51.3789 26.1247 52.3052 27.051 53.4479 27.051Z" fill="white"/>
<path d="M53.4479 35.3264C54.5905 35.3264 55.5168 34.4001 55.5168 33.2574C55.5168 32.1148 54.5905 31.1885 53.4479 31.1885C52.3052 31.1885 51.3789 32.1148 51.3789 33.2574C51.3789 34.4001 52.3052 35.3264 53.4479 35.3264Z" fill="white"/>
<path d="M53.4479 39.4641C54.5905 39.4641 55.5168 38.5378 55.5168 37.3951C55.5168 36.2525 54.5905 35.3262 53.4479 35.3262C52.3052 35.3262 51.3789 36.2525 51.3789 37.3951C51.3789 38.5378 52.3052 39.4641 53.4479 39.4641Z" fill="white"/>
<path d="M53.4479 43.6028C54.5905 43.6028 55.5168 42.6765 55.5168 41.5338C55.5168 40.3912 54.5905 39.4648 53.4479 39.4648C52.3052 39.4648 51.3789 40.3912 51.3789 41.5338C51.3789 42.6765 52.3052 43.6028 53.4479 43.6028Z" fill="white"/>
<path d="M53.4479 47.7405C54.5905 47.7405 55.5168 46.8142 55.5168 45.6715C55.5168 44.5288 54.5905 43.6025 53.4479 43.6025C52.3052 43.6025 51.3789 44.5288 51.3789 45.6715C51.3789 46.8142 52.3052 47.7405 53.4479 47.7405Z" fill="white"/>
<path d="M53.4479 56.0159C54.5905 56.0159 55.5168 55.0896 55.5168 53.9469C55.5168 52.8042 54.5905 51.8779 53.4479 51.8779C52.3052 51.8779 51.3789 52.8042 51.3789 53.9469C51.3789 55.0896 52.3052 56.0159 53.4479 56.0159Z" fill="white"/>
<path d="M53.4479 60.1545C54.5905 60.1545 55.5168 59.2282 55.5168 58.0856C55.5168 56.9429 54.5905 56.0166 53.4479 56.0166C52.3052 56.0166 51.3789 56.9429 51.3789 58.0856C51.3789 59.2282 52.3052 60.1545 53.4479 60.1545Z" fill="white"/>
<path d="M53.4479 64.2922C54.5905 64.2922 55.5168 63.3659 55.5168 62.2233C55.5168 61.0806 54.5905 60.1543 53.4479 60.1543C52.3052 60.1543 51.3789 61.0806 51.3789 62.2233C51.3789 63.3659 52.3052 64.2922 53.4479 64.2922Z" fill="white"/>
<path d="M53.4479 76.7063C54.5905 76.7063 55.5168 75.78 55.5168 74.6373C55.5168 73.4947 54.5905 72.5684 53.4479 72.5684C52.3052 72.5684 51.3789 73.4947 51.3789 74.6373C51.3789 75.78 52.3052 76.7063 53.4479 76.7063Z" fill="white"/>
<path d="M53.4479 80.844C54.5905 80.844 55.5168 79.9177 55.5168 78.775C55.5168 77.6324 54.5905 76.7061 53.4479 76.7061C52.3052 76.7061 51.3789 77.6324 51.3789 78.775C51.3789 79.9177 52.3052 80.844 53.4479 80.844Z" fill="white"/>
<path d="M53.4479 84.9817C54.5905 84.9817 55.5168 84.0554 55.5168 82.9127C55.5168 81.7701 54.5905 80.8438 53.4479 80.8438C52.3052 80.8438 51.3789 81.7701 51.3789 82.9127C51.3789 84.0554 52.3052 84.9817 53.4479 84.9817Z" fill="white"/>
<path d="M53.4479 89.1194C54.5905 89.1194 55.5168 88.1931 55.5168 87.0504C55.5168 85.9078 54.5905 84.9814 53.4479 84.9814C52.3052 84.9814 51.3789 85.9078 51.3789 87.0504C51.3789 88.1931 52.3052 89.1194 53.4479 89.1194Z" fill="white"/>
<path d="M53.4479 93.258C54.5905 93.258 55.5168 92.3317 55.5168 91.1891C55.5168 90.0464 54.5905 89.1201 53.4479 89.1201C52.3052 89.1201 51.3789 90.0464 51.3789 91.1891C51.3789 92.3317 52.3052 93.258 53.4479 93.258Z" fill="white"/>
<path d="M53.4479 101.533C54.5905 101.533 55.5168 100.607 55.5168 99.4645C55.5168 98.3218 54.5905 97.3955 53.4479 97.3955C52.3052 97.3955 51.3789 98.3218 51.3789 99.4645C51.3789 100.607 52.3052 101.533 53.4479 101.533Z" fill="white"/>
<path d="M53.4479 109.81C54.5905 109.81 55.5168 108.883 55.5168 107.741C55.5168 106.598 54.5905 105.672 53.4479 105.672C52.3052 105.672 51.3789 106.598 51.3789 107.741C51.3789 108.883 52.3052 109.81 53.4479 109.81Z" fill="white"/>
<path d="M53.4479 113.948C54.5905 113.948 55.5168 113.021 55.5168 111.879C55.5168 110.736 54.5905 109.81 53.4479 109.81C52.3052 109.81 51.3789 110.736 51.3789 111.879C51.3789 113.021 52.3052 113.948 53.4479 113.948Z" fill="white"/>
<path d="M53.4479 118.085C54.5905 118.085 55.5168 117.159 55.5168 116.016C55.5168 114.874 54.5905 113.947 53.4479 113.947C52.3052 113.947 51.3789 114.874 51.3789 116.016C51.3789 117.159 52.3052 118.085 53.4479 118.085Z" fill="white"/>
<path d="M53.4479 130.499C54.5905 130.499 55.5168 129.573 55.5168 128.43C55.5168 127.288 54.5905 126.361 53.4479 126.361C52.3052 126.361 51.3789 127.288 51.3789 128.43C51.3789 129.573 52.3052 130.499 53.4479 130.499Z" fill="white"/>
<path d="M57.5846 35.3264C58.7272 35.3264 59.6535 34.4001 59.6535 33.2574C59.6535 32.1148 58.7272 31.1885 57.5846 31.1885C56.4419 31.1885 55.5156 32.1148 55.5156 33.2574C55.5156 34.4001 56.4419 35.3264 57.5846 35.3264Z" fill="white"/>
<path d="M57.5846 43.6028C58.7272 43.6028 59.6535 42.6765 59.6535 41.5338C59.6535 40.3912 58.7272 39.4648 57.5846 39.4648C56.4419 39.4648 55.5156 40.3912 55.5156 41.5338C55.5156 42.6765 56.4419 43.6028 57.5846 43.6028Z" fill="white"/>
<path d="M57.5846 47.7405C58.7272 47.7405 59.6535 46.8142 59.6535 45.6715C59.6535 44.5288 58.7272 43.6025 57.5846 43.6025C56.4419 43.6025 55.5156 44.5288 55.5156 45.6715C55.5156 46.8142 56.4419 47.7405 57.5846 47.7405Z" fill="white"/>
<path d="M57.5846 64.2922C58.7272 64.2922 59.6535 63.3659 59.6535 62.2233C59.6535 61.0806 58.7272 60.1543 57.5846 60.1543C56.4419 60.1543 55.5156 61.0806 55.5156 62.2233C55.5156 63.3659 56.4419 64.2922 57.5846 64.2922Z" fill="white"/>
<path d="M57.5846 68.4299C58.7272 68.4299 59.6535 67.5036 59.6535 66.361C59.6535 65.2183 58.7272 64.292 57.5846 64.292C56.4419 64.292 55.5156 65.2183 55.5156 66.361C55.5156 67.5036 56.4419 68.4299 57.5846 68.4299Z" fill="white"/>
<path d="M57.5846 72.5676C58.7272 72.5676 59.6535 71.6413 59.6535 70.4987C59.6535 69.356 58.7272 68.4297 57.5846 68.4297C56.4419 68.4297 55.5156 69.356 55.5156 70.4987C55.5156 71.6413 56.4419 72.5676 57.5846 72.5676Z" fill="white"/>
<path d="M57.5846 76.7063C58.7272 76.7063 59.6535 75.78 59.6535 74.6373C59.6535 73.4947 58.7272 72.5684 57.5846 72.5684C56.4419 72.5684 55.5156 73.4947 55.5156 74.6373C55.5156 75.78 56.4419 76.7063 57.5846 76.7063Z" fill="white"/>
<path d="M57.5846 84.9817C58.7272 84.9817 59.6535 84.0554 59.6535 82.9127C59.6535 81.7701 58.7272 80.8438 57.5846 80.8438C56.4419 80.8438 55.5156 81.7701 55.5156 82.9127C55.5156 84.0554 56.4419 84.9817 57.5846 84.9817Z" fill="white"/>
<path d="M57.5846 89.1194C58.7272 89.1194 59.6535 88.1931 59.6535 87.0504C59.6535 85.9078 58.7272 84.9814 57.5846 84.9814C56.4419 84.9814 55.5156 85.9078 55.5156 87.0504C55.5156 88.1931 56.4419 89.1194 57.5846 89.1194Z" fill="white"/>
<path d="M57.5846 93.258C58.7272 93.258 59.6535 92.3317 59.6535 91.1891C59.6535 90.0464 58.7272 89.1201 57.5846 89.1201C56.4419 89.1201 55.5156 90.0464 55.5156 91.1891C55.5156 92.3317 56.4419 93.258 57.5846 93.258Z" fill="white"/>
<path d="M57.5846 97.3957C58.7272 97.3957 59.6535 96.4694 59.6535 95.3268C59.6535 94.1841 58.7272 93.2578 57.5846 93.2578C56.4419 93.2578 55.5156 94.1841 55.5156 95.3268C55.5156 96.4694 56.4419 97.3957 57.5846 97.3957Z" fill="white"/>
<path d="M57.5846 101.533C58.7272 101.533 59.6535 100.607 59.6535 99.4645C59.6535 98.3218 58.7272 97.3955 57.5846 97.3955C56.4419 97.3955 55.5156 98.3218 55.5156 99.4645C55.5156 100.607 56.4419 101.533 57.5846 101.533Z" fill="white"/>
<path d="M57.5846 109.81C58.7272 109.81 59.6535 108.883 59.6535 107.741C59.6535 106.598 58.7272 105.672 57.5846 105.672C56.4419 105.672 55.5156 106.598 55.5156 107.741C55.5156 108.883 56.4419 109.81 57.5846 109.81Z" fill="white"/>
<path d="M57.5846 126.362C58.7272 126.362 59.6535 125.435 59.6535 124.293C59.6535 123.15 58.7272 122.224 57.5846 122.224C56.4419 122.224 55.5156 123.15 55.5156 124.293C55.5156 125.435 56.4419 126.362 57.5846 126.362Z" fill="white"/>
<path d="M57.5846 130.499C58.7272 130.499 59.6535 129.573 59.6535 128.43C59.6535 127.288 58.7272 126.361 57.5846 126.361C56.4419 126.361 55.5156 127.288 55.5156 128.43C55.5156 129.573 56.4419 130.499 57.5846 130.499Z" fill="white"/>
<path d="M61.7252 18.7747C62.8678 18.7747 63.7941 17.8483 63.7941 16.7057C63.7941 15.563 62.8678 14.6367 61.7252 14.6367C60.5826 14.6367 59.6562 15.563 59.6562 16.7057C59.6562 17.8483 60.5826 18.7747 61.7252 18.7747Z" fill="white"/>
<path d="M61.7252 27.051C62.8678 27.051 63.7941 26.1247 63.7941 24.9821C63.7941 23.8394 62.8678 22.9131 61.7252 22.9131C60.5826 22.9131 59.6562 23.8394 59.6562 24.9821C59.6562 26.1247 60.5826 27.051 61.7252 27.051Z" fill="white"/>
<path d="M61.7252 31.1887C62.8678 31.1887 63.7941 30.2624 63.7941 29.1197C63.7941 27.9771 62.8678 27.0508 61.7252 27.0508C60.5826 27.0508 59.6562 27.9771 59.6562 29.1197C59.6562 30.2624 60.5826 31.1887 61.7252 31.1887Z" fill="white"/>
<path d="M61.7252 35.3264C62.8678 35.3264 63.7941 34.4001 63.7941 33.2574C63.7941 32.1148 62.8678 31.1885 61.7252 31.1885C60.5826 31.1885 59.6562 32.1148 59.6562 33.2574C59.6562 34.4001 60.5826 35.3264 61.7252 35.3264Z" fill="white"/>
<path d="M61.7252 39.4641C62.8678 39.4641 63.7941 38.5378 63.7941 37.3951C63.7941 36.2525 62.8678 35.3262 61.7252 35.3262C60.5826 35.3262 59.6562 36.2525 59.6562 37.3951C59.6562 38.5378 60.5826 39.4641 61.7252 39.4641Z" fill="white"/>
<path d="M61.7252 43.6028C62.8678 43.6028 63.7941 42.6765 63.7941 41.5338C63.7941 40.3912 62.8678 39.4648 61.7252 39.4648C60.5826 39.4648 59.6562 40.3912 59.6562 41.5338C59.6562 42.6765 60.5826 43.6028 61.7252 43.6028Z" fill="white"/>
<path d="M61.7252 51.8782C62.8678 51.8782 63.7941 50.9519 63.7941 49.8092C63.7941 48.6665 62.8678 47.7402 61.7252 47.7402C60.5826 47.7402 59.6562 48.6665 59.6562 49.8092C59.6562 50.9519 60.5826 51.8782 61.7252 51.8782Z" fill="white"/>
<path d="M61.7252 64.2922C62.8678 64.2922 63.7941 63.3659 63.7941 62.2233C63.7941 61.0806 62.8678 60.1543 61.7252 60.1543C60.5826 60.1543 59.6562 61.0806 59.6562 62.2233C59.6562 63.3659 60.5826 64.2922 61.7252 64.2922Z" fill="white"/>
<path d="M61.7252 72.5676C62.8678 72.5676 63.7941 71.6413 63.7941 70.4987C63.7941 69.356 62.8678 68.4297 61.7252 68.4297C60.5826 68.4297 59.6562 69.356 59.6562 70.4987C59.6562 71.6413 60.5826 72.5676 61.7252 72.5676Z" fill="white"/>
<path d="M61.7252 84.9817C62.8678 84.9817 63.7941 84.0554 63.7941 82.9127C63.7941 81.7701 62.8678 80.8438 61.7252 80.8438C60.5826 80.8438 59.6562 81.7701 59.6562 82.9127C59.6562 84.0554 60.5826 84.9817 61.7252 84.9817Z" fill="white"/>
<path d="M61.7252 97.3957C62.8678 97.3957 63.7941 96.4694 63.7941 95.3268C63.7941 94.1841 62.8678 93.2578 61.7252 93.2578C60.5826 93.2578 59.6562 94.1841 59.6562 95.3268C59.6562 96.4694 60.5826 97.3957 61.7252 97.3957Z" fill="white"/>
<path d="M61.7252 109.81C62.8678 109.81 63.7941 108.883 63.7941 107.741C63.7941 106.598 62.8678 105.672 61.7252 105.672C60.5826 105.672 59.6562 106.598 59.6562 107.741C59.6562 108.883 60.5826 109.81 61.7252 109.81Z" fill="white"/>
<path d="M61.7252 118.085C62.8678 118.085 63.7941 117.159 63.7941 116.016C63.7941 114.874 62.8678 113.947 61.7252 113.947C60.5826 113.947 59.6562 114.874 59.6562 116.016C59.6562 117.159 60.5826 118.085 61.7252 118.085Z" fill="white"/>
<path d="M61.7252 130.499C62.8678 130.499 63.7941 129.573 63.7941 128.43C63.7941 127.288 62.8678 126.361 61.7252 126.361C60.5826 126.361 59.6562 127.288 59.6562 128.43C59.6562 129.573 60.5826 130.499 61.7252 130.499Z" fill="white"/>
<path d="M65.8619 14.637C67.0046 14.637 67.9309 13.7106 67.9309 12.568C67.9309 11.4253 67.0046 10.499 65.8619 10.499C64.7193 10.499 63.793 11.4253 63.793 12.568C63.793 13.7106 64.7193 14.637 65.8619 14.637Z" fill="white"/>
<path d="M65.8619 18.7747C67.0046 18.7747 67.9309 17.8483 67.9309 16.7057C67.9309 15.563 67.0046 14.6367 65.8619 14.6367C64.7193 14.6367 63.793 15.563 63.793 16.7057C63.793 17.8483 64.7193 18.7747 65.8619 18.7747Z" fill="white"/>
<path d="M65.8619 22.9123C67.0046 22.9123 67.9309 21.986 67.9309 20.8434C67.9309 19.7007 67.0046 18.7744 65.8619 18.7744C64.7193 18.7744 63.793 19.7007 63.793 20.8434C63.793 21.986 64.7193 22.9123 65.8619 22.9123Z" fill="white"/>
<path d="M65.8619 27.051C67.0046 27.051 67.9309 26.1247 67.9309 24.9821C67.9309 23.8394 67.0046 22.9131 65.8619 22.9131C64.7193 22.9131 63.793 23.8394 63.793 24.9821C63.793 26.1247 64.7193 27.051 65.8619 27.051Z" fill="white"/>
<path d="M65.8619 35.3264C67.0046 35.3264 67.9309 34.4001 67.9309 33.2574C67.9309 32.1148 67.0046 31.1885 65.8619 31.1885C64.7193 31.1885 63.793 32.1148 63.793 33.2574C63.793 34.4001 64.7193 35.3264 65.8619 35.3264Z" fill="white"/>
<path d="M65.8619 51.8782C67.0046 51.8782 67.9309 50.9519 67.9309 49.8092C67.9309 48.6665 67.0046 47.7402 65.8619 47.7402C64.7193 47.7402 63.793 48.6665 63.793 49.8092C63.793 50.9519 64.7193 51.8782 65.8619 51.8782Z" fill="white"/>
<path d="M65.8619 60.1545C67.0046 60.1545 67.9309 59.2282 67.9309 58.0856C67.9309 56.9429 67.0046 56.0166 65.8619 56.0166C64.7193 56.0166 63.793 56.9429 63.793 58.0856C63.793 59.2282 64.7193 60.1545 65.8619 60.1545Z" fill="white"/>
<path d="M65.8619 72.5676C67.0046 72.5676 67.9309 71.6413 67.9309 70.4987C67.9309 69.356 67.0046 68.4297 65.8619 68.4297C64.7193 68.4297 63.793 69.356 63.793 70.4987C63.793 71.6413 64.7193 72.5676 65.8619 72.5676Z" fill="white"/>
<path d="M65.8619 76.7063C67.0046 76.7063 67.9309 75.78 67.9309 74.6373C67.9309 73.4947 67.0046 72.5684 65.8619 72.5684C64.7193 72.5684 63.793 73.4947 63.793 74.6373C63.793 75.78 64.7193 76.7063 65.8619 76.7063Z" fill="white"/>
<path d="M65.8619 105.671C67.0046 105.671 67.9309 104.745 67.9309 103.602C67.9309 102.46 67.0046 101.533 65.8619 101.533C64.7193 101.533 63.793 102.46 63.793 103.602C63.793 104.745 64.7193 105.671 65.8619 105.671Z" fill="white"/>
<path d="M65.8619 113.948C67.0046 113.948 67.9309 113.021 67.9309 111.879C67.9309 110.736 67.0046 109.81 65.8619 109.81C64.7193 109.81 63.793 110.736 63.793 111.879C63.793 113.021 64.7193 113.948 65.8619 113.948Z" fill="white"/>
<path d="M65.8619 122.223C67.0046 122.223 67.9309 121.297 67.9309 120.154C67.9309 119.011 67.0046 118.085 65.8619 118.085C64.7193 118.085 63.793 119.011 63.793 120.154C63.793 121.297 64.7193 122.223 65.8619 122.223Z" fill="white"/>
<path d="M65.8619 130.499C67.0046 130.499 67.9309 129.573 67.9309 128.43C67.9309 127.288 67.0046 126.361 65.8619 126.361C64.7193 126.361 63.793 127.288 63.793 128.43C63.793 129.573 64.7193 130.499 65.8619 130.499Z" fill="white"/>
<path d="M69.9986 14.637C71.1413 14.637 72.0676 13.7106 72.0676 12.568C72.0676 11.4253 71.1413 10.499 69.9986 10.499C68.856 10.499 67.9297 11.4253 67.9297 12.568C67.9297 13.7106 68.856 14.637 69.9986 14.637Z" fill="white"/>
<path d="M69.9986 31.1887C71.1413 31.1887 72.0676 30.2624 72.0676 29.1197C72.0676 27.9771 71.1413 27.0508 69.9986 27.0508C68.856 27.0508 67.9297 27.9771 67.9297 29.1197C67.9297 30.2624 68.856 31.1887 69.9986 31.1887Z" fill="white"/>
<path d="M69.9986 35.3264C71.1413 35.3264 72.0676 34.4001 72.0676 33.2574C72.0676 32.1148 71.1413 31.1885 69.9986 31.1885C68.856 31.1885 67.9297 32.1148 67.9297 33.2574C67.9297 34.4001 68.856 35.3264 69.9986 35.3264Z" fill="white"/>
<path d="M69.9986 39.4641C71.1413 39.4641 72.0676 38.5378 72.0676 37.3951C72.0676 36.2525 71.1413 35.3262 69.9986 35.3262C68.856 35.3262 67.9297 36.2525 67.9297 37.3951C67.9297 38.5378 68.856 39.4641 69.9986 39.4641Z" fill="white"/>
<path d="M69.9986 47.7405C71.1413 47.7405 72.0676 46.8142 72.0676 45.6715C72.0676 44.5288 71.1413 43.6025 69.9986 43.6025C68.856 43.6025 67.9297 44.5288 67.9297 45.6715C67.9297 46.8142 68.856 47.7405 69.9986 47.7405Z" fill="white"/>
<path d="M69.9986 56.0159C71.1413 56.0159 72.0676 55.0896 72.0676 53.9469C72.0676 52.8042 71.1413 51.8779 69.9986 51.8779C68.856 51.8779 67.9297 52.8042 67.9297 53.9469C67.9297 55.0896 68.856 56.0159 69.9986 56.0159Z" fill="white"/>
<path d="M69.9986 64.2922C71.1413 64.2922 72.0676 63.3659 72.0676 62.2233C72.0676 61.0806 71.1413 60.1543 69.9986 60.1543C68.856 60.1543 67.9297 61.0806 67.9297 62.2233C67.9297 63.3659 68.856 64.2922 69.9986 64.2922Z" fill="white"/>
<path d="M69.9986 72.5676C71.1413 72.5676 72.0676 71.6413 72.0676 70.4987C72.0676 69.356 71.1413 68.4297 69.9986 68.4297C68.856 68.4297 67.9297 69.356 67.9297 70.4987C67.9297 71.6413 68.856 72.5676 69.9986 72.5676Z" fill="white"/>
<path d="M69.9986 76.7063C71.1413 76.7063 72.0676 75.78 72.0676 74.6373C72.0676 73.4947 71.1413 72.5684 69.9986 72.5684C68.856 72.5684 67.9297 73.4947 67.9297 74.6373C67.9297 75.78 68.856 76.7063 69.9986 76.7063Z" fill="white"/>
<path d="M69.9986 80.844C71.1413 80.844 72.0676 79.9177 72.0676 78.775C72.0676 77.6324 71.1413 76.7061 69.9986 76.7061C68.856 76.7061 67.9297 77.6324 67.9297 78.775C67.9297 79.9177 68.856 80.844 69.9986 80.844Z" fill="white"/>
<path d="M69.9986 84.9817C71.1413 84.9817 72.0676 84.0554 72.0676 82.9127C72.0676 81.7701 71.1413 80.8438 69.9986 80.8438C68.856 80.8438 67.9297 81.7701 67.9297 82.9127C67.9297 84.0554 68.856 84.9817 69.9986 84.9817Z" fill="white"/>
<path d="M69.9986 97.3957C71.1413 97.3957 72.0676 96.4694 72.0676 95.3268C72.0676 94.1841 71.1413 93.2578 69.9986 93.2578C68.856 93.2578 67.9297 94.1841 67.9297 95.3268C67.9297 96.4694 68.856 97.3957 69.9986 97.3957Z" fill="white"/>
<path d="M69.9986 105.671C71.1413 105.671 72.0676 104.745 72.0676 103.602C72.0676 102.46 71.1413 101.533 69.9986 101.533C68.856 101.533 67.9297 102.46 67.9297 103.602C67.9297 104.745 68.856 105.671 69.9986 105.671Z" fill="white"/>
<path d="M69.9986 113.948C71.1413 113.948 72.0676 113.021 72.0676 111.879C72.0676 110.736 71.1413 109.81 69.9986 109.81C68.856 109.81 67.9297 110.736 67.9297 111.879C67.9297 113.021 68.856 113.948 69.9986 113.948Z" fill="white"/>
<path d="M69.9986 130.499C71.1413 130.499 72.0676 129.573 72.0676 128.43C72.0676 127.288 71.1413 126.361 69.9986 126.361C68.856 126.361 67.9297 127.288 67.9297 128.43C67.9297 129.573 68.856 130.499 69.9986 130.499Z" fill="white"/>
<path d="M74.1393 18.7747C75.2819 18.7747 76.2082 17.8483 76.2082 16.7057C76.2082 15.563 75.2819 14.6367 74.1393 14.6367C72.9966 14.6367 72.0703 15.563 72.0703 16.7057C72.0703 17.8483 72.9966 18.7747 74.1393 18.7747Z" fill="white"/>
<path d="M74.1393 27.051C75.2819 27.051 76.2082 26.1247 76.2082 24.9821C76.2082 23.8394 75.2819 22.9131 74.1393 22.9131C72.9966 22.9131 72.0703 23.8394 72.0703 24.9821C72.0703 26.1247 72.9966 27.051 74.1393 27.051Z" fill="white"/>
<path d="M74.1393 31.1887C75.2819 31.1887 76.2082 30.2624 76.2082 29.1197C76.2082 27.9771 75.2819 27.0508 74.1393 27.0508C72.9966 27.0508 72.0703 27.9771 72.0703 29.1197C72.0703 30.2624 72.9966 31.1887 74.1393 31.1887Z" fill="white"/>
<path d="M74.1393 43.6028C75.2819 43.6028 76.2082 42.6765 76.2082 41.5338C76.2082 40.3912 75.2819 39.4648 74.1393 39.4648C72.9966 39.4648 72.0703 40.3912 72.0703 41.5338C72.0703 42.6765 72.9966 43.6028 74.1393 43.6028Z" fill="white"/>
<path d="M74.1393 51.8782C75.2819 51.8782 76.2082 50.9519 76.2082 49.8092C76.2082 48.6665 75.2819 47.7402 74.1393 47.7402C72.9966 47.7402 72.0703 48.6665 72.0703 49.8092C72.0703 50.9519 72.9966 51.8782 74.1393 51.8782Z" fill="white"/>
<path d="M74.1393 64.2922C75.2819 64.2922 76.2082 63.3659 76.2082 62.2233C76.2082 61.0806 75.2819 60.1543 74.1393 60.1543C72.9966 60.1543 72.0703 61.0806 72.0703 62.2233C72.0703 63.3659 72.9966 64.2922 74.1393 64.2922Z" fill="white"/>
<path d="M74.1393 76.7063C75.2819 76.7063 76.2082 75.78 76.2082 74.6373C76.2082 73.4947 75.2819 72.5684 74.1393 72.5684C72.9966 72.5684 72.0703 73.4947 72.0703 74.6373C72.0703 75.78 72.9966 76.7063 74.1393 76.7063Z" fill="white"/>
<path d="M74.1393 84.9817C75.2819 84.9817 76.2082 84.0554 76.2082 82.9127C76.2082 81.7701 75.2819 80.8438 74.1393 80.8438C72.9966 80.8438 72.0703 81.7701 72.0703 82.9127C72.0703 84.0554 72.9966 84.9817 74.1393 84.9817Z" fill="white"/>
<path d="M74.1393 89.1194C75.2819 89.1194 76.2082 88.1931 76.2082 87.0504C76.2082 85.9078 75.2819 84.9814 74.1393 84.9814C72.9966 84.9814 72.0703 85.9078 72.0703 87.0504C72.0703 88.1931 72.9966 89.1194 74.1393 89.1194Z" fill="white"/>
<path d="M74.1393 93.258C75.2819 93.258 76.2082 92.3317 76.2082 91.1891C76.2082 90.0464 75.2819 89.1201 74.1393 89.1201C72.9966 89.1201 72.0703 90.0464 72.0703 91.1891C72.0703 92.3317 72.9966 93.258 74.1393 93.258Z" fill="white"/>
<path d="M74.1393 97.3957C75.2819 97.3957 76.2082 96.4694 76.2082 95.3268C76.2082 94.1841 75.2819 93.2578 74.1393 93.2578C72.9966 93.2578 72.0703 94.1841 72.0703 95.3268C72.0703 96.4694 72.9966 97.3957 74.1393 97.3957Z" fill="white"/>
<path d="M74.1393 101.533C75.2819 101.533 76.2082 100.607 76.2082 99.4645C76.2082 98.3218 75.2819 97.3955 74.1393 97.3955C72.9966 97.3955 72.0703 98.3218 72.0703 99.4645C72.0703 100.607 72.9966 101.533 74.1393 101.533Z" fill="white"/>
<path d="M74.1393 105.671C75.2819 105.671 76.2082 104.745 76.2082 103.602C76.2082 102.46 75.2819 101.533 74.1393 101.533C72.9966 101.533 72.0703 102.46 72.0703 103.602C72.0703 104.745 72.9966 105.671 74.1393 105.671Z" fill="white"/>
<path d="M74.1393 109.81C75.2819 109.81 76.2082 108.883 76.2082 107.741C76.2082 106.598 75.2819 105.672 74.1393 105.672C72.9966 105.672 72.0703 106.598 72.0703 107.741C72.0703 108.883 72.9966 109.81 74.1393 109.81Z" fill="white"/>
<path d="M74.1393 118.085C75.2819 118.085 76.2082 117.159 76.2082 116.016C76.2082 114.874 75.2819 113.947 74.1393 113.947C72.9966 113.947 72.0703 114.874 72.0703 116.016C72.0703 117.159 72.9966 118.085 74.1393 118.085Z" fill="white"/>
<path d="M78.276 14.637C79.4186 14.637 80.3449 13.7106 80.3449 12.568C80.3449 11.4253 79.4186 10.499 78.276 10.499C77.1333 10.499 76.207 11.4253 76.207 12.568C76.207 13.7106 77.1333 14.637 78.276 14.637Z" fill="white"/>
<path d="M78.276 18.7747C79.4186 18.7747 80.3449 17.8483 80.3449 16.7057C80.3449 15.563 79.4186 14.6367 78.276 14.6367C77.1333 14.6367 76.207 15.563 76.207 16.7057C76.207 17.8483 77.1333 18.7747 78.276 18.7747Z" fill="white"/>
<path d="M78.276 22.9123C79.4186 22.9123 80.3449 21.986 80.3449 20.8434C80.3449 19.7007 79.4186 18.7744 78.276 18.7744C77.1333 18.7744 76.207 19.7007 76.207 20.8434C76.207 21.986 77.1333 22.9123 78.276 22.9123Z" fill="white"/>
<path d="M78.276 27.051C79.4186 27.051 80.3449 26.1247 80.3449 24.9821C80.3449 23.8394 79.4186 22.9131 78.276 22.9131C77.1333 22.9131 76.207 23.8394 76.207 24.9821C76.207 26.1247 77.1333 27.051 78.276 27.051Z" fill="white"/>
<path d="M78.276 39.4641C79.4186 39.4641 80.3449 38.5378 80.3449 37.3951C80.3449 36.2525 79.4186 35.3262 78.276 35.3262C77.1333 35.3262 76.207 36.2525 76.207 37.3951C76.207 38.5378 77.1333 39.4641 78.276 39.4641Z" fill="white"/>
<path d="M78.276 56.0159C79.4186 56.0159 80.3449 55.0896 80.3449 53.9469C80.3449 52.8042 79.4186 51.8779 78.276 51.8779C77.1333 51.8779 76.207 52.8042 76.207 53.9469C76.207 55.0896 77.1333 56.0159 78.276 56.0159Z" fill="white"/>
<path d="M78.276 68.4299C79.4186 68.4299 80.3449 67.5036 80.3449 66.361C80.3449 65.2183 79.4186 64.292 78.276 64.292C77.1333 64.292 76.207 65.2183 76.207 66.361C76.207 67.5036 77.1333 68.4299 78.276 68.4299Z" fill="white"/>
<path d="M78.276 89.1194C79.4186 89.1194 80.3449 88.1931 80.3449 87.0504C80.3449 85.9078 79.4186 84.9814 78.276 84.9814C77.1333 84.9814 76.207 85.9078 76.207 87.0504C76.207 88.1931 77.1333 89.1194 78.276 89.1194Z" fill="white"/>
<path d="M78.276 93.258C79.4186 93.258 80.3449 92.3317 80.3449 91.1891C80.3449 90.0464 79.4186 89.1201 78.276 89.1201C77.1333 89.1201 76.207 90.0464 76.207 91.1891C76.207 92.3317 77.1333 93.258 78.276 93.258Z" fill="white"/>
<path d="M78.276 97.3957C79.4186 97.3957 80.3449 96.4694 80.3449 95.3268C80.3449 94.1841 79.4186 93.2578 78.276 93.2578C77.1333 93.2578 76.207 94.1841 76.207 95.3268C76.207 96.4694 77.1333 97.3957 78.276 97.3957Z" fill="white"/>
<path d="M78.276 101.533C79.4186 101.533 80.3449 100.607 80.3449 99.4645C80.3449 98.3218 79.4186 97.3955 78.276 97.3955C77.1333 97.3955 76.207 98.3218 76.207 99.4645C76.207 100.607 77.1333 101.533 78.276 101.533Z" fill="white"/>
<path d="M78.276 109.81C79.4186 109.81 80.3449 108.883 80.3449 107.741C80.3449 106.598 79.4186 105.672 78.276 105.672C77.1333 105.672 76.207 106.598 76.207 107.741C76.207 108.883 77.1333 109.81 78.276 109.81Z" fill="white"/>
<path d="M78.276 126.362C79.4186 126.362 80.3449 125.435 80.3449 124.293C80.3449 123.15 79.4186 122.224 78.276 122.224C77.1333 122.224 76.207 123.15 76.207 124.293C76.207 125.435 77.1333 126.362 78.276 126.362Z" fill="white"/>
<path d="M78.276 130.499C79.4186 130.499 80.3449 129.573 80.3449 128.43C80.3449 127.288 79.4186 126.361 78.276 126.361C77.1333 126.361 76.207 127.288 76.207 128.43C76.207 129.573 77.1333 130.499 78.276 130.499Z" fill="white"/>
<path d="M82.4127 14.637C83.5553 14.637 84.4816 13.7106 84.4816 12.568C84.4816 11.4253 83.5553 10.499 82.4127 10.499C81.2701 10.499 80.3438 11.4253 80.3438 12.568C80.3438 13.7106 81.2701 14.637 82.4127 14.637Z" fill="white"/>
<path d="M82.4127 27.051C83.5553 27.051 84.4816 26.1247 84.4816 24.9821C84.4816 23.8394 83.5553 22.9131 82.4127 22.9131C81.2701 22.9131 80.3438 23.8394 80.3438 24.9821C80.3438 26.1247 81.2701 27.051 82.4127 27.051Z" fill="white"/>
<path d="M82.4127 31.1887C83.5553 31.1887 84.4816 30.2624 84.4816 29.1197C84.4816 27.9771 83.5553 27.0508 82.4127 27.0508C81.2701 27.0508 80.3438 27.9771 80.3438 29.1197C80.3438 30.2624 81.2701 31.1887 82.4127 31.1887Z" fill="white"/>
<path d="M82.4127 35.3264C83.5553 35.3264 84.4816 34.4001 84.4816 33.2574C84.4816 32.1148 83.5553 31.1885 82.4127 31.1885C81.2701 31.1885 80.3438 32.1148 80.3438 33.2574C80.3438 34.4001 81.2701 35.3264 82.4127 35.3264Z" fill="white"/>
<path d="M82.4127 43.6028C83.5553 43.6028 84.4816 42.6765 84.4816 41.5338C84.4816 40.3912 83.5553 39.4648 82.4127 39.4648C81.2701 39.4648 80.3438 40.3912 80.3438 41.5338C80.3438 42.6765 81.2701 43.6028 82.4127 43.6028Z" fill="white"/>
<path d="M82.4127 60.1545C83.5553 60.1545 84.4816 59.2282 84.4816 58.0856C84.4816 56.9429 83.5553 56.0166 82.4127 56.0166C81.2701 56.0166 80.3438 56.9429 80.3438 58.0856C80.3438 59.2282 81.2701 60.1545 82.4127 60.1545Z" fill="white"/>
<path d="M82.4127 64.2922C83.5553 64.2922 84.4816 63.3659 84.4816 62.2233C84.4816 61.0806 83.5553 60.1543 82.4127 60.1543C81.2701 60.1543 80.3438 61.0806 80.3438 62.2233C80.3438 63.3659 81.2701 64.2922 82.4127 64.2922Z" fill="white"/>
<path d="M82.4127 72.5676C83.5553 72.5676 84.4816 71.6413 84.4816 70.4987C84.4816 69.356 83.5553 68.4297 82.4127 68.4297C81.2701 68.4297 80.3438 69.356 80.3438 70.4987C80.3438 71.6413 81.2701 72.5676 82.4127 72.5676Z" fill="white"/>
<path d="M82.4127 80.844C83.5553 80.844 84.4816 79.9177 84.4816 78.775C84.4816 77.6324 83.5553 76.7061 82.4127 76.7061C81.2701 76.7061 80.3438 77.6324 80.3438 78.775C80.3438 79.9177 81.2701 80.844 82.4127 80.844Z" fill="white"/>
<path d="M82.4127 93.258C83.5553 93.258 84.4816 92.3317 84.4816 91.1891C84.4816 90.0464 83.5553 89.1201 82.4127 89.1201C81.2701 89.1201 80.3438 90.0464 80.3438 91.1891C80.3438 92.3317 81.2701 93.258 82.4127 93.258Z" fill="white"/>
<path d="M82.4127 97.3957C83.5553 97.3957 84.4816 96.4694 84.4816 95.3268C84.4816 94.1841 83.5553 93.2578 82.4127 93.2578C81.2701 93.2578 80.3438 94.1841 80.3438 95.3268C80.3438 96.4694 81.2701 97.3957 82.4127 97.3957Z" fill="white"/>
<path d="M82.4127 101.533C83.5553 101.533 84.4816 100.607 84.4816 99.4645C84.4816 98.3218 83.5553 97.3955 82.4127 97.3955C81.2701 97.3955 80.3438 98.3218 80.3438 99.4645C80.3438 100.607 81.2701 101.533 82.4127 101.533Z" fill="white"/>
<path d="M82.4127 109.81C83.5553 109.81 84.4816 108.883 84.4816 107.741C84.4816 106.598 83.5553 105.672 82.4127 105.672C81.2701 105.672 80.3438 106.598 80.3438 107.741C80.3438 108.883 81.2701 109.81 82.4127 109.81Z" fill="white"/>
<path d="M82.4127 113.948C83.5553 113.948 84.4816 113.021 84.4816 111.879C84.4816 110.736 83.5553 109.81 82.4127 109.81C81.2701 109.81 80.3438 110.736 80.3438 111.879C80.3438 113.021 81.2701 113.948 82.4127 113.948Z" fill="white"/>
<path d="M82.4127 130.499C83.5553 130.499 84.4816 129.573 84.4816 128.43C84.4816 127.288 83.5553 126.361 82.4127 126.361C81.2701 126.361 80.3438 127.288 80.3438 128.43C80.3438 129.573 81.2701 130.499 82.4127 130.499Z" fill="white"/>
<path d="M86.5494 22.9123C87.6921 22.9123 88.6184 21.986 88.6184 20.8434C88.6184 19.7007 87.6921 18.7744 86.5494 18.7744C85.4068 18.7744 84.4805 19.7007 84.4805 20.8434C84.4805 21.986 85.4068 22.9123 86.5494 22.9123Z" fill="white"/>
<path d="M86.5494 27.051C87.6921 27.051 88.6184 26.1247 88.6184 24.9821C88.6184 23.8394 87.6921 22.9131 86.5494 22.9131C85.4068 22.9131 84.4805 23.8394 84.4805 24.9821C84.4805 26.1247 85.4068 27.051 86.5494 27.051Z" fill="white"/>
<path d="M86.5494 39.4641C87.6921 39.4641 88.6184 38.5378 88.6184 37.3951C88.6184 36.2525 87.6921 35.3262 86.5494 35.3262C85.4068 35.3262 84.4805 36.2525 84.4805 37.3951C84.4805 38.5378 85.4068 39.4641 86.5494 39.4641Z" fill="white"/>
<path d="M86.5494 43.6028C87.6921 43.6028 88.6184 42.6765 88.6184 41.5338C88.6184 40.3912 87.6921 39.4648 86.5494 39.4648C85.4068 39.4648 84.4805 40.3912 84.4805 41.5338C84.4805 42.6765 85.4068 43.6028 86.5494 43.6028Z" fill="white"/>
<path d="M86.5494 47.7405C87.6921 47.7405 88.6184 46.8142 88.6184 45.6715C88.6184 44.5288 87.6921 43.6025 86.5494 43.6025C85.4068 43.6025 84.4805 44.5288 84.4805 45.6715C84.4805 46.8142 85.4068 47.7405 86.5494 47.7405Z" fill="white"/>
<path d="M86.5494 56.0159C87.6921 56.0159 88.6184 55.0896 88.6184 53.9469C88.6184 52.8042 87.6921 51.8779 86.5494 51.8779C85.4068 51.8779 84.4805 52.8042 84.4805 53.9469C84.4805 55.0896 85.4068 56.0159 86.5494 56.0159Z" fill="white"/>
<path d="M86.5494 68.4299C87.6921 68.4299 88.6184 67.5036 88.6184 66.361C88.6184 65.2183 87.6921 64.292 86.5494 64.292C85.4068 64.292 84.4805 65.2183 84.4805 66.361C84.4805 67.5036 85.4068 68.4299 86.5494 68.4299Z" fill="white"/>
<path d="M86.5494 72.5676C87.6921 72.5676 88.6184 71.6413 88.6184 70.4987C88.6184 69.356 87.6921 68.4297 86.5494 68.4297C85.4068 68.4297 84.4805 69.356 84.4805 70.4987C84.4805 71.6413 85.4068 72.5676 86.5494 72.5676Z" fill="white"/>
<path d="M86.5494 80.844C87.6921 80.844 88.6184 79.9177 88.6184 78.775C88.6184 77.6324 87.6921 76.7061 86.5494 76.7061C85.4068 76.7061 84.4805 77.6324 84.4805 78.775C84.4805 79.9177 85.4068 80.844 86.5494 80.844Z" fill="white"/>
<path d="M86.5494 84.9817C87.6921 84.9817 88.6184 84.0554 88.6184 82.9127C88.6184 81.7701 87.6921 80.8438 86.5494 80.8438C85.4068 80.8438 84.4805 81.7701 84.4805 82.9127C84.4805 84.0554 85.4068 84.9817 86.5494 84.9817Z" fill="white"/>
<path d="M86.5494 118.085C87.6921 118.085 88.6184 117.159 88.6184 116.016C88.6184 114.874 87.6921 113.947 86.5494 113.947C85.4068 113.947 84.4805 114.874 84.4805 116.016C84.4805 117.159 85.4068 118.085 86.5494 118.085Z" fill="white"/>
<path d="M86.5494 122.223C87.6921 122.223 88.6184 121.297 88.6184 120.154C88.6184 119.011 87.6921 118.085 86.5494 118.085C85.4068 118.085 84.4805 119.011 84.4805 120.154C84.4805 121.297 85.4068 122.223 86.5494 122.223Z" fill="white"/>
<path d="M86.5494 130.499C87.6921 130.499 88.6184 129.573 88.6184 128.43C88.6184 127.288 87.6921 126.361 86.5494 126.361C85.4068 126.361 84.4805 127.288 84.4805 128.43C84.4805 129.573 85.4068 130.499 86.5494 130.499Z" fill="white"/>
<path d="M90.69 35.3264C91.8327 35.3264 92.759 34.4001 92.759 33.2574C92.759 32.1148 91.8327 31.1885 90.69 31.1885C89.5474 31.1885 88.6211 32.1148 88.6211 33.2574C88.6211 34.4001 89.5474 35.3264 90.69 35.3264Z" fill="white"/>
<path d="M90.69 68.4299C91.8327 68.4299 92.759 67.5036 92.759 66.361C92.759 65.2183 91.8327 64.292 90.69 64.292C89.5474 64.292 88.6211 65.2183 88.6211 66.361C88.6211 67.5036 89.5474 68.4299 90.69 68.4299Z" fill="white"/>
<path d="M90.69 84.9817C91.8327 84.9817 92.759 84.0554 92.759 82.9127C92.759 81.7701 91.8327 80.8438 90.69 80.8438C89.5474 80.8438 88.6211 81.7701 88.6211 82.9127C88.6211 84.0554 89.5474 84.9817 90.69 84.9817Z" fill="white"/>
<path d="M90.69 89.1194C91.8327 89.1194 92.759 88.1931 92.759 87.0504C92.759 85.9078 91.8327 84.9814 90.69 84.9814C89.5474 84.9814 88.6211 85.9078 88.6211 87.0504C88.6211 88.1931 89.5474 89.1194 90.69 89.1194Z" fill="white"/>
<path d="M90.69 118.085C91.8327 118.085 92.759 117.159 92.759 116.016C92.759 114.874 91.8327 113.947 90.69 113.947C89.5474 113.947 88.6211 114.874 88.6211 116.016C88.6211 117.159 89.5474 118.085 90.69 118.085Z" fill="white"/>
<path d="M90.69 130.499C91.8327 130.499 92.759 129.573 92.759 128.43C92.759 127.288 91.8327 126.361 90.69 126.361C89.5474 126.361 88.6211 127.288 88.6211 128.43C88.6211 129.573 89.5474 130.499 90.69 130.499Z" fill="white"/>
<path d="M94.8268 14.637C95.9694 14.637 96.8957 13.7106 96.8957 12.568C96.8957 11.4253 95.9694 10.499 94.8268 10.499C93.6841 10.499 92.7578 11.4253 92.7578 12.568C92.7578 13.7106 93.6841 14.637 94.8268 14.637Z" fill="white"/>
<path d="M94.8268 18.7747C95.9694 18.7747 96.8957 17.8483 96.8957 16.7057C96.8957 15.563 95.9694 14.6367 94.8268 14.6367C93.6841 14.6367 92.7578 15.563 92.7578 16.7057C92.7578 17.8483 93.6841 18.7747 94.8268 18.7747Z" fill="white"/>
<path d="M94.8268 27.051C95.9694 27.051 96.8957 26.1247 96.8957 24.9821C96.8957 23.8394 95.9694 22.9131 94.8268 22.9131C93.6841 22.9131 92.7578 23.8394 92.7578 24.9821C92.7578 26.1247 93.6841 27.051 94.8268 27.051Z" fill="white"/>
<path d="M94.8268 35.3264C95.9694 35.3264 96.8957 34.4001 96.8957 33.2574C96.8957 32.1148 95.9694 31.1885 94.8268 31.1885C93.6841 31.1885 92.7578 32.1148 92.7578 33.2574C92.7578 34.4001 93.6841 35.3264 94.8268 35.3264Z" fill="white"/>
<path d="M94.8268 39.4641C95.9694 39.4641 96.8957 38.5378 96.8957 37.3951C96.8957 36.2525 95.9694 35.3262 94.8268 35.3262C93.6841 35.3262 92.7578 36.2525 92.7578 37.3951C92.7578 38.5378 93.6841 39.4641 94.8268 39.4641Z" fill="white"/>
<path d="M94.8268 51.8782C95.9694 51.8782 96.8957 50.9519 96.8957 49.8092C96.8957 48.6665 95.9694 47.7402 94.8268 47.7402C93.6841 47.7402 92.7578 48.6665 92.7578 49.8092C92.7578 50.9519 93.6841 51.8782 94.8268 51.8782Z" fill="white"/>
<path d="M94.8268 56.0159C95.9694 56.0159 96.8957 55.0896 96.8957 53.9469C96.8957 52.8042 95.9694 51.8779 94.8268 51.8779C93.6841 51.8779 92.7578 52.8042 92.7578 53.9469C92.7578 55.0896 93.6841 56.0159 94.8268 56.0159Z" fill="white"/>
<path d="M94.8268 60.1545C95.9694 60.1545 96.8957 59.2282 96.8957 58.0856C96.8957 56.9429 95.9694 56.0166 94.8268 56.0166C93.6841 56.0166 92.7578 56.9429 92.7578 58.0856C92.7578 59.2282 93.6841 60.1545 94.8268 60.1545Z" fill="white"/>
<path d="M94.8268 68.4299C95.9694 68.4299 96.8957 67.5036 96.8957 66.361C96.8957 65.2183 95.9694 64.292 94.8268 64.292C93.6841 64.292 92.7578 65.2183 92.7578 66.361C92.7578 67.5036 93.6841 68.4299 94.8268 68.4299Z" fill="white"/>
<path d="M94.8268 76.7063C95.9694 76.7063 96.8957 75.78 96.8957 74.6373C96.8957 73.4947 95.9694 72.5684 94.8268 72.5684C93.6841 72.5684 92.7578 73.4947 92.7578 74.6373C92.7578 75.78 93.6841 76.7063 94.8268 76.7063Z" fill="white"/>
<path d="M94.8268 84.9817C95.9694 84.9817 96.8957 84.0554 96.8957 82.9127C96.8957 81.7701 95.9694 80.8438 94.8268 80.8438C93.6841 80.8438 92.7578 81.7701 92.7578 82.9127C92.7578 84.0554 93.6841 84.9817 94.8268 84.9817Z" fill="white"/>
<path d="M94.8268 97.3957C95.9694 97.3957 96.8957 96.4694 96.8957 95.3268C96.8957 94.1841 95.9694 93.2578 94.8268 93.2578C93.6841 93.2578 92.7578 94.1841 92.7578 95.3268C92.7578 96.4694 93.6841 97.3957 94.8268 97.3957Z" fill="white"/>
<path d="M94.8268 101.533C95.9694 101.533 96.8957 100.607 96.8957 99.4645C96.8957 98.3218 95.9694 97.3955 94.8268 97.3955C93.6841 97.3955 92.7578 98.3218 92.7578 99.4645C92.7578 100.607 93.6841 101.533 94.8268 101.533Z" fill="white"/>
<path d="M94.8268 105.671C95.9694 105.671 96.8957 104.745 96.8957 103.602C96.8957 102.46 95.9694 101.533 94.8268 101.533C93.6841 101.533 92.7578 102.46 92.7578 103.602C92.7578 104.745 93.6841 105.671 94.8268 105.671Z" fill="white"/>
<path d="M94.8268 109.81C95.9694 109.81 96.8957 108.883 96.8957 107.741C96.8957 106.598 95.9694 105.672 94.8268 105.672C93.6841 105.672 92.7578 106.598 92.7578 107.741C92.7578 108.883 93.6841 109.81 94.8268 109.81Z" fill="white"/>
<path d="M94.8268 113.948C95.9694 113.948 96.8957 113.021 96.8957 111.879C96.8957 110.736 95.9694 109.81 94.8268 109.81C93.6841 109.81 92.7578 110.736 92.7578 111.879C92.7578 113.021 93.6841 113.948 94.8268 113.948Z" fill="white"/>
<path d="M94.8268 130.499C95.9694 130.499 96.8957 129.573 96.8957 128.43C96.8957 127.288 95.9694 126.361 94.8268 126.361C93.6841 126.361 92.7578 127.288 92.7578 128.43C92.7578 129.573 93.6841 130.499 94.8268 130.499Z" fill="white"/>
<path d="M98.9635 47.7405C100.106 47.7405 101.032 46.8142 101.032 45.6715C101.032 44.5288 100.106 43.6025 98.9635 43.6025C97.8208 43.6025 96.8945 44.5288 96.8945 45.6715C96.8945 46.8142 97.8208 47.7405 98.9635 47.7405Z" fill="white"/>
<path d="M98.9635 51.8782C100.106 51.8782 101.032 50.9519 101.032 49.8092C101.032 48.6665 100.106 47.7402 98.9635 47.7402C97.8208 47.7402 96.8945 48.6665 96.8945 49.8092C96.8945 50.9519 97.8208 51.8782 98.9635 51.8782Z" fill="white"/>
<path d="M98.9635 60.1545C100.106 60.1545 101.032 59.2282 101.032 58.0856C101.032 56.9429 100.106 56.0166 98.9635 56.0166C97.8208 56.0166 96.8945 56.9429 96.8945 58.0856C96.8945 59.2282 97.8208 60.1545 98.9635 60.1545Z" fill="white"/>
<path d="M98.9635 68.4299C100.106 68.4299 101.032 67.5036 101.032 66.361C101.032 65.2183 100.106 64.292 98.9635 64.292C97.8208 64.292 96.8945 65.2183 96.8945 66.361C96.8945 67.5036 97.8208 68.4299 98.9635 68.4299Z" fill="white"/>
<path d="M98.9635 72.5676C100.106 72.5676 101.032 71.6413 101.032 70.4987C101.032 69.356 100.106 68.4297 98.9635 68.4297C97.8208 68.4297 96.8945 69.356 96.8945 70.4987C96.8945 71.6413 97.8208 72.5676 98.9635 72.5676Z" fill="white"/>
<path d="M98.9635 76.7063C100.106 76.7063 101.032 75.78 101.032 74.6373C101.032 73.4947 100.106 72.5684 98.9635 72.5684C97.8208 72.5684 96.8945 73.4947 96.8945 74.6373C96.8945 75.78 97.8208 76.7063 98.9635 76.7063Z" fill="white"/>
<path d="M98.9635 80.844C100.106 80.844 101.032 79.9177 101.032 78.775C101.032 77.6324 100.106 76.7061 98.9635 76.7061C97.8208 76.7061 96.8945 77.6324 96.8945 78.775C96.8945 79.9177 97.8208 80.844 98.9635 80.844Z" fill="white"/>
<path d="M98.9635 84.9817C100.106 84.9817 101.032 84.0554 101.032 82.9127C101.032 81.7701 100.106 80.8438 98.9635 80.8438C97.8208 80.8438 96.8945 81.7701 96.8945 82.9127C96.8945 84.0554 97.8208 84.9817 98.9635 84.9817Z" fill="white"/>
<path d="M98.9635 93.258C100.106 93.258 101.032 92.3317 101.032 91.1891C101.032 90.0464 100.106 89.1201 98.9635 89.1201C97.8208 89.1201 96.8945 90.0464 96.8945 91.1891C96.8945 92.3317 97.8208 93.258 98.9635 93.258Z" fill="white"/>
<path d="M98.9635 97.3957C100.106 97.3957 101.032 96.4694 101.032 95.3268C101.032 94.1841 100.106 93.2578 98.9635 93.2578C97.8208 93.2578 96.8945 94.1841 96.8945 95.3268C96.8945 96.4694 97.8208 97.3957 98.9635 97.3957Z" fill="white"/>
<path d="M98.9635 113.948C100.106 113.948 101.032 113.021 101.032 111.879C101.032 110.736 100.106 109.81 98.9635 109.81C97.8208 109.81 96.8945 110.736 96.8945 111.879C96.8945 113.021 97.8208 113.948 98.9635 113.948Z" fill="white"/>
<path d="M98.9635 122.223C100.106 122.223 101.032 121.297 101.032 120.154C101.032 119.011 100.106 118.085 98.9635 118.085C97.8208 118.085 96.8945 119.011 96.8945 120.154C96.8945 121.297 97.8208 122.223 98.9635 122.223Z" fill="white"/>
<path d="M98.9635 130.499C100.106 130.499 101.032 129.573 101.032 128.43C101.032 127.288 100.106 126.361 98.9635 126.361C97.8208 126.361 96.8945 127.288 96.8945 128.43C96.8945 129.573 97.8208 130.499 98.9635 130.499Z" fill="white"/>
<path d="M103.104 51.8782C104.247 51.8782 105.173 50.9519 105.173 49.8092C105.173 48.6665 104.247 47.7402 103.104 47.7402C101.961 47.7402 101.035 48.6665 101.035 49.8092C101.035 50.9519 101.961 51.8782 103.104 51.8782Z" fill="white"/>
<path d="M103.104 64.2922C104.247 64.2922 105.173 63.3659 105.173 62.2233C105.173 61.0806 104.247 60.1543 103.104 60.1543C101.961 60.1543 101.035 61.0806 101.035 62.2233C101.035 63.3659 101.961 64.2922 103.104 64.2922Z" fill="white"/>
<path d="M103.104 68.4299C104.247 68.4299 105.173 67.5036 105.173 66.361C105.173 65.2183 104.247 64.292 103.104 64.292C101.961 64.292 101.035 65.2183 101.035 66.361C101.035 67.5036 101.961 68.4299 103.104 68.4299Z" fill="white"/>
<path d="M103.104 76.7063C104.247 76.7063 105.173 75.78 105.173 74.6373C105.173 73.4947 104.247 72.5684 103.104 72.5684C101.961 72.5684 101.035 73.4947 101.035 74.6373C101.035 75.78 101.961 76.7063 103.104 76.7063Z" fill="white"/>
<path d="M103.104 80.844C104.247 80.844 105.173 79.9177 105.173 78.775C105.173 77.6324 104.247 76.7061 103.104 76.7061C101.961 76.7061 101.035 77.6324 101.035 78.775C101.035 79.9177 101.961 80.844 103.104 80.844Z" fill="white"/>
<path d="M103.104 89.1194C104.247 89.1194 105.173 88.1931 105.173 87.0504C105.173 85.9078 104.247 84.9814 103.104 84.9814C101.961 84.9814 101.035 85.9078 101.035 87.0504C101.035 88.1931 101.961 89.1194 103.104 89.1194Z" fill="white"/>
<path d="M103.104 93.258C104.247 93.258 105.173 92.3317 105.173 91.1891C105.173 90.0464 104.247 89.1201 103.104 89.1201C101.961 89.1201 101.035 90.0464 101.035 91.1891C101.035 92.3317 101.961 93.258 103.104 93.258Z" fill="white"/>
<path d="M103.104 97.3957C104.247 97.3957 105.173 96.4694 105.173 95.3268C105.173 94.1841 104.247 93.2578 103.104 93.2578C101.961 93.2578 101.035 94.1841 101.035 95.3268C101.035 96.4694 101.961 97.3957 103.104 97.3957Z" fill="white"/>
<path d="M103.104 105.671C104.247 105.671 105.173 104.745 105.173 103.602C105.173 102.46 104.247 101.533 103.104 101.533C101.961 101.533 101.035 102.46 101.035 103.602C101.035 104.745 101.961 105.671 103.104 105.671Z" fill="white"/>
<path d="M103.104 113.948C104.247 113.948 105.173 113.021 105.173 111.879C105.173 110.736 104.247 109.81 103.104 109.81C101.961 109.81 101.035 110.736 101.035 111.879C101.035 113.021 101.961 113.948 103.104 113.948Z" fill="white"/>
<path d="M103.104 130.499C104.247 130.499 105.173 129.573 105.173 128.43C105.173 127.288 104.247 126.361 103.104 126.361C101.961 126.361 101.035 127.288 101.035 128.43C101.035 129.573 101.961 130.499 103.104 130.499Z" fill="white"/>
<path d="M107.241 51.8782C108.383 51.8782 109.31 50.9519 109.31 49.8092C109.31 48.6665 108.383 47.7402 107.241 47.7402C106.098 47.7402 105.172 48.6665 105.172 49.8092C105.172 50.9519 106.098 51.8782 107.241 51.8782Z" fill="white"/>
<path d="M107.241 56.0159C108.383 56.0159 109.31 55.0896 109.31 53.9469C109.31 52.8042 108.383 51.8779 107.241 51.8779C106.098 51.8779 105.172 52.8042 105.172 53.9469C105.172 55.0896 106.098 56.0159 107.241 56.0159Z" fill="white"/>
<path d="M107.241 60.1545C108.383 60.1545 109.31 59.2282 109.31 58.0856C109.31 56.9429 108.383 56.0166 107.241 56.0166C106.098 56.0166 105.172 56.9429 105.172 58.0856C105.172 59.2282 106.098 60.1545 107.241 60.1545Z" fill="white"/>
<path d="M107.241 72.5676C108.383 72.5676 109.31 71.6413 109.31 70.4987C109.31 69.356 108.383 68.4297 107.241 68.4297C106.098 68.4297 105.172 69.356 105.172 70.4987C105.172 71.6413 106.098 72.5676 107.241 72.5676Z" fill="white"/>
<path d="M107.241 93.258C108.383 93.258 109.31 92.3317 109.31 91.1891C109.31 90.0464 108.383 89.1201 107.241 89.1201C106.098 89.1201 105.172 90.0464 105.172 91.1891C105.172 92.3317 106.098 93.258 107.241 93.258Z" fill="white"/>
<path d="M107.241 97.3957C108.383 97.3957 109.31 96.4694 109.31 95.3268C109.31 94.1841 108.383 93.2578 107.241 93.2578C106.098 93.2578 105.172 94.1841 105.172 95.3268C105.172 96.4694 106.098 97.3957 107.241 97.3957Z" fill="white"/>
<path d="M107.241 113.948C108.383 113.948 109.31 113.021 109.31 111.879C109.31 110.736 108.383 109.81 107.241 109.81C106.098 109.81 105.172 110.736 105.172 111.879C105.172 113.021 106.098 113.948 107.241 113.948Z" fill="white"/>
<path d="M107.241 118.085C108.383 118.085 109.31 117.159 109.31 116.016C109.31 114.874 108.383 113.947 107.241 113.947C106.098 113.947 105.172 114.874 105.172 116.016C105.172 117.159 106.098 118.085 107.241 118.085Z" fill="white"/>
<path d="M111.378 47.7405C112.52 47.7405 113.446 46.8142 113.446 45.6715C113.446 44.5288 112.52 43.6025 111.378 43.6025C110.235 43.6025 109.309 44.5288 109.309 45.6715C109.309 46.8142 110.235 47.7405 111.378 47.7405Z" fill="white"/>
<path d="M111.378 56.0159C112.52 56.0159 113.446 55.0896 113.446 53.9469C113.446 52.8042 112.52 51.8779 111.378 51.8779C110.235 51.8779 109.309 52.8042 109.309 53.9469C109.309 55.0896 110.235 56.0159 111.378 56.0159Z" fill="white"/>
<path d="M111.378 72.5676C112.52 72.5676 113.446 71.6413 113.446 70.4987C113.446 69.356 112.52 68.4297 111.378 68.4297C110.235 68.4297 109.309 69.356 109.309 70.4987C109.309 71.6413 110.235 72.5676 111.378 72.5676Z" fill="white"/>
<path d="M111.378 76.7063C112.52 76.7063 113.446 75.78 113.446 74.6373C113.446 73.4947 112.52 72.5684 111.378 72.5684C110.235 72.5684 109.309 73.4947 109.309 74.6373C109.309 75.78 110.235 76.7063 111.378 76.7063Z" fill="white"/>
<path d="M111.378 80.844C112.52 80.844 113.446 79.9177 113.446 78.775C113.446 77.6324 112.52 76.7061 111.378 76.7061C110.235 76.7061 109.309 77.6324 109.309 78.775C109.309 79.9177 110.235 80.844 111.378 80.844Z" fill="white"/>
<path d="M111.378 93.258C112.52 93.258 113.446 92.3317 113.446 91.1891C113.446 90.0464 112.52 89.1201 111.378 89.1201C110.235 89.1201 109.309 90.0464 109.309 91.1891C109.309 92.3317 110.235 93.258 111.378 93.258Z" fill="white"/>
<path d="M111.378 97.3957C112.52 97.3957 113.446 96.4694 113.446 95.3268C113.446 94.1841 112.52 93.2578 111.378 93.2578C110.235 93.2578 109.309 94.1841 109.309 95.3268C109.309 96.4694 110.235 97.3957 111.378 97.3957Z" fill="white"/>
<path d="M111.378 101.533C112.52 101.533 113.446 100.607 113.446 99.4645C113.446 98.3218 112.52 97.3955 111.378 97.3955C110.235 97.3955 109.309 98.3218 109.309 99.4645C109.309 100.607 110.235 101.533 111.378 101.533Z" fill="white"/>
<path d="M111.378 105.671C112.52 105.671 113.446 104.745 113.446 103.602C113.446 102.46 112.52 101.533 111.378 101.533C110.235 101.533 109.309 102.46 109.309 103.602C109.309 104.745 110.235 105.671 111.378 105.671Z" fill="white"/>
<path d="M111.378 109.81C112.52 109.81 113.446 108.883 113.446 107.741C113.446 106.598 112.52 105.672 111.378 105.672C110.235 105.672 109.309 106.598 109.309 107.741C109.309 108.883 110.235 109.81 111.378 109.81Z" fill="white"/>
<path d="M111.378 113.948C112.52 113.948 113.446 113.021 113.446 111.879C113.446 110.736 112.52 109.81 111.378 109.81C110.235 109.81 109.309 110.736 109.309 111.879C109.309 113.021 110.235 113.948 111.378 113.948Z" fill="white"/>
<path d="M115.518 56.0159C116.661 56.0159 117.587 55.0896 117.587 53.9469C117.587 52.8042 116.661 51.8779 115.518 51.8779C114.376 51.8779 113.449 52.8042 113.449 53.9469C113.449 55.0896 114.376 56.0159 115.518 56.0159Z" fill="white"/>
<path d="M115.518 68.4299C116.661 68.4299 117.587 67.5036 117.587 66.361C117.587 65.2183 116.661 64.292 115.518 64.292C114.376 64.292 113.449 65.2183 113.449 66.361C113.449 67.5036 114.376 68.4299 115.518 68.4299Z" fill="white"/>
<path d="M115.518 72.5676C116.661 72.5676 117.587 71.6413 117.587 70.4987C117.587 69.356 116.661 68.4297 115.518 68.4297C114.376 68.4297 113.449 69.356 113.449 70.4987C113.449 71.6413 114.376 72.5676 115.518 72.5676Z" fill="white"/>
<path d="M115.518 89.1194C116.661 89.1194 117.587 88.1931 117.587 87.0504C117.587 85.9078 116.661 84.9814 115.518 84.9814C114.376 84.9814 113.449 85.9078 113.449 87.0504C113.449 88.1931 114.376 89.1194 115.518 89.1194Z" fill="white"/>
<path d="M115.518 109.81C116.661 109.81 117.587 108.883 117.587 107.741C117.587 106.598 116.661 105.672 115.518 105.672C114.376 105.672 113.449 106.598 113.449 107.741C113.449 108.883 114.376 109.81 115.518 109.81Z" fill="white"/>
<path d="M115.518 118.085C116.661 118.085 117.587 117.159 117.587 116.016C117.587 114.874 116.661 113.947 115.518 113.947C114.376 113.947 113.449 114.874 113.449 116.016C113.449 117.159 114.376 118.085 115.518 118.085Z" fill="white"/>
<path d="M115.518 122.223C116.661 122.223 117.587 121.297 117.587 120.154C117.587 119.011 116.661 118.085 115.518 118.085C114.376 118.085 113.449 119.011 113.449 120.154C113.449 121.297 114.376 122.223 115.518 122.223Z" fill="white"/>
<path d="M115.518 126.362C116.661 126.362 117.587 125.435 117.587 124.293C117.587 123.15 116.661 122.224 115.518 122.224C114.376 122.224 113.449 123.15 113.449 124.293C113.449 125.435 114.376 126.362 115.518 126.362Z" fill="white"/>
<path d="M119.655 51.8782C120.798 51.8782 121.724 50.9519 121.724 49.8092C121.724 48.6665 120.798 47.7402 119.655 47.7402C118.512 47.7402 117.586 48.6665 117.586 49.8092C117.586 50.9519 118.512 51.8782 119.655 51.8782Z" fill="white"/>
<path d="M119.655 64.2922C120.798 64.2922 121.724 63.3659 121.724 62.2233C121.724 61.0806 120.798 60.1543 119.655 60.1543C118.512 60.1543 117.586 61.0806 117.586 62.2233C117.586 63.3659 118.512 64.2922 119.655 64.2922Z" fill="white"/>
<path d="M119.655 68.4299C120.798 68.4299 121.724 67.5036 121.724 66.361C121.724 65.2183 120.798 64.292 119.655 64.292C118.512 64.292 117.586 65.2183 117.586 66.361C117.586 67.5036 118.512 68.4299 119.655 68.4299Z" fill="white"/>
<path d="M119.655 72.5676C120.798 72.5676 121.724 71.6413 121.724 70.4987C121.724 69.356 120.798 68.4297 119.655 68.4297C118.512 68.4297 117.586 69.356 117.586 70.4987C117.586 71.6413 118.512 72.5676 119.655 72.5676Z" fill="white"/>
<path d="M119.655 76.7063C120.798 76.7063 121.724 75.78 121.724 74.6373C121.724 73.4947 120.798 72.5684 119.655 72.5684C118.512 72.5684 117.586 73.4947 117.586 74.6373C117.586 75.78 118.512 76.7063 119.655 76.7063Z" fill="white"/>
<path d="M119.655 93.258C120.798 93.258 121.724 92.3317 121.724 91.1891C121.724 90.0464 120.798 89.1201 119.655 89.1201C118.512 89.1201 117.586 90.0464 117.586 91.1891C117.586 92.3317 118.512 93.258 119.655 93.258Z" fill="white"/>
<path d="M119.655 97.3957C120.798 97.3957 121.724 96.4694 121.724 95.3268C121.724 94.1841 120.798 93.2578 119.655 93.2578C118.512 93.2578 117.586 94.1841 117.586 95.3268C117.586 96.4694 118.512 97.3957 119.655 97.3957Z" fill="white"/>
<path d="M119.655 101.533C120.798 101.533 121.724 100.607 121.724 99.4645C121.724 98.3218 120.798 97.3955 119.655 97.3955C118.512 97.3955 117.586 98.3218 117.586 99.4645C117.586 100.607 118.512 101.533 119.655 101.533Z" fill="white"/>
<path d="M119.655 118.085C120.798 118.085 121.724 117.159 121.724 116.016C121.724 114.874 120.798 113.947 119.655 113.947C118.512 113.947 117.586 114.874 117.586 116.016C117.586 117.159 118.512 118.085 119.655 118.085Z" fill="white"/>
<path d="M119.655 126.362C120.798 126.362 121.724 125.435 121.724 124.293C121.724 123.15 120.798 122.224 119.655 122.224C118.512 122.224 117.586 123.15 117.586 124.293C117.586 125.435 118.512 126.362 119.655 126.362Z" fill="white"/>
<path d="M119.655 130.499C120.798 130.499 121.724 129.573 121.724 128.43C121.724 127.288 120.798 126.361 119.655 126.361C118.512 126.361 117.586 127.288 117.586 128.43C117.586 129.573 118.512 130.499 119.655 130.499Z" fill="white"/>
<path d="M123.792 47.7405C124.934 47.7405 125.861 46.8142 125.861 45.6715C125.861 44.5288 124.934 43.6025 123.792 43.6025C122.649 43.6025 121.723 44.5288 121.723 45.6715C121.723 46.8142 122.649 47.7405 123.792 47.7405Z" fill="white"/>
<path d="M123.792 51.8782C124.934 51.8782 125.861 50.9519 125.861 49.8092C125.861 48.6665 124.934 47.7402 123.792 47.7402C122.649 47.7402 121.723 48.6665 121.723 49.8092C121.723 50.9519 122.649 51.8782 123.792 51.8782Z" fill="white"/>
<path d="M123.792 56.0159C124.934 56.0159 125.861 55.0896 125.861 53.9469C125.861 52.8042 124.934 51.8779 123.792 51.8779C122.649 51.8779 121.723 52.8042 121.723 53.9469C121.723 55.0896 122.649 56.0159 123.792 56.0159Z" fill="white"/>
<path d="M123.792 60.1545C124.934 60.1545 125.861 59.2282 125.861 58.0856C125.861 56.9429 124.934 56.0166 123.792 56.0166C122.649 56.0166 121.723 56.9429 121.723 58.0856C121.723 59.2282 122.649 60.1545 123.792 60.1545Z" fill="white"/>
<path d="M123.792 68.4299C124.934 68.4299 125.861 67.5036 125.861 66.361C125.861 65.2183 124.934 64.292 123.792 64.292C122.649 64.292 121.723 65.2183 121.723 66.361C121.723 67.5036 122.649 68.4299 123.792 68.4299Z" fill="white"/>
<path d="M123.792 76.7063C124.934 76.7063 125.861 75.78 125.861 74.6373C125.861 73.4947 124.934 72.5684 123.792 72.5684C122.649 72.5684 121.723 73.4947 121.723 74.6373C121.723 75.78 122.649 76.7063 123.792 76.7063Z" fill="white"/>
<path d="M123.792 80.844C124.934 80.844 125.861 79.9177 125.861 78.775C125.861 77.6324 124.934 76.7061 123.792 76.7061C122.649 76.7061 121.723 77.6324 121.723 78.775C121.723 79.9177 122.649 80.844 123.792 80.844Z" fill="white"/>
<path d="M123.792 84.9817C124.934 84.9817 125.861 84.0554 125.861 82.9127C125.861 81.7701 124.934 80.8438 123.792 80.8438C122.649 80.8438 121.723 81.7701 121.723 82.9127C121.723 84.0554 122.649 84.9817 123.792 84.9817Z" fill="white"/>
<path d="M123.792 97.3957C124.934 97.3957 125.861 96.4694 125.861 95.3268C125.861 94.1841 124.934 93.2578 123.792 93.2578C122.649 93.2578 121.723 94.1841 121.723 95.3268C121.723 96.4694 122.649 97.3957 123.792 97.3957Z" fill="white"/>
<path d="M123.792 105.671C124.934 105.671 125.861 104.745 125.861 103.602C125.861 102.46 124.934 101.533 123.792 101.533C122.649 101.533 121.723 102.46 121.723 103.602C121.723 104.745 122.649 105.671 123.792 105.671Z" fill="white"/>
<path d="M123.792 109.81C124.934 109.81 125.861 108.883 125.861 107.741C125.861 106.598 124.934 105.672 123.792 105.672C122.649 105.672 121.723 106.598 121.723 107.741C121.723 108.883 122.649 109.81 123.792 109.81Z" fill="white"/>
<path d="M123.792 118.085C124.934 118.085 125.861 117.159 125.861 116.016C125.861 114.874 124.934 113.947 123.792 113.947C122.649 113.947 121.723 114.874 121.723 116.016C121.723 117.159 122.649 118.085 123.792 118.085Z" fill="white"/>
<path d="M123.792 126.362C124.934 126.362 125.861 125.435 125.861 124.293C125.861 123.15 124.934 122.224 123.792 122.224C122.649 122.224 121.723 123.15 121.723 124.293C121.723 125.435 122.649 126.362 123.792 126.362Z" fill="white"/>
<path d="M123.792 130.499C124.934 130.499 125.861 129.573 125.861 128.43C125.861 127.288 124.934 126.361 123.792 126.361C122.649 126.361 121.723 127.288 121.723 128.43C121.723 129.573 122.649 130.499 123.792 130.499Z" fill="white"/>
<path d="M127.932 51.8782C129.075 51.8782 130.001 50.9519 130.001 49.8092C130.001 48.6665 129.075 47.7402 127.932 47.7402C126.79 47.7402 125.863 48.6665 125.863 49.8092C125.863 50.9519 126.79 51.8782 127.932 51.8782Z" fill="white"/>
<path d="M127.932 56.0159C129.075 56.0159 130.001 55.0896 130.001 53.9469C130.001 52.8042 129.075 51.8779 127.932 51.8779C126.79 51.8779 125.863 52.8042 125.863 53.9469C125.863 55.0896 126.79 56.0159 127.932 56.0159Z" fill="white"/>
<path d="M127.932 68.4299C129.075 68.4299 130.001 67.5036 130.001 66.361C130.001 65.2183 129.075 64.292 127.932 64.292C126.79 64.292 125.863 65.2183 125.863 66.361C125.863 67.5036 126.79 68.4299 127.932 68.4299Z" fill="white"/>
<path d="M127.932 84.9817C129.075 84.9817 130.001 84.0554 130.001 82.9127C130.001 81.7701 129.075 80.8438 127.932 80.8438C126.79 80.8438 125.863 81.7701 125.863 82.9127C125.863 84.0554 126.79 84.9817 127.932 84.9817Z" fill="white"/>
<path d="M127.932 89.1194C129.075 89.1194 130.001 88.1931 130.001 87.0504C130.001 85.9078 129.075 84.9814 127.932 84.9814C126.79 84.9814 125.863 85.9078 125.863 87.0504C125.863 88.1931 126.79 89.1194 127.932 89.1194Z" fill="white"/>
<path d="M127.932 97.3957C129.075 97.3957 130.001 96.4694 130.001 95.3268C130.001 94.1841 129.075 93.2578 127.932 93.2578C126.79 93.2578 125.863 94.1841 125.863 95.3268C125.863 96.4694 126.79 97.3957 127.932 97.3957Z" fill="white"/>
<path d="M127.932 101.533C129.075 101.533 130.001 100.607 130.001 99.4645C130.001 98.3218 129.075 97.3955 127.932 97.3955C126.79 97.3955 125.863 98.3218 125.863 99.4645C125.863 100.607 126.79 101.533 127.932 101.533Z" fill="white"/>
<path d="M127.932 113.948C129.075 113.948 130.001 113.021 130.001 111.879C130.001 110.736 129.075 109.81 127.932 109.81C126.79 109.81 125.863 110.736 125.863 111.879C125.863 113.021 126.79 113.948 127.932 113.948Z" fill="white"/>
<path d="M127.932 118.085C129.075 118.085 130.001 117.159 130.001 116.016C130.001 114.874 129.075 113.947 127.932 113.947C126.79 113.947 125.863 114.874 125.863 116.016C125.863 117.159 126.79 118.085 127.932 118.085Z" fill="white"/>
<path d="M127.932 126.362C129.075 126.362 130.001 125.435 130.001 124.293C130.001 123.15 129.075 122.224 127.932 122.224C126.79 122.224 125.863 123.15 125.863 124.293C125.863 125.435 126.79 126.362 127.932 126.362Z" fill="white"/>
</mask>
<g mask="url(#mask0_2118_121554)">
<path d="M139.192 1.76172H1.26172V139.693H139.192V1.76172Z" fill="#27272A"/>
</g>
<mask id="mask1_2118_121554" style="mask-type:luminance" maskUnits="userSpaceOnUse" x="10" y="10" width="29" height="30">
<path fill-rule="evenodd" clip-rule="evenodd" d="M10 10.499V39.4645H38.9653V10.499H10ZM14.1379 14.637H34.8274V35.3266H14.1379V14.637Z" fill="white"/>
</mask>
<g mask="url(#mask1_2118_121554)">
<path d="M38.9653 10.5H10V39.4655H38.9653V10.5Z" fill="#27272A"/>
</g>
<mask id="mask2_2118_121554" style="mask-type:luminance" maskUnits="userSpaceOnUse" x="18" y="18" width="13" height="14">
<path d="M30.6871 18.7725H18.2734V31.1863H30.6871V18.7725Z" fill="white"/>
</mask>
<g mask="url(#mask2_2118_121554)">
<path d="M30.6871 18.7734H18.2734V31.1872H30.6871V18.7734Z" fill="#27272A"/>
</g>
<mask id="mask3_2118_121554" style="mask-type:luminance" maskUnits="userSpaceOnUse" x="101" y="10" width="29" height="30">
<path fill-rule="evenodd" clip-rule="evenodd" d="M129.996 10.499L101.031 10.499V39.4645H129.996V10.499ZM125.858 14.637V35.3266H105.169V14.637L125.858 14.637Z" fill="white"/>
</mask>
<g mask="url(#mask3_2118_121554)">
<path d="M129.993 10.5H101.027V39.4655H129.993V10.5Z" fill="#27272A"/>
</g>
<mask id="mask4_2118_121554" style="mask-type:luminance" maskUnits="userSpaceOnUse" x="109" y="18" width="13" height="14">
<path d="M121.719 31.1863V18.7725H109.305V31.1863H121.719Z" fill="white"/>
</mask>
<g mask="url(#mask4_2118_121554)">
<path d="M121.718 18.7734H109.305V31.1872H121.718V18.7734Z" fill="#27272A"/>
</g>
<mask id="mask5_2118_121554" style="mask-type:luminance" maskUnits="userSpaceOnUse" x="10" y="101" width="29" height="30">
<path fill-rule="evenodd" clip-rule="evenodd" d="M10 130.501H38.9653V101.535H10L10 130.501ZM14.1379 126.363L14.1379 105.673H34.8274V126.363H14.1379Z" fill="white"/>
</mask>
<g mask="url(#mask5_2118_121554)">
<path d="M38.9653 101.534H10V130.5H38.9653V101.534Z" fill="#27272A"/>
</g>
<mask id="mask6_2118_121554" style="mask-type:luminance" maskUnits="userSpaceOnUse" x="18" y="109" width="13" height="14">
<path d="M18.2734 109.808V122.222H30.6871V109.808H18.2734Z" fill="white"/>
</mask>
<g mask="url(#mask6_2118_121554)">
<path d="M30.6871 109.808H18.2734V122.221H30.6871V109.808Z" fill="#27272A"/>
</g>
</svg>
