<svg width="360" height="352" viewBox="0 0 360 352" fill="none" xmlns="http://www.w3.org/2000/svg">
<mask id="path-1-inside-1_308_16216" fill="white">
<path fill-rule="evenodd" clip-rule="evenodd" d="M352 0.667969H126.593C124.307 0.667969 122.131 1.64515 120.613 3.35306L109.387 15.9829C107.869 17.6908 105.693 18.668 103.407 18.668H19.3137C17.192 18.668 15.1571 19.5108 13.6569 21.0111L8 26.668L2.34314 32.3248C0.842852 33.8251 0 35.8599 0 37.9817V343.668C0 348.086 3.58172 351.668 8 351.668H340.686C342.808 351.668 344.843 350.825 346.343 349.325L352 343.668L357.657 338.011C359.157 336.511 360 334.476 360 332.354V8.66797C360 4.24969 356.418 0.667969 352 0.667969Z"/>
</mask>
<path fill-rule="evenodd" clip-rule="evenodd" d="M352 0.667969H126.593C124.307 0.667969 122.131 1.64515 120.613 3.35306L109.387 15.9829C107.869 17.6908 105.693 18.668 103.407 18.668H19.3137C17.192 18.668 15.1571 19.5108 13.6569 21.0111L8 26.668L2.34314 32.3248C0.842852 33.8251 0 35.8599 0 37.9817V343.668C0 348.086 3.58172 351.668 8 351.668H340.686C342.808 351.668 344.843 350.825 346.343 349.325L352 343.668L357.657 338.011C359.157 336.511 360 334.476 360 332.354V8.66797C360 4.24969 356.418 0.667969 352 0.667969Z" fill="url(#paint0_linear_308_16216)"/>
<path d="M120.613 3.35306L119.866 2.68869V2.68869L120.613 3.35306ZM109.387 15.9829L110.134 16.6472V16.6472L109.387 15.9829ZM13.6569 21.0111L12.9497 20.304L13.6569 21.0111ZM8 26.668L8.70711 27.3751L8 26.668ZM2.34314 32.3248L3.05025 33.0319H3.05025L2.34314 32.3248ZM126.593 1.66797H352V-0.332031H126.593V1.66797ZM121.361 4.01742C122.689 2.523 124.593 1.66797 126.593 1.66797V-0.332031C124.022 -0.332031 121.574 0.767299 119.866 2.68869L121.361 4.01742ZM110.134 16.6472L121.361 4.01742L119.866 2.68869L108.639 15.3185L110.134 16.6472ZM103.407 19.668C105.978 19.668 108.426 18.5686 110.134 16.6472L108.639 15.3185C107.311 16.8129 105.407 17.668 103.407 17.668V19.668ZM19.3137 19.668H103.407V17.668H19.3137V19.668ZM14.364 21.7182C15.6767 20.4055 17.4572 19.668 19.3137 19.668V17.668C16.9268 17.668 14.6376 18.6162 12.9497 20.304L14.364 21.7182ZM8.70711 27.3751L14.364 21.7182L12.9497 20.304L7.29289 25.9609L8.70711 27.3751ZM3.05025 33.0319L8.70711 27.3751L7.29289 25.9609L1.63604 31.6177L3.05025 33.0319ZM1 37.9817C1 36.1252 1.7375 34.3447 3.05025 33.0319L1.63604 31.6177C-0.0517917 33.3055 -1 35.5947 -1 37.9817H1ZM1 343.668V37.9817H-1V343.668H1ZM8 350.668C4.13401 350.668 1 347.534 1 343.668H-1C-1 348.639 3.02944 352.668 8 352.668V350.668ZM340.686 350.668H8V352.668H340.686V350.668ZM347.05 350.032L352.707 344.375L351.293 342.961L345.636 348.618L347.05 350.032ZM352.707 344.375L358.364 338.718L356.95 337.304L351.293 342.961L352.707 344.375ZM359 8.66797V332.354H361V8.66797H359ZM352 1.66797C355.866 1.66797 359 4.80198 359 8.66797H361C361 3.69741 356.971 -0.332031 352 -0.332031V1.66797ZM358.364 338.718C360.052 337.03 361 334.741 361 332.354H359C359 334.211 358.263 335.991 356.95 337.304L358.364 338.718ZM340.686 352.668C343.073 352.668 345.362 351.72 347.05 350.032L345.636 348.618C344.323 349.93 342.543 350.668 340.686 350.668V352.668Z" fill="url(#paint1_linear_308_16216)" mask="url(#path-1-inside-1_308_16216)"/>
<defs>
<linearGradient id="paint0_linear_308_16216" x1="355.5" y1="0.667941" x2="11" y2="348.168" gradientUnits="userSpaceOnUse">
<stop stop-color="#6D51A5"/>
<stop offset="1" stop-color="#ED60A5"/>
</linearGradient>
<linearGradient id="paint1_linear_308_16216" x1="354.5" y1="0.667972" x2="3.49995" y2="347.168" gradientUnits="userSpaceOnUse">
<stop stop-color="#FF30D9" stop-opacity="0"/>
<stop offset="0.151824" stop-color="#FF3DDC"/>
<stop offset="1" stop-color="#FDEEFF"/>
</linearGradient>
</defs>
</svg>
