<svg width="29" height="28" viewBox="0 0 29 28" fill="none" xmlns="http://www.w3.org/2000/svg">
<path d="M6.03114 8.39663C6.03114 7.71591 6.30155 7.06307 6.7829 6.58172C7.26424 6.10038 7.91708 5.82997 8.5978 5.82997H9.76447C10.4422 5.82958 11.0922 5.56117 11.5728 5.0833L12.3895 4.26663C12.628 4.02677 12.9116 3.83641 13.2239 3.70652C13.5363 3.57663 13.8712 3.50977 14.2095 3.50977C14.5477 3.50977 14.8827 3.57663 15.195 3.70652C15.5074 3.83641 15.7909 4.02677 16.0295 4.26663L16.8461 5.0833C17.3268 5.56163 17.9778 5.82997 18.6545 5.82997H19.8211C20.5019 5.82997 21.1547 6.10038 21.636 6.58172C22.1174 7.06307 22.3878 7.71591 22.3878 8.39663V9.5633C22.3878 10.24 22.6561 10.891 23.1345 11.3716L23.9511 12.1883C24.191 12.4268 24.3814 12.7104 24.5112 13.0227C24.6411 13.3351 24.708 13.67 24.708 14.0083C24.708 14.3466 24.6411 14.6815 24.5112 14.9938C24.3814 15.3062 24.191 15.5898 23.9511 15.8283L23.1345 16.645C22.6566 17.1255 22.3882 17.7756 22.3878 18.4533V19.62C22.3878 20.3007 22.1174 20.9535 21.636 21.4349C21.1547 21.9162 20.5019 22.1866 19.8211 22.1866H18.6545C17.9768 22.187 17.3267 22.4554 16.8461 22.9333L16.0295 23.75C15.7909 23.9898 15.5074 24.1802 15.195 24.3101C14.8827 24.44 14.5477 24.5068 14.2095 24.5068C13.8712 24.5068 13.5363 24.44 13.2239 24.3101C12.9116 24.1802 12.628 23.9898 12.3895 23.75L11.5728 22.9333C11.0922 22.4554 10.4422 22.187 9.76447 22.1866H8.5978C7.91708 22.1866 7.26424 21.9162 6.7829 21.4349C6.30155 20.9535 6.03114 20.3007 6.03114 19.62V18.4533C6.03075 17.7756 5.76234 17.1255 5.28447 16.645L4.4678 15.8283C4.22794 15.5898 4.03759 15.3062 3.9077 14.9938C3.7778 14.6815 3.71094 14.3466 3.71094 14.0083C3.71094 13.67 3.7778 13.3351 3.9077 13.0227C4.03759 12.7104 4.22794 12.4268 4.4678 12.1883L5.28447 11.3716C5.76234 10.8911 6.03075 10.241 6.03114 9.5633V8.39663Z" fill="#D9D9D9"/>
<path d="M6.03114 8.39663C6.03114 7.71591 6.30155 7.06307 6.7829 6.58172C7.26424 6.10038 7.91708 5.82997 8.5978 5.82997H9.76447C10.4422 5.82958 11.0922 5.56117 11.5728 5.0833L12.3895 4.26663C12.628 4.02677 12.9116 3.83641 13.2239 3.70652C13.5363 3.57663 13.8712 3.50977 14.2095 3.50977C14.5477 3.50977 14.8827 3.57663 15.195 3.70652C15.5074 3.83641 15.7909 4.02677 16.0295 4.26663L16.8461 5.0833C17.3268 5.56163 17.9778 5.82997 18.6545 5.82997H19.8211C20.5019 5.82997 21.1547 6.10038 21.636 6.58172C22.1174 7.06307 22.3878 7.71591 22.3878 8.39663V9.5633C22.3878 10.24 22.6561 10.891 23.1345 11.3716L23.9511 12.1883C24.191 12.4268 24.3814 12.7104 24.5112 13.0227C24.6411 13.3351 24.708 13.67 24.708 14.0083C24.708 14.3466 24.6411 14.6815 24.5112 14.9938C24.3814 15.3062 24.191 15.5898 23.9511 15.8283L23.1345 16.645C22.6566 17.1255 22.3882 17.7756 22.3878 18.4533V19.62C22.3878 20.3007 22.1174 20.9535 21.636 21.4349C21.1547 21.9162 20.5019 22.1866 19.8211 22.1866H18.6545C17.9768 22.187 17.3267 22.4554 16.8461 22.9333L16.0295 23.75C15.7909 23.9898 15.5074 24.1802 15.195 24.3101C14.8827 24.44 14.5477 24.5068 14.2095 24.5068C13.8712 24.5068 13.5363 24.44 13.2239 24.3101C12.9116 24.1802 12.628 23.9898 12.3895 23.75L11.5728 22.9333C11.0922 22.4554 10.4422 22.187 9.76447 22.1866H8.5978C7.91708 22.1866 7.26424 21.9162 6.7829 21.4349C6.30155 20.9535 6.03114 20.3007 6.03114 19.62V18.4533C6.03075 17.7756 5.76234 17.1255 5.28447 16.645L4.4678 15.8283C4.22794 15.5898 4.03759 15.3062 3.9077 14.9938C3.7778 14.6815 3.71094 14.3466 3.71094 14.0083C3.71094 13.67 3.7778 13.3351 3.9077 13.0227C4.03759 12.7104 4.22794 12.4268 4.4678 12.1883L5.28447 11.3716C5.76234 10.8911 6.03075 10.241 6.03114 9.5633V8.39663Z" fill="url(#paint0_linear_3227_153789)"/>
<path d="M10.7031 17.5L17.7031 10.5" stroke="white" stroke-width="1.75" stroke-linecap="round" stroke-linejoin="round"/>
<path d="M11.2865 11.6667C11.4412 11.6667 11.5895 11.6052 11.6989 11.4958C11.8083 11.3864 11.8698 11.238 11.8698 11.0833C11.8698 10.9286 11.8083 10.7803 11.6989 10.6709C11.5895 10.5615 11.4412 10.5 11.2865 10.5C11.1317 10.5 10.9834 10.5615 10.874 10.6709C10.7646 10.7803 10.7031 10.9286 10.7031 11.0833C10.7031 11.238 10.7646 11.3864 10.874 11.4958C10.9834 11.6052 11.1317 11.6667 11.2865 11.6667Z" fill="white" stroke="white" stroke-width="1.75" stroke-linecap="square" stroke-linejoin="round"/>
<path d="M17.1224 17.4999C17.2771 17.4999 17.4255 17.4385 17.5349 17.3291C17.6443 17.2197 17.7057 17.0713 17.7057 16.9166C17.7057 16.7619 17.6443 16.6135 17.5349 16.5041C17.4255 16.3947 17.2771 16.3333 17.1224 16.3333C16.9677 16.3333 16.8193 16.3947 16.7099 16.5041C16.6005 16.6135 16.5391 16.7619 16.5391 16.9166C16.5391 17.0713 16.6005 17.2197 16.7099 17.3291C16.8193 17.4385 16.9677 17.4999 17.1224 17.4999Z" fill="white" stroke="white" stroke-width="1.75" stroke-linecap="square" stroke-linejoin="round"/>
<defs>
<linearGradient id="paint0_linear_3227_153789" x1="14.2095" y1="3.50977" x2="14.2095" y2="24.5068" gradientUnits="userSpaceOnUse">
<stop stop-color="#6DE886"/>
<stop offset="1" stop-color="#4DFB87"/>
</linearGradient>
</defs>
</svg>
