<svg width="33" height="14" viewBox="0 0 33 14" fill="none" xmlns="http://www.w3.org/2000/svg">
<path d="M14.6904 6.82226C14.5925 6.82226 14.4965 6.68573 14.5421 6.59837L15.5309 4.73682H12.1809L11.0736 6.82226H14.0707C14.1056 6.82225 14.1398 6.83115 14.1703 6.84813C14.2007 6.8651 14.2263 6.88959 14.2446 6.91925C14.2629 6.94891 14.2733 6.98275 14.2748 7.01757C14.2764 7.05239 14.2689 7.08702 14.2533 7.11816L12.3205 10.7653L7.57049 3.40961H4.20037L0.429688 10.5245H3.40791C3.44665 10.5245 3.48474 10.5345 3.51854 10.5535C3.55234 10.5724 3.58071 10.5997 3.60096 10.6327C3.6212 10.6658 3.63264 10.7034 3.63419 10.7421C3.63573 10.7809 3.62732 10.8193 3.60976 10.8539L2.09094 13.7152H5.46067L7.25099 10.3435H4.24641C4.20794 10.3435 4.17013 10.3335 4.13667 10.3145C4.1032 10.2955 4.07521 10.2682 4.05541 10.2352C4.03561 10.2022 4.02468 10.1647 4.02367 10.1262C4.02266 10.0878 4.03162 10.0497 4.04967 10.0157L6.06781 6.23008L10.9076 13.7617H14.1876L17.7914 6.82226H14.6904Z" fill="url(#paint0_linear_3227_153785)"/>
<path d="M27.6151 4.31636C27.1776 3.71198 26.3643 3.4027 25.1988 3.39641H20.8312L19.5221 5.85172H23.8192C24.2127 5.85172 24.5531 6.1551 24.572 6.54897C24.5768 6.64807 24.5614 6.74712 24.5268 6.84011C24.4922 6.93309 24.439 7.01809 24.3706 7.08994C24.3022 7.16179 24.2199 7.21899 24.1287 7.2581C24.0375 7.2972 23.9393 7.31739 23.8401 7.31743H18.7442L17.4331 9.79046H23.5714C23.6675 9.7904 23.7626 9.80929 23.8514 9.84602C23.9402 9.88276 24.0209 9.93663 24.0888 10.0046C24.1568 10.0725 24.2107 10.1531 24.2475 10.2419C24.2843 10.3307 24.3032 10.4258 24.3032 10.5219C24.3035 10.6184 24.2847 10.7139 24.2479 10.8031C24.211 10.8923 24.1569 10.9733 24.0887 11.0414C24.0205 11.1096 23.9394 11.1636 23.8502 11.2003C23.761 11.237 23.6655 11.2557 23.569 11.2554H16.6544L15.3524 13.7079H17.0341C18.8315 13.7079 19.9459 13.7052 22.7679 13.6894C24.8533 13.6776 26.3214 12.4763 26.7943 10.3941C26.8994 9.92739 27.067 9.18528 26.5523 8.58719C27.1425 8.20355 27.4774 7.72351 27.7328 6.92474C28.0963 5.80136 28.057 4.92429 27.6151 4.31636Z" fill="url(#paint1_linear_3227_153785)"/>
<path d="M30.3285 3.81641C30.2513 3.77575 30.1591 3.77571 30.0819 3.81629L29.3032 4.22571C29.109 4.3278 28.8821 4.16291 28.9192 3.94668L29.0679 3.07944C29.0827 2.99352 29.0542 2.90584 28.9917 2.84503L28.361 2.2311C28.2037 2.07799 28.2904 1.81098 28.5077 1.77949L29.3775 1.65342C29.4638 1.64092 29.5384 1.58677 29.5769 1.50861L29.9663 0.719567C30.0634 0.52284 30.3439 0.52284 30.441 0.719567L30.8304 1.50861C30.869 1.58677 30.9436 1.64092 31.0298 1.65342L31.8997 1.77949C32.117 1.81098 32.2037 2.07799 32.0464 2.2311L31.4157 2.84503C31.3532 2.90584 31.3247 2.99352 31.3394 3.07944L31.4881 3.94606C31.5252 4.1624 31.298 4.3273 31.1038 4.22497L30.3285 3.81641Z" fill="url(#paint2_linear_3227_153785)"/>
<defs>
<linearGradient id="paint0_linear_3227_153785" x1="32.4316" y1="2.35637" x2="27.9766" y2="2.35637" gradientUnits="userSpaceOnUse">
<stop stop-color="#030466"/>
<stop offset="1" stop-color="#4E34E0"/>
</linearGradient>
<linearGradient id="paint1_linear_3227_153785" x1="32.4316" y1="2.35637" x2="27.9766" y2="2.35637" gradientUnits="userSpaceOnUse">
<stop stop-color="#030466"/>
<stop offset="1" stop-color="#4E34E0"/>
</linearGradient>
<linearGradient id="paint2_linear_3227_153785" x1="32.4316" y1="2.35637" x2="27.9766" y2="2.35637" gradientUnits="userSpaceOnUse">
<stop stop-color="#030466"/>
<stop offset="1" stop-color="#4E34E0"/>
</linearGradient>
</defs>
</svg>
