<svg width="29" height="28" viewBox="0 0 29 28" fill="none" xmlns="http://www.w3.org/2000/svg">
<path d="M18.3047 4.66675L25.3047 7.00008V12.8334H21.8047V22.1667C21.8047 22.4762 21.6818 22.7729 21.463 22.9917C21.2442 23.2105 20.9474 23.3334 20.638 23.3334H8.97135C8.66194 23.3334 8.36519 23.2105 8.1464 22.9917C7.9276 22.7729 7.80469 22.4762 7.80469 22.1667V12.8334H4.30469V7.00008L11.3047 4.66675C11.3047 5.59501 11.6734 6.48524 12.3298 7.14162C12.9862 7.798 13.8764 8.16675 14.8047 8.16675C15.7329 8.16675 16.6232 7.798 17.2796 7.14162C17.9359 6.48524 18.3047 5.59501 18.3047 4.66675Z" fill="url(#paint0_linear_3227_153780)"/>
<defs>
<linearGradient id="paint0_linear_3227_153780" x1="14.8047" y1="4.66675" x2="14.8047" y2="23.3334" gradientUnits="userSpaceOnUse">
<stop stop-color="#6DA2E8"/>
<stop offset="1" stop-color="#4D81FB"/>
</linearGradient>
</defs>
</svg>
