<svg width="29" height="28" viewBox="0 0 29 28" fill="none" xmlns="http://www.w3.org/2000/svg">
<path d="M10.901 5.83325H8.56771C7.94887 5.83325 7.35538 6.07908 6.91779 6.51667C6.48021 6.95425 6.23438 7.54775 6.23438 8.16659V22.1666C6.23438 22.7854 6.48021 23.3789 6.91779 23.8165C7.35538 24.2541 7.94887 24.4999 8.56771 24.4999H20.2344C20.8532 24.4999 21.4467 24.2541 21.8843 23.8165C22.3219 23.3789 22.5677 22.7854 22.5677 22.1666V8.16659C22.5677 7.54775 22.3219 6.95425 21.8843 6.51667C21.4467 6.07908 20.8532 5.83325 20.2344 5.83325H17.901" fill="url(#paint0_linear_3227_153793)"/>
<path d="M15.5651 3.5H13.2318C12.6129 3.5 12.0194 3.74583 11.5819 4.18342C11.1443 4.621 10.8984 5.21449 10.8984 5.83333C10.8984 6.45217 11.1443 7.04566 11.5819 7.48325C12.0194 7.92083 12.6129 8.16667 13.2318 8.16667H15.5651C16.1839 8.16667 16.7774 7.92083 17.215 7.48325C17.6526 7.04566 17.8984 6.45217 17.8984 5.83333C17.8984 5.21449 17.6526 4.621 17.215 4.18342C16.7774 3.74583 16.1839 3.5 15.5651 3.5Z" fill="url(#paint1_linear_3227_153793)" stroke="white" stroke-width="1.75" stroke-linecap="square" stroke-linejoin="round"/>
<path d="M16.7292 12.8333H13.8125C13.5827 12.8333 13.3551 12.8785 13.1428 12.9665C12.9305 13.0544 12.7376 13.1833 12.5751 13.3458C12.4126 13.5083 12.2837 13.7012 12.1957 13.9136C12.1078 14.1259 12.0625 14.3534 12.0625 14.5833C12.0625 14.8131 12.1078 15.0406 12.1957 15.2529C12.2837 15.4653 12.4126 15.6582 12.5751 15.8207C12.7376 15.9832 12.9305 16.1121 13.1428 16.2C13.3551 16.288 13.5827 16.3333 13.8125 16.3333H14.9792C15.4433 16.3333 15.8884 16.5176 16.2166 16.8458C16.5448 17.174 16.7292 17.6191 16.7292 18.0833C16.7292 18.5474 16.5448 18.9925 16.2166 19.3207C15.8884 19.6489 15.4433 19.8333 14.9792 19.8333H12.0625" stroke="white" stroke-width="1.75" stroke-linecap="round" stroke-linejoin="round"/>
<path d="M14.3984 11.6667V12.8334M14.3984 19.8334V21.0001" stroke="white" stroke-width="1.75" stroke-linecap="round" stroke-linejoin="round"/>
<defs>
<linearGradient id="paint0_linear_3227_153793" x1="14.401" y1="5.83325" x2="14.401" y2="24.4999" gradientUnits="userSpaceOnUse">
<stop stop-color="#EDA173"/>
<stop offset="1" stop-color="#E3564C"/>
</linearGradient>
<linearGradient id="paint1_linear_3227_153793" x1="14.3984" y1="3.5" x2="14.3984" y2="8.16667" gradientUnits="userSpaceOnUse">
<stop stop-color="#EDA173"/>
<stop offset="1" stop-color="#E3564C"/>
</linearGradient>
</defs>
</svg>
