<svg width="29" height="28" viewBox="0 0 29 28" fill="none" xmlns="http://www.w3.org/2000/svg">
<path d="M7.09635 12.7969L6.42969 12.7007V12.6532L6.0984 12.496C6.41302 12.645 6.74932 12.7468 7.09635 12.7969ZM6.42969 24.4994H6.45623L6.43037 24.5017L6.42969 24.5018L6.42901 24.5017L6.40315 24.4994H6.42969ZM22.7365 24.4994H22.763H22.7896L22.7637 24.5017L22.763 24.5018L22.7623 24.5017L22.7365 24.4994ZM22.763 12.7007L22.0964 12.7969C22.4442 12.7467 22.7812 12.6446 23.0964 12.495L22.763 12.6532L22.763 12.7007ZM18.5944 11.1322L18.0964 10.3035L17.5963 11.1356C17.9208 10.5956 18.0964 9.97324 18.0964 9.33276C18.0964 9.97193 18.2712 10.5931 18.5944 11.1322ZM11.5964 11.1356L11.0964 10.3035L10.5963 11.1356C10.9208 10.5956 11.0964 9.97324 11.0964 9.33276C11.0964 9.97325 11.2719 10.5956 11.5964 11.1356ZM9.92969 23.3328H7.59635V13.9994C8.83403 13.9994 10.021 13.5078 10.8962 12.6326C10.9653 12.5635 11.0321 12.4924 11.0964 12.4195C11.1606 12.4924 11.2274 12.5635 11.2965 12.6326C12.1717 13.5078 13.3587 13.9994 14.5964 13.9994C15.834 13.9994 17.021 13.5078 17.8962 12.6326C17.9653 12.5635 18.0321 12.4924 18.0964 12.4195C18.1607 12.4924 18.2274 12.5635 18.2965 12.6326L18.709 12.2201L18.2965 12.6326C19.1717 13.5078 20.3587 13.9994 21.5964 13.9994V23.3328H19.263V19.8328C19.263 18.9045 18.8943 18.0143 18.2379 17.3579C17.5815 16.7015 16.6913 16.3328 15.763 16.3328H13.4297C12.5014 16.3328 11.6112 16.7015 10.9548 17.3579C10.2984 18.0143 9.92969 18.9045 9.92969 19.8328V23.3328ZM12.9464 10.9827C12.5089 10.5451 12.263 9.9516 12.263 9.33276H16.9297C16.9297 9.9516 16.6839 10.5451 16.2463 10.9827C15.8087 11.4203 15.2152 11.6661 14.5964 11.6661C13.9775 11.6661 13.384 11.4203 12.9464 10.9827ZM9.92969 9.33276C9.92969 9.9516 9.68386 10.5451 9.24627 10.9827C8.80869 11.4203 8.21519 11.6661 7.59635 11.6661C6.97752 11.6661 6.38402 11.4203 5.94644 10.9827C5.50885 10.5451 5.26302 9.9516 5.26302 9.33276H9.92969ZM22.042 4.6661L23.2086 6.99943H5.98406L7.15073 4.6661H22.042ZM19.9464 10.9827C19.5089 10.5451 19.263 9.9516 19.263 9.33276H23.9297C23.9297 9.9516 23.6839 10.5451 23.2463 10.9827C22.8087 11.4203 22.2152 11.6661 21.5964 11.6661C20.9775 11.6661 20.384 11.4203 19.9464 10.9827ZM16.9297 19.8328V23.3328H12.263V19.8328C12.263 19.5233 12.3859 19.2266 12.6047 19.0078C12.8235 18.789 13.1203 18.6661 13.4297 18.6661H15.763C16.0724 18.6661 16.3692 18.789 16.588 19.0078C16.8068 19.2266 16.9297 19.5233 16.9297 19.8328Z" fill="url(#paint0_linear_3227_153768)" stroke="url(#paint1_linear_3227_153768)" stroke-width="1.16667"/>
<path d="M11.1016 24.5V19.8333C11.1016 19.2145 11.3474 18.621 11.785 18.1834C12.2226 17.7458 12.8161 17.5 13.4349 17.5H15.7682C16.3871 17.5 16.9806 17.7458 17.4181 18.1834C17.8557 18.621 18.1016 19.2145 18.1016 19.8333V24.5" stroke="#FEE3CE" stroke-width="1.75" stroke-linecap="round" stroke-linejoin="round"/>
<path d="M4.10156 24.5H25.1016H4.10156Z" fill="url(#paint2_linear_3227_153768)"/>
<path d="M6.4349 24.5018V12.6602V24.5018Z" fill="url(#paint3_linear_3227_153768)"/>
<path d="M22.7682 24.5018V12.6602V24.5018Z" fill="url(#paint4_linear_3227_153768)"/>
<path d="M4.10156 24.5H25.1016M6.4349 24.5018V12.6602M22.7682 24.5018V12.6602" stroke="url(#paint5_linear_3227_153768)" stroke-width="1.16667" stroke-linecap="round" stroke-linejoin="round"/>
<path d="M18.1016 9.3339C18.1016 10.2622 18.4703 11.1524 19.1267 11.8088C19.7831 12.4652 20.6733 12.8339 21.6016 12.8339C22.5298 12.8339 23.4201 12.4652 24.0764 11.8088C24.7328 11.1524 25.1016 10.2622 25.1016 9.3339V8.16724" stroke="#FEE3CE" stroke-width="1.75" stroke-linecap="round" stroke-linejoin="round"/>
<path d="M11.1016 9.3339C11.1016 10.2622 11.4703 11.1524 12.1267 11.8088C12.7831 12.4652 13.6733 12.8339 14.6016 12.8339C15.5298 12.8339 16.4201 12.4652 17.0764 11.8088C17.7328 11.1524 18.1016 10.2622 18.1016 9.3339V8.16724" stroke="#FEE3CE" stroke-width="1.75" stroke-linecap="round" stroke-linejoin="round"/>
<path d="M4.10156 8.16724V9.3339C4.10156 10.2622 4.47031 11.1524 5.12669 11.8088C5.78307 12.4652 6.6733 12.8339 7.60156 12.8339C8.52982 12.8339 9.42006 12.4652 10.0764 11.8088C10.7328 11.1524 11.1016 10.2622 11.1016 9.3339V8.16724" stroke="#FEE3CE" stroke-width="1.75" stroke-linecap="round" stroke-linejoin="round"/>
<defs>
<linearGradient id="paint0_linear_3227_153768" x1="14.5964" y1="-1.16724" x2="14.5964" y2="29.1661" gradientUnits="userSpaceOnUse">
<stop stop-color="#FBA604"/>
<stop offset="1" stop-color="#F07304"/>
</linearGradient>
<linearGradient id="paint1_linear_3227_153768" x1="14.5964" y1="-1.16724" x2="14.5964" y2="29.1661" gradientUnits="userSpaceOnUse">
<stop stop-color="#FBA604"/>
<stop offset="1" stop-color="#F07304"/>
</linearGradient>
<linearGradient id="paint2_linear_3227_153768" x1="14.6016" y1="12.6602" x2="14.6016" y2="24.5018" gradientUnits="userSpaceOnUse">
<stop stop-color="#FBA604"/>
<stop offset="1" stop-color="#F07304"/>
</linearGradient>
<linearGradient id="paint3_linear_3227_153768" x1="14.6016" y1="12.6602" x2="14.6016" y2="24.5018" gradientUnits="userSpaceOnUse">
<stop stop-color="#FBA604"/>
<stop offset="1" stop-color="#F07304"/>
</linearGradient>
<linearGradient id="paint4_linear_3227_153768" x1="14.6016" y1="12.6602" x2="14.6016" y2="24.5018" gradientUnits="userSpaceOnUse">
<stop stop-color="#FBA604"/>
<stop offset="1" stop-color="#F07304"/>
</linearGradient>
<linearGradient id="paint5_linear_3227_153768" x1="14.6016" y1="12.6602" x2="14.6016" y2="24.5018" gradientUnits="userSpaceOnUse">
<stop stop-color="#FBA604"/>
<stop offset="1" stop-color="#F07304"/>
</linearGradient>
</defs>
</svg>
