<svg width="32" height="32" viewBox="0 0 32 32" fill="none" xmlns="http://www.w3.org/2000/svg">
<path d="M24.0013 3H5.33464C3.30959 3 1.66797 4.64162 1.66797 6.66667V20C1.66797 22.025 3.30959 23.6667 5.33464 23.6667H24.0013C26.0263 23.6667 27.668 22.025 27.668 20V6.66667C27.668 4.64162 26.0263 3 24.0013 3Z" fill="#27272A"/>
<path d="M24.0013 28.9987C27.4991 28.9987 30.3346 26.1632 30.3346 22.6654C30.3346 19.1676 27.4991 16.332 24.0013 16.332C20.5035 16.332 17.668 19.1676 17.668 22.6654C17.668 26.1632 20.5035 28.9987 24.0013 28.9987Z" fill="#FF3F1A"/>
<path d="M24 25.668C23.7348 25.668 23.4804 25.5626 23.2929 25.3751C23.1054 25.1875 23 24.9332 23 24.668V20.668C23 20.4028 23.1054 20.1484 23.2929 19.9609C23.4804 19.7733 23.7348 19.668 24 19.668C24.2652 19.668 24.5196 19.7733 24.7071 19.9609C24.8946 20.1484 25 20.4028 25 20.668V24.668C25 24.9332 24.8946 25.1875 24.7071 25.3751C24.5196 25.5626 24.2652 25.668 24 25.668Z" fill="white"/>
<path d="M26 23.668H22C21.7348 23.668 21.4804 23.5626 21.2929 23.3751C21.1054 23.1875 21 22.9332 21 22.668C21 22.4028 21.1054 22.1484 21.2929 21.9609C21.4804 21.7733 21.7348 21.668 22 21.668H26C26.2652 21.668 26.5196 21.7733 26.7071 21.9609C26.8946 22.1484 27 22.4028 27 22.668C27 22.9332 26.8946 23.1875 26.7071 23.3751C26.5196 23.5626 26.2652 23.668 26 23.668Z" fill="white"/>
<path d="M1.66797 8.33203H27.668V10.332H1.66797V8.33203Z" fill="#FFB56C"/>
<path d="M9.33464 15.668H6.66797C6.40275 15.668 6.1484 15.5626 5.96086 15.3751C5.77333 15.1875 5.66797 14.9332 5.66797 14.668C5.66797 14.4028 5.77333 14.1484 5.96086 13.9609C6.1484 13.7733 6.40275 13.668 6.66797 13.668H9.33464C9.59985 13.668 9.85421 13.7733 10.0417 13.9609C10.2293 14.1484 10.3346 14.4028 10.3346 14.668C10.3346 14.9332 10.2293 15.1875 10.0417 15.3751C9.85421 15.5626 9.59985 15.668 9.33464 15.668Z" fill="white"/>
<path d="M12.0013 19.668H6.66797C6.40275 19.668 6.1484 19.5626 5.96086 19.3751C5.77333 19.1875 5.66797 18.9332 5.66797 18.668C5.66797 18.4028 5.77333 18.1484 5.96086 17.9609C6.1484 17.7733 6.40275 17.668 6.66797 17.668H12.0013C12.2665 17.668 12.5209 17.7733 12.7084 17.9609C12.8959 18.1484 13.0013 18.4028 13.0013 18.668C13.0013 18.9332 12.8959 19.1875 12.7084 19.3751C12.5209 19.5626 12.2665 19.668 12.0013 19.668Z" fill="white"/>
</svg>
