<svg width="24" height="24" viewBox="0 0 24 24" fill="none" xmlns="http://www.w3.org/2000/svg">
<g clip-path="url(#clip0_2090_144260)">
<path d="M12.2412 23.8636C13.6037 23.4017 14.3339 21.9228 13.872 20.5602C13.4102 19.1977 11.9312 18.4675 10.5687 18.9294C9.20612 19.3912 8.47597 20.8702 8.93783 22.2327C9.39968 23.5953 10.8787 24.3254 12.2412 23.8636Z" fill="#A079FC"/>
<path d="M11.4098 18.7891C11.244 18.7891 11.0819 18.8052 10.9247 18.8349C11.6877 19.0133 12.2561 19.6974 12.2561 20.5148C12.2561 21.4679 11.4835 22.2405 10.5304 22.2405C9.71302 22.2405 9.02888 21.6721 8.85049 20.9091C8.82086 21.0664 8.80469 21.2284 8.80469 21.3942C8.80469 22.833 9.97107 23.9994 11.4099 23.9994C12.8487 23.9994 14.0151 22.833 14.0151 21.3942C14.015 19.9554 12.8486 18.7891 11.4098 18.7891Z" fill="#733DF2"/>
<path d="M18.4612 0.651745C17.739 0.23483 16.8157 0.48224 16.3988 1.20436L15.1478 3.37107C14.7309 4.09319 14.9783 5.01653 15.7005 5.43344C16.4226 5.85036 17.3459 5.60295 17.7628 4.88083L19.0138 2.71412C19.4307 1.992 19.1833 1.06866 18.4612 0.651745Z" fill="#A079FC"/>
<path d="M17.7452 22.4421C16.7132 20.8055 20.2508 13.5628 20.2965 13.4703C22.2128 9.58697 20.7308 4.94098 16.9864 3.09318C13.2419 1.24537 8.65292 2.8955 6.73659 6.77882C6.63843 6.97776 3.23007 14.2386 1.27051 14.3122L17.7452 22.4421Z" fill="#A079FC"/>
<path d="M16.9864 3.09338C16.5794 2.8925 16.1623 2.7331 15.7398 2.61328C17.746 4.20794 18.4143 7.10551 17.1936 9.57932C17.1755 9.61589 16.4094 11.1841 15.8307 12.8038C15.2534 14.4198 13.404 15.1787 11.8652 14.4193L4.56561 10.8171C3.48408 12.5875 2.21065 14.2771 1.27051 14.3124L17.7452 22.4422C16.7132 20.8056 20.2508 13.5629 20.2965 13.4705C22.2128 9.58718 20.7308 4.94119 16.9864 3.09338Z" fill="#733DF2"/>
<path d="M9.47565 7.05537C9.36836 7.05537 9.26039 7.02001 9.17049 6.94725C8.96193 6.77852 8.92964 6.47274 9.09831 6.26418C9.55331 5.70175 10.0907 5.21631 10.6956 4.8213C10.9201 4.67457 11.2212 4.73781 11.3678 4.96244C11.5145 5.18702 11.4513 5.488 11.2266 5.63463C10.7067 5.97418 10.2447 6.39148 9.85351 6.87508C9.75754 6.99378 9.61718 7.05537 9.47565 7.05537Z" fill="white"/>
<path d="M12.4398 5.0046C12.2355 5.0046 12.0455 4.87473 11.9784 4.67006C11.8948 4.41517 12.0338 4.1408 12.2886 4.05726C12.4732 3.99675 12.663 3.94371 12.8526 3.89951C13.1138 3.83861 13.375 4.00102 13.4358 4.26227C13.4967 4.52348 13.3343 4.78463 13.0731 4.84554C12.911 4.88332 12.7488 4.92864 12.5912 4.98031C12.541 4.99673 12.4899 5.0046 12.4398 5.0046Z" fill="white"/>
<path d="M13.7285 22.466C13.6563 22.466 13.583 22.4498 13.5139 22.4157L9.36168 20.3667C9.12112 20.248 9.02238 19.9568 9.14108 19.7162C9.25978 19.4757 9.55095 19.3769 9.79156 19.4956L13.9438 21.5446C14.1843 21.6633 14.2831 21.9545 14.1644 22.1951C14.0797 22.3665 13.9075 22.466 13.7285 22.466Z" fill="#D2C3FF"/>
<path d="M1.94594 4.78683L2.34488 5.90867C2.36198 5.95671 2.39578 5.99478 2.43847 6.01402L3.43515 6.46309C3.57595 6.52652 3.57595 6.75086 3.43515 6.81434L2.43847 7.2634C2.39578 7.28264 2.36198 7.32067 2.34488 7.3687L1.94594 8.49054C1.8896 8.64902 1.69022 8.64902 1.63388 8.49054L1.23494 7.3687C1.21784 7.32067 1.18404 7.28259 1.14134 7.2634L0.144663 6.81434C0.00386224 6.7509 0.00386224 6.52656 0.144663 6.46309L1.14134 6.01402C1.18404 5.99478 1.21784 5.95671 1.23494 5.90867L1.63388 4.78683C1.69022 4.62835 1.88955 4.62835 1.94594 4.78683Z" fill="#BFA4FE"/>
<path d="M6.8998 0.0881524L7.19573 0.920282C7.2084 0.955932 7.23347 0.98415 7.26513 0.998429L8.00445 1.33151C8.10892 1.37858 8.10892 1.54497 8.00445 1.59204L7.26513 1.92512C7.23347 1.9394 7.2084 1.96762 7.19573 2.00327L6.8998 2.8354C6.85798 2.95299 6.71014 2.95299 6.66832 2.8354L6.37239 2.00327C6.35971 1.96762 6.33465 1.9394 6.30298 1.92512L5.56367 1.59204C5.45925 1.54497 5.45925 1.37858 5.56367 1.33151L6.30298 0.998429C6.33465 0.98415 6.35971 0.955932 6.37239 0.920282L6.66832 0.0881524C6.71014 -0.0293841 6.85798 -0.0293841 6.8998 0.0881524Z" fill="#BFA4FE"/>
<path d="M23.9501 4.0747C24.0545 3.6051 23.7585 3.13979 23.2889 3.03538C22.8193 2.93097 22.354 3.22701 22.2496 3.6966C22.1452 4.1662 22.4412 4.63151 22.9108 4.73592C23.3804 4.84033 23.8457 4.54429 23.9501 4.0747Z" fill="#A079FC"/>
<path d="M2.68339 2.77109C2.89093 2.77109 3.05917 2.60284 3.05917 2.39531C3.05917 2.18777 2.89093 2.01953 2.68339 2.01953C2.47586 2.01953 2.30762 2.18777 2.30762 2.39531C2.30762 2.60284 2.47586 2.77109 2.68339 2.77109Z" fill="#A079FC"/>
<path d="M16.4067 23.3007L1.30184 15.8468C0.715517 15.5575 0.474761 14.8476 0.764085 14.2613L0.783124 14.2227C1.07245 13.6364 1.78233 13.3957 2.36865 13.685L17.4735 21.1389C18.0598 21.4282 18.3006 22.1381 18.0113 22.7244L17.9922 22.763C17.7029 23.3494 16.9931 23.5901 16.4067 23.3007Z" fill="#A079FC"/>
</g>
<defs>
<clipPath id="clip0_2090_144260">
<rect width="24" height="24" fill="white"/>
</clipPath>
</defs>
</svg>
