<svg width="24" height="24" viewBox="0 0 24 24" fill="none" xmlns="http://www.w3.org/2000/svg">
<path d="M11.5 24C17.8513 24 23 18.8513 23 12.5C23 6.14873 17.8513 1 11.5 1C5.14873 1 0 6.14873 0 12.5C0 18.8513 5.14873 24 11.5 24Z" fill="#A079FC"/>
<path d="M11.501 21.125C16.2644 21.125 20.126 17.2635 20.126 12.5C20.126 7.73654 16.2644 3.875 11.501 3.875C6.73752 3.875 2.87598 7.73654 2.87598 12.5C2.87598 17.2635 6.73752 21.125 11.501 21.125Z" fill="#733DF2"/>
<path d="M10.319 16.7969C9.92146 16.7972 9.54001 16.6396 9.25852 16.3589L7.25897 14.3578C6.98572 14.0749 6.83453 13.696 6.83795 13.3027C6.84137 12.9094 6.99912 12.5332 7.27724 12.255C7.55536 11.9769 7.93159 11.8192 8.32489 11.8157C8.7182 11.8123 9.09711 11.9635 9.38002 12.2368L10.319 13.1758L13.2591 10.2357C13.3986 10.0964 13.5641 9.98601 13.7463 9.91072C13.9284 9.83542 14.1236 9.79674 14.3207 9.79688C14.5178 9.79701 14.7129 9.83597 14.895 9.91153C15.077 9.98708 15.2424 10.0978 15.3817 10.2372C15.5209 10.3767 15.6314 10.5422 15.7067 10.7244C15.782 10.9065 15.8206 11.1017 15.8205 11.2988C15.8204 11.4959 15.7814 11.691 15.7059 11.8731C15.6303 12.0551 15.5196 12.2205 15.3802 12.3598L11.3796 16.3589C11.0981 16.6396 10.7166 16.7972 10.319 16.7969Z" fill="#E9E1FD"/>
</svg>
