<svg width="24" height="24" viewBox="0 0 24 24" fill="none" xmlns="http://www.w3.org/2000/svg">
<path d="M14.87 3.37999L16.4937 6.81499L14.4387 7.73374L12.8375 4.34374C12.1287 2.84749 10.34 2.20624 8.84374 2.91499C7.34749 3.61999 6.70624 5.41249 7.41124 6.90874L9.46624 11.2512H7.12624C7.07749 11.2512 7.02874 11.255 6.97999 11.2587L5.37874 7.86874C4.14124 5.25124 5.26249 2.11624 7.87999 0.878744C10.4975 -0.358756 13.6325 0.762494 14.87 3.37999Z" fill="#E9E1FD"/>
<path d="M11.6295 1.87626C9.75454 1.12626 7.87954 1.87626 6.75454 3.37626C5.62954 5.25126 7.12954 7.87626 6.75454 9.75126C6.75454 9.93163 6.66642 10.1113 6.51904 10.2759L6.98329 11.2588C7.03204 11.255 7.08079 11.2513 7.12954 11.2513H9.46954L7.41454 6.90876C6.70954 5.41251 7.35079 3.62001 8.84704 2.91501C10.3433 2.20626 12.132 2.84751 12.8408 4.34376L14.442 7.73376L15.6004 7.21589C14.5838 4.89014 13.5045 2.62626 11.6295 1.87626Z" fill="#BFA4FE"/>
<path d="M13.2693 19.7553C13.3331 20.0478 13.1118 20.3253 12.8118 20.3253H11.1768C10.8768 20.3253 10.6556 20.0478 10.7193 19.7553L11.3568 16.8941C10.8393 16.6241 10.5056 16.0541 10.6143 15.4128C10.7081 14.8428 11.1693 14.3741 11.7393 14.2728C12.6243 14.1153 13.3968 14.7941 13.3968 15.6528C13.3968 16.1928 13.0856 16.6578 12.6318 16.8941L13.2693 19.7553Z" fill="#E9E1FD"/>
<path d="M9.465 11.25H16.875C17.7037 11.25 18.375 11.9212 18.375 12.75V22.125C18.375 22.9537 17.7037 23.625 16.875 23.625H7.125C6.29625 23.625 5.625 22.9537 5.625 22.125V12.75C5.625 11.97 6.2175 11.3288 6.97875 11.2575C7.0275 11.2538 7.07625 11.25 7.125 11.25H9.465ZM12.8175 20.325C13.1175 20.325 13.3388 20.0475 13.275 19.755L12.6375 16.8937C13.0913 16.6575 13.4025 16.1925 13.4025 15.6525C13.4025 14.7938 12.63 14.115 11.745 14.2725C11.175 14.3738 10.7137 14.8425 10.62 15.4125C10.5113 16.0537 10.845 16.6237 11.3625 16.8937L10.725 19.755C10.6613 20.0475 10.8825 20.325 11.1825 20.325H12.8175Z" fill="#A079FC"/>
<path d="M18.3731 12.75V22.125C18.3731 22.9537 17.7019 23.625 16.8731 23.625H7.12312C6.42562 23.625 5.83687 23.1488 5.67188 22.5H15.3731C16.2019 22.5 16.8731 21.8287 16.8731 21V11.625C16.8731 11.4938 16.8581 11.37 16.8244 11.25H16.8731C17.7019 11.25 18.3731 11.9212 18.3731 12.75Z" fill="#733DF2"/>
<path d="M6.75 13.596V12.8483C6.75 12.5869 6.96187 12.375 7.22325 12.375H8.0955C8.535 12.375 8.73713 12.9218 8.40338 13.2075L7.53113 13.9553C7.22438 14.2185 6.75 14.0003 6.75 13.596Z" fill="#F5F1FD"/>
<path d="M17.248 5.625C17.041 5.625 16.873 5.45738 16.873 5.25V3.375C16.873 3.16763 17.041 3 17.248 3C17.455 3 17.623 3.16763 17.623 3.375V5.25C17.623 5.45738 17.455 5.625 17.248 5.625Z" fill="#A079FC"/>
<path d="M18.3731 6.00009C18.2771 6.00009 18.1811 5.96334 18.108 5.89022C17.9614 5.74359 17.9614 5.50659 18.108 5.35997L19.608 3.85997C19.7546 3.71334 19.9916 3.71334 20.1383 3.85997C20.2849 4.00659 20.2849 4.24359 20.1383 4.39022L18.6383 5.89022C18.5651 5.96334 18.4691 6.00009 18.3731 6.00009Z" fill="#A079FC"/>
<path d="M20.623 7.125H19.123C18.916 7.125 18.748 6.95737 18.748 6.75C18.748 6.54263 18.916 6.375 19.123 6.375H20.623C20.83 6.375 20.998 6.54263 20.998 6.75C20.998 6.95737 20.83 7.125 20.623 7.125Z" fill="#A079FC"/>
</svg>
